<?xml version="1.0" encoding="UTF-8" standalone="no"?>
<!-- Created with Inkscape (http://www.inkscape.org/) -->

<svg
   xmlns:dc="http://purl.org/dc/elements/1.1/"
   xmlns:cc="http://creativecommons.org/ns#"
   xmlns:rdf="http://www.w3.org/1999/02/22-rdf-syntax-ns#"
   xmlns:svg="http://www.w3.org/2000/svg"
   xmlns="http://www.w3.org/2000/svg"
   xmlns:sodipodi="http://sodipodi.sourceforge.net/DTD/sodipodi-0.dtd"
   xmlns:inkscape="http://www.inkscape.org/namespaces/inkscape"
   width="115.00001mm"
   height="70mm"
   viewBox="0 0 115.00001 70"
   version="1.1"
   id="svg1079"
   inkscape:version="0.92.4 (5da689c313, 2019-01-14)"
   sodipodi:docname="33.1.svg">
  <defs
     id="defs1073">
    <clipPath
       clipPathUnits="userSpaceOnUse"
       id="clipPath1058">
      <ellipse
         style="fill:#ffcc00;fill-opacity:1;stroke:#ffcc00;stroke-width:5.25652218;stroke-linecap:butt;stroke-linejoin:miter;stroke-miterlimit:4;stroke-dasharray:none;stroke-opacity:1"
         id="ellipse1060"
         cx="59.323036"
         cy="0.8915832"
         rx="27.6078"
         ry="26.313755" />
    </clipPath>
  </defs>
  <sodipodi:namedview
     id="base"
     pagecolor="#ffffff"
     bordercolor="#666666"
     borderopacity="1.0"
     inkscape:pageopacity="0.0"
     inkscape:pageshadow="2"
     inkscape:zoom="0.49497475"
     inkscape:cx="-354.42163"
     inkscape:cy="-20.873113"
     inkscape:document-units="mm"
     inkscape:current-layer="g2384"
     showgrid="false"
     fit-margin-top="0"
     fit-margin-left="0"
     fit-margin-right="0"
     fit-margin-bottom="0"
     inkscape:window-width="1920"
     inkscape:window-height="1001"
     inkscape:window-x="-9"
     inkscape:window-y="-9"
     inkscape:window-maximized="1"
     inkscape:snap-global="true"
     showguides="false"
     inkscape:snap-bbox="true"
     inkscape:snap-bbox-midpoints="true" />
  <metadata
     id="metadata1076">
    <rdf:RDF>
      <cc:Work
         rdf:about="">
        <dc:format>image/svg+xml</dc:format>
        <dc:type
           rdf:resource="http://purl.org/dc/dcmitype/StillImage" />
        <dc:title></dc:title>
      </cc:Work>
    </rdf:RDF>
  </metadata>
  <g
     inkscape:label="Ebene 1"
     inkscape:groupmode="layer"
     id="layer1"
     transform="translate(-73.743187,-156.46748)">
    <g
       id="g1782">
      <g
         transform="matrix(1.0037152,0,0,1.0038501,43.458405,92.506428)"
         style="fill:#040f4f;fill-opacity:1;stroke:none;stroke-width:0.1;stroke-linecap:round;stroke-linejoin:round;stroke-miterlimit:4;stroke-dasharray:none"
         id="g2384">
        <path
           sodipodi:nodetypes="ccsccc"
           inkscape:connector-curvature="0"
           id="path2379"
           d="m 30.172684,63.71574 h 99.675686 c 5.78011,6.133058 8.76542,12.932231 11.99785,19.014489 5.50042,10.349797 4.05232,39.986851 -11.99785,50.717041 H 30.172684 Z"
           style="fill:#a02c89;fill-opacity:1;stroke:none;stroke-width:0.1;stroke-linecap:butt;stroke-linejoin:miter;stroke-miterlimit:4;stroke-dasharray:none;stroke-opacity:1" />
        <g
           transform="matrix(1.9809366,0,0,1.9806704,-29.243428,-424.25269)"
           id="g3236"
           style="fill:#66ff00;fill-opacity:1;stroke:#66ff00;stroke-opacity:1">
          <path
             sodipodi:nodetypes="csccccccccssccsccccccccccccccccccccccccccccssccccccccccscsscsccccccsccccccccccccccsccccscscccccccccccc"
             inkscape:connector-curvature="0"
             id="path2165"
             d="m 56.625842,277.79101 c -1.374343,-0.5109 -2.119116,-1.00806 -3.154913,-2.10606 -0.960644,-1.01833 -1.667782,-2.22327 -1.841593,-3.13803 -0.161625,-0.85061 -0.284764,-0.9699 -1.113462,-1.07862 -1.990835,-0.26117 -4.455166,-2.12067 -5.37237,-4.0538 -0.588612,-1.24062 -0.756759,-2.00345 -0.761163,-3.45322 -0.0066,-2.18837 0.605068,-3.72097 2.130738,-5.33826 1.081666,-1.14662 2.454894,-1.91209 3.979528,-2.21829 l 0.90002,-0.18075 0.385146,-1.16903 c 0.461477,-1.40066 0.955524,-2.15284 2.112107,-3.21565 1.496634,-1.37527 3.193245,-2.04503 5.180382,-2.04503 3.221996,0 6.120168,2.19045 7.248144,5.47819 l 0.311011,0.90653 0.944056,0.25461 c 1.543992,0.41642 2.498424,0.9666 3.622438,2.08814 1.655609,1.65194 2.402447,3.67326 2.221883,6.01345 -0.150147,1.94587 -0.832529,3.45971 -2.176035,4.82741 -1.074679,1.09404 -2.563773,1.90806 -3.836545,2.09724 -0.789031,0.11729 -0.92026,0.23432 -1.067835,0.95228 -0.474501,2.30859 -2.703834,4.59464 -5.362426,5.49884 -1.039095,0.35342 -3.238948,0.29274 -4.349111,-0.11995 z m 3.640286,-0.25376 c 1.342435,-0.27826 2.603826,-0.981 3.648175,-2.03242 1.069945,-1.07721 1.642564,-2.03824 1.975064,-3.31481 0.240815,-0.92454 0.387739,-1.09278 0.960359,-1.0996 0.201942,-0.003 0.652923,-0.10386 1.002166,-0.22557 2.348807,-0.81807 3.932124,-2.36041 4.72015,-4.59801 0.412574,-1.17149 0.453355,-3.21178 0.08907,-4.45395 -0.677944,-2.31145 -3.152782,-4.57014 -5.37835,-4.9086 -0.856678,-0.1303 -1.096169,-0.36131 -1.409839,-1.35993 -0.372243,-1.18509 -0.857736,-1.98774 -1.832818,-3.03011 -0.992013,-1.06045 -2.135585,-1.7198 -3.551548,-2.04768 -1.25946,-0.29166 -1.756112,-0.29074 -2.912001,0.005 -1.601594,0.4103 -2.473238,0.90222 -3.585464,2.02341 -1.051436,1.05991 -1.594377,1.98379 -1.966421,3.34605 -0.202341,0.74089 -0.430011,0.90083 -1.550825,1.08957 -1.074193,0.18085 -2.3284,0.86234 -3.355675,1.8233 -0.783645,0.73305 -1.119125,1.19125 -1.600811,2.18644 l -0.609405,1.25902 0.0099,1.69148 c 0.0078,1.36183 0.07075,1.84884 0.323515,2.49888 0.442108,1.13722 1.270376,2.28153 2.222292,3.07024 1.037704,0.8598 2.786212,1.62995 3.700546,1.62995 0.482679,0 0.622396,0.18828 0.86948,1.17172 0.437196,1.74012 2.107971,3.76632 3.794008,4.6011 1.542414,0.76368 2.964703,0.97968 4.438754,0.67413 z m -3.674655,-1.07515 c -1.994631,-0.83956 -3.667248,-2.84955 -3.921992,-4.713 -0.08388,-0.61393 -0.178236,-0.7831 -0.583789,-1.04708 -0.266023,-0.17316 -0.836667,-0.3623 -1.26809,-0.4203 -2.1994,-0.29569 -4.334377,-2.23339 -5.046383,-4.58007 -0.252359,-0.83173 -0.284708,-2.72795 -0.05861,-3.43831 0.527688,-1.65823 1.629892,-3.11879 2.954073,-3.91453 0.821569,-0.4937 2.164159,-0.91735 2.907188,-0.91735 0.233631,0 0.465617,-0.066 0.515548,-0.14687 0.04988,-0.0808 0.21905,-0.14687 0.375841,-0.14687 0.246974,0 0.285063,-0.10594 0.285063,-0.79287 0,-0.87848 0.475703,-1.95085 1.345548,-3.03325 0.558988,-0.6956 2.29754,-1.90176 2.74116,-1.90176 0.166116,0 0.342884,-0.066 0.392804,-0.14686 0.129839,-0.2101 3.127652,-0.17894 3.745523,0.0389 1.425235,0.50254 3.022304,1.91328 3.71623,3.28266 0.202639,0.39992 0.446235,1.12249 0.541308,1.60574 0.180244,0.91616 0.50281,1.23885 1.242264,1.24276 0.979331,0.005 2.835161,0.89259 3.7323,1.78472 0.746119,0.74196 1.488984,1.77519 1.488984,2.071 0,0.11334 0.04724,0.25334 0.105072,0.31111 0.207318,0.20732 0.469611,1.50244 0.475969,2.35023 0.02196,2.92793 -2.333388,5.8806 -5.026957,6.30177 -0.304664,0.0477 -0.837506,0.22826 -1.184099,0.40134 -0.591174,0.29526 -0.642507,0.37077 -0.829715,1.2204 -0.44672,2.02735 -1.853733,3.68111 -3.902898,4.58734 -0.700526,0.30981 -1.01679,0.35553 -2.382414,0.34444 -1.282947,-0.01 -1.72011,-0.0741 -2.359845,-0.3433 z m 3.224567,-0.0876 c 1.89244,-0.35888 3.713108,-1.70191 4.466699,-3.29488 0.205795,-0.43501 0.465031,-1.26777 0.576085,-1.85058 0.111043,-0.58283 0.279654,-1.10774 0.374694,-1.16648 0.09503,-0.0587 0.628543,-0.14498 1.185578,-0.19169 3.999726,-0.33531 6.47675,-4.69907 4.776043,-8.41391 -0.460131,-1.00505 -1.765096,-2.3897 -2.685324,-2.84929 -0.949045,-0.47398 -2.129833,-0.73978 -2.461616,-0.5541 -0.350611,0.19623 -0.899356,-0.10926 -1.086831,-0.60506 -0.07991,-0.21135 -0.174284,-0.68167 -0.209701,-1.04517 -0.09205,-0.94491 -0.62179,-1.9631 -1.533795,-2.94817 -1.338219,-1.44543 -2.611706,-1.97013 -4.545238,-1.87269 -1.594101,0.0803 -2.688403,0.59504 -3.860792,1.81596 -1.075342,1.11987 -1.617521,2.20093 -1.619519,3.22923 -8.67e-4,0.44387 -0.09724,0.87524 -0.241731,1.08147 -0.205795,0.29381 -0.327047,0.3313 -0.844493,0.26109 -1.963054,-0.26635 -4.570909,1.37385 -5.523023,3.47369 -1.565338,3.45229 0.398953,7.39899 4.147047,8.33235 0.383313,0.0955 0.877801,0.13897 1.098883,0.0967 0.381426,-0.0729 1.191472,0.2221 1.235631,0.44999 0.01136,0.0585 0.03323,0.46988 0.04856,0.91416 0.0384,1.10878 0.669744,2.35189 1.723033,3.3927 0.924258,0.91329 1.828713,1.41331 3.054456,1.68856 1.038456,0.23321 0.997762,0.23203 1.925329,0.0561 z"
             style="fill:#66ff00;fill-opacity:1;stroke:#66ff00;stroke-width:0.14686915;stroke-opacity:1" />
          <path
             inkscape:connector-curvature="0"
             id="path2197"
             d="m 57.915122,277.53388 c -0.941138,-0.17381 -2.06924,-0.63801 -2.846207,-1.17119 -0.524205,-0.35972 -1.320413,-1.14956 -1.79875,-1.78437 -0.562054,-0.74589 -0.948981,-1.5141 -1.243145,-2.46817 -0.126909,-0.41162 -0.295119,-0.80664 -0.373782,-0.87783 -0.08536,-0.0773 -0.348491,-0.15523 -0.652687,-0.19344 -1.382523,-0.17359 -3.011434,-1.05173 -4.128638,-2.22571 -0.739927,-0.77755 -1.280391,-1.61834 -1.613946,-2.51084 l -0.238926,-0.63926 -0.03174,-1.7516 -0.03175,-1.75159 0.560055,-1.10434 c 0.591516,-1.16636 1.011709,-1.73336 1.77838,-2.39968 0.966077,-0.83964 1.97257,-1.38527 3.017676,-1.6359 1.085804,-0.2604 1.20653,-0.30381 1.407889,-0.50628 0.124794,-0.12549 0.271574,-0.4397 0.403258,-0.86326 0.412702,-1.3275 1.071484,-2.35026 2.192213,-3.4034 0.930534,-0.87442 1.7974,-1.33953 3.192377,-1.71285 1.297516,-0.34724 2.153292,-0.31049 3.597472,0.15447 2.155599,0.69403 3.943348,2.54398 4.755374,4.92084 0.312831,0.91566 0.537585,1.12468 1.428228,1.32825 0.877851,0.20066 1.558503,0.48613 2.241356,0.94009 1.502795,0.99906 2.75503,2.65603 3.164677,4.18752 0.163951,0.61293 0.182279,2.84048 0.02897,3.52354 -0.225973,1.007 -0.845922,2.21455 -1.589888,3.09685 -0.93983,1.11458 -2.853609,2.18073 -4.223178,2.3527 -0.308953,0.0388 -0.570675,0.11634 -0.657313,0.19474 -0.07999,0.0724 -0.262264,0.512 -0.410118,0.98911 -0.448817,1.44821 -1.000398,2.32482 -2.143922,3.40727 -1.672986,1.58362 -3.774302,2.27546 -5.783943,1.90433 z m 2.700072,-0.78555 c 0.844468,-0.19466 1.966269,-0.85737 2.81742,-1.66439 0.907813,-0.86074 1.474919,-1.83933 1.821031,-3.14231 0.101442,-0.3819 0.238706,-0.77718 0.305017,-0.87839 0.153097,-0.23366 0.883918,-0.57748 1.555022,-0.73157 1.38264,-0.31749 2.14379,-0.72365 3.103095,-1.65586 0.927214,-0.90103 1.592561,-2.034 1.913088,-3.25765 0.270401,-1.03227 0.160088,-2.85771 -0.222301,-3.67849 -0.0781,-0.16768 -0.161188,-0.38981 -0.184615,-0.49364 -0.05869,-0.26008 -0.530388,-0.97278 -1.042991,-1.57588 -0.570116,-0.67076 -1.241881,-1.16842 -2.237478,-1.65753 -0.777966,-0.3822 -1.211772,-0.50817 -2.285988,-0.66381 -0.464578,-0.0674 -0.653245,-0.32338 -0.897327,-1.21789 -0.411601,-1.5084 -0.727457,-2.08855 -1.673795,-3.07427 -1.097112,-1.14278 -2.213068,-1.78312 -3.308373,-1.89835 -0.814596,-0.0857 -2.336498,-0.0866 -2.732781,-0.002 -1.867015,0.40065 -3.794173,2.05114 -4.543089,3.89086 -0.114425,0.28111 -0.217102,0.74775 -0.270841,1.23104 -0.0759,0.68265 -0.104497,0.78091 -0.232611,0.7994 -0.08033,0.0116 -0.279595,0.0838 -0.442782,0.16053 -0.1632,0.0768 -0.563771,0.17423 -0.890174,0.21673 -2.132319,0.27767 -3.89795,1.54491 -4.94996,3.55272 -0.552037,1.05362 -0.65085,1.47813 -0.649337,2.78975 0.0015,1.30298 0.101295,1.87496 0.464208,2.66044 0.371609,0.8043 0.724433,1.32028 1.351843,1.97699 0.973684,1.01914 1.876165,1.52818 3.263991,1.84104 1.372991,0.30951 1.831282,0.59264 1.931917,1.19354 0.101471,0.60591 0.271869,1.18862 0.475033,1.62441 0.804095,1.72488 2.608558,3.26421 4.241875,3.61861 0.564096,0.1224 2.838423,0.14668 3.320903,0.0355 z"
             style="fill:#66ff00;fill-opacity:1;stroke:#66ff00;stroke-width:0.53017181;stroke-linecap:round;stroke-linejoin:bevel;stroke-miterlimit:4;stroke-dasharray:none;stroke-opacity:1;paint-order:stroke markers fill" />
        </g>
      </g>
      <g
         id="g19973"
         transform="translate(11.386905,-1.1711297)" />
    </g>
  </g>
</svg>
