<?xml version="1.0" encoding="UTF-8" standalone="no"?>
<!-- Created with Inkscape (http://www.inkscape.org/) -->

<svg
   xmlns:dc="http://purl.org/dc/elements/1.1/"
   xmlns:cc="http://creativecommons.org/ns#"
   xmlns:rdf="http://www.w3.org/1999/02/22-rdf-syntax-ns#"
   xmlns:svg="http://www.w3.org/2000/svg"
   xmlns="http://www.w3.org/2000/svg"
   xmlns:sodipodi="http://sodipodi.sourceforge.net/DTD/sodipodi-0.dtd"
   xmlns:inkscape="http://www.inkscape.org/namespaces/inkscape"
   width="115.00001mm"
   height="70mm"
   viewBox="0 0 115.00001 70"
   version="1.1"
   id="svg1079"
   inkscape:version="0.92.4 (5da689c313, 2019-01-14)"
   sodipodi:docname="33.2.svg">
  <defs
     id="defs1073">
    <clipPath
       clipPathUnits="userSpaceOnUse"
       id="clipPath1058">
      <ellipse
         style="fill:#ffcc00;fill-opacity:1;stroke:#ffcc00;stroke-width:5.25652218;stroke-linecap:butt;stroke-linejoin:miter;stroke-miterlimit:4;stroke-dasharray:none;stroke-opacity:1"
         id="ellipse1060"
         cx="59.323036"
         cy="0.8915832"
         rx="27.6078"
         ry="26.313755" />
    </clipPath>
  </defs>
  <sodipodi:namedview
     id="base"
     pagecolor="#ffffff"
     bordercolor="#666666"
     borderopacity="1.0"
     inkscape:pageopacity="0.0"
     inkscape:pageshadow="2"
     inkscape:zoom="0.49497475"
     inkscape:cx="-354.42163"
     inkscape:cy="-20.873113"
     inkscape:document-units="mm"
     inkscape:current-layer="g2384"
     showgrid="false"
     fit-margin-top="0"
     fit-margin-left="0"
     fit-margin-right="0"
     fit-margin-bottom="0"
     inkscape:window-width="1920"
     inkscape:window-height="1001"
     inkscape:window-x="-9"
     inkscape:window-y="-9"
     inkscape:window-maximized="1"
     inkscape:snap-global="true"
     showguides="false"
     inkscape:snap-bbox="true"
     inkscape:snap-bbox-midpoints="true" />
  <metadata
     id="metadata1076">
    <rdf:RDF>
      <cc:Work
         rdf:about="">
        <dc:format>image/svg+xml</dc:format>
        <dc:type
           rdf:resource="http://purl.org/dc/dcmitype/StillImage" />
        <dc:title></dc:title>
      </cc:Work>
    </rdf:RDF>
  </metadata>
  <g
     inkscape:label="Ebene 1"
     inkscape:groupmode="layer"
     id="layer1"
     transform="translate(-73.743187,-156.46748)">
    <g
       id="g1782">
      <g
         transform="matrix(1.0037152,0,0,1.0038501,43.458405,92.506428)"
         style="fill:#040f4f;fill-opacity:1;stroke:none;stroke-width:0.1;stroke-linecap:round;stroke-linejoin:round;stroke-miterlimit:4;stroke-dasharray:none"
         id="g2384">
        <path
           sodipodi:nodetypes="ccsccc"
           inkscape:connector-curvature="0"
           id="path2379"
           d="m 30.172684,63.71574 h 99.675686 c 5.78011,6.133058 8.76542,12.932231 11.99785,19.014489 5.50042,10.349797 4.05232,39.986851 -11.99785,50.717041 H 30.172684 Z"
           style="fill:#a02c89;fill-opacity:1;stroke:none;stroke-width:0.1;stroke-linecap:butt;stroke-linejoin:miter;stroke-miterlimit:4;stroke-dasharray:none;stroke-opacity:1" />
        <g
           transform="matrix(1.9809366,0,0,1.9806704,53.097231,-300.08071)"
           id="g3200"
           style="fill:#66ff00;stroke:#66ff00">
          <path
             sodipodi:nodetypes="ccccccscscccccsscssccscccsssccccccccccccccsccccccccccccscsccccscsccccccccccsccccccccccsccccccccscccccsscccccscccsccccccscccsccccc"
             inkscape:connector-curvature="0"
             id="path1857-36"
             d="m 16.267071,211.02883 c -0.587077,-0.68587 -1.188591,-1.88113 -1.430841,-2.8432 -0.09415,-0.3739 -0.142023,-1.38812 -0.111263,-2.35713 l 0.05397,-1.70084 -1.323066,0.093 c -0.741252,0.0521 -1.742878,0.024 -2.277718,-0.064 -1.9647428,-0.32324 -4.2592038,-1.87427 -4.2592038,-2.8792 0,-0.37072 0.129044,-0.55242 0.6976237,-0.98223 1.0436542,-0.78893 2.0732917,-1.27563 3.2065111,-1.5157 1.250387,-0.2649 2.067486,-0.27087 3.246575,-0.0237 0.848322,0.1778 0.899732,0.17358 0.772929,-0.0633 -0.07472,-0.13959 -0.176173,-0.80499 -0.225452,-1.47863 -0.147598,-2.0172 0.424878,-4.0645 1.463654,-5.23435 0.265394,-0.29888 0.524529,-0.65907 0.575849,-0.80043 0.06435,-0.17716 0.250937,-0.25702 0.600543,-0.25702 0.422461,0 0.608103,0.11657 1.110936,0.69762 0.871919,1.00755 1.607279,2.56932 1.782987,3.78667 0.158037,1.09495 0.03642,3.44664 -0.178181,3.44664 -0.07119,0 -0.129497,0.0743 -0.129497,0.16485 0,0.1086 0.08101,0.0976 0.237449,-0.0322 0.323649,-0.26858 2.859444,-0.35867 3.916927,-0.13915 1.731708,0.3595 3.776558,1.73501 3.776558,2.54039 0,0.69216 -1.834419,2.06134 -3.360123,2.50796 -0.640606,0.18751 -3.765809,0.21085 -4.26512,0.0319 -0.313162,-0.11226 -0.341296,-0.0941 -0.237526,0.1533 0.06479,0.15433 0.150411,0.82867 0.190387,1.49853 0.122941,2.06007 -0.401447,3.8088 -1.594817,5.31853 -0.51823,0.6556 -0.640729,0.73357 -1.152479,0.73357 -0.488583,0 -0.6482,-0.0883 -1.087633,-0.60168 z m 2.226051,-0.97716 c 0.97815,-1.54135 1.355327,-3.3573 1.058158,-5.09459 -0.246202,-1.43924 -0.175698,-1.60771 0.623896,-1.49068 1.59718,0.23372 2.694517,0.25923 3.473385,0.0807 1.006592,-0.23071 2.531314,-0.93376 2.893833,-1.33434 0.341109,-0.37691 0.287093,-1.26052 -0.102754,-1.68079 -0.304597,-0.32837 -1.605037,-0.95575 -2.569799,-1.23975 -0.588403,-0.17322 -2.56479,-0.13031 -3.755821,0.0816 -0.447924,0.0797 -0.547246,0.0504 -0.597617,-0.17595 -0.03323,-0.14933 5.84e-4,-0.43674 0.07516,-0.63868 0.07461,-0.20194 0.141913,-0.96199 0.14964,-1.689 0.01942,-1.82554 -0.475639,-3.30463 -1.560714,-4.6631 -0.13964,-0.17483 -0.412231,-0.25701 -0.852373,-0.25701 -0.612894,0 -0.672008,0.0381 -1.119178,0.72115 -0.906696,1.385 -1.103374,2.19831 -1.015432,4.19896 0.03907,0.88855 0.09337,1.81384 0.120722,2.05617 0.04768,0.42233 0.02836,0.43867 -0.464336,0.39381 -1.829872,-0.16662 -3.661873,-0.1763 -4.185775,-0.022 -0.6830994,0.20102 -2.2585027,0.97076 -2.5506287,1.24623 -0.2023625,0.19082 -0.3299388,1.28637 -0.1759843,1.51133 0.2100774,0.30702 1.4950653,1.04775 2.359447,1.36011 0.773326,0.27948 1.2336,0.34312 2.42334,0.33509 0.807783,-0.005 1.6436,-0.081 1.857386,-0.168 0.294168,-0.11966 0.452912,-0.11116 0.65277,0.035 0.233144,0.17047 0.24353,0.26168 0.08863,0.77868 -0.09646,0.32208 -0.175444,1.16835 -0.175444,1.88059 0,1.44378 0.311838,2.55117 1.061446,3.76945 0.419522,0.68182 0.453539,0.70281 1.138878,0.70281 0.682712,0 0.721298,-0.0235 1.149156,-0.69764 z m -1.551563,-0.2203 c -0.429654,-0.45884 -0.839004,-1.47615 -1.052668,-2.61618 -0.37848,-2.01933 0.524211,-4.69057 1.58508,-4.69057 1.048135,0 1.832773,3.17357 1.289093,5.21386 -0.300724,1.12856 -1.057495,2.42334 -1.416383,2.42334 -0.05265,0 -0.234921,-0.14871 -0.405122,-0.33045 z m 1.205577,-1.78118 c 0.534376,-1.63753 0.434812,-3.02022 -0.328614,-4.56345 -0.342675,-0.69272 -0.369892,-0.71343 -0.57912,-0.44062 -0.540546,0.70484 -0.828761,1.63091 -0.890679,2.86187 -0.06456,1.28286 0.06435,1.90245 0.652049,3.13487 l 0.265417,0.5566 0.31772,-0.39847 c 0.174748,-0.21917 0.428201,-0.73704 0.563227,-1.1508 z m -6.968961,-5.06913 c -1.172521,-0.26347 -2.6436477,-1.15156 -2.6436477,-1.5959 0,-0.62844 2.4634587,-1.64544 3.9950237,-1.64931 1.328816,-0.004 2.941448,0.5719 4.023452,1.43522 0.56486,0.45072 0.61169,0.58924 0.242912,0.71853 -0.141362,0.0495 -0.746901,0.32162 -1.345655,0.6046 -0.953979,0.45083 -1.253732,0.51989 -2.42334,0.55842 -0.73409,0.0241 -1.566022,-0.008 -1.848745,-0.0715 z m 3.377993,-0.64283 c 0.743713,-0.26692 1.478498,-0.73574 1.427596,-0.91091 -0.02417,-0.0831 -0.437847,-0.34935 -0.919334,-0.59169 -0.814229,-0.40982 -0.988382,-0.44061 -2.490995,-0.44061 -1.501335,0 -1.677871,0.0312 -2.496781,0.44061 -0.4846649,0.24234 -0.8801744,0.5067 -0.8789051,0.58747 0.00331,0.2166 1.8043211,1.07669 2.4116401,1.15174 0.790875,0.0978 2.367923,-0.0289 2.946779,-0.23661 z m 5.553592,0.34411 c -0.378579,-0.14802 -0.919511,-0.41202 -1.202068,-0.58664 -1.691832,-1.04561 1.714316,-2.69358 4.460618,-2.15816 1.656845,0.32304 2.912796,1.06946 2.706051,1.60822 -0.118957,0.30999 -0.899269,0.78743 -1.862188,1.13938 -1.033092,0.37762 -3.133192,0.37616 -4.102413,-0.004 z m 3.603124,-0.37866 c 0.416313,-0.12153 1.015378,-0.37744 1.331233,-0.56868 l 0.574274,-0.34774 -0.399416,-0.2617 c -1.614408,-1.05781 -4.355281,-1.05128 -5.941103,0.0141 l -0.492137,0.33063 0.345268,0.19668 c 1.432597,0.81608 3.14977,1.05467 4.581881,0.63665 z m -6.93837,-1.0883 c -0.246584,-0.15614 -0.109928,-0.60006 0.184671,-0.60006 0.233277,0 0.433774,0.39377 0.305866,0.60074 -0.102643,0.16613 -0.227372,0.16596 -0.490537,0 z m 0.136991,-0.96685 c -0.558102,-0.71263 -0.666739,-0.94704 -0.973445,-2.10044 -0.372387,-1.40041 -0.189349,-3.17606 0.459314,-4.45571 0.566237,-1.11707 0.99542,-1.27124 1.585754,-0.56967 1.160689,1.3794 1.447374,4.6169 0.559153,6.31439 -0.148877,0.28451 -0.384494,0.73211 -0.523604,0.99464 -0.139099,0.26252 -0.330678,0.47481 -0.425739,0.47175 -0.09503,-0.004 -0.401702,-0.29778 -0.681433,-0.65496 z m 0.97677,-0.69802 c 0.140479,-0.26252 0.34325,-0.70863 0.450595,-0.99135 0.272844,-0.7186 0.255914,-2.85862 -0.02892,-3.65562 -0.281697,-0.78823 -0.789827,-1.63168 -0.982973,-1.63168 -0.07848,0 -0.342908,0.42802 -0.587707,0.95118 -0.386015,0.82489 -0.446188,1.12221 -0.453307,2.23975 -0.0088,1.37132 0.245031,2.39145 0.78276,3.14661 0.381161,0.53532 0.50643,0.52631 0.819548,-0.0588 z"
             style="fill:#66ff00;fill-opacity:1;stroke:#66ff00;stroke-width:0.14686915;stroke-opacity:1" />
          <path
             inkscape:connector-curvature="0"
             id="path2205"
             d="m 16.838037,210.68457 c -0.204588,-0.0629 -0.364602,-0.24924 -0.695895,-0.81012 -0.475209,-0.80454 -0.77168,-1.62616 -0.897635,-2.48763 -0.09893,-0.67658 -0.03764,-2.42933 0.104718,-2.99456 0.129877,-0.51566 0.114367,-0.63255 -0.104541,-0.78843 -0.175744,-0.12515 -0.345084,-0.12393 -0.915642,0.006 -0.222712,0.051 -0.713445,0.0722 -1.678508,0.0728 -1.254322,8e-4 -1.398518,-0.009 -1.796504,-0.11748 -0.845599,-0.23132 -2.2596256,-0.94271 -2.7318686,-1.37437 -0.216162,-0.19759 -0.2186441,-0.204 -0.2186441,-0.56209 0,-0.51562 0.1225035,-0.95641 0.3108779,-1.11859 0.2155892,-0.18559 1.1825907,-0.68345 1.8842728,-0.97009 0.820484,-0.33518 1.399897,-0.38648 3.233765,-0.28628 0.72123,0.0395 1.464755,0.0727 1.652278,0.0739 l 0.340941,0.003 -0.0017,-0.31472 c -0.0015,-0.17309 -0.03499,-0.94499 -0.07557,-1.71532 -0.07828,-1.48558 -0.04732,-2.1691 0.128965,-2.84811 0.166021,-0.63946 0.858069,-1.89326 1.259432,-2.28172 0.1872,-0.18119 0.195615,-0.18358 0.645725,-0.18358 0.581632,0 0.745244,0.0703 1.024178,0.44021 0.715136,0.94836 1.151527,1.99017 1.324246,3.16138 0.110754,0.75101 0.08147,2.33048 -0.05397,2.91143 -0.04821,0.20679 -0.08031,0.47806 -0.07132,0.60281 0.02344,0.32543 0.144108,0.37178 0.723624,0.27796 0.736124,-0.11918 2.08077,-0.19678 2.778398,-0.16034 0.751779,0.0393 1.32451,0.20326 2.27396,0.65112 1.127514,0.53185 1.402395,0.82533 1.443886,1.54161 0.03871,0.66813 -0.190093,0.92121 -1.321441,1.46163 -0.802713,0.38345 -1.700538,0.66222 -2.348232,0.72913 -0.620213,0.064 -1.22599,0.0369 -2.447619,-0.10954 -1.279802,-0.15346 -1.310938,-0.12028 -1.120362,1.19413 0.26742,1.8443 0.07868,3.20035 -0.648676,4.6605 -0.365851,0.73445 -0.625134,1.124 -0.843235,1.2669 -0.161526,0.10584 -0.895505,0.14932 -1.157843,0.0686 z m 0.891922,-0.7863 c 0.298012,-0.33146 0.7609,-1.23355 0.970027,-1.89039 0.360711,-1.13302 0.341001,-2.6165 -0.05258,-3.95579 -0.231701,-0.78849 -0.658062,-1.43732 -1.001061,-1.52341 -0.70202,-0.17619 -1.418594,0.82172 -1.752516,2.44056 -0.140877,0.68297 -0.129024,1.8149 0.02631,2.51149 0.247372,1.10934 0.637809,1.99414 1.071219,2.42755 0.330412,0.33041 0.433808,0.329 0.738606,-0.01 z m -3.925444,-6.87137 c 0.622974,-0.0702 0.798409,-0.13 2.111243,-0.72013 1.241749,-0.55818 1.253043,-0.56892 0.944148,-0.89662 -0.12331,-0.13082 -0.141449,-0.16901 -0.06556,-0.13803 0.221009,0.0902 0.410588,0.0578 0.490925,-0.0839 0.06909,-0.12189 0.06672,-0.15618 -0.02347,-0.34095 -0.08549,-0.17511 -0.128025,-0.20774 -0.288363,-0.22119 -0.234477,-0.0196 -0.334069,0.0874 -0.334069,0.35906 0,0.12212 -0.02071,0.18617 -0.05364,0.1659 -0.02951,-0.0181 -0.195277,-0.13145 -0.368377,-0.25176 -0.712669,-0.49533 -1.818387,-0.93721 -2.753797,-1.10052 -0.719806,-0.12567 -1.571426,-0.0798 -2.360393,0.12713 -1.044255,0.27387 -1.9060677,0.66849 -2.3472774,1.07479 -0.3719461,0.3425 -0.2875257,0.6214 0.3181334,1.05112 0.6325359,0.44878 1.671385,0.89554 2.265178,0.97416 0.464371,0.0615 1.92284,0.062 2.465316,7.8e-4 z m 9.574385,-0.12687 c 0.857715,-0.1293 1.950481,-0.60035 2.464185,-1.06221 0.221963,-0.19957 0.261721,-0.264 0.261721,-0.42417 0,-0.15959 -0.04377,-0.23126 -0.282239,-0.46225 -0.661939,-0.64114 -2.20054,-1.12258 -3.587558,-1.12258 -2.310091,0 -4.295981,1.07828 -3.670363,1.9929 0.278714,0.40744 1.653423,1.0029 2.583325,1.11894 0.419136,0.0523 1.77866,0.0275 2.230929,-0.0406 z m -5.56596,-2.13086 c 0.186215,-0.20387 0.851886,-1.48892 0.998593,-1.92773 0.259048,-0.77482 0.336728,-2.10599 0.183219,-3.13978 -0.177653,-1.19644 -0.556957,-2.12388 -1.093543,-2.67383 -0.297571,-0.30497 -0.343042,-0.33266 -0.546427,-0.33266 -0.185246,0 -0.258725,0.034 -0.445469,0.20615 -0.411556,0.37935 -0.872755,1.41784 -1.068311,2.40551 -0.127761,0.64527 -0.127468,1.93087 0,2.52877 0.175744,0.82065 0.437876,1.53473 0.724638,1.97399 0.291461,0.44648 0.909031,1.12075 1.026497,1.12075 0.04017,0 0.139261,-0.0726 0.220231,-0.16117 z"
             style="fill:#66ff00;fill-opacity:1;stroke:#66ff00;stroke-width:0.37488806;stroke-linecap:round;stroke-linejoin:bevel;stroke-miterlimit:4;stroke-dasharray:none;stroke-opacity:1;paint-order:stroke markers fill" />
          <path
             inkscape:connector-curvature="0"
             id="path2207"
             d="m 16.886196,201.10209 -0.05574,-0.0197 7.4e-5,-0.0809 c 4.4e-5,-0.0444 0.0062,-0.103 0.01366,-0.13005 l 0.01365,-0.0492 h 0.08435 0.08436 l 0.03972,0.0688 c 0.06165,0.10682 0.07411,0.15898 0.04765,0.19938 -0.01938,0.0295 -0.0304,0.0333 -0.09698,0.0323 -0.0413,-6e-4 -0.100166,-0.01 -0.130817,-0.0207 z"
             style="fill:#66ff00;fill-opacity:1;stroke:#66ff00;stroke-width:0.09372202;stroke-linecap:round;stroke-linejoin:bevel;stroke-miterlimit:4;stroke-dasharray:none;stroke-opacity:1;paint-order:stroke markers fill" />
        </g>
      </g>
      <g
         id="g19973"
         transform="translate(11.386905,-1.1711297)" />
    </g>
  </g>
</svg>
