<?xml version="1.0" encoding="UTF-8" standalone="no"?>
<!-- Created with Inkscape (http://www.inkscape.org/) -->

<svg
   xmlns:dc="http://purl.org/dc/elements/1.1/"
   xmlns:cc="http://creativecommons.org/ns#"
   xmlns:rdf="http://www.w3.org/1999/02/22-rdf-syntax-ns#"
   xmlns:svg="http://www.w3.org/2000/svg"
   xmlns="http://www.w3.org/2000/svg"
   xmlns:sodipodi="http://sodipodi.sourceforge.net/DTD/sodipodi-0.dtd"
   xmlns:inkscape="http://www.inkscape.org/namespaces/inkscape"
   width="115.00001mm"
   height="70mm"
   viewBox="0 0 115.00001 70"
   version="1.1"
   id="svg1079"
   inkscape:version="0.92.4 (5da689c313, 2019-01-14)"
   sodipodi:docname="33.3.svg">
  <defs
     id="defs1073">
    <clipPath
       clipPathUnits="userSpaceOnUse"
       id="clipPath1058">
      <ellipse
         style="fill:#ffcc00;fill-opacity:1;stroke:#ffcc00;stroke-width:5.25652218;stroke-linecap:butt;stroke-linejoin:miter;stroke-miterlimit:4;stroke-dasharray:none;stroke-opacity:1"
         id="ellipse1060"
         cx="59.323036"
         cy="0.8915832"
         rx="27.6078"
         ry="26.313755" />
    </clipPath>
  </defs>
  <sodipodi:namedview
     id="base"
     pagecolor="#ffffff"
     bordercolor="#666666"
     borderopacity="1.0"
     inkscape:pageopacity="0.0"
     inkscape:pageshadow="2"
     inkscape:zoom="0.9899495"
     inkscape:cx="93.681116"
     inkscape:cy="-2.7226298"
     inkscape:document-units="mm"
     inkscape:current-layer="g2384"
     showgrid="false"
     fit-margin-top="0"
     fit-margin-left="0"
     fit-margin-right="0"
     fit-margin-bottom="0"
     inkscape:window-width="1920"
     inkscape:window-height="1001"
     inkscape:window-x="-9"
     inkscape:window-y="-9"
     inkscape:window-maximized="1"
     inkscape:snap-global="true"
     showguides="false"
     inkscape:snap-bbox="true"
     inkscape:snap-bbox-midpoints="true" />
  <metadata
     id="metadata1076">
    <rdf:RDF>
      <cc:Work
         rdf:about="">
        <dc:format>image/svg+xml</dc:format>
        <dc:type
           rdf:resource="http://purl.org/dc/dcmitype/StillImage" />
        <dc:title></dc:title>
      </cc:Work>
    </rdf:RDF>
  </metadata>
  <g
     inkscape:label="Ebene 1"
     inkscape:groupmode="layer"
     id="layer1"
     transform="translate(-73.743187,-156.46748)">
    <g
       id="g1782">
      <g
         transform="matrix(1.0037152,0,0,1.0038501,43.458405,92.506428)"
         style="fill:#040f4f;fill-opacity:1;stroke:none;stroke-width:0.1;stroke-linecap:round;stroke-linejoin:round;stroke-miterlimit:4;stroke-dasharray:none"
         id="g2384">
        <path
           sodipodi:nodetypes="ccsccc"
           inkscape:connector-curvature="0"
           id="path2379"
           d="m 30.172684,63.71574 h 99.675686 c 5.78011,6.133058 8.76542,12.932231 11.99785,19.014489 5.50042,10.349797 4.05232,39.986851 -11.99785,50.717041 H 30.172684 Z"
           style="fill:#a02c89;fill-opacity:1;stroke:none;stroke-width:0.1;stroke-linecap:butt;stroke-linejoin:miter;stroke-miterlimit:4;stroke-dasharray:none;stroke-opacity:1" />
        <g
           transform="matrix(1.9809366,0,0,1.9806704,-27.891794,-301.5641)"
           id="g3320">
          <path
             sodipodi:nodetypes="ccsscscccccssccccccccsccsscccccccsccccccscscccsccsccsccccccccccccsscscccc"
             inkscape:connector-curvature="0"
             id="path1857-8-92"
             d="m 56.909039,214.94494 c -0.565445,-0.53841 -2.097528,-1.99772 -3.404634,-3.24289 -1.307096,-1.24519 -2.513259,-2.35973 -2.680359,-2.47677 -0.167098,-0.11704 -0.303813,-0.29275 -0.303813,-0.39047 0,-0.0977 -1.520097,-1.65254 -3.377992,-3.45514 -2.777273,-2.69462 -3.377991,-3.34862 -3.377991,-3.67754 0,-0.32672 0.451112,-0.82805 2.460058,-2.7339 1.353032,-1.28362 2.955741,-2.81473 3.561582,-3.40248 0.605829,-0.58776 1.431967,-1.34405 1.835864,-1.68064 0.403886,-0.33662 2.044109,-1.89155 3.644932,-3.45544 3.559185,-4.21452 4.759696,-1.68572 7.317246,0.84013 2.048602,2.02598 5.162226,5.0741 6.919143,6.77361 2.841882,2.74904 3.194403,3.14149 3.194403,3.55639 0,0.41222 -0.370952,0.83539 -3.194403,3.64421 -1.756917,1.7478 -3.426456,3.43013 -3.710072,3.73849 -0.283617,0.30838 -1.982579,1.99816 -3.775466,3.75508 -2.692454,2.63842 -3.331228,3.19369 -3.670118,3.19034 -0.302323,-0.004 -0.680825,-0.26167 -1.43838,-0.98298 z m 4.878245,-2.7214 c 1.735737,-1.71652 3.217129,-3.27885 3.291982,-3.4718 0.07483,-0.19296 0.180806,-0.30611 0.235451,-0.25147 0.121042,0.12103 6.942144,-6.6686 6.942144,-6.91014 0,-0.0942 -1.437464,-1.56214 -3.194393,-3.262 -1.756917,-1.69989 -4.812796,-4.68004 -6.790838,-6.62257 -1.97802,-1.94251 -3.68718,-3.53184 -3.798114,-3.53184 -0.110943,0 -1.58687,1.37132 -3.279851,3.04736 -1.692979,1.67606 -3.17638,3.10236 -3.296451,3.16955 -0.12007,0.0672 -0.28025,0.28508 -0.355952,0.48418 -0.07571,0.19909 -0.229205,0.34247 -0.341141,0.31859 -0.193423,-0.0412 -3.122995,2.62294 -5.820316,5.29306 l -1.248378,1.23581 3.37798,3.30299 c 1.857906,1.81665 3.526704,3.35993 3.70845,3.42949 0.181756,0.0695 0.330456,0.2504 0.330456,0.40184 0,0.1653 0.983151,1.2086 2.46006,2.61056 1.353032,1.28436 2.823562,2.68087 3.267843,3.10333 0.444271,0.42246 0.930946,0.76945 1.081478,0.77106 0.161736,0.003 1.564643,-1.27368 3.42959,-3.118 z m -6.860978,-0.84694 c -1.655951,-1.60946 -3.093437,-2.92825 -3.194403,-2.93061 -0.100988,-0.003 -0.18359,-0.10828 -0.18359,-0.23545 0,-0.12711 -0.413067,-0.63034 -0.917931,-1.11829 -3.525379,-3.40726 -5.250577,-5.18493 -5.250577,-5.41028 0,-0.14839 1.126454,-1.32273 2.606929,-2.71777 1.433811,-1.35106 2.853361,-2.70833 3.154549,-3.01613 0.301187,-0.3078 0.653398,-0.61885 0.782685,-0.6912 0.129287,-0.0724 1.525616,-1.38042 3.102951,-2.90679 1.577324,-1.52637 2.995903,-2.8649 3.152375,-2.9745 0.412538,-0.28897 0.670969,-0.0849 3.764097,2.97339 1.476447,1.4598 2.764326,2.65416 2.861937,2.65416 0.09757,0 0.19957,0.11463 0.226544,0.25473 0.02704,0.1401 0.490527,0.66827 1.030101,1.17369 2.959482,2.77222 5.019949,4.89643 5.019949,5.17526 0,0.1969 -1.044648,1.34558 -3.004402,3.30357 -1.652409,1.65094 -3.025384,3.13738 -3.051023,3.30322 -0.02561,0.16582 -0.119916,0.28755 -0.209481,0.27052 -0.08951,-0.017 -1.508961,1.28537 -3.154195,2.89424 -2.276449,2.22607 -3.079101,2.9251 -3.358523,2.92488 -0.27844,0 -1.094822,-0.70753 -3.377992,-2.92664 z m 5.824774,0.1493 c 1.280331,-1.25204 4.029316,-4.00201 6.108854,-6.11103 l 3.780984,-3.83456 -1.505208,-1.46508 c -2.826995,-2.75167 -4.086079,-3.91745 -4.508309,-4.17422 -0.232162,-0.14119 -0.460925,-0.37899 -0.508362,-0.52845 -0.09183,-0.28922 -5.385117,-5.62329 -5.580327,-5.62329 -0.06347,0 -1.517714,1.33835 -3.231708,2.9741 -1.713995,1.63576 -4.516608,4.28172 -6.228043,5.87991 -1.711422,1.59821 -3.11167,2.97669 -3.11167,3.0633 0,0.0867 0.936519,1.05915 2.08115,2.1612 1.144643,1.10201 3.901508,3.80545 6.126392,6.00767 2.224873,2.20218 4.090935,3.98663 4.146803,3.96546 0.05585,-0.0212 1.149125,-1.06293 2.429444,-2.31501 z"
             style="fill:#66ff00;fill-opacity:1;stroke:#66ff00;stroke-width:0.14686915;stroke-opacity:1" />
          <path
             inkscape:connector-curvature="0"
             id="path2203"
             d="m 57.959168,215.09455 c -0.353867,-0.23629 -4.379125,-4.04565 -5.504993,-5.20971 -0.519022,-0.53663 -0.782505,-0.852 -0.874782,-1.04705 -0.09749,-0.20607 -0.198245,-0.32243 -0.385003,-0.4446 -0.441239,-0.28865 -2.351332,-2.09279 -5.813008,-5.49056 l -1.206428,-1.18415 1.206428,-1.18963 c 2.858411,-2.81864 5.60554,-5.31591 5.847772,-5.31591 0.110034,0 0.253554,-0.1539 0.393241,-0.42165 0.05821,-0.11159 0.353661,-0.43275 0.656579,-0.71374 0.302918,-0.28098 1.50444,-1.4411 2.670037,-2.57805 2.333119,-2.27578 3.395249,-3.26285 3.510952,-3.26285 0.145165,0 1.297735,1.06034 3.734544,3.43569 9.306745,9.07204 10.016711,9.7756 10.016711,9.92638 0,0.10161 -1.545415,1.70499 -3.729654,3.86954 -2.223761,2.20373 -3.091918,3.01535 -3.225379,3.01535 -0.03906,0 -0.110151,0.0768 -0.158002,0.17047 -0.14258,0.27944 -0.683396,0.86183 -2.536767,2.73184 -2.367619,2.38888 -4.014302,3.91661 -4.221578,3.91661 -0.03808,0 -0.209376,-0.0936 -0.38067,-0.20798 z m 0.746036,-0.96607 c 0.347757,-0.23592 1.171356,-0.98469 2.54329,-2.31225 2.207899,-2.13649 3.358236,-3.19782 3.606239,-3.32722 0.06496,-0.0339 0.150203,-0.1375 0.189432,-0.23021 0.131903,-0.31177 0.886062,-1.12403 3.809668,-4.10315 1.388384,-1.41476 2.162443,-2.27925 2.229225,-2.48964 0.02612,-0.0823 -0.01906,-0.18347 -0.173129,-0.38752 -0.401761,-0.53214 -1.790483,-1.9625 -3.476012,-3.58025 -1.968868,-1.88967 -2.201261,-2.12888 -2.34829,-2.41708 -0.05965,-0.11691 -0.186173,-0.25916 -0.281167,-0.31612 -0.263719,-0.15811 -1.256568,-1.08476 -3.162578,-2.95168 -2.233512,-2.18773 -2.813234,-2.69819 -3.099291,-2.72894 -0.330734,-0.0356 -0.154433,-0.18741 -3.536037,3.04565 -2.029687,1.94052 -2.458604,2.33945 -3.447416,3.20635 -1.345717,1.17979 -6.109125,5.85956 -6.174745,6.0663 -0.02943,0.0928 0.01146,0.18664 0.182264,0.4186 0.121123,0.16447 1.415496,1.49103 2.876389,2.94792 1.460893,1.45689 2.74143,2.75512 2.845633,2.88493 0.104204,0.12982 0.212065,0.30685 0.239691,0.39341 0.02764,0.0866 0.108683,0.18589 0.18012,0.22076 0.169971,0.083 1.064405,0.89006 2.365431,2.13447 3.478141,3.32675 3.908261,3.70311 4.232093,3.70311 0.0757,0 0.255332,-0.0799 0.39919,-0.17744 z"
             style="fill:#66ff00;fill-opacity:1;stroke:#66ff00;stroke-width:0.37469265;stroke-linecap:round;stroke-linejoin:bevel;stroke-miterlimit:4;stroke-dasharray:none;stroke-opacity:1;paint-order:stroke markers fill" />
        </g>
      </g>
      <g
         id="g19973"
         transform="translate(11.386905,-1.1711297)" />
    </g>
  </g>
</svg>
