<?xml version="1.0" encoding="UTF-8" standalone="no"?>
<!-- Created with Inkscape (http://www.inkscape.org/) -->

<svg
   xmlns:dc="http://purl.org/dc/elements/1.1/"
   xmlns:cc="http://creativecommons.org/ns#"
   xmlns:rdf="http://www.w3.org/1999/02/22-rdf-syntax-ns#"
   xmlns:svg="http://www.w3.org/2000/svg"
   xmlns="http://www.w3.org/2000/svg"
   xmlns:sodipodi="http://sodipodi.sourceforge.net/DTD/sodipodi-0.dtd"
   xmlns:inkscape="http://www.inkscape.org/namespaces/inkscape"
   width="115.00001mm"
   height="70mm"
   viewBox="0 0 115.00001 70"
   version="1.1"
   id="svg1079"
   inkscape:version="0.92.4 (5da689c313, 2019-01-14)"
   sodipodi:docname="33.5.svg">
  <defs
     id="defs1073">
    <clipPath
       clipPathUnits="userSpaceOnUse"
       id="clipPath1058">
      <ellipse
         style="fill:#ffcc00;fill-opacity:1;stroke:#ffcc00;stroke-width:5.25652218;stroke-linecap:butt;stroke-linejoin:miter;stroke-miterlimit:4;stroke-dasharray:none;stroke-opacity:1"
         id="ellipse1060"
         cx="59.323036"
         cy="0.8915832"
         rx="27.6078"
         ry="26.313755" />
    </clipPath>
  </defs>
  <sodipodi:namedview
     id="base"
     pagecolor="#ffffff"
     bordercolor="#666666"
     borderopacity="1.0"
     inkscape:pageopacity="0.0"
     inkscape:pageshadow="2"
     inkscape:zoom="0.9899495"
     inkscape:cx="93.681116"
     inkscape:cy="-2.7226298"
     inkscape:document-units="mm"
     inkscape:current-layer="g2384"
     showgrid="false"
     fit-margin-top="0"
     fit-margin-left="0"
     fit-margin-right="0"
     fit-margin-bottom="0"
     inkscape:window-width="1920"
     inkscape:window-height="1001"
     inkscape:window-x="-9"
     inkscape:window-y="-9"
     inkscape:window-maximized="1"
     inkscape:snap-global="true"
     showguides="false"
     inkscape:snap-bbox="true"
     inkscape:snap-bbox-midpoints="true" />
  <metadata
     id="metadata1076">
    <rdf:RDF>
      <cc:Work
         rdf:about="">
        <dc:format>image/svg+xml</dc:format>
        <dc:type
           rdf:resource="http://purl.org/dc/dcmitype/StillImage" />
        <dc:title></dc:title>
      </cc:Work>
    </rdf:RDF>
  </metadata>
  <g
     inkscape:label="Ebene 1"
     inkscape:groupmode="layer"
     id="layer1"
     transform="translate(-73.743187,-156.46748)">
    <g
       id="g1782">
      <g
         transform="matrix(1.0037152,0,0,1.0038501,43.458405,92.506428)"
         style="fill:#040f4f;fill-opacity:1;stroke:none;stroke-width:0.1;stroke-linecap:round;stroke-linejoin:round;stroke-miterlimit:4;stroke-dasharray:none"
         id="g2384">
        <path
           sodipodi:nodetypes="ccsccc"
           inkscape:connector-curvature="0"
           id="path2379"
           d="m 30.172684,63.71574 h 99.675686 c 5.78011,6.133058 8.76542,12.932231 11.99785,19.014489 5.50042,10.349797 4.05232,39.986851 -11.99785,50.717041 H 30.172684 Z"
           style="fill:#a02c89;fill-opacity:1;stroke:none;stroke-width:0.1;stroke-linecap:butt;stroke-linejoin:miter;stroke-miterlimit:4;stroke-dasharray:none;stroke-opacity:1" />
        <g
           transform="matrix(1.9809366,0,0,1.9806704,-27.957557,-364.58133)"
           id="g3375">
          <g
             style="fill:#66ff00;stroke:#66ff00"
             id="g3228">
            <path
               style="fill:#66ff00;fill-opacity:1;stroke:#66ff00;stroke-width:0.14686915;stroke-opacity:1"
               d="m 50.913154,241.11158 c -0.352884,-0.32705 -0.388887,-0.43624 -0.278462,-0.8445 0.159627,-0.5902 0.162618,-12.33084 0.0033,-13.0262 -0.08256,-0.36031 -0.0585,-0.59341 0.08046,-0.7794 0.186426,-0.24961 0.628687,-0.26537 7.462956,-0.2658 h 7.264787 l 0.258144,0.3188 c 0.3456,0.4268 0.325292,0.79973 -0.06324,1.16175 -0.313339,0.29192 -0.483462,0.29946 -6.755983,0.29946 l -6.434544,-4.4e-4 v 5.9482 5.9482 h 6.012976 c 3.850219,0 6.045613,-0.0528 6.103734,-0.14687 0.15242,-0.24662 0.734022,-0.16397 1.073829,0.1526 0.419767,0.39107 0.406876,0.80339 -0.03906,1.24934 l -0.3605,0.3605 h -6.961502 -6.961514 z m 13.736857,-0.30923 c 0.45055,-0.45088 -0.04326,-0.49013 -6.168553,-0.49013 -5.011749,0 -6.172483,-0.0369 -6.308314,-0.20057 -0.11963,-0.14414 -0.155677,-1.95205 -0.128139,-6.42553 l 0.03831,-6.22495 6.278658,-0.0383 c 6.156611,-0.0376 6.278658,-0.0439 6.278658,-0.33046 0,-0.2872 -0.107832,-0.29209 -6.352099,-0.28752 l -6.352085,0.004 -0.403898,0.35547 -0.403886,0.35551 v 6.23345 6.23345 l 0.403886,0.4319 c 0.222141,0.23754 0.503031,0.47173 0.624195,0.5204 0.121175,0.0487 2.943324,0.0761 6.27144,0.0609 4.370743,-0.0199 6.098534,-0.0749 6.221806,-0.19833 z"
               id="path1857-8-3"
               inkscape:connector-curvature="0"
               sodipodi:nodetypes="ccccccccccccsccscccccsccccsccccccccccc" />
            <path
               style="fill:#66ff00;fill-opacity:1;stroke:#66ff00;stroke-width:0.53017181;stroke-linecap:round;stroke-linejoin:bevel;stroke-miterlimit:4;stroke-dasharray:none;stroke-opacity:1;paint-order:stroke markers fill"
               d="m 53.348402,240.92752 c -1.372756,-0.0453 -1.320486,-0.0261 -1.944665,-0.71722 l -0.2761,-0.30571 v -6.16058 -6.16057 l 0.426537,-0.38094 0.426538,-0.38094 6.20998,0.0227 c 5.551111,0.0203 6.22245,0.0352 6.327579,0.14029 0.107347,0.10739 0.106656,0.12672 -0.0079,0.2218 -0.136912,0.11361 -3.956127,0.19678 -9.655178,0.21022 l -2.837394,0.006 v 5.88644 c 0,3.23754 0.02173,6.09435 0.0483,6.34849 0.0424,0.40574 0.07178,0.47191 0.241071,0.54295 0.129495,0.0543 2.104796,0.0997 6.015937,0.13815 3.202731,0.0315 5.937479,0.085 6.077225,0.11892 0.311231,0.0756 0.367378,0.20322 0.142331,0.32366 -0.290081,0.15525 -7.906466,0.25437 -11.194264,0.14569 z"
               id="path2191"
               inkscape:connector-curvature="0" />
          </g>
        </g>
      </g>
      <g
         id="g19973"
         transform="translate(11.386905,-1.1711297)" />
    </g>
  </g>
</svg>
