<?xml version="1.0" encoding="UTF-8" standalone="no"?>
<!-- Created with Inkscape (http://www.inkscape.org/) -->

<svg
   xmlns:dc="http://purl.org/dc/elements/1.1/"
   xmlns:cc="http://creativecommons.org/ns#"
   xmlns:rdf="http://www.w3.org/1999/02/22-rdf-syntax-ns#"
   xmlns:svg="http://www.w3.org/2000/svg"
   xmlns="http://www.w3.org/2000/svg"
   xmlns:sodipodi="http://sodipodi.sourceforge.net/DTD/sodipodi-0.dtd"
   xmlns:inkscape="http://www.inkscape.org/namespaces/inkscape"
   width="115.00001mm"
   height="70mm"
   viewBox="0 0 115.00001 70"
   version="1.1"
   id="svg1079"
   inkscape:version="0.92.4 (5da689c313, 2019-01-14)"
   sodipodi:docname="33.6.svg">
  <defs
     id="defs1073">
    <clipPath
       clipPathUnits="userSpaceOnUse"
       id="clipPath1058">
      <ellipse
         style="fill:#ffcc00;fill-opacity:1;stroke:#ffcc00;stroke-width:5.25652218;stroke-linecap:butt;stroke-linejoin:miter;stroke-miterlimit:4;stroke-dasharray:none;stroke-opacity:1"
         id="ellipse1060"
         cx="59.323036"
         cy="0.8915832"
         rx="27.6078"
         ry="26.313755" />
    </clipPath>
  </defs>
  <sodipodi:namedview
     id="base"
     pagecolor="#ffffff"
     bordercolor="#666666"
     borderopacity="1.0"
     inkscape:pageopacity="0.0"
     inkscape:pageshadow="2"
     inkscape:zoom="0.9899495"
     inkscape:cx="93.681116"
     inkscape:cy="-2.7226298"
     inkscape:document-units="mm"
     inkscape:current-layer="g2384"
     showgrid="false"
     fit-margin-top="0"
     fit-margin-left="0"
     fit-margin-right="0"
     fit-margin-bottom="0"
     inkscape:window-width="1920"
     inkscape:window-height="1001"
     inkscape:window-x="-9"
     inkscape:window-y="-9"
     inkscape:window-maximized="1"
     inkscape:snap-global="true"
     showguides="false"
     inkscape:snap-bbox="true"
     inkscape:snap-bbox-midpoints="true" />
  <metadata
     id="metadata1076">
    <rdf:RDF>
      <cc:Work
         rdf:about="">
        <dc:format>image/svg+xml</dc:format>
        <dc:type
           rdf:resource="http://purl.org/dc/dcmitype/StillImage" />
        <dc:title></dc:title>
      </cc:Work>
    </rdf:RDF>
  </metadata>
  <g
     inkscape:label="Ebene 1"
     inkscape:groupmode="layer"
     id="layer1"
     transform="translate(-73.743187,-156.46748)">
    <g
       id="g1782">
      <g
         transform="matrix(1.0037152,0,0,1.0038501,43.458405,92.506428)"
         style="fill:#040f4f;fill-opacity:1;stroke:none;stroke-width:0.1;stroke-linecap:round;stroke-linejoin:round;stroke-miterlimit:4;stroke-dasharray:none"
         id="g2384">
        <path
           sodipodi:nodetypes="ccsccc"
           inkscape:connector-curvature="0"
           id="path2379"
           d="m 30.172684,63.71574 h 99.675686 c 5.78011,6.133058 8.76542,12.932231 11.99785,19.014489 5.50042,10.349797 4.05232,39.986851 -11.99785,50.717041 H 30.172684 Z"
           style="fill:#a02c89;fill-opacity:1;stroke:none;stroke-width:0.1;stroke-linecap:butt;stroke-linejoin:miter;stroke-miterlimit:4;stroke-dasharray:none;stroke-opacity:1" />
        <g
           transform="matrix(1.9809366,0,0,1.9806704,47.830135,-417.47957)"
           id="g3404">
          <g
             style="fill:#66ff00;fill-opacity:1;stroke:#66ff00;stroke-opacity:1"
             id="g3232">
            <path
               style="fill:#66ff00;fill-opacity:1;stroke:#66ff00;stroke-width:0.14686915;stroke-opacity:1"
               d="m 23.137636,272.83204 c -1.738663,-0.4213 -3.858575,-1.87764 -3.858575,-2.65078 0,-0.1886 0.248708,-0.66281 0.552665,-1.05376 1.552381,-1.9966 1.828028,-4.20379 0.792431,-6.34515 -0.466543,-0.9647 -1.837851,-2.25841 -2.960651,-2.79312 -0.719687,-0.34272 -0.983978,-0.38468 -2.42334,-0.38468 -1.481049,0 -1.685277,0.0348 -2.452819,0.41757 -0.460495,0.22968 -1.05532,0.64204 -1.32183,0.91638 -0.723075,0.74428 -1.244803,0.69399 -2.0296737,-0.19573 -2.0963697,-2.37639 -2.4969228,-5.90682 -0.9916258,-8.73992 0.5639331,-1.06136 2.1580665,-2.65466 3.1238765,-3.12228 2.163276,-1.04736 4.797642,-1.07778 6.929894,-0.0801 0.972355,0.45502 2.543509,1.84626 2.543509,2.25223 0,0.1341 -0.306761,0.58919 -0.681687,1.01135 -1.986948,2.23719 -1.971165,5.45372 0.03708,7.55864 1.468775,1.5395 2.661164,2.11133 4.402497,2.11133 1.499613,0 2.487829,-0.35185 3.716936,-1.32341 0.96133,-0.75989 1.399961,-0.76724 2.092265,-0.0351 1.214937,1.28481 1.726069,2.51882 1.840202,4.44279 0.156615,2.64012 -0.453221,4.2914 -2.215812,5.99981 -0.572133,0.55454 -1.385954,1.18334 -1.808492,1.39732 -1.532338,0.77595 -3.622748,1.01973 -5.286844,0.6165 z m 2.9269,-0.38802 c 1.654782,-0.33687 2.478602,-0.74959 3.592385,-1.79979 0.585389,-0.55197 1.242187,-1.30704 1.459549,-1.67796 1.361297,-2.32288 1.219914,-5.44853 -0.343757,-7.5993 -0.39892,-0.5487 -0.474843,-0.58736 -1.150415,-0.5857 -0.5704,7.9e-4 -0.8649,0.0998 -1.393117,0.46525 -1.099325,0.76066 -1.967745,0.97125 -3.698859,0.89698 -2.010049,-0.0862 -2.733875,-0.42417 -4.23266,-1.97605 -1.553076,-1.60811 -1.79441,-2.24395 -1.728487,-4.55399 0.05243,-1.83857 0.200255,-2.35409 0.977643,-3.41021 0.201788,-0.27415 0.413886,-0.75542 0.471311,-1.06951 0.09779,-0.53463 0.06821,-0.60201 -0.462835,-1.0566 -0.559485,-0.47891 -1.338252,-0.90861 -2.32085,-1.28061 -0.825454,-0.3125 -3.589659,-0.22862 -4.543936,0.13787 -2.558244,0.98253 -4.2586078,3.20255 -4.657097,6.08035 -0.0926,0.66888 0.1194088,2.35911 0.3731042,2.97423 0.4009504,0.97215 0.6165905,1.38556 0.9961289,1.90971 0.3969669,0.54821 0.4708366,0.58591 1.1158909,0.56945 0.395069,-0.01 0.799098,-0.11512 0.943781,-0.24542 0.498815,-0.44918 1.740384,-0.95712 2.786478,-1.13999 1.25244,-0.21894 2.783331,-0.0169 3.812682,0.50317 0.846579,0.42772 2.814401,2.38309 3.126934,3.10712 0.482061,1.11682 0.656478,2.5897 0.446081,3.76702 -0.190696,1.06708 -0.662681,2.13983 -1.187058,2.698 -0.411877,0.43842 -0.388755,1.39131 0.04326,1.7851 0.514774,0.46919 1.447716,0.99655 2.092893,1.18303 1.730571,0.50023 2.32043,0.55409 3.480911,0.31785 z m -2.765232,-0.79825 c -0.778656,-0.20993 -1.699833,-0.66617 -2.147657,-1.06371 -0.303406,-0.26934 -0.336937,-0.8147 -0.06402,-1.0412 0.106175,-0.0881 0.345004,-0.50928 0.530778,-0.93591 0.185774,-0.42666 0.39988,-0.8962 0.475804,-1.04343 0.230473,-0.44695 0.315469,-2.60628 0.145344,-3.69214 -0.181822,-1.16037 -0.0926,-1.32385 0.637794,-1.16906 0.242326,0.0513 1.03542,0.12465 1.762424,0.16286 1.704327,0.0896 2.647357,-0.16983 4.22371,-1.16198 0.66267,-0.41707 0.717346,-0.42773 1.056236,-0.20568 0.196568,0.12879 0.571803,0.68129 0.833863,1.22776 0.451997,0.94253 0.47651,1.08039 0.477117,2.6826 5.86e-4,1.57379 -0.0298,1.75411 -0.444911,2.64363 -1.343748,2.87924 -4.508021,4.39925 -7.486497,3.59626 z m 2.934847,-0.45063 c 1.885598,-0.48553 3.270074,-1.64496 4.106939,-3.43937 0.391315,-0.83906 0.44543,-1.11469 0.446975,-2.27647 0.0022,-1.37813 -0.311628,-2.50774 -0.910759,-3.28207 l -0.266708,-0.3447 -0.742411,0.4568 c -1.290959,0.79436 -2.246506,1.04037 -4.040739,1.04037 -0.881223,0 -1.730064,-0.0685 -1.886304,-0.15203 -0.34209,-0.18307 -0.34593,-0.14406 -0.111263,1.12956 0.292093,1.58525 -0.248574,4.00041 -1.1922,5.32561 -0.280979,0.39462 -0.282701,0.42519 -0.03632,0.6482 0.540027,0.48871 2.248658,1.07402 3.237491,1.10902 0.271068,0.01 0.898927,-0.0871 1.395259,-0.21492 z M 9.7323949,259.09022 c -1.8060865,-2.81454 -1.1259673,-6.521 1.5662771,-8.53568 0.923053,-0.69077 1.226668,-0.84207 2.196674,-1.09473 1.533175,-0.39934 3.235537,-0.21383 4.608766,0.50226 1.354024,0.70607 1.427431,0.94399 0.660915,2.14223 -0.282722,0.44197 -0.514046,0.87373 -0.514046,0.95949 0,0.0858 -0.06026,0.27068 -0.1339,0.41096 -0.296906,0.56548 -0.489754,1.93572 -0.390157,2.77219 0.272403,2.28784 0.272326,2.24918 0.0044,2.35188 -0.13963,0.0536 -0.376405,0.0209 -0.526165,-0.0727 -0.32836,-0.20505 -3.196246,-0.231 -3.68408,-0.0334 -0.185553,0.0752 -0.50259,0.17168 -0.704532,0.21442 -0.201944,0.0428 -0.755204,0.31168 -1.229473,0.59764 -0.474258,0.28596 -0.979574,0.51992 -1.122922,0.51992 -0.152034,0 -0.457062,-0.30609 -0.7320372,-0.73462 z m 1.6893721,-0.27858 c 1.103717,-0.69996 2.263855,-0.93615 4.30036,-0.87547 l 1.772513,0.0527 -0.09911,-0.44061 c -0.05452,-0.24232 -0.09779,-1.06846 -0.09613,-1.83586 0.0033,-1.62634 0.26406,-2.62114 1.010511,-3.8589 l 0.511441,-0.84807 -0.542201,-0.35789 c -0.977609,-0.64526 -1.771387,-0.85968 -3.185839,-0.86055 -1.16165,0 -1.437507,0.0528 -2.276471,0.4416 -2.049628,0.9498 -3.6625021,3.34988 -3.6699851,5.46121 -0.00442,1.19541 0.9800921,3.54746 1.4846031,3.54746 0.06545,0 0.421103,-0.19158 0.790322,-0.42572 z"
               id="path1857-8-0"
               inkscape:connector-curvature="0"
               sodipodi:nodetypes="cscccsccccccsccsccscccccccccccccccccccccccccccscccccccccccccccccccccccccscccccccccccsscccccccscccccccccccccscc" />
            <path
               style="fill:#66ff00;fill-opacity:1;stroke:#66ff00;stroke-width:0.53017181;stroke-linecap:round;stroke-linejoin:bevel;stroke-miterlimit:4;stroke-dasharray:none;stroke-opacity:1;paint-order:stroke markers fill"
               d="m 24.126067,272.47767 c -1.327579,-0.26089 -2.532626,-0.73472 -3.220224,-1.26622 -0.576417,-0.44555 -0.674262,-0.6201 -0.674026,-1.20247 0,-0.47353 0.0173,-0.52384 0.307102,-0.903 0.535603,-0.70074 0.960848,-1.71054 1.135431,-2.69619 0.23245,-1.31243 -0.09571,-3.23018 -0.708995,-4.14313 -0.324493,-0.48305 -2.013738,-2.13517 -2.539471,-2.48365 -0.843381,-0.55903 -2.334822,-0.8988 -3.539238,-0.80631 -1.084453,0.0833 -2.46514,0.53444 -3.215788,1.05078 -0.41887,0.28815 -0.795341,0.40491 -1.307239,0.40549 -0.4623878,5.8e-4 -0.6168352,-0.10387 -1.0097104,-0.68241 -0.7603266,-1.11964 -1.1783309,-2.37145 -1.2862357,-3.85199 -0.1337684,-1.83524 0.8941688,-4.23269 2.3770181,-5.54395 0.846422,-0.74848 1.943696,-1.34252 2.838981,-1.53696 0.696673,-0.15132 2.66591,-0.21841 3.332975,-0.11356 0.919122,0.14447 2.299207,0.84351 3.039898,1.53975 0.399939,0.37594 0.404757,0.38555 0.353838,0.70471 -0.06732,0.42192 -0.321688,0.9816 -0.697894,1.53558 -0.634709,0.93464 -0.778685,1.67277 -0.734757,3.76683 0.02545,1.21302 0.05123,1.45988 0.192443,1.84282 0.257462,0.6982 0.629672,1.19078 1.71292,2.26688 1.402072,1.39281 1.874036,1.62492 3.627448,1.78399 1.887092,0.17119 2.845693,-0.0436 4.291164,-0.96181 0.417828,-0.26539 0.784692,-0.3741 1.271711,-0.37681 0.546382,-0.004 0.775262,0.14709 1.192034,0.78194 0.829003,1.26278 1.160223,2.49911 1.101666,4.11218 -0.03816,1.05124 -0.157356,1.6281 -0.516305,2.49879 -0.291535,0.70717 -0.687641,1.25043 -1.537793,2.10911 -1.137135,1.14858 -1.946207,1.62726 -3.376095,1.99748 -0.578268,0.14973 -2.006087,0.25167 -2.410858,0.17213 z m 2.760934,-0.91415 c 1.696192,-0.57144 3.051515,-1.76094 3.870488,-3.39691 0.428138,-0.85525 0.490116,-1.20577 0.488061,-2.76021 -0.0015,-0.75641 -0.03582,-1.52551 -0.0774,-1.7091 -0.212094,-0.93669 -1.149016,-2.37377 -1.547604,-2.37377 -0.09275,0 -0.574156,0.23311 -1.069781,0.51802 -0.495624,0.28491 -1.151499,0.60993 -1.457485,0.72227 -0.544738,0.19998 -0.589635,0.20416 -2.151222,0.19979 -0.877177,-0.003 -1.795167,-0.0409 -2.039954,-0.0854 -0.369654,-0.0672 -0.474784,-0.0619 -0.620376,0.0312 -0.162878,0.10418 -0.171983,0.14448 -0.128421,0.56855 0.103189,1.00445 0.133842,3.06418 0.05332,3.58266 -0.09143,0.58862 -0.666037,1.94711 -1.089637,2.57612 -0.140158,0.20813 -0.254832,0.45562 -0.254832,0.54999 0,0.40978 0.34921,0.77912 1.092677,1.15562 1.162396,0.58867 1.754411,0.71854 3.135583,0.6879 0.984434,-0.0219 1.136737,-0.0444 1.796591,-0.26676 z m -15.2695,-12.23674 c 0.568721,-0.29975 1.251178,-0.59329 1.641189,-0.70589 0.612973,-0.17696 0.779933,-0.1926 2.039954,-0.19092 0.756553,7.8e-4 1.505467,0.0382 1.66905,0.0829 0.560482,0.15324 0.817063,0.16164 0.926039,0.0303 0.08651,-0.10423 0.08147,-0.31736 -0.03357,-1.41891 -0.144181,-1.38079 -0.124486,-2.28682 0.06434,-2.95917 0.205515,-0.73174 0.490925,-1.40556 0.849491,-2.00553 0.646284,-1.08136 0.656095,-1.39715 0.05622,-1.80857 -1.683869,-1.15485 -3.896175,-1.42893 -5.968234,-0.7394 -0.602721,0.20058 -1.659621,0.90619 -2.266808,1.51339 -1.7545425,1.75454 -2.351874,4.3352 -1.536339,6.63741 0.3782766,1.06789 1.067812,2.07748 1.418874,2.07748 0.09143,0 0.604322,-0.23092 1.139792,-0.51315 z"
               id="path2195"
               inkscape:connector-curvature="0" />
          </g>
        </g>
      </g>
      <g
         id="g19973"
         transform="translate(11.386905,-1.1711297)" />
    </g>
  </g>
</svg>
