<?xml version="1.0" encoding="UTF-8" standalone="no"?>
<!-- Created with Inkscape (http://www.inkscape.org/) -->

<svg
   xmlns:dc="http://purl.org/dc/elements/1.1/"
   xmlns:cc="http://creativecommons.org/ns#"
   xmlns:rdf="http://www.w3.org/1999/02/22-rdf-syntax-ns#"
   xmlns:svg="http://www.w3.org/2000/svg"
   xmlns="http://www.w3.org/2000/svg"
   xmlns:sodipodi="http://sodipodi.sourceforge.net/DTD/sodipodi-0.dtd"
   xmlns:inkscape="http://www.inkscape.org/namespaces/inkscape"
   width="115.00001mm"
   height="70mm"
   viewBox="0 0 115.00001 70"
   version="1.1"
   id="svg1079"
   inkscape:version="0.92.4 (5da689c313, 2019-01-14)"
   sodipodi:docname="33.7.svg">
  <defs
     id="defs1073">
    <clipPath
       clipPathUnits="userSpaceOnUse"
       id="clipPath1058">
      <ellipse
         style="fill:#ffcc00;fill-opacity:1;stroke:#ffcc00;stroke-width:5.25652218;stroke-linecap:butt;stroke-linejoin:miter;stroke-miterlimit:4;stroke-dasharray:none;stroke-opacity:1"
         id="ellipse1060"
         cx="59.323036"
         cy="0.8915832"
         rx="27.6078"
         ry="26.313755" />
    </clipPath>
  </defs>
  <sodipodi:namedview
     id="base"
     pagecolor="#ffffff"
     bordercolor="#666666"
     borderopacity="1.0"
     inkscape:pageopacity="0.0"
     inkscape:pageshadow="2"
     inkscape:zoom="0.9899495"
     inkscape:cx="93.681116"
     inkscape:cy="-2.7226298"
     inkscape:document-units="mm"
     inkscape:current-layer="g2384"
     showgrid="false"
     fit-margin-top="0"
     fit-margin-left="0"
     fit-margin-right="0"
     fit-margin-bottom="0"
     inkscape:window-width="1920"
     inkscape:window-height="1001"
     inkscape:window-x="-9"
     inkscape:window-y="-9"
     inkscape:window-maximized="1"
     inkscape:snap-global="true"
     showguides="false"
     inkscape:snap-bbox="true"
     inkscape:snap-bbox-midpoints="true" />
  <metadata
     id="metadata1076">
    <rdf:RDF>
      <cc:Work
         rdf:about="">
        <dc:format>image/svg+xml</dc:format>
        <dc:type
           rdf:resource="http://purl.org/dc/dcmitype/StillImage" />
        <dc:title></dc:title>
      </cc:Work>
    </rdf:RDF>
  </metadata>
  <g
     inkscape:label="Ebene 1"
     inkscape:groupmode="layer"
     id="layer1"
     transform="translate(-73.743187,-156.46748)">
    <g
       id="g1782">
      <g
         transform="matrix(1.0037152,0,0,1.0038501,43.458405,92.506428)"
         style="fill:#040f4f;fill-opacity:1;stroke:none;stroke-width:0.1;stroke-linecap:round;stroke-linejoin:round;stroke-miterlimit:4;stroke-dasharray:none"
         id="g2384">
        <path
           sodipodi:nodetypes="ccsccc"
           inkscape:connector-curvature="0"
           id="path2379"
           d="m 30.172684,63.71574 h 99.675686 c 5.78011,6.133058 8.76542,12.932231 11.99785,19.014489 5.50042,10.349797 4.05232,39.986851 -11.99785,50.717041 H 30.172684 Z"
           style="fill:#a02c89;fill-opacity:1;stroke:none;stroke-width:0.1;stroke-linecap:butt;stroke-linejoin:miter;stroke-miterlimit:4;stroke-dasharray:none;stroke-opacity:1" />
        <g
           transform="matrix(1.9809366,0,0,1.9806704,53.729344,-492.92743)"
           id="g3433">
          <g
             style="fill:#66ff00;fill-opacity:1;stroke:#66ff00;stroke-opacity:1"
             id="g3244">
            <path
               style="fill:#66ff00;fill-opacity:1;stroke:#66ff00;stroke-width:0.14686915;stroke-opacity:1"
               d="m 16.1729,308.74219 c -0.664535,-0.51958 -5.273612,-5.13356 -8.049869,-8.05841 -1.0012171,-1.05481 -1.4950656,-1.68603 -1.4937964,-1.90929 0.0022,-0.43853 10.1318364,-10.68783 10.5627294,-10.68783 0.158999,0 0.346384,0.10243 0.416413,0.2275 0.06997,0.12514 2.280334,2.38876 4.911798,5.03027 2.631463,2.64153 4.826239,4.94275 4.877273,5.11383 0.05099,0.17108 0.02583,0.48715 -0.05596,0.70238 -0.08179,0.21522 -2.281052,2.53782 -4.887142,5.16132 -3.599226,3.62327 -4.844504,4.78999 -5.179895,4.85313 -0.354077,0.0667 -0.572266,-0.0191 -1.101521,-0.4329 z m 6.092631,-4.94189 c 3.510622,-3.52255 4.499279,-4.59392 4.364021,-4.72919 -0.09624,-0.0961 -0.17488,-0.37458 -0.17488,-0.61867 0,-0.38597 -0.578524,-1.02309 -4.440995,-4.89075 -3.898461,-3.90369 -4.496145,-4.44695 -4.892438,-4.44695 -0.396524,0 -0.995423,0.54548 -4.921919,4.48284 -4.0783639,4.08966 -4.4798441,4.53637 -4.5774218,5.09314 l -0.1069481,0.61031 1.4225088,1.47926 c 0.7823874,0.81357 2.7802081,2.84904 4.4396031,4.52324 l 3.017085,3.04397 0.666245,0.004 0.666234,0.004 4.538915,-4.55431 z m -9.638817,-0.25566 c -2.306281,-2.32236 -4.2647218,-4.35855 -4.3520904,-4.52484 -0.1430389,-0.27225 0.2678227,-0.73702 4.1271914,-4.66866 3.395376,-3.45892 4.362555,-4.36513 4.654185,-4.36073 0.53219,0.008 8.811197,8.28862 8.811197,8.81289 0,0.27641 -1.001328,1.36392 -4.292603,4.66217 -2.360925,2.36592 -4.396559,4.30167 -4.523616,4.30167 -0.127069,0 -2.117981,-1.90013 -4.424264,-4.2225 z m 8.685267,-0.5588 4.171295,-4.19383 -4.218191,-4.21443 -4.21818,-4.21444 -4.198392,4.24157 -4.1983791,4.24154 4.1647721,4.16672 c 2.290621,2.29166 4.200996,4.16669 4.245277,4.16669 0.04426,0 1.957591,-1.88723 4.251798,-4.19382 z"
               id="path1857-8-9"
               inkscape:connector-curvature="0"
               sodipodi:nodetypes="cccsccccscccccsssccccccccccccccscsccccccccsc" />
            <path
               style="fill:#66ff00;fill-opacity:1;stroke:#66ff00;stroke-width:0.53017181;stroke-linecap:round;stroke-linejoin:bevel;stroke-miterlimit:4;stroke-dasharray:none;stroke-opacity:1;paint-order:stroke markers fill"
               d="m 16.766453,308.29899 -0.423761,-0.0267 -4.384455,-4.46572 -4.3844556,-4.46574 0.047042,-0.37002 c 0.025878,-0.2035 0.0978,-0.47694 0.1598378,-0.60766 0.1918844,-0.40437 1.4322385,-1.70814 5.0426648,-5.30053 3.239243,-3.22306 4.012186,-3.92157 4.339425,-3.92157 0.222476,0 1.000796,0.68385 3.063661,2.6918 2.798107,2.72362 5.837814,5.89726 6.029464,6.29512 0.258268,0.53617 0.342571,1.01618 0.213151,1.21368 -0.230351,0.35155 -1.301246,1.45938 -5.000807,5.17324 -3.488466,3.50196 -3.843948,3.83758 -4.051019,3.82479 -0.124823,-0.008 -0.417666,-0.0261 -0.650748,-0.0407 z m 1.148547,-1.2224 c 1.060146,-0.9552 6.579826,-6.48115 7.282375,-7.29067 0.764747,-0.88117 0.782548,-0.92445 0.530065,-1.28877 -0.795635,-1.14811 -7.216034,-7.56758 -8.36505,-8.36385 l -0.294443,-0.20405 -0.272663,0.13827 c -0.299217,0.15171 -6.488958,6.31029 -7.7124074,7.67359 -0.4186652,0.4665 -0.7812558,0.92806 -0.8057536,1.02569 -0.024498,0.0976 0.00146,0.26481 0.057646,0.37153 0.1256467,0.23855 6.430857,6.61733 7.690348,7.78007 0.501558,0.46304 0.961229,0.84189 1.021476,0.84189 0.06025,0 0.451049,-0.30766 0.868407,-0.6837 z"
               id="path2199"
               inkscape:connector-curvature="0" />
          </g>
        </g>
      </g>
      <g
         id="g19973"
         transform="translate(11.386905,-1.1711297)" />
    </g>
  </g>
</svg>
