<?xml version="1.0" encoding="UTF-8" standalone="no"?>
<!-- Created with Inkscape (http://www.inkscape.org/) -->

<svg
   xmlns:dc="http://purl.org/dc/elements/1.1/"
   xmlns:cc="http://creativecommons.org/ns#"
   xmlns:rdf="http://www.w3.org/1999/02/22-rdf-syntax-ns#"
   xmlns:svg="http://www.w3.org/2000/svg"
   xmlns="http://www.w3.org/2000/svg"
   xmlns:sodipodi="http://sodipodi.sourceforge.net/DTD/sodipodi-0.dtd"
   xmlns:inkscape="http://www.inkscape.org/namespaces/inkscape"
   width="115.00001mm"
   height="70mm"
   viewBox="0 0 115.00001 70"
   version="1.1"
   id="svg1079"
   inkscape:version="0.92.4 (5da689c313, 2019-01-14)"
   sodipodi:docname="33.8.svg">
  <defs
     id="defs1073">
    <clipPath
       clipPathUnits="userSpaceOnUse"
       id="clipPath1058">
      <ellipse
         style="fill:#ffcc00;fill-opacity:1;stroke:#ffcc00;stroke-width:5.25652218;stroke-linecap:butt;stroke-linejoin:miter;stroke-miterlimit:4;stroke-dasharray:none;stroke-opacity:1"
         id="ellipse1060"
         cx="59.323036"
         cy="0.8915832"
         rx="27.6078"
         ry="26.313755" />
    </clipPath>
  </defs>
  <sodipodi:namedview
     id="base"
     pagecolor="#ffffff"
     bordercolor="#666666"
     borderopacity="1.0"
     inkscape:pageopacity="0.0"
     inkscape:pageshadow="2"
     inkscape:zoom="1.4"
     inkscape:cx="98.413151"
     inkscape:cy="55.392445"
     inkscape:document-units="mm"
     inkscape:current-layer="g2384"
     showgrid="false"
     fit-margin-top="0"
     fit-margin-left="0"
     fit-margin-right="0"
     fit-margin-bottom="0"
     inkscape:window-width="1920"
     inkscape:window-height="1001"
     inkscape:window-x="-9"
     inkscape:window-y="-9"
     inkscape:window-maximized="1"
     inkscape:snap-global="true"
     showguides="false"
     inkscape:snap-bbox="true"
     inkscape:snap-bbox-midpoints="true" />
  <metadata
     id="metadata1076">
    <rdf:RDF>
      <cc:Work
         rdf:about="">
        <dc:format>image/svg+xml</dc:format>
        <dc:type
           rdf:resource="http://purl.org/dc/dcmitype/StillImage" />
        <dc:title></dc:title>
      </cc:Work>
    </rdf:RDF>
  </metadata>
  <g
     inkscape:label="Ebene 1"
     inkscape:groupmode="layer"
     id="layer1"
     transform="translate(-73.743187,-156.46748)">
    <g
       id="g1782">
      <g
         transform="matrix(1.0037152,0,0,1.0038501,43.458405,92.506428)"
         style="fill:#040f4f;fill-opacity:1;stroke:none;stroke-width:0.1;stroke-linecap:round;stroke-linejoin:round;stroke-miterlimit:4;stroke-dasharray:none"
         id="g2384">
        <path
           sodipodi:nodetypes="ccsccc"
           inkscape:connector-curvature="0"
           id="path2379"
           d="m 30.172684,63.71574 h 99.675686 c 5.78011,6.133058 8.76542,12.932231 11.99785,19.014489 5.50042,10.349797 4.05232,39.986851 -11.99785,50.717041 H 30.172684 Z"
           style="fill:#a02c89;fill-opacity:1;stroke:none;stroke-width:0.1;stroke-linecap:butt;stroke-linejoin:miter;stroke-miterlimit:4;stroke-dasharray:none;stroke-opacity:1" />
        <g
           transform="matrix(1.9809366,0,0,1.9806704,-26.354714,-494.3074)"
           id="g3507">
          <g
             id="g3462">
            <g
               id="g3240"
               style="fill:#66ff00;fill-opacity:1;stroke:#66ff00;stroke-opacity:1">
              <path
                 style="fill:#66ff00;fill-opacity:1;stroke:#66ff00;stroke-width:0.14686915;stroke-opacity:1"
                 d="m 54.82343,310.20022 c -2.224608,-0.84595 -4.158403,-3.01606 -4.791516,-5.37703 -0.108603,-0.40491 -0.1621,-3.17372 -0.1621,-8.38549 0,-7.35155 0.01479,-7.79441 0.268584,-8.02405 0.319476,-0.28912 0.757566,-0.31295 1.093663,-0.0594 0.220761,0.16649 0.244899,0.88779 0.259203,7.74735 0.0088,4.32686 0.07671,7.81517 0.158293,8.15123 0.25333,1.04426 0.764595,1.88852 1.742458,2.87741 1.383526,1.39914 2.441904,1.81887 4.349707,1.72498 0.872748,-0.043 1.379067,-0.15804 2.041759,-0.46415 0.999871,-0.46187 2.438129,-1.78253 2.888272,-2.65214 0.70344,-1.35893 0.711895,-1.4725 0.708804,-9.5174 l -0.0033,-7.59072 0.328481,-0.23006 c 0.400255,-0.28035 0.710315,-0.29161 1.056644,-0.0384 0.245661,0.17963 0.260914,0.62046 0.241942,6.9902 -0.01484,4.97414 -0.05727,7.7286 0.03068,6.93354 0.0015,-0.0139 7.15e-4,-12.04335 0.0047,-0.045 0,3.8e-4 7.6e-5,-7.5e-4 1.14e-4,-10e-4 9.9e-5,-9.8e-4 1.99e-4,-0.002 2.98e-4,-0.003 -0.161856,1.52204 -0.317069,2.31943 -0.04093,0.44979 -0.09271,0.20336 -0.02588,0.7815 -0.120931,1.07225 -0.223899,0.68488 -0.527058,2.65916 -1.058498,3.43115 -0.960359,1.39501 -2.230393,2.35428 -4.153603,3.13729 -0.681808,0.27761 -4.008257,0.19021 -4.842992,-0.12722 z m 4.446005,-0.31409 c 2.467543,-0.727 4.368933,-2.60229 5.03934,-4.97018 0.165102,-0.58316 0.196293,-1.67456 0.06191,-2.16551 -0.04934,-0.18006 -0.0276,-0.3657 0.04823,-0.41256 0.08245,-0.051 0.137842,-2.6766 0.137842,-6.53877 0,-6.22258 -0.0099,-6.45358 -0.276675,-6.45358 -0.263905,0 -0.281674,0.2481 -0.38647,5.39745 -0.06038,2.9686 -0.06887,6.02423 -0.01876,6.79032 0.194526,2.97592 -0.635309,5.07595 -2.584942,6.54151 -1.25797,0.94563 -2.257642,1.27476 -3.856334,1.26969 -2.021131,-0.006 -3.263197,-0.55358 -4.641039,-2.04439 -1.037241,-1.12231 -1.520715,-2.08741 -1.747325,-3.48795 -0.06534,-0.4039 -0.15422,-0.88166 -0.197474,-1.06172 -0.04326,-0.18006 -0.01666,-0.3657 0.05916,-0.41256 0.08245,-0.051 0.13784,-2.65063 0.13784,-6.46994 0,-5.71873 -0.0245,-6.39417 -0.23512,-6.47498 -0.129319,-0.0497 -0.287954,-0.004 -0.35252,0.0998 -0.184649,0.29876 -0.02505,14.95999 0.169506,15.56786 0.727975,2.27484 2.757616,4.24141 4.971087,4.81658 1.285297,0.33399 2.558046,0.33711 3.671719,0.009 z"
                 id="path1857-8-06"
                 inkscape:connector-curvature="0"
                 sodipodi:nodetypes="ccscccccccccccccsssccsccccccccssccccccccscccccc" />
              <path
                 inkscape:connector-curvature="0"
                 id="path2201"
                 d="m 55.949352,309.91271 c -2.143012,-0.4647 -3.982181,-1.99222 -4.991202,-4.14538 -0.273896,-0.5845 -0.303916,-0.71021 -0.356319,-1.49242 -0.09931,-1.48213 -0.229835,-12.12894 -0.165521,-13.50187 l 0.0608,-1.29815 h 0.184189 c 0.156665,0 0.192047,0.0444 0.236812,0.29672 0.08572,0.48339 0.07006,11.24922 -0.01772,12.18636 -0.07051,0.75275 -0.06207,0.92414 0.08407,1.70615 0.08935,0.47814 0.255008,1.12551 0.368126,1.4386 0.480512,1.33001 1.834778,2.89906 3.113157,3.60692 1.357144,0.75144 3.618679,0.89052 5.185068,0.31888 1.147547,-0.41882 2.48714,-1.47576 3.158185,-2.49182 0.414451,-0.62755 0.768979,-1.48733 0.942006,-2.28441 0.137748,-0.63464 0.147646,-0.94141 0.139349,-4.318 -0.0087,-3.54692 0.09786,-9.15167 0.189902,-9.98669 0.05673,-0.51451 0.130654,-0.66026 0.266185,-0.52473 0.165625,0.16562 0.230541,4.52269 0.133387,8.95364 -0.04741,2.16234 -0.08141,4.38218 -0.07557,4.93297 0.01277,1.19635 -0.117024,1.79358 -0.604071,2.78069 -0.929536,1.88393 -2.854271,3.38556 -4.935362,3.85044 -0.727943,0.16261 -2.097366,0.1495 -2.915471,-0.0279 z"
                 style="fill:#66ff00;fill-opacity:1;stroke:#66ff00;stroke-width:0.53017181;stroke-linecap:round;stroke-linejoin:bevel;stroke-miterlimit:4;stroke-dasharray:none;stroke-opacity:1;paint-order:stroke markers fill" />
            </g>
          </g>
        </g>
      </g>
      <g
         id="g19973"
         transform="translate(11.386905,-1.1711297)" />
    </g>
  </g>
</svg>
