<?xml version="1.0" encoding="UTF-8" standalone="no"?>
<!-- Created with Inkscape (http://www.inkscape.org/) -->

<svg
   xmlns:dc="http://purl.org/dc/elements/1.1/"
   xmlns:cc="http://creativecommons.org/ns#"
   xmlns:rdf="http://www.w3.org/1999/02/22-rdf-syntax-ns#"
   xmlns:svg="http://www.w3.org/2000/svg"
   xmlns="http://www.w3.org/2000/svg"
   xmlns:sodipodi="http://sodipodi.sourceforge.net/DTD/sodipodi-0.dtd"
   xmlns:inkscape="http://www.inkscape.org/namespaces/inkscape"
   width="325mm"
   height="200mm"
   viewBox="0 0 325 200"
   version="1.1"
   id="svg8"
   inkscape:version="0.92.4 (5da689c313, 2019-01-14)"
   sodipodi:docname="33.svg">
  <defs
     id="defs2">
    <clipPath
       clipPathUnits="userSpaceOnUse"
       id="clipPath840-6">
      <path
         id="path842-9"
         style="fill:#333333;fill-opacity:1;stroke-width:0.51792622"
         d="m 225.80294,89.923178 c -1.79117,-5.29e-4 -3.60104,0.729229 -5.65572,2.190055 -1.87,1.329518 -3.0828,1.806479 -4.61076,1.812742 -4.17244,0.01714 -8.02987,3.664183 -8.02987,7.592885 0,1.12603 -0.36778,1.92055 -1.14106,2.46217 -0.62772,0.43967 -1.79306,1.76975 -2.58963,2.95582 -1.79303,2.66975 -1.95581,6.08241 -0.4107,8.61659 0.78492,1.28742 1.03383,2.60946 1.03383,5.49083 0,4.91961 1.17156,6.83593 5.1479,8.42541 1.52804,0.6108 3.00664,1.54307 3.2866,2.0717 0.90747,1.71355 3.18113,3.91961 4.77262,4.62998 2.03137,0.9067 3.36104,0.89885 6.10687,-0.0334 1.67583,-0.56895 2.71434,-0.63575 4.02809,-0.25896 4.84498,1.38952 8.81241,0.10798 10.90174,-3.52231 0.79591,-1.38294 2.05686,-2.48317 4.03719,-3.5223 1.64837,-0.86493 3.40324,-2.28645 4.10396,-3.32404 1.06335,-1.57445 1.18744,-2.22906 0.93976,-4.98504 -0.21736,-2.41854 -0.0458,-3.80592 0.72428,-5.83274 1.75186,-4.61051 0.98775,-8.08991 -2.33268,-10.62254 -1.0214,-0.77905 -1.82476,-1.93925 -2.02012,-2.91637 -0.98743,-4.937139 -4.03227,-7.754732 -8.38089,-7.754732 -1.98276,0 -3.0546,-0.314166 -4.36596,-1.281666 -1.98197,-1.462233 -3.75429,-2.193475 -5.54545,-2.194105 z m -94.32023,0.0021 c -1.78684,-0.0352 -3.47644,0.625258 -5.02247,1.982685 -1.32827,1.166241 -2.56152,1.674733 -4.84038,1.996847 -1.68174,0.23771 -3.80596,0.819589 -4.72102,1.292791 -1.7849,0.923002 -3.62291,4.210955 -3.64268,6.516569 -0.007,0.83065 -0.70223,1.98666 -1.86838,3.10755 -1.02131,0.98168 -2.21258,2.46417 -2.64729,3.2947 -1.02607,1.96046 -0.6659,5.89429 0.72125,7.87612 0.85411,1.22039 0.99968,2.06466 0.80218,4.65831 -0.37891,4.97679 1.25916,7.56195 5.81656,9.177 0.9767,0.34613 2.45272,1.59641 3.46161,2.93357 0.96718,1.28187 2.56738,2.73897 3.55669,3.23704 2.21992,1.1176 3.42416,1.13375 6.49836,0.09 1.95203,-0.66273 2.68698,-0.69938 3.90163,-0.19625 0.85393,0.35373 2.83145,0.52285 4.6057,0.39452 2.52481,-0.18264 3.39421,-0.49809 4.62492,-1.6772 0.83361,-0.79863 1.78521,-2.10351 2.1152,-2.90018 0.34823,-0.8407 1.28746,-1.71953 2.23862,-2.09396 4.85223,-1.91011 6.84514,-4.85489 6.36887,-9.41169 -0.25594,-2.44874 -0.11728,-3.43312 0.71316,-5.06091 1.2155,-2.38258 1.3471,-6.16467 0.28527,-8.21803 -0.41049,-0.79382 -1.55524,-2.05971 -2.5431,-2.81319 -1.30255,-0.9935 -1.88894,-1.91857 -2.13341,-3.36551 -0.77164,-4.567294 -3.91813,-7.341717 -8.33133,-7.345046 -1.97087,-0.0016 -3.04874,-0.31859 -4.35685,-1.283687 -1.93281,-1.42598 -3.81627,-2.15687 -5.60311,-2.192081 z m 187.67239,0.10722 c -2.36514,0 -3.06129,0.259019 -5.22177,1.942227 -1.89955,1.479931 -2.96992,1.942224 -4.49643,1.942224 -4.28129,0 -7.37856,2.430029 -8.11384,6.365841 -0.31068,1.66299 -1.05723,3.09027 -2.38429,4.55917 -2.1065,2.33164 -3.38472,4.91882 -3.38472,6.85038 0,0.67887 0.59306,2.34779 1.31706,3.70944 1.05554,1.98528 1.25129,2.906 0.99033,4.64617 -0.68043,4.5375 2.05422,9.00339 6.05023,9.88106 0.92021,0.20211 2.07294,1.199 3.20063,2.76868 0.96951,1.34947 2.55354,2.84325 3.51927,3.31897 2.19575,1.08166 3.85821,1.10534 6.71584,0.0971 1.69013,-0.59632 2.61758,-0.66004 3.76812,-0.25896 0.83934,0.2926 2.75436,0.53209 4.25669,0.53209 3.05549,0 4.98557,-1.21441 6.93333,-4.36596 0.66807,-1.08095 2.12992,-2.2527 3.88546,-3.1116 3.5301,-1.72712 5.15972,-4.12086 5.00528,-7.35415 -0.0593,-1.24264 -0.12681,-2.78426 -0.1497,-3.42519 -0.023,-0.64093 0.48173,-2.49253 1.12083,-4.11509 1.62581,-4.12774 1.17454,-6.12385 -2.11622,-9.36313 -1.46653,-1.44359 -2.54513,-2.97188 -2.54513,-3.60728 0,-0.60643 -0.46612,-2.06617 -1.03585,-3.243106 -1.31402,-2.71441 -4.16427,-4.402373 -7.43508,-4.402373 -1.84375,0 -2.90819,-0.376227 -4.7625,-1.68326 -1.96344,-1.383964 -2.87372,-1.683264 -5.11754,-1.683264 z m -93.68093,2.322579 c 1.26252,-0.02347 2.59211,0.41715 3.9239,1.322128 1.06313,0.722418 1.93312,1.405837 1.93312,1.518372 0,0.112541 -1.04879,3.007847 -2.33067,6.434633 -1.28185,3.42678 -2.33066,6.45889 -2.33066,6.7381 0,1.11103 -1.06359,1.07672 -1.47488,-0.0476 -0.24074,-0.65808 -1.43468,-3.86382 -2.65235,-7.12452 l -2.21332,-5.928845 1.62458,-1.45161 c 1.06267,-0.949499 2.25776,-1.437237 3.52028,-1.460711 z m -94.16039,0.0051 c 1.02323,-0.02574 2.08294,0.22088 3.09945,0.74654 2.93812,1.519354 2.94496,1.731767 0.29943,8.939293 -2.073,5.64768 -3.34122,8.43518 -3.34122,7.34403 0,-0.14994 -1.18019,-3.40058 -2.62301,-7.22366 l -2.62302,-6.951542 1.59526,-1.425308 c 1.02245,-0.913561 2.27752,-1.396256 3.59311,-1.429356 z m 187.92326,0.05766 c 1.11638,0.02778 2.22438,0.408278 3.30279,1.141055 2.23827,1.520894 2.20385,2.203606 -0.46736,9.360108 -1.15686,3.09936 -2.30182,5.83323 -2.5441,6.07551 -0.24228,0.24229 -1.08958,-1.36054 -1.88256,-3.56276 -0.79293,-2.20222 -1.89262,-5.14269 -2.44396,-6.533767 -1.37676,-3.473776 -1.27299,-4.312725 0.6808,-5.503977 1.11242,-0.678259 2.23798,-1.003951 3.35439,-0.976169 z M 141.26868,95.52744 c 0.64774,-0.01905 1.4185,0.167878 2.37012,0.530066 2.39052,0.909836 3.90453,2.952597 3.98459,5.378544 0.0632,1.91412 0.0598,1.91675 -6.04719,5.48475 -3.36053,1.96341 -6.44284,3.56985 -6.84938,3.56985 -0.41541,0 -0.42484,-0.51673 0.0587,-2.05349 0.10281,0.0604 -0.49101,1.07807 0,0 0.40402,-0.90467 4.62909,-12.894811 4.53209,-12.543352 -1.01916,2.872074 -6.17676,16.109402 -5.26419,15.286662 0.73816,-2.02783 3.67688,-10.9551 4.12493,-12.215722 0.83795,-2.357644 1.66532,-3.395403 3.09036,-3.437329 z m 188.21258,0.443069 c 0.1774,-0.0037 0.35766,-0.0016 0.53816,0.0071 0.8663,0.04162 1.74326,0.22741 2.3863,0.57154 1.08347,0.579871 2.99755,4.224811 3.01752,5.745741 0.008,0.57219 -2.17003,2.1151 -6.39519,4.53186 -3.5234,2.01537 -6.5432,3.66392 -6.71079,3.66392 -0.24349,0 2.98009,-9.56579 4.58145,-13.595562 0.2286,-0.575281 1.34075,-0.89901 2.58255,-0.924579 z m -112.97571,0.0182 c 1.6249,0 1.84978,0.192585 2.57547,2.201185 0.43741,1.210654 1.62146,4.415326 2.63111,7.121486 1.00964,2.70617 1.83917,4.97857 1.84308,5.04978 0.0364,0.64392 -2.31992,-0.42011 -7.53825,-3.40496 -5.16154,-2.95238 -6.20545,-3.75737 -6.33954,-4.8859 -0.38645,-3.25205 2.79015,-6.081591 6.82813,-6.081591 z m -94.60245,0.0081 c 1.99782,0.01098 2.45218,0.427495 3.37967,3.099464 0.44495,1.281867 1.52966,4.311737 2.41058,6.733037 0.88095,2.42131 1.6028,4.46064 1.60436,4.53186 0.01,0.49844 -1.7191,-0.11953 -4.14138,-1.48095 -10.60066,-5.95794 -10.67993,-6.04363 -8.97368,-9.639294 0.92913,-1.957991 3.22058,-3.257822 5.72045,-3.24412 z m 114.53351,0.06171 c 1.89283,0.03608 3.11355,0.829444 4.24356,2.682695 1.96362,3.220436 1.51199,4.161976 -3.37867,7.050676 -6.59432,3.89496 -8.56421,4.83284 -8.53465,4.06248 0.0139,-0.36186 1.12095,-3.57187 2.46015,-7.13261 l 2.43486,-6.474078 1.92098,-0.158816 c 0.29954,-0.02487 0.58337,-0.0355 0.85377,-0.03034 z m 75.39265,0.189163 2.50973,6.649078 c 1.38012,3.65674 2.43719,6.97401 2.3499,7.37135 -0.11168,0.50805 -2.1136,-0.3895 -6.74621,-3.0236 -6.57968,-3.74123 -6.5879,-3.74818 -6.60355,-5.67999 -0.0119,-1.41304 0.38543,-2.382137 1.47285,-3.599184 1.31562,-1.47243 1.80896,-1.668703 4.25265,-1.691354 z m -197.42092,9.063708 c 0.8344,0 13.33762,7.28101 13.33762,7.76687 0,0.49309 -0.80587,0.68067 -7.7689,1.80971 -2.70617,0.4388 -5.44989,0.91689 -6.09777,1.06215 -1.7769,0.39844 -3.74283,-1.9636 -3.74283,-4.49746 0,-1.56428 0.4045,-2.44161 1.87344,-4.06754 1.03014,-1.14026 2.10942,-2.07373 2.39844,-2.07373 z m 35.0288,0 c 0.55314,0 1.60938,0.71781 2.34686,1.59424 1.67107,1.98596 1.80053,5.1552 0.31055,7.59895 -0.56447,0.9258 -1.20444,1.66579 -1.42227,1.64381 -3.08534,-0.31137 -14.34445,-2.56565 -14.72752,-2.94874 -0.33936,-0.33935 0.42294,-1.03325 2.24772,-2.0454 1.51858,-0.84233 4.44389,-2.5016 6.50038,-3.68719 2.05649,-1.18559 4.19115,-2.15567 4.74428,-2.15567 z m 152.52725,0 c 0.67683,0 12.09629,6.38695 12.95523,7.24591 0.8418,0.84179 0.11838,1.09655 -5.99054,2.11217 -3.22586,0.53631 -6.50272,1.09041 -7.28232,1.2321 -2.36335,0.42952 -4.55289,-2.73268 -3.83589,-5.5404 0.37874,-1.48309 3.3124,-5.04978 4.15352,-5.04978 z m -58.55702,0.10318 c 0.86073,-0.0171 1.51188,0.4568 2.46622,1.41115 1.76936,1.76935 2.00916,4.27733 0.67775,7.08305 -0.78001,1.64373 -0.99648,1.7581 -3.23704,1.71259 -3.07651,-0.0625 -12.4936,-1.80835 -13.11709,-2.43182 -0.4495,-0.44951 1.70691,-1.86762 9.48453,-6.24041 1.79461,-1.00898 2.86489,-1.51745 3.72563,-1.53456 z m 93.79117,0.2529 c 0.99246,-0.0146 1.57509,0.58658 2.36609,1.69742 1.27807,1.79478 1.33864,4.03703 0.176,6.47509 -0.72845,1.52756 -1.13538,1.82313 -2.46015,1.78846 -1.81948,-0.0476 -13.10891,-2.2436 -13.48933,-2.62402 -0.13874,-0.13874 2.66637,-1.93999 6.23332,-4.00179 3.94507,-2.28038 5.89809,-3.31639 7.17407,-3.33516 z m -128.55191,0.0455 c 1.2877,0.1133 3.2028,1.16273 6.85241,3.24513 3.94204,2.24925 6.38417,3.93792 6.10182,4.22029 -0.25893,0.2589 -2.8951,0.89658 -5.85804,1.41721 -9.62006,1.69039 -9.12681,1.68065 -10.29681,0.19321 -1.39264,-1.77039 -1.34514,-4.57579 0.1143,-6.70573 1.13822,-1.66111 1.79862,-2.48342 3.08632,-2.37011 z m 114.55273,10.03077 c 1.57202,-0.007 10.07896,1.34443 13.01189,2.09396 2.5014,0.63925 2.83072,1.08844 2.84051,3.87838 0.006,1.6932 -0.31035,2.47847 -1.46476,3.62548 -1.59721,1.58693 -4.34239,2.82405 -5.11553,2.30538 -1.30934,-0.87838 -9.97053,-11.72298 -9.4906,-11.88297 0.0395,-0.0131 0.11369,-0.0197 0.21849,-0.0202 z m -195.70832,0.0223 c 1.12016,0.0533 0.0864,1.22937 -4.54399,6.83622 -2.49725,3.02386 -4.82793,5.48861 -5.17927,5.47667 -1.26999,-0.0432 -4.15695,-1.91614 -4.83229,-3.13488 -0.76611,-1.38258 -0.94255,-5.02438 -0.29336,-6.04719 0.38164,-0.60129 7.02197,-2.08566 13.20915,-2.95279 0.57274,-0.0803 1.04302,-0.15487 1.38788,-0.175 0.0934,-0.005 0.1772,-0.007 0.25188,-0.003 z m 8.21094,0.005 c 2.08556,0.0695 9.99288,1.28373 12.91376,2.03529 2.32632,0.59857 3.2359,2.16176 2.75351,4.73316 -0.33456,1.78333 -1.69201,3.38556 -3.77823,4.46003 -2.27168,1.16998 -3.02289,0.67933 -7.89534,-5.15397 -2.63545,-3.15515 -4.6587,-5.86976 -4.49544,-6.03304 0.0196,-0.0196 0.0762,-0.033 0.1659,-0.0394 0.0841,-0.006 0.1968,-0.007 0.33584,-0.002 z m 179.41288,0.0253 c 0.26204,-0.009 0.42172,0.003 0.45725,0.0384 0.4464,0.4464 -0.34129,1.52724 -5.13781,7.04258 -2.49854,2.87297 -4.71266,5.21369 -4.92029,5.20253 -0.94767,-0.0509 -3.5661,-1.4859 -4.32246,-2.36911 -1.12816,-1.31737 -1.59776,-3.51845 -1.20175,-5.62941 0.29451,-1.5699 0.5646,-1.79683 2.73631,-2.29324 3.74409,-0.85583 10.55444,-1.92763 12.38875,-1.99179 z m -92.96877,0.0172 c 0.1181,0.002 0.19154,0.0125 0.21243,0.0334 0.24602,0.24602 -8.25034,10.5372 -9.58163,11.6058 -0.95187,0.76404 -0.92247,0.76577 -3.02866,-0.1568 -2.37997,-1.04249 -3.2775,-2.62097 -3.2775,-5.76699 0,-2.05683 0.21975,-2.83124 0.90637,-3.19657 0.99804,-0.53103 12.99745,-2.54473 14.76899,-2.51882 z m 7.48566,0.006 c 1.77783,-0.0563 13.62991,1.9166 14.7356,2.49657 1.9022,0.99774 1.46278,5.78233 -0.69495,7.57163 -0.42206,0.34998 -1.61516,0.99136 -2.65134,1.4243 l -1.88355,0.78701 -5.00628,-5.97436 c -2.7537,-3.28559 -4.87566,-6.10495 -4.71495,-6.2657 0.0228,-0.0228 0.097,-0.0357 0.21547,-0.0395 z m -5.29256,1.29279 0.14364,7.92164 c 0.11263,6.21836 -0.0107,8.07597 -0.57559,8.64088 -0.39581,0.3958 -1.65421,0.84528 -2.79599,0.99842 -1.85187,0.24839 -2.30481,0.0721 -4.19298,-1.63369 -1.16413,-1.05174 -2.25695,-2.35796 -2.4298,-2.90221 -0.2342,-0.73793 0.97824,-2.51948 4.76857,-7.00718 z m 93.44624,0.41576 c 0.43,0.0269 0.55737,1.90646 0.55737,7.72641 v 7.99852 l -1.52749,0.79004 c -0.84043,0.4346 -2.08854,0.79004 -2.77273,0.79004 -1.58795,0 -4.361,-1.91255 -5.45944,-3.76508 -0.76099,-1.28355 -0.77007,-1.567 -0.0779,-2.68674 1.20592,-1.95084 8.46677,-10.51112 9.19017,-10.83498 0.0314,-0.0141 0.0614,-0.02 0.09,-0.0182 z m -187.43163,0.0152 c 0.0373,-0.009 0.0669,-0.008 0.088,0.005 0.2265,0.14 0.41171,3.58408 0.41171,7.65357 0,6.64176 -0.10165,7.49115 -0.99539,8.29997 -0.54762,0.49557 -1.94346,1.02822 -3.10149,1.18355 -1.93135,0.25903 -2.27663,0.11067 -4.18286,-1.79556 -1.14343,-1.14342 -2.07879,-2.58169 -2.07879,-3.19758 0,-1.2018 8.70165,-11.86289 9.85881,-12.14901 z m 190.54424,0.19828 c 0.26554,0 2.2878,2.15587 4.49442,4.79082 2.20666,2.63494 4.34724,5.18993 4.75745,5.67695 0.99023,1.17572 0.43947,3.25669 -1.28572,4.85556 -1.03695,0.96102 -1.90145,1.24315 -3.73374,1.21794 -4.80777,-0.0662 -4.71594,0.10595 -4.71594,-8.75518 0,-4.46712 0.20654,-7.78609 0.48353,-7.78609 z m -93.58078,0.0182 c 0.35607,0.01 2.16234,1.8858 4.01393,4.1687 1.85158,2.28289 3.89092,4.64555 4.53186,5.25108 1.65116,1.55997 1.51547,3.75888 -0.34799,5.62234 -1.25749,1.25747 -1.93977,1.51331 -4.02809,1.51331 -1.43732,0 -3.00791,-0.34531 -3.66594,-0.80622 -1.09923,-0.76989 -1.15117,-1.14375 -1.15117,-8.28682 0,-5.6487 0.15853,-7.4759 0.6474,-7.46239 z m -94.11387,0.14769 c 0.44557,-0.14794 8.4936,9.00813 9.74248,11.08382 0.49703,0.82608 -0.8965,3.48774 -2.36405,4.51567 -1.71751,1.20298 -5.84759,1.06349 -7.15285,-0.24177 -0.96841,-0.96838 -1.03908,-1.60177 -0.90636,-8.11485 0.0874,-4.28762 0.35501,-7.13472 0.68078,-7.24287 z m 92.17974,37.68823 c -1.81781,-0.0104 -3.53444,0.64217 -5.069,1.9574 -1.15695,0.99158 -2.70799,1.61897 -5.0336,2.03731 -1.84875,0.33257 -3.94635,1.03349 -4.66133,1.55682 -1.68593,1.23396 -3.11059,4.06141 -3.1116,6.17465 -5.3e-4,1.19148 -0.35721,1.90455 -1.24222,2.48443 -0.68276,0.44737 -1.84812,1.68854 -2.58963,2.75856 -1.70962,2.46695 -1.84372,6.25068 -0.31055,8.76529 0.75648,1.24075 1.03383,2.60887 1.03383,5.10036 0,5.31489 1.41244,7.51528 5.7336,8.93119 1.23132,0.40347 2.40358,1.39124 3.50713,2.95683 1.03449,1.46766 2.48059,2.72555 3.84803,3.34629 2.67542,1.2145 2.85074,1.22035 5.86713,0.19625 1.93969,-0.65853 2.85991,-0.70976 4.65021,-0.25896 5.19514,1.30815 8.18857,0.35753 10.31705,-3.27447 0.99262,-1.69378 2.0554,-2.62829 4.15151,-3.6538 4.11039,-2.01104 5.17048,-3.7655 5.18027,-8.56602 0.005,-2.55822 0.31424,-4.56862 0.90637,-5.88939 1.78612,-3.98407 0.89497,-7.89524 -2.36506,-10.38178 -1.24306,-0.94813 -1.89346,-2.01414 -2.37619,-3.8976 -1.17343,-4.57851 -3.78798,-6.76339 -8.09563,-6.76339 -1.81399,0 -2.94122,-0.37771 -4.66235,-1.56187 -1.94049,-1.33512 -3.86015,-2.0077 -5.67797,-2.0181 z m -94.08756,0.21345 c -2.48031,0 -3.2281,0.24087 -4.9203,1.5821 -1.36953,1.08548 -3.01332,1.76624 -5.23995,2.17084 -1.78438,0.32422 -3.91399,1.06627 -4.73215,1.64887 -1.548,1.10225 -3.15915,4.37606 -3.15915,6.41945 0,0.67989 -0.78878,1.94193 -1.85624,2.96796 -1.02131,0.98166 -2.21258,2.46416 -2.64729,3.29469 -0.99937,1.90944 -0.68496,5.74938 0.63628,7.76586 0.7135,1.08893 0.97379,2.47002 0.99337,5.25513 0.0311,4.60483 0.93449,6.1082 4.81813,8.01977 1.64457,0.80947 3.2726,2.14364 4.23243,3.46868 1.57858,2.17915 2.78178,3.05842 5.18735,3.78836 1.84768,0.56067 1.63159,0.57468 4.6057,-0.30854 2.07031,-0.61481 3.1375,-0.67536 4.62592,-0.262 4.86999,1.35251 8.12634,0.28779 10.48295,-3.42822 1.07939,-1.70202 2.21814,-2.69478 4.08069,-3.55771 1.72706,-0.80016 3.04682,-1.8979 3.98257,-3.3119 1.25113,-1.89045 1.36986,-2.44892 1.11476,-5.2622 -0.22071,-2.43404 -0.0634,-3.63671 0.69394,-5.3047 1.92903,-4.24858 1.0595,-8.38561 -2.30032,-10.94827 -1.24199,-0.9473 -1.8407,-1.8931 -2.06564,-3.26334 -0.73021,-4.44806 -3.99965,-7.36237 -8.26355,-7.36629 -1.97193,-0.002 -3.0055,-0.3556 -4.9203,-1.68528 -2.0365,-1.41419 -2.89194,-1.68326 -5.3492,-1.68326 z m 187.84333,0 c -2.75783,0 -3.43392,0.20838 -5.21872,1.60638 -1.34527,1.05372 -2.89771,1.71912 -4.51262,1.93312 -4.99807,0.6623 -8.15632,3.49201 -8.15632,7.30862 0,0.90481 -0.7799,2.20215 -2.30336,3.83084 -3.76047,4.02024 -4.24579,6.51854 -2.06159,10.62153 1.07393,2.0173 1.26455,2.90533 0.98224,4.57636 -0.77293,4.57493 1.70654,8.56172 6.0745,9.76776 1.05147,0.29033 2.08743,1.0726 2.62504,1.98269 0.48845,0.82692 1.74263,2.25342 2.78689,3.17028 v 0.001 c 1.84584,1.62066 1.99361,1.65734 5.31381,1.32313 3.73607,-0.37605 4.82981,-0.39509 9.97918,-0.17398 3.99664,0.17163 5.63166,-0.69329 7.47856,-3.95324 0.74919,-1.32234 1.89309,-2.30662 3.6255,-3.1197 4.53692,-2.12937 6.2906,-5.30055 5.31985,-9.62109 -0.37756,-1.6804 -0.27451,-2.4621 0.53009,-4.03921 2.33685,-4.58065 1.80909,-7.63405 -1.96448,-11.3701 -1.17208,-1.16041 -2.13667,-2.53614 -2.14254,-3.05697 -0.0206,-1.7248 -1.95138,-5.25345 -3.38976,-6.1959 -0.77894,-0.51036 -2.86827,-1.07883 -4.64315,-1.26244 -2.42948,-0.25147 -3.71226,-0.70354 -5.19038,-1.83096 -1.67072,-1.27432 -2.43626,-1.49814 -5.13274,-1.49814 z m -0.0738,2.45408 c 0.13587,0.004 0.26988,0.0137 0.40262,0.0313 2.11669,0.28223 4.53107,1.80306 4.55612,2.86984 0.009,0.38169 -0.97432,3.4682 -2.185,6.85847 -1.21063,3.3903 -2.31765,6.16304 -2.46015,6.1615 -0.37947,-0.004 -4.68218,-12.00702 -4.67043,-13.02908 0.0167,-1.4721 2.31905,-2.9468 4.35684,-2.89209 z m -93.43207,0.0253 c 1.24524,-0.001 2.52113,0.52483 3.83691,1.57806 l 1.50522,1.20478 -2.21333,5.91468 c -2.72415,7.27929 -2.95913,7.7504 -3.33111,6.69156 -0.15012,-0.42729 -1.21415,-3.28473 -2.36507,-6.34965 -1.1509,-3.0649 -2.09085,-5.86069 -2.0889,-6.2141 0.002,-0.3534 0.81231,-1.19466 1.80161,-1.86838 0.93585,-0.63731 1.88615,-0.95634 2.85467,-0.95695 z m -94.18164,0.0142 c 0.8117,-0.0164 1.62486,0.15657 2.35494,0.53411 3.05371,1.57912 3.07211,1.8182 0.6555,8.49116 -1.21338,3.35017 -2.36737,6.27584 -2.56539,6.50129 -0.19804,0.22543 -1.45869,-2.5433 -2.80105,-6.15239 l -2.44093,-6.56209 1.14712,-1.22097 c 0.94942,-1.0106 2.29694,-1.5639 3.64976,-1.5912 z m 10.22701,2.94469 c 2.39078,0 4.53964,1.53105 5.55254,3.95525 1.3369,3.19969 1.14656,3.46033 -5.26626,7.1842 -8.75803,5.08573 -8.45388,5.21943 -5.71236,-2.50869 3.09139,-8.71457 3.03788,-8.63076 5.42608,-8.63076 z m 94.25752,0.50579 c 1.74195,0.0888 3.97959,1.32502 4.62087,2.96593 1.29932,3.32478 1.11401,3.75691 -2.49252,5.82768 -1.85157,1.06316 -4.59013,2.66289 -6.08563,3.55467 -1.49553,0.89179 -2.71911,1.38395 -2.71911,1.09351 0,-0.79281 4.22657,-12.0362 4.80498,-12.78225 0.39046,-0.50364 1.07961,-0.69992 1.87141,-0.65954 z m 73.80349,0.0121 c 2.19425,0 2.3703,0.10509 2.83139,1.68326 0.27046,0.92579 1.32953,3.89739 2.35291,6.60356 1.02341,2.70616 1.86177,5.21163 1.86333,5.5677 0.005,1.15686 -0.75972,0.81629 -8.67323,-3.86826 -4.65873,-2.75784 -4.79044,-2.88739 -4.77869,-4.72708 0.02,-3.29334 2.41335,-5.25918 6.40429,-5.25918 z m -92.7169,0.0172 c 1.20197,-0.0147 1.37311,0.27913 1.77228,1.34943 0.30411,0.81541 1.36522,3.69609 2.35798,6.40226 0.99275,2.70615 1.96579,5.32817 2.16274,5.82667 0.62412,1.57969 -0.80665,1.04258 -7.45024,-2.80004 l -6.40125,-3.70337 0.27717,-2.0707 c 0.4105,-3.0605 2.21519,-4.61602 5.6891,-4.90411 0.67652,-0.0561 1.19156,-0.0953 1.59222,-0.10014 z m -95.51692,0.0566 c 0.22817,0.003 0.46238,0.0131 0.70305,0.0314 1.993,0.15137 2.05785,0.21993 3.27952,3.52028 1.81378,4.89997 3.81162,10.51375 3.81162,10.70852 0,0.62036 -2.09732,-0.35643 -7.69202,-3.58097 l -6.39725,-3.68728 0.2883,-1.7743 c 0.56857,-3.50363 2.58416,-5.25368 6.00673,-5.2177 z m 208.2033,0.0101 c 1.04598,-0.005 1.92884,0.29795 2.73833,0.93469 1.41182,1.11054 2.75167,4.23273 2.31045,5.38259 -0.13949,0.36343 -2.3169,1.84004 -4.83838,3.28155 -6.74299,3.85488 -6.9197,3.93551 -6.88779,3.15409 0.0148,-0.3661 1.00695,-3.34588 2.20421,-6.62177 l 2.17692,-5.95615 1.837,-0.15477 c 0.15634,-0.0132 0.30985,-0.0196 0.45926,-0.0203 z m -86.52403,8.87758 c 0.5229,0.0117 1.43206,0.59447 2.38732,1.54972 2.0965,2.09651 2.38137,4.32115 0.94178,7.33999 -0.76606,1.60644 -1.09864,1.82527 -2.71912,1.78846 -2.70014,-0.0612 -13.12127,-1.96259 -13.64918,-2.49049 -0.38038,-0.38039 10.36682,-7.20833 12.83992,-8.15733 0.058,-0.0222 0.12458,-0.032 0.19928,-0.0303 z m -93.97331,0.24876 c 1.08859,-0.0727 1.75046,0.60987 2.83747,1.99178 1.33168,1.69286 1.41728,4.89234 0.18714,6.97481 -0.72857,1.23337 -1.21817,1.49418 -2.71911,1.44857 -2.79289,-0.0849 -13.16298,-2.00683 -13.6947,-2.53804 -0.28065,-0.28035 0.20227,-0.84183 1.19973,-1.39698 0.91788,-0.51086 3.97344,-2.28331 6.7907,-3.93806 2.79431,-1.64126 4.31019,-2.46934 5.39877,-2.54208 z m 187.77354,0.0293 1.55581,1.55579 c 1.25253,1.25254 1.55479,1.99472 1.55479,3.8106 0,1.2404 -0.36279,2.77288 -0.80621,3.40598 -0.45815,0.65408 -1.29675,1.1213 -1.94222,1.08137 -2.27217,-0.14059 -12.78922,-2.17424 -12.78531,-2.47229 0.003,-0.16848 1.57512,-1.17645 3.496,-2.24064 1.9209,-1.06418 4.71455,-2.65696 6.20905,-3.53848 z m -34.79209,0.083 c 0.41131,0 3.65912,1.66549 7.21658,3.70033 4.85722,2.77831 6.27007,3.81022 5.67291,4.14443 -0.43738,0.24476 -3.51819,0.91096 -6.84636,1.47993 -8.38849,1.4341 -8.76147,1.40606 -9.77382,-0.72732 -0.9868,-2.07951 -1.04244,-3.08396 -0.25492,-4.61683 0.88453,-1.72165 3.14584,-3.98054 3.98561,-3.98054 z m -93.68901,0.009 c 1.10942,0.0117 13.14904,6.85149 13.20307,7.50082 0.0238,0.28488 -1.93858,0.92179 -4.35989,1.41519 -2.42131,0.49339 -5.95316,1.04917 -7.84881,1.23512 l -3.44643,0.33788 -0.82646,-1.59728 c -1.4143,-2.73498 -0.98218,-5.11893 1.40104,-7.73551 0.58379,-0.64094 1.42862,-1.16014 1.87748,-1.15622 z m -94.37991,0.20029 c 0.86798,-0.0295 3.12199,0.99306 6.81599,3.09035 5.89888,3.34912 7.19895,4.25003 6.76137,4.68764 -0.12928,0.12927 -3.05321,0.71528 -6.49735,1.3029 -8.54714,1.4583 -9.30328,1.42489 -10.2776,-0.45925 -0.4346,-0.84042 -0.79004,-2.16856 -0.79004,-2.95076 0,-1.77958 2.38098,-5.29051 3.83185,-5.65065 0.0456,-0.0113 0.0979,-0.0183 0.15578,-0.0202 z m 210.0029,10.15216 c 2.36508,0.005 13.56492,2.0967 14.24297,2.65943 0.37936,0.31484 0.6899,1.56112 0.6899,2.76969 0,2.61638 -1.43912,4.71509 -3.95425,5.76598 -0.94004,0.39275 -1.9281,0.71416 -2.19512,0.71416 -0.48545,0 -9.49325,-10.46938 -9.81937,-11.41258 -0.095,-0.27461 0.37118,-0.49822 1.03587,-0.49668 z m -197.09015,0.0415 c 0.18913,0.002 0.34351,0.0128 0.45723,0.0354 0.69815,0.13838 -0.16845,1.46549 -3.82476,5.856 -2.60001,3.12207 -5.01989,5.83997 -5.37753,6.04012 -0.96472,0.5399 -3.68201,-0.77555 -4.96177,-2.40249 -1.27035,-1.61501 -1.53067,-5.22405 -0.47443,-6.58232 0.62313,-0.80128 11.34434,-2.97528 14.18126,-2.94671 z m 102.68898,0.0172 c 1.89403,-0.11446 14.11178,1.94687 14.85093,2.5603 1.88675,1.56587 1.12917,5.9841 -1.32617,7.73247 -0.8101,0.57684 -2.13907,1.18172 -2.95279,1.34439 -1.36907,0.27381 -1.84028,-0.13518 -6.30616,-5.48173 -2.65435,-3.17777 -4.67941,-5.92391 -4.50049,-6.10282 0.028,-0.028 0.10841,-0.045 0.23468,-0.0526 z m 85.56607,0.004 c 0.12533,0.006 0.20444,0.0224 0.23064,0.0485 0.17885,0.17884 -1.83166,2.90621 -4.46712,6.06135 -3.31394,3.96746 -5.125,5.73544 -5.8732,5.72956 -3.15401,-0.0223 -5.72586,-3.38351 -5.29357,-6.91816 0.13488,-1.1027 0.44287,-2.20301 0.68484,-2.44497 0.54532,-0.54532 12.83865,-2.57062 14.71841,-2.47634 z m -179.28846,0.005 c 1.78494,0.007 10.09904,1.29531 13.06853,2.05248 1.52575,0.38906 1.96974,0.79215 2.24165,2.03023 0.71111,3.23766 -0.8345,5.98838 -4.04933,7.20647 -0.80192,0.30382 -1.74123,0.55231 -2.08789,0.55231 -0.34668,0 -2.80649,-2.622 -5.46554,-5.82667 -3.59876,-4.33721 -4.61416,-5.87061 -3.97346,-5.99863 0.0574,-0.0115 0.14704,-0.0167 0.26604,-0.0162 z m 85.49121,0 c 0.11803,-5.3e-4 0.20788,0.005 0.26402,0.0162 0.60309,0.12465 -0.49483,1.7664 -3.99066,5.96829 -2.65236,3.18807 -5.06764,5.9026 -5.36742,6.03101 -0.86548,0.37095 -4.03051,-1.14271 -5.01134,-2.39642 -0.60562,-0.77412 -0.89854,-2.09993 -0.90637,-4.10193 l -0.0121,-2.95785 1.94222,-0.49567 c 2.97546,-0.75956 11.31123,-2.05745 13.08168,-2.06361 z m -91.10645,1.48299 c 0.25638,0 0.46532,3.49045 0.46532,7.75676 0,7.47563 -0.0423,7.78497 -1.16533,8.51139 -1.82409,1.17983 -3.6152,1.38614 -5.35224,0.61706 -1.87624,-0.83073 -3.84095,-3.1478 -3.84095,-4.53085 0,-1.01581 9.07977,-12.35436 9.8932,-12.35436 z m 187.47108,0.087 c 0.28631,-0.10218 0.48353,3.11345 0.48353,7.88017 0,7.43148 -0.077,8.09348 -1.00145,8.58827 -0.55099,0.29488 -2.02189,0.53613 -3.26842,0.53613 -1.84108,0 -2.57786,-0.30461 -3.92592,-1.62256 -2.93901,-2.87346 -2.81035,-3.37252 2.48344,-9.61502 2.60963,-3.07736 4.96279,-5.67205 5.22882,-5.76699 z m 3.02663,0.25188 c 1.10749,0.32928 9.88713,11.11792 9.88713,12.21376 0,0.55943 -0.79163,1.81027 -1.76014,2.77879 -1.41893,1.41892 -2.14823,1.75256 -3.75497,1.71968 -1.09669,-0.0225 -2.63575,-0.27531 -3.41913,-0.56143 l -1.42428,-0.51994 v -7.69505 c 0,-4.23233 0.17479,-7.80325 0.38844,-7.9348 0.0193,-0.0118 0.0472,-0.0116 0.083,-0.001 z m -96.76825,0.0435 c 0.43582,0.0132 0.4805,1.54404 0.4805,7.60907 v 8.11789 l -1.79554,0.74957 v 0.001 c -2.14879,0.89729 -2.1751,0.89753 -4.22333,0.006 -1.47264,-0.64094 -4.33965,-3.72273 -4.33965,-4.66438 0,-0.47111 8.30931,-10.62666 9.50981,-11.62299 0.14643,-0.12152 0.26764,-0.1993 0.36821,-0.19625 z m 3.01854,0.0334 c 0.45351,0.0665 2.60527,2.23742 4.99617,5.05787 5.37591,6.34171 5.82473,7.6626 3.41608,10.07124 -1.24488,1.24488 -1.98525,1.54549 -3.78834,1.53962 -1.23257,-0.004 -2.82432,-0.30271 -3.53646,-0.66258 -1.27972,-0.64673 -1.29596,-0.74046 -1.43847,-8.10879 -0.0793,-4.10011 0.048,-7.64699 0.28325,-7.88219 0.0147,-0.0147 0.0376,-0.0196 0.0678,-0.0152 z m -93.89436,0.25492 c 0.51841,-0.17203 5.9542,5.90278 8.95648,10.00953 1.12182,1.5345 1.14035,1.69687 0.36012,3.20568 -0.45203,0.87411 -1.34189,1.95286 -1.97661,2.39744 -1.25072,0.87602 -4.6306,1.02239 -6.47509,0.2802 -0.63242,-0.25448 -1.28244,-0.99662 -1.44452,-1.64988 -0.52622,-2.12111 -0.0414,-14.03686 0.57962,-14.24297 z m 142.11309,34.5483 v 27.75255 c 0,21.9713 0.13485,27.70758 0.64741,27.53709 0.50054,-0.16643 0.71936,-6.02237 0.96403,-25.81033 0.17406,-14.07709 0.3489,-26.11703 0.38844,-26.75616 l 0.0718,-1.1623 39.19043,-0.13251 c 30.79644,-0.10431 39.23535,-0.27218 39.40487,-0.78094 0.1714,-0.51429 -8.10233,-0.6474 -40.22527,-0.6474 z m -49.79476,4.11903 c -2.19343,-0.0645 -4.23589,0.79568 -5.83375,2.56131 -0.59534,0.65784 -1.62018,1.08994 -2.58862,1.09148 -2.4771,0.005 -5.61879,1.01613 -6.97886,2.24773 -1.43022,1.29509 -2.65234,3.91225 -2.65234,5.67998 0,0.67717 -0.5003,1.67574 -1.11173,2.21839 -0.61141,0.54266 -1.77677,1.89543 -2.58963,3.0064 -1.74205,2.38085 -1.99325,5.85013 -0.60391,8.33841 0.52236,0.93553 0.99393,3.35349 1.18557,6.07653 0.28654,4.07269 0.46829,4.67869 1.8269,6.09676 0.82975,0.86608 2.4103,1.84576 3.51219,2.1759 1.43948,0.43128 2.44478,1.24068 3.56985,2.8759 0.86122,1.25176 2.30028,2.72328 3.19758,3.27043 1.8873,1.1508 5.51332,1.28478 7.84578,0.2893 1.26921,-0.54176 1.97263,-0.53749 3.83791,0.0233 4.71085,1.41626 7.69479,0.36543 10.43743,-3.67303 0.75233,-1.10778 2.27633,-2.47147 3.38675,-3.03068 4.5735,-2.30319 6.17295,-4.88348 5.68707,-9.17801 -0.26385,-2.33221 -0.1192,-3.40019 0.7081,-5.22378 1.92311,-4.23899 1.24884,-7.53856 -2.17589,-10.65187 -1.20843,-1.09856 -1.99224,-2.43157 -2.41362,-4.10497 -0.41762,-1.65853 -1.27959,-3.13382 -2.6048,-4.45903 -1.81654,-1.81645 -2.21618,-1.98066 -4.83735,-1.98066 -2.40734,0 -3.28216,-0.28559 -5.55152,-1.81274 -1.75029,-1.17786 -3.54711,-1.78688 -5.25311,-1.83702 z m -94.32933,0.0212 c -2.19428,-0.022 -4.21377,0.82377 -5.76699,2.54007 -0.59532,0.65784 -1.62019,1.08994 -2.58862,1.09148 -4.98839,0.009 -8.77255,2.81319 -9.39449,6.96065 -0.29118,1.94166 -0.82591,2.94817 -2.39844,4.52073 -3.37521,3.37519 -3.96087,6.89566 -1.75205,10.52745 1.00009,1.64436 1.19969,2.5175 0.96808,4.23345 -0.64585,4.78483 1.31069,8.44209 5.12767,9.58568 1.48164,0.44392 2.54878,1.25287 3.60222,2.72923 0.82325,1.15376 2.24036,2.6214 3.15004,3.26233 v 0.001 c 1.9092,1.34521 6.06276,1.57262 8.10069,0.44307 1.02995,-0.57159 1.63039,-0.56892 3.57793,0.0172 1.2873,0.38741 3.01221,0.70406 3.83286,0.70406 2.35542,0 5.21263,-1.77977 6.62986,-4.13026 0.89949,-1.49184 2.20565,-2.63495 4.27693,-3.74384 4.16065,-2.22746 5.28111,-4.16071 4.88287,-8.42541 -0.24555,-2.62945 -0.10907,-3.64411 0.70608,-5.24299 0.62927,-1.23427 1.01057,-3.0288 1.01057,-4.75339 0,-2.59302 -0.15942,-2.94118 -2.49556,-5.45744 -1.55162,-1.67127 -2.74562,-3.55625 -3.15611,-4.98201 -1.3199,-4.58442 -3.37866,-6.25254 -7.71832,-6.25254 -1.6926,0 -2.95995,-0.32192 -3.78126,-0.96201 -2.25124,-1.75447 -4.61969,-2.64449 -6.81396,-2.66651 z m 94.25852,2.20625 c 1.10133,0.0366 2.27197,0.40984 3.48689,1.12183 1.29551,0.75921 2.35495,1.60711 2.35495,1.88457 0,0.27747 -1.08777,3.4729 -2.41766,7.10024 -1.32991,3.62734 -2.60315,6.80783 -2.82938,7.06787 -0.43435,0.49924 -0.5264,0.29633 -3.39383,-7.46542 -2.49887,-6.76402 -2.50528,-6.81642 -1.05103,-8.18263 1.13276,-1.06417 2.43406,-1.57351 3.85006,-1.52646 z m -94.36473,0.0273 c 1.57408,-0.0631 3.2232,0.46484 4.63806,1.59728 l 1.54164,1.23412 -0.86389,2.51882 c -0.47495,1.38531 -1.59021,4.49988 -2.47836,6.92119 -0.88816,2.42131 -1.80685,4.59647 -2.04135,4.8333 -0.39218,0.39609 -1.61345,-2.44816 -4.6937,-10.92702 -1.11616,-3.07237 -1.13187,-3.29769 -0.29235,-4.22536 1.11676,-1.23399 2.61587,-1.88918 4.18995,-1.95233 z m 85.26865,3.43025 c 0.51659,0.012 0.99045,0.13307 1.38889,0.3844 0.8304,0.52379 5.82435,13.93776 5.36134,14.40078 -0.45169,0.45169 -0.65309,0.35341 -7.22061,-3.49904 -6.12145,-3.59079 -6.3446,-3.78269 -6.3446,-5.46554 0,-2.78298 4.02539,-5.88531 6.81498,-5.8206 z m 19.55171,0.0364 c 2.6504,0 4.91554,1.85797 5.61222,4.60266 0.28345,1.11667 0.37059,2.26254 0.19422,2.54715 -0.17633,0.28458 -2.06868,1.5421 -4.20511,2.79397 -7.93413,4.64908 -8.74495,5.07344 -8.96054,4.69067 -0.20994,-0.37275 2.96845,-9.39113 4.56423,-12.95119 0.66632,-1.48652 0.99311,-1.68326 2.79498,-1.68326 z m -94.14826,0.0192 c 1.15218,-0.018 2.40668,0.15959 3.11969,0.54119 1.14276,0.61159 2.99991,4.25661 3.01753,5.92378 0.009,0.79701 -1.52277,1.93723 -6.43361,4.79082 -3.54462,2.0597 -6.57449,3.74485 -6.73304,3.74485 -0.15852,0 -0.2883,-0.32466 -0.2883,-0.72126 0,-0.96352 4.18157,-12.82847 4.81105,-13.65119 0.30409,-0.39746 1.35449,-0.61023 2.50668,-0.62819 z m -19.49304,0.0395 c 0.48854,0.005 0.90544,0.0931 1.19569,0.27616 0.62914,0.39685 4.17235,9.07989 5.51712,13.51969 0.24413,0.806 0.14316,1.15003 -0.32876,1.11577 -0.83423,-0.0604 -11.76536,-6.40907 -12.7772,-7.42091 -1.12723,-1.12724 -0.3273,-4.13782 1.51028,-5.68404 1.30315,-1.09648 3.41728,-1.82191 4.88287,-1.80667 z m 86.17199,9.16689 3.27042,1.87243 c 1.79886,1.03008 4.84267,2.74145 6.76339,3.80352 1.92074,1.06209 3.4196,2.15377 3.33112,2.42575 -0.0886,0.27198 -3.17576,1.02277 -6.85949,1.66809 -8.71878,1.52735 -8.83676,1.5236 -9.79204,-0.32371 -1.40762,-2.72202 -1.03438,-4.90499 1.24828,-7.30458 z m -59.14272,0.0971 c 0.26812,0 1.23082,0.7271 2.13948,1.61548 1.93407,1.89091 2.20276,4.44729 0.77992,7.43103 -1.06492,2.23316 -1.80775,2.26828 -10.5224,0.50275 -3.27588,-0.66365 -6.02789,-1.21845 -6.11598,-1.23412 -0.94694,-0.165 12.49978,-8.31514 13.71898,-8.31514 z m 94.05014,0.1487 c 0.63149,-0.002 1.39412,0.54022 2.42171,1.71058 1.49674,1.70456 1.66795,2.20059 1.44554,4.17375 -0.1388,1.23159 -0.63634,2.82527 -1.10565,3.54152 -0.63331,0.96655 -1.28342,1.29178 -2.52388,1.26144 -0.91921,-0.0225 -1.94725,-0.1531 -2.28413,-0.29032 -0.33687,-0.13729 -2.99954,-0.6481 -5.9167,-1.13499 -2.91718,-0.4869 -5.3769,-1.1138 -5.46655,-1.39294 -0.16448,-0.51222 11.33761,-7.35634 13.16665,-7.83464 0.0853,-0.0223 0.1728,-0.0341 0.26301,-0.0344 z m -128.9879,0.39958 c 1.25094,0.0828 3.11502,1.12785 6.77047,3.21276 3.61569,2.0622 6.50105,3.97148 6.41237,4.24355 -0.0888,0.27208 -2.94272,1.01461 -6.34156,1.64988 -8.44461,1.57837 -9.1229,1.5595 -10.21083,-0.28223 -1.21141,-2.05073 -1.11593,-4.22577 0.27616,-6.26468 1.20393,-1.76331 1.84246,-2.64207 3.09339,-2.55928 z m 21.18945,9.95389 c 1.01046,-0.0243 3.6533,0.43768 9.51184,1.58716 l 5.69718,1.11779 0.48151,1.9493 c 0.66967,2.71095 -0.57073,5.18915 -3.29166,6.57726 -1.13783,0.58048 -2.36888,1.04665 -2.73631,1.03687 -0.62116,-0.0169 -9.76475,-10.7554 -10.17745,-11.95277 -0.0666,-0.19327 0.0556,-0.30454 0.51489,-0.31561 z m 94.0289,0.0354 c 0.82923,0.0272 4.0192,0.53814 7.71326,1.24525 l 7.67582,1.46981 0.44105,1.7035 c 0.69836,2.69507 -0.34602,5.02344 -2.93357,6.53983 -1.21319,0.71099 -2.53536,1.28754 -2.93761,1.28167 -0.40227,-0.006 -2.71243,-2.35782 -5.13374,-5.22681 -4.62647,-5.48191 -5.42887,-6.59673 -5.03158,-6.99403 0.0167,-0.0167 0.0879,-0.0231 0.20637,-0.0192 z m -7.72742,0.20434 c 0.12636,0.007 0.20803,0.0237 0.23772,0.0526 0.20568,0.20014 -1.78217,2.92304 -4.41755,6.05023 -5.53231,6.56476 -6.40491,6.97043 -9.37123,4.36595 -1.69788,-1.49072 -1.86433,-1.88031 -1.86433,-4.36798 0,-1.55695 0.27838,-2.95987 0.64741,-3.26232 0.81375,-0.66693 12.87249,-2.93794 14.76798,-2.83848 z m -94.25144,0.0101 c 0.12675,0.007 0.20854,0.0252 0.23873,0.0546 0.2123,0.20673 -1.73666,2.92866 -4.33055,6.04921 -3.01667,3.62918 -5.11489,5.71307 -5.82363,5.78217 -3.03312,0.29589 -5.51106,-2.43304 -5.51106,-6.07047 0,-1.35099 0.29133,-2.69533 0.64741,-2.98717 0.82648,-0.67737 12.87788,-2.93633 14.7791,-2.82837 z m 5.69111,1.54164 c 0.0795,-0.0109 0.16326,0.0387 0.25087,0.15173 0.24818,0.32002 8.1174,9.82237 9.09102,10.97761 1.04587,1.24099 -0.0579,3.82179 -2.19107,5.12262 -2.20745,1.34608 -5.35942,1.14703 -7.16296,-0.45218 -0.77706,-0.68899 -0.90414,-1.7716 -0.89826,-7.58579 0.006,-5.09174 0.35404,-8.1376 0.9104,-8.21399 z m 90.88392,0.16893 c 0.21362,-0.0176 0.38844,3.58628 0.38844,8.00864 v 8.041 l -1.3282,0.50478 c -2.90356,1.10394 -4.91582,0.64372 -7.06686,-1.61751 -1.11079,-1.16768 -1.94801,-2.46352 -1.8613,-2.87894 0.18374,-0.88065 9.29209,-12.0106 9.86792,-12.05797 z m -93.91357,0.084 c 0.42707,0.08 0.55737,1.96242 0.55737,7.58074 0,7.45528 -0.0485,7.81593 -1.15117,8.58827 -0.63308,0.44346 -2.17113,0.80622 -3.41811,0.80622 -1.88783,0 -2.56181,-0.29386 -4.02809,-1.76013 -1.0396,-1.03961 -1.76115,-2.27913 -1.76115,-3.02461 0,-0.83412 1.53824,-3.0802 4.53185,-6.61772 2.49253,-2.94538 4.82319,-5.44918 5.17927,-5.56467 0.0312,-0.0101 0.0616,-0.0134 0.09,-0.008 z m 96.86332,0.26604 c 0.80268,0.0725 7.50374,7.45272 9.48958,10.49408 0.78291,1.19786 0.7827,1.42663 -0.002,3.04585 -0.51256,1.0577 -1.52047,2.03118 -2.54715,2.46015 l -0.001,-10e-4 c -2.02697,0.84698 -2.95435,0.85285 -5.3573,0.0334 l -1.81275,-0.61808 -0.14464,-7.46946 c -0.0794,-4.10808 0.0625,-7.67563 0.31559,-7.92872 0.0133,-0.0133 0.0338,-0.0185 0.0597,-0.0162 z"
         inkscape:connector-curvature="0" />
    </clipPath>
  </defs>
  <sodipodi:namedview
     id="base"
     pagecolor="#ffffff"
     bordercolor="#666666"
     borderopacity="1.0"
     inkscape:pageopacity="0.0"
     inkscape:pageshadow="2"
     inkscape:zoom="0.24748737"
     inkscape:cx="1255.3945"
     inkscape:cy="-212.90236"
     inkscape:document-units="mm"
     inkscape:current-layer="g1900"
     showgrid="false"
     fit-margin-top="0"
     fit-margin-left="0"
     fit-margin-right="0"
     fit-margin-bottom="0"
     inkscape:window-width="1920"
     inkscape:window-height="1001"
     inkscape:window-x="-9"
     inkscape:window-y="-9"
     inkscape:window-maximized="1" />
  <metadata
     id="metadata5">
    <rdf:RDF>
      <cc:Work
         rdf:about="">
        <dc:format>image/svg+xml</dc:format>
        <dc:type
           rdf:resource="http://purl.org/dc/dcmitype/StillImage" />
        <dc:title></dc:title>
      </cc:Work>
    </rdf:RDF>
  </metadata>
  <g
     inkscape:label="Ebene 1"
     inkscape:groupmode="layer"
     id="layer1"
     transform="translate(200.89699,-93.812487)">
    <circle
       style="fill:#0000ff;fill-opacity:1;stroke:none;stroke-width:8.91764355;stroke-linecap:butt;stroke-linejoin:miter;stroke-miterlimit:4;stroke-dasharray:none;stroke-opacity:0.98039216;paint-order:markers fill stroke"
       id="path828-8"
       cx="-43.890804"
       cy="125.84193"
       r="0" />
    <circle
       style="fill:#0000ff;fill-opacity:1;stroke:none;stroke-width:8.91764355;stroke-linecap:butt;stroke-linejoin:miter;stroke-miterlimit:4;stroke-dasharray:none;stroke-opacity:0.98039216;paint-order:markers fill stroke"
       id="path828-85"
       cx="-43.890804"
       cy="125.84193"
       r="0" />
    <g
       id="g1052"
       transform="matrix(1.9882962,0,0,1.9882962,195.36826,-164.67506)">
      <g
         id="g1040">
        <g
           id="g1900">
          <rect
             y="130.00455"
             x="-199.2989"
             height="100.58864"
             width="163.45653"
             id="rect843"
             style="fill:#a02c89;fill-opacity:1;stroke:none;stroke-width:1.38862598;stroke-miterlimit:4;stroke-dasharray:none" />
          <g
             transform="matrix(1.2581675,0,0,1.2581675,-58.0349,-54.936624)"
             id="g1063" />
          <path
             sodipodi:nodetypes="cccccc"
             inkscape:connector-curvature="0"
             id="path845"
             style="fill:none;fill-opacity:0.0078125;stroke:#e5d5ff;stroke-width:0.65458125;stroke-linecap:butt;stroke-linejoin:miter;stroke-miterlimit:4;stroke-dasharray:none;stroke-opacity:1"
             d="m -97.042411,196.94319 v 27.60068 h 41.960855 c 2.449719,-3.49708 6.724845,-6.67804 6.334215,-14.44872 -0.687488,-6.20514 -3.369502,-9.85955 -6.334215,-13.15196 z" />
          <rect
             clip-path="url(#clipPath840-6)"
             y="218.21887"
             x="275.35492"
             height="54.22644"
             width="80.637642"
             id="rect847"
             style="fill:#000000;fill-opacity:1;stroke:none;stroke-width:0.90973073;stroke-miterlimit:4;stroke-dasharray:none;stroke-opacity:1"
             transform="matrix(0.50294298,0,0,0.50294318,-235.53023,87.191502)" />
          <g
             id="g2600"
             transform="translate(-205.12703,29.303862)"
             style="fill:#66ff00;stroke:#66ff00">
            <g
               transform="matrix(1.1036953,0,0,1.1036953,12.899792,3.7691411)"
               id="g2558"
               style="fill:#66ff00;stroke:#66ff00">
              <path
                 style="fill:#66ff00;fill-opacity:1;stroke:#66ff00;stroke-width:0.13307038;stroke-opacity:1"
                 d="m 11.017166,108.86099 c -0.14883,-0.10923 -0.17503,-1.08663 -0.14626,-5.45589 l 0.0351,-5.322806 5.18975,-0.0665 c 2.85436,-0.0366 5.25649,-0.0483 5.33806,-0.0259 0.39835,0.10901 0.4505,0.75681 0.4505,5.595726 0,3.74503 -0.0396,4.9461 -0.16903,5.12307 -0.15487,0.2118 -0.60228,0.23343 -5.34289,0.25831 -3.28359,0.0172 -5.2401,-0.0215 -5.35518,-0.10593 z m 9.96038,-0.53355 c 0.14447,-0.18367 0.31777,-0.2999 0.38509,-0.25829 0.0736,0.0455 0.12242,-1.78406 0.12242,-4.58966 0,-3.873926 -0.0311,-4.665306 -0.18331,-4.665306 -0.10082,0 -0.25786,-0.0898 -0.34897,-0.19961 -0.1413,-0.17026 -0.83022,-0.19961 -4.6857,-0.19961 h -4.52003 l -0.24978,0.29941 c -0.23323,0.27957 -0.25007,0.59589 -0.2542,4.774236 -0.004,3.81902 0.0248,4.49911 0.19518,4.64049 0.10978,0.0911 0.1996,0.24815 0.1996,0.34897 0,0.15212 0.77229,0.18331 4.53851,0.18331 h 4.53851 z m -9.14542,-0.36385 c -0.0357,-0.093 -0.0491,-2.17467 -0.0298,-4.62597 l 0.0351,-4.456906 h 4.52439 4.52439 v 4.590926 4.59093 l -4.49462,0.035 c -3.53725,0.0276 -4.50844,-9.3e-4 -4.55949,-0.13402 z m 8.72144,-4.49382 v -4.260116 l -4.22499,0.0351 -4.22498,0.0351 -0.0351,4.224986 -0.0351,4.22498 h 4.26013 4.26012 z"
                 id="path1857-5"
                 inkscape:connector-curvature="0"
                 sodipodi:nodetypes="cccccsccccccsscsccccssccccccccccccccccccccc" />
              <path
                 style="fill:#66ff00;fill-opacity:1;stroke:#66ff00;stroke-width:0.33966628;stroke-linecap:round;stroke-linejoin:bevel;stroke-miterlimit:4;stroke-dasharray:none;stroke-opacity:1;paint-order:stroke markers fill"
                 d="m 12.124384,108.58503 c -0.356309,-0.0268 -0.423616,-0.0563 -0.497417,-0.21762 -0.03864,-0.0845 -0.114906,-0.20856 -0.169465,-0.2757 -0.0832,-0.10237 -0.107095,-0.22885 -0.148041,-0.78358 -0.06876,-0.93125 -0.02554,-7.954013 0.05071,-8.241082 0.03098,-0.116606 0.131487,-0.303736 0.223346,-0.415845 l 0.16703,-0.203835 4.024567,0.0016 c 4.275751,0.0017 4.940757,0.02612 5.140575,0.188769 0.06582,0.05357 0.186565,0.128093 0.26835,0.165607 0.08179,0.03751 0.16699,0.106431 0.189359,0.153148 0.05066,0.105834 0.08583,7.216518 0.04092,8.274298 -0.03179,0.74849 -0.03669,0.77686 -0.140948,0.8165 -0.05942,0.0226 -0.210863,0.16018 -0.336548,0.30576 l -0.228522,0.26469 -4.185023,-0.008 c -2.301772,-0.005 -4.281274,-0.0156 -4.398895,-0.0244 z m 7.425807,-0.49001 1.36634,-5e-5 v -4.61018 -4.610172 l -4.550528,0.01212 -4.550528,0.01212 -0.01211,4.545352 c -0.01144,4.29537 -0.0076,4.54729 0.07129,4.58061 0.188947,0.0799 1.410972,0.10893 3.790377,0.0901 1.385356,-0.0109 3.133688,-0.0199 3.885176,-0.0199 z"
                 id="path2173"
                 inkscape:connector-curvature="0" />
            </g>
          </g>
          <g
             id="g2604"
             transform="translate(-180.13817,30.390547)"
             style="fill:#66ff00;stroke:#66ff00">
            <path
               style="fill:#66ff00;fill-opacity:1;stroke:#66ff00;stroke-width:0.14686915;stroke-opacity:1"
               d="m 44.98722,122.81078 c -0.162265,-0.16226 -0.110149,-0.85917 0.07836,-1.04766 0.0969,-0.0969 0.410862,-0.17697 0.697623,-0.17784 2.105619,-0.006 4.200885,-1.7488 4.590048,-3.81701 0.152708,-0.81156 0.15316,-0.76402 -0.01732,-1.82038 -0.32687,-2.02529 -2.458304,-3.82226 -4.477129,-3.77457 -0.664093,0.0157 -0.969463,-0.18451 -0.969463,-0.6356 0,-0.66828 0.03653,-0.6723 6.127594,-0.6723 h 5.775108 l 0.172496,0.37858 c 0.265616,0.58297 0.0033,0.85402 -0.928616,0.95945 -1.09928,0.12439 -1.766055,0.43999 -2.622987,1.24155 -1.043312,0.97589 -1.482836,1.97546 -1.490209,3.38906 -0.0055,0.96159 0.05816,1.24803 0.452018,2.04799 0.718153,1.45877 2.132186,2.47585 3.700371,2.66158 0.801956,0.095 1.092305,0.40723 0.940624,1.01157 l -0.08873,0.3535 H 51.00609 c -3.256508,0 -5.964987,-0.044 -6.018836,-0.0979 z m 11.064137,-0.54728 c 0,-0.21175 -0.304366,-0.38289 -0.68098,-0.38289 -0.880893,0 -2.830978,-1.54642 -3.40862,-2.70307 -1.009505,-2.02133 -0.510392,-4.65979 1.166717,-6.16767 0.701166,-0.63039 2.021031,-1.26323 2.634653,-1.26323 0.187805,0 0.28823,-0.0998 0.28823,-0.28624 0,-0.30167 0.114641,-0.29984 -9.876948,-0.15802 -0.543503,0.008 -0.2181,0.26215 0.660916,0.51679 1.228788,0.35596 1.986176,0.80072 2.720841,1.59773 1.002242,1.0873 1.266998,1.81683 1.255773,3.46016 -0.01158,1.70262 -0.212119,2.23214 -1.267594,3.34816 -0.838555,0.88666 -1.669207,1.42402 -2.452002,1.58626 -0.806405,0.16716 -1.200589,0.34943 -1.101687,0.50947 0.05783,0.0936 1.904779,0.14714 5.075817,0.14714 4.16294,0 4.984884,-0.0337 4.984884,-0.20459 z m -5.359124,-0.34594 c -0.806902,-0.0266 -1.531124,-0.11247 -1.609388,-0.19073 -0.09183,-0.0918 0.119939,-0.41542 0.596923,-0.91219 0.406569,-0.42345 0.851435,-0.95165 0.98858,-1.17378 0.344364,-0.55776 0.597297,-0.50723 1.102725,0.2203 0.238507,0.3433 0.671278,0.85196 0.961704,1.13034 0.290437,0.27836 0.528063,0.58523 0.528063,0.6819 0,0.21646 -0.358171,0.36435 -0.783071,0.32334 -0.175146,-0.0169 -0.978636,-0.0526 -1.785536,-0.0792 z m 1.295737,-1.02635 c -0.351284,-0.38261 -0.676929,-0.81614 -0.72367,-0.96341 -0.0692,-0.21809 -0.160654,-0.14842 -0.492967,0.37557 -0.224391,0.35384 -0.591094,0.78737 -0.814902,0.96342 l -0.406931,0.32008 h 1.538572 1.538585 z m -1.398382,-6.97851 c -0.21714,-0.34316 -0.63021,-0.85169 -0.917933,-1.13007 -0.940756,-0.91018 -0.743635,-1.03599 1.623074,-1.03599 2.01187,0 2.153177,0.11767 1.28139,1.06709 -0.314078,0.34205 -0.723484,0.86974 -0.909788,1.17267 -0.186303,0.30292 -0.415961,0.55064 -0.510349,0.5505 -0.09436,-1.5e-4 -0.349264,-0.28104 -0.566394,-0.6242 z m 1.471513,-1.20961 0.489268,-0.51584 H 51.16574 49.781109 l 0.569496,0.61688 c 0.313218,0.33927 0.608004,0.77032 0.655077,0.95787 0.08422,0.33565 0.0894,0.33408 0.325877,-0.10098 0.132167,-0.24312 0.460461,-0.67415 0.729542,-0.95788 z"
               id="path1857-55"
               inkscape:connector-curvature="0"
               sodipodi:nodetypes="csccsccsscccccccccscsssccsscccccccsccsccccsccccccccccsccscssccccccccc" />
            <path
               inkscape:connector-curvature="0"
               id="path2175"
               d="m 47.735211,122.40789 c -1.493175,-0.0347 -1.789233,-0.0624 -1.728151,-0.16117 0.06494,-0.10507 0.453004,-0.25897 0.974419,-0.38642 0.916052,-0.22391 1.607718,-0.64403 2.44117,-1.48281 0.806048,-0.81117 1.148767,-1.36584 1.308487,-2.11763 0.117775,-0.55437 0.115998,-2.23005 -0.0029,-2.80131 -0.264218,-1.26874 -1.435132,-2.64003 -2.776753,-3.25193 -0.205455,-0.0937 -0.668607,-0.2679 -1.029229,-0.38708 -0.360608,-0.11918 -0.738282,-0.26949 -0.839255,-0.33402 l -0.183586,-0.11733 0.734346,-0.0334 c 1.19741,-0.0545 8.416674,-0.11613 8.849939,-0.0755 0.485006,0.0455 0.592866,0.10764 0.519843,0.29971 -0.04474,0.11767 -0.09326,0.14136 -0.357156,0.17432 -0.818943,0.10228 -2.125887,0.8166 -2.796903,1.52868 -1.001075,1.06232 -1.470087,2.37384 -1.401881,3.92013 0.06412,1.45342 0.590282,2.50339 1.7692,3.53039 0.830061,0.72311 1.577566,1.12769 2.213289,1.19793 0.42858,0.0473 0.730277,0.31431 0.474784,0.4201 -0.26366,0.1092 -4.910629,0.15323 -8.169596,0.0775 z m 5.338386,-0.47535 c 0.08003,-0.0366 0.159778,-0.12331 0.177212,-0.1928 0.03904,-0.15551 -0.05409,-0.28822 -0.671648,-0.95719 -0.253011,-0.27407 -0.62036,-0.71019 -0.816343,-0.96919 -0.551464,-0.72881 -0.712564,-0.73429 -1.233803,-0.0419 -0.190651,0.25322 -0.572569,0.70774 -0.848698,1.01004 -0.507786,0.5559 -0.709804,0.864 -0.623268,0.95054 0.09298,0.093 0.678814,0.16039 2.000328,0.23015 1.460379,0.0771 1.793375,0.0722 2.01622,-0.0295 z m -1.68456,-7.53617 c 0.07308,-0.0794 0.257109,-0.32665 0.408956,-0.54958 0.151849,-0.22294 0.475621,-0.636 0.719483,-0.91794 0.68698,-0.79419 0.730219,-0.95424 0.300582,-1.11255 -0.275937,-0.10168 -2.840199,-0.11085 -3.282289,-0.0117 -0.559631,0.12546 -0.541405,0.28123 0.116114,0.99268 0.259489,0.28077 0.60535,0.69938 0.768566,0.93023 0.364295,0.51529 0.639498,0.81314 0.751295,0.81314 0.04644,0 0.144225,-0.0649 0.217293,-0.14424 z"
               style="fill:#66ff00;fill-opacity:1;stroke:#66ff00;stroke-width:0.37488806;stroke-linecap:round;stroke-linejoin:bevel;stroke-miterlimit:4;stroke-dasharray:none;stroke-opacity:1;paint-order:stroke markers fill" />
          </g>
          <g
             id="g2608"
             transform="translate(-152.90052,29.075258)"
             style="fill:#66ff00;stroke:#66ff00">
            <path
               sodipodi:nodetypes="ccccccccccscccccccccccccsccccccscscscccccccccccccccccccc"
               inkscape:connector-curvature="0"
               id="path1857-7"
               d="m 65.974339,124.05903 c -1.711831,-0.42983 -3.159967,-1.64404 -3.993997,-3.34878 -0.37487,-0.76619 -0.409151,-0.97704 -0.410542,-2.525 -0.0011,-1.52925 0.03587,-1.76891 0.394416,-2.53389 0.513474,-1.09567 1.74182,-2.38543 2.761744,-2.89978 0.444271,-0.22408 1.237364,-0.46455 1.762425,-0.5344 0.525061,-0.0699 3.664391,-0.0939 6.976281,-0.0536 l 6.021645,0.0734 0.84489,0.39595 c 1.181936,0.55389 2.365196,1.71945 2.941833,2.89779 0.448685,0.91688 0.472471,1.05049 0.472471,2.65447 0,1.52747 -0.03786,1.76979 -0.39594,2.53388 -0.762533,1.62712 -2.643372,3.15887 -4.188171,3.4108 -0.340269,0.0555 -3.248278,0.11203 -6.46225,0.12564 -4.779641,0.0202 -6.004026,-0.0155 -6.724805,-0.19654 z m 14.261635,-0.80984 c 1.644539,-0.79036 2.685876,-2.15146 3.075436,-4.01983 0.191668,-0.91919 0.191966,-1.16757 0.0022,-2.07597 -0.399725,-1.91714 -1.454041,-3.27962 -3.166744,-4.0924 l -0.807783,-0.38333 -6.450861,-0.0339 c -5.491458,-0.0289 -6.55083,-1.5e-4 -7.123151,0.19287 -1.566463,0.5285 -2.686052,1.51971 -3.367231,2.98113 -0.449733,0.96488 -0.62096,3.06774 -0.315943,3.88004 0.524829,1.3977 1.100715,2.22395 2.059893,2.95542 1.422795,1.08503 1.349819,1.0758 8.588173,1.08725 l 6.462251,0.01 1.043401,-0.50146 z m -13.689711,-0.0111 c -1.551343,-0.34672 -3.002702,-1.51912 -3.710127,-2.99701 -0.324177,-0.67727 -0.386646,-1.01001 -0.386646,-2.05926 0,-1.11799 0.05143,-1.35607 0.482711,-2.23203 0.726343,-1.4754 2.09402,-2.54547 3.605166,-2.82069 0.666092,-0.1213 11.840878,-0.14011 11.960861,-0.0201 0.04536,0.0453 0.237328,0.0824 0.426689,0.0824 1.078795,0 2.757031,1.33726 3.453374,2.75178 1.387256,2.8179 -0.04348,6.17205 -3.052622,7.15629 -0.615763,0.2014 -1.618989,0.24361 -6.395478,0.2691 -3.67578,0.0196 -5.917551,-0.0262 -6.383928,-0.13042 z m 13.23968,-0.81756 c 0.856059,-0.45188 1.810776,-1.43132 2.289184,-2.34845 0.466875,-0.89502 0.481543,-2.6945 0.02992,-3.67542 -0.425696,-0.92472 -1.417665,-1.97155 -2.319141,-2.4474 l -0.740237,-0.39074 h -6.388811 -6.388807 l -0.740248,0.39075 c -0.905835,0.47816 -1.897781,1.52768 -2.313135,2.4474 -0.428156,0.94811 -0.429791,2.62482 -0.0033,3.56864 0.361824,0.80099 1.191439,1.75834 1.906976,2.20057 1.107259,0.68432 1.372389,0.70719 7.832406,0.6754 l 6.095074,-0.0301 0.740248,-0.39075 z"
               style="fill:#66ff00;fill-opacity:1;stroke:#66ff00;stroke-width:0.14686915;stroke-opacity:1" />
            <path
               inkscape:connector-curvature="0"
               id="path2179"
               d="m 67.588778,123.66552 c -1.341268,-0.0522 -2.01998,-0.16652 -2.542408,-0.42832 -0.312214,-0.15645 -1.145771,-0.79259 -1.491207,-1.13803 -0.547117,-0.54711 -0.99191,-1.26567 -1.383185,-2.23454 l -0.169471,-0.41963 0.0022,-1.0753 c 0.0021,-0.97336 0.01527,-1.1307 0.140127,-1.65986 0.420325,-1.78146 1.758274,-3.21102 3.576514,-3.82137 0.66658,-0.22377 1.791656,-0.25347 8.071253,-0.21313 l 5.548173,0.0356 0.553638,0.25852 c 1.960968,0.91569 3.021172,2.26954 3.427941,4.37741 0.134546,0.69714 0.134546,0.98125 0,1.67839 -0.327945,1.69938 -1.106557,2.93012 -2.405276,3.80201 -0.184689,0.12399 -0.647958,0.37554 -1.029509,0.55902 l -0.693721,0.33359 -5.31734,-0.008 c -2.924546,-0.004 -5.754025,-0.0254 -6.287733,-0.046 z m 8.497422,-0.31284 c 1.426335,-0.0309 2.3993,-0.075 2.70135,-0.1224 0.622784,-0.0978 1.214989,-0.33344 1.790408,-0.71252 2.793511,-1.84034 3.151783,-5.66766 0.751985,-8.03317 -0.552139,-0.54425 -1.210495,-0.99247 -1.729809,-1.17768 -0.220994,-0.0789 -0.501148,-0.12635 -1.389574,-0.23574 -0.45334,-0.0559 -9.434596,-0.0587 -10.805369,-0.004 -0.925892,0.0373 -1.031536,0.0519 -1.488798,0.20717 -1.375356,0.46671 -2.456607,1.4648 -3.103374,2.86472 -0.313566,0.67871 -0.363105,0.95798 -0.363105,2.04663 0,1.06518 0.05362,1.38554 0.33326,1.99078 0.693487,1.50095 2.21091,2.75099 3.730315,3.07297 0.658871,0.13962 5.482978,0.19143 9.572711,0.1028 z"
               style="fill:#66ff00;fill-opacity:1;stroke:#66ff00;stroke-width:0.37488806;stroke-linecap:round;stroke-linejoin:bevel;stroke-miterlimit:4;stroke-dasharray:none;stroke-opacity:1;paint-order:stroke markers fill" />
          </g>
          <g
             id="g2612"
             transform="translate(-206.74009,39.490168)"
             style="fill:#66ff00;stroke:#66ff00">
            <path
               sodipodi:nodetypes="cccccsccssccccscccccccccscscsscscscscccccsccscccccccccsccccsccccccccccccc"
               inkscape:connector-curvature="0"
               id="path1857-50"
               d="m 26.30553,143.32416 c -0.173556,-0.17354 -0.214415,-1.17945 -0.236389,-5.82028 -0.02406,-5.08836 -0.0033,-5.63605 0.222097,-5.88526 0.284422,-0.31428 0.832649,-0.36205 1.046347,-0.0912 0.07969,0.101 0.186369,0.55431 0.237139,1.0074 0.127423,1.13725 0.435508,1.79862 1.24115,2.66439 0.986517,1.06014 1.85508,1.42869 3.371282,1.43047 1.37601,8e-4 2.093766,-0.25627 3.09261,-1.11124 0.787971,-0.67447 1.495451,-2.0939 1.495451,-3.00035 0,-0.7552 0.302523,-1.17425 0.847726,-1.17425 0.682261,0 0.703474,0.20488 0.564198,5.45042 -0.09657,3.63934 -0.08587,5.06994 0.0415,5.54794 0.148027,0.55539 0.137542,0.6818 -0.07616,0.91793 -0.579021,0.63982 -1.280795,0.12817 -1.436758,-1.04746 -0.18329,-1.38179 -1.114588,-2.7276 -2.41473,-3.48953 -0.544011,-0.31882 -0.892791,-0.39951 -1.944072,-0.44977 -1.133141,-0.0542 -1.374321,-0.0186 -2.088146,0.30822 -1.662928,0.76131 -2.804126,2.44093 -2.75127,4.04936 0.0088,0.27074 -0.06048,0.58467 -0.154275,0.69764 -0.220684,0.2659 -0.789727,0.26352 -1.057683,-0.004 z m 0.852826,-1.65832 c 0.13432,-0.46205 0.364871,-1.07339 0.512347,-1.35855 0.374804,-0.72475 1.400567,-1.66696 2.306932,-2.11904 0.656512,-0.32745 0.957378,-0.38215 2.101977,-0.38215 1.119743,0 1.461259,0.0593 2.111457,0.36694 1.528607,0.72315 3.024754,2.74969 3.024754,4.09704 0,0.16605 0.09117,0.2398 0.257018,0.20788 0.238861,-0.0461 0.257017,-0.40747 0.257017,-5.11448 0,-4.40429 -0.02869,-5.06497 -0.220298,-5.06497 -0.151911,0 -0.243949,0.20519 -0.296452,0.6609 -0.195376,1.6959 -1.813989,3.49245 -3.647989,4.04906 -0.887691,0.26941 -1.608559,0.26351 -2.711149,-0.0221 -1.810424,-0.46913 -3.112454,-1.78121 -3.631666,-3.65969 -0.157641,-0.57033 -0.329001,-0.89797 -0.485747,-0.92871 -0.221059,-0.0434 -0.242184,0.37506 -0.242184,4.79796 0,2.66499 0.04006,4.94998 0.08918,5.07775 0.161162,0.41997 0.327059,0.24458 0.574838,-0.60775 z m 9.003141,-2.67901 c -0.297159,-0.31699 -0.809362,-0.7462 -1.138242,-0.95382 -0.328867,-0.2076 -0.597948,-0.47443 -0.597948,-0.59294 0,-0.11852 0.247845,-0.3434 0.550765,-0.49976 0.30291,-0.15635 0.812012,-0.55425 1.131321,-0.8842 0.31931,-0.32996 0.7012,-0.59992 0.848643,-0.59992 0.248497,0 0.265085,0.14737 0.227218,2.01763 -0.04702,2.32356 -0.137036,2.4568 -1.021757,1.51301 z m 0.61372,-1.50195 v -1.3493 l -0.403897,0.37967 c -0.222141,0.20883 -0.622958,0.51057 -0.890716,0.67054 l -0.486829,0.29086 0.489335,0.30244 c 0.269136,0.16631 0.648432,0.47176 0.842881,0.67876 0.194461,0.20698 0.37508,0.37633 0.401392,0.37633 0.02627,0 0.04779,-0.60718 0.04779,-1.3493 z m -9.59545,1.83887 c -0.163512,-0.16351 -0.113548,-3.84056 0.05353,-3.94386 0.08333,-0.0516 0.544376,0.27011 1.024561,0.71467 0.480173,0.44456 1.006823,0.85074 1.170314,0.90264 0.486377,0.15437 0.347664,0.61295 -0.326926,1.08092 -0.343304,0.23815 -0.818312,0.63787 -1.055563,0.88826 -0.424437,0.44797 -0.672857,0.55049 -0.86597,0.35737 z m 1.98269,-1.81139 c 0.07968,0 -0.174065,-0.24271 -0.563944,-0.53935 -0.389892,-0.29664 -0.789396,-0.64363 -0.887802,-0.77106 -0.144517,-0.18717 -0.179814,0.0302 -0.183588,1.13023 l -0.0044,1.36196 0.747533,-0.5909 c 0.411148,-0.32498 0.812761,-0.59088 0.892469,-0.59088 z"
               style="fill:#66ff00;fill-opacity:1;stroke:#66ff00;stroke-width:0.14686915;stroke-opacity:1" />
            <path
               inkscape:connector-curvature="0"
               id="path2181"
               d="m 26.678242,142.38567 c -0.05633,-0.0679 -0.08626,-0.35168 -0.118053,-1.12002 -0.05,-1.20792 -0.01623,-8.46328 0.04036,-8.67415 0.09992,-0.37233 0.351869,-0.0486 0.612724,0.78717 0.212255,0.68012 0.404345,1.09339 0.748915,1.61124 0.295721,0.44445 0.829957,0.98969 1.2588,1.28474 0.422734,0.29085 1.191638,0.62248 1.788999,0.77159 0.78578,0.19617 1.781611,0.20767 2.404234,0.0278 1.446866,-0.41802 2.73767,-1.48561 3.407364,-2.81817 0.228278,-0.45425 0.327709,-0.76604 0.424716,-1.33187 0.131918,-0.76944 0.334025,-0.77949 0.400526,-0.0199 0.05435,0.62051 0.05351,8.4833 -0.0015,9.00261 -0.04787,0.45664 -0.146839,0.62674 -0.306266,0.52647 -0.06311,-0.0396 -0.101678,-0.15942 -0.126411,-0.39251 -0.09649,-0.90929 -0.714092,-1.97902 -1.679595,-2.90921 -0.739868,-0.71279 -1.402894,-1.10357 -2.136094,-1.259 -0.468644,-0.0994 -2.163339,-0.0991 -2.632733,4.2e-4 -0.605262,0.12829 -1.37089,0.56646 -2.065861,1.18226 -0.794253,0.70378 -1.09701,1.1939 -1.518289,2.45797 -0.135897,0.40779 -0.287555,0.7914 -0.337007,0.85248 -0.08467,0.10454 -0.09433,0.10572 -0.165388,0.0201 z m 10.301741,-2.90242 c 0.14073,-0.1555 0.188448,-0.61688 0.223212,-2.15784 0.03317,-1.47107 0.0097,-1.75466 -0.153449,-1.8576 -0.138057,-0.0871 -0.469144,0.11576 -1.038204,0.63603 -0.271531,0.24826 -0.722258,0.59968 -1.001603,0.78093 -0.503629,0.32678 -0.658487,0.48793 -0.588225,0.6122 0.08656,0.15313 0.287981,0.3355 0.751705,0.68065 0.272148,0.20256 0.70882,0.57398 0.970379,0.8254 0.429769,0.41307 0.627029,0.57172 0.71659,0.57629 0.01716,7.8e-4 0.07098,-0.0423 0.119595,-0.0961 z m -9.242358,-0.20099 c 0.09598,-0.0777 0.339738,-0.29729 0.541683,-0.48795 0.201945,-0.19069 0.549922,-0.48312 0.77331,-0.64989 0.223373,-0.16676 0.454016,-0.36408 0.512559,-0.43849 0.225092,-0.28616 0.200079,-0.59032 -0.05731,-0.69693 -0.182911,-0.0758 -0.773178,-0.52746 -1.392349,-1.06548 -0.431854,-0.37524 -0.841502,-0.64637 -0.895314,-0.59256 -0.06706,0.067 -0.11823,0.61293 -0.152539,1.62686 -0.04285,1.26653 0.007,2.25637 0.119126,2.36856 0.11986,0.11986 0.357832,0.0922 0.550833,-0.0641 z"
               style="fill:#66ff00;fill-opacity:1;stroke:#66ff00;stroke-width:0.37488806;stroke-linecap:round;stroke-linejoin:bevel;stroke-miterlimit:4;stroke-dasharray:none;stroke-opacity:1;paint-order:stroke markers fill" />
          </g>
          <g
             id="g2616"
             transform="translate(-181.69515,38.657398)"
             style="fill:#66ff00;stroke:#66ff00">
            <path
               sodipodi:nodetypes="ccccccccccsscccsccccccccccccccscccccccsccccccccccccccccscccsccscscccccccccsccccscccccscccscscc"
               inkscape:connector-curvature="0"
               id="path1857-2"
               d="m 46.694125,144.28561 c -0.11271,-0.0514 -0.18297,-0.37667 -0.182,-0.84254 0.0033,-1.81007 1.077925,-3.80516 2.550045,-4.7365 l 0.647394,-0.40956 -0.648167,-0.42933 c -1.35291,-0.89615 -2.383596,-2.65927 -2.515565,-4.30325 -0.09205,-1.14721 0.06114,-1.38199 0.900626,-1.37956 1.603891,0.004 3.251112,0.79367 4.465342,2.13904 0.744244,0.82461 0.897127,0.9346 0.971848,0.6992 0.122819,-0.38699 1.515925,-1.72287 2.177016,-2.08764 0.62946,-0.34729 2.090609,-0.75236 2.71391,-0.75236 0.612319,0 0.779231,0.24647 0.779231,1.15058 0,1.75383 -0.89066,3.3671 -2.524879,4.57335 l -0.542147,0.40017 0.639184,0.45054 c 1.46435,1.03218 2.427842,2.82181 2.427842,4.5096 0,1.10897 -0.123548,1.19715 -1.44785,1.03321 -1.49608,-0.18521 -3.370023,-1.36882 -4.13315,-2.61053 l -0.249988,-0.40677 -0.519454,0.66675 c -1.13824,1.46097 -2.536711,2.23586 -4.23702,2.3477 -0.598743,0.0395 -1.171241,0.034 -1.272218,-0.0121 z m 2.187988,-0.56332 c 1.362533,-0.4135 2.396475,-1.17822 3.228937,-2.38816 0.475086,-0.69051 0.788612,-0.80061 0.938163,-0.32943 0.142696,0.44959 1.669825,1.92698 2.361412,2.28449 0.331086,0.17115 0.938967,0.39755 1.350835,0.50312 0.723802,0.18549 0.759098,0.17999 1.055352,-0.16434 0.834615,-0.97004 -0.459313,-3.56701 -2.38397,-4.7847 -0.302921,-0.19166 -0.550766,-0.43564 -0.550766,-0.54219 0,-0.10652 0.336041,-0.41147 0.746749,-0.67759 1.774014,-1.14953 3.060746,-3.8535 2.188958,-4.59995 -0.942765,-0.80723 -3.711605,0.62497 -4.625718,2.39268 -0.325348,0.62914 -0.684138,0.55153 -1.211306,-0.26203 -0.789584,-1.21855 -2.384798,-2.23609 -3.790675,-2.41798 -0.832892,-0.10772 -1.265144,0.32797 -1.141552,1.1507 0.164065,1.09204 0.877802,2.33603 1.839794,3.20658 0.496861,0.44964 0.991262,0.81752 1.098662,0.81752 0.429426,0 0.17467,0.58755 -0.437317,1.00861 -1.764797,1.21421 -3.019279,3.71704 -2.335121,4.6588 0.291673,0.40147 0.702127,0.43689 1.667563,0.14387 z m -1.265475,-0.51658 c -0.158083,-0.25578 0.04525,-1.14664 0.435683,-1.9086 0.711121,-1.38792 2.590307,-2.71662 3.710811,-2.62379 0.481388,0.0398 0.554629,0.0969 0.596691,0.46468 0.11857,1.0366 -1.34845,3.0596 -2.736182,3.77316 -0.750789,0.38604 -1.850688,0.54747 -2.007003,0.29455 z m 1.80708,-0.75285 c 0.541936,-0.2708 1.107889,-0.70061 1.413238,-1.07323 0.501927,-0.61254 1.09822,-1.75171 1.104523,-2.11008 0.0099,-0.56813 -2.103722,0.4251 -2.854509,1.34135 -0.501917,0.61253 -1.098222,1.75171 -1.104513,2.11007 -0.0055,0.30157 0.482988,0.21073 1.441261,-0.26811 z m 6.385219,0.4439 c -1.469139,-0.71258 -2.689285,-2.30772 -2.689285,-3.51583 0,-0.72691 0.228662,-0.85255 1.055231,-0.57973 1.433148,0.47296 3.039278,2.13733 3.322013,3.44245 0.256211,1.18268 -0.217914,1.36612 -1.687959,0.65311 z m 1.42305,-0.0614 c 0,-0.0381 -0.157939,-0.42638 -0.350975,-0.86287 -0.574066,-1.29806 -1.74619,-2.4144 -2.874939,-2.73813 -0.418985,-0.12015 -0.445816,-0.10375 -0.445816,0.27374 0,0.47598 0.643256,1.53741 1.339014,2.2095 0.660495,0.63804 2.332716,1.43929 2.332716,1.11776 z m -6.251,-5.05178 c -0.900505,-0.30737 -1.434461,-0.67489 -2.222389,-1.52971 -0.750469,-0.81415 -1.120659,-1.5848 -1.135217,-2.36324 l -0.01137,-0.60595 0.707215,0.0246 c 1.349642,0.047 2.997371,1.35635 3.716847,2.95368 0.386526,0.85814 0.439326,1.35233 0.172939,1.61872 -0.221115,0.22111 -0.31473,0.21363 -1.228071,-0.0981 z m 0.963714,-0.44783 c 0,-0.0741 -0.128978,-0.43558 -0.286618,-0.80334 -0.541065,-1.26227 -2.134448,-2.6522 -3.164813,-2.76073 -0.386989,-0.0407 -0.435971,-0.004 -0.40254,0.3014 0.149517,1.36634 2.208659,3.3457 3.523514,3.38698 0.181745,0.005 0.330457,-0.0502 0.330457,-0.12431 z m 1.106002,0.4357 c -0.165014,-0.267 0.05397,-1.18256 0.463652,-1.93832 0.684357,-1.26255 2.238614,-2.41444 3.379228,-2.5044 0.546991,-0.0431 0.55965,-0.0328 0.603687,0.49662 0.02715,0.32679 -0.08035,0.81573 -0.271773,1.236 -0.379186,0.83235 -1.607709,2.09509 -2.400945,2.4678 -0.739212,0.34734 -1.633437,0.46947 -1.773849,0.2423 z m 1.505805,-0.65297 c 0.807331,-0.41019 1.687262,-1.22514 2.045666,-1.89463 0.334851,-0.62548 0.60797,-1.39803 0.523957,-1.48204 -0.129264,-0.12926 -1.252197,0.35187 -1.856338,0.79537 -0.771019,0.56602 -1.709536,1.94258 -1.709536,2.50747 0,0.51676 0.108604,0.52482 0.996251,0.0738 z"
               style="fill:#66ff00;fill-opacity:1;stroke:#66ff00;stroke-width:0.14686915;stroke-opacity:1" />
            <path
               inkscape:connector-curvature="0"
               id="path2183"
               d="m 47.450182,143.76405 c -0.539876,-0.36688 -0.519637,-1.26115 0.05464,-2.41337 0.436011,-0.87483 1.184706,-1.76063 2.003486,-2.37036 0.419048,-0.31206 0.738209,-0.71091 0.71164,-0.88934 -0.0092,-0.062 -0.120771,-0.15636 -0.285161,-0.24113 -0.330602,-0.17046 -1.004071,-0.72612 -1.405156,-1.15933 -0.849859,-0.91796 -1.459982,-2.19507 -1.464021,-3.06455 -0.0017,-0.38668 0.109036,-0.59747 0.400219,-0.76113 0.182793,-0.10274 0.259356,-0.11344 0.634166,-0.0886 1.322513,0.0875 2.994691,1.12154 3.849822,2.38076 0.115836,0.17058 0.307647,0.39782 0.426243,0.50497 0.369274,0.33361 0.550819,0.25728 0.933487,-0.39247 0.610021,-1.03578 1.964683,-2.05024 3.138829,-2.35054 0.53685,-0.13729 0.836184,-0.1337 1.12766,0.0136 0.352442,0.17805 0.470496,0.39248 0.470496,0.8546 0,1.20033 -1.080413,2.87195 -2.495703,3.86136 -0.396283,0.27704 -0.703944,0.57144 -0.703944,0.6736 0,0.0701 0.301258,0.35313 0.568736,0.53439 1.440918,0.97652 2.52822,2.5677 2.61712,3.82996 0.02569,0.36473 0.01468,0.43233 -0.11325,0.69375 -0.20387,0.4167 -0.354455,0.52066 -0.696586,0.4809 -0.35419,-0.0412 -1.271227,-0.34248 -1.699159,-0.55832 -0.491234,-0.24775 -0.884328,-0.56418 -1.62593,-1.3089 -0.482861,-0.48489 -0.698025,-0.7425 -0.799746,-0.95755 -0.08203,-0.17338 -0.183645,-0.30831 -0.24746,-0.32857 -0.173511,-0.0551 -0.414289,0.15218 -0.839577,0.72262 -0.920826,1.2351 -2.02402,1.9867 -3.452205,2.35196 -0.535866,0.13706 -0.888719,0.13126 -1.108641,-0.0182 z m 1.390807,-0.5386 c 0.173086,-0.0445 0.486577,-0.16208 0.69663,-0.26116 1.377397,-0.6496 2.84396,-2.57141 2.84396,-3.72678 0,-0.38604 -0.124429,-0.5301 -0.498225,-0.57679 -1.182649,-0.14777 -3.122438,1.18588 -3.852891,2.64894 -0.307678,0.61626 -0.441489,1.07348 -0.445161,1.52105 -0.0029,0.36492 0.0056,0.39582 0.127938,0.46168 0.156518,0.0842 0.655668,0.0546 1.127749,-0.0669 z m 8.615447,-0.0543 c 0.142743,-0.16222 0.159118,-0.57233 0.04062,-1.01759 -0.38208,-1.43576 -2.178819,-3.13969 -3.654295,-3.46557 -0.560482,-0.12378 -0.727341,0.0356 -0.726136,0.69367 0.0022,1.17925 1.105705,2.68541 2.526282,3.44797 0.973919,0.52281 1.557312,0.63267 1.813525,0.34152 z m -5.253201,-5.28966 c 0.158985,-0.15899 0.178344,-0.20923 0.178344,-0.4629 0,-0.34246 -0.174335,-0.8792 -0.468117,-1.44118 -0.657547,-1.25788 -1.889721,-2.30535 -3.070387,-2.61013 -0.171941,-0.0444 -0.520108,-0.0807 -0.773678,-0.0807 h -0.461066 v 0.45139 c 0,0.78341 0.206733,1.3406 0.77939,2.10056 0.342338,0.45433 1.002735,1.11048 1.37637,1.36755 0.372078,0.256 0.815227,0.46515 1.412206,0.66654 0.696366,0.2349 0.800011,0.23579 1.026938,0.009 z m 1.921548,-0.0803 c 0.765437,-0.19576 1.349757,-0.57718 2.122509,-1.3855 0.896563,-0.93782 1.244907,-1.63004 1.247198,-2.47844 0.0017,-0.63578 -0.0306,-0.67486 -0.522105,-0.63142 -0.447466,0.0395 -0.743114,0.12683 -1.185851,0.35007 -1.014998,0.51178 -1.879367,1.35828 -2.357162,2.30845 -0.402965,0.80135 -0.567972,1.69845 -0.342763,1.86355 0.142185,0.10421 0.569221,0.0932 1.038174,-0.0268 z"
               style="fill:#66ff00;fill-opacity:1;stroke:#66ff00;stroke-width:0.37488806;stroke-linecap:round;stroke-linejoin:bevel;stroke-miterlimit:4;stroke-dasharray:none;stroke-opacity:1;paint-order:stroke markers fill" />
          </g>
          <g
             id="g2620"
             transform="translate(-155.12768,39.845376)"
             style="fill:#66ff00;stroke:#66ff00">
            <path
               sodipodi:nodetypes="ccsccccccccccccccsccsccccssccccsccccscsccsccccccscscscsccccccsccsccsscscscccccccscccsscc"
               inkscape:connector-curvature="0"
               id="path1857-3"
               d="m 68.509444,143.05374 c -4.77762,-0.81725 -6.85217,-6.43532 -3.699068,-10.01741 1.117944,-1.27007 2.901351,-2.11209 4.473344,-2.11209 0.709191,0 0.926464,0.22941 1.005687,1.06199 0.156526,1.64484 1.155127,3.13716 2.610306,3.90091 0.641268,0.33655 0.931354,0.394 1.998537,0.39575 1.030355,0.003 1.37664,-0.0608 1.982734,-0.35815 1.503664,-0.7376 2.709267,-2.48334 2.72175,-3.94121 0.0088,-1.08401 0.602827,-1.2905 2.383177,-0.82917 4.488585,1.16313 6.000195,6.90715 2.689286,10.21913 -0.943528,0.94386 -1.903488,1.43024 -3.307311,1.67574 -1.459781,0.25527 -1.769765,0.0925 -1.769942,-0.9296 -1.43e-4,-0.91956 -0.654871,-2.27187 -1.488193,-3.07386 -0.944245,-0.90872 -1.874053,-1.27747 -3.183577,-1.26259 -2.501724,0.0285 -4.391239,1.83776 -4.639328,4.44238 -0.05485,0.57595 -0.381348,1.07496 -0.667239,1.01985 -0.04514,-0.009 -0.544718,-0.0949 -1.110163,-0.19167 z m 1.000335,-0.73275 c 0.201546,-0.20155 0.394957,-0.61657 0.451168,-0.96813 0.221446,-1.38486 1.340383,-2.80607 2.772814,-3.52187 0.796293,-0.3979 1.030973,-0.44451 2.237918,-0.44451 1.210523,0 1.440379,0.0461 2.248746,0.44993 1.430004,0.71458 2.493044,2.11513 2.738373,3.60779 0.105512,0.64168 0.619912,1.23078 1.072361,1.22797 0.358569,-0.003 1.533419,-0.37059 2.074737,-0.65051 1.642078,-0.84916 2.954405,-3.04842 2.954405,-4.95117 0,-1.60538 -0.848124,-3.39536 -2.076503,-4.38253 -0.67108,-0.53929 -1.884527,-1.09735 -2.643891,-1.21593 -0.449612,-0.0701 -0.59243,-0.0211 -0.898022,0.30854 -0.199868,0.21562 -0.441632,0.71486 -0.537257,1.10942 -0.09558,0.39455 -0.296596,0.95795 -0.44661,1.25199 -0.352034,0.69005 -1.597062,1.85284 -2.312367,2.15963 -0.307126,0.13173 -0.673166,0.29754 -0.813435,0.36845 -0.454391,0.22973 -2.34128,0.14668 -3.085038,-0.13579 -1.631107,-0.61948 -3.066363,-2.22449 -3.283383,-3.67173 -0.133602,-0.89088 -0.701553,-1.49521 -1.317625,-1.40201 -3.458782,0.52328 -5.69169,3.95143 -4.6434,7.129 0.546274,1.65586 1.437618,2.72112 2.891108,3.45518 1.401273,0.7077 2.109668,0.78252 2.615901,0.27628 z m -2.209653,-0.60098 c -0.994452,-0.45196 -2.085764,-1.55137 -2.582769,-2.60193 -0.332234,-0.7023 -0.393688,-1.02989 -0.393688,-2.09878 0,-1.06889 0.06148,-1.39647 0.393688,-2.09878 0.715592,-1.51262 2.230304,-2.7236 3.65013,-2.91822 0.761848,-0.10441 1.083675,0.15197 1.09193,0.86994 0.0022,0.22324 0.06137,0.52065 0.130568,0.6609 0.522279,1.05798 0.727434,1.3658 1.325901,1.98939 0.372795,0.38846 0.892603,0.83996 1.155127,1.00335 0.262537,0.16339 0.477327,0.38022 0.477327,0.48183 0,0.10165 -0.392772,0.48977 -0.872813,0.86256 -0.885075,0.68733 -1.917704,2.02256 -1.917704,2.47967 0,0.13768 -0.06611,0.29117 -0.146868,0.34109 -0.08079,0.0499 -0.146869,0.25644 -0.146869,0.45893 0,1.00317 -0.766605,1.20512 -2.16396,0.57005 z m 1.853578,-1.08079 c 0.358701,-1.18094 1.229573,-2.43179 2.156522,-3.09748 l 0.64458,-0.46291 -0.768029,-0.62307 c -0.999286,-0.81065 -1.789785,-1.99559 -2.106932,-3.15819 -0.251487,-0.92193 -0.258497,-0.93031 -0.702424,-0.84153 -1.341995,0.26839 -2.883349,1.62639 -3.356845,2.95747 -0.14177,0.39851 -0.257757,1.12113 -0.257757,1.60579 0,1.21137 0.383147,2.18531 1.221029,3.10372 0.702403,0.76992 1.940142,1.50698 2.548002,1.5173 0.264455,0.004 0.366139,-0.15921 0.621854,-1.0011 z m 11.509583,1.26348 c -0.08013,-0.10098 -0.192948,-0.44794 -0.250682,-0.77106 -0.231987,-1.2983 -1.583511,-3.12879 -2.687128,-3.63941 -0.495405,-0.22922 -0.400575,-0.60469 0.270096,-1.06947 1.244101,-0.86216 2.221898,-2.3047 2.425584,-3.57843 0.123008,-0.76925 0.357056,-0.95222 1.071832,-0.83792 1.336024,0.21365 2.915522,1.49626 3.58467,2.91092 0.334332,0.70679 0.395157,1.03138 0.395157,2.10859 0,1.11274 -0.05574,1.39004 -0.442362,2.20011 -0.499146,1.04588 -1.514634,2.05574 -2.562427,2.54826 -0.740314,0.348 -1.582898,0.40794 -1.80474,0.12841 z m 1.735196,-0.6292 c 0.955645,-0.48427 1.750527,-1.29114 2.240368,-2.27411 0.507072,-1.01755 0.553615,-2.68338 0.1043,-3.73165 -0.425806,-0.99337 -1.47053,-2.03319 -2.512705,-2.50089 -0.95324,-0.42779 -1.31054,-0.4113 -1.31054,0.0605 0,0.97886 -1.198844,2.9198 -2.285437,3.70013 l -0.645297,0.46342 0.944586,0.86554 c 1.01759,0.93243 1.986148,2.57504 1.986148,3.36837 0,0.35249 0.06048,0.42088 0.372056,0.42088 0.204637,0 0.702579,-0.16749 1.106543,-0.37219 z"
               style="fill:#66ff00;fill-opacity:1;stroke:#66ff00;stroke-width:0.14686915;stroke-opacity:1" />
            <path
               inkscape:connector-curvature="0"
               id="path2185"
               d="m 68.196244,142.54548 c -1.226476,-0.33114 -2.520085,-1.17814 -3.2298,-2.11475 -0.542976,-0.71655 -1.035355,-1.91849 -1.153922,-2.81683 -0.277583,-2.10316 0.839343,-4.25519 2.813131,-5.42018 0.604338,-0.35669 1.630718,-0.69485 2.120556,-0.69865 0.595804,-0.004 0.996904,0.47178 1.205796,1.43218 0.258886,1.19014 1.069898,2.29532 2.265339,3.08701 0.937187,0.62066 1.690743,0.80726 3.13877,0.77725 l 0.813024,-0.0169 0.655668,-0.30282 c 0.732583,-0.33833 1.198202,-0.66297 1.785047,-1.24456 0.731909,-0.72536 0.994759,-1.17871 1.28888,-2.22308 0.224797,-0.79817 0.5852,-1.36668 0.955721,-1.50755 0.269432,-0.10244 1.285414,0.16998 2.028704,0.54397 1.76666,0.88891 2.911108,2.56324 3.11928,4.56357 0.157121,1.50964 -0.538613,3.29073 -1.763868,4.51558 -0.687393,0.68715 -1.262253,1.01052 -2.398182,1.349 -0.806607,0.24036 -1.099933,0.20275 -1.439995,-0.18455 -0.238118,-0.27119 -0.304591,-0.42379 -0.475708,-1.09199 -0.250221,-0.97709 -0.640438,-1.6681 -1.342091,-2.37662 -0.584128,-0.58983 -1.234846,-1.00742 -2.019817,-1.2962 -0.406123,-0.14941 -2.355562,-0.19465 -2.9019,-0.0674 -0.771386,0.17974 -1.628132,0.68522 -2.319094,1.36828 -0.7034,0.69536 -1.184073,1.52745 -1.363532,2.3604 -0.2557,1.18687 -0.825258,1.62307 -1.782007,1.36475 z m 0.863692,-0.53869 c 0.243451,-0.12282 0.369523,-0.35894 0.424218,-0.79455 0.03075,-0.24489 0.0884,-0.42491 0.178651,-0.55791 0.07328,-0.108 0.133255,-0.25286 0.133255,-0.32192 0,-0.43545 0.926714,-1.62591 1.895669,-2.43519 0.595878,-0.49769 0.884357,-0.79403 0.884357,-0.90848 0,-0.0806 -0.237193,-0.29594 -0.78475,-0.71239 -0.459481,-0.34948 -1.233789,-1.14739 -1.51409,-1.56027 -0.112692,-0.16601 -0.326431,-0.54406 -0.474989,-0.84013 -0.229982,-0.45839 -0.276584,-0.60255 -0.313948,-0.97106 -0.07434,-0.73337 -0.255478,-0.92971 -0.857774,-0.92971 -1.388634,0 -3.125391,1.28586 -3.91233,2.8966 -0.355848,0.72839 -0.400468,0.96666 -0.400468,2.13892 0,1.12173 0.04195,1.37515 0.334377,2.02008 0.478147,1.0545 1.527439,2.14883 2.542907,2.652 0.798381,0.39561 1.486111,0.5151 1.864915,0.32401 z m 12.776251,0.0115 c 0.738795,-0.18985 1.503278,-0.66131 2.179964,-1.34439 0.468821,-0.47326 0.805621,-0.95847 1.097201,-1.58068 0.33398,-0.71269 0.378908,-0.99694 0.353998,-2.23992 -0.02119,-1.05847 -0.02417,-1.08236 -0.19068,-1.52732 -0.232641,-0.6217 -0.613296,-1.21844 -1.116015,-1.74952 -0.552492,-0.58367 -0.999577,-0.91837 -1.64467,-1.23122 -0.601649,-0.29178 -0.885151,-0.37009 -1.339813,-0.37009 -0.295002,0 -0.337844,0.0149 -0.494934,0.17197 -0.128115,0.12811 -0.188316,0.25189 -0.236004,0.4852 -0.307281,1.50356 -1.042933,2.65724 -2.34553,3.67838 -0.522546,0.40964 -0.697923,0.61037 -0.697923,0.79887 0,0.18659 0.0748,0.27242 0.393404,0.45142 0.835083,0.46921 1.738197,1.5136 2.257159,2.61024 0.09892,0.20902 0.249839,0.64774 0.335375,0.97497 0.16705,0.63896 0.258768,0.82659 0.439697,0.89947 0.182103,0.0734 0.668122,0.0602 1.008771,-0.0274 z"
               style="fill:#66ff00;fill-opacity:1;stroke:#66ff00;stroke-width:0.37488806;stroke-linecap:round;stroke-linejoin:bevel;stroke-miterlimit:4;stroke-dasharray:none;stroke-opacity:1;paint-order:stroke markers fill" />
          </g>
          <g
             id="g2595"
             transform="translate(-190.60952,58.844145)"
             style="fill:#66ff00;stroke:#66ff00">
            <path
               sodipodi:nodetypes="cccccccccccccccccscccccccsscccccccccccsccccccccsccccccccc"
               inkscape:connector-curvature="0"
               id="path1857-71"
               d="m 13.45709,162.93606 c -1.632023,-0.62109 -2.942871,-1.80432 -3.634921,-3.28108 L 9.4262177,158.8101 v -7.04971 -7.04972 l 0.397871,-0.84909 c 0.5242223,-1.11875 1.8042333,-2.44501 2.8692673,-2.97296 0.939839,-0.46589 2.461174,-0.65834 3.832217,-0.48479 2.111699,0.26729 4.114741,2.11908 4.718827,4.36248 0.191203,0.71007 0.249689,12.62786 0.06688,13.62482 -0.307556,1.67712 -1.766906,3.51573 -3.396656,4.27935 -0.733979,0.34392 -1.063542,0.40334 -2.393308,0.43154 -1.015134,0.0215 -1.720539,-0.0352 -2.064208,-0.16596 z m 3.054697,-0.29557 c 1.805359,-0.48062 3.194734,-1.58427 3.918306,-3.11246 0.462825,-0.9775 0.506971,-1.68557 0.566771,-9.08947 0.02781,-3.44118 0.0033,-3.96546 -0.188281,-3.96546 -0.191513,0 -0.223729,0.73127 -0.246476,5.59556 -0.02174,4.65225 -0.066,5.73266 -0.262548,6.4087 -0.64724,2.22642 -2.673647,3.77261 -4.95494,3.78068 -0.941121,0.004 -1.153175,-0.0473 -2.314725,-0.55296 -0.668442,-0.29098 -1.926709,-1.56714 -2.274242,-2.3066 -0.391646,-0.83332 -0.713838,-2.5992 -0.498506,-2.73228 0.122941,-0.076 0.132068,-1.47833 0.03488,-5.36828 -0.07229,-2.89599 -0.0819,-5.28746 -0.0213,-5.3144 0.0606,-0.0269 0.110149,-0.28203 0.110149,-0.5669 0,-0.73556 0.799472,-2.14736 1.648027,-2.9103 1.359234,-1.22207 3.423972,-1.59827 5.175393,-0.94297 1.498596,0.5607 2.980275,2.28946 3.299353,3.84955 0.131196,0.64149 0.389516,0.51846 0.332952,-0.15857 -0.07306,-0.87496 -0.690031,-2.03291 -1.526522,-2.8652 -0.883883,-0.87946 -1.721676,-1.31885 -3.02973,-1.58902 -2.283293,-0.47161 -4.83838,0.85184 -5.931702,3.07242 l -0.4818068,0.9786 v 6.90605 6.90605 l 0.3948038,0.84242 c 0.710305,1.51558 2.19493,2.71798 3.864401,3.12975 0.995356,0.2455 1.478764,0.24653 2.385748,0.005 z m 0.392154,-1.12121 c 1.06574,-0.39873 2.170605,-1.41044 2.685578,-2.45912 l 0.411281,-0.83754 v -6.53567 -6.53568 l -0.359473,-0.73051 c -0.458509,-0.93175 -1.356244,-1.8295 -2.288005,-2.28801 -1.045387,-0.51442 -2.908988,-0.51612 -3.950313,-0.004 -0.965236,0.47506 -1.792247,1.32886 -2.266063,2.3395 l -0.388898,0.82951 v 6.53567 6.53568 l 0.364175,0.71304 c 0.494897,0.96894 1.828603,2.17883 2.734305,2.48044 0.995677,0.33158 2.096437,0.31587 3.057413,-0.0437 z"
               style="fill:#66ff00;fill-opacity:1;stroke:#66ff00;stroke-width:0.14686915;stroke-opacity:1" />
            <path
               inkscape:connector-curvature="0"
               id="path2187"
               d="m 14.305896,162.64788 c -1.89658,-0.44198 -3.301486,-1.60815 -4.165473,-3.45768 l -0.2668326,-0.57117 v -6.86477 -6.86477 l 0.3612396,-0.7211 c 0.429019,-0.85639 0.837962,-1.42602 1.383008,-1.92639 1.767791,-1.62292 4.222151,-1.9486 6.320088,-0.83865 0.553403,0.29277 0.936907,0.58984 1.434721,1.11131 0.853309,0.89386 1.417185,2.01721 1.431402,2.85166 0.01028,0.60706 -0.127043,0.55547 -0.319896,-0.12013 -0.249413,-0.87369 -0.692268,-1.6365 -1.365707,-2.35237 -0.682766,-0.72578 -1.308971,-1.14714 -2.092063,-1.40773 -0.819281,-0.27263 -1.619027,-0.33118 -2.488316,-0.18219 -1.39207,0.2386 -2.493075,0.92988 -3.298638,2.0711 -0.513013,0.72676 -0.819338,1.43473 -0.894226,2.06665 -0.02393,0.20194 -0.07059,0.556 -0.103675,0.78679 -0.04491,0.31331 -0.04593,1.17051 -0.0039,3.38324 0.0309,1.62999 0.06967,3.68353 0.08617,4.56344 0.0202,1.07793 0.01028,1.74527 -0.03048,2.04566 -0.116894,0.86219 -0.117804,1.15316 -0.0053,1.70474 0.132594,0.65029 0.366394,1.35959 0.553256,1.67844 0.230541,0.39339 0.911029,1.16929 1.363195,1.55434 0.483522,0.41176 0.794063,0.58725 1.509712,0.85319 1.135475,0.42194 2.563234,0.34382 3.751641,-0.20526 1.685661,-0.77882 2.817067,-2.36213 3.000889,-4.19952 0.03153,-0.31509 0.08097,-2.69725 0.109858,-5.29368 0.0289,-2.59644 0.07248,-4.94076 0.09686,-5.20959 0.04124,-0.45501 0.110974,-0.65602 0.197553,-0.56945 0.112619,0.11263 0.132358,1.64311 0.07487,5.80526 -0.08024,5.80811 -0.113603,6.2373 -0.558029,7.17831 -0.75081,1.58969 -2.194769,2.69101 -4.141049,3.15839 -0.577607,0.1387 -1.26798,0.12872 -1.940773,-0.0281 z"
               style="fill:#66ff00;fill-opacity:1;stroke:#66ff00;stroke-width:0.37488806;stroke-linecap:round;stroke-linejoin:bevel;stroke-miterlimit:4;stroke-dasharray:none;stroke-opacity:1;paint-order:stroke markers fill" />
          </g>
          <g
             id="g2591"
             transform="translate(-167.63839,59.48231)"
             style="fill:#66ff00;stroke:#66ff00">
            <g
               transform="matrix(0.89250159,0,0,0.89250159,2.7407182,11.259214)"
               id="g2586"
               style="fill:#66ff00;stroke:#66ff00">
              <path
                 style="fill:#66ff00;fill-opacity:1;stroke:#66ff00;stroke-width:0.16455898;stroke-opacity:1"
                 d="m 38.346458,169.4737 c -1.29056,-0.30227 -2.230883,-0.83944 -3.245377,-1.85393 -1.151873,-1.15187 -1.720934,-2.39022 -1.821991,-3.96488 -0.09163,-1.42806 0.06183,-1.69739 0.967367,-1.69739 1.643706,0 3.613536,-1.35335 4.43111,-3.04435 0.531911,-1.10014 0.62195,-2.56301 0.23371,-3.79731 -0.587969,-1.86932 -2.625405,-3.49229 -4.523869,-3.60358 -0.428122,-0.0251 -0.860275,-0.0962 -0.960342,-0.15808 -0.100044,-0.0619 -0.181069,-0.53388 -0.179992,-1.04894 0.0062,-2.92142 1.772772,-5.33033 4.61026,-6.28621 0.854549,-0.28787 1.333484,-0.34433 2.461773,-0.29025 1.984497,0.0952 3.103104,0.56582 4.374682,1.84069 1.185509,1.18858 1.77657,2.35617 2.030586,4.01118 0.243085,1.58384 0.13661,1.76823 -1.095322,1.897 -2.4362,0.25463 -4.29336,1.92469 -4.837367,4.35002 -0.23308,1.03914 0.0037,2.38231 0.602994,3.42407 0.858754,1.49218 2.813979,2.70576 4.35931,2.70576 0.976469,0 1.190072,0.42161 0.960912,1.89678 -0.498066,3.20628 -3.024615,5.57146 -6.146897,5.7543 -0.779697,0.0456 -1.685517,-0.01 -2.221547,-0.13488 z m 3.143195,-0.45339 c 2.507146,-0.79674 4.348057,-2.77927 4.68844,-5.04911 0.09089,-0.60636 0.04959,-0.7597 -0.298684,-1.10799 -0.243492,-0.24348 -0.758203,-0.47946 -1.294505,-0.59348 -1.659485,-0.3528 -3.177511,-1.65972 -3.973061,-3.42058 -0.27363,-0.60563 -0.316355,-0.99128 -0.264639,-2.38837 0.07197,-1.94558 0.379843,-2.63597 1.74438,-3.91235 0.93995,-0.8792 1.448849,-1.16354 2.601278,-1.4534 0.458531,-0.11538 1.004812,-0.34827 1.213963,-0.51763 0.341645,-0.27665 0.368813,-0.39548 0.26736,-1.1697 -0.358326,-2.73469 -2.869467,-5.01906 -5.702453,-5.18751 -3.030525,-0.18018 -5.489096,1.46225 -6.457526,4.31392 -0.151476,0.44604 -0.275411,1.01994 -0.275411,1.27534 0,0.47783 0.497534,1.1226 0.866261,1.1226 0.346936,0 1.888892,0.6052 2.492664,0.97836 2.150144,1.32887 3.143974,4.37386 2.227247,6.82405 -0.627689,1.67764 -2.442458,3.27318 -4.068417,3.57693 -1.469526,0.27456 -1.815758,1.05697 -1.205963,2.7253 0.690374,1.8888 2.100369,3.16242 4.378144,3.95468 0.666038,0.23167 2.372279,0.2478 3.060922,0.0289 z m -3.307766,-0.63658 c -0.135757,-0.0752 -0.526644,-0.27397 -0.868634,-0.44167 -1.506897,-0.73892 -2.916211,-2.70852 -2.916211,-4.07558 0,-0.78554 0.0011,-0.7866 1.151909,-1.00776 1.178028,-0.22642 2.967828,-1.54747 3.727973,-2.75159 0.214568,-0.33991 0.521661,-0.61801 0.682423,-0.61801 0.169764,0 0.533779,0.36217 0.868313,0.86393 0.756397,1.13446 2.27158,2.16251 3.632901,2.46489 1.309407,0.29085 1.452522,0.51422 1.051531,1.64121 -0.609795,1.71392 -1.66427,2.90538 -3.24712,3.66896 -0.724691,0.34961 -1.078565,0.41028 -2.344863,0.40207 -0.820258,-0.005 -1.602452,-0.0712 -1.738222,-0.14645 z m 3.894177,-0.73645 c 1.408684,-0.6559 2.848839,-2.4065 3.041518,-3.69719 0.05169,-0.34644 -0.03908,-0.414 -0.829791,-0.61759 -1.625045,-0.41838 -3.34923,-1.6558 -4.096774,-2.94014 -0.181698,-0.31219 -0.211327,-0.30072 -0.641824,0.24867 -1.13843,1.45277 -3.171476,2.7975 -4.229464,2.7975 -0.360304,0 -0.429012,0.074 -0.429012,0.46136 0,0.69311 0.756311,2.07323 1.508616,2.75288 1.079183,0.97499 2.152221,1.3902 3.59271,1.3902 0.95808,0 1.424315,-0.0885 2.084021,-0.39569 z m -2.967717,-14.49405 c -0.871046,-1.3119 -2.353953,-2.31021 -3.872833,-2.60724 -0.808781,-0.15818 -0.976073,-0.35617 -0.894293,-1.05847 0.179446,-1.54116 1.608696,-3.4177 3.211308,-4.21632 0.745441,-0.37148 1.066804,-0.42784 2.439514,-0.42784 1.371115,0 1.694482,0.0566 2.436164,0.42617 1.630573,0.81253 3.000413,2.58405 3.266623,4.22444 0.107587,0.66268 -0.144637,0.9195 -1.039315,1.05843 -1.41891,0.22035 -3.329085,1.60034 -4.226941,3.05373 -0.153762,0.24889 -0.378446,0.45253 -0.499302,0.45253 -0.120819,0 -0.490275,-0.40745 -0.820925,-0.90543 z m 1.586709,-0.76224 c 0.786893,-0.99309 2.079148,-1.83899 3.412335,-2.23372 0.969297,-0.28697 1.063132,-0.35339 1.012961,-0.71697 -0.187435,-1.35808 -1.503285,-3.01241 -2.96481,-3.72747 -1.197851,-0.58606 -2.986353,-0.63035 -4.138213,-0.10251 -1.078442,0.49423 -2.225529,1.58815 -2.696153,2.57116 -0.710852,1.48484 -0.682101,1.57942 0.613443,2.01732 0.619404,0.20937 1.421273,0.58517 1.781936,0.83511 0.736192,0.51018 2.110929,1.97718 2.110929,2.25262 0,0.20061 -0.0062,0.20646 0.867572,-0.89559 z"
                 id="path1857-6"
                 inkscape:connector-curvature="0"
                 sodipodi:nodetypes="cscscccccccsccccscccccccccccccscssccccccccsccscccccccccccsscscccccsccscscccccccccscc" />
              <path
                 style="fill:#66ff00;fill-opacity:1;stroke:#66ff00;stroke-width:0.42004189;stroke-linecap:round;stroke-linejoin:bevel;stroke-miterlimit:4;stroke-dasharray:none;stroke-opacity:1;paint-order:stroke markers fill"
                 d="m 38.802122,169.06056 c -0.279751,-0.059 -1.186157,-0.40255 -1.55895,-0.59084 -0.545529,-0.27551 -1.275776,-0.79603 -1.712203,-1.22044 -0.730889,-0.71077 -1.189844,-1.44169 -1.511836,-2.40771 -0.315016,-0.94504 -0.294923,-1.51493 0.06797,-1.92822 0.241391,-0.27494 0.507417,-0.40399 1.20388,-0.58399 1.008039,-0.26053 1.780215,-0.69921 2.612078,-1.48396 1.565186,-1.4765 2.12643,-3.48145 1.575142,-5.62683 -0.148531,-0.57802 -0.553643,-1.44805 -0.899003,-1.93072 -0.354427,-0.49534 -0.954293,-1.0701 -1.431498,-1.37158 -0.478274,-0.30216 -1.674256,-0.80399 -2.293607,-0.9624 -0.564964,-0.14449 -0.676995,-0.21955 -0.89492,-0.59952 -0.212973,-0.37136 -0.226796,-0.65454 -0.06318,-1.29429 0.464352,-1.81563 1.592502,-3.29655 3.113438,-4.08704 1.08377,-0.56328 1.937601,-0.74584 3.27693,-0.70065 0.966586,0.0326 1.525264,0.16154 2.3487,0.54199 1.964868,0.90782 3.403508,2.8978 3.527766,4.87973 0.02972,0.47404 0.02064,0.54466 -0.08747,0.68038 -0.18169,0.2281 -0.729111,0.49376 -1.450473,0.7039 -1.161572,0.33838 -1.700765,0.65009 -2.628286,1.5194 -0.828933,0.77692 -1.283083,1.45606 -1.478135,2.21041 -0.195101,0.75456 -0.282284,2.74771 -0.148283,3.39013 0.08289,0.39736 0.435702,1.15856 0.760509,1.64077 0.348766,0.5178 1.107679,1.28509 1.624262,1.6422 0.540972,0.37398 1.052092,0.60716 1.72634,0.7876 0.900878,0.24109 1.419321,0.53888 1.622617,0.93199 0.126546,0.24473 0.07207,0.86672 -0.132815,1.51653 -0.289476,0.91807 -0.714071,1.62079 -1.429936,2.36657 -0.777903,0.81043 -1.722636,1.42288 -2.825428,1.83169 -0.416713,0.15448 -0.501806,0.16427 -1.557436,0.17942 -0.614166,0.009 -1.224434,-0.007 -1.35618,-0.0345 z m 2.553758,-0.58774 c 1.123938,-0.21316 2.645005,-1.29553 3.38511,-2.4088 0.516452,-0.77686 0.971177,-1.90691 0.971177,-2.4135 0,-0.47109 -0.112986,-0.54081 -1.528045,-0.94292 -0.242445,-0.0689 -0.652361,-0.23073 -0.910965,-0.35964 -1.011627,-0.50431 -1.733481,-1.09735 -2.368268,-1.94561 -0.449953,-0.60126 -0.780963,-0.92288 -0.949834,-0.92288 -0.171948,0 -0.433728,0.25308 -0.890791,0.86119 -0.946493,1.25928 -2.42532,2.25405 -3.783967,2.5454 -0.323244,0.0694 -0.645977,0.16407 -0.717198,0.21057 -0.16349,0.10673 -0.219307,0.39523 -0.176144,0.91026 0.09105,1.08604 0.874385,2.40289 1.981192,3.33057 0.513473,0.43039 1.723525,1.08178 2.115174,1.13865 0.425584,0.0618 2.542141,0.0594 2.872559,-0.004 z m -1.129468,-14.59129 c 0.09862,-0.10506 0.268281,-0.32324 0.377022,-0.48487 0.296946,-0.44136 1.082798,-1.23832 1.604664,-1.62731 0.894361,-0.66664 1.674009,-1.04218 2.486436,-1.19762 1.014243,-0.19406 1.192379,-0.47967 0.932195,-1.49474 -0.477057,-1.86123 -2.460157,-3.85286 -4.156974,-4.17485 -0.408502,-0.0775 -2.571169,-0.0765 -2.986434,0.002 -0.404699,0.0759 -1.198877,0.45222 -1.682105,0.79705 -1.389322,0.99139 -2.490633,2.77222 -2.490633,4.02734 0,0.55032 0.124243,0.64961 1.128743,0.90203 1.447247,0.36368 2.76293,1.27811 3.642513,2.53165 0.399006,0.56867 0.722924,0.91095 0.862059,0.91095 0.05675,0 0.183878,-0.086 0.282514,-0.191 z"
                 id="path2189"
                 inkscape:connector-curvature="0" />
            </g>
          </g>
        </g>
      </g>
    </g>
  </g>
</svg>
