<?xml version="1.0" encoding="UTF-8" standalone="no"?>
<!-- Created with Inkscape (http://www.inkscape.org/) -->

<svg
   xmlns:dc="http://purl.org/dc/elements/1.1/"
   xmlns:cc="http://creativecommons.org/ns#"
   xmlns:rdf="http://www.w3.org/1999/02/22-rdf-syntax-ns#"
   xmlns:svg="http://www.w3.org/2000/svg"
   xmlns="http://www.w3.org/2000/svg"
   xmlns:sodipodi="http://sodipodi.sourceforge.net/DTD/sodipodi-0.dtd"
   xmlns:inkscape="http://www.inkscape.org/namespaces/inkscape"
   width="115.00001mm"
   height="70mm"
   viewBox="0 0 115.00001 70"
   version="1.1"
   id="svg1079"
   inkscape:version="0.92.4 (5da689c313, 2019-01-14)"
   sodipodi:docname="15.4.svg">
  <defs
     id="defs1073">
    <clipPath
       clipPathUnits="userSpaceOnUse"
       id="clipPath1058">
      <ellipse
         style="fill:#ffcc00;fill-opacity:1;stroke:#ffcc00;stroke-width:5.25652218;stroke-linecap:butt;stroke-linejoin:miter;stroke-miterlimit:4;stroke-dasharray:none;stroke-opacity:1"
         id="ellipse1060"
         cx="59.323036"
         cy="0.8915832"
         rx="27.6078"
         ry="26.313755" />
    </clipPath>
  </defs>
  <sodipodi:namedview
     id="base"
     pagecolor="#ffffff"
     bordercolor="#666666"
     borderopacity="1.0"
     inkscape:pageopacity="0.0"
     inkscape:pageshadow="2"
     inkscape:zoom="0.98994949"
     inkscape:cx="14.157"
     inkscape:cy="171.11036"
     inkscape:document-units="mm"
     inkscape:current-layer="g1782"
     showgrid="false"
     fit-margin-top="0"
     fit-margin-left="0"
     fit-margin-right="0"
     fit-margin-bottom="0"
     inkscape:window-width="1291"
     inkscape:window-height="991"
     inkscape:window-x="619"
     inkscape:window-y="0"
     inkscape:window-maximized="0" />
  <metadata
     id="metadata1076">
    <rdf:RDF>
      <cc:Work
         rdf:about="">
        <dc:format>image/svg+xml</dc:format>
        <dc:type
           rdf:resource="http://purl.org/dc/dcmitype/StillImage" />
        <dc:title />
      </cc:Work>
    </rdf:RDF>
  </metadata>
  <g
     inkscape:label="Ebene 1"
     inkscape:groupmode="layer"
     id="layer1"
     transform="translate(-67.232141,-155.41071)">
    <g
       id="g1782">
      <g
         transform="matrix(1.0037152,0,0,1.0038501,43.458405,92.506432)"
         style="stroke:none;stroke-width:0.1;stroke-linecap:round;stroke-linejoin:round;stroke-miterlimit:4;stroke-dasharray:none;fill:#d5fff6;fill-opacity:1"
         id="g2384">
        <path
           sodipodi:nodetypes="ccsccc"
           inkscape:connector-curvature="0"
           id="path2379"
           d="m 23.685739,62.663023 h 99.675681 c 5.78011,6.133058 8.76542,12.932231 11.99785,19.014489 5.50042,10.349797 4.05232,39.986848 -11.99785,50.717038 H 23.685739 Z"
           style="fill:#d5fff6;stroke:none;stroke-width:0.1;stroke-linecap:butt;stroke-linejoin:miter;stroke-miterlimit:4;stroke-dasharray:none;stroke-opacity:1;fill-opacity:1" />
      </g>
      <g
         id="g11094"
         transform="translate(13.983741,0.47305544)">
        <path
           style="fill:#d5fff6;fill-opacity:1;stroke:none;stroke-width:14.10573673;stroke-linecap:butt;stroke-linejoin:miter;stroke-miterlimit:4;stroke-dasharray:none;stroke-opacity:1"
           d="m 175.28056,118.55777 c 0,-1.69272 15.37439,-45.87094 17.03204,-48.941462 1.04271,-1.931457 2.86028,-4.118824 4.03905,-4.860815 2.96932,-1.869088 8.74137,-1.413954 14.28606,1.126473 8.27147,3.789771 12.9888,10.350802 13.72092,19.083565 l 0.41182,4.912131 -2.78066,2.757491 c -3.11318,3.087243 -21.41761,14.201607 -35.67273,21.660317 -9.23604,4.83258 -11.0365,5.52791 -11.0365,4.2623 z"
           id="path1642"
           inkscape:connector-curvature="0"
           transform="matrix(0.26458333,0,0,0.26458333,67.232141,155.41071)" />
        <path
           style="fill:#ffccaa;fill-opacity:1;stroke:none;stroke-width:7.05286837;stroke-linecap:butt;stroke-linejoin:miter;stroke-miterlimit:4;stroke-dasharray:none;stroke-opacity:1"
           d="m 175.18578,118.7551 c -0.1616,-0.42113 12.82755,-39.299264 15.24439,-45.628329 2.79999,-7.332419 6.49754,-10.371531 12.0013,-9.864169 2.60514,0.240154 8.14968,2.016138 10.45129,3.347671 7.6707,4.437683 11.76046,11.481575 11.77951,20.28811 0.0109,5.04683 -1.52084,6.4421 -17.31523,15.772377 -15.83291,9.35303 -29.35783,16.53923 -31.12797,16.53923 -0.4723,0 -0.93728,-0.2047 -1.03329,-0.45489 z"
           id="path1646"
           inkscape:connector-curvature="0"
           transform="matrix(0.26458333,0,0,0.26458333,67.232141,155.41071)" />
        <path
           style="fill:#ffccaa;fill-opacity:1;stroke:none;stroke-width:3.52643418;stroke-linecap:butt;stroke-linejoin:miter;stroke-miterlimit:4;stroke-dasharray:none;stroke-opacity:1"
           d="m 231.90041,140.26375 c -12.33834,-1.84051 -35.63179,-6.39086 -46.25,-9.03489 -3.61548,-0.90029 -4.69905,-1.28475 -5.02559,-1.78312 -0.26159,-0.39924 -0.24929,-0.47836 0.19124,-1.23006 0.45226,-0.77174 1.97933,-2.12378 3.67363,-3.25258 1.43201,-0.95405 3.3658,-2.07885 10,-5.81652 3.58482,-2.01967 10.05357,-5.69277 14.375,-8.16245 12.64557,-7.2269 20.36374,-10.90939 22.8353,-10.89516 1.59695,0.009 4.29877,1.58721 6.87199,4.01362 3.35994,3.16825 5.46632,6.9857 6.48003,11.74399 0.51559,2.42013 0.56007,7.09379 0.0905,9.50601 -1.05952,5.44243 -3.75752,10.74469 -7.29183,14.33036 -1.31768,1.33682 -1.05432,1.31112 -5.95023,0.5808 z"
           id="path1648"
           inkscape:connector-curvature="0"
           transform="matrix(0.26458333,0,0,0.26458333,67.232141,155.41071)" />
        <path
           style="fill:#ffccaa;fill-opacity:1;stroke:none;stroke-width:3.52643418;stroke-linecap:butt;stroke-linejoin:miter;stroke-miterlimit:4;stroke-dasharray:none;stroke-opacity:1"
           d="m 216.90041,183.58634 c -4.24841,-1.03739 -9.01987,-5.63627 -21.977,-21.18211 -8.15345,-9.78243 -15.34642,-19.1949 -16.75343,-21.92295 -0.47902,-0.92877 -0.31294,-0.99696 2.10482,-0.86425 10.51067,0.57693 42.79344,5.83281 49.66132,8.08523 4.09352,1.34253 6.61206,3.37762 8.14175,6.5789 1.01225,2.11842 1.30594,3.87939 1.17577,7.04996 -0.24196,5.89308 -2.02359,10.02677 -6.18708,14.35507 -4.12418,4.28743 -11.16903,8.19754 -14.6483,8.13026 -0.34375,-0.007 -1.02678,-0.1102 -1.51785,-0.23011 z"
           id="path1650"
           inkscape:connector-curvature="0"
           transform="matrix(0.26458333,0,0,0.26458333,67.232141,155.41071)" />
        <path
           style="fill:#ffccaa;fill-opacity:1;stroke:none;stroke-width:4.98713112;stroke-linecap:butt;stroke-linejoin:miter;stroke-miterlimit:4;stroke-dasharray:none;stroke-opacity:1"
           d="m 180.5837,209.24951 c -2.28124,-0.35408 -5.87674,-1.44162 -7.26607,-2.19779 -1.7125,-0.93206 -3.81273,-3.27164 -4.4386,-4.94444 -1.17775,-3.14783 -1.44194,-9.30735 -1.06881,-24.91955 0.44727,-18.71401 1.25172,-28.32532 2.45432,-29.32339 0.93416,-0.77529 18.75172,18.69964 30.55125,33.39311 4.44457,5.53463 6.28319,8.13519 6.51825,9.21945 0.60714,2.80052 -2.92682,9.92585 -6.84244,13.79606 -2.74429,2.71246 -4.17498,3.4929 -8.27634,4.51472 -2.34762,0.58489 -9.10908,0.85336 -11.63156,0.46183 z"
           id="path1652"
           inkscape:connector-curvature="0"
           transform="matrix(0.26458333,0,0,0.26458333,67.232141,155.41071)" />
        <path
           style="fill:#ffccaa;fill-opacity:1;stroke:none;stroke-width:4.98713112;stroke-linecap:butt;stroke-linejoin:miter;stroke-miterlimit:4;stroke-dasharray:none;stroke-opacity:1"
           d="m 139.2539,210.92949 c -2.20345,-0.59347 -4.00751,-1.93125 -8.04079,-5.96256 -4.04042,-4.03845 -6.41854,-7.07133 -7.89269,-10.06575 -1.13211,-2.29964 -1.08752,-3.216 0.2721,-5.59162 6.15354,-10.75193 33.07842,-42.9135 35.93927,-42.92921 0.46747,-0.003 0.5856,0.47841 0.96086,3.91207 0.88672,8.11359 1.01915,43.08259 0.18507,48.86613 -0.51296,3.55685 -1.18592,5.268 -2.67171,6.7934 -2.13448,2.19139 -7.02881,4.1277 -12.47899,4.93697 -3.11224,0.46213 -4.67053,0.47221 -6.27312,0.0406 z"
           id="path1654"
           inkscape:connector-curvature="0"
           transform="matrix(0.26458333,0,0,0.26458333,67.232141,155.41071)" />
        <path
           style="fill:#ffccaa;fill-opacity:1;stroke:none;stroke-width:4.98713112;stroke-linecap:butt;stroke-linejoin:miter;stroke-miterlimit:4;stroke-dasharray:none;stroke-opacity:1"
           d="m 108.98914,185.17839 c -4.97124,-1.77162 -11.705687,-6.40275 -14.268628,-9.81222 -2.18367,-2.90492 -3.147234,-6.90174 -3.342039,-13.86263 -0.202721,-7.24373 0.411279,-9.79466 2.62705,-10.91438 4.893672,-2.47298 27.191427,-7.25227 47.308497,-10.14008 6.67768,-0.95858 7.60283,-1.02817 8.35036,-0.62811 1.65367,0.88502 -0.38965,3.81126 -15.15909,21.7094 -9.39239,11.38203 -16.2426,19.04211 -20.21119,22.60067 -2.12721,1.90743 -2.61907,2.00453 -5.30496,1.04735 z"
           id="path1656"
           inkscape:connector-curvature="0"
           transform="matrix(0.26458333,0,0,0.26458333,67.232141,155.41071)" />
        <path
           style="fill:#ffccaa;fill-opacity:1;stroke:none;stroke-width:4.98713112;stroke-linecap:butt;stroke-linejoin:miter;stroke-miterlimit:4;stroke-dasharray:none;stroke-opacity:1"
           d="m 93.89497,139.92563 c -1.696543,-0.45675 -2.440628,-0.84699 -4.068466,-2.13372 -2.430591,-1.92127 -4.978787,-6.08695 -5.947586,-9.72285 -0.574103,-2.1546 -0.768056,-5.95702 -0.417953,-8.19391 0.707577,-4.52088 2.972885,-8.06531 9.188389,-14.37669 3.251576,-3.30173 5.79228,-5.33486 6.666722,-5.33486 3.138064,0 50.331704,27.45249 50.331704,29.2779 0,0.46914 -1.37567,1.29382 -2.99001,1.79244 -2.39834,0.74077 -8.94593,1.9398 -26.13671,4.78633 -8.35655,1.38372 -17.34744,2.91658 -19.97976,3.40637 -5.431003,1.01053 -4.895584,0.97033 -6.64633,0.49899 z"
           id="path1658"
           inkscape:connector-curvature="0"
           transform="matrix(0.26458333,0,0,0.26458333,67.232141,155.41071)" />
        <path
           style="fill:#ffccaa;fill-opacity:1;stroke:none;stroke-width:4.98713112;stroke-linecap:butt;stroke-linejoin:miter;stroke-miterlimit:4;stroke-dasharray:none;stroke-opacity:1"
           d="m 151.41554,118.79352 c -3.28027,-1.09702 -9.34157,-4.20339 -19.82424,-10.15979 -20.42242,-11.604297 -25.70725,-15.29601 -27.85133,-19.455538 -0.51132,-0.991978 -0.65346,-1.641689 -0.66298,-3.030458 -0.015,-2.193879 0.57052,-3.979472 2.75593,-8.403768 1.34873,-2.730477 1.93331,-3.608081 3.54346,-5.319683 4.04462,-4.299464 9.0828,-6.679883 15.68387,-7.410258 5.03825,-0.557457 9.18037,0.396698 10.96172,2.525074 1.37062,1.637646 2.92379,5.25924 6.13938,14.315487 1.72612,4.861359 4.92533,13.782269 7.10936,19.824244 4.82551,13.34944 6.21505,17.42545 6.03807,17.71181 -0.24752,0.4005 -1.47149,0.21278 -3.89324,-0.59712 z"
           id="path1660"
           inkscape:connector-curvature="0"
           transform="matrix(0.26458333,0,0,0.26458333,67.232141,155.41071)" />
        <path
           style="fill:#ffccaa;fill-opacity:1;stroke:#ffccaa;stroke-width:1.51181102;stroke-linecap:butt;stroke-linejoin:miter;stroke-miterlimit:4;stroke-dasharray:none;stroke-opacity:1"
           d="m 163.53737,115.69425 c 0,-0.71229 -3.59171,-10.59648 -11.42485,-31.440552 -4.30623,-11.458918 -7.94917,-21.206265 -8.09541,-21.660771 -0.29836,-0.927246 -0.66206,-0.532205 5.22821,-5.678748 2.85775,-2.496914 5.72469,-4.123073 8.87971,-5.036675 1.71618,-0.496956 2.54564,-0.576775 5.79115,-0.557287 3.3418,0.02007 4.05584,0.102852 6.06092,0.702714 2.6775,0.80103 6.79507,2.779225 9.37087,4.502023 5.74156,3.840195 5.40738,6.962061 -3.26562,30.506664 -5.87576,15.950932 -9.48714,24.734822 -11.49872,27.968142 -0.69201,1.11232 -1.04626,1.34746 -1.04626,0.69449 z"
           id="path1662"
           inkscape:connector-curvature="0"
           transform="matrix(0.26458333,0,0,0.26458333,67.232141,155.41071)" />
        <path
           style="fill:#ffccaa;fill-opacity:1;stroke:#ffccaa;stroke-width:0.38178992;stroke-linecap:butt;stroke-linejoin:miter;stroke-miterlimit:4;stroke-dasharray:none;stroke-opacity:1"
           d="m 175.509,118.75385 c -0.20888,-0.54434 1.17687,-4.94011 7.41295,-23.514743 8.03751,-23.940318 8.86794,-26.033693 11.40772,-28.757104 3.10892,-3.333687 6.48696,-3.927202 12.37364,-2.174018 5.05687,1.506045 7.87852,3.056818 10.96381,6.025685 4.08793,3.933667 6.15217,8.278737 6.76409,14.237945 0.68557,6.676392 -0.39763,7.947343 -13.54294,15.890215 -10.38031,6.27216 -24.58433,14.18868 -30.51576,17.00776 -3.36945,1.60143 -4.61553,1.93047 -4.86351,1.28426 z"
           id="path1664"
           inkscape:connector-curvature="0"
           transform="matrix(0.26458333,0,0,0.26458333,67.232141,155.41071)" />
        <path
           style="fill:#ffccaa;fill-opacity:1;stroke:#ffccaa;stroke-width:0.38178992;stroke-linecap:butt;stroke-linejoin:miter;stroke-miterlimit:4;stroke-dasharray:none;stroke-opacity:1"
           d="m 175.36526,118.98149 c -0.27644,-0.28157 0.5987,-3.13362 5.38672,-17.5552 7.82178,-23.559306 10.0378,-29.764855 11.61109,-32.514687 1.05426,-1.842649 3.10204,-3.887843 4.7735,-4.767462 1.29996,-0.684119 1.54758,-0.724159 4.40779,-0.712742 2.82124,0.01126 3.23096,0.07879 5.93465,0.97814 3.79308,1.261723 6.30588,2.543016 8.66719,4.419463 5.22445,4.151678 8.04411,9.784907 8.42492,16.831607 0.30894,5.716844 -0.95341,7.16964 -12.20477,14.046054 -9.87424,6.034767 -25.40705,14.730017 -31.63437,17.708877 -2.90823,1.39116 -4.95264,1.9877 -5.36672,1.56595 z"
           id="path1666"
           inkscape:connector-curvature="0"
           transform="matrix(0.26458333,0,0,0.26458333,67.232141,155.41071)" />
        <path
           style="fill:#ffccaa;fill-opacity:1;stroke:#ffccaa;stroke-width:0.38178992;stroke-linecap:butt;stroke-linejoin:miter;stroke-miterlimit:4;stroke-dasharray:none;stroke-opacity:1"
           d="m 175.42651,119.12498 c -0.52951,-0.34017 -0.19191,-1.46731 6.17092,-20.602877 6.32413,-19.019186 8.54567,-25.318437 9.99605,-28.344248 1.30124,-2.714666 3.47098,-5.069515 5.66723,-6.150726 1.57556,-0.775642 1.64324,-0.785481 4.70886,-0.684502 2.76425,0.09105 3.40987,0.204766 5.80242,1.021978 4.74429,1.620488 7.7577,3.430686 10.67327,6.411598 3.65159,3.733419 5.63954,8.230921 6.1805,13.982645 0.4598,4.888858 -0.41611,6.917247 -4.24601,9.832701 -6.07624,4.625453 -34.28347,20.806141 -41.34462,23.716771 -2.1991,0.90648 -3.13807,1.11897 -3.60862,0.81666 z"
           id="path1668"
           inkscape:connector-curvature="0"
           transform="matrix(0.26458333,0,0,0.26458333,67.232141,155.41071)" />
        <path
           style="fill:#ffccaa;fill-opacity:1;stroke:#ffccaa;stroke-width:0.38178992;stroke-linecap:butt;stroke-linejoin:miter;stroke-miterlimit:4;stroke-dasharray:none;stroke-opacity:1"
           d="m 175.2591,119.01326 c -0.27531,-0.71746 0.33533,-2.72102 6.20678,-20.364888 6.7541,-20.29626 8.73158,-25.845956 10.2837,-28.860753 1.90828,-3.706581 4.87808,-6.224964 7.79815,-6.612809 3.90738,-0.51898 10.47888,1.341558 14.94662,4.231723 6.50402,4.20743 10.1804,10.971796 10.25431,18.86747 0.0346,3.694909 -0.42295,4.857842 -2.77802,7.060891 -2.53995,2.376 -9.71717,6.898996 -22.95166,14.463856 -16.00286,9.14727 -23.24199,12.56409 -23.75988,11.21451 z"
           id="path1670"
           inkscape:connector-curvature="0"
           transform="matrix(0.26458333,0,0,0.26458333,67.232141,155.41071)" />
        <path
           style="fill:#ffccaa;fill-opacity:1;stroke:#ffccaa;stroke-width:0.38178992;stroke-linecap:butt;stroke-linejoin:miter;stroke-miterlimit:4;stroke-dasharray:none;stroke-opacity:1"
           d="m 175.2216,118.0181 c 0.15092,-1.46227 11.47549,-35.694652 14.15858,-42.799138 0.90621,-2.39953 2.07358,-5.126942 2.59416,-6.060915 1.15966,-2.080529 3.582,-4.547949 5.27688,-5.375072 1.13759,-0.555163 1.56291,-0.613567 4.29314,-0.589526 3.5342,0.03112 6.01591,0.655615 9.894,2.489709 2.9555,1.397771 4.30483,2.323848 6.61245,4.538282 4.53203,4.349008 6.66771,9.500392 6.7075,16.178832 0.0209,3.506816 -0.093,3.937502 -1.5475,5.851102 -1.46752,1.93074 -7.29943,5.819671 -18.76226,12.511356 -16.43459,9.59406 -26.1739,14.59377 -28.42831,14.59377 h -0.93677 z"
           id="path1672"
           inkscape:connector-curvature="0"
           transform="matrix(0.26458333,0,0,0.26458333,67.232141,155.41071)" />
        <path
           style="fill:#ffccaa;fill-opacity:1;stroke:#ffccaa;stroke-width:0.38178992;stroke-linecap:butt;stroke-linejoin:miter;stroke-miterlimit:4;stroke-dasharray:none;stroke-opacity:1"
           d="m 175.32506,119.4314 c -0.39013,-0.10088 -0.43387,-0.27951 -0.28654,-1.17026 0.20338,-1.22966 6.74192,-21.368302 10.54945,-32.492213 5.22113,-15.253792 5.94669,-16.887645 8.755,-19.714731 2.37833,-2.394245 3.29164,-2.843053 6.04499,-2.970578 6.14014,-0.28439 13.30311,2.615985 17.9589,7.271775 2.94683,2.946835 4.76113,6.100101 5.84087,10.151491 0.76823,2.882562 0.84326,8.964808 0.12678,10.278552 -1.15779,2.122954 -3.68423,4.183814 -10.01697,8.171012 -7.86435,4.951532 -23.48373,13.834162 -30.43085,17.305822 -3.58816,1.7931 -7.41737,3.39972 -7.90686,3.31747 -0.0959,-0.0161 -0.38154,-0.0829 -0.63477,-0.14834 z"
           id="path1674"
           inkscape:connector-curvature="0"
           transform="matrix(0.26458333,0,0,0.26458333,67.232141,155.41071)" />
        <path
           style="fill:#ffccaa;fill-opacity:1;stroke:#ffccaa;stroke-width:0.38178992;stroke-linecap:butt;stroke-linejoin:miter;stroke-miterlimit:4;stroke-dasharray:none;stroke-opacity:1"
           d="m 231.5964,140.15561 c -11.4753,-1.82425 -30.00952,-5.38142 -40.75943,-7.82273 -6.91704,-1.57086 -9.2958,-2.24281 -9.92823,-2.80452 -0.38304,-0.34021 -0.39214,-0.46237 -0.0795,-1.06699 0.44125,-0.8533 1.88069,-2.16394 3.81917,-3.47744 1.81658,-1.2309 27.94114,-16.07578 33.56345,-19.07191 6.48909,-3.45803 11.80379,-5.74842 13.33887,-5.74842 2.4771,0 7.4021,3.71978 10.01044,7.56074 1.3217,1.94627 2.35283,4.18206 3.05554,6.62525 0.7568,2.63123 0.95965,8.20407 0.3993,10.96953 -1.08567,5.35797 -3.58504,10.43902 -6.81526,13.85493 l -1.31979,1.39565 -1.50587,-0.0264 c -0.82822,-0.0145 -2.52864,-0.18898 -3.77871,-0.3877 z"
           id="path1676"
           inkscape:connector-curvature="0"
           transform="matrix(0.26458333,0,0,0.26458333,67.232141,155.41071)" />
        <path
           style="fill:#ffccaa;fill-opacity:1;stroke:#ffccaa;stroke-width:0.38178992;stroke-linecap:butt;stroke-linejoin:miter;stroke-miterlimit:4;stroke-dasharray:none;stroke-opacity:1"
           d="m 234.37432,140.66585 c -10.03804,-1.38747 -33.68118,-5.88565 -45.83567,-8.72037 -5.53158,-1.2901 -8.08122,-2.17822 -8.08122,-2.81494 0,-0.69038 1.15636,-2.04964 2.8208,-3.31574 1.56838,-1.19304 16.19934,-9.65587 29.63035,-17.13878 11.18981,-6.23425 17.41016,-8.971449 19.37881,-8.52744 2.11408,0.4768 4.72508,2.27774 7.37533,5.08715 2.06893,2.19317 3.639,4.86609 4.70184,8.0045 0.78358,2.31382 0.83752,2.7027 0.9413,6.78634 0.10219,4.02103 0.064,4.51031 -0.53192,6.81853 -1.22721,4.75318 -3.51081,9.13226 -6.54058,12.54231 -1.13136,1.27336 -1.94519,1.54297 -3.85904,1.27844 z"
           id="path1678"
           inkscape:connector-curvature="0"
           transform="matrix(0.26458333,0,0,0.26458333,67.232141,155.41071)" />
        <path
           style="fill:#ffccaa;fill-opacity:1;stroke:#ffccaa;stroke-width:0.38178992;stroke-linecap:butt;stroke-linejoin:miter;stroke-miterlimit:4;stroke-dasharray:none;stroke-opacity:1"
           d="m 233.36417,140.64152 c -9.67272,-1.3411 -37.42108,-6.74717 -47.03498,-9.16358 -6.1877,-1.55526 -6.77577,-2.06061 -4.84074,-4.15988 1.3846,-1.50212 3.0653,-2.59995 10.83827,-7.07954 19.9502,-11.49739 30.68008,-17.28548 35.67461,-19.2442 3.86351,-1.51517 5.33084,-1.232241 9.16398,1.76698 4.75924,3.72386 7.59123,8.95456 8.21677,15.17647 0.34877,3.46896 0.13061,6.51869 -0.68436,9.56701 -1.15468,4.31899 -4.2841,9.97245 -6.80788,12.29879 -1.01872,0.93903 -1.20921,1.01571 -2.43659,0.98083 -0.73231,-0.0208 -1.67239,-0.0851 -2.08908,-0.14288 z"
           id="path1680"
           inkscape:connector-curvature="0"
           transform="matrix(0.26458333,0,0,0.26458333,67.232141,155.41071)" />
        <path
           style="fill:#ffccaa;fill-opacity:1;stroke:#ffccaa;stroke-width:0.38178992;stroke-linecap:butt;stroke-linejoin:miter;stroke-miterlimit:4;stroke-dasharray:none;stroke-opacity:1"
           d="m 178.31085,208.65881 c -3.94105,-1.05735 -5.17385,-1.6328 -6.78058,-3.16507 -3.24585,-3.09543 -3.46276,-4.06258 -3.62976,-16.18418 -0.21222,-15.40528 0.62638,-34.45001 1.74321,-39.58833 0.44177,-2.03251 0.63684,-2.04757 2.72456,-0.21036 6.54097,5.75615 29.3189,32.03745 33.816,39.0171 1.29274,2.00637 1.35552,3.14254 0.33329,6.03125 -1.89414,5.35261 -6.37032,10.91918 -10.28814,12.79432 -2.77409,1.32773 -4.90101,1.6953 -10.4687,1.80917 -4.86227,0.0994 -5.31522,0.0688 -7.44988,-0.5039 z"
           id="path1682"
           inkscape:connector-curvature="0"
           transform="matrix(0.26458333,0,0,0.26458333,67.232141,155.41071)" />
        <path
           style="fill:#ffccaa;fill-opacity:1;stroke:#ffccaa;stroke-width:0.38178992;stroke-linecap:butt;stroke-linejoin:miter;stroke-miterlimit:4;stroke-dasharray:none;stroke-opacity:1"
           d="m 181.21504,209.25465 c -2.18941,-0.18579 -5.32553,-1.02587 -7.3236,-1.96177 -1.59386,-0.74657 -3.99447,-3.0196 -4.73559,-4.48394 -0.27802,-0.54931 -0.64024,-1.62377 -0.80495,-2.3877 -0.41672,-1.93282 -0.79582,-12.56845 -0.6481,-18.18274 0.0676,-2.56958 0.18538,-7.28573 0.26171,-10.48034 0.31567,-13.21114 1.2255,-23.1741 2.16957,-23.75756 0.39235,-0.24249 1.44551,0.56702 4.0999,3.15137 4.90224,4.77291 14.17677,15.10484 22.23773,24.77307 7.20292,8.63911 10.33405,12.83226 10.75809,14.40703 0.74624,2.77133 -2.30845,9.23662 -6.40336,13.55278 -3.84913,4.05711 -6.92717,5.17789 -14.93944,5.43974 -1.52786,0.0499 -3.63024,0.0185 -4.67196,-0.0699 z"
           id="path1684"
           inkscape:connector-curvature="0"
           transform="matrix(0.26458333,0,0,0.26458333,67.232141,155.41071)" />
        <path
           style="fill:#ffccaa;fill-opacity:1;stroke:#ffccaa;stroke-width:0.38178992;stroke-linecap:butt;stroke-linejoin:miter;stroke-miterlimit:4;stroke-dasharray:none;stroke-opacity:1"
           d="m 179.42059,209.13857 c -1.05639,-0.20171 -2.91503,-0.72653 -4.13031,-1.16627 -1.82898,-0.6618 -2.48667,-1.05872 -3.81812,-2.30422 -1.88934,-1.76738 -2.55039,-2.75922 -3.03836,-4.55874 -1.58603,-5.84893 -0.69205,-45.61136 1.17517,-52.26901 0.3721,-1.32674 0.91121,-1.22994 2.95016,0.5297 6.70729,5.78848 32.17319,35.44181 34.42226,40.0824 0.67797,1.39888 0.62109,2.63973 -0.23354,5.09496 -0.90486,2.59953 -2.43515,5.29412 -4.463,7.85863 -2.84875,3.60264 -6.05203,5.66381 -10.05733,6.47144 -2.87355,0.57942 -10.34235,0.7317 -12.80693,0.26111 z"
           id="path1686"
           inkscape:connector-curvature="0"
           transform="matrix(0.26458333,0,0,0.26458333,67.232141,155.41071)" />
        <path
           style="fill:#ffccaa;fill-opacity:1;stroke:#ffccaa;stroke-width:0.38178992;stroke-linecap:butt;stroke-linejoin:miter;stroke-miterlimit:4;stroke-dasharray:none;stroke-opacity:1"
           d="m 140.25098,210.9909 c -2.71271,-0.36664 -5.07179,-2.04424 -9.85067,-7.00507 -3.46312,-3.59498 -5.42169,-6.1169 -6.76195,-8.70688 -1.59241,-3.07725 -1.42855,-3.8565 1.85476,-8.82074 6.6384,-10.03702 23.52647,-30.57495 30.80767,-37.46587 2.90079,-2.7453 3.34256,-2.94217 3.6862,-1.64278 1.24483,4.70692 1.56166,46.98434 0.39728,53.01171 -0.6969,3.60748 -1.71978,5.30588 -4.12514,6.84939 -3.81195,2.44612 -11.84455,4.34298 -16.00815,3.78024 z"
           id="path1688"
           inkscape:connector-curvature="0"
           transform="matrix(0.26458333,0,0,0.26458333,67.232141,155.41071)" />
        <path
           style="fill:#ffccaa;fill-opacity:1;stroke:#ffccaa;stroke-width:0.38178992;stroke-linecap:butt;stroke-linejoin:miter;stroke-miterlimit:4;stroke-dasharray:none;stroke-opacity:1"
           d="m 139.27587,210.93507 c -1.70779,-0.46047 -3.17248,-1.40986 -5.81829,-3.77132 -4.2316,-3.77682 -8.58587,-9.02359 -10.10155,-12.17208 -0.98033,-2.0364 -0.9709,-3.40478 0.0367,-5.3202 3.18108,-6.04734 16.93946,-23.60321 28.34192,-36.16469 3.22214,-3.54966 7.07687,-7.1287 7.6778,-7.1287 0.19216,0 0.45832,0.28652 0.59146,0.63672 0.99978,2.6296 1.63132,31.86263 1.00297,46.42588 -0.30744,7.12574 -0.75122,9.38189 -2.29605,11.67308 -1.36046,2.01776 -4.80181,3.82721 -9.54566,5.01909 -4.45668,1.11972 -7.72761,1.38506 -9.88927,0.80222 z"
           id="path1690"
           inkscape:connector-curvature="0"
           transform="matrix(0.26458333,0,0,0.26458333,67.232141,155.41071)" />
        <path
           style="fill:#ffccaa;fill-opacity:1;stroke:#ffccaa;stroke-width:0.38178992;stroke-linecap:butt;stroke-linejoin:miter;stroke-miterlimit:4;stroke-dasharray:none;stroke-opacity:1"
           d="m 109.36794,185.17309 c -4.13411,-1.35252 -10.273881,-5.25103 -13.432242,-8.52894 -3.209464,-3.33094 -4.376638,-7.75266 -4.420713,-16.74743 -0.03056,-6.23657 0.504523,-8.16952 2.550422,-9.21326 4.063965,-2.07328 21.050853,-5.92692 39.011063,-8.85004 12.99972,-2.11578 16.0232,-2.42513 16.73594,-1.71239 1.04639,1.04639 -2.04457,5.29173 -16.69098,22.92457 -12.73578,15.33263 -19.92078,22.82396 -21.7882,22.71713 -0.10864,-0.006 -0.99301,-0.27155 -1.96529,-0.58964 z"
           id="path1692"
           inkscape:connector-curvature="0"
           transform="matrix(0.26458333,0,0,0.26458333,67.232141,155.41071)" />
        <path
           style="fill:#ffccaa;fill-opacity:1;stroke:#ffccaa;stroke-width:0.38178992;stroke-linecap:butt;stroke-linejoin:miter;stroke-miterlimit:4;stroke-dasharray:none;stroke-opacity:1"
           d="m 108.88807,185.13518 c -3.91991,-1.3946 -9.591771,-5.01382 -12.652717,-8.07372 -3.006343,-3.00531 -4.146341,-6.05485 -4.686675,-12.53704 -0.308008,-3.69506 -0.183714,-9.09939 0.251368,-10.92946 0.666761,-2.80458 2.448813,-3.67591 12.720394,-6.21962 10.15354,-2.51447 31.89609,-6.50797 40.70792,-7.47691 5.13358,-0.56448 5.76241,-0.16672 4.15833,2.63031 -2.85577,4.97964 -24.53391,31.11761 -32.31633,38.96475 -3.01446,3.03953 -4.65662,4.28275 -5.64165,4.2711 -0.43894,-0.005 -1.58223,-0.28843 -2.54064,-0.62941 z"
           id="path1694"
           inkscape:connector-curvature="0"
           transform="matrix(0.26458333,0,0,0.26458333,67.232141,155.41071)" />
        <path
           style="fill:#ffccaa;fill-opacity:1;stroke:#ffccaa;stroke-width:0.38178992;stroke-linecap:butt;stroke-linejoin:miter;stroke-miterlimit:4;stroke-dasharray:none;stroke-opacity:1"
           d="m 110.02965,185.62793 c -5.15382,-1.38614 -13.851693,-7.45957 -16.11679,-11.25382 -1.75817,-2.9451 -2.601393,-7.66305 -2.601393,-14.55517 0,-5.99339 0.446859,-7.81519 2.212449,-9.01994 2.944809,-2.00939 19.599884,-5.88181 39.582614,-9.20322 10.41539,-1.73118 15.53366,-2.31012 16.64686,-1.88294 1.11147,0.42651 0.11228,2.71992 -2.94164,6.75186 -4.35922,5.75526 -15.74457,19.58015 -22.38999,27.1875 -4.60204,5.2682 -10.50698,11.18205 -11.82389,11.84175 -0.58478,0.29294 -1.09617,0.52514 -1.13643,0.516 -0.0403,-0.009 -0.68456,-0.18105 -1.43179,-0.38202 z"
           id="path1696"
           inkscape:connector-curvature="0"
           transform="matrix(0.26458333,0,0,0.26458333,67.232141,155.41071)" />
        <path
           style="fill:#ffccaa;fill-opacity:1;stroke:#ffccaa;stroke-width:0.38178992;stroke-linecap:butt;stroke-linejoin:miter;stroke-miterlimit:4;stroke-dasharray:none;stroke-opacity:1"
           d="m 108.98914,185.37407 c -5.16092,-1.74274 -13.054993,-7.4519 -15.078836,-10.90532 -1.819805,-3.10527 -2.644536,-7.46776 -2.684719,-14.20107 -0.04642,-7.77901 0.539982,-9.13766 4.580035,-10.61151 8.42716,-3.07431 44.72576,-10.09662 52.18981,-10.09662 1.6405,0 1.92312,0.0673 2.16261,0.51477 0.73802,1.379 -2.16778,5.46868 -14.61696,20.57216 -10.39463,12.61089 -19.82396,22.94672 -22.49764,24.66045 -1.36337,0.87388 -1.65114,0.87865 -4.0543,0.0671 z"
           id="path1698"
           inkscape:connector-curvature="0"
           transform="matrix(0.26458333,0,0,0.26458333,67.232141,155.41071)" />
        <path
           style="fill:#ffccaa;fill-opacity:1;stroke:#ffccaa;stroke-width:0.38178992;stroke-linecap:butt;stroke-linejoin:miter;stroke-miterlimit:4;stroke-dasharray:none;stroke-opacity:1"
           d="m 93.458041,139.71137 c -2.305703,-0.7292 -4.455998,-2.45321 -6.29427,-5.04646 -2.609476,-3.6812 -3.448068,-6.21111 -3.609382,-10.88899 -0.223303,-6.47548 0.908338,-9.08594 6.824981,-15.74383 2.650703,-2.98278 6.921358,-6.89949 8.168046,-7.49108 0.818905,-0.38859 0.903162,-0.37415 2.927664,0.50175 5.72018,2.47486 26.97452,14.518 39.5864,22.43046 5.84772,3.66876 8.33376,5.4618 8.33376,6.01069 0,0.61019 -2.11218,1.55762 -4.9245,2.20892 -2.68763,0.62242 -11.11123,2.1132 -25.88515,4.58106 -5.90308,0.98606 -13.26738,2.24236 -16.3651,2.79178 -6.001078,1.06438 -7.16695,1.15029 -8.762449,0.6457 z"
           id="path1700"
           inkscape:connector-curvature="0"
           transform="matrix(0.26458333,0,0,0.26458333,67.232141,155.41071)" />
        <path
           style="fill:#ffccaa;fill-opacity:1;stroke:#ffccaa;stroke-width:0.38178992;stroke-linecap:butt;stroke-linejoin:miter;stroke-miterlimit:4;stroke-dasharray:none;stroke-opacity:1"
           d="m 93.89497,139.92179 c -2.506122,-0.66748 -4.596835,-2.17999 -6.48453,-4.69118 -2.843663,-3.7829 -3.943911,-7.15163 -3.988621,-12.21231 -0.04397,-4.97731 0.744515,-7.31282 3.889639,-11.52115 2.034256,-2.72193 9.065041,-9.78786 10.647175,-10.7004 1.137946,-0.65635 1.286626,-0.68174 2.272847,-0.38819 5.09746,1.5173 43.97325,24.07394 48.58121,28.18796 l 0.96136,0.8583 -0.74068,0.61614 c -1.74669,1.45299 -3.34078,1.772 -38.40274,7.68524 -16.28271,2.74609 -15.120672,2.59573 -16.73566,2.16559 z"
           id="path1702"
           inkscape:connector-curvature="0"
           transform="matrix(0.26458333,0,0,0.26458333,67.232141,155.41071)" />
        <path
           style="fill:#ffccaa;fill-opacity:1;stroke:#ff0000;stroke-width:0.38178992;stroke-linecap:butt;stroke-linejoin:miter;stroke-miterlimit:4;stroke-dasharray:none;stroke-opacity:1"
           d="m 93.162281,139.82881 c -3.977635,-1.43196 -8.007036,-6.44497 -9.350872,-11.63348 -0.650904,-2.51311 -0.594692,-8.69439 0.098,-10.77686 1.18903,-3.57461 3.641917,-6.89186 9.098138,-12.30418 3.890414,-3.85912 5.320742,-4.95078 6.486273,-4.9505 2.17113,5.3e-4 25.08462,12.7253 41.83985,23.23531 5.54345,3.47724 8.31712,5.49463 8.30617,6.04141 -0.0208,1.03802 -2.44434,1.96008 -8.03671,3.05762 -6.13454,1.20396 -45.353928,7.82015 -46.295585,7.80992 -0.461645,-0.005 -1.427016,-0.22067 -2.145268,-0.47924 z"
           id="path1704"
           inkscape:connector-curvature="0"
           transform="matrix(0.26458333,0,0,0.26458333,67.232141,155.41071)" />
        <path
           style="fill:#ffccaa;fill-opacity:1;stroke:#ffccaa;stroke-width:0.38178992;stroke-linecap:butt;stroke-linejoin:miter;stroke-miterlimit:4;stroke-dasharray:none;stroke-opacity:1"
           d="m 152.80336,119.11721 c -3.27952,-0.86029 -8.68301,-3.53429 -19.8231,-9.80975 -24.57664,-13.844576 -29.78862,-17.901973 -29.79703,-23.196259 -0.003,-2.066284 0.65464,-4.081086 2.65245,-8.12271 1.41673,-2.866078 1.94789,-3.661012 3.60698,-5.398191 5.15873,-5.401562 11.33534,-7.78858 19.31558,-7.464718 6.60603,0.268093 7.70057,1.449148 11.87595,12.814663 3.02695,8.239458 12.48214,34.658545 13.5883,37.967555 0.92565,2.76901 1.06734,3.72399 0.54711,3.68733 -0.10853,-0.008 -0.99334,-0.22271 -1.96624,-0.47792 z"
           id="path1706"
           inkscape:connector-curvature="0"
           transform="matrix(0.26458333,0,0,0.26458333,67.232141,155.41071)" />
        <path
           style="fill:#ff0000;fill-opacity:1;stroke:#ff0000;stroke-width:0.38178992;stroke-linecap:butt;stroke-linejoin:miter;stroke-miterlimit:4;stroke-dasharray:none;stroke-opacity:1"
           d="m 151.54181,118.83506 c -7.15852,-2.40499 -36.35709,-19.042781 -43.40179,-24.731021 -5.9222,-4.781873 -6.43235,-8.174078 -2.43085,-16.163794 2.50592,-5.003516 5.94178,-8.383153 10.92073,-10.742007 6.31965,-2.994038 15.94187,-3.051006 18.88109,-0.111784 1.98366,1.983665 3.09918,4.694389 11.11773,27.016232 6.07203,16.903144 8.5749,24.178224 8.5749,24.924624 0,0.80488 -0.8223,0.76171 -3.66181,-0.19225 z"
           id="path1708"
           inkscape:connector-curvature="0"
           transform="matrix(0.26458333,0,0,0.26458333,67.232141,155.41071)" />
        <path
           style="fill:#ffccaa;fill-opacity:1;stroke:#ffccaa;stroke-width:0.38178992;stroke-linecap:butt;stroke-linejoin:miter;stroke-miterlimit:4;stroke-dasharray:none;stroke-opacity:1"
           d="m 163.05241,116.01037 c -0.12188,-0.31252 -1.0397,-2.89788 -2.0396,-5.74524 -0.9999,-2.84737 -5.38661,-14.739235 -9.74824,-26.42637 -4.36164,-11.687132 -7.93025,-21.542481 -7.93025,-21.900775 0,-0.513612 0.61975,-1.200583 2.92913,-3.246867 3.804,-3.370624 5.96718,-4.964897 8.23521,-6.069379 3.34283,-1.627892 4.36601,-1.829344 9.29125,-1.829344 5.13284,0 6.24505,0.253367 10.98895,2.503355 6.98042,3.310749 8.95405,5.439908 8.9591,9.6651 0.005,3.800442 -1.22421,8.177068 -5.97802,21.292848 -6.31773,17.430642 -10.97421,28.753092 -13.00837,31.630402 -0.59605,0.84311 -1.3964,0.90259 -1.69916,0.12627 z"
           id="path1710"
           inkscape:connector-curvature="0"
           transform="matrix(0.26458333,0,0,0.26458333,67.232141,155.41071)" />
        <path
           style="fill:#ffccaa;fill-opacity:1;stroke:#ffccaa;stroke-width:0.38178992;stroke-linecap:butt;stroke-linejoin:miter;stroke-miterlimit:4;stroke-dasharray:none;stroke-opacity:1"
           d="m 162.64162,115.25275 c -0.76862,-2.36296 -5.25206,-14.64798 -10.34543,-28.347401 -7.93256,-21.335902 -8.96187,-24.197158 -8.96187,-24.912175 0,-1.285177 6.81198,-7.142955 10.64645,-9.155131 3.66171,-1.921515 4.24928,-2.045648 9.68287,-2.045648 5.70966,0 6.6788,0.227559 11.8693,2.786997 5.02636,2.4785 7.34599,4.451198 7.99156,6.796301 0.64321,2.336553 0.20751,6.033044 -1.32274,11.222024 -2.47492,8.392345 -11.86828,33.239733 -15.27717,40.411283 -1.64982,3.47086 -2.4321,4.56958 -3.2535,4.56958 -0.49852,0 -0.67007,-0.22094 -1.02947,-1.32583 z"
           id="path1712"
           inkscape:connector-curvature="0"
           transform="matrix(0.26458333,0,0,0.26458333,67.232141,155.41071)" />
        <path
           style="fill:#ffccaa;fill-opacity:1;stroke:#ffccaa;stroke-width:0.38178992;stroke-linecap:butt;stroke-linejoin:miter;stroke-miterlimit:4;stroke-dasharray:none;stroke-opacity:1"
           d="m 174.98992,119.22244 c -0.0816,-0.21263 -0.0754,-0.75243 0.0139,-1.19956 0.23464,-1.17601 4.66469,-14.91162 8.44786,-26.193038 6.74258,-20.106371 7.76569,-22.569161 10.62745,-25.581853 2.56711,-2.702496 3.66815,-3.207494 6.99327,-3.207494 9.5025,0 18.89238,6.18188 22.29419,14.677496 1.08749,2.715872 1.60551,6.031637 1.499,9.594819 -0.0859,2.872148 -0.10597,2.959867 -0.97156,4.238793 -1.04154,1.538895 -3.35826,3.458313 -7.19734,5.963042 -8.42975,5.499825 -26.87648,16.025795 -34.35188,19.601685 -4.93582,2.36107 -7.0272,2.95995 -7.35485,2.10611 z"
           id="path1714"
           inkscape:connector-curvature="0"
           transform="matrix(0.26458333,0,0,0.26458333,67.232141,155.41071)" />
        <path
           style="fill:#ffccaa;fill-opacity:1;stroke:#ffccaa;stroke-width:0.38178992;stroke-linecap:butt;stroke-linejoin:miter;stroke-miterlimit:4;stroke-dasharray:none;stroke-opacity:1"
           d="m 174.90159,118.75752 c 0,-1.098 1.47802,-5.85888 6.8701,-22.129453 8.6108,-25.983054 9.85435,-28.864866 13.7878,-31.952099 1.72462,-1.353592 3.11927,-1.762608 5.87372,-1.72261 6.32881,0.0919 12.73362,2.942151 17.30014,7.698853 2.81811,2.935483 4.42602,5.629018 5.43171,9.099078 0.78921,2.723155 1.00233,9.544889 0.34251,10.963527 -1.36622,2.937435 -7.94501,7.476947 -24.85724,17.152054 -12.85316,7.353 -21.11729,11.45749 -23.53707,11.69 l -1.21167,0.11643 z"
           id="path1716"
           inkscape:connector-curvature="0"
           transform="matrix(0.26458333,0,0,0.26458333,67.232141,155.41071)" />
        <path
           style="fill:#ffccaa;fill-opacity:1;stroke:#ffccaa;stroke-width:0.38178992;stroke-linecap:butt;stroke-linejoin:miter;stroke-miterlimit:4;stroke-dasharray:none;stroke-opacity:1"
           d="m 231.72267,140.52376 c -24.1618,-4.14845 -47.14598,-8.91603 -50.37846,-10.44994 -1.32683,-0.62962 -1.22603,-1.51519 0.3521,-3.09331 1.50146,-1.50146 4.29255,-3.23495 15.83007,-9.83172 24.04935,-13.75062 31.81334,-17.576681 34.76807,-17.13359 1.51277,0.22685 3.86172,1.66732 6.13571,3.76267 3.18951,2.93893 5.31165,6.43725 6.46299,10.65414 0.46248,1.69386 0.55385,2.71399 0.56549,6.31345 0.0153,4.72455 -0.29187,6.40886 -1.864,10.2213 -1.44839,3.51238 -4.07506,7.5918 -5.89423,9.15421 -0.72483,0.62251 -0.9802,0.68548 -2.69474,0.66448 -1.04172,-0.0128 -2.51907,-0.13053 -3.283,-0.26169 z"
           id="path1718"
           inkscape:connector-curvature="0"
           transform="matrix(0.26458333,0,0,0.26458333,67.232141,155.41071)" />
        <path
           style="fill:#ff0000;fill-opacity:1;stroke:#ff0000;stroke-width:1.51181102;stroke-linecap:butt;stroke-linejoin:miter;stroke-miterlimit:4;stroke-dasharray:none;stroke-opacity:1"
           d="m 231.97521,140.64875 c -14.44393,-2.39546 -35.57177,-6.54534 -44.92459,-8.82398 -6.24416,-1.52126 -7.26402,-2.08802 -6.48124,-3.60176 0.89631,-1.73325 4.23786,-3.93524 17.18691,-11.32567 19.94638,-11.38403 28.98796,-16.04631 32.57974,-16.79969 1.72758,-0.362365 3.13379,-0.0347 5.00355,1.16595 4.42522,2.84156 7.56144,6.90827 9.27901,12.03198 0.72098,2.15075 0.81732,2.79127 0.93068,6.18719 0.18408,5.5151 -0.41302,8.5302 -2.60336,13.14592 -1.18277,2.49244 -3.63025,6.12364 -4.90158,7.27221 -1.01842,0.92009 -1.02283,0.92129 -3.22879,0.88695 -1.21495,-0.0189 -2.49309,-0.0815 -2.84033,-0.1391 z"
           id="path1720"
           inkscape:connector-curvature="0"
           transform="matrix(0.26458333,0,0,0.26458333,67.232141,155.41071)" />
        <path
           style="fill:#ffccaa;fill-opacity:1;stroke:#ffccaa;stroke-width:0.38178992;stroke-linecap:butt;stroke-linejoin:miter;stroke-miterlimit:4;stroke-dasharray:none;stroke-opacity:1"
           d="m 216.29374,183.27447 c -2.00536,-0.64159 -3.99454,-2.04479 -7.01755,-4.95032 -6.97761,-6.70644 -24.41884,-27.76815 -29.87209,-36.07299 -1.20546,-1.83581 -1.42459,-2.31929 -1.12674,-2.48597 1.71796,-0.96142 38.60325,4.60628 49.87638,7.52866 8.25557,2.14012 11.73916,7.04991 10.8944,15.35464 -0.58514,5.75244 -2.43723,9.42801 -6.91546,13.72411 -4.14319,3.97468 -10.57222,7.42779 -13.71696,7.36754 -0.3899,-0.007 -1.3448,-0.21702 -2.12198,-0.46567 z"
           id="path1722"
           inkscape:connector-curvature="0"
           transform="matrix(0.26458333,0,0,0.26458333,67.232141,155.41071)" />
        <path
           style="fill:#ffccaa;fill-opacity:1;stroke:#ffccaa;stroke-width:0.38178992;stroke-linecap:butt;stroke-linejoin:miter;stroke-miterlimit:4;stroke-dasharray:none;stroke-opacity:1"
           d="m 215.69368,183.21712 c -1.9385,-0.786 -4.28901,-2.59133 -7.34524,-5.64158 -9.5155,-9.49692 -31.12186,-36.41768 -30.29816,-37.75045 0.24762,-0.40066 2.80362,-0.32133 7.70773,0.23923 14.81144,1.69299 39.06724,5.85503 43.98717,7.54774 5.32276,1.8313 8.47493,5.12492 9.33262,9.75143 0.3742,2.01851 0.11658,6.56858 -0.50955,8.99936 -1.32529,5.14514 -5.18266,9.96152 -11.00317,13.73875 -5.34971,3.4717 -8.77555,4.37077 -11.8714,3.11552 z"
           id="path1724"
           inkscape:connector-curvature="0"
           transform="matrix(0.26458333,0,0,0.26458333,67.232141,155.41071)" />
        <path
           style="fill:#ffccaa;fill-opacity:1;stroke:#ffccaa;stroke-width:0.38178992;stroke-linecap:butt;stroke-linejoin:miter;stroke-miterlimit:4;stroke-dasharray:none;stroke-opacity:1"
           d="m 178.97073,209.13904 c -4.06533,-0.92357 -6.20791,-1.95552 -8.12244,-3.91211 -1.67955,-1.71646 -2.39433,-3.13754 -2.82431,-5.61506 -0.42636,-2.45673 -0.41702,-29.37753 0.0127,-36.44 0.37897,-6.22904 0.98188,-12.29145 1.38472,-13.92373 0.26133,-1.05886 0.3982,-1.23951 0.99094,-1.30782 0.58475,-0.0674 1.20405,0.4242 4.13589,3.283 8.09898,7.8972 26.78646,29.58466 31.45959,36.50993 1.05977,1.57052 1.33384,2.19577 1.42049,3.24064 0.284,3.4246 -2.74592,9.26954 -7.00153,13.50647 -2.44662,2.43588 -4.17706,3.43184 -7.46866,4.29862 -2.6868,0.70751 -11.46343,0.93344 -13.98734,0.36006 z"
           id="path1726"
           inkscape:connector-curvature="0"
           transform="matrix(0.26458333,0,0,0.26458333,67.232141,155.41071)" />
        <path
           style="fill:#ffccaa;fill-opacity:1;stroke:#ffccaa;stroke-width:0.38178992;stroke-linecap:butt;stroke-linejoin:miter;stroke-miterlimit:4;stroke-dasharray:none;stroke-opacity:1"
           d="m 178.9587,209.23761 c -1.99222,-0.39075 -4.98969,-1.49874 -6.17048,-2.28086 -1.77237,-1.17397 -3.5866,-3.31231 -4.19903,-4.94917 -0.92524,-2.47292 -1.08166,-6.29321 -0.92833,-22.67327 0.13643,-14.57618 0.41976,-20.98319 1.20052,-27.14785 0.52804,-4.16926 0.90197,-4.86508 2.24208,-4.17209 3.63768,1.88113 31.73133,33.99717 35.70073,40.8123 1.16908,2.00722 0.83888,4.71974 -1.0271,8.43743 -1.38972,2.7688 -3.21089,5.22794 -5.49718,7.42287 -2.92098,2.80425 -5.45058,4.01245 -9.54983,4.5612 -2.32893,0.31176 -10.16388,0.30474 -11.77138,-0.0106 z"
           id="path1728"
           inkscape:connector-curvature="0"
           transform="matrix(0.26458333,0,0,0.26458333,67.232141,155.41071)" />
        <path
           style="fill:#ffccaa;fill-opacity:1;stroke:#ffccaa;stroke-width:0.38178992;stroke-linecap:butt;stroke-linejoin:miter;stroke-miterlimit:4;stroke-dasharray:none;stroke-opacity:1"
           d="m 138.66237,210.82525 c -1.58554,-0.55078 -2.97684,-1.51125 -5.60915,-3.8722 -4.75632,-4.26601 -9.4649,-10.31145 -10.31869,-13.24838 -0.45254,-1.55668 -0.23096,-2.76669 0.85107,-4.64765 4.74413,-8.24697 23.55884,-31.51761 32.19045,-39.81417 2.7932,-2.68478 3.54142,-3.15229 4.11964,-2.57407 0.87377,0.87377 1.3662,12.24927 1.36485,31.52911 -0.002,22.24927 -0.41048,25.37309 -3.70048,28.26906 -3.84928,3.38827 -14.57159,5.86112 -18.89769,4.3583 z"
           id="path1730"
           inkscape:connector-curvature="0"
           transform="matrix(0.26458333,0,0,0.26458333,67.232141,155.41071)" />
        <path
           style="fill:#ff0000;fill-opacity:1;stroke:#ff0000;stroke-width:0.38178992;stroke-linecap:butt;stroke-linejoin:miter;stroke-miterlimit:4;stroke-dasharray:none;stroke-opacity:1"
           d="m 138.60993,210.93168 c -1.71743,-0.56458 -4.27613,-2.5511 -7.65765,-5.94525 -3.63393,-3.6475 -6.14219,-6.86117 -7.57734,-9.70833 -1.20982,-2.40012 -1.25378,-3.28739 -0.26631,-5.37469 3.3183,-7.01423 26.10115,-35.17056 34.08402,-42.12296 1.97334,-1.71861 2.67812,-1.82417 3.04029,-0.45535 0.88016,3.32665 1.46387,26.14617 1.04486,40.84804 -0.35097,12.31426 -0.62597,14.33447 -2.29411,16.8529 -1.41404,2.13481 -5.01722,4.0741 -9.99638,5.38022 -3.0959,0.8121 -8.64985,1.09331 -10.37738,0.52542 z"
           id="path1732"
           inkscape:connector-curvature="0"
           transform="matrix(0.26458333,0,0,0.26458333,67.232141,155.41071)" />
        <path
           d="m 59.185617,-23.240871 c -1.78684,-0.0352 -3.47644,0.62526 -5.02247,1.98268 -1.32827,1.16625 -2.56152,1.67474 -4.84038,1.99685 -1.68174,0.23771 -3.80596,0.81959 -4.72102,1.29279 -1.7849,0.923 -3.62291,4.21096 -3.64268,6.51657 -0.007,0.83065 -0.70223,1.98666 -1.86838,3.10756 -1.02131,0.98167 -2.21258,2.46416 -2.64729,3.29469 -1.02607,1.96046 -0.6659,5.8943 0.72125,7.87612 0.85411,1.22039 0.99968,2.06466 0.80218,4.65831 -0.37891,4.97679 1.25916,7.56195 5.81656,9.177 0.9767,0.34613 2.45272,1.59641 3.46161,2.93357 0.96718,1.28187 2.56738,2.73897 3.55669,3.23704 2.21992,1.1176 3.42416,1.13375 6.49836,0.09 1.95203,-0.66273 2.68698,-0.69938 3.90163,-0.19625 0.85393,0.35373 2.83145,0.52285 4.6057,0.39452 2.52481,-0.18263 3.39421,-0.49809 4.62492,-1.67719 0.83361,-0.79864 1.78521,-2.10352 2.1152,-2.90019 0.34823,-0.8407 1.28746,-1.71953 2.23862,-2.09396 4.85223,-1.9101 6.84514,-4.85489 6.36887,-9.41169 -0.25594,-2.44874 -0.11728,-3.43312 0.71316,-5.06091 1.2155,-2.38258 1.3471,-6.16467 0.28527,-8.21803 -0.41049,-0.79381 -1.55524,-2.05971 -2.5431,-2.81319 -1.30255,-0.9935 -1.88894,-1.91857 -2.13341,-3.36551 -0.77164,-4.56729 -3.91813,-7.34171 -8.33133,-7.34504 -1.97087,-0.001 -3.04874,-0.31859 -4.35685,-1.28369 -1.93281,-1.42598 -3.81627,-2.15687 -5.60311,-2.19208 z m -0.16893,2.4348 c 1.02323,-0.0258 2.08294,0.22088 3.09945,0.74654 2.93812,1.51935 2.94496,1.73177 0.29943,8.93929 -2.073,5.64768 -3.34122,8.43518 -3.34122,7.34403 0,-0.14994 -1.18019,-3.40058 -2.62301,-7.22366 l -2.62302,-6.95154 1.59526,-1.42531 c 1.02245,-0.91356 2.27752,-1.39625 3.59311,-1.42935 z m 9.9549,3.16728 c 0.64774,-0.0191 1.4185,0.16788 2.37012,0.53007 2.39052,0.90983 3.90453,2.95259 3.98459,5.37854 0.0632,1.91412 0.0598,1.91675 -6.04719,5.48476 -3.36053,1.9634 -6.44284,3.56984 -6.84938,3.56984 -0.41541,0 -0.42484,-0.51672 0.0587,-2.05349 0.10281,0.0604 -0.49101,1.07807 0,0 0.40402,-0.90467 4.62909,-12.89481 4.53209,-12.54335 -1.01916,2.87207 -6.17676,16.1094 -5.26419,15.28667 0.73816,-2.02784 3.67688,-10.95511 4.12493,-12.21573 0.83795,-2.35765 1.66532,-3.39541 3.09036,-3.43733 z m -19.36558,0.46927 c 1.99782,0.011 2.45218,0.42749 3.37967,3.09946 0.44495,1.28187 1.52966,4.31174 2.41058,6.73304 0.88095,2.42131 1.6028,4.46065 1.60436,4.53186 0.01,0.49844 -1.7191,-0.11953 -4.14138,-1.48095 -10.60066,-5.95794 -10.67993,-6.04363 -8.97368,-9.6393 0.92913,-1.95799 3.22058,-3.25782 5.72045,-3.24411 z m -7.49476,9.31457 c 0.8344,0 13.33762,7.28102 13.33762,7.76687 0,0.49309 -0.80587,0.68067 -7.7689,1.80971 -2.70617,0.4388 -5.44989,0.91689 -6.09777,1.06215 -1.7769,0.39844 -3.74283,-1.9636 -3.74283,-4.49746 0,-1.56427 0.4045,-2.44161 1.87344,-4.06754 1.03014,-1.14026 2.10942,-2.07373 2.39844,-2.07373 z m 35.0288,0 c 0.55314,0 1.60938,0.71781 2.34686,1.59424 1.67107,1.98596 1.80053,5.1552 0.31055,7.59895 -0.56447,0.9258 -1.20444,1.6658 -1.42227,1.64381 -3.08534,-0.31137 -14.34445,-2.56565 -14.72752,-2.94874 -0.33936,-0.33935 0.42294,-1.03324 2.24772,-2.0454 1.51858,-0.84232 4.44389,-2.5016 6.50038,-3.68719 2.05649,-1.18559 4.19115,-2.15567 4.74428,-2.15567 z m -21.9461,10.45465 c 1.12016,0.0533 0.0864,1.22937 -4.54399,6.83622 -2.49725,3.02387 -4.82793,5.48861 -5.17927,5.47667 -1.26999,-0.0432 -4.15695,-1.91614 -4.83229,-3.13488 -0.76611,-1.38258 -0.94255,-5.02438 -0.29336,-6.04719 0.38164,-0.60129 7.02197,-2.08566 13.20915,-2.95279 0.57274,-0.0803 1.04302,-0.15487 1.38788,-0.175 0.0934,-0.005 0.1772,-0.007 0.25188,-0.003 z m 8.21094,0.005 c 2.08556,0.0695 9.99288,1.28373 12.91376,2.03529 2.32632,0.59857 3.2359,2.16176 2.75351,4.73316 -0.33456,1.78333 -1.69201,3.38556 -3.77823,4.46003 -2.27168,1.16998 -3.02289,0.67933 -7.89534,-5.15397 -2.63545,-3.15515 -4.6587,-5.86976 -4.49544,-6.03303 0.0196,-0.0197 0.0762,-0.033 0.1659,-0.0394 0.0841,-0.006 0.1968,-0.007 0.33584,-0.002 z m -5.34818,1.77215 c 0.0373,-0.009 0.0669,-0.008 0.088,0.005 0.2265,0.14001 0.41171,3.58408 0.41171,7.65358 0,6.64175 -0.10165,7.49114 -0.99539,8.29997 -0.54762,0.49557 -1.94346,1.02821 -3.10149,1.18354 -1.93135,0.25904 -2.27663,0.11067 -4.18286,-1.79555 -1.14343,-1.14343 -2.07879,-2.5817 -2.07879,-3.19758 0,-1.20181 8.70165,-11.86289 9.85881,-12.14902 z m 2.84959,0.36416 c 0.44557,-0.14794 8.4936,9.00813 9.74248,11.08382 0.49703,0.82608 -0.8965,3.48774 -2.36405,4.51567 -1.71751,1.20298 -5.84759,1.06349 -7.15285,-0.24176 -0.96841,-0.96839 -1.03908,-1.60178 -0.90636,-8.11486 0.0874,-4.28762 0.35501,-7.13472 0.68078,-7.24287 z"
           style="fill:#333333;fill-opacity:1;stroke-width:0.51792622"
           id="path134"
           inkscape:connector-curvature="0"
           sodipodi:nodetypes="csccccccccccccccsscccccccscccccccscccsccccscccccccccccsscscssccccccscccccccccccccccccccccccsccsccccccc"
           clip-path="url(#clipPath1058)"
           transform="translate(51.385378,189.71461)" />
      </g>
    </g>
  </g>
</svg>
