<?xml version="1.0" encoding="UTF-8" standalone="no"?>
<!-- Created with Inkscape (http://www.inkscape.org/) -->

<svg
   xmlns:dc="http://purl.org/dc/elements/1.1/"
   xmlns:cc="http://creativecommons.org/ns#"
   xmlns:rdf="http://www.w3.org/1999/02/22-rdf-syntax-ns#"
   xmlns:svg="http://www.w3.org/2000/svg"
   xmlns="http://www.w3.org/2000/svg"
   xmlns:sodipodi="http://sodipodi.sourceforge.net/DTD/sodipodi-0.dtd"
   xmlns:inkscape="http://www.inkscape.org/namespaces/inkscape"
   width="115.00001mm"
   height="70mm"
   viewBox="0 0 115.00001 70"
   version="1.1"
   id="svg1079"
   inkscape:version="0.92.4 (5da689c313, 2019-01-14)"
   sodipodi:docname="31.2.svg">
  <defs
     id="defs1073">
    <clipPath
       clipPathUnits="userSpaceOnUse"
       id="clipPath1058">
      <ellipse
         style="fill:#ffcc00;fill-opacity:1;stroke:#ffcc00;stroke-width:5.25652218;stroke-linecap:butt;stroke-linejoin:miter;stroke-miterlimit:4;stroke-dasharray:none;stroke-opacity:1"
         id="ellipse1060"
         cx="59.323036"
         cy="0.8915832"
         rx="27.6078"
         ry="26.313755" />
    </clipPath>
  </defs>
  <sodipodi:namedview
     id="base"
     pagecolor="#ffffff"
     bordercolor="#666666"
     borderopacity="1.0"
     inkscape:pageopacity="0.0"
     inkscape:pageshadow="2"
     inkscape:zoom="0.49497475"
     inkscape:cx="188.03027"
     inkscape:cy="-20.873176"
     inkscape:document-units="mm"
     inkscape:current-layer="g2384"
     showgrid="false"
     fit-margin-top="0"
     fit-margin-left="0"
     fit-margin-right="0"
     fit-margin-bottom="0"
     inkscape:window-width="1920"
     inkscape:window-height="1001"
     inkscape:window-x="-9"
     inkscape:window-y="-9"
     inkscape:window-maximized="1"
     inkscape:snap-global="true"
     showguides="false"
     inkscape:snap-bbox="true"
     inkscape:snap-bbox-midpoints="true" />
  <metadata
     id="metadata1076">
    <rdf:RDF>
      <cc:Work
         rdf:about="">
        <dc:format>image/svg+xml</dc:format>
        <dc:type
           rdf:resource="http://purl.org/dc/dcmitype/StillImage" />
        <dc:title></dc:title>
      </cc:Work>
    </rdf:RDF>
  </metadata>
  <g
     inkscape:label="Ebene 1"
     inkscape:groupmode="layer"
     id="layer1"
     transform="translate(-73.74319,-156.46748)">
    <g
       id="g1782">
      <g
         transform="matrix(1.0037152,0,0,1.0038501,43.458405,92.506428)"
         style="fill:#040f4f;fill-opacity:1;stroke:none;stroke-width:0.1;stroke-linecap:round;stroke-linejoin:round;stroke-miterlimit:4;stroke-dasharray:none"
         id="g2384">
        <path
           sodipodi:nodetypes="ccsccc"
           inkscape:connector-curvature="0"
           id="path2379"
           d="m 30.172684,63.71574 h 99.675686 c 5.78011,6.133058 8.76542,12.932231 11.99785,19.014489 5.50042,10.349797 4.05232,39.986851 -11.99785,50.717041 H 30.172684 Z"
           style="fill:#ffd42a;fill-opacity:1;stroke:none;stroke-width:0.1;stroke-linecap:butt;stroke-linejoin:miter;stroke-miterlimit:4;stroke-dasharray:none;stroke-opacity:1" />
        <g
           transform="matrix(0.41300851,0,0,0.41295301,336.04594,-131.78642)"
           id="g2256">
          <path
             style="fill:#333333;fill-opacity:1;stroke-width:1.4461602"
             d="m -581.73919,590.17321 c 0.82343,-1.53849 1.47638,-3.97888 1.45104,-5.42311 -0.041,-2.48958 -0.14553,-2.4945 -1.96707,-0.095 -3.98055,5.24359 -11.00232,2.15083 -11.00232,-4.84602 0,-3.63343 11.87588,-21.596 14.22263,-21.51203 2.13084,0.0762 13.25436,18.32813 13.25436,21.74831 0,6.74972 -5.41763,9.22958 -10.37074,4.74708 -2.93951,-2.66021 -3.36249,-1.12901 -1.23432,4.46848 1.2818,3.37139 1.07943,3.70954 -2.22014,3.70954 -3.14119,0 -3.4287,-0.37693 -2.13344,-2.79725 z"
             id="path23-5-8-3-7"
             inkscape:connector-curvature="0"
             sodipodi:nodetypes="cccscsccscc" />
          <rect
             y="504.91324"
             x="-654.83276"
             height="105.88364"
             width="105.88364"
             id="rect107-9-9-0"
             style="fill:none;fill-opacity:1;stroke:#000000;stroke-width:1.3595767;stroke-linecap:round;stroke-linejoin:bevel;stroke-miterlimit:4;stroke-dasharray:none;stroke-opacity:1;paint-order:stroke markers fill" />
          <path
             style="fill:#333333;fill-opacity:1;stroke-width:1.4461602"
             d="m -630.27964,548.78007 c 0.82343,-1.53849 1.47638,-3.97888 1.45104,-5.42311 -0.041,-2.48958 -0.14553,-2.4945 -1.96707,-0.095 -3.98055,5.24359 -11.00232,2.15083 -11.00232,-4.84602 0,-3.63343 11.87588,-21.596 14.22263,-21.51203 2.13084,0.0762 13.25436,18.32813 13.25436,21.74831 0,6.74972 -5.41763,9.22958 -10.37074,4.74708 -2.93951,-2.66021 -3.36249,-1.12901 -1.23432,4.46848 1.2818,3.37139 1.07943,3.70954 -2.22014,3.70954 -3.14119,0 -3.4287,-0.37693 -2.13344,-2.79725 z"
             id="path23-5-8-3-4-3"
             inkscape:connector-curvature="0"
             sodipodi:nodetypes="cccscsccscc" />
        </g>
      </g>
      <g
         id="g19973"
         transform="translate(11.386905,-1.1711297)" />
    </g>
  </g>
</svg>
