<?xml version="1.0" encoding="UTF-8" standalone="no"?>
<!-- Created with Inkscape (http://www.inkscape.org/) -->

<svg
   xmlns:dc="http://purl.org/dc/elements/1.1/"
   xmlns:cc="http://creativecommons.org/ns#"
   xmlns:rdf="http://www.w3.org/1999/02/22-rdf-syntax-ns#"
   xmlns:svg="http://www.w3.org/2000/svg"
   xmlns="http://www.w3.org/2000/svg"
   xmlns:sodipodi="http://sodipodi.sourceforge.net/DTD/sodipodi-0.dtd"
   xmlns:inkscape="http://www.inkscape.org/namespaces/inkscape"
   width="115.00001mm"
   height="70mm"
   viewBox="0 0 115.00001 70"
   version="1.1"
   id="svg1079"
   inkscape:version="0.92.4 (5da689c313, 2019-01-14)"
   sodipodi:docname="31.6.svg">
  <defs
     id="defs1073">
    <clipPath
       clipPathUnits="userSpaceOnUse"
       id="clipPath1058">
      <ellipse
         style="fill:#ffcc00;fill-opacity:1;stroke:#ffcc00;stroke-width:5.25652218;stroke-linecap:butt;stroke-linejoin:miter;stroke-miterlimit:4;stroke-dasharray:none;stroke-opacity:1"
         id="ellipse1060"
         cx="59.323036"
         cy="0.8915832"
         rx="27.6078"
         ry="26.313755" />
    </clipPath>
  </defs>
  <sodipodi:namedview
     id="base"
     pagecolor="#ffffff"
     bordercolor="#666666"
     borderopacity="1.0"
     inkscape:pageopacity="0.0"
     inkscape:pageshadow="2"
     inkscape:zoom="0.49497475"
     inkscape:cx="188.03028"
     inkscape:cy="-20.873151"
     inkscape:document-units="mm"
     inkscape:current-layer="g2384"
     showgrid="false"
     fit-margin-top="0"
     fit-margin-left="0"
     fit-margin-right="0"
     fit-margin-bottom="0"
     inkscape:window-width="1920"
     inkscape:window-height="1001"
     inkscape:window-x="-9"
     inkscape:window-y="-9"
     inkscape:window-maximized="1"
     inkscape:snap-global="true"
     showguides="false"
     inkscape:snap-bbox="true"
     inkscape:snap-bbox-midpoints="true" />
  <metadata
     id="metadata1076">
    <rdf:RDF>
      <cc:Work
         rdf:about="">
        <dc:format>image/svg+xml</dc:format>
        <dc:type
           rdf:resource="http://purl.org/dc/dcmitype/StillImage" />
        <dc:title></dc:title>
      </cc:Work>
    </rdf:RDF>
  </metadata>
  <g
     inkscape:label="Ebene 1"
     inkscape:groupmode="layer"
     id="layer1"
     transform="translate(-73.743187,-156.46748)">
    <g
       id="g1782">
      <g
         transform="matrix(1.0037152,0,0,1.0038501,43.458405,92.506428)"
         style="fill:#040f4f;fill-opacity:1;stroke:none;stroke-width:0.1;stroke-linecap:round;stroke-linejoin:round;stroke-miterlimit:4;stroke-dasharray:none"
         id="g2384">
        <path
           sodipodi:nodetypes="ccsccc"
           inkscape:connector-curvature="0"
           id="path2379"
           d="m 30.172684,63.71574 h 99.675686 c 5.78011,6.133058 8.76542,12.932231 11.99785,19.014489 5.50042,10.349797 4.05232,39.986851 -11.99785,50.717041 H 30.172684 Z"
           style="fill:#ffd42a;fill-opacity:1;stroke:none;stroke-width:0.1;stroke-linecap:butt;stroke-linejoin:miter;stroke-miterlimit:4;stroke-dasharray:none;stroke-opacity:1" />
        <g
           transform="matrix(1.9809366,0,0,1.9806704,513.79382,-192.01618)"
           id="g2491">
          <path
             style="fill:#333333;fill-opacity:1;stroke-width:0.30151215"
             d="m -211.98378,153.70827 0.12821,-1.43218 -0.47633,0.82915 c -0.84729,1.47491 -2.86916,0.91977 -2.86916,-0.7878 0,-0.81941 0.93798,-1.46685 1.85841,-1.28276 0.82671,0.16535 1.17007,-0.18672 0.55368,-0.56767 -0.55733,-0.34445 -0.3402,-1.91791 0.3129,-2.26743 1.42676,-0.76358 2.74114,0.61826 2.00042,2.10307 l -0.43338,0.86873 0.99019,-0.16068 c 0.8284,-0.13444 1.07467,-0.0319 1.50683,0.62772 0.48013,0.73279 0.48173,0.84161 0.0226,1.54219 -0.66516,1.01518 -1.76647,0.9827 -2.55588,-0.0753 -0.58581,-0.78518 -0.61911,-0.79423 -0.62816,-0.17039 -0.006,0.36233 0.12279,1.0068 0.2845,1.43218 0.25004,0.65769 0.21048,0.77341 -0.26449,0.77341 -0.48327,0 -0.54125,-0.19292 -0.43037,-1.43218 z"
             id="path23-1-3-0"
             inkscape:connector-curvature="0"
             sodipodi:nodetypes="cccsccccccccsccscc" />
          <path
             style="fill:#333333;fill-opacity:1;stroke-width:0.30151215"
             d="m -220.44372,145.40366 c 0.17167,-0.32076 0.30781,-0.82956 0.30252,-1.13066 -0.009,-0.51905 -0.0304,-0.52008 -0.41011,-0.0199 -0.82992,1.09325 -2.2939,0.44844 -2.2939,-1.01035 0,-0.75754 2.47603,-4.50258 2.9653,-4.48508 0.44426,0.0159 2.76343,3.82126 2.76343,4.53434 0,1.40726 -1.12953,1.9243 -2.16222,0.98972 -0.61286,-0.55463 -0.70105,-0.23538 -0.25735,0.93165 0.26725,0.7029 0.22506,0.7734 -0.46287,0.7734 -0.65491,0 -0.71486,-0.0786 -0.4448,-0.5832 z"
             id="path23-5-8-6-6"
             inkscape:connector-curvature="0"
             sodipodi:nodetypes="cccscsccscc" />
          <rect
             y="135.67891"
             x="-226.2563"
             height="22.075842"
             width="22.075842"
             id="rect107-9-8-5"
             style="fill:none;fill-opacity:1;stroke:#000000;stroke-width:0.28346023;stroke-linecap:round;stroke-linejoin:bevel;stroke-miterlimit:4;stroke-dasharray:none;stroke-opacity:1;paint-order:stroke markers fill" />
        </g>
      </g>
      <g
         id="g19973"
         transform="translate(11.386905,-1.1711297)" />
    </g>
  </g>
</svg>
