<?xml version="1.0" encoding="UTF-8" standalone="no"?>
<!-- Created with Inkscape (http://www.inkscape.org/) -->

<svg
   xmlns:dc="http://purl.org/dc/elements/1.1/"
   xmlns:cc="http://creativecommons.org/ns#"
   xmlns:rdf="http://www.w3.org/1999/02/22-rdf-syntax-ns#"
   xmlns:svg="http://www.w3.org/2000/svg"
   xmlns="http://www.w3.org/2000/svg"
   xmlns:sodipodi="http://sodipodi.sourceforge.net/DTD/sodipodi-0.dtd"
   xmlns:inkscape="http://www.inkscape.org/namespaces/inkscape"
   width="115.00001mm"
   height="70mm"
   viewBox="0 0 115.00001 70"
   version="1.1"
   id="svg1079"
   inkscape:version="0.92.4 (5da689c313, 2019-01-14)"
   sodipodi:docname="31.7.svg">
  <defs
     id="defs1073">
    <clipPath
       clipPathUnits="userSpaceOnUse"
       id="clipPath1058">
      <ellipse
         style="fill:#ffcc00;fill-opacity:1;stroke:#ffcc00;stroke-width:5.25652218;stroke-linecap:butt;stroke-linejoin:miter;stroke-miterlimit:4;stroke-dasharray:none;stroke-opacity:1"
         id="ellipse1060"
         cx="59.323036"
         cy="0.8915832"
         rx="27.6078"
         ry="26.313755" />
    </clipPath>
  </defs>
  <sodipodi:namedview
     id="base"
     pagecolor="#ffffff"
     bordercolor="#666666"
     borderopacity="1.0"
     inkscape:pageopacity="0.0"
     inkscape:pageshadow="2"
     inkscape:zoom="0.49497475"
     inkscape:cx="188.03028"
     inkscape:cy="-20.873151"
     inkscape:document-units="mm"
     inkscape:current-layer="g2384"
     showgrid="false"
     fit-margin-top="0"
     fit-margin-left="0"
     fit-margin-right="0"
     fit-margin-bottom="0"
     inkscape:window-width="1920"
     inkscape:window-height="1001"
     inkscape:window-x="-9"
     inkscape:window-y="-9"
     inkscape:window-maximized="1"
     inkscape:snap-global="true"
     showguides="false"
     inkscape:snap-bbox="true"
     inkscape:snap-bbox-midpoints="true" />
  <metadata
     id="metadata1076">
    <rdf:RDF>
      <cc:Work
         rdf:about="">
        <dc:format>image/svg+xml</dc:format>
        <dc:type
           rdf:resource="http://purl.org/dc/dcmitype/StillImage" />
        <dc:title></dc:title>
      </cc:Work>
    </rdf:RDF>
  </metadata>
  <g
     inkscape:label="Ebene 1"
     inkscape:groupmode="layer"
     id="layer1"
     transform="translate(-73.743187,-156.46748)">
    <g
       id="g1782">
      <g
         transform="matrix(1.0037152,0,0,1.0038501,43.458405,92.506428)"
         style="fill:#040f4f;fill-opacity:1;stroke:none;stroke-width:0.1;stroke-linecap:round;stroke-linejoin:round;stroke-miterlimit:4;stroke-dasharray:none"
         id="g2384">
        <path
           sodipodi:nodetypes="ccsccc"
           inkscape:connector-curvature="0"
           id="path2379"
           d="m 30.172684,63.71574 h 99.675686 c 5.78011,6.133058 8.76542,12.932231 11.99785,19.014489 5.50042,10.349797 4.05232,39.986851 -11.99785,50.717041 H 30.172684 Z"
           style="fill:#ffd42a;fill-opacity:1;stroke:none;stroke-width:0.1;stroke-linecap:butt;stroke-linejoin:miter;stroke-miterlimit:4;stroke-dasharray:none;stroke-opacity:1" />
        <g
           transform="matrix(1.9809366,0,0,1.9806704,585.76452,-193.34062)"
           id="g2536">
          <path
             sodipodi:nodetypes="cccsccccccccsccscc"
             inkscape:connector-curvature="0"
             id="path23-1-3-6-4"
             d="m -255.84789,152.63975 0.1282,-1.43218 -0.47633,0.82916 c -0.84728,1.47491 -2.86916,0.91975 -2.86916,-0.78781 0,-0.81941 0.93799,-1.46685 1.85842,-1.28276 0.8267,0.16534 1.17007,-0.18672 0.55367,-0.56767 -0.55733,-0.34445 -0.34021,-1.91791 0.31291,-2.26744 1.42675,-0.76356 2.74113,0.61827 2.00042,2.10308 l -0.43338,0.86872 0.9902,-0.16068 c 0.82838,-0.13443 1.07464,-0.0318 1.50682,0.62773 0.48013,0.73278 0.48172,0.84162 0.0226,1.5422 -0.66515,1.01517 -1.76647,0.9827 -2.55587,-0.0754 -0.58581,-0.78519 -0.61913,-0.79422 -0.62817,-0.17038 -0.006,0.36233 0.1228,1.00681 0.2845,1.43218 0.25005,0.65768 0.21049,0.77341 -0.26448,0.77341 -0.48328,0 -0.54125,-0.19293 -0.43037,-1.43219 z"
             style="fill:#333333;fill-opacity:1;stroke-width:0.30151215" />
          <rect
             style="fill:none;fill-opacity:1;stroke:#000000;stroke-width:0.28346023;stroke-linecap:round;stroke-linejoin:bevel;stroke-miterlimit:4;stroke-dasharray:none;stroke-opacity:1;paint-order:stroke markers fill"
             id="rect107-9-8-4-3"
             width="22.075842"
             height="22.075842"
             x="-262.58795"
             y="136.3476" />
          <path
             sodipodi:nodetypes="cccsccccccccsccscc"
             inkscape:connector-curvature="0"
             id="path23-1-3-6-4-1"
             d="m -247.14328,145.02163 0.12821,-1.43218 -0.47633,0.82915 c -0.84729,1.47492 -2.86917,0.91977 -2.86917,-0.78779 0,-0.81942 0.938,-1.46684 1.85842,-1.28275 0.82671,0.16533 1.17008,-0.18672 0.55369,-0.56768 -0.55735,-0.34445 -0.34022,-1.9179 0.31289,-2.26743 1.42676,-0.76358 2.74114,0.61826 2.00042,2.10307 l -0.43338,0.86873 0.99021,-0.16069 c 0.82838,-0.13442 1.07463,-0.0318 1.50682,0.62773 0.48012,0.73278 0.48171,0.84161 0.0226,1.5422 -0.66516,1.01517 -1.76648,0.98269 -2.55589,-0.0754 -0.58581,-0.78519 -0.6191,-0.79422 -0.62816,-0.17039 -0.006,0.36233 0.12281,1.00682 0.2845,1.43219 0.25006,0.65768 0.21048,0.7734 -0.26447,0.7734 -0.48329,0 -0.54126,-0.19292 -0.43038,-1.43218 z"
             style="fill:#333333;fill-opacity:1;stroke-width:0.30151215" />
          <path
             sodipodi:nodetypes="cccsccccccccsccscc"
             inkscape:connector-curvature="0"
             id="path23-1-3-6-4-1-3"
             d="m -256.40295,143.29769 0.12821,-1.43218 -0.47633,0.82915 c -0.84729,1.47492 -2.86917,0.91977 -2.86917,-0.78779 0,-0.81942 0.938,-1.46684 1.85842,-1.28275 0.82671,0.16533 1.17008,-0.18672 0.55369,-0.56768 -0.55735,-0.34445 -0.34022,-1.9179 0.31289,-2.26743 1.42676,-0.76358 2.74114,0.61826 2.00042,2.10307 l -0.43338,0.86873 0.99021,-0.16069 c 0.82838,-0.13442 1.07463,-0.0318 1.50682,0.62773 0.48012,0.73278 0.48171,0.84161 0.0226,1.5422 -0.66516,1.01517 -1.76648,0.98269 -2.55589,-0.0754 -0.58581,-0.78519 -0.6191,-0.79422 -0.62816,-0.17039 -0.006,0.36233 0.12281,1.00682 0.2845,1.43219 0.25006,0.65768 0.21048,0.7734 -0.26447,0.7734 -0.48329,0 -0.54126,-0.19292 -0.43038,-1.43218 z"
             style="fill:#333333;fill-opacity:1;stroke-width:0.30151215" />
        </g>
      </g>
      <g
         id="g19973"
         transform="translate(11.386905,-1.1711297)" />
    </g>
  </g>
</svg>
