<?xml version="1.0" encoding="UTF-8" standalone="no"?>
<!-- Created with Inkscape (http://www.inkscape.org/) -->

<svg
   xmlns:dc="http://purl.org/dc/elements/1.1/"
   xmlns:cc="http://creativecommons.org/ns#"
   xmlns:rdf="http://www.w3.org/1999/02/22-rdf-syntax-ns#"
   xmlns:svg="http://www.w3.org/2000/svg"
   xmlns="http://www.w3.org/2000/svg"
   xmlns:sodipodi="http://sodipodi.sourceforge.net/DTD/sodipodi-0.dtd"
   xmlns:inkscape="http://www.inkscape.org/namespaces/inkscape"
   width="115.00001mm"
   height="70mm"
   viewBox="0 0 115.00001 70"
   version="1.1"
   id="svg1079"
   inkscape:version="0.92.4 (5da689c313, 2019-01-14)"
   sodipodi:docname="21.5.svg">
  <defs
     id="defs1073">
    <clipPath
       clipPathUnits="userSpaceOnUse"
       id="clipPath1058">
      <ellipse
         style="fill:#ffcc00;fill-opacity:1;stroke:#ffcc00;stroke-width:5.25652218;stroke-linecap:butt;stroke-linejoin:miter;stroke-miterlimit:4;stroke-dasharray:none;stroke-opacity:1"
         id="ellipse1060"
         cx="59.323036"
         cy="0.8915832"
         rx="27.6078"
         ry="26.313755" />
    </clipPath>
  </defs>
  <sodipodi:namedview
     id="base"
     pagecolor="#ffffff"
     bordercolor="#666666"
     borderopacity="1.0"
     inkscape:pageopacity="0.0"
     inkscape:pageshadow="2"
     inkscape:zoom="0.35"
     inkscape:cx="267.73758"
     inkscape:cy="-364.59505"
     inkscape:document-units="mm"
     inkscape:current-layer="g2384"
     showgrid="false"
     fit-margin-top="0"
     fit-margin-left="0"
     fit-margin-right="0"
     fit-margin-bottom="0"
     inkscape:window-width="958"
     inkscape:window-height="991"
     inkscape:window-x="952"
     inkscape:window-y="0"
     inkscape:window-maximized="1"
     inkscape:snap-global="false"
     showguides="true"
     inkscape:guide-bbox="true" />
  <metadata
     id="metadata1076">
    <rdf:RDF>
      <cc:Work
         rdf:about="">
        <dc:format>image/svg+xml</dc:format>
        <dc:type
           rdf:resource="http://purl.org/dc/dcmitype/StillImage" />
        <dc:title></dc:title>
      </cc:Work>
    </rdf:RDF>
  </metadata>
  <g
     inkscape:label="Ebene 1"
     inkscape:groupmode="layer"
     id="layer1"
     transform="translate(-67.232141,-155.41071)">
    <g
       id="g1782">
      <g
         transform="matrix(1.0037152,0,0,1.0038501,43.458405,92.506428)"
         style="fill:#040f4f;fill-opacity:1;stroke:none;stroke-width:0.1;stroke-linecap:round;stroke-linejoin:round;stroke-miterlimit:4;stroke-dasharray:none"
         id="g2384">
        <path
           sodipodi:nodetypes="ccsccc"
           inkscape:connector-curvature="0"
           id="path2379"
           d="m 23.685739,62.663023 h 99.675681 c 5.78011,6.133058 8.76542,12.932231 11.99785,19.014489 5.50042,10.349797 4.05232,39.986848 -11.99785,50.717038 H 23.685739 Z"
           style="fill:#eecab0;fill-opacity:1;stroke:none;stroke-width:0.1;stroke-linecap:butt;stroke-linejoin:miter;stroke-miterlimit:4;stroke-dasharray:none;stroke-opacity:1" />
        <path
           id="path46-2"
           style="fill:#1d8bc0;fill-opacity:1;stroke-width:0.34583455"
           d="m 88.11607,76.261733 c -1.58e-4,0.01424 -2.5e-4,0.02848 -5.27e-4,0.04273 -0.0035,0.321007 -0.007,0.642148 -0.01031,0.963158 -0.0034,0.330195 -0.0066,0.660244 -0.0098,0.990441 -0.0033,0.339864 -0.0063,0.679918 -0.0093,1.019784 -0.0018,0.147407 -0.0013,0.294805 -0.0021,0.442198 h 1.676355 15.838372 l -0.23425,0.950803 c -0.32319,1.3101 -0.73574,3.480092 -1.39628,7.348518 -0.30854,1.806868 -0.70056,4.063002 -0.87113,5.013981 -0.38925,2.170029 -1.34567,7.745484 -1.72063,10.028994 -0.15614,0.95097 -0.36484,2.04011 -0.46337,2.4205 -0.0986,0.38039 -0.43888,2.32558 -0.75632,4.32263 -0.317446,1.99706 -0.644473,3.98117 -0.726965,4.40911 l -0.150336,0.77784 H 80.996108 62.712699 l -0.208513,-0.77784 c -0.114739,-0.42794 -0.210151,-1.25304 -0.213151,-1.83314 -0.0018,-0.39802 -0.898468,-5.43879 -1.520871,-8.65195 -0.226011,-1.53335 -0.383351,-2.25086 -0.541624,-2.58112 -0.32917,-2.040833 -0.583825,-3.549249 -0.62297,-3.588028 -0.14266,-0.14132 -0.455898,-1.68472 -0.696595,-3.429481 -0.240676,-1.744782 -0.582955,-3.950266 -0.760434,-4.901245 -0.177511,-0.950984 -0.555559,-3.129761 -0.839724,-4.841528 -0.284154,-1.711771 -0.621388,-3.46227 -0.749624,-3.890211 l -0.233226,-0.777836 h 17.770101 c 0.0033,-0.586369 0.03647,-1.142787 0.09061,-1.676131 -0.0061,-0.332524 -0.01252,-0.665142 -0.01906,-0.997648 -0.0051,-0.260601 -0.01054,-0.521303 -0.01597,-0.781955 -0.0341,-10e-7 -0.07152,-2.9e-5 -0.102455,0 -17.735695,0.01634 -20.767064,0.11362 -21.094497,0.50809 -0.459982,0.554181 -0.40024,1.36551 0.510218,6.924338 0.311513,1.901963 0.643532,4.00288 0.737782,4.668561 0.09703,0.546101 1.276066,7.329244 2.365227,13.521274 0.684419,4.05159 1.418358,8.19126 1.728873,9.63982 0.04051,0.20346 0.0691,0.33545 0.07826,0.35365 0.07496,0.67202 0.546357,3.12584 0.829942,4.24593 0.05221,0.48397 0.175215,0.89371 0.382534,1.25916 l 1.14194,1.39712 20.161588,0.007 20.16108,0.007 0.81603,-0.77835 c 0.47541,-0.45338 0.89833,-1.35508 1.01323,-2.16106 0.23223,-1.62811 0.42178,-2.90512 0.59311,-4.0256 0.25192,-1.32115 0.52264,-2.75706 0.81501,-4.32005 0.11254,-0.38363 0.24849,-1.05606 0.3326,-1.68282 0.0193,-0.14355 0.0312,-0.22304 0.0499,-0.36189 1.13954,-6.127233 2.30055,-12.513933 2.36728,-13.028632 0.36684,-2.828592 1.0983,-6.956224 1.3345,-7.531267 0.11721,-0.285293 0.29145,-1.141341 0.38665,-1.902121 0.0953,-0.760794 0.27962,-2.1916 0.40983,-3.17981 0.13025,-0.988227 0.13693,-2.194158 0.0149,-2.679957 l -0.22139,-0.883367 H 89.627043 Z m -28.528439,41.123397 -0.03758,-0.0458 0.0484,0.0674 c -0.004,-0.007 -0.0068,-0.0146 -0.01081,-0.0216 z m 0.01081,0.0216 c 0.09899,0.17109 0.216087,0.33316 0.353187,0.48956 z M 55.161963,92.992153 c 0.0016,-0.0062 0.0069,0.0069 0.01597,0.04118 0.01313,0.130517 0.03527,0.312007 0.06281,0.520959 -0.05456,-0.341693 -0.08357,-0.543244 -0.07877,-0.562141 z"
           inkscape:connector-curvature="0" />
      </g>
      <g
         id="g19973"
         transform="translate(11.386905,-1.1711297)" />
    </g>
  </g>
</svg>
