<?xml version="1.0" encoding="UTF-8" standalone="no"?>
<!-- Created with Inkscape (http://www.inkscape.org/) -->

<svg
   xmlns:dc="http://purl.org/dc/elements/1.1/"
   xmlns:cc="http://creativecommons.org/ns#"
   xmlns:rdf="http://www.w3.org/1999/02/22-rdf-syntax-ns#"
   xmlns:svg="http://www.w3.org/2000/svg"
   xmlns="http://www.w3.org/2000/svg"
   xmlns:sodipodi="http://sodipodi.sourceforge.net/DTD/sodipodi-0.dtd"
   xmlns:inkscape="http://www.inkscape.org/namespaces/inkscape"
   width="115.00001mm"
   height="70mm"
   viewBox="0 0 115.00001 70"
   version="1.1"
   id="svg2440"
   inkscape:version="0.92.4 (5da689c313, 2019-01-14)"
   sodipodi:docname="4.5.svg">
  <defs
     id="defs2434">
    <clipPath
       clipPathUnits="userSpaceOnUse"
       id="clipPath1123-42-7">
      <rect
         style="fill:#ffcc00;fill-opacity:1;stroke:#ffcc00;stroke-width:4.45256615;stroke-miterlimit:4;stroke-dasharray:none;stroke-opacity:1"
         id="rect1125-74-7"
         width="172.83142"
         height="169.87381"
         x="207.8024"
         y="48.977718" />
    </clipPath>
  </defs>
  <sodipodi:namedview
     id="base"
     pagecolor="#ffffff"
     bordercolor="#666666"
     borderopacity="1.0"
     inkscape:pageopacity="0.0"
     inkscape:pageshadow="2"
     inkscape:zoom="1.4"
     inkscape:cx="102.81275"
     inkscape:cy="135.00116"
     inkscape:document-units="mm"
     inkscape:current-layer="g3043"
     showgrid="false"
     fit-margin-top="0"
     fit-margin-left="0"
     fit-margin-right="0"
     fit-margin-bottom="0"
     inkscape:window-width="1920"
     inkscape:window-height="1001"
     inkscape:window-x="-9"
     inkscape:window-y="-9"
     inkscape:window-maximized="1" />
  <metadata
     id="metadata2437">
    <rdf:RDF>
      <cc:Work
         rdf:about="">
        <dc:format>image/svg+xml</dc:format>
        <dc:type
           rdf:resource="http://purl.org/dc/dcmitype/StillImage" />
        <dc:title></dc:title>
      </cc:Work>
    </rdf:RDF>
  </metadata>
  <g
     inkscape:label="Ebene 1"
     inkscape:groupmode="layer"
     id="layer1"
     transform="translate(34.06548,-69.232143)">
    <g
       transform="translate(-60.75627,-31.020087)"
       id="g2386">
      <path
         sodipodi:nodetypes="ccsccc"
         inkscape:connector-curvature="0"
         id="path2379"
         d="m 26.69079,100.25223 h 100.046 c 5.80158,6.15667 8.79798,12.98202 12.04242,19.0877 5.52086,10.38964 4.06738,40.1408 -12.04242,50.9123 h -100.046 z"
         style="fill:#ffdd55;fill-opacity:1;stroke:none;stroke-width:0.10037827;stroke-linecap:butt;stroke-linejoin:miter;stroke-miterlimit:4;stroke-dasharray:none;stroke-opacity:1" />
      <g
         transform="translate(-1.7098195,4.2121139)"
         id="g2350">
        <path
           style="opacity:1;vector-effect:none;fill:#800080;fill-opacity:1;stroke:#800080;stroke-width:0.71791553;stroke-linecap:butt;stroke-linejoin:miter;stroke-miterlimit:4;stroke-dasharray:none;stroke-dashoffset:0;stroke-opacity:1"
           d="m 79.220104,132.68069 v -20.95131 h 8.118631 8.118639 v 20.95131 20.95131 h -8.118639 -8.118631 z"
           id="path9168-3"
           inkscape:connector-curvature="0" />
        <path
           style="opacity:1;vector-effect:none;fill:#800080;fill-opacity:1;stroke:#800080;stroke-width:0.71791553;stroke-linecap:butt;stroke-linejoin:miter;stroke-miterlimit:4;stroke-dasharray:none;stroke-dashoffset:0;stroke-opacity:1"
           d="m 79.220104,132.68069 v -20.95131 h 8.118631 8.118639 v 20.95131 20.95131 h -8.118639 -8.118631 z"
           id="path9170-4"
           inkscape:connector-curvature="0" />
        <path
           style="opacity:1;vector-effect:none;fill:#800080;fill-opacity:1;stroke:#800080;stroke-width:0.71791553;stroke-linecap:butt;stroke-linejoin:miter;stroke-miterlimit:4;stroke-dasharray:none;stroke-dashoffset:0;stroke-opacity:1"
           d="m 70.839575,132.68069 v -20.95131 h 3.1427 3.1427 v 20.95131 20.95131 h -3.1427 -3.1427 z"
           id="path9172-9"
           inkscape:connector-curvature="0" />
        <path
           style="opacity:1;vector-effect:none;fill:#800080;fill-opacity:1;stroke:#800080;stroke-width:0.71791553;stroke-linecap:butt;stroke-linejoin:miter;stroke-miterlimit:4;stroke-dasharray:none;stroke-dashoffset:0;stroke-opacity:1"
           d="m 53.030965,132.68069 v -20.95131 h 7.594851 7.594849 v 20.95131 20.95131 h -7.594849 -7.594851 z"
           id="path9174-4"
           inkscape:connector-curvature="0" />
        <path
           style="opacity:1;vector-effect:none;fill:#800080;fill-opacity:1;stroke:#800080;stroke-width:0.71791553;stroke-linecap:butt;stroke-linejoin:miter;stroke-miterlimit:4;stroke-dasharray:none;stroke-dashoffset:0;stroke-opacity:1"
           d="m 53.030965,132.68069 v -20.95131 h 7.594851 7.594849 v 20.95131 20.95131 h -7.594849 -7.594851 z"
           id="path9176-3"
           inkscape:connector-curvature="0" />
        <path
           style="opacity:1;vector-effect:none;fill:#800080;fill-opacity:1;stroke:#800080;stroke-width:0.71791553;stroke-linecap:butt;stroke-linejoin:miter;stroke-miterlimit:4;stroke-dasharray:none;stroke-dashoffset:0;stroke-opacity:1"
           d="m 52.746437,153.49999 c -0.138406,-0.36068 -0.189933,-9.96555 -0.114506,-21.34414 l 0.137141,-20.68837 7.725797,-0.14494 7.725796,-0.14495 v 21.4891 21.48909 h -7.611287 c -5.612411,0 -7.677378,-0.17222 -7.862941,-0.65579 z"
           id="path9178-5"
           inkscape:connector-curvature="0" />
        <path
           style="opacity:1;vector-effect:none;fill:#800080;fill-opacity:1;stroke:#800080;stroke-width:0.71791553;stroke-linecap:butt;stroke-linejoin:miter;stroke-miterlimit:4;stroke-dasharray:none;stroke-dashoffset:0;stroke-opacity:1"
           d="m 70.839575,132.68069 v -20.95131 h 3.1427 3.1427 v 20.95131 20.95131 h -3.1427 -3.1427 z"
           id="path9180-1"
           inkscape:connector-curvature="0" />
        <path
           style="opacity:1;vector-effect:none;fill:#800080;fill-opacity:1;stroke:#800080;stroke-width:0.71791553;stroke-linecap:butt;stroke-linejoin:miter;stroke-miterlimit:4;stroke-dasharray:none;stroke-dashoffset:0;stroke-opacity:1"
           d="m 70.564715,153.52516 c -0.14372,-0.37452 -0.1996,-9.99072 -0.12417,-21.36931 l 0.13715,-20.68837 h 3.40458 3.40459 v 21.21321 21.2132 l -3.28042,0.15611 c -2.326,0.1107 -3.35645,-0.042 -3.54173,-0.52484 z"
           id="path9182-4"
           inkscape:connector-curvature="0" />
        <path
           style="opacity:1;vector-effect:none;fill:#800080;fill-opacity:1;stroke:#800080;stroke-width:0.71791553;stroke-linecap:butt;stroke-linejoin:miter;stroke-miterlimit:4;stroke-dasharray:none;stroke-dashoffset:0;stroke-opacity:1"
           d="m 70.315795,132.68069 v -21.4751 h 3.66648 3.66648 v 21.4751 21.47509 h -3.66648 -3.66648 z"
           id="path9184-0"
           inkscape:connector-curvature="0" />
        <path
           clip-path="url(#clipPath1123-42-7)"
           sodipodi:nodetypes="cccccccccccccccccccccccccccccsccscccccccccccccccccccccccccccccccccssscccccccccccccccccccccccccccccccccccccc"
           inkscape:connector-curvature="0"
           id="path889-85-7"
           d="m 207.31261,608.41258 v -87.05571 l 87.37804,0.35274 87.37804,0.35281 v 86.35016 86.34999 l -87.37804,0.35284 -87.37804,0.35275 z m 166.88599,0.34261 -0.35371,-79.83957 H 295.0333 216.22173 l -0.3537,79.83957 -0.3537,79.8396 h 79.51897 79.519 z M 819.15687,374.04444 v -87.04555 h 87.73091 87.73102 l -0.3528,86.69273 -0.35297,86.69276 -87.37805,0.35274 -87.37811,0.35281 z m 167.21766,-0.69545 V 293.85207 H 907.0243 c -71.09271,0 -79.4369,0.22562 -80.18228,2.16805 -1.1395,2.9695 -1.05986,154.77035 0.0818,155.91198 0.50253,0.50255 36.58452,0.91374 80.18214,0.91374 h 79.26854 z m -778.72941,-1.02797 0.35281,-87.37808 86.69272,-0.35289 86.69273,-0.35287 v 87.73094 87.73092 h -87.04553 -87.04553 z m 166.55355,0 -0.35378,-79.15427 -79.15424,-0.35379 -79.15424,-0.3538 v 79.50803 79.50804 h 79.50803 79.50803 z m 445.29064,-236.43475 0.35288,-86.692729 87.37811,-0.352803 87.3781,-0.352803 v 87.045535 87.04554 h -87.73104 -87.73092 z m 166.55366,0 0.35376,-79.154241 h -79.50798 -79.50806 v 78.583151 c 0,43.22072 0.41619,78.99935 0.92488,79.50802 0.50869,0.50869 36.12811,0.77058 79.15418,0.57109 l 78.22946,-0.35377 z M 207.31261,134.84816 V 48.487935 l 87.37804,0.352803 85.37804,0.352803 0.35296,86.007409 0.35297,86.00743 H 295.0436 207.31261 Z m 65.79052,-0.67518 V 53.99076 h -28.78335 -30.78337 v 80.18222 80.18222 h 28.78337 30.78335 z m 32.20995,0 V 54.676079 l -10.62243,-0.400305 -14.62243,-0.400315 v 80.297521 80.29754 l 14.62243,-0.40033 10.62243,-0.4003 z m 69.21713,0 V 53.99076 h -28.78336 -32.78336 v 80.18222 80.18222 h 32.78336 28.78336 z"
           style="vector-effect:none;fill:#000000;fill-opacity:1;stroke-width:1.37063599;stroke-linecap:butt;stroke-linejoin:miter;stroke-miterlimit:4;stroke-dasharray:none;stroke-dashoffset:0;stroke-opacity:1"
           transform="matrix(0.26458333,0,0,0.26458333,-3.5804411,97.13565)" />
      </g>
    </g>
    <g
       id="g3043"
       transform="translate(-60.75627,-31.020087)">
      <path
         style="fill:#ffdd55;fill-opacity:1;stroke:none;stroke-width:0.10037827;stroke-linecap:butt;stroke-linejoin:miter;stroke-miterlimit:4;stroke-dasharray:none;stroke-opacity:1"
         d="m 26.69079,100.25223 h 100.046 c 5.80158,6.15667 8.79798,12.98202 12.04242,19.0877 5.52086,10.38964 4.06738,40.1408 -12.04242,50.9123 h -100.046 z"
         id="path3019"
         inkscape:connector-curvature="0"
         sodipodi:nodetypes="ccsccc" />
      <g
         id="g3041"
         transform="translate(-1.7098195,4.2121139)">
        <path
           inkscape:connector-curvature="0"
           id="path3021"
           d="m 79.220104,132.68069 v -20.95131 h 8.118631 8.118639 v 20.95131 20.95131 h -8.118639 -8.118631 z"
           style="opacity:1;vector-effect:none;fill:#800080;fill-opacity:1;stroke:#800080;stroke-width:0.71791553;stroke-linecap:butt;stroke-linejoin:miter;stroke-miterlimit:4;stroke-dasharray:none;stroke-dashoffset:0;stroke-opacity:1" />
        <path
           inkscape:connector-curvature="0"
           id="path3023"
           d="m 79.220104,132.68069 v -20.95131 h 8.118631 8.118639 v 20.95131 20.95131 h -8.118639 -8.118631 z"
           style="opacity:1;vector-effect:none;fill:#0000ff;fill-opacity:1;stroke:#0000ff;stroke-width:0.71791553;stroke-linecap:butt;stroke-linejoin:miter;stroke-miterlimit:4;stroke-dasharray:none;stroke-dashoffset:0;stroke-opacity:1" />
        <path
           inkscape:connector-curvature="0"
           id="path3025"
           d="m 70.839575,132.68069 v -20.95131 h 3.1427 3.1427 v 20.95131 20.95131 h -3.1427 -3.1427 z"
           style="opacity:1;vector-effect:none;fill:#800080;fill-opacity:1;stroke:#800080;stroke-width:0.71791553;stroke-linecap:butt;stroke-linejoin:miter;stroke-miterlimit:4;stroke-dasharray:none;stroke-dashoffset:0;stroke-opacity:1" />
        <path
           inkscape:connector-curvature="0"
           id="path3027"
           d="m 53.030965,132.68069 v -20.95131 h 7.594851 7.594849 v 20.95131 20.95131 h -7.594849 -7.594851 z"
           style="opacity:1;vector-effect:none;fill:#800080;fill-opacity:1;stroke:#800080;stroke-width:0.71791553;stroke-linecap:butt;stroke-linejoin:miter;stroke-miterlimit:4;stroke-dasharray:none;stroke-dashoffset:0;stroke-opacity:1" />
        <path
           inkscape:connector-curvature="0"
           id="path3029"
           d="m 53.030965,132.68069 v -20.95131 h 7.594851 7.594849 v 20.95131 20.95131 h -7.594849 -7.594851 z"
           style="opacity:1;vector-effect:none;fill:#800080;fill-opacity:1;stroke:#800080;stroke-width:0.71791553;stroke-linecap:butt;stroke-linejoin:miter;stroke-miterlimit:4;stroke-dasharray:none;stroke-dashoffset:0;stroke-opacity:1" />
        <path
           inkscape:connector-curvature="0"
           id="path3031"
           d="m 52.746437,153.49999 c -0.138406,-0.36068 -0.189933,-9.96555 -0.114506,-21.34414 l 0.137141,-20.68837 7.725797,-0.14494 7.725796,-0.14495 v 21.4891 21.48909 h -7.611287 c -5.612411,0 -7.677378,-0.17222 -7.862941,-0.65579 z"
           style="opacity:1;vector-effect:none;fill:#0000ff;fill-opacity:1;stroke:#0000ff;stroke-width:0.71791553;stroke-linecap:butt;stroke-linejoin:miter;stroke-miterlimit:4;stroke-dasharray:none;stroke-dashoffset:0;stroke-opacity:1" />
        <path
           inkscape:connector-curvature="0"
           id="path3033"
           d="m 70.839575,132.68069 v -20.95131 h 3.1427 3.1427 v 20.95131 20.95131 h -3.1427 -3.1427 z"
           style="opacity:1;vector-effect:none;fill:#800080;fill-opacity:1;stroke:#800080;stroke-width:0.71791553;stroke-linecap:butt;stroke-linejoin:miter;stroke-miterlimit:4;stroke-dasharray:none;stroke-dashoffset:0;stroke-opacity:1" />
        <path
           inkscape:connector-curvature="0"
           id="path3035"
           d="m 70.564715,153.52516 c -0.14372,-0.37452 -0.1996,-9.99072 -0.12417,-21.36931 l 0.13715,-20.68837 h 3.40458 3.40459 v 21.21321 21.2132 l -3.28042,0.15611 c -2.326,0.1107 -3.35645,-0.042 -3.54173,-0.52484 z"
           style="opacity:1;vector-effect:none;fill:#800080;fill-opacity:1;stroke:#800080;stroke-width:0.71791553;stroke-linecap:butt;stroke-linejoin:miter;stroke-miterlimit:4;stroke-dasharray:none;stroke-dashoffset:0;stroke-opacity:1" />
        <path
           inkscape:connector-curvature="0"
           id="path3037"
           d="m 70.315795,132.68069 v -21.4751 h 3.66648 3.66648 v 21.4751 21.47509 h -3.66648 -3.66648 z"
           style="opacity:1;vector-effect:none;fill:#0000ff;fill-opacity:1;stroke:#0000ff;stroke-width:0.71791553;stroke-linecap:butt;stroke-linejoin:miter;stroke-miterlimit:4;stroke-dasharray:none;stroke-dashoffset:0;stroke-opacity:1" />
        <path
           transform="matrix(0.26458333,0,0,0.26458333,-3.5804411,97.13565)"
           style="vector-effect:none;fill:#000000;fill-opacity:1;stroke-width:1.37063599;stroke-linecap:butt;stroke-linejoin:miter;stroke-miterlimit:4;stroke-dasharray:none;stroke-dashoffset:0;stroke-opacity:1"
           d="m 207.31261,608.41258 v -87.05571 l 87.37804,0.35274 87.37804,0.35281 v 86.35016 86.34999 l -87.37804,0.35284 -87.37804,0.35275 z m 166.88599,0.34261 -0.35371,-79.83957 H 295.0333 216.22173 l -0.3537,79.83957 -0.3537,79.8396 h 79.51897 79.519 z M 819.15687,374.04444 v -87.04555 h 87.73091 87.73102 l -0.3528,86.69273 -0.35297,86.69276 -87.37805,0.35274 -87.37811,0.35281 z m 167.21766,-0.69545 V 293.85207 H 907.0243 c -71.09271,0 -79.4369,0.22562 -80.18228,2.16805 -1.1395,2.9695 -1.05986,154.77035 0.0818,155.91198 0.50253,0.50255 36.58452,0.91374 80.18214,0.91374 h 79.26854 z m -778.72941,-1.02797 0.35281,-87.37808 86.69272,-0.35289 86.69273,-0.35287 v 87.73094 87.73092 h -87.04553 -87.04553 z m 166.55355,0 -0.35378,-79.15427 -79.15424,-0.35379 -79.15424,-0.3538 v 79.50803 79.50804 h 79.50803 79.50803 z m 445.29064,-236.43475 0.35288,-86.692729 87.37811,-0.352803 87.3781,-0.352803 v 87.045535 87.04554 h -87.73104 -87.73092 z m 166.55366,0 0.35376,-79.154241 h -79.50798 -79.50806 v 78.583151 c 0,43.22072 0.41619,78.99935 0.92488,79.50802 0.50869,0.50869 36.12811,0.77058 79.15418,0.57109 l 78.22946,-0.35377 z M 207.31261,134.84816 V 48.487935 l 87.37804,0.352803 85.37804,0.352803 0.35296,86.007409 0.35297,86.00743 H 295.0436 207.31261 Z m 65.79052,-0.67518 V 53.99076 h -28.78335 -30.78337 v 80.18222 80.18222 h 28.78337 30.78335 z m 32.20995,0 V 54.676079 l -10.62243,-0.400305 -14.62243,-0.400315 v 80.297521 80.29754 l 14.62243,-0.40033 10.62243,-0.4003 z m 69.21713,0 V 53.99076 h -28.78336 -32.78336 v 80.18222 80.18222 h 32.78336 28.78336 z"
           id="path3039"
           inkscape:connector-curvature="0"
           sodipodi:nodetypes="cccccccccccccccccccccccccccccsccscccccccccccccccccccccccccccccccccssscccccccccccccccccccccccccccccccccccccc"
           clip-path="url(#clipPath1123-42-7)" />
      </g>
    </g>
  </g>
</svg>
