<?xml version="1.0" encoding="UTF-8"?>
<svg xmlns="http://www.w3.org/2000/svg" xmlns:xlink="http://www.w3.org/1999/xlink" width="2219.89pt" height="402.5pt" viewBox="0 0 2219.89 402.5" version="1.1">
<defs>
<clipPath id="clip1">
  <path d="M 1830 6 L 2219.890625 6 L 2219.890625 397 L 1830 397 Z M 1830 6 "/>
</clipPath>
<clipPath id="clip2">
  <path d="M 476 0 L 852 0 L 852 402.5 L 476 402.5 Z M 476 0 "/>
</clipPath>
<clipPath id="clip3">
  <path d="M 1122 0 L 1499 0 L 1499 402.5 L 1122 402.5 Z M 1122 0 "/>
</clipPath>
<clipPath id="clip4">
  <path d="M 1830 5 L 2219.890625 5 L 2219.890625 396 L 1830 396 Z M 1830 5 "/>
</clipPath>
<clipPath id="clip5">
  <path d="M 476 0 L 852 0 L 852 402.5 L 476 402.5 Z M 476 0 "/>
</clipPath>
<clipPath id="clip6">
  <path d="M 1122 0 L 1499 0 L 1499 402.5 L 1122 402.5 Z M 1122 0 "/>
</clipPath>
</defs>
<g id="surface1">
<path style=" stroke:none;fill-rule:nonzero;fill:rgb(95.698547%,50.59967%,12.5%);fill-opacity:1;" d="M 613.65625 6.015625 L 390.027344 6.015625 C 354.765625 6.015625 320.496094 6.015625 289.828125 21.582031 C 259.136719 37.171875 232.046875 68.351563 211.171875 130.664063 C 206.683594 144.054688 204.285156 155.625 203.953125 165.617188 C 203.640625 175.699219 205.398438 184.25 209.195313 191.667969 C 213.902344 200.707031 221.496094 209.257813 231.023438 216.429688 C 240.527344 223.625 251.941406 229.464844 264.203125 233.21875 C 264.667969 233.328125 271.128906 235.195313 278.945313 237.414063 C 286.742188 239.65625 295.867188 242.34375 301.621094 244.078125 C 304.996094 245.121094 308.703125 246.453125 312.082031 248.472656 C 315.457031 250.496094 318.476563 253.160156 320.386719 256.867188 C 321.628906 259.355469 322.296875 262.042969 322.363281 264.929688 C 322.453125 267.839844 321.964844 270.972656 320.808594 274.277344 C 317.964844 282.738281 313.613281 288.203125 305.351563 291.535156 C 297.113281 294.863281 284.945313 295.933594 266.511719 296.0625 L 36.398438 296.0625 L 0 396.019531 L 246.324219 396.019531 C 269.507813 396.019531 311.882813 396.019531 352.632813 378.722656 C 393.359375 361.421875 432.402344 326.820313 448.945313 257.644531 C 455.164063 231.640625 453.253906 210.433594 443.0625 193.800781 C 432.824219 177.164063 414.347656 165.109375 387.429688 157.378906 C 387.429688 157.378906 381.414063 155.625 374.304688 153.605469 C 367.265625 151.5625 359.117188 149.230469 354.941406 148.03125 C 348.058594 146.074219 342.75 142.078125 339.617188 137.015625 C 336.507813 131.953125 335.578125 125.777344 337.351563 119.492188 C 339.195313 112.964844 343.660156 107.746094 350.121094 104.148438 C 356.605469 100.574219 365.113281 98.597656 375.039063 98.597656 L 518.210938 98.597656 C 519.230469 97.152344 520.164063 95.578125 521.164063 94.089844 C 547.300781 57.113281 578.96875 27.15625 613.65625 6.015625 "/>
<path style=" stroke:none;fill-rule:nonzero;fill:rgb(95.698547%,50.59967%,12.5%);fill-opacity:1;" d="M 613.78125 5.578125 L 390.152344 5.578125 C 354.886719 5.578125 320.640625 5.578125 289.953125 21.144531 C 259.261719 36.734375 232.191406 67.894531 211.3125 130.230469 C 206.808594 143.621094 204.40625 155.167969 204.097656 165.183594 C 203.785156 175.242188 205.539063 183.792969 209.339844 191.210938 C 214.023438 200.269531 221.617188 208.820313 231.144531 215.992188 C 240.671875 223.167969 252.066406 229.027344 264.347656 232.761719 C 264.8125 232.894531 271.273438 234.738281 279.09375 236.980469 C 286.863281 239.222656 295.992188 241.886719 301.765625 243.621094 C 305.117188 244.683594 308.851563 246.019531 312.226563 248.015625 C 315.578125 250.039063 318.597656 252.722656 320.507813 256.433594 C 321.753906 258.898438 322.417969 261.585938 322.484375 264.496094 C 322.574219 267.402344 322.085938 270.535156 320.929688 273.820313 C 318.089844 282.304688 313.757813 287.746094 305.472656 291.097656 C 297.234375 294.429688 285.085938 295.496094 266.65625 295.628906 L 36.519531 295.628906 L 0.144531 395.585938 L 246.46875 395.585938 C 269.652344 395.585938 312.023438 395.585938 352.753906 378.285156 C 393.480469 360.984375 432.523438 326.386719 449.066406 257.1875 C 455.308594 231.207031 453.375 209.996094 443.183594 193.363281 C 432.945313 176.710938 414.46875 164.648438 387.574219 156.945313 C 387.574219 156.945313 381.535156 155.191406 374.449219 153.148438 C 367.410156 151.125 359.238281 148.792969 355.0625 147.59375 C 348.179688 145.640625 342.894531 141.644531 339.738281 136.558594 C 336.652344 131.496094 335.699219 125.34375 337.476563 119.058594 C 339.339844 112.53125 343.78125 107.3125 350.246094 103.714844 C 356.730469 100.136719 365.234375 98.160156 375.160156 98.160156 L 518.355469 98.160156 C 519.375 96.695313 520.285156 95.117188 521.308594 93.652344 C 547.445313 56.65625 579.113281 26.71875 613.78125 5.578125 "/>
<g clip-path="url(#clip1)" clip-rule="nonzero">
<path style=" stroke:none;fill-rule:nonzero;fill:rgb(95.698547%,50.59967%,12.5%);fill-opacity:1;" d="M 1831.160156 6.242188 C 1838.820313 12.28125 1845.371094 19.1875 1850.859375 27.050781 C 1864.890625 47.28125 1870.269531 71.3125 1867.050781 98.824219 L 1938.871094 98.824219 L 1830.628906 396.335938 L 1938.78125 396.335938 L 2047.078125 98.824219 L 2186.039063 98.824219 L 2219.769531 6.242188 L 1831.160156 6.242188 "/>
</g>
<path style=" stroke:none;fill-rule:nonzero;fill:rgb(95.698547%,50.59967%,12.5%);fill-opacity:1;" d="M 1720.800781 130.648438 C 1709.210938 161.851563 1688.421875 181.125 1648.871094 181.125 L 1648.691406 181.125 L 1628.238281 181.082031 L 1663.238281 86.765625 L 1683.140625 86.765625 C 1719.539063 86.765625 1733.128906 97.425781 1720.800781 130.648438 M 1825.78125 44.484375 C 1807.96875 18.878906 1771.769531 6.308594 1715.050781 6.242188 L 1583.738281 6.242188 L 1441.738281 396.25 L 1562.351563 396.25 L 1614.011719 258.984375 C 1616.488281 264.625 1646.960938 396.25 1646.960938 396.25 L 1773.789063 396.25 C 1773.789063 396.25 1750.71875 299.535156 1733.75 260.472656 C 1729.398438 250.414063 1724.839844 239.152344 1718.761719 229.761719 C 1754.578125 216.457031 1806.5 187.855469 1827.980469 129.960938 C 1841.210938 94.363281 1840.429688 65.601563 1825.78125 44.484375 "/>
<g clip-path="url(#clip2)" clip-rule="nonzero">
<path style=" stroke:none;fill-rule:nonzero;fill:rgb(95.698547%,50.59967%,12.5%);fill-opacity:1;" d="M 718.699219 199.214844 C 685.277344 290.707031 661.003906 313.738281 624.496094 313.738281 L 624.429688 313.738281 C 588.875 313.691406 576.394531 291.195313 609.660156 200.144531 C 634.53125 132.171875 666.710938 88.710938 705.683594 88.710938 L 705.707031 88.710938 C 742.726563 88.753906 751.210938 110.207031 718.699219 199.214844 M 833.378906 42.539063 C 813.902344 14.671875 780.523438 0.503906 734.132813 0.457031 C 703.796875 0.457031 674.304688 7.429688 646.703125 20.464844 C 607.171875 39.144531 571.375 70.367188 542.128906 111.738281 C 523.117188 138.632813 506.863281 169.765625 494.117188 204.609375 C 470.132813 270.320313 470.398438 323.6875 494.960938 358.816406 C 508.859375 378.71875 537.773438 402.457031 596.601563 402.5 L 596.824219 402.5 C 703.976563 402.5 783.96875 332.257813 834.621094 193.773438 C 847.992188 157.109375 865.644531 88.730469 833.378906 42.539063 "/>
</g>
<path style=" stroke:none;fill-rule:nonzero;fill:rgb(95.698547%,50.59967%,12.5%);fill-opacity:1;" d="M 1261.550781 6.015625 L 1033.640625 6.015625 C 969.921875 6.015625 922.488281 38.257813 900.101563 98.597656 L 791.84375 396.019531 L 910.40625 396.019531 L 966.035156 243.121094 L 1070.851563 243.210938 L 1100.660156 161.308594 L 996.191406 161.242188 L 1013 113.832031 C 1016.539063 105.347656 1024.890625 98.597656 1037.171875 98.597656 C 1044.011719 98.597656 1120.910156 98.597656 1160.75 98.617188 C 1161.769531 97.152344 1162.679688 95.578125 1163.699219 94.089844 C 1189.839844 57.113281 1226.859375 27.15625 1261.550781 6.015625 "/>
<g clip-path="url(#clip3)" clip-rule="nonzero">
<path style=" stroke:none;fill-rule:nonzero;fill:rgb(95.698547%,50.59967%,12.5%);fill-opacity:1;" d="M 1365.210938 199.214844 C 1331.789063 290.707031 1307.519531 313.738281 1271.03125 313.738281 L 1270.941406 313.738281 C 1235.359375 313.691406 1222.949219 291.195313 1256.21875 200.144531 C 1281.050781 132.171875 1313.269531 88.710938 1352.179688 88.710938 L 1352.238281 88.710938 C 1389.261719 88.753906 1397.75 110.207031 1365.210938 199.214844 M 1479.910156 42.539063 C 1460.421875 14.671875 1427.078125 0.503906 1380.621094 0.457031 C 1350.308594 0.457031 1320.839844 7.429688 1293.21875 20.464844 C 1253.710938 39.144531 1217.910156 70.367188 1188.660156 111.738281 C 1169.648438 138.632813 1153.398438 169.765625 1140.671875 204.609375 C 1116.621094 270.320313 1116.929688 323.6875 1141.488281 358.816406 C 1155.398438 378.71875 1184.308594 402.457031 1243.160156 402.5 L 1243.359375 402.5 C 1350.488281 402.5 1430.5 332.257813 1481.109375 193.773438 C 1494.53125 157.109375 1512.160156 88.730469 1479.910156 42.539063 "/>
</g>
<g clip-path="url(#clip4)" clip-rule="nonzero">
<path style=" stroke:none;fill-rule:nonzero;fill:rgb(95.698547%,50.59967%,12.5%);fill-opacity:1;" d="M 1831.300781 5.808594 C 1838.941406 11.847656 1845.519531 18.730469 1851 26.617188 C 1865.039063 46.824219 1870.390625 70.875 1867.191406 98.390625 L 1939.011719 98.390625 L 1830.769531 395.902344 L 1938.921875 395.902344 L 2047.199219 98.390625 L 2186.179688 98.390625 L 2219.890625 5.808594 L 1831.300781 5.808594 "/>
</g>
<path style=" stroke:none;fill-rule:nonzero;fill:rgb(95.698547%,50.59967%,12.5%);fill-opacity:1;" d="M 1720.921875 130.214844 C 1709.351563 161.390625 1688.539063 180.667969 1648.988281 180.667969 L 1648.828125 180.667969 L 1628.378906 180.625 L 1663.359375 86.332031 L 1683.28125 86.332031 C 1719.671875 86.332031 1733.269531 96.96875 1720.921875 130.214844 M 1825.890625 44.046875 C 1808.101563 18.441406 1771.910156 5.875 1715.191406 5.808594 L 1583.878906 5.808594 L 1441.859375 395.8125 L 1562.488281 395.8125 L 1614.121094 258.550781 C 1616.628906 264.191406 1647.078125 395.8125 1647.078125 395.8125 L 1773.929688 395.8125 C 1773.929688 395.8125 1750.828125 299.101563 1733.890625 260.015625 C 1729.53125 249.976563 1724.980469 238.71875 1718.898438 229.304688 C 1754.71875 216 1806.621094 187.417969 1828.109375 129.523438 C 1841.328125 93.925781 1840.550781 65.167969 1825.890625 44.046875 "/>
<g clip-path="url(#clip5)" clip-rule="nonzero">
<path style=" stroke:none;fill-rule:nonzero;fill:rgb(95.698547%,50.59967%,12.5%);fill-opacity:1;" d="M 718.824219 198.777344 C 685.402344 290.273438 661.128906 313.28125 624.617188 313.28125 L 624.550781 313.28125 C 589 313.257813 576.519531 290.738281 609.808594 199.6875 C 634.65625 131.710938 666.835938 88.253906 705.808594 88.253906 L 705.832031 88.253906 C 742.875 88.296875 751.355469 109.769531 718.824219 198.777344 M 833.523438 42.105469 C 814.027344 14.234375 780.671875 0.0664063 734.257813 0 C 703.898438 0 674.429688 6.996094 646.828125 20.007813 C 607.296875 38.707031 571.5 69.910156 542.253906 111.304688 C 523.265625 138.175781 506.988281 169.332031 494.261719 204.152344 C 470.253906 269.886719 470.523438 323.25 495.082031 358.382813 C 509.007813 378.28125 537.921875 402 596.726563 402.066406 L 596.949219 402.066406 C 704.097656 402.066406 784.089844 331.824219 834.746094 193.316406 C 848.113281 156.652344 865.792969 88.273438 833.523438 42.105469 "/>
</g>
<path style=" stroke:none;fill-rule:nonzero;fill:rgb(95.698547%,50.59967%,12.5%);fill-opacity:1;" d="M 1261.691406 5.578125 L 1033.78125 5.578125 C 970.039063 5.578125 922.605469 37.824219 900.21875 98.160156 L 791.960938 395.585938 L 910.546875 395.585938 L 966.175781 242.6875 L 1070.96875 242.753906 L 1100.769531 160.875 L 996.3125 160.808594 L 1013.140625 113.394531 C 1016.648438 104.890625 1025.019531 98.140625 1037.28125 98.140625 C 1044.121094 98.140625 1121.050781 98.160156 1160.890625 98.160156 C 1161.890625 96.71875 1162.800781 95.117188 1163.820313 93.652344 C 1189.980469 56.65625 1227 26.71875 1261.691406 5.578125 "/>
<g clip-path="url(#clip6)" clip-rule="nonzero">
<path style=" stroke:none;fill-rule:nonzero;fill:rgb(95.698547%,50.59967%,12.5%);fill-opacity:1;" d="M 1365.339844 198.777344 C 1331.921875 290.273438 1307.671875 313.28125 1271.179688 313.28125 L 1271.089844 313.28125 C 1235.488281 313.257813 1223.078125 290.738281 1256.320313 199.6875 C 1281.171875 131.710938 1313.371094 88.253906 1352.300781 88.253906 L 1352.371094 88.253906 C 1389.390625 88.296875 1397.871094 109.769531 1365.339844 198.777344 M 1480.039063 42.105469 C 1460.539063 14.234375 1427.210938 0.0664063 1380.769531 0 C 1350.441406 0 1320.96875 6.996094 1293.359375 20.007813 C 1253.828125 38.707031 1218.039063 69.910156 1188.789063 111.304688 C 1169.78125 138.175781 1153.550781 169.332031 1140.800781 204.152344 C 1116.769531 269.886719 1117.058594 323.25 1141.640625 358.382813 C 1155.519531 378.28125 1184.441406 402 1243.308594 402.066406 L 1243.488281 402.066406 C 1350.640625 402.066406 1430.648438 331.824219 1481.238281 193.316406 C 1494.671875 156.652344 1512.308594 88.273438 1480.039063 42.105469 "/>
</g>
</g>
</svg>
