<?xml version="1.0" encoding="UTF-8" standalone="no"?>
<!-- Created with Inkscape (http://www.inkscape.org/) -->

<svg
   xmlns:dc="http://purl.org/dc/elements/1.1/"
   xmlns:cc="http://creativecommons.org/ns#"
   xmlns:rdf="http://www.w3.org/1999/02/22-rdf-syntax-ns#"
   xmlns:svg="http://www.w3.org/2000/svg"
   xmlns="http://www.w3.org/2000/svg"
   xmlns:sodipodi="http://sodipodi.sourceforge.net/DTD/sodipodi-0.dtd"
   xmlns:inkscape="http://www.inkscape.org/namespaces/inkscape"
   width="115.00001mm"
   height="70mm"
   viewBox="0 0 115.00001 70"
   version="1.1"
   id="svg1079"
   inkscape:version="0.92.4 (5da689c313, 2019-01-14)"
   sodipodi:docname="19.1.svg">
  <defs
     id="defs1073">
    <clipPath
       clipPathUnits="userSpaceOnUse"
       id="clipPath1058">
      <ellipse
         style="fill:#ffcc00;fill-opacity:1;stroke:#ffcc00;stroke-width:5.25652218;stroke-linecap:butt;stroke-linejoin:miter;stroke-miterlimit:4;stroke-dasharray:none;stroke-opacity:1"
         id="ellipse1060"
         cx="59.323036"
         cy="0.8915832"
         rx="27.6078"
         ry="26.313755" />
    </clipPath>
  </defs>
  <sodipodi:namedview
     id="base"
     pagecolor="#ffffff"
     bordercolor="#666666"
     borderopacity="1.0"
     inkscape:pageopacity="0.0"
     inkscape:pageshadow="2"
     inkscape:zoom="0.7"
     inkscape:cx="238.55653"
     inkscape:cy="155.87833"
     inkscape:document-units="mm"
     inkscape:current-layer="g1782"
     showgrid="false"
     fit-margin-top="0"
     fit-margin-left="0"
     fit-margin-right="0"
     fit-margin-bottom="0"
     inkscape:window-width="958"
     inkscape:window-height="991"
     inkscape:window-x="952"
     inkscape:window-y="0"
     inkscape:window-maximized="0"
     inkscape:snap-global="false"
     showguides="false" />
  <metadata
     id="metadata1076">
    <rdf:RDF>
      <cc:Work
         rdf:about="">
        <dc:format>image/svg+xml</dc:format>
        <dc:type
           rdf:resource="http://purl.org/dc/dcmitype/StillImage" />
        <dc:title></dc:title>
      </cc:Work>
    </rdf:RDF>
  </metadata>
  <g
     inkscape:label="Ebene 1"
     inkscape:groupmode="layer"
     id="layer1"
     transform="translate(-67.232141,-155.41071)">
    <g
       id="g1782">
      <g
         transform="matrix(1.0037152,0,0,1.0038501,43.458405,92.506428)"
         style="fill:#040f4f;fill-opacity:1;stroke:none;stroke-width:0.1;stroke-linecap:round;stroke-linejoin:round;stroke-miterlimit:4;stroke-dasharray:none"
         id="g2384">
        <path
           sodipodi:nodetypes="ccsccc"
           inkscape:connector-curvature="0"
           id="path2379"
           d="m 23.685739,62.663023 h 99.675681 c 5.78011,6.133058 8.76542,12.932231 11.99785,19.014489 5.50042,10.349797 4.05232,39.986848 -11.99785,50.717038 H 23.685739 Z"
           style="fill:#040f4f;fill-opacity:1;stroke:none;stroke-width:0.1;stroke-linecap:butt;stroke-linejoin:miter;stroke-miterlimit:4;stroke-dasharray:none;stroke-opacity:1" />
      </g>
      <g
         id="g19973"
         transform="translate(11.386905,-1.1711297)" />
      <path
         style="fill:#f5a11d;fill-opacity:1;stroke-width:0.26458332"
         d="m 125.60527,209.77522 c 0.20505,-0.20504 0.3175,-1.26434 0.3175,-2.9908 v -2.67331 l 0.95266,-0.91179 c 1.14991,-1.10059 2.75152,-3.39743 3.54262,-5.08041 0.52275,-1.1121 0.79164,-1.33639 2.73855,-2.28418 2.29222,-1.11591 3.30337,-1.79347 4.94988,-3.31688 1.01218,-0.9365 1.04578,-0.94596 3.36226,-0.94596 2.43781,0 2.97486,-0.20729 2.97486,-1.14823 0,-0.9052 -0.78676,-1.21565 -3.10341,-1.2246 l -2.17736,-0.008 -1.09211,-1.18479 c -1.01065,-1.09643 -3.43853,-2.78932 -5.0042,-3.48927 -0.3638,-0.16264 -1.04249,-0.46386 -1.5082,-0.66937 -0.5996,-0.2646 -1.08742,-0.83119 -1.67132,-1.9412 -0.76089,-1.44648 -1.4548,-2.39817 -3.27332,-4.48932 -0.64079,-0.73686 -0.69028,-0.97571 -0.69058,-3.33243 -2.6e-4,-2.20414 -0.0702,-2.60192 -0.53057,-3.01855 -0.43812,-0.39649 -0.64497,-0.42759 -1.19062,-0.17897 -0.63263,0.28825 -0.66039,0.40058 -0.66039,2.67242 v 2.37152 l -1.30287,1.48887 c -1.31778,1.50589 -2.80851,3.82125 -3.41566,5.3051 -0.26328,0.64344 -0.85408,1.07647 -2.87256,2.10543 -1.65792,0.84517 -3.10088,1.82806 -4.15169,2.82798 l -1.6106,1.53259 h -2.07195 c -2.34143,0 -3.0955,0.27941 -3.0955,1.14701 0,1.03913 0.48286,1.23424 3.05462,1.23424 2.12978,0 2.47999,0.0671 2.92364,0.56054 0.75664,0.84149 3.66146,2.85906 5.48555,3.81004 1.46144,0.76192 1.70196,1.01305 2.55432,2.66704 1.20454,2.33738 2.11612,3.73129 3.12264,4.77487 1.21692,1.26173 1.38006,1.73366 1.38006,3.9922 0,2.19545 0.22825,2.71614 1.19063,2.71614 0.30559,0 0.6985,-0.14288 0.87312,-0.3175 z m -2.48722,-9.41376 c -0.52436,-0.34326 -1.73401,-2.48075 -1.60062,-2.82836 0.15807,-0.41191 1.35375,-0.23241 1.76676,0.26524 0.38267,0.46108 0.22962,2.82219 -0.16614,2.56312 z m 2.80472,-1.19603 c 0,-1.28396 0.34777,-1.77271 1.26137,-1.77271 0.52676,0 0.59762,0.0947 0.44554,0.59532 -0.17998,0.59251 -1.36162,2.3151 -1.58808,2.3151 -0.0654,0 -0.11883,-0.51197 -0.11883,-1.13771 z m -4.35914,-4.38994 c -1.20041,-0.18361 -1.77592,-0.97191 -1.66277,-2.27756 0.0639,-0.73725 0.15203,-0.79969 1.23819,-0.8773 2.14116,-0.15299 2.40247,0.0263 2.40247,1.64779 0,1.05247 -0.10872,1.46358 -0.41851,1.58246 -0.23019,0.0883 -0.43854,0.1437 -0.46302,0.12305 -0.0245,-0.0206 -0.51784,-0.10995 -1.09636,-0.19844 z m 4.47364,-0.11185 c -0.0804,-0.20947 -0.10926,-0.96104 -0.0642,-1.67016 l 0.082,-1.2893 h 1.5875 1.5875 l -0.0698,1.31338 c -0.0384,0.72235 -0.15747,1.39305 -0.26458,1.49043 -0.10711,0.0974 -0.76119,0.25794 -1.45349,0.35678 -0.97314,0.13894 -1.2919,0.0933 -1.40489,-0.20113 z m -10.10252,-1.82611 c -0.76398,-0.47124 -1.38906,-0.94879 -1.38906,-1.06122 0,-0.11243 0.59905,-0.20442 1.33122,-0.20442 1.43598,0 1.68335,0.23172 1.53278,1.43575 l -0.0859,0.6867 z m 15.80885,0.1102 c 0,-0.40746 0.14287,-0.88371 0.3175,-1.05834 0.35866,-0.35865 2.8575,-0.43951 2.8575,-0.0925 0,0.25079 -2.53982,1.89164 -2.92799,1.89164 -0.13585,0 -0.24701,-0.33338 -0.24701,-0.74084 z m -17.18317,-4.4385 c 1.07291,-0.80226 2.22751,-1.43525 2.61795,-1.43525 0.15275,0 0.27773,0.47625 0.27773,1.05833 v 1.05833 h -1.90349 -1.90349 z m 5.28091,-0.0462 c 0.002,-0.40019 0.16971,-1.20386 0.37227,-1.78594 0.36774,-1.05672 0.37046,-1.05833 1.78196,-1.05833 h 1.41366 l 0.0782,1.78593 0.0782,1.78594 h -1.86417 c -1.85822,0 -1.86416,-0.002 -1.86019,-0.7276 z m 6.08143,-1.15889 v -1.8865 l 1.2179,0.13728 c 1.53401,0.1729 1.85164,0.51816 2.06691,2.24665 l 0.173,1.38906 h -1.7289 -1.72891 z m 5.99722,1.7101 c -0.21124,-0.21124 -0.23923,-2.20486 -0.031,-2.20486 0.28654,0 1.80736,0.86338 2.84547,1.61539 l 1.05724,0.76586 h -1.84768 c -1.01623,0 -1.92705,-0.0794 -2.02407,-0.17639 z m -5.83662,-6.32754 c -0.0883,-0.23018 -0.15576,-0.79573 -0.14985,-1.25677 l 0.0108,-0.83826 0.78299,0.91605 c 0.43065,0.50383 0.783,1.06937 0.783,1.25677 0,0.48893 -1.23527,0.42159 -1.4269,-0.0778 z m -4.39393,0.008 c 0,-0.41597 1.23678,-2.23144 1.52135,-2.23319 0.42801,-0.003 0.43853,1.63641 0.0132,2.06171 -0.31513,0.31513 -1.53458,0.4514 -1.53458,0.17148 z"
         id="path46-0"
         inkscape:connector-curvature="0"
         sodipodi:nodetypes="scscccssccssccscccscsssccssscsccssccsscssccsscccscccccccccccccccsccccsssccscscccsccscccsccccscccccccccsccccccscccccccc" />
    </g>
  </g>
</svg>
