<?xml version="1.0" encoding="UTF-8" standalone="no"?>
<!-- Created with Inkscape (http://www.inkscape.org/) -->

<svg
   xmlns:dc="http://purl.org/dc/elements/1.1/"
   xmlns:cc="http://creativecommons.org/ns#"
   xmlns:rdf="http://www.w3.org/1999/02/22-rdf-syntax-ns#"
   xmlns:svg="http://www.w3.org/2000/svg"
   xmlns="http://www.w3.org/2000/svg"
   xmlns:sodipodi="http://sodipodi.sourceforge.net/DTD/sodipodi-0.dtd"
   xmlns:inkscape="http://www.inkscape.org/namespaces/inkscape"
   width="115.00001mm"
   height="70mm"
   viewBox="0 0 115.00001 70"
   version="1.1"
   id="svg1079"
   inkscape:version="0.92.4 (5da689c313, 2019-01-14)"
   sodipodi:docname="19.2.svg">
  <defs
     id="defs1073">
    <clipPath
       clipPathUnits="userSpaceOnUse"
       id="clipPath1058">
      <ellipse
         style="fill:#ffcc00;fill-opacity:1;stroke:#ffcc00;stroke-width:5.25652218;stroke-linecap:butt;stroke-linejoin:miter;stroke-miterlimit:4;stroke-dasharray:none;stroke-opacity:1"
         id="ellipse1060"
         cx="59.323036"
         cy="0.8915832"
         rx="27.6078"
         ry="26.313755" />
    </clipPath>
  </defs>
  <sodipodi:namedview
     id="base"
     pagecolor="#ffffff"
     bordercolor="#666666"
     borderopacity="1.0"
     inkscape:pageopacity="0.0"
     inkscape:pageshadow="2"
     inkscape:zoom="0.7"
     inkscape:cx="238.55653"
     inkscape:cy="155.87833"
     inkscape:document-units="mm"
     inkscape:current-layer="g1782"
     showgrid="false"
     fit-margin-top="0"
     fit-margin-left="0"
     fit-margin-right="0"
     fit-margin-bottom="0"
     inkscape:window-width="958"
     inkscape:window-height="991"
     inkscape:window-x="952"
     inkscape:window-y="0"
     inkscape:window-maximized="0"
     inkscape:snap-global="false"
     showguides="false" />
  <metadata
     id="metadata1076">
    <rdf:RDF>
      <cc:Work
         rdf:about="">
        <dc:format>image/svg+xml</dc:format>
        <dc:type
           rdf:resource="http://purl.org/dc/dcmitype/StillImage" />
        <dc:title></dc:title>
      </cc:Work>
    </rdf:RDF>
  </metadata>
  <g
     inkscape:label="Ebene 1"
     inkscape:groupmode="layer"
     id="layer1"
     transform="translate(-67.232141,-155.41071)">
    <g
       id="g1782">
      <g
         transform="matrix(1.0037152,0,0,1.0038501,43.458405,92.506428)"
         style="fill:#040f4f;fill-opacity:1;stroke:none;stroke-width:0.1;stroke-linecap:round;stroke-linejoin:round;stroke-miterlimit:4;stroke-dasharray:none"
         id="g2384">
        <path
           sodipodi:nodetypes="ccsccc"
           inkscape:connector-curvature="0"
           id="path2379"
           d="m 23.685739,62.663023 h 99.675681 c 5.78011,6.133058 8.76542,12.932231 11.99785,19.014489 5.50042,10.349797 4.05232,39.986848 -11.99785,50.717038 H 23.685739 Z"
           style="fill:#040f4f;fill-opacity:1;stroke:none;stroke-width:0.1;stroke-linecap:butt;stroke-linejoin:miter;stroke-miterlimit:4;stroke-dasharray:none;stroke-opacity:1" />
      </g>
      <g
         id="g19973"
         transform="translate(11.386905,-1.1711297)" />
      <path
         style="fill:#f5a11d;fill-opacity:0.94117647;stroke-width:0.26458332"
         d="m 125.6767,201.2853 0.99218,-0.17944 c 3.94069,-0.71268 7.97504,-4.69158 8.46564,-8.34927 l 0.13422,-1.00065 2.25362,-0.076 c 1.75902,-0.0593 2.31446,-0.17271 2.53082,-0.5168 0.20078,-0.31929 0.18131,-0.55638 -0.0706,-0.8599 -0.30123,-0.36296 -1.28185,-0.41905 -7.32684,-0.41905 h -6.97906 v -6.86027 c 0,-5.88383 -0.0592,-6.91944 -0.41578,-7.27604 -0.52218,-0.52217 -0.76294,-0.52217 -1.28512,0 -0.30226,0.30226 -0.41577,0.94466 -0.41577,2.35295 0,2.03197 -0.13643,2.25836 -1.36094,2.25836 -0.93956,0 -3.50174,1.39542 -4.81125,2.62031 -1.57614,1.4743 -2.51934,3.0456 -3.09618,5.15799 l -0.44085,1.61441 -2.22038,0.13229 c -1.86579,0.11117 -2.23485,0.20827 -2.31099,0.60803 -0.22506,1.18163 0.14595,1.24406 7.39382,1.24406 h 6.84677 l 0.004,6.54843 c -0.62977,6.16349 2.11268,10.97445 2.11268,3.00055 z m 0,-5.8102 v -3.73878 h 3.85748 3.85748 l -0.18561,0.8599 c -0.65429,3.03133 -3.67522,5.99223 -6.5976,6.46647 l -0.93175,0.1512 z m -9.44217,-6.71534 c 0.19407,-1.41013 0.69596,-2.42245 1.89618,-3.82463 0.99364,-1.16085 3.75376,-2.72381 4.81012,-2.72381 h 0.6192 v 3.83646 3.83646 h -3.74012 -3.74014 z"
         id="path46-2"
         inkscape:connector-curvature="0"
         sodipodi:nodetypes="ccccsccscsccsscccsssccccccccscccsscccccc" />
    </g>
  </g>
</svg>
