<?xml version="1.0" encoding="UTF-8" standalone="no"?>
<!-- Created with Inkscape (http://www.inkscape.org/) -->

<svg
   xmlns:dc="http://purl.org/dc/elements/1.1/"
   xmlns:cc="http://creativecommons.org/ns#"
   xmlns:rdf="http://www.w3.org/1999/02/22-rdf-syntax-ns#"
   xmlns:svg="http://www.w3.org/2000/svg"
   xmlns="http://www.w3.org/2000/svg"
   xmlns:sodipodi="http://sodipodi.sourceforge.net/DTD/sodipodi-0.dtd"
   xmlns:inkscape="http://www.inkscape.org/namespaces/inkscape"
   width="115.00001mm"
   height="70mm"
   viewBox="0 0 115.00001 70"
   version="1.1"
   id="svg1079"
   inkscape:version="0.92.4 (5da689c313, 2019-01-14)"
   sodipodi:docname="19.4.svg">
  <defs
     id="defs1073">
    <clipPath
       clipPathUnits="userSpaceOnUse"
       id="clipPath1058">
      <ellipse
         style="fill:#ffcc00;fill-opacity:1;stroke:#ffcc00;stroke-width:5.25652218;stroke-linecap:butt;stroke-linejoin:miter;stroke-miterlimit:4;stroke-dasharray:none;stroke-opacity:1"
         id="ellipse1060"
         cx="59.323036"
         cy="0.8915832"
         rx="27.6078"
         ry="26.313755" />
    </clipPath>
  </defs>
  <sodipodi:namedview
     id="base"
     pagecolor="#ffffff"
     bordercolor="#666666"
     borderopacity="1.0"
     inkscape:pageopacity="0.0"
     inkscape:pageshadow="2"
     inkscape:zoom="0.7"
     inkscape:cx="238.55653"
     inkscape:cy="155.87833"
     inkscape:document-units="mm"
     inkscape:current-layer="g1782"
     showgrid="false"
     fit-margin-top="0"
     fit-margin-left="0"
     fit-margin-right="0"
     fit-margin-bottom="0"
     inkscape:window-width="958"
     inkscape:window-height="991"
     inkscape:window-x="952"
     inkscape:window-y="0"
     inkscape:window-maximized="0"
     inkscape:snap-global="false"
     showguides="false" />
  <metadata
     id="metadata1076">
    <rdf:RDF>
      <cc:Work
         rdf:about="">
        <dc:format>image/svg+xml</dc:format>
        <dc:type
           rdf:resource="http://purl.org/dc/dcmitype/StillImage" />
        <dc:title></dc:title>
      </cc:Work>
    </rdf:RDF>
  </metadata>
  <g
     inkscape:label="Ebene 1"
     inkscape:groupmode="layer"
     id="layer1"
     transform="translate(-67.232141,-155.41071)">
    <g
       id="g1782">
      <g
         transform="matrix(1.0037152,0,0,1.0038501,43.458405,92.506428)"
         style="fill:#040f4f;fill-opacity:1;stroke:none;stroke-width:0.1;stroke-linecap:round;stroke-linejoin:round;stroke-miterlimit:4;stroke-dasharray:none"
         id="g2384">
        <path
           sodipodi:nodetypes="ccsccc"
           inkscape:connector-curvature="0"
           id="path2379"
           d="m 23.685739,62.663023 h 99.675681 c 5.78011,6.133058 8.76542,12.932231 11.99785,19.014489 5.50042,10.349797 4.05232,39.986848 -11.99785,50.717038 H 23.685739 Z"
           style="fill:#040f4f;fill-opacity:1;stroke:none;stroke-width:0.1;stroke-linecap:butt;stroke-linejoin:miter;stroke-miterlimit:4;stroke-dasharray:none;stroke-opacity:1" />
      </g>
      <g
         id="g19973"
         transform="translate(11.386905,-1.1711297)" />
      <path
         style="fill:#f5a11d;fill-opacity:0.94117647;stroke-width:0.26458332"
         d="m 125.7715,209.82642 c 0.15064,-0.28147 0.2739,-1.57658 0.2739,-2.87801 0,-2.5151 0.10746,-2.7551 1.36825,-3.05584 0.94127,-0.22452 2.97175,-1.79336 3.0855,-2.384 0.0943,-0.48942 -0.63888,-1.48912 -1.09206,-1.48912 -0.14326,0 -0.84096,0.35718 -1.55047,0.79375 -0.70951,0.43656 -1.40991,0.79375 -1.55645,0.79375 -0.17196,0 -0.24092,-1.75925 -0.19447,-4.96094 l 0.072,-4.96094 h 4.7625 c 5.35998,0 5.27751,-0.0408 3.95677,1.95499 -0.76949,1.16281 -0.6281,2.07493 0.36009,2.32296 0.56747,0.14242 0.83943,-0.007 1.62203,-0.89034 0.51715,-0.58379 1.12965,-1.58483 1.36111,-2.22452 l 0.42086,-1.16309 2.60703,-0.0764 c 2.74494,-0.0804 3.29814,-0.28603 3.29814,-1.22605 0,-1.03704 -0.48304,-1.21114 -3.36021,-1.21114 -1.66,0 -2.72521,-0.10455 -2.72521,-0.26747 0,-0.51225 -1.10718,-2.6184 -1.72942,-3.28981 -0.74824,-0.80735 -1.84223,-0.88886 -2.22907,-0.16606 -0.31167,0.58237 -0.15818,1.09893 0.70454,2.3712 0.33446,0.49324 0.60813,0.99926 0.60813,1.12447 0,0.12522 -2.20267,0.22767 -4.89479,0.22767 h -4.89479 v -4.89479 c 0,-3.74005 0.078,-4.89453 0.33072,-4.89366 0.18191,5.3e-4 0.86651,0.3573 1.52136,0.79262 0.65484,0.43531 1.30031,0.79199 1.43437,0.79261 0.42094,0.002 1.21146,-0.85501 1.21146,-1.31329 0,-0.6646 -1.27864,-1.7499 -2.97656,-2.52647 l -1.52135,-0.69581 v -2.62034 c 0,-2.4838 -0.0335,-2.64232 -0.64372,-3.04212 -0.50074,-0.32809 -0.76519,-0.35676 -1.19063,-0.12908 -0.48811,0.26123 -0.54729,0.54057 -0.55052,2.59849 -0.004,2.63703 -0.17143,3.49642 -0.68065,3.49642 -0.52252,0 -2.24529,1.00166 -3.08605,1.7943 -0.86344,0.81402 -0.91908,1.38999 -0.19736,2.04313 0.57494,0.52032 0.74704,0.47357 2.60468,-0.70748 0.73595,-0.4679 0.92625,-0.50057 1.12389,-0.19297 0.13086,0.20367 0.20842,2.39438 0.17237,4.86823 l -0.0656,4.49792 -4.82864,0.0721 c -5.40996,0.0808 -5.38222,0.0923 -4.04226,-1.67863 0.96913,-1.28083 0.99737,-1.82457 0.12451,-2.39649 -0.63962,-0.41909 -0.71555,-0.41523 -1.38906,0.0706 -0.39186,0.28268 -1.11602,1.31287 -1.60925,2.28931 l -0.89678,1.77535 h -2.59005 c -2.00181,0 -2.68447,0.0944 -3.00582,0.41578 -0.48755,0.48755 -0.51399,0.75841 -0.14188,1.4537 0.24168,0.4516 0.57618,0.51225 2.84427,0.51582 1.4137,0.002 2.70088,0.0915 2.86037,0.19844 0.1595,0.10691 0.36629,0.50655 0.45955,0.88806 0.0933,0.38151 0.5688,1.27448 1.05677,1.98437 0.70018,1.0186 1.06307,1.30816 1.72137,1.37347 0.67511,0.067 0.89168,-0.0435 1.13595,-0.57962 0.2622,-0.57546 0.19301,-0.82666 -0.52727,-1.91407 -0.45598,-0.68842 -0.82907,-1.40985 -0.82907,-1.60317 0,-0.48203 8.99179,-0.51432 9.47209,-0.034 0.33561,0.33562 0.46168,7.98107 0.15073,9.14136 -0.20932,0.78106 -0.5451,0.74264 -1.7986,-0.2058 -0.57162,-0.43251 -1.17825,-0.78639 -1.34805,-0.78639 -0.49399,0 -1.23926,0.97547 -1.13981,1.49188 0.10986,0.57047 2.55277,2.47366 3.17756,2.47554 0.99423,0.003 1.27567,0.72542 1.27567,3.27461 0,1.54633 0.11642,2.55814 0.3175,2.75921 0.48607,0.48608 1.4837,0.37779 1.78985,-0.19427 z"
         id="path46-9"
         inkscape:connector-curvature="0"
         sodipodi:nodetypes="csccscsccsscccccssscccsscscccsscscccsccscccccccccscccccccccscccsccsccc" />
    </g>
  </g>
</svg>
