<?xml version="1.0" encoding="UTF-8" standalone="no"?>
<!-- Created with Inkscape (http://www.inkscape.org/) -->

<svg
   xmlns:dc="http://purl.org/dc/elements/1.1/"
   xmlns:cc="http://creativecommons.org/ns#"
   xmlns:rdf="http://www.w3.org/1999/02/22-rdf-syntax-ns#"
   xmlns:svg="http://www.w3.org/2000/svg"
   xmlns="http://www.w3.org/2000/svg"
   xmlns:sodipodi="http://sodipodi.sourceforge.net/DTD/sodipodi-0.dtd"
   xmlns:inkscape="http://www.inkscape.org/namespaces/inkscape"
   width="325mm"
   height="200mm"
   viewBox="0 0 325 200"
   version="1.1"
   id="svg8"
   inkscape:version="0.92.4 (5da689c313, 2019-01-14)"
   sodipodi:docname="19.svg">
  <defs
     id="defs2">
    <clipPath
       clipPathUnits="userSpaceOnUse"
       id="clipPath840-6">
      <path
         id="path842-9"
         style="fill:#333333;fill-opacity:1;stroke-width:0.51792622"
         d="m 225.80294,89.923178 c -1.79117,-5.29e-4 -3.60104,0.729229 -5.65572,2.190055 -1.87,1.329518 -3.0828,1.806479 -4.61076,1.812742 -4.17244,0.01714 -8.02987,3.664183 -8.02987,7.592885 0,1.12603 -0.36778,1.92055 -1.14106,2.46217 -0.62772,0.43967 -1.79306,1.76975 -2.58963,2.95582 -1.79303,2.66975 -1.95581,6.08241 -0.4107,8.61659 0.78492,1.28742 1.03383,2.60946 1.03383,5.49083 0,4.91961 1.17156,6.83593 5.1479,8.42541 1.52804,0.6108 3.00664,1.54307 3.2866,2.0717 0.90747,1.71355 3.18113,3.91961 4.77262,4.62998 2.03137,0.9067 3.36104,0.89885 6.10687,-0.0334 1.67583,-0.56895 2.71434,-0.63575 4.02809,-0.25896 4.84498,1.38952 8.81241,0.10798 10.90174,-3.52231 0.79591,-1.38294 2.05686,-2.48317 4.03719,-3.5223 1.64837,-0.86493 3.40324,-2.28645 4.10396,-3.32404 1.06335,-1.57445 1.18744,-2.22906 0.93976,-4.98504 -0.21736,-2.41854 -0.0458,-3.80592 0.72428,-5.83274 1.75186,-4.61051 0.98775,-8.08991 -2.33268,-10.62254 -1.0214,-0.77905 -1.82476,-1.93925 -2.02012,-2.91637 -0.98743,-4.937139 -4.03227,-7.754732 -8.38089,-7.754732 -1.98276,0 -3.0546,-0.314166 -4.36596,-1.281666 -1.98197,-1.462233 -3.75429,-2.193475 -5.54545,-2.194105 z m -94.32023,0.0021 c -1.78684,-0.0352 -3.47644,0.625258 -5.02247,1.982685 -1.32827,1.166241 -2.56152,1.674733 -4.84038,1.996847 -1.68174,0.23771 -3.80596,0.819589 -4.72102,1.292791 -1.7849,0.923002 -3.62291,4.210955 -3.64268,6.516569 -0.007,0.83065 -0.70223,1.98666 -1.86838,3.10755 -1.02131,0.98168 -2.21258,2.46417 -2.64729,3.2947 -1.02607,1.96046 -0.6659,5.89429 0.72125,7.87612 0.85411,1.22039 0.99968,2.06466 0.80218,4.65831 -0.37891,4.97679 1.25916,7.56195 5.81656,9.177 0.9767,0.34613 2.45272,1.59641 3.46161,2.93357 0.96718,1.28187 2.56738,2.73897 3.55669,3.23704 2.21992,1.1176 3.42416,1.13375 6.49836,0.09 1.95203,-0.66273 2.68698,-0.69938 3.90163,-0.19625 0.85393,0.35373 2.83145,0.52285 4.6057,0.39452 2.52481,-0.18264 3.39421,-0.49809 4.62492,-1.6772 0.83361,-0.79863 1.78521,-2.10351 2.1152,-2.90018 0.34823,-0.8407 1.28746,-1.71953 2.23862,-2.09396 4.85223,-1.91011 6.84514,-4.85489 6.36887,-9.41169 -0.25594,-2.44874 -0.11728,-3.43312 0.71316,-5.06091 1.2155,-2.38258 1.3471,-6.16467 0.28527,-8.21803 -0.41049,-0.79382 -1.55524,-2.05971 -2.5431,-2.81319 -1.30255,-0.9935 -1.88894,-1.91857 -2.13341,-3.36551 -0.77164,-4.567294 -3.91813,-7.341717 -8.33133,-7.345046 -1.97087,-0.0016 -3.04874,-0.31859 -4.35685,-1.283687 -1.93281,-1.42598 -3.81627,-2.15687 -5.60311,-2.192081 z m 187.67239,0.10722 c -2.36514,0 -3.06129,0.259019 -5.22177,1.942227 -1.89955,1.479931 -2.96992,1.942224 -4.49643,1.942224 -4.28129,0 -7.37856,2.430029 -8.11384,6.365841 -0.31068,1.66299 -1.05723,3.09027 -2.38429,4.55917 -2.1065,2.33164 -3.38472,4.91882 -3.38472,6.85038 0,0.67887 0.59306,2.34779 1.31706,3.70944 1.05554,1.98528 1.25129,2.906 0.99033,4.64617 -0.68043,4.5375 2.05422,9.00339 6.05023,9.88106 0.92021,0.20211 2.07294,1.199 3.20063,2.76868 0.96951,1.34947 2.55354,2.84325 3.51927,3.31897 2.19575,1.08166 3.85821,1.10534 6.71584,0.0971 1.69013,-0.59632 2.61758,-0.66004 3.76812,-0.25896 0.83934,0.2926 2.75436,0.53209 4.25669,0.53209 3.05549,0 4.98557,-1.21441 6.93333,-4.36596 0.66807,-1.08095 2.12992,-2.2527 3.88546,-3.1116 3.5301,-1.72712 5.15972,-4.12086 5.00528,-7.35415 -0.0593,-1.24264 -0.12681,-2.78426 -0.1497,-3.42519 -0.023,-0.64093 0.48173,-2.49253 1.12083,-4.11509 1.62581,-4.12774 1.17454,-6.12385 -2.11622,-9.36313 -1.46653,-1.44359 -2.54513,-2.97188 -2.54513,-3.60728 0,-0.60643 -0.46612,-2.06617 -1.03585,-3.243106 -1.31402,-2.71441 -4.16427,-4.402373 -7.43508,-4.402373 -1.84375,0 -2.90819,-0.376227 -4.7625,-1.68326 -1.96344,-1.383964 -2.87372,-1.683264 -5.11754,-1.683264 z m -93.68093,2.322579 c 1.26252,-0.02347 2.59211,0.41715 3.9239,1.322128 1.06313,0.722418 1.93312,1.405837 1.93312,1.518372 0,0.112541 -1.04879,3.007847 -2.33067,6.434633 -1.28185,3.42678 -2.33066,6.45889 -2.33066,6.7381 0,1.11103 -1.06359,1.07672 -1.47488,-0.0476 -0.24074,-0.65808 -1.43468,-3.86382 -2.65235,-7.12452 l -2.21332,-5.928845 1.62458,-1.45161 c 1.06267,-0.949499 2.25776,-1.437237 3.52028,-1.460711 z m -94.16039,0.0051 c 1.02323,-0.02574 2.08294,0.22088 3.09945,0.74654 2.93812,1.519354 2.94496,1.731767 0.29943,8.939293 -2.073,5.64768 -3.34122,8.43518 -3.34122,7.34403 0,-0.14994 -1.18019,-3.40058 -2.62301,-7.22366 l -2.62302,-6.951542 1.59526,-1.425308 c 1.02245,-0.913561 2.27752,-1.396256 3.59311,-1.429356 z m 187.92326,0.05766 c 1.11638,0.02778 2.22438,0.408278 3.30279,1.141055 2.23827,1.520894 2.20385,2.203606 -0.46736,9.360108 -1.15686,3.09936 -2.30182,5.83323 -2.5441,6.07551 -0.24228,0.24229 -1.08958,-1.36054 -1.88256,-3.56276 -0.79293,-2.20222 -1.89262,-5.14269 -2.44396,-6.533767 -1.37676,-3.473776 -1.27299,-4.312725 0.6808,-5.503977 1.11242,-0.678259 2.23798,-1.003951 3.35439,-0.976169 z M 141.26868,95.52744 c 0.64774,-0.01905 1.4185,0.167878 2.37012,0.530066 2.39052,0.909836 3.90453,2.952597 3.98459,5.378544 0.0632,1.91412 0.0598,1.91675 -6.04719,5.48475 -3.36053,1.96341 -6.44284,3.56985 -6.84938,3.56985 -0.41541,0 -0.42484,-0.51673 0.0587,-2.05349 0.10281,0.0604 -0.49101,1.07807 0,0 0.40402,-0.90467 4.62909,-12.894811 4.53209,-12.543352 -1.01916,2.872074 -6.17676,16.109402 -5.26419,15.286662 0.73816,-2.02783 3.67688,-10.9551 4.12493,-12.215722 0.83795,-2.357644 1.66532,-3.395403 3.09036,-3.437329 z m 188.21258,0.443069 c 0.1774,-0.0037 0.35766,-0.0016 0.53816,0.0071 0.8663,0.04162 1.74326,0.22741 2.3863,0.57154 1.08347,0.579871 2.99755,4.224811 3.01752,5.745741 0.008,0.57219 -2.17003,2.1151 -6.39519,4.53186 -3.5234,2.01537 -6.5432,3.66392 -6.71079,3.66392 -0.24349,0 2.98009,-9.56579 4.58145,-13.595562 0.2286,-0.575281 1.34075,-0.89901 2.58255,-0.924579 z m -112.97571,0.0182 c 1.6249,0 1.84978,0.192585 2.57547,2.201185 0.43741,1.210654 1.62146,4.415326 2.63111,7.121486 1.00964,2.70617 1.83917,4.97857 1.84308,5.04978 0.0364,0.64392 -2.31992,-0.42011 -7.53825,-3.40496 -5.16154,-2.95238 -6.20545,-3.75737 -6.33954,-4.8859 -0.38645,-3.25205 2.79015,-6.081591 6.82813,-6.081591 z m -94.60245,0.0081 c 1.99782,0.01098 2.45218,0.427495 3.37967,3.099464 0.44495,1.281867 1.52966,4.311737 2.41058,6.733037 0.88095,2.42131 1.6028,4.46064 1.60436,4.53186 0.01,0.49844 -1.7191,-0.11953 -4.14138,-1.48095 -10.60066,-5.95794 -10.67993,-6.04363 -8.97368,-9.639294 0.92913,-1.957991 3.22058,-3.257822 5.72045,-3.24412 z m 114.53351,0.06171 c 1.89283,0.03608 3.11355,0.829444 4.24356,2.682695 1.96362,3.220436 1.51199,4.161976 -3.37867,7.050676 -6.59432,3.89496 -8.56421,4.83284 -8.53465,4.06248 0.0139,-0.36186 1.12095,-3.57187 2.46015,-7.13261 l 2.43486,-6.474078 1.92098,-0.158816 c 0.29954,-0.02487 0.58337,-0.0355 0.85377,-0.03034 z m 75.39265,0.189163 2.50973,6.649078 c 1.38012,3.65674 2.43719,6.97401 2.3499,7.37135 -0.11168,0.50805 -2.1136,-0.3895 -6.74621,-3.0236 -6.57968,-3.74123 -6.5879,-3.74818 -6.60355,-5.67999 -0.0119,-1.41304 0.38543,-2.382137 1.47285,-3.599184 1.31562,-1.47243 1.80896,-1.668703 4.25265,-1.691354 z m -197.42092,9.063708 c 0.8344,0 13.33762,7.28101 13.33762,7.76687 0,0.49309 -0.80587,0.68067 -7.7689,1.80971 -2.70617,0.4388 -5.44989,0.91689 -6.09777,1.06215 -1.7769,0.39844 -3.74283,-1.9636 -3.74283,-4.49746 0,-1.56428 0.4045,-2.44161 1.87344,-4.06754 1.03014,-1.14026 2.10942,-2.07373 2.39844,-2.07373 z m 35.0288,0 c 0.55314,0 1.60938,0.71781 2.34686,1.59424 1.67107,1.98596 1.80053,5.1552 0.31055,7.59895 -0.56447,0.9258 -1.20444,1.66579 -1.42227,1.64381 -3.08534,-0.31137 -14.34445,-2.56565 -14.72752,-2.94874 -0.33936,-0.33935 0.42294,-1.03325 2.24772,-2.0454 1.51858,-0.84233 4.44389,-2.5016 6.50038,-3.68719 2.05649,-1.18559 4.19115,-2.15567 4.74428,-2.15567 z m 152.52725,0 c 0.67683,0 12.09629,6.38695 12.95523,7.24591 0.8418,0.84179 0.11838,1.09655 -5.99054,2.11217 -3.22586,0.53631 -6.50272,1.09041 -7.28232,1.2321 -2.36335,0.42952 -4.55289,-2.73268 -3.83589,-5.5404 0.37874,-1.48309 3.3124,-5.04978 4.15352,-5.04978 z m -58.55702,0.10318 c 0.86073,-0.0171 1.51188,0.4568 2.46622,1.41115 1.76936,1.76935 2.00916,4.27733 0.67775,7.08305 -0.78001,1.64373 -0.99648,1.7581 -3.23704,1.71259 -3.07651,-0.0625 -12.4936,-1.80835 -13.11709,-2.43182 -0.4495,-0.44951 1.70691,-1.86762 9.48453,-6.24041 1.79461,-1.00898 2.86489,-1.51745 3.72563,-1.53456 z m 93.79117,0.2529 c 0.99246,-0.0146 1.57509,0.58658 2.36609,1.69742 1.27807,1.79478 1.33864,4.03703 0.176,6.47509 -0.72845,1.52756 -1.13538,1.82313 -2.46015,1.78846 -1.81948,-0.0476 -13.10891,-2.2436 -13.48933,-2.62402 -0.13874,-0.13874 2.66637,-1.93999 6.23332,-4.00179 3.94507,-2.28038 5.89809,-3.31639 7.17407,-3.33516 z m -128.55191,0.0455 c 1.2877,0.1133 3.2028,1.16273 6.85241,3.24513 3.94204,2.24925 6.38417,3.93792 6.10182,4.22029 -0.25893,0.2589 -2.8951,0.89658 -5.85804,1.41721 -9.62006,1.69039 -9.12681,1.68065 -10.29681,0.19321 -1.39264,-1.77039 -1.34514,-4.57579 0.1143,-6.70573 1.13822,-1.66111 1.79862,-2.48342 3.08632,-2.37011 z m 114.55273,10.03077 c 1.57202,-0.007 10.07896,1.34443 13.01189,2.09396 2.5014,0.63925 2.83072,1.08844 2.84051,3.87838 0.006,1.6932 -0.31035,2.47847 -1.46476,3.62548 -1.59721,1.58693 -4.34239,2.82405 -5.11553,2.30538 -1.30934,-0.87838 -9.97053,-11.72298 -9.4906,-11.88297 0.0395,-0.0131 0.11369,-0.0197 0.21849,-0.0202 z m -195.70832,0.0223 c 1.12016,0.0533 0.0864,1.22937 -4.54399,6.83622 -2.49725,3.02386 -4.82793,5.48861 -5.17927,5.47667 -1.26999,-0.0432 -4.15695,-1.91614 -4.83229,-3.13488 -0.76611,-1.38258 -0.94255,-5.02438 -0.29336,-6.04719 0.38164,-0.60129 7.02197,-2.08566 13.20915,-2.95279 0.57274,-0.0803 1.04302,-0.15487 1.38788,-0.175 0.0934,-0.005 0.1772,-0.007 0.25188,-0.003 z m 8.21094,0.005 c 2.08556,0.0695 9.99288,1.28373 12.91376,2.03529 2.32632,0.59857 3.2359,2.16176 2.75351,4.73316 -0.33456,1.78333 -1.69201,3.38556 -3.77823,4.46003 -2.27168,1.16998 -3.02289,0.67933 -7.89534,-5.15397 -2.63545,-3.15515 -4.6587,-5.86976 -4.49544,-6.03304 0.0196,-0.0196 0.0762,-0.033 0.1659,-0.0394 0.0841,-0.006 0.1968,-0.007 0.33584,-0.002 z m 179.41288,0.0253 c 0.26204,-0.009 0.42172,0.003 0.45725,0.0384 0.4464,0.4464 -0.34129,1.52724 -5.13781,7.04258 -2.49854,2.87297 -4.71266,5.21369 -4.92029,5.20253 -0.94767,-0.0509 -3.5661,-1.4859 -4.32246,-2.36911 -1.12816,-1.31737 -1.59776,-3.51845 -1.20175,-5.62941 0.29451,-1.5699 0.5646,-1.79683 2.73631,-2.29324 3.74409,-0.85583 10.55444,-1.92763 12.38875,-1.99179 z m -92.96877,0.0172 c 0.1181,0.002 0.19154,0.0125 0.21243,0.0334 0.24602,0.24602 -8.25034,10.5372 -9.58163,11.6058 -0.95187,0.76404 -0.92247,0.76577 -3.02866,-0.1568 -2.37997,-1.04249 -3.2775,-2.62097 -3.2775,-5.76699 0,-2.05683 0.21975,-2.83124 0.90637,-3.19657 0.99804,-0.53103 12.99745,-2.54473 14.76899,-2.51882 z m 7.48566,0.006 c 1.77783,-0.0563 13.62991,1.9166 14.7356,2.49657 1.9022,0.99774 1.46278,5.78233 -0.69495,7.57163 -0.42206,0.34998 -1.61516,0.99136 -2.65134,1.4243 l -1.88355,0.78701 -5.00628,-5.97436 c -2.7537,-3.28559 -4.87566,-6.10495 -4.71495,-6.2657 0.0228,-0.0228 0.097,-0.0357 0.21547,-0.0395 z m -5.29256,1.29279 0.14364,7.92164 c 0.11263,6.21836 -0.0107,8.07597 -0.57559,8.64088 -0.39581,0.3958 -1.65421,0.84528 -2.79599,0.99842 -1.85187,0.24839 -2.30481,0.0721 -4.19298,-1.63369 -1.16413,-1.05174 -2.25695,-2.35796 -2.4298,-2.90221 -0.2342,-0.73793 0.97824,-2.51948 4.76857,-7.00718 z m 93.44624,0.41576 c 0.43,0.0269 0.55737,1.90646 0.55737,7.72641 v 7.99852 l -1.52749,0.79004 c -0.84043,0.4346 -2.08854,0.79004 -2.77273,0.79004 -1.58795,0 -4.361,-1.91255 -5.45944,-3.76508 -0.76099,-1.28355 -0.77007,-1.567 -0.0779,-2.68674 1.20592,-1.95084 8.46677,-10.51112 9.19017,-10.83498 0.0314,-0.0141 0.0614,-0.02 0.09,-0.0182 z m -187.43163,0.0152 c 0.0373,-0.009 0.0669,-0.008 0.088,0.005 0.2265,0.14 0.41171,3.58408 0.41171,7.65357 0,6.64176 -0.10165,7.49115 -0.99539,8.29997 -0.54762,0.49557 -1.94346,1.02822 -3.10149,1.18355 -1.93135,0.25903 -2.27663,0.11067 -4.18286,-1.79556 -1.14343,-1.14342 -2.07879,-2.58169 -2.07879,-3.19758 0,-1.2018 8.70165,-11.86289 9.85881,-12.14901 z m 190.54424,0.19828 c 0.26554,0 2.2878,2.15587 4.49442,4.79082 2.20666,2.63494 4.34724,5.18993 4.75745,5.67695 0.99023,1.17572 0.43947,3.25669 -1.28572,4.85556 -1.03695,0.96102 -1.90145,1.24315 -3.73374,1.21794 -4.80777,-0.0662 -4.71594,0.10595 -4.71594,-8.75518 0,-4.46712 0.20654,-7.78609 0.48353,-7.78609 z m -93.58078,0.0182 c 0.35607,0.01 2.16234,1.8858 4.01393,4.1687 1.85158,2.28289 3.89092,4.64555 4.53186,5.25108 1.65116,1.55997 1.51547,3.75888 -0.34799,5.62234 -1.25749,1.25747 -1.93977,1.51331 -4.02809,1.51331 -1.43732,0 -3.00791,-0.34531 -3.66594,-0.80622 -1.09923,-0.76989 -1.15117,-1.14375 -1.15117,-8.28682 0,-5.6487 0.15853,-7.4759 0.6474,-7.46239 z m -94.11387,0.14769 c 0.44557,-0.14794 8.4936,9.00813 9.74248,11.08382 0.49703,0.82608 -0.8965,3.48774 -2.36405,4.51567 -1.71751,1.20298 -5.84759,1.06349 -7.15285,-0.24177 -0.96841,-0.96838 -1.03908,-1.60177 -0.90636,-8.11485 0.0874,-4.28762 0.35501,-7.13472 0.68078,-7.24287 z m 92.17974,37.68823 c -1.81781,-0.0104 -3.53444,0.64217 -5.069,1.9574 -1.15695,0.99158 -2.70799,1.61897 -5.0336,2.03731 -1.84875,0.33257 -3.94635,1.03349 -4.66133,1.55682 -1.68593,1.23396 -3.11059,4.06141 -3.1116,6.17465 -5.3e-4,1.19148 -0.35721,1.90455 -1.24222,2.48443 -0.68276,0.44737 -1.84812,1.68854 -2.58963,2.75856 -1.70962,2.46695 -1.84372,6.25068 -0.31055,8.76529 0.75648,1.24075 1.03383,2.60887 1.03383,5.10036 0,5.31489 1.41244,7.51528 5.7336,8.93119 1.23132,0.40347 2.40358,1.39124 3.50713,2.95683 1.03449,1.46766 2.48059,2.72555 3.84803,3.34629 2.67542,1.2145 2.85074,1.22035 5.86713,0.19625 1.93969,-0.65853 2.85991,-0.70976 4.65021,-0.25896 5.19514,1.30815 8.18857,0.35753 10.31705,-3.27447 0.99262,-1.69378 2.0554,-2.62829 4.15151,-3.6538 4.11039,-2.01104 5.17048,-3.7655 5.18027,-8.56602 0.005,-2.55822 0.31424,-4.56862 0.90637,-5.88939 1.78612,-3.98407 0.89497,-7.89524 -2.36506,-10.38178 -1.24306,-0.94813 -1.89346,-2.01414 -2.37619,-3.8976 -1.17343,-4.57851 -3.78798,-6.76339 -8.09563,-6.76339 -1.81399,0 -2.94122,-0.37771 -4.66235,-1.56187 -1.94049,-1.33512 -3.86015,-2.0077 -5.67797,-2.0181 z m -94.08756,0.21345 c -2.48031,0 -3.2281,0.24087 -4.9203,1.5821 -1.36953,1.08548 -3.01332,1.76624 -5.23995,2.17084 -1.78438,0.32422 -3.91399,1.06627 -4.73215,1.64887 -1.548,1.10225 -3.15915,4.37606 -3.15915,6.41945 0,0.67989 -0.78878,1.94193 -1.85624,2.96796 -1.02131,0.98166 -2.21258,2.46416 -2.64729,3.29469 -0.99937,1.90944 -0.68496,5.74938 0.63628,7.76586 0.7135,1.08893 0.97379,2.47002 0.99337,5.25513 0.0311,4.60483 0.93449,6.1082 4.81813,8.01977 1.64457,0.80947 3.2726,2.14364 4.23243,3.46868 1.57858,2.17915 2.78178,3.05842 5.18735,3.78836 1.84768,0.56067 1.63159,0.57468 4.6057,-0.30854 2.07031,-0.61481 3.1375,-0.67536 4.62592,-0.262 4.86999,1.35251 8.12634,0.28779 10.48295,-3.42822 1.07939,-1.70202 2.21814,-2.69478 4.08069,-3.55771 1.72706,-0.80016 3.04682,-1.8979 3.98257,-3.3119 1.25113,-1.89045 1.36986,-2.44892 1.11476,-5.2622 -0.22071,-2.43404 -0.0634,-3.63671 0.69394,-5.3047 1.92903,-4.24858 1.0595,-8.38561 -2.30032,-10.94827 -1.24199,-0.9473 -1.8407,-1.8931 -2.06564,-3.26334 -0.73021,-4.44806 -3.99965,-7.36237 -8.26355,-7.36629 -1.97193,-0.002 -3.0055,-0.3556 -4.9203,-1.68528 -2.0365,-1.41419 -2.89194,-1.68326 -5.3492,-1.68326 z m 187.84333,0 c -2.75783,0 -3.43392,0.20838 -5.21872,1.60638 -1.34527,1.05372 -2.89771,1.71912 -4.51262,1.93312 -4.99807,0.6623 -8.15632,3.49201 -8.15632,7.30862 0,0.90481 -0.7799,2.20215 -2.30336,3.83084 -3.76047,4.02024 -4.24579,6.51854 -2.06159,10.62153 1.07393,2.0173 1.26455,2.90533 0.98224,4.57636 -0.77293,4.57493 1.70654,8.56172 6.0745,9.76776 1.05147,0.29033 2.08743,1.0726 2.62504,1.98269 0.48845,0.82692 1.74263,2.25342 2.78689,3.17028 v 0.001 c 1.84584,1.62066 1.99361,1.65734 5.31381,1.32313 3.73607,-0.37605 4.82981,-0.39509 9.97918,-0.17398 3.99664,0.17163 5.63166,-0.69329 7.47856,-3.95324 0.74919,-1.32234 1.89309,-2.30662 3.6255,-3.1197 4.53692,-2.12937 6.2906,-5.30055 5.31985,-9.62109 -0.37756,-1.6804 -0.27451,-2.4621 0.53009,-4.03921 2.33685,-4.58065 1.80909,-7.63405 -1.96448,-11.3701 -1.17208,-1.16041 -2.13667,-2.53614 -2.14254,-3.05697 -0.0206,-1.7248 -1.95138,-5.25345 -3.38976,-6.1959 -0.77894,-0.51036 -2.86827,-1.07883 -4.64315,-1.26244 -2.42948,-0.25147 -3.71226,-0.70354 -5.19038,-1.83096 -1.67072,-1.27432 -2.43626,-1.49814 -5.13274,-1.49814 z m -0.0738,2.45408 c 0.13587,0.004 0.26988,0.0137 0.40262,0.0313 2.11669,0.28223 4.53107,1.80306 4.55612,2.86984 0.009,0.38169 -0.97432,3.4682 -2.185,6.85847 -1.21063,3.3903 -2.31765,6.16304 -2.46015,6.1615 -0.37947,-0.004 -4.68218,-12.00702 -4.67043,-13.02908 0.0167,-1.4721 2.31905,-2.9468 4.35684,-2.89209 z m -93.43207,0.0253 c 1.24524,-0.001 2.52113,0.52483 3.83691,1.57806 l 1.50522,1.20478 -2.21333,5.91468 c -2.72415,7.27929 -2.95913,7.7504 -3.33111,6.69156 -0.15012,-0.42729 -1.21415,-3.28473 -2.36507,-6.34965 -1.1509,-3.0649 -2.09085,-5.86069 -2.0889,-6.2141 0.002,-0.3534 0.81231,-1.19466 1.80161,-1.86838 0.93585,-0.63731 1.88615,-0.95634 2.85467,-0.95695 z m -94.18164,0.0142 c 0.8117,-0.0164 1.62486,0.15657 2.35494,0.53411 3.05371,1.57912 3.07211,1.8182 0.6555,8.49116 -1.21338,3.35017 -2.36737,6.27584 -2.56539,6.50129 -0.19804,0.22543 -1.45869,-2.5433 -2.80105,-6.15239 l -2.44093,-6.56209 1.14712,-1.22097 c 0.94942,-1.0106 2.29694,-1.5639 3.64976,-1.5912 z m 10.22701,2.94469 c 2.39078,0 4.53964,1.53105 5.55254,3.95525 1.3369,3.19969 1.14656,3.46033 -5.26626,7.1842 -8.75803,5.08573 -8.45388,5.21943 -5.71236,-2.50869 3.09139,-8.71457 3.03788,-8.63076 5.42608,-8.63076 z m 94.25752,0.50579 c 1.74195,0.0888 3.97959,1.32502 4.62087,2.96593 1.29932,3.32478 1.11401,3.75691 -2.49252,5.82768 -1.85157,1.06316 -4.59013,2.66289 -6.08563,3.55467 -1.49553,0.89179 -2.71911,1.38395 -2.71911,1.09351 0,-0.79281 4.22657,-12.0362 4.80498,-12.78225 0.39046,-0.50364 1.07961,-0.69992 1.87141,-0.65954 z m 73.80349,0.0121 c 2.19425,0 2.3703,0.10509 2.83139,1.68326 0.27046,0.92579 1.32953,3.89739 2.35291,6.60356 1.02341,2.70616 1.86177,5.21163 1.86333,5.5677 0.005,1.15686 -0.75972,0.81629 -8.67323,-3.86826 -4.65873,-2.75784 -4.79044,-2.88739 -4.77869,-4.72708 0.02,-3.29334 2.41335,-5.25918 6.40429,-5.25918 z m -92.7169,0.0172 c 1.20197,-0.0147 1.37311,0.27913 1.77228,1.34943 0.30411,0.81541 1.36522,3.69609 2.35798,6.40226 0.99275,2.70615 1.96579,5.32817 2.16274,5.82667 0.62412,1.57969 -0.80665,1.04258 -7.45024,-2.80004 l -6.40125,-3.70337 0.27717,-2.0707 c 0.4105,-3.0605 2.21519,-4.61602 5.6891,-4.90411 0.67652,-0.0561 1.19156,-0.0953 1.59222,-0.10014 z m -95.51692,0.0566 c 0.22817,0.003 0.46238,0.0131 0.70305,0.0314 1.993,0.15137 2.05785,0.21993 3.27952,3.52028 1.81378,4.89997 3.81162,10.51375 3.81162,10.70852 0,0.62036 -2.09732,-0.35643 -7.69202,-3.58097 l -6.39725,-3.68728 0.2883,-1.7743 c 0.56857,-3.50363 2.58416,-5.25368 6.00673,-5.2177 z m 208.2033,0.0101 c 1.04598,-0.005 1.92884,0.29795 2.73833,0.93469 1.41182,1.11054 2.75167,4.23273 2.31045,5.38259 -0.13949,0.36343 -2.3169,1.84004 -4.83838,3.28155 -6.74299,3.85488 -6.9197,3.93551 -6.88779,3.15409 0.0148,-0.3661 1.00695,-3.34588 2.20421,-6.62177 l 2.17692,-5.95615 1.837,-0.15477 c 0.15634,-0.0132 0.30985,-0.0196 0.45926,-0.0203 z m -86.52403,8.87758 c 0.5229,0.0117 1.43206,0.59447 2.38732,1.54972 2.0965,2.09651 2.38137,4.32115 0.94178,7.33999 -0.76606,1.60644 -1.09864,1.82527 -2.71912,1.78846 -2.70014,-0.0612 -13.12127,-1.96259 -13.64918,-2.49049 -0.38038,-0.38039 10.36682,-7.20833 12.83992,-8.15733 0.058,-0.0222 0.12458,-0.032 0.19928,-0.0303 z m -93.97331,0.24876 c 1.08859,-0.0727 1.75046,0.60987 2.83747,1.99178 1.33168,1.69286 1.41728,4.89234 0.18714,6.97481 -0.72857,1.23337 -1.21817,1.49418 -2.71911,1.44857 -2.79289,-0.0849 -13.16298,-2.00683 -13.6947,-2.53804 -0.28065,-0.28035 0.20227,-0.84183 1.19973,-1.39698 0.91788,-0.51086 3.97344,-2.28331 6.7907,-3.93806 2.79431,-1.64126 4.31019,-2.46934 5.39877,-2.54208 z m 187.77354,0.0293 1.55581,1.55579 c 1.25253,1.25254 1.55479,1.99472 1.55479,3.8106 0,1.2404 -0.36279,2.77288 -0.80621,3.40598 -0.45815,0.65408 -1.29675,1.1213 -1.94222,1.08137 -2.27217,-0.14059 -12.78922,-2.17424 -12.78531,-2.47229 0.003,-0.16848 1.57512,-1.17645 3.496,-2.24064 1.9209,-1.06418 4.71455,-2.65696 6.20905,-3.53848 z m -34.79209,0.083 c 0.41131,0 3.65912,1.66549 7.21658,3.70033 4.85722,2.77831 6.27007,3.81022 5.67291,4.14443 -0.43738,0.24476 -3.51819,0.91096 -6.84636,1.47993 -8.38849,1.4341 -8.76147,1.40606 -9.77382,-0.72732 -0.9868,-2.07951 -1.04244,-3.08396 -0.25492,-4.61683 0.88453,-1.72165 3.14584,-3.98054 3.98561,-3.98054 z m -93.68901,0.009 c 1.10942,0.0117 13.14904,6.85149 13.20307,7.50082 0.0238,0.28488 -1.93858,0.92179 -4.35989,1.41519 -2.42131,0.49339 -5.95316,1.04917 -7.84881,1.23512 l -3.44643,0.33788 -0.82646,-1.59728 c -1.4143,-2.73498 -0.98218,-5.11893 1.40104,-7.73551 0.58379,-0.64094 1.42862,-1.16014 1.87748,-1.15622 z m -94.37991,0.20029 c 0.86798,-0.0295 3.12199,0.99306 6.81599,3.09035 5.89888,3.34912 7.19895,4.25003 6.76137,4.68764 -0.12928,0.12927 -3.05321,0.71528 -6.49735,1.3029 -8.54714,1.4583 -9.30328,1.42489 -10.2776,-0.45925 -0.4346,-0.84042 -0.79004,-2.16856 -0.79004,-2.95076 0,-1.77958 2.38098,-5.29051 3.83185,-5.65065 0.0456,-0.0113 0.0979,-0.0183 0.15578,-0.0202 z m 210.0029,10.15216 c 2.36508,0.005 13.56492,2.0967 14.24297,2.65943 0.37936,0.31484 0.6899,1.56112 0.6899,2.76969 0,2.61638 -1.43912,4.71509 -3.95425,5.76598 -0.94004,0.39275 -1.9281,0.71416 -2.19512,0.71416 -0.48545,0 -9.49325,-10.46938 -9.81937,-11.41258 -0.095,-0.27461 0.37118,-0.49822 1.03587,-0.49668 z m -197.09015,0.0415 c 0.18913,0.002 0.34351,0.0128 0.45723,0.0354 0.69815,0.13838 -0.16845,1.46549 -3.82476,5.856 -2.60001,3.12207 -5.01989,5.83997 -5.37753,6.04012 -0.96472,0.5399 -3.68201,-0.77555 -4.96177,-2.40249 -1.27035,-1.61501 -1.53067,-5.22405 -0.47443,-6.58232 0.62313,-0.80128 11.34434,-2.97528 14.18126,-2.94671 z m 102.68898,0.0172 c 1.89403,-0.11446 14.11178,1.94687 14.85093,2.5603 1.88675,1.56587 1.12917,5.9841 -1.32617,7.73247 -0.8101,0.57684 -2.13907,1.18172 -2.95279,1.34439 -1.36907,0.27381 -1.84028,-0.13518 -6.30616,-5.48173 -2.65435,-3.17777 -4.67941,-5.92391 -4.50049,-6.10282 0.028,-0.028 0.10841,-0.045 0.23468,-0.0526 z m 85.56607,0.004 c 0.12533,0.006 0.20444,0.0224 0.23064,0.0485 0.17885,0.17884 -1.83166,2.90621 -4.46712,6.06135 -3.31394,3.96746 -5.125,5.73544 -5.8732,5.72956 -3.15401,-0.0223 -5.72586,-3.38351 -5.29357,-6.91816 0.13488,-1.1027 0.44287,-2.20301 0.68484,-2.44497 0.54532,-0.54532 12.83865,-2.57062 14.71841,-2.47634 z m -179.28846,0.005 c 1.78494,0.007 10.09904,1.29531 13.06853,2.05248 1.52575,0.38906 1.96974,0.79215 2.24165,2.03023 0.71111,3.23766 -0.8345,5.98838 -4.04933,7.20647 -0.80192,0.30382 -1.74123,0.55231 -2.08789,0.55231 -0.34668,0 -2.80649,-2.622 -5.46554,-5.82667 -3.59876,-4.33721 -4.61416,-5.87061 -3.97346,-5.99863 0.0574,-0.0115 0.14704,-0.0167 0.26604,-0.0162 z m 85.49121,0 c 0.11803,-5.3e-4 0.20788,0.005 0.26402,0.0162 0.60309,0.12465 -0.49483,1.7664 -3.99066,5.96829 -2.65236,3.18807 -5.06764,5.9026 -5.36742,6.03101 -0.86548,0.37095 -4.03051,-1.14271 -5.01134,-2.39642 -0.60562,-0.77412 -0.89854,-2.09993 -0.90637,-4.10193 l -0.0121,-2.95785 1.94222,-0.49567 c 2.97546,-0.75956 11.31123,-2.05745 13.08168,-2.06361 z m -91.10645,1.48299 c 0.25638,0 0.46532,3.49045 0.46532,7.75676 0,7.47563 -0.0423,7.78497 -1.16533,8.51139 -1.82409,1.17983 -3.6152,1.38614 -5.35224,0.61706 -1.87624,-0.83073 -3.84095,-3.1478 -3.84095,-4.53085 0,-1.01581 9.07977,-12.35436 9.8932,-12.35436 z m 187.47108,0.087 c 0.28631,-0.10218 0.48353,3.11345 0.48353,7.88017 0,7.43148 -0.077,8.09348 -1.00145,8.58827 -0.55099,0.29488 -2.02189,0.53613 -3.26842,0.53613 -1.84108,0 -2.57786,-0.30461 -3.92592,-1.62256 -2.93901,-2.87346 -2.81035,-3.37252 2.48344,-9.61502 2.60963,-3.07736 4.96279,-5.67205 5.22882,-5.76699 z m 3.02663,0.25188 c 1.10749,0.32928 9.88713,11.11792 9.88713,12.21376 0,0.55943 -0.79163,1.81027 -1.76014,2.77879 -1.41893,1.41892 -2.14823,1.75256 -3.75497,1.71968 -1.09669,-0.0225 -2.63575,-0.27531 -3.41913,-0.56143 l -1.42428,-0.51994 v -7.69505 c 0,-4.23233 0.17479,-7.80325 0.38844,-7.9348 0.0193,-0.0118 0.0472,-0.0116 0.083,-0.001 z m -96.76825,0.0435 c 0.43582,0.0132 0.4805,1.54404 0.4805,7.60907 v 8.11789 l -1.79554,0.74957 v 0.001 c -2.14879,0.89729 -2.1751,0.89753 -4.22333,0.006 -1.47264,-0.64094 -4.33965,-3.72273 -4.33965,-4.66438 0,-0.47111 8.30931,-10.62666 9.50981,-11.62299 0.14643,-0.12152 0.26764,-0.1993 0.36821,-0.19625 z m 3.01854,0.0334 c 0.45351,0.0665 2.60527,2.23742 4.99617,5.05787 5.37591,6.34171 5.82473,7.6626 3.41608,10.07124 -1.24488,1.24488 -1.98525,1.54549 -3.78834,1.53962 -1.23257,-0.004 -2.82432,-0.30271 -3.53646,-0.66258 -1.27972,-0.64673 -1.29596,-0.74046 -1.43847,-8.10879 -0.0793,-4.10011 0.048,-7.64699 0.28325,-7.88219 0.0147,-0.0147 0.0376,-0.0196 0.0678,-0.0152 z m -93.89436,0.25492 c 0.51841,-0.17203 5.9542,5.90278 8.95648,10.00953 1.12182,1.5345 1.14035,1.69687 0.36012,3.20568 -0.45203,0.87411 -1.34189,1.95286 -1.97661,2.39744 -1.25072,0.87602 -4.6306,1.02239 -6.47509,0.2802 -0.63242,-0.25448 -1.28244,-0.99662 -1.44452,-1.64988 -0.52622,-2.12111 -0.0414,-14.03686 0.57962,-14.24297 z m 142.11309,34.5483 v 27.75255 c 0,21.9713 0.13485,27.70758 0.64741,27.53709 0.50054,-0.16643 0.71936,-6.02237 0.96403,-25.81033 0.17406,-14.07709 0.3489,-26.11703 0.38844,-26.75616 l 0.0718,-1.1623 39.19043,-0.13251 c 30.79644,-0.10431 39.23535,-0.27218 39.40487,-0.78094 0.1714,-0.51429 -8.10233,-0.6474 -40.22527,-0.6474 z m -49.79476,4.11903 c -2.19343,-0.0645 -4.23589,0.79568 -5.83375,2.56131 -0.59534,0.65784 -1.62018,1.08994 -2.58862,1.09148 -2.4771,0.005 -5.61879,1.01613 -6.97886,2.24773 -1.43022,1.29509 -2.65234,3.91225 -2.65234,5.67998 0,0.67717 -0.5003,1.67574 -1.11173,2.21839 -0.61141,0.54266 -1.77677,1.89543 -2.58963,3.0064 -1.74205,2.38085 -1.99325,5.85013 -0.60391,8.33841 0.52236,0.93553 0.99393,3.35349 1.18557,6.07653 0.28654,4.07269 0.46829,4.67869 1.8269,6.09676 0.82975,0.86608 2.4103,1.84576 3.51219,2.1759 1.43948,0.43128 2.44478,1.24068 3.56985,2.8759 0.86122,1.25176 2.30028,2.72328 3.19758,3.27043 1.8873,1.1508 5.51332,1.28478 7.84578,0.2893 1.26921,-0.54176 1.97263,-0.53749 3.83791,0.0233 4.71085,1.41626 7.69479,0.36543 10.43743,-3.67303 0.75233,-1.10778 2.27633,-2.47147 3.38675,-3.03068 4.5735,-2.30319 6.17295,-4.88348 5.68707,-9.17801 -0.26385,-2.33221 -0.1192,-3.40019 0.7081,-5.22378 1.92311,-4.23899 1.24884,-7.53856 -2.17589,-10.65187 -1.20843,-1.09856 -1.99224,-2.43157 -2.41362,-4.10497 -0.41762,-1.65853 -1.27959,-3.13382 -2.6048,-4.45903 -1.81654,-1.81645 -2.21618,-1.98066 -4.83735,-1.98066 -2.40734,0 -3.28216,-0.28559 -5.55152,-1.81274 -1.75029,-1.17786 -3.54711,-1.78688 -5.25311,-1.83702 z m -94.32933,0.0212 c -2.19428,-0.022 -4.21377,0.82377 -5.76699,2.54007 -0.59532,0.65784 -1.62019,1.08994 -2.58862,1.09148 -4.98839,0.009 -8.77255,2.81319 -9.39449,6.96065 -0.29118,1.94166 -0.82591,2.94817 -2.39844,4.52073 -3.37521,3.37519 -3.96087,6.89566 -1.75205,10.52745 1.00009,1.64436 1.19969,2.5175 0.96808,4.23345 -0.64585,4.78483 1.31069,8.44209 5.12767,9.58568 1.48164,0.44392 2.54878,1.25287 3.60222,2.72923 0.82325,1.15376 2.24036,2.6214 3.15004,3.26233 v 0.001 c 1.9092,1.34521 6.06276,1.57262 8.10069,0.44307 1.02995,-0.57159 1.63039,-0.56892 3.57793,0.0172 1.2873,0.38741 3.01221,0.70406 3.83286,0.70406 2.35542,0 5.21263,-1.77977 6.62986,-4.13026 0.89949,-1.49184 2.20565,-2.63495 4.27693,-3.74384 4.16065,-2.22746 5.28111,-4.16071 4.88287,-8.42541 -0.24555,-2.62945 -0.10907,-3.64411 0.70608,-5.24299 0.62927,-1.23427 1.01057,-3.0288 1.01057,-4.75339 0,-2.59302 -0.15942,-2.94118 -2.49556,-5.45744 -1.55162,-1.67127 -2.74562,-3.55625 -3.15611,-4.98201 -1.3199,-4.58442 -3.37866,-6.25254 -7.71832,-6.25254 -1.6926,0 -2.95995,-0.32192 -3.78126,-0.96201 -2.25124,-1.75447 -4.61969,-2.64449 -6.81396,-2.66651 z m 94.25852,2.20625 c 1.10133,0.0366 2.27197,0.40984 3.48689,1.12183 1.29551,0.75921 2.35495,1.60711 2.35495,1.88457 0,0.27747 -1.08777,3.4729 -2.41766,7.10024 -1.32991,3.62734 -2.60315,6.80783 -2.82938,7.06787 -0.43435,0.49924 -0.5264,0.29633 -3.39383,-7.46542 -2.49887,-6.76402 -2.50528,-6.81642 -1.05103,-8.18263 1.13276,-1.06417 2.43406,-1.57351 3.85006,-1.52646 z m -94.36473,0.0273 c 1.57408,-0.0631 3.2232,0.46484 4.63806,1.59728 l 1.54164,1.23412 -0.86389,2.51882 c -0.47495,1.38531 -1.59021,4.49988 -2.47836,6.92119 -0.88816,2.42131 -1.80685,4.59647 -2.04135,4.8333 -0.39218,0.39609 -1.61345,-2.44816 -4.6937,-10.92702 -1.11616,-3.07237 -1.13187,-3.29769 -0.29235,-4.22536 1.11676,-1.23399 2.61587,-1.88918 4.18995,-1.95233 z m 85.26865,3.43025 c 0.51659,0.012 0.99045,0.13307 1.38889,0.3844 0.8304,0.52379 5.82435,13.93776 5.36134,14.40078 -0.45169,0.45169 -0.65309,0.35341 -7.22061,-3.49904 -6.12145,-3.59079 -6.3446,-3.78269 -6.3446,-5.46554 0,-2.78298 4.02539,-5.88531 6.81498,-5.8206 z m 19.55171,0.0364 c 2.6504,0 4.91554,1.85797 5.61222,4.60266 0.28345,1.11667 0.37059,2.26254 0.19422,2.54715 -0.17633,0.28458 -2.06868,1.5421 -4.20511,2.79397 -7.93413,4.64908 -8.74495,5.07344 -8.96054,4.69067 -0.20994,-0.37275 2.96845,-9.39113 4.56423,-12.95119 0.66632,-1.48652 0.99311,-1.68326 2.79498,-1.68326 z m -94.14826,0.0192 c 1.15218,-0.018 2.40668,0.15959 3.11969,0.54119 1.14276,0.61159 2.99991,4.25661 3.01753,5.92378 0.009,0.79701 -1.52277,1.93723 -6.43361,4.79082 -3.54462,2.0597 -6.57449,3.74485 -6.73304,3.74485 -0.15852,0 -0.2883,-0.32466 -0.2883,-0.72126 0,-0.96352 4.18157,-12.82847 4.81105,-13.65119 0.30409,-0.39746 1.35449,-0.61023 2.50668,-0.62819 z m -19.49304,0.0395 c 0.48854,0.005 0.90544,0.0931 1.19569,0.27616 0.62914,0.39685 4.17235,9.07989 5.51712,13.51969 0.24413,0.806 0.14316,1.15003 -0.32876,1.11577 -0.83423,-0.0604 -11.76536,-6.40907 -12.7772,-7.42091 -1.12723,-1.12724 -0.3273,-4.13782 1.51028,-5.68404 1.30315,-1.09648 3.41728,-1.82191 4.88287,-1.80667 z m 86.17199,9.16689 3.27042,1.87243 c 1.79886,1.03008 4.84267,2.74145 6.76339,3.80352 1.92074,1.06209 3.4196,2.15377 3.33112,2.42575 -0.0886,0.27198 -3.17576,1.02277 -6.85949,1.66809 -8.71878,1.52735 -8.83676,1.5236 -9.79204,-0.32371 -1.40762,-2.72202 -1.03438,-4.90499 1.24828,-7.30458 z m -59.14272,0.0971 c 0.26812,0 1.23082,0.7271 2.13948,1.61548 1.93407,1.89091 2.20276,4.44729 0.77992,7.43103 -1.06492,2.23316 -1.80775,2.26828 -10.5224,0.50275 -3.27588,-0.66365 -6.02789,-1.21845 -6.11598,-1.23412 -0.94694,-0.165 12.49978,-8.31514 13.71898,-8.31514 z m 94.05014,0.1487 c 0.63149,-0.002 1.39412,0.54022 2.42171,1.71058 1.49674,1.70456 1.66795,2.20059 1.44554,4.17375 -0.1388,1.23159 -0.63634,2.82527 -1.10565,3.54152 -0.63331,0.96655 -1.28342,1.29178 -2.52388,1.26144 -0.91921,-0.0225 -1.94725,-0.1531 -2.28413,-0.29032 -0.33687,-0.13729 -2.99954,-0.6481 -5.9167,-1.13499 -2.91718,-0.4869 -5.3769,-1.1138 -5.46655,-1.39294 -0.16448,-0.51222 11.33761,-7.35634 13.16665,-7.83464 0.0853,-0.0223 0.1728,-0.0341 0.26301,-0.0344 z m -128.9879,0.39958 c 1.25094,0.0828 3.11502,1.12785 6.77047,3.21276 3.61569,2.0622 6.50105,3.97148 6.41237,4.24355 -0.0888,0.27208 -2.94272,1.01461 -6.34156,1.64988 -8.44461,1.57837 -9.1229,1.5595 -10.21083,-0.28223 -1.21141,-2.05073 -1.11593,-4.22577 0.27616,-6.26468 1.20393,-1.76331 1.84246,-2.64207 3.09339,-2.55928 z m 21.18945,9.95389 c 1.01046,-0.0243 3.6533,0.43768 9.51184,1.58716 l 5.69718,1.11779 0.48151,1.9493 c 0.66967,2.71095 -0.57073,5.18915 -3.29166,6.57726 -1.13783,0.58048 -2.36888,1.04665 -2.73631,1.03687 -0.62116,-0.0169 -9.76475,-10.7554 -10.17745,-11.95277 -0.0666,-0.19327 0.0556,-0.30454 0.51489,-0.31561 z m 94.0289,0.0354 c 0.82923,0.0272 4.0192,0.53814 7.71326,1.24525 l 7.67582,1.46981 0.44105,1.7035 c 0.69836,2.69507 -0.34602,5.02344 -2.93357,6.53983 -1.21319,0.71099 -2.53536,1.28754 -2.93761,1.28167 -0.40227,-0.006 -2.71243,-2.35782 -5.13374,-5.22681 -4.62647,-5.48191 -5.42887,-6.59673 -5.03158,-6.99403 0.0167,-0.0167 0.0879,-0.0231 0.20637,-0.0192 z m -7.72742,0.20434 c 0.12636,0.007 0.20803,0.0237 0.23772,0.0526 0.20568,0.20014 -1.78217,2.92304 -4.41755,6.05023 -5.53231,6.56476 -6.40491,6.97043 -9.37123,4.36595 -1.69788,-1.49072 -1.86433,-1.88031 -1.86433,-4.36798 0,-1.55695 0.27838,-2.95987 0.64741,-3.26232 0.81375,-0.66693 12.87249,-2.93794 14.76798,-2.83848 z m -94.25144,0.0101 c 0.12675,0.007 0.20854,0.0252 0.23873,0.0546 0.2123,0.20673 -1.73666,2.92866 -4.33055,6.04921 -3.01667,3.62918 -5.11489,5.71307 -5.82363,5.78217 -3.03312,0.29589 -5.51106,-2.43304 -5.51106,-6.07047 0,-1.35099 0.29133,-2.69533 0.64741,-2.98717 0.82648,-0.67737 12.87788,-2.93633 14.7791,-2.82837 z m 5.69111,1.54164 c 0.0795,-0.0109 0.16326,0.0387 0.25087,0.15173 0.24818,0.32002 8.1174,9.82237 9.09102,10.97761 1.04587,1.24099 -0.0579,3.82179 -2.19107,5.12262 -2.20745,1.34608 -5.35942,1.14703 -7.16296,-0.45218 -0.77706,-0.68899 -0.90414,-1.7716 -0.89826,-7.58579 0.006,-5.09174 0.35404,-8.1376 0.9104,-8.21399 z m 90.88392,0.16893 c 0.21362,-0.0176 0.38844,3.58628 0.38844,8.00864 v 8.041 l -1.3282,0.50478 c -2.90356,1.10394 -4.91582,0.64372 -7.06686,-1.61751 -1.11079,-1.16768 -1.94801,-2.46352 -1.8613,-2.87894 0.18374,-0.88065 9.29209,-12.0106 9.86792,-12.05797 z m -93.91357,0.084 c 0.42707,0.08 0.55737,1.96242 0.55737,7.58074 0,7.45528 -0.0485,7.81593 -1.15117,8.58827 -0.63308,0.44346 -2.17113,0.80622 -3.41811,0.80622 -1.88783,0 -2.56181,-0.29386 -4.02809,-1.76013 -1.0396,-1.03961 -1.76115,-2.27913 -1.76115,-3.02461 0,-0.83412 1.53824,-3.0802 4.53185,-6.61772 2.49253,-2.94538 4.82319,-5.44918 5.17927,-5.56467 0.0312,-0.0101 0.0616,-0.0134 0.09,-0.008 z m 96.86332,0.26604 c 0.80268,0.0725 7.50374,7.45272 9.48958,10.49408 0.78291,1.19786 0.7827,1.42663 -0.002,3.04585 -0.51256,1.0577 -1.52047,2.03118 -2.54715,2.46015 l -0.001,-10e-4 c -2.02697,0.84698 -2.95435,0.85285 -5.3573,0.0334 l -1.81275,-0.61808 -0.14464,-7.46946 c -0.0794,-4.10808 0.0625,-7.67563 0.31559,-7.92872 0.0133,-0.0133 0.0338,-0.0185 0.0597,-0.0162 z"
         inkscape:connector-curvature="0" />
    </clipPath>
  </defs>
  <sodipodi:namedview
     id="base"
     pagecolor="#ffffff"
     bordercolor="#666666"
     borderopacity="1.0"
     inkscape:pageopacity="0.0"
     inkscape:pageshadow="2"
     inkscape:zoom="0.7"
     inkscape:cx="131.44079"
     inkscape:cy="458.72559"
     inkscape:document-units="mm"
     inkscape:current-layer="layer1"
     showgrid="false"
     fit-margin-top="0"
     fit-margin-left="0"
     fit-margin-right="0"
     fit-margin-bottom="0"
     inkscape:window-width="1920"
     inkscape:window-height="1001"
     inkscape:window-x="-9"
     inkscape:window-y="-9"
     inkscape:window-maximized="1" />
  <metadata
     id="metadata5">
    <rdf:RDF>
      <cc:Work
         rdf:about="">
        <dc:format>image/svg+xml</dc:format>
        <dc:type
           rdf:resource="http://purl.org/dc/dcmitype/StillImage" />
        <dc:title />
      </cc:Work>
    </rdf:RDF>
  </metadata>
  <g
     inkscape:label="Ebene 1"
     inkscape:groupmode="layer"
     id="layer1"
     transform="translate(18.113094,-4.2321429)">
    <rect
       style="fill:#040f4f;fill-opacity:0.96078432;stroke:none;stroke-width:0.61784917"
       id="rect843"
       width="325"
       height="200"
       x="-18.113094"
       y="4.2321429" />
    <path
       style="fill:#f5a11d;stroke-width:0.35440126;fill-opacity:1"
       d="m 56.509784,181.82319 c -8.031175,-1.5392 -14.289136,-7.25932 -16.447114,-15.03356 -0.810018,-2.91811 -0.825823,-7.96101 -0.03456,-11.02728 1.416087,-5.48757 5.831299,-10.90102 10.978492,-13.46056 2.823828,-1.40421 4.372857,-1.78217 8.297421,-2.02453 3.483076,-0.21507 6.404364,0.30123 9.432623,1.66713 6.192378,2.79315 10.494552,8.11387 11.997276,14.83776 0.762065,3.40981 0.730373,5.97739 -0.115196,9.33275 -2.200761,8.73276 -8.35108,14.33037 -17.404311,15.84024 -2.787409,0.46488 -3.682469,0.44726 -6.704593,-0.13195 z m 2.753051,-10.44057 c 0.07341,-6.69011 -0.0067,-8.72276 -0.354396,-8.9432 -0.781179,-0.49584 -16.845888,-0.3631 -17.157905,0.14176 -0.148854,0.24085 -0.229424,0.99838 -0.17906,1.68341 0.224308,3.05057 1.934208,6.66366 4.490357,9.48829 1.912373,2.11325 5.957235,5.04727 6.958181,5.04727 0.295032,0 0.654879,0.11846 0.799649,0.26322 0.431604,0.4316 3.142074,1.08155 4.284936,1.02747 l 1.063203,-0.0503 z m 5.398183,8.33022 c 1.072057,-0.26383 2.364926,-0.64421 2.87304,-0.84532 3.280386,-1.2983 8.068092,-5.68662 9.676392,-8.86919 1.060096,-2.09774 2.080677,-5.71887 1.924081,-6.82687 l -0.120285,-0.85098 -8.461454,-0.0951 c -5.944296,-0.0668 -8.606397,0.0252 -8.948631,0.3092 -0.387228,0.32135 -0.487179,2.06178 -0.487179,8.48315 0,4.44337 0.09684,8.33114 0.215119,8.63944 0.258786,0.67435 0.779383,0.68307 3.328902,0.0557 z m -5.876614,-19.55667 c 0.490019,-0.18804 0.560595,-1.30493 0.560595,-8.87116 0,-7.7333 -0.06268,-8.68007 -0.587492,-8.88149 -0.886046,-0.33999 -4.653771,0.54492 -6.849295,1.6087 -2.456117,1.19004 -6.776844,5.25441 -8.113593,7.6322 -1.731572,3.08011 -2.736335,7.16889 -2.038939,8.2973 0.195427,0.31621 2.403141,0.42957 8.366818,0.42957 4.455731,0 8.353587,-0.0968 8.661906,-0.21512 z m 20.344767,-0.96536 c 0.06323,-0.55179 -0.30138,-2.29389 -0.81019,-3.87132 -2.056928,-6.37712 -7.528821,-11.38613 -13.868823,-12.69564 -3.528551,-0.72881 -3.333162,-1.20896 -3.333162,8.19078 0,5.01257 0.14351,8.45381 0.370228,8.87741 0.353755,0.661 0.751765,0.68756 8.948632,0.59691 l 8.578403,-0.0949 z m 68.807359,22.24427 c -0.1901,-0.49998 -0.34562,-2.0744 -0.34562,-3.49873 v -2.58962 l -1.50621,-0.23199 c -0.82841,-0.12766 -2.01142,-0.32276 -2.62891,-0.43368 -0.97746,-0.1756 -1.13793,-0.0946 -1.2404,0.62607 -0.18381,1.29274 -1.28683,1.24227 -2.35565,-0.1078 -0.51538,-0.651 -2.09656,-2.37015 -3.51376,-3.82032 -1.41719,-1.4502 -2.57672,-2.76457 -2.57672,-2.92081 0,-0.15626 0.31895,-0.48331 0.70879,-0.72676 0.38986,-0.24346 0.7088,-0.72096 0.7088,-1.06113 0,-1.04118 -0.85237,-3.97965 -1.23451,-4.25582 -0.19816,-0.1432 -1.48462,-0.26281 -2.85881,-0.2658 -2.51987,-0.005 -3.45062,-0.39171 -3.10628,-1.28902 0.13558,-0.35332 0.90407,-0.4884 2.77853,-0.4884 3.10704,0 3.70736,-0.19161 3.72792,-1.18973 0.008,-0.41771 0.22816,-1.55691 0.48791,-2.5315 0.45997,-1.72592 0.45035,-1.78382 -0.37005,-2.22634 -0.46326,-0.24985 -0.8423,-0.67265 -0.8423,-0.93952 0,-0.26687 0.99675,-1.33827 2.215,-2.38089 1.21827,-1.04261 2.83205,-2.57347 3.58621,-3.40188 1.43437,-1.57559 2.23092,-1.87451 2.57887,-0.96777 0.16282,0.42432 0.59237,0.49489 2.02669,0.33298 3.55802,-0.40162 3.32438,-0.177 3.46773,-3.33371 0.13798,-3.0381 0.59225,-3.99629 1.52693,-3.22059 0.40173,0.33342 0.54662,1.14336 0.54662,3.0558 0,3.03022 0.0849,3.11682 3.4126,3.47923 1.77602,0.19341 2.21029,0.1373 2.38109,-0.30779 0.11492,-0.29939 0.38587,-0.54437 0.60219,-0.54437 0.55139,0 7.77043,6.81573 7.77579,7.34138 0.003,0.2368 -0.33348,0.61133 -0.7464,0.83232 -0.65138,0.34862 -0.7178,0.59662 -0.50165,1.87308 0.13701,0.8092 0.33299,1.99097 0.43549,2.62615 0.21333,1.32175 0.54537,1.45348 4.00655,1.58969 2.03713,0.0801 2.3036,0.17264 2.3036,0.79943 0,0.62683 -0.26647,0.7193 -2.3036,0.79947 -3.21308,0.12644 -3.89842,0.32886 -3.89842,1.15142 0,0.38334 -0.19293,1.41833 -0.42875,2.30001 -0.40136,1.50066 -0.37871,1.63809 0.35441,2.15158 0.43073,0.30171 0.78314,0.6881 0.78314,0.85864 0,0.17055 -0.81568,1.07853 -1.81263,2.01772 -0.99695,0.93918 -2.52825,2.6336 -3.40286,3.76536 -1.19123,1.54142 -1.78125,2.03049 -2.35158,1.9492 -0.48245,-0.0687 -0.80368,-0.40711 -0.87691,-0.92361 -0.1227,-0.86532 -0.59039,-0.8781 -4.32021,-0.1181 l -1.23465,0.25158 -0.10407,2.98115 c -0.0976,2.7956 -0.43472,3.9025 -1.18851,3.9025 -0.17587,0 -0.47531,-0.40909 -0.66541,-0.90908 z m -0.42522,-13.75135 -0.0976,-5.36325 h -5.31602 -5.31601 l -0.12029,0.85098 c -0.15385,1.08859 0.87097,4.80051 1.77517,6.42973 0.44586,0.80335 1.23101,1.49589 2.17906,1.92203 1.89998,0.85407 5.95393,1.89973 6.54128,1.68727 0.3453,-0.12484 0.42896,-1.42976 0.3544,-5.52676 z m 5.18283,5.27581 c 3.82812,-0.91423 5.70231,-1.86661 6.51345,-3.30982 1.15181,-2.04939 1.90167,-4.58156 1.78225,-6.01861 l -0.1089,-1.31063 h -5.49322 -5.49321 l -0.10208,4.78444 c -0.10059,4.71886 0.0444,6.39132 0.55183,6.36659 0.14248,-0.007 1.19992,-0.23733 2.34988,-0.51197 z m -5.18283,-18.57388 0.0977,-5.80844 -1.69242,0.22986 c -3.92614,0.53324 -6.84901,2.26117 -7.8714,4.65337 -1.2359,2.8918 -1.805,6.07396 -1.19529,6.68366 0.13494,0.13493 2.56701,0.20137 5.40461,0.14765 l 5.15927,-0.0976 z m 13.48929,4.75602 c 0.224,-1.9703 -1.3792,-6.23972 -2.91046,-7.75078 -1.41443,-1.39575 -3.80624,-2.34248 -6.18537,-2.44827 l -2.01026,-0.0894 -0.0983,5.268 c -0.0679,3.63688 0.0303,5.42289 0.31681,5.76821 0.32996,0.39757 1.47721,0.48013 5.59154,0.4024 l 5.1764,-0.0978 z M 57.172647,118.38245 c -4.321636,-1.09063 -8.335369,-4.30541 -6.664622,-5.33798 0.207618,-0.12832 1.284109,0.39449 2.392211,1.1618 2.403584,1.66434 5.319313,2.7121 5.992504,2.15341 0.343614,-0.28518 0.452259,-2.40652 0.452259,-8.83082 v -8.455474 l -0.797413,-0.195397 c -0.438569,-0.10745 -4.385703,-0.15039 -8.771421,-0.0953 l -7.974033,0.10003 -0.108899,1.123431 c -0.124437,1.28337 1.28853,4.37729 2.673875,5.85481 1.052649,1.12271 0.87012,2.16824 -0.348341,1.99523 -1.034366,-0.14687 -3.159488,-3.30478 -3.991792,-5.93176 -1.482044,-4.677702 -0.02465,-11.177301 3.125543,-13.939527 0.866155,-0.759475 1.096342,-0.770261 1.670693,-0.07822 0.371408,0.44751 0.324165,0.67916 -0.270988,1.328994 -1.54907,1.691381 -2.976702,4.77079 -2.861227,6.1717 l 0.111175,1.348924 8.368414,0.0949 c 6.805227,0.0772 8.444898,0.002 8.777944,-0.398547 0.290691,-0.350267 0.381936,-2.949053 0.314427,-8.95494 l -0.0951,-8.461454 -1.471406,0.06365 c -1.62858,0.07045 -3.69352,1.002464 -5.397337,2.436123 -1.203125,1.012358 -2.168493,0.948709 -2.168493,-0.142989 0,-1.351248 3.869269,-3.694669 7.442144,-4.507296 2.243088,-0.510187 2.71442,-0.511091 5.137453,-0.01079 3.054541,0.631701 4.348306,1.219083 6.469462,2.937177 2.792139,2.261582 1.518075,3.41689 -1.486262,1.347729 -1.055715,-0.727096 -2.767932,-1.605957 -3.804922,-1.953019 -1.718378,-0.575108 -1.924683,-0.581113 -2.328439,-0.06763 -0.56535,0.718943 -0.63365,16.066311 -0.07608,17.108042 0.347058,0.648494 0.825931,0.685484 8.871144,0.685484 7.386087,0 8.532246,-0.0729 8.716931,-0.554117 0.332939,-0.867634 -0.826359,-3.982317 -2.187366,-5.876741 -0.680424,-0.947115 -1.237136,-2.040602 -1.237136,-2.429993 0,-1.162207 1.256289,-0.837464 2.402473,0.621022 2.911551,3.704882 3.879023,7.985562 2.768455,12.249308 -0.908909,3.48953 -3.155039,6.97695 -4.493625,6.97695 -0.936636,0 -0.894107,-1.46595 0.06777,-2.33646 1.278363,-1.15691 3.039872,-5.38447 2.658096,-6.379374 -0.258491,-0.673617 -16.838614,-0.743057 -17.508362,-0.0733 -0.616464,0.616467 -0.600243,16.216754 0.01768,17.042324 0.408525,0.54573 0.588362,0.54878 2.310704,0.0389 1.027227,-0.30403 2.677934,-1.09805 3.668219,-1.76447 1.851158,-1.24572 2.59439,-1.46454 2.960801,-0.87168 0.586246,0.94858 -2.283474,3.18896 -5.45196,4.25634 -2.876778,0.96912 -5.491356,1.15178 -7.875116,0.55022 z m 90.796563,-0.49464 c -0.20806,-0.38877 -0.3783,-1.87722 -0.3783,-3.30761 v -2.60072 l -2.03782,-0.46807 c -2.87397,-0.66016 -5.18957,-2.01642 -7.20189,-4.21824 -1.91864,-2.09929 -2.48923,-3.14289 -3.43579,-6.28409 l -0.64076,-2.126381 -2.99932,-0.17721 c -2.77781,-0.16412 -3.00766,-0.23611 -3.11254,-0.974604 -0.10917,-0.768227 -0.0121,-0.797597 2.658,-0.802817 1.52419,-0.002 2.93339,-0.122557 3.13155,-0.265807 0.19815,-0.1432 0.56273,-1.057764 0.8102,-2.032369 1.32397,-5.214472 5.09838,-9.339742 9.81596,-10.728421 0.77967,-0.229503 1.73657,-0.462727 2.1264,-0.518262 0.62574,-0.08901 0.72957,-0.441321 0.88601,-3.00512 0.18159,-2.97621 0.59377,-3.901432 1.57098,-3.526443 0.43551,0.167118 0.55542,0.783088 0.55542,2.853288 0,3.31203 0.17187,3.76131 1.43885,3.76131 0.96333,0 1.54948,0.184803 4.13837,1.304662 1.72492,0.746152 5.26124,4.190716 6.11685,5.958146 0.41536,0.858046 1.03824,2.565199 1.38416,3.793677 l 0.62895,2.233562 3.09242,0.102787 c 2.96231,0.0985 3.08776,0.1357 2.98107,0.885997 -0.10261,0.721304 -0.34965,0.797264 -3.12381,0.960464 l -3.0124,0.1772 -0.4613,1.594801 c -1.83534,6.34518 -6.42378,10.66214 -12.11995,11.40283 -0.85534,0.11117 -0.89215,0.22552 -1.06321,3.30124 -0.14554,2.6169 -0.28372,3.20632 -0.77349,3.2996 -0.32797,0.0625 -0.76653,-0.20454 -0.97461,-0.59333 z m -0.45769,-13.60051 -0.0978,-5.404601 h -5.31602 c -6.20803,0 -6.19298,-0.0121 -4.60799,3.581811 1.69643,3.84617 5.83758,7.11005 9.13584,7.20045 l 0.98383,0.0269 -0.0978,-5.4046 z m 6.1827,4.57408 c 2.62965,-1.16749 5.7109,-4.34675 6.65293,-6.86459 1.19916,-3.205011 1.34407,-3.114091 -4.96427,-3.114091 h -5.48837 l -0.0991,4.944521 c -0.0545,2.7195 -0.0198,5.15158 0.0775,5.40463 0.26728,0.69654 1.73938,0.55382 3.82131,-0.37047 z m -6.18299,-17.894225 0.0975,-5.789134 -1.16073,0.2396 c -2.16908,0.447753 -4.83936,1.885833 -6.40055,3.447023 -2.37574,2.375722 -4.19707,6.842253 -3.19763,7.841677 0.13494,0.134937 2.56701,0.201377 5.40461,0.147657 l 5.15927,-0.0976 z m 13.47528,5.050369 c 0.20364,-1.425054 -1.35975,-4.712412 -3.19729,-6.722968 -1.87749,-2.054283 -3.29835,-2.954123 -5.88475,-3.726851 -1.29975,-0.388333 -1.58312,-0.380831 -1.85519,0.04917 -0.35827,0.566158 -0.45628,9.871552 -0.11345,10.765116 0.18981,0.494607 0.92452,0.556717 5.58182,0.471967 5.12925,-0.0934 5.36785,-0.129797 5.46881,-0.836364 z m 77.62579,22.445806 c -0.0328,-0.0487 -0.15244,-2.94633 -0.26579,-6.43912 -0.14976,-4.61449 -0.32721,-6.39068 -0.64911,-6.49735 -0.24364,-0.0807 -0.44299,0.10565 -0.44299,0.41431 0,0.30862 0.15947,0.56113 0.3544,0.56113 0.47073,0 0.45531,0.95901 -0.0201,1.25287 -0.76521,0.47291 -1.95931,-0.21288 -2.96667,-1.70381 -0.57069,-0.84465 -1.97285,-2.2095 -3.11594,-3.03307 -2.22432,-1.60255 -2.74074,-2.3447 -2.0867,-2.99874 0.31082,-0.310817 0.57888,-0.305027 1.10545,0.0238 1.03614,0.64705 1.47629,0.52858 1.34963,-0.363267 -0.11151,-0.785944 -0.20583,-0.799944 -6.55261,-0.974614 -3.54167,-0.0975 -6.55163,-0.28992 -6.68882,-0.427727 -0.13718,-0.13777 -0.15498,-0.496587 -0.0395,-0.797377 0.17843,-0.464977 1.16854,-0.546877 6.61132,-0.546877 5.36326,0 6.43456,-0.0863 6.60545,-0.531607 0.11224,-0.292377 0.10913,-0.778824 -0.007,-1.081004 -0.18092,-0.471429 -0.32215,-0.445678 -0.99546,0.18161 -0.70455,0.656387 -0.84004,0.675597 -1.32729,0.18836 -0.71149,-0.711508 -0.29437,-1.379174 1.91053,-3.05801 0.93057,-0.708546 2.27165,-2.04961 2.98019,-2.980176 1.70849,-2.243838 2.34337,-2.625145 3.10422,-1.864291 0.54621,0.546209 0.54669,0.631061 0.007,1.171099 -0.76068,0.760678 -0.74246,1.323067 0.0379,1.173605 0.55425,-0.106132 0.63905,-0.77783 0.7974,-6.316597 0.1769,-6.186725 0.33183,-7.083845 1.2234,-7.083845 0.77267,0 0.90301,0.872612 0.90301,6.044941 v 4.923769 l 1.03589,-0.207182 c 0.93167,-0.18633 1.16682,-0.02488 2.33719,1.604149 0.71571,0.996216 2.18818,2.488889 3.27213,3.317055 2.48749,1.900468 2.92016,2.547076 2.19176,3.275483 -0.48727,0.487237 -0.62079,0.469847 -1.30817,-0.17056 -1.01818,-0.948559 -1.2182,-0.900342 -1.08452,0.261417 l 0.11212,0.974587 6.55644,0.177197 c 6.26107,0.16921 6.55642,0.20912 6.55642,0.885997 0,0.679434 -0.26848,0.712804 -6.47908,0.805434 l -6.4791,0.0966 -0.4007,0.879464 c -0.53658,1.177627 -0.15592,1.459617 0.9724,0.720327 1.06132,-0.695407 1.93163,-0.510307 1.93162,0.4108 -1e-5,0.6492 -1.42596,1.9383 -3.4554,3.12375 -0.63349,0.37005 -1.15179,0.76919 -1.15179,0.887 0,0.11788 -0.583,0.89528 -1.29554,1.72773 -1.07342,1.25407 -1.46834,1.48818 -2.3036,1.36558 l -1.00809,-0.14796 v 4.87124 c 0,2.6792 -0.0968,5.12352 -0.21511,5.43185 -0.17484,0.45562 -1.3888,0.81006 -1.61658,0.47198 z m 2.71773,-12.31543 c 0.1204,-0.19491 -0.0295,-0.3544 -0.3335,-0.3544 -0.30387,0 -0.55251,0.15949 -0.55251,0.3544 0,0.19493 0.15006,0.3544 0.33347,0.3544 0.18341,0 0.43206,-0.15947 0.55254,-0.3544 z m -3.18961,-5.13882 v -2.126381 l -1.86458,-0.10734 c -1.42904,-0.0822 -1.91398,0.0215 -2.07604,0.443797 -0.61409,1.600304 1.31821,4.218364 2.97279,4.027764 0.93423,-0.10756 0.96783,-0.18528 0.96783,-2.23789 z m 5.5863,1.20638 c 0.75451,-0.92323 1.1231,-2.245717 0.83508,-2.996234 -0.16205,-0.422337 -0.64698,-0.525997 -2.07603,-0.443797 l -1.86456,0.10732 -0.10673,2.264321 -0.10674,2.26433 1.3472,-0.21574 c 0.74642,-0.11943 1.62578,-0.55662 1.97188,-0.98013 z m -5.8344,-5.707249 c 0.23391,-0.233897 0.42528,-1.270524 0.42528,-2.303596 v -1.878333 h -1.19207 c -1.59019,0 -3.06074,1.442162 -3.06074,3.001675 0,0.623157 0.10638,1.239324 0.23627,1.369274 0.40344,0.403447 3.14298,0.259257 3.59126,-0.18902 z m 6.64152,0.048 c 0.40348,-0.652817 -0.19172,-2.784893 -0.98336,-3.522406 -0.44187,-0.411644 -1.24995,-0.707399 -1.93289,-0.707399 h -1.17357 v 1.878332 c 0,1.033069 0.19137,2.069686 0.42528,2.303583 0.5264,0.526407 3.34604,0.563247 3.66454,0.048 z m -3.02663,-6.667222 c 0,-0.171044 -0.23921,-0.509536 -0.53159,-0.752196 -0.57704,-0.478897 -0.64917,-0.364349 -0.3165,0.502627 0.22773,0.593425 0.84809,0.775993 0.84809,0.249569 z M 58.104597,57.689669 c -0.846625,-0.211983 -2.667365,-1.446525 -3.256558,-2.208098 -0.63677,-0.823074 0.362406,-1.771636 1.225386,-1.163324 1.505296,1.061059 2.662329,1.546904 2.96446,1.244784 0.178324,-0.178332 0.278061,-4.078832 0.225071,-8.801594 l -0.0951,-8.481341 -8.771433,-0.09479 c -6.958649,-0.07519 -8.771434,-6.48e-4 -8.771434,0.360733 0,0.250538 0.398708,1.042266 0.886006,1.759396 0.993592,1.462207 1.088962,1.922924 0.443003,2.140263 -0.933637,0.314133 -1.638399,-0.214254 -2.570857,-1.927506 -0.659822,-1.212304 -0.966346,-2.299178 -0.966346,-3.426505 0,-2.666751 1.605622,-5.722414 3.00688,-5.722414 1.057712,0 1.105813,0.980636 0.106355,2.168432 -1.866337,2.218019 -1.713008,2.261583 7.959862,2.261583 h 8.67798 l 0.09483,-8.771429 c 0.0935,-8.64822 0.08452,-8.77143 -0.634548,-8.77143 -0.401144,0 -1.189823,0.34044 -1.752614,0.756536 -1.066728,0.788666 -2.137646,0.697334 -2.137646,-0.18231 0,-0.696847 1.965819,-2.299939 3.12833,-2.551107 0.521014,-0.112575 1.309344,-0.380416 1.751852,-0.595219 0.597135,-0.289861 0.912353,-0.282754 1.222681,0.02758 0.229973,0.229965 0.713106,0.418119 1.073651,0.418119 0.879911,0 2.780885,1.004249 3.533895,1.866888 0.457547,0.524165 0.520852,0.865282 0.253333,1.365147 -0.458593,0.856884 -0.563488,0.844021 -1.989982,-0.244011 -0.65646,-0.500713 -1.468916,-0.85745 -1.805457,-0.792747 -0.554822,0.106675 -0.620765,0.869972 -0.70716,8.186427 -0.06095,5.160993 0.03938,8.320323 0.278275,8.766775 0.355549,0.664366 0.779825,0.697988 8.807639,0.697988 4.638756,0 8.536746,-0.102644 8.6622,-0.2281 0.125508,-0.125455 -0.204229,-0.997192 -0.732636,-1.937195 -1.039951,-1.85003 -0.821804,-2.723178 0.569997,-2.281437 0.920913,0.292287 2.533472,3.638959 2.533472,5.257903 0,2.613407 -1.611314,5.56805 -3.036535,5.56805 -1.111908,0 -1.102451,-0.67721 0.03283,-2.350086 0.492067,-0.7251 0.760283,-1.452747 0.596036,-1.616993 -0.164245,-0.164245 -4.195029,-0.255858 -8.957285,-0.203581 l -8.658648,0.09504 -0.100059,7.974027 c -0.09885,7.874248 0.0053,9.568837 0.588966,9.568837 0.164004,0 0.88571,-0.398701 1.603786,-0.886003 1.472947,-0.99957 2.174507,-1.112707 2.449874,-0.395085 0.295555,0.770201 -0.778163,2.004346 -2.374516,2.729264 -1.377269,0.625445 -3.781255,0.81324 -5.357648,0.418543 z m 89.950223,-0.183307 c -0.15771,-0.243651 -0.36645,-1.713566 -0.46391,-3.266476 l -0.1772,-2.823484 -1.17693,-0.335995 c -0.6473,-0.184803 -1.66241,-0.789539 -2.25581,-1.343852 -0.8904,-0.831761 -1.00227,-1.100182 -0.64029,-1.536337 0.58091,-0.699964 0.94973,-0.667157 2.0271,0.180312 0.49562,0.389844 1.19857,0.708805 1.56211,0.708805 0.61665,0 0.66102,-0.368664 0.66102,-5.49322 v -5.49322 h -5.49322 c -3.6104,0 -5.49322,0.127918 -5.49322,0.373204 0,0.205261 0.39869,0.959946 0.88599,1.677073 0.98472,1.449133 1.10467,2.069898 0.44301,2.292523 -0.99738,0.335579 -1.7177,-0.275232 -2.6499,-2.24702 l -0.98272,-2.078604 -2.49054,-0.0086 c -2.66304,-0.0092 -4.2029,-0.656734 -3.83592,-1.613093 0.15421,-0.401836 0.87979,-0.521902 3.154,-0.521902 h 2.9537 l 1.12811,-2.116525 c 1.13352,-2.126719 2.18611,-2.903803 2.92818,-2.161741 0.29621,0.296214 0.28816,0.557027 -0.0311,1.009807 -0.9626,1.364892 -1.51969,2.599929 -1.3191,2.924466 0.12215,0.197597 2.46991,0.343993 5.5167,0.343993 h 5.30411 l -0.0976,-5.581819 c -0.0931,-5.321118 -0.13007,-5.576161 -0.79189,-5.460672 -0.38185,0.06663 -1.07668,0.42195 -1.54408,0.7896 -0.66045,0.519517 -1.00503,0.585375 -1.5465,0.295586 -0.61909,-0.331324 -0.64242,-0.458788 -0.20939,-1.144003 0.26802,-0.424123 1.31569,-1.169835 2.32812,-1.657137 l 1.84082,-0.886004 0.007,-2.303608 c 0.008,-3.151382 0.26111,-3.961586 1.19441,-3.828407 0.68637,0.09794 0.76011,0.360556 0.85432,3.042466 l 0.10315,2.935272 1.9481,0.922382 c 2.39961,1.13616 3.23794,2.142723 2.44503,2.935645 -0.43256,0.432565 -0.65642,0.452908 -1.1506,0.10457 -1.5143,-1.067411 -2.66178,-1.54745 -2.96772,-1.241519 -0.17792,0.177927 -0.27921,2.703317 -0.22507,5.611979 l 0.0984,5.288473 5.28848,0.09842 c 2.90866,0.05414 5.43404,-0.04715 5.61198,-0.225075 0.19505,-0.195065 -0.0502,-0.915571 -0.61793,-1.814806 -0.96212,-1.5241 -0.97369,-2.488559 -0.0298,-2.488559 0.78004,0 1.88138,1.328261 2.54745,3.072344 l 0.58619,1.534873 h 2.97536 c 2.37457,0 3.01843,0.112157 3.18853,0.555425 0.37427,0.975312 -0.54843,1.389238 -3.50192,1.570982 -2.82728,0.173978 -2.8859,0.196532 -3.22389,1.240406 -0.5752,1.776423 -1.63003,3.01241 -2.57094,3.01241 -1.11191,0 -1.10245,-0.677211 0.0329,-2.350089 0.49297,-0.726426 0.75907,-1.45396 0.59265,-1.620368 -0.16611,-0.166102 -2.68181,-0.257715 -5.59047,-0.203581 l -5.28847,0.09842 -0.0978,5.404619 c -0.096,5.302409 -0.0836,5.404625 0.6541,5.404625 0.41357,0 1.22078,-0.333857 1.79382,-0.741899 1.23764,-0.881277 2.17732,-0.660126 2.01618,0.474509 -0.0815,0.574699 -0.71037,1.09745 -2.23984,1.862191 l -2.12642,1.063208 -0.0907,2.303609 c -0.0499,1.266979 -0.17251,2.66244 -0.27254,3.101011 -0.19772,0.866684 -1.01758,1.063479 -1.47651,0.354399 z m 90.62966,-0.242504 c -0.21021,-0.392802 -0.36688,-3.173705 -0.36688,-6.513023 0,-6.180701 -0.0368,-6.320166 -1.77199,-6.739461 -1.8237,-0.440642 -3.93377,-2.79526 -4.73904,-5.288276 -0.18031,-0.558186 -0.79712,-0.620203 -6.16855,-0.620203 -6.25511,0 -7.54325,-0.280062 -7.06154,-1.535321 0.18988,-0.494849 1.09539,-0.588058 6.52296,-0.67145 l 6.30246,-0.09684 0.65565,-1.417605 c 0.921,-1.991391 2.87736,-3.905581 4.70497,-4.603549 l 1.55508,-0.593892 0.005,-5.729708 c 0.002,-3.151341 0.10099,-6.088541 0.21852,-6.527113 0.2458,-0.917232 1.36649,-1.07446 1.68793,-0.236814 0.11823,0.308323 0.21512,3.241396 0.21512,6.517941 v 5.957355 l 1.38896,0.555745 c 2.03849,0.815644 3.73529,2.467922 4.60098,4.480254 l 0.76341,1.774586 h 6.38048 c 5.59396,0 6.40806,0.07186 6.60415,0.58285 0.48735,1.269976 -0.78527,1.543558 -7.18016,1.543558 h -6.08998 l -0.1953,0.974603 c -0.35623,1.777683 -2.19518,3.85089 -4.29834,4.845846 l -1.9742,0.933939 -0.005,5.748643 c -0.002,3.161744 -0.10099,6.107462 -0.21853,6.546032 -0.26224,0.978541 -1.04195,1.035338 -1.53616,0.111886 z m -0.43779,-17.151155 0.10638,-2.009808 h -2.08502 c -1.14677,0 -2.18498,0.09996 -2.30716,0.222133 -0.53078,0.530779 1.62487,3.302218 2.9392,3.778839 1.00415,0.364135 1.24061,0.01448 1.3467,-1.991164 z m 4.15663,1.527963 c 1.25687,-0.776785 2.2935,-2.12991 2.2935,-2.9937 0,-0.428709 -0.45087,-0.544071 -2.1264,-0.544071 h -2.1264 v 1.890139 c 0,2.597414 0.17899,2.747929 1.9593,1.647632 z m -4.15663,-7.879187 c 0.0921,-1.766075 0.0213,-2.037495 -0.5316,-2.035472 -1.46284,0.0053 -3.61955,2.062345 -3.63902,3.470764 -0.0108,0.769415 0.1029,0.809133 2.02653,0.708802 l 2.03782,-0.106281 z m 6.3326,1.655734 c 0.11799,-0.307602 -0.10099,-0.985394 -0.4867,-1.506205 -0.85978,-1.160857 -2.91394,-2.599537 -3.3377,-2.337635 -0.36103,0.223126 -0.42536,3.816096 -0.0746,4.166847 0.12993,0.129941 1.01211,0.236266 1.96032,0.236266 1.24349,0 1.7839,-0.155895 1.93869,-0.559273 z"
       id="path21"
       inkscape:connector-curvature="0"
       sodipodi:nodetypes="ccccccccscccccccscccccccccccsccccsccccsccccscccccsccccccscscccscccsccccccsccscccccscsccscccccccscccccccccccccscccccccccccccccccccccccccccccscccccscscccccccscccssccssccsccsscscccccccccccscsccccccccccccssccccccccccscccccscccccccscsccccccccccccccccccccccsscccscccccsccccscccccsscccccccccsccccccscccsccccsssccccccccccccccccccscssccccscscccsccscccccccscccsscscsscscccsccccscsccssscssccsccccccscccccsscssccccscscccccscccccscccccccccccccccsccscscscccccsccsccccccsccscccccccccsccccscsccccccccccscccccsscscccccccccccscc" />
    <g
       style="fill:#ff0000"
       id="g849"
       transform="translate(3.5484768,24.913689)">
      <path
         d="m 182.18918,112.41231 v 54.87831 h 83.43064 c 4.87077,-6.95322 13.37099,-13.27791 12.5943,-28.72832 -1.36693,-12.33766 -6.69957,-19.60371 -12.5943,-26.14999 z"
         style="fill:none;fill-opacity:0.0078125;stroke:#e5d5ff;stroke-width:1.30150163;stroke-linecap:butt;stroke-linejoin:miter;stroke-miterlimit:4;stroke-dasharray:none;stroke-opacity:1"
         id="path845"
         inkscape:connector-curvature="0"
         sodipodi:nodetypes="cccccc" />
      <rect
         transform="translate(-93.165739,-105.80656)"
         style="fill:#000000;fill-opacity:1;stroke:none;stroke-width:0.90973073;stroke-miterlimit:4;stroke-dasharray:none;stroke-opacity:1"
         id="rect847"
         width="80.637642"
         height="54.22644"
         x="275.35492"
         y="218.21887"
         clip-path="url(#clipPath840-6)" />
    </g>
  </g>
</svg>
