<?xml version="1.0" encoding="UTF-8" standalone="no"?>
<!-- Created with Inkscape (http://www.inkscape.org/) -->

<svg
   xmlns:dc="http://purl.org/dc/elements/1.1/"
   xmlns:cc="http://creativecommons.org/ns#"
   xmlns:rdf="http://www.w3.org/1999/02/22-rdf-syntax-ns#"
   xmlns:svg="http://www.w3.org/2000/svg"
   xmlns="http://www.w3.org/2000/svg"
   xmlns:sodipodi="http://sodipodi.sourceforge.net/DTD/sodipodi-0.dtd"
   xmlns:inkscape="http://www.inkscape.org/namespaces/inkscape"
   width="115.00001mm"
   height="70mm"
   viewBox="0 0 115.00001 70"
   version="1.1"
   id="svg1079"
   inkscape:version="0.92.4 (5da689c313, 2019-01-14)"
   sodipodi:docname="2.1.svg">
  <defs
     id="defs1073">
    <clipPath
       clipPathUnits="userSpaceOnUse"
       id="clipPath1058">
      <ellipse
         style="fill:#ffcc00;fill-opacity:1;stroke:#ffcc00;stroke-width:5.25652218;stroke-linecap:butt;stroke-linejoin:miter;stroke-miterlimit:4;stroke-dasharray:none;stroke-opacity:1"
         id="ellipse1060"
         cx="59.323036"
         cy="0.8915832"
         rx="27.6078"
         ry="26.313755" />
    </clipPath>
  </defs>
  <sodipodi:namedview
     id="base"
     pagecolor="#ffffff"
     bordercolor="#666666"
     borderopacity="1.0"
     inkscape:pageopacity="0.0"
     inkscape:pageshadow="2"
     inkscape:zoom="1.4"
     inkscape:cx="166.65548"
     inkscape:cy="147.87521"
     inkscape:document-units="mm"
     inkscape:current-layer="layer1"
     showgrid="false"
     fit-margin-top="0"
     fit-margin-left="0"
     fit-margin-right="0"
     fit-margin-bottom="0"
     inkscape:window-width="1920"
     inkscape:window-height="1001"
     inkscape:window-x="-9"
     inkscape:window-y="-9"
     inkscape:window-maximized="1" />
  <metadata
     id="metadata1076">
    <rdf:RDF>
      <cc:Work
         rdf:about="">
        <dc:format>image/svg+xml</dc:format>
        <dc:type
           rdf:resource="http://purl.org/dc/dcmitype/StillImage" />
        <dc:title></dc:title>
      </cc:Work>
    </rdf:RDF>
  </metadata>
  <g
     inkscape:label="Ebene 1"
     inkscape:groupmode="layer"
     id="layer1"
     transform="translate(-67.232141,-155.41071)">
    <g
       id="g1782">
      <g
         transform="matrix(1.0037152,0,0,1.0038501,43.458405,92.506432)"
         style="stroke:none;stroke-width:0.1;stroke-linecap:round;stroke-linejoin:round;stroke-miterlimit:4;stroke-dasharray:none;fill:#d5fff6;fill-opacity:1"
         id="g2384">
        <path
           sodipodi:nodetypes="ccsccc"
           inkscape:connector-curvature="0"
           id="path2379"
           d="m 23.685739,62.663023 h 99.675681 c 5.78011,6.133058 8.76542,12.932231 11.99785,19.014489 5.50042,10.349797 4.05232,39.986848 -11.99785,50.717038 H 23.685739 Z"
           style="fill:#d5fff6;stroke:none;stroke-width:0.1;stroke-linecap:butt;stroke-linejoin:miter;stroke-miterlimit:4;stroke-dasharray:none;stroke-opacity:1;fill-opacity:1" />
      </g>
      <path
         transform="matrix(0.26458333,0,0,0.26458333,67.232141,155.41071)"
         inkscape:connector-curvature="0"
         id="path1642"
         d="m 175.28056,118.55777 c 0,-1.69272 15.37439,-45.87094 17.03204,-48.941462 1.04271,-1.931457 2.86028,-4.118824 4.03905,-4.860815 2.96932,-1.869088 8.74137,-1.413954 14.28606,1.126473 8.27147,3.789771 12.9888,10.350802 13.72092,19.083565 l 0.41182,4.912131 -2.78066,2.757491 c -3.11318,3.087243 -21.41761,14.201607 -35.67273,21.660317 -9.23604,4.83258 -11.0365,5.52791 -11.0365,4.2623 z"
         style="fill:#d5fff6;fill-opacity:1;stroke:none;stroke-width:14.10573673;stroke-linecap:butt;stroke-linejoin:miter;stroke-miterlimit:4;stroke-dasharray:none;stroke-opacity:1" />
      <path
         transform="matrix(0.26458333,0,0,0.26458333,67.232141,155.41071)"
         inkscape:connector-curvature="0"
         id="path1646"
         d="m 175.18578,118.7551 c -0.1616,-0.42113 12.82755,-39.299264 15.24439,-45.628329 2.79999,-7.332419 6.49754,-10.371531 12.0013,-9.864169 2.60514,0.240154 8.14968,2.016138 10.45129,3.347671 7.6707,4.437683 11.76046,11.481575 11.77951,20.28811 0.0109,5.04683 -1.52084,6.4421 -17.31523,15.772377 -15.83291,9.35303 -29.35783,16.53923 -31.12797,16.53923 -0.4723,0 -0.93728,-0.2047 -1.03329,-0.45489 z"
         style="fill:#ffccaa;fill-opacity:1;stroke:none;stroke-width:7.05286837;stroke-linecap:butt;stroke-linejoin:miter;stroke-miterlimit:4;stroke-dasharray:none;stroke-opacity:1" />
      <path
         transform="matrix(0.26458333,0,0,0.26458333,67.232141,155.41071)"
         inkscape:connector-curvature="0"
         id="path1648"
         d="m 231.90041,140.26375 c -12.33834,-1.84051 -35.63179,-6.39086 -46.25,-9.03489 -3.61548,-0.90029 -4.69905,-1.28475 -5.02559,-1.78312 -0.26159,-0.39924 -0.24929,-0.47836 0.19124,-1.23006 0.45226,-0.77174 1.97933,-2.12378 3.67363,-3.25258 1.43201,-0.95405 3.3658,-2.07885 10,-5.81652 3.58482,-2.01967 10.05357,-5.69277 14.375,-8.16245 12.64557,-7.2269 20.36374,-10.90939 22.8353,-10.89516 1.59695,0.009 4.29877,1.58721 6.87199,4.01362 3.35994,3.16825 5.46632,6.9857 6.48003,11.74399 0.51559,2.42013 0.56007,7.09379 0.0905,9.50601 -1.05952,5.44243 -3.75752,10.74469 -7.29183,14.33036 -1.31768,1.33682 -1.05432,1.31112 -5.95023,0.5808 z"
         style="fill:#ffccaa;fill-opacity:1;stroke:none;stroke-width:3.52643418;stroke-linecap:butt;stroke-linejoin:miter;stroke-miterlimit:4;stroke-dasharray:none;stroke-opacity:1" />
      <path
         transform="matrix(0.26458333,0,0,0.26458333,67.232141,155.41071)"
         inkscape:connector-curvature="0"
         id="path1650"
         d="m 216.90041,183.58634 c -4.24841,-1.03739 -9.01987,-5.63627 -21.977,-21.18211 -8.15345,-9.78243 -15.34642,-19.1949 -16.75343,-21.92295 -0.47902,-0.92877 -0.31294,-0.99696 2.10482,-0.86425 10.51067,0.57693 42.79344,5.83281 49.66132,8.08523 4.09352,1.34253 6.61206,3.37762 8.14175,6.5789 1.01225,2.11842 1.30594,3.87939 1.17577,7.04996 -0.24196,5.89308 -2.02359,10.02677 -6.18708,14.35507 -4.12418,4.28743 -11.16903,8.19754 -14.6483,8.13026 -0.34375,-0.007 -1.02678,-0.1102 -1.51785,-0.23011 z"
         style="fill:#ffccaa;fill-opacity:1;stroke:none;stroke-width:3.52643418;stroke-linecap:butt;stroke-linejoin:miter;stroke-miterlimit:4;stroke-dasharray:none;stroke-opacity:1" />
      <path
         transform="matrix(0.26458333,0,0,0.26458333,67.232141,155.41071)"
         inkscape:connector-curvature="0"
         id="path1652"
         d="m 180.5837,209.24951 c -2.28124,-0.35408 -5.87674,-1.44162 -7.26607,-2.19779 -1.7125,-0.93206 -3.81273,-3.27164 -4.4386,-4.94444 -1.17775,-3.14783 -1.44194,-9.30735 -1.06881,-24.91955 0.44727,-18.71401 1.25172,-28.32532 2.45432,-29.32339 0.93416,-0.77529 18.75172,18.69964 30.55125,33.39311 4.44457,5.53463 6.28319,8.13519 6.51825,9.21945 0.60714,2.80052 -2.92682,9.92585 -6.84244,13.79606 -2.74429,2.71246 -4.17498,3.4929 -8.27634,4.51472 -2.34762,0.58489 -9.10908,0.85336 -11.63156,0.46183 z"
         style="fill:#ffccaa;fill-opacity:1;stroke:none;stroke-width:4.98713112;stroke-linecap:butt;stroke-linejoin:miter;stroke-miterlimit:4;stroke-dasharray:none;stroke-opacity:1" />
      <path
         transform="matrix(0.26458333,0,0,0.26458333,67.232141,155.41071)"
         inkscape:connector-curvature="0"
         id="path1654"
         d="m 139.2539,210.92949 c -2.20345,-0.59347 -4.00751,-1.93125 -8.04079,-5.96256 -4.04042,-4.03845 -6.41854,-7.07133 -7.89269,-10.06575 -1.13211,-2.29964 -1.08752,-3.216 0.2721,-5.59162 6.15354,-10.75193 33.07842,-42.9135 35.93927,-42.92921 0.46747,-0.003 0.5856,0.47841 0.96086,3.91207 0.88672,8.11359 1.01915,43.08259 0.18507,48.86613 -0.51296,3.55685 -1.18592,5.268 -2.67171,6.7934 -2.13448,2.19139 -7.02881,4.1277 -12.47899,4.93697 -3.11224,0.46213 -4.67053,0.47221 -6.27312,0.0406 z"
         style="fill:#ffccaa;fill-opacity:1;stroke:none;stroke-width:4.98713112;stroke-linecap:butt;stroke-linejoin:miter;stroke-miterlimit:4;stroke-dasharray:none;stroke-opacity:1" />
      <path
         transform="matrix(0.26458333,0,0,0.26458333,67.232141,155.41071)"
         inkscape:connector-curvature="0"
         id="path1656"
         d="m 108.98914,185.17839 c -4.97124,-1.77162 -11.705687,-6.40275 -14.268628,-9.81222 -2.18367,-2.90492 -3.147234,-6.90174 -3.342039,-13.86263 -0.202721,-7.24373 0.411279,-9.79466 2.62705,-10.91438 4.893672,-2.47298 27.191427,-7.25227 47.308497,-10.14008 6.67768,-0.95858 7.60283,-1.02817 8.35036,-0.62811 1.65367,0.88502 -0.38965,3.81126 -15.15909,21.7094 -9.39239,11.38203 -16.2426,19.04211 -20.21119,22.60067 -2.12721,1.90743 -2.61907,2.00453 -5.30496,1.04735 z"
         style="fill:#ffccaa;fill-opacity:1;stroke:none;stroke-width:4.98713112;stroke-linecap:butt;stroke-linejoin:miter;stroke-miterlimit:4;stroke-dasharray:none;stroke-opacity:1" />
      <path
         transform="matrix(0.26458333,0,0,0.26458333,67.232141,155.41071)"
         inkscape:connector-curvature="0"
         id="path1658"
         d="m 93.89497,139.92563 c -1.696543,-0.45675 -2.440628,-0.84699 -4.068466,-2.13372 -2.430591,-1.92127 -4.978787,-6.08695 -5.947586,-9.72285 -0.574103,-2.1546 -0.768056,-5.95702 -0.417953,-8.19391 0.707577,-4.52088 2.972885,-8.06531 9.188389,-14.37669 3.251576,-3.30173 5.79228,-5.33486 6.666722,-5.33486 3.138064,0 50.331704,27.45249 50.331704,29.2779 0,0.46914 -1.37567,1.29382 -2.99001,1.79244 -2.39834,0.74077 -8.94593,1.9398 -26.13671,4.78633 -8.35655,1.38372 -17.34744,2.91658 -19.97976,3.40637 -5.431003,1.01053 -4.895584,0.97033 -6.64633,0.49899 z"
         style="fill:#ffccaa;fill-opacity:1;stroke:none;stroke-width:4.98713112;stroke-linecap:butt;stroke-linejoin:miter;stroke-miterlimit:4;stroke-dasharray:none;stroke-opacity:1" />
      <path
         transform="matrix(0.26458333,0,0,0.26458333,67.232141,155.41071)"
         inkscape:connector-curvature="0"
         id="path1660"
         d="m 151.41554,118.79352 c -3.28027,-1.09702 -9.34157,-4.20339 -19.82424,-10.15979 -20.42242,-11.604297 -25.70725,-15.29601 -27.85133,-19.455538 -0.51132,-0.991978 -0.65346,-1.641689 -0.66298,-3.030458 -0.015,-2.193879 0.57052,-3.979472 2.75593,-8.403768 1.34873,-2.730477 1.93331,-3.608081 3.54346,-5.319683 4.04462,-4.299464 9.0828,-6.679883 15.68387,-7.410258 5.03825,-0.557457 9.18037,0.396698 10.96172,2.525074 1.37062,1.637646 2.92379,5.25924 6.13938,14.315487 1.72612,4.861359 4.92533,13.782269 7.10936,19.824244 4.82551,13.34944 6.21505,17.42545 6.03807,17.71181 -0.24752,0.4005 -1.47149,0.21278 -3.89324,-0.59712 z"
         style="fill:#ffccaa;fill-opacity:1;stroke:none;stroke-width:4.98713112;stroke-linecap:butt;stroke-linejoin:miter;stroke-miterlimit:4;stroke-dasharray:none;stroke-opacity:1" />
      <path
         transform="matrix(0.26458333,0,0,0.26458333,67.232141,155.41071)"
         inkscape:connector-curvature="0"
         id="path1662"
         d="m 163.53737,115.69425 c 0,-0.71229 -3.59171,-10.59648 -11.42485,-31.440552 -4.30623,-11.458918 -7.94917,-21.206265 -8.09541,-21.660771 -0.29836,-0.927246 -0.66206,-0.532205 5.22821,-5.678748 2.85775,-2.496914 5.72469,-4.123073 8.87971,-5.036675 1.71618,-0.496956 2.54564,-0.576775 5.79115,-0.557287 3.3418,0.02007 4.05584,0.102852 6.06092,0.702714 2.6775,0.80103 6.79507,2.779225 9.37087,4.502023 5.74156,3.840195 5.40738,6.962061 -3.26562,30.506664 -5.87576,15.950932 -9.48714,24.734822 -11.49872,27.968142 -0.69201,1.11232 -1.04626,1.34746 -1.04626,0.69449 z"
         style="fill:#ffccaa;fill-opacity:1;stroke:#ffccaa;stroke-width:1.51181104;stroke-linecap:butt;stroke-linejoin:miter;stroke-miterlimit:4;stroke-dasharray:none;stroke-opacity:1" />
      <path
         transform="matrix(0.26458333,0,0,0.26458333,67.232141,155.41071)"
         inkscape:connector-curvature="0"
         id="path1664"
         d="m 175.509,118.75385 c -0.20888,-0.54434 1.17687,-4.94011 7.41295,-23.514743 8.03751,-23.940318 8.86794,-26.033693 11.40772,-28.757104 3.10892,-3.333687 6.48696,-3.927202 12.37364,-2.174018 5.05687,1.506045 7.87852,3.056818 10.96381,6.025685 4.08793,3.933667 6.15217,8.278737 6.76409,14.237945 0.68557,6.676392 -0.39763,7.947343 -13.54294,15.890215 -10.38031,6.27216 -24.58433,14.18868 -30.51576,17.00776 -3.36945,1.60143 -4.61553,1.93047 -4.86351,1.28426 z"
         style="fill:#ffccaa;fill-opacity:1;stroke:#ffccaa;stroke-width:0.38178992;stroke-linecap:butt;stroke-linejoin:miter;stroke-miterlimit:4;stroke-dasharray:none;stroke-opacity:1" />
      <path
         transform="matrix(0.26458333,0,0,0.26458333,67.232141,155.41071)"
         inkscape:connector-curvature="0"
         id="path1666"
         d="m 175.36526,118.98149 c -0.27644,-0.28157 0.5987,-3.13362 5.38672,-17.5552 7.82178,-23.559306 10.0378,-29.764855 11.61109,-32.514687 1.05426,-1.842649 3.10204,-3.887843 4.7735,-4.767462 1.29996,-0.684119 1.54758,-0.724159 4.40779,-0.712742 2.82124,0.01126 3.23096,0.07879 5.93465,0.97814 3.79308,1.261723 6.30588,2.543016 8.66719,4.419463 5.22445,4.151678 8.04411,9.784907 8.42492,16.831607 0.30894,5.716844 -0.95341,7.16964 -12.20477,14.046054 -9.87424,6.034767 -25.40705,14.730017 -31.63437,17.708877 -2.90823,1.39116 -4.95264,1.9877 -5.36672,1.56595 z"
         style="fill:#ffccaa;fill-opacity:1;stroke:#ffccaa;stroke-width:0.38178992;stroke-linecap:butt;stroke-linejoin:miter;stroke-miterlimit:4;stroke-dasharray:none;stroke-opacity:1" />
      <path
         transform="matrix(0.26458333,0,0,0.26458333,67.232141,155.41071)"
         inkscape:connector-curvature="0"
         id="path1668"
         d="m 175.42651,119.12498 c -0.52951,-0.34017 -0.19191,-1.46731 6.17092,-20.602877 6.32413,-19.019186 8.54567,-25.318437 9.99605,-28.344248 1.30124,-2.714666 3.47098,-5.069515 5.66723,-6.150726 1.57556,-0.775642 1.64324,-0.785481 4.70886,-0.684502 2.76425,0.09105 3.40987,0.204766 5.80242,1.021978 4.74429,1.620488 7.7577,3.430686 10.67327,6.411598 3.65159,3.733419 5.63954,8.230921 6.1805,13.982645 0.4598,4.888858 -0.41611,6.917247 -4.24601,9.832701 -6.07624,4.625453 -34.28347,20.806141 -41.34462,23.716771 -2.1991,0.90648 -3.13807,1.11897 -3.60862,0.81666 z"
         style="fill:#ffccaa;fill-opacity:1;stroke:#ffccaa;stroke-width:0.38178992;stroke-linecap:butt;stroke-linejoin:miter;stroke-miterlimit:4;stroke-dasharray:none;stroke-opacity:1" />
      <path
         transform="matrix(0.26458333,0,0,0.26458333,67.232141,155.41071)"
         inkscape:connector-curvature="0"
         id="path1670"
         d="m 175.2591,119.01326 c -0.27531,-0.71746 0.33533,-2.72102 6.20678,-20.364888 6.7541,-20.29626 8.73158,-25.845956 10.2837,-28.860753 1.90828,-3.706581 4.87808,-6.224964 7.79815,-6.612809 3.90738,-0.51898 10.47888,1.341558 14.94662,4.231723 6.50402,4.20743 10.1804,10.971796 10.25431,18.86747 0.0346,3.694909 -0.42295,4.857842 -2.77802,7.060891 -2.53995,2.376 -9.71717,6.898996 -22.95166,14.463856 -16.00286,9.14727 -23.24199,12.56409 -23.75988,11.21451 z"
         style="fill:#ffccaa;fill-opacity:1;stroke:#ffccaa;stroke-width:0.38178992;stroke-linecap:butt;stroke-linejoin:miter;stroke-miterlimit:4;stroke-dasharray:none;stroke-opacity:1" />
      <path
         transform="matrix(0.26458333,0,0,0.26458333,67.232141,155.41071)"
         inkscape:connector-curvature="0"
         id="path1672"
         d="m 175.2216,118.0181 c 0.15092,-1.46227 11.47549,-35.694652 14.15858,-42.799138 0.90621,-2.39953 2.07358,-5.126942 2.59416,-6.060915 1.15966,-2.080529 3.582,-4.547949 5.27688,-5.375072 1.13759,-0.555163 1.56291,-0.613567 4.29314,-0.589526 3.5342,0.03112 6.01591,0.655615 9.894,2.489709 2.9555,1.397771 4.30483,2.323848 6.61245,4.538282 4.53203,4.349008 6.66771,9.500392 6.7075,16.178832 0.0209,3.506816 -0.093,3.937502 -1.5475,5.851102 -1.46752,1.93074 -7.29943,5.819671 -18.76226,12.511356 -16.43459,9.59406 -26.1739,14.59377 -28.42831,14.59377 h -0.93677 z"
         style="fill:#ffccaa;fill-opacity:1;stroke:#ffccaa;stroke-width:0.38178992;stroke-linecap:butt;stroke-linejoin:miter;stroke-miterlimit:4;stroke-dasharray:none;stroke-opacity:1" />
      <path
         transform="matrix(0.26458333,0,0,0.26458333,67.232141,155.41071)"
         inkscape:connector-curvature="0"
         id="path1674"
         d="m 175.32506,119.4314 c -0.39013,-0.10088 -0.43387,-0.27951 -0.28654,-1.17026 0.20338,-1.22966 6.74192,-21.368302 10.54945,-32.492213 5.22113,-15.253792 5.94669,-16.887645 8.755,-19.714731 2.37833,-2.394245 3.29164,-2.843053 6.04499,-2.970578 6.14014,-0.28439 13.30311,2.615985 17.9589,7.271775 2.94683,2.946835 4.76113,6.100101 5.84087,10.151491 0.76823,2.882562 0.84326,8.964808 0.12678,10.278552 -1.15779,2.122954 -3.68423,4.183814 -10.01697,8.171012 -7.86435,4.951532 -23.48373,13.834162 -30.43085,17.305822 -3.58816,1.7931 -7.41737,3.39972 -7.90686,3.31747 -0.0959,-0.0161 -0.38154,-0.0829 -0.63477,-0.14834 z"
         style="fill:#ffccaa;fill-opacity:1;stroke:#ffccaa;stroke-width:0.38178992;stroke-linecap:butt;stroke-linejoin:miter;stroke-miterlimit:4;stroke-dasharray:none;stroke-opacity:1" />
      <path
         transform="matrix(0.26458333,0,0,0.26458333,67.232141,155.41071)"
         inkscape:connector-curvature="0"
         id="path1676"
         d="m 231.5964,140.15561 c -11.4753,-1.82425 -30.00952,-5.38142 -40.75943,-7.82273 -6.91704,-1.57086 -9.2958,-2.24281 -9.92823,-2.80452 -0.38304,-0.34021 -0.39214,-0.46237 -0.0795,-1.06699 0.44125,-0.8533 1.88069,-2.16394 3.81917,-3.47744 1.81658,-1.2309 27.94114,-16.07578 33.56345,-19.07191 6.48909,-3.45803 11.80379,-5.74842 13.33887,-5.74842 2.4771,0 7.4021,3.71978 10.01044,7.56074 1.3217,1.94627 2.35283,4.18206 3.05554,6.62525 0.7568,2.63123 0.95965,8.20407 0.3993,10.96953 -1.08567,5.35797 -3.58504,10.43902 -6.81526,13.85493 l -1.31979,1.39565 -1.50587,-0.0264 c -0.82822,-0.0145 -2.52864,-0.18898 -3.77871,-0.3877 z"
         style="fill:#ffccaa;fill-opacity:1;stroke:#ffccaa;stroke-width:0.38178992;stroke-linecap:butt;stroke-linejoin:miter;stroke-miterlimit:4;stroke-dasharray:none;stroke-opacity:1" />
      <path
         transform="matrix(0.26458333,0,0,0.26458333,67.232141,155.41071)"
         inkscape:connector-curvature="0"
         id="path1678"
         d="m 234.37432,140.66585 c -10.03804,-1.38747 -33.68118,-5.88565 -45.83567,-8.72037 -5.53158,-1.2901 -8.08122,-2.17822 -8.08122,-2.81494 0,-0.69038 1.15636,-2.04964 2.8208,-3.31574 1.56838,-1.19304 16.19934,-9.65587 29.63035,-17.13878 11.18981,-6.23425 17.41016,-8.971449 19.37881,-8.52744 2.11408,0.4768 4.72508,2.27774 7.37533,5.08715 2.06893,2.19317 3.639,4.86609 4.70184,8.0045 0.78358,2.31382 0.83752,2.7027 0.9413,6.78634 0.10219,4.02103 0.064,4.51031 -0.53192,6.81853 -1.22721,4.75318 -3.51081,9.13226 -6.54058,12.54231 -1.13136,1.27336 -1.94519,1.54297 -3.85904,1.27844 z"
         style="fill:#ffccaa;fill-opacity:1;stroke:#ffccaa;stroke-width:0.38178992;stroke-linecap:butt;stroke-linejoin:miter;stroke-miterlimit:4;stroke-dasharray:none;stroke-opacity:1" />
      <path
         transform="matrix(0.26458333,0,0,0.26458333,67.232141,155.41071)"
         inkscape:connector-curvature="0"
         id="path1680"
         d="m 233.36417,140.64152 c -9.67272,-1.3411 -37.42108,-6.74717 -47.03498,-9.16358 -6.1877,-1.55526 -6.77577,-2.06061 -4.84074,-4.15988 1.3846,-1.50212 3.0653,-2.59995 10.83827,-7.07954 19.9502,-11.49739 30.68008,-17.28548 35.67461,-19.2442 3.86351,-1.51517 5.33084,-1.232241 9.16398,1.76698 4.75924,3.72386 7.59123,8.95456 8.21677,15.17647 0.34877,3.46896 0.13061,6.51869 -0.68436,9.56701 -1.15468,4.31899 -4.2841,9.97245 -6.80788,12.29879 -1.01872,0.93903 -1.20921,1.01571 -2.43659,0.98083 -0.73231,-0.0208 -1.67239,-0.0851 -2.08908,-0.14288 z"
         style="fill:#ffccaa;fill-opacity:1;stroke:#ffccaa;stroke-width:0.38178992;stroke-linecap:butt;stroke-linejoin:miter;stroke-miterlimit:4;stroke-dasharray:none;stroke-opacity:1" />
      <path
         transform="matrix(0.26458333,0,0,0.26458333,67.232141,155.41071)"
         inkscape:connector-curvature="0"
         id="path1682"
         d="m 178.31085,208.65881 c -3.94105,-1.05735 -5.17385,-1.6328 -6.78058,-3.16507 -3.24585,-3.09543 -3.46276,-4.06258 -3.62976,-16.18418 -0.21222,-15.40528 0.62638,-34.45001 1.74321,-39.58833 0.44177,-2.03251 0.63684,-2.04757 2.72456,-0.21036 6.54097,5.75615 29.3189,32.03745 33.816,39.0171 1.29274,2.00637 1.35552,3.14254 0.33329,6.03125 -1.89414,5.35261 -6.37032,10.91918 -10.28814,12.79432 -2.77409,1.32773 -4.90101,1.6953 -10.4687,1.80917 -4.86227,0.0994 -5.31522,0.0688 -7.44988,-0.5039 z"
         style="fill:#ffccaa;fill-opacity:1;stroke:#ffccaa;stroke-width:0.38178992;stroke-linecap:butt;stroke-linejoin:miter;stroke-miterlimit:4;stroke-dasharray:none;stroke-opacity:1" />
      <path
         transform="matrix(0.26458333,0,0,0.26458333,67.232141,155.41071)"
         inkscape:connector-curvature="0"
         id="path1684"
         d="m 181.21504,209.25465 c -2.18941,-0.18579 -5.32553,-1.02587 -7.3236,-1.96177 -1.59386,-0.74657 -3.99447,-3.0196 -4.73559,-4.48394 -0.27802,-0.54931 -0.64024,-1.62377 -0.80495,-2.3877 -0.41672,-1.93282 -0.79582,-12.56845 -0.6481,-18.18274 0.0676,-2.56958 0.18538,-7.28573 0.26171,-10.48034 0.31567,-13.21114 1.2255,-23.1741 2.16957,-23.75756 0.39235,-0.24249 1.44551,0.56702 4.0999,3.15137 4.90224,4.77291 14.17677,15.10484 22.23773,24.77307 7.20292,8.63911 10.33405,12.83226 10.75809,14.40703 0.74624,2.77133 -2.30845,9.23662 -6.40336,13.55278 -3.84913,4.05711 -6.92717,5.17789 -14.93944,5.43974 -1.52786,0.0499 -3.63024,0.0185 -4.67196,-0.0699 z"
         style="fill:#ffccaa;fill-opacity:1;stroke:#ffccaa;stroke-width:0.38178992;stroke-linecap:butt;stroke-linejoin:miter;stroke-miterlimit:4;stroke-dasharray:none;stroke-opacity:1" />
      <path
         transform="matrix(0.26458333,0,0,0.26458333,67.232141,155.41071)"
         inkscape:connector-curvature="0"
         id="path1686"
         d="m 179.42059,209.13857 c -1.05639,-0.20171 -2.91503,-0.72653 -4.13031,-1.16627 -1.82898,-0.6618 -2.48667,-1.05872 -3.81812,-2.30422 -1.88934,-1.76738 -2.55039,-2.75922 -3.03836,-4.55874 -1.58603,-5.84893 -0.69205,-45.61136 1.17517,-52.26901 0.3721,-1.32674 0.91121,-1.22994 2.95016,0.5297 6.70729,5.78848 32.17319,35.44181 34.42226,40.0824 0.67797,1.39888 0.62109,2.63973 -0.23354,5.09496 -0.90486,2.59953 -2.43515,5.29412 -4.463,7.85863 -2.84875,3.60264 -6.05203,5.66381 -10.05733,6.47144 -2.87355,0.57942 -10.34235,0.7317 -12.80693,0.26111 z"
         style="fill:#ffccaa;fill-opacity:1;stroke:#ffccaa;stroke-width:0.38178992;stroke-linecap:butt;stroke-linejoin:miter;stroke-miterlimit:4;stroke-dasharray:none;stroke-opacity:1" />
      <path
         transform="matrix(0.26458333,0,0,0.26458333,67.232141,155.41071)"
         inkscape:connector-curvature="0"
         id="path1688"
         d="m 140.25098,210.9909 c -2.71271,-0.36664 -5.07179,-2.04424 -9.85067,-7.00507 -3.46312,-3.59498 -5.42169,-6.1169 -6.76195,-8.70688 -1.59241,-3.07725 -1.42855,-3.8565 1.85476,-8.82074 6.6384,-10.03702 23.52647,-30.57495 30.80767,-37.46587 2.90079,-2.7453 3.34256,-2.94217 3.6862,-1.64278 1.24483,4.70692 1.56166,46.98434 0.39728,53.01171 -0.6969,3.60748 -1.71978,5.30588 -4.12514,6.84939 -3.81195,2.44612 -11.84455,4.34298 -16.00815,3.78024 z"
         style="fill:#ffccaa;fill-opacity:1;stroke:#ffccaa;stroke-width:0.38178992;stroke-linecap:butt;stroke-linejoin:miter;stroke-miterlimit:4;stroke-dasharray:none;stroke-opacity:1" />
      <path
         transform="matrix(0.26458333,0,0,0.26458333,67.232141,155.41071)"
         inkscape:connector-curvature="0"
         id="path1690"
         d="m 139.27587,210.93507 c -1.70779,-0.46047 -3.17248,-1.40986 -5.81829,-3.77132 -4.2316,-3.77682 -8.58587,-9.02359 -10.10155,-12.17208 -0.98033,-2.0364 -0.9709,-3.40478 0.0367,-5.3202 3.18108,-6.04734 16.93946,-23.60321 28.34192,-36.16469 3.22214,-3.54966 7.07687,-7.1287 7.6778,-7.1287 0.19216,0 0.45832,0.28652 0.59146,0.63672 0.99978,2.6296 1.63132,31.86263 1.00297,46.42588 -0.30744,7.12574 -0.75122,9.38189 -2.29605,11.67308 -1.36046,2.01776 -4.80181,3.82721 -9.54566,5.01909 -4.45668,1.11972 -7.72761,1.38506 -9.88927,0.80222 z"
         style="fill:#ffccaa;fill-opacity:1;stroke:#ffccaa;stroke-width:0.38178992;stroke-linecap:butt;stroke-linejoin:miter;stroke-miterlimit:4;stroke-dasharray:none;stroke-opacity:1" />
      <path
         transform="matrix(0.26458333,0,0,0.26458333,67.232141,155.41071)"
         inkscape:connector-curvature="0"
         id="path1692"
         d="m 109.36794,185.17309 c -4.13411,-1.35252 -10.273881,-5.25103 -13.432242,-8.52894 -3.209464,-3.33094 -4.376638,-7.75266 -4.420713,-16.74743 -0.03056,-6.23657 0.504523,-8.16952 2.550422,-9.21326 4.063965,-2.07328 21.050853,-5.92692 39.011063,-8.85004 12.99972,-2.11578 16.0232,-2.42513 16.73594,-1.71239 1.04639,1.04639 -2.04457,5.29173 -16.69098,22.92457 -12.73578,15.33263 -19.92078,22.82396 -21.7882,22.71713 -0.10864,-0.006 -0.99301,-0.27155 -1.96529,-0.58964 z"
         style="fill:#ffccaa;fill-opacity:1;stroke:#ffccaa;stroke-width:0.38178992;stroke-linecap:butt;stroke-linejoin:miter;stroke-miterlimit:4;stroke-dasharray:none;stroke-opacity:1" />
      <path
         transform="matrix(0.26458333,0,0,0.26458333,67.232141,155.41071)"
         inkscape:connector-curvature="0"
         id="path1694"
         d="m 108.88807,185.13518 c -3.91991,-1.3946 -9.591771,-5.01382 -12.652717,-8.07372 -3.006343,-3.00531 -4.146341,-6.05485 -4.686675,-12.53704 -0.308008,-3.69506 -0.183714,-9.09939 0.251368,-10.92946 0.666761,-2.80458 2.448813,-3.67591 12.720394,-6.21962 10.15354,-2.51447 31.89609,-6.50797 40.70792,-7.47691 5.13358,-0.56448 5.76241,-0.16672 4.15833,2.63031 -2.85577,4.97964 -24.53391,31.11761 -32.31633,38.96475 -3.01446,3.03953 -4.65662,4.28275 -5.64165,4.2711 -0.43894,-0.005 -1.58223,-0.28843 -2.54064,-0.62941 z"
         style="fill:#ffccaa;fill-opacity:1;stroke:#ffccaa;stroke-width:0.38178992;stroke-linecap:butt;stroke-linejoin:miter;stroke-miterlimit:4;stroke-dasharray:none;stroke-opacity:1" />
      <path
         transform="matrix(0.26458333,0,0,0.26458333,67.232141,155.41071)"
         inkscape:connector-curvature="0"
         id="path1696"
         d="m 110.02965,185.62793 c -5.15382,-1.38614 -13.851693,-7.45957 -16.11679,-11.25382 -1.75817,-2.9451 -2.601393,-7.66305 -2.601393,-14.55517 0,-5.99339 0.446859,-7.81519 2.212449,-9.01994 2.944809,-2.00939 19.599884,-5.88181 39.582614,-9.20322 10.41539,-1.73118 15.53366,-2.31012 16.64686,-1.88294 1.11147,0.42651 0.11228,2.71992 -2.94164,6.75186 -4.35922,5.75526 -15.74457,19.58015 -22.38999,27.1875 -4.60204,5.2682 -10.50698,11.18205 -11.82389,11.84175 -0.58478,0.29294 -1.09617,0.52514 -1.13643,0.516 -0.0403,-0.009 -0.68456,-0.18105 -1.43179,-0.38202 z"
         style="fill:#ffccaa;fill-opacity:1;stroke:#ffccaa;stroke-width:0.38178992;stroke-linecap:butt;stroke-linejoin:miter;stroke-miterlimit:4;stroke-dasharray:none;stroke-opacity:1" />
      <path
         transform="matrix(0.26458333,0,0,0.26458333,67.232141,155.41071)"
         inkscape:connector-curvature="0"
         id="path1698"
         d="m 108.98914,185.37407 c -5.16092,-1.74274 -13.054993,-7.4519 -15.078836,-10.90532 -1.819805,-3.10527 -2.644536,-7.46776 -2.684719,-14.20107 -0.04642,-7.77901 0.539982,-9.13766 4.580035,-10.61151 8.42716,-3.07431 44.72576,-10.09662 52.18981,-10.09662 1.6405,0 1.92312,0.0673 2.16261,0.51477 0.73802,1.379 -2.16778,5.46868 -14.61696,20.57216 -10.39463,12.61089 -19.82396,22.94672 -22.49764,24.66045 -1.36337,0.87388 -1.65114,0.87865 -4.0543,0.0671 z"
         style="fill:#ffccaa;fill-opacity:1;stroke:#ffccaa;stroke-width:0.38178992;stroke-linecap:butt;stroke-linejoin:miter;stroke-miterlimit:4;stroke-dasharray:none;stroke-opacity:1" />
      <path
         transform="matrix(0.26458333,0,0,0.26458333,67.232141,155.41071)"
         inkscape:connector-curvature="0"
         id="path1700"
         d="m 93.458041,139.71137 c -2.305703,-0.7292 -4.455998,-2.45321 -6.29427,-5.04646 -2.609476,-3.6812 -3.448068,-6.21111 -3.609382,-10.88899 -0.223303,-6.47548 0.908338,-9.08594 6.824981,-15.74383 2.650703,-2.98278 6.921358,-6.89949 8.168046,-7.49108 0.818905,-0.38859 0.903162,-0.37415 2.927664,0.50175 5.72018,2.47486 26.97452,14.518 39.5864,22.43046 5.84772,3.66876 8.33376,5.4618 8.33376,6.01069 0,0.61019 -2.11218,1.55762 -4.9245,2.20892 -2.68763,0.62242 -11.11123,2.1132 -25.88515,4.58106 -5.90308,0.98606 -13.26738,2.24236 -16.3651,2.79178 -6.001078,1.06438 -7.16695,1.15029 -8.762449,0.6457 z"
         style="fill:#ffccaa;fill-opacity:1;stroke:#ffccaa;stroke-width:0.38178992;stroke-linecap:butt;stroke-linejoin:miter;stroke-miterlimit:4;stroke-dasharray:none;stroke-opacity:1" />
      <path
         transform="matrix(0.26458333,0,0,0.26458333,67.232141,155.41071)"
         inkscape:connector-curvature="0"
         id="path1702"
         d="m 93.89497,139.92179 c -2.506122,-0.66748 -4.596835,-2.17999 -6.48453,-4.69118 -2.843663,-3.7829 -3.943911,-7.15163 -3.988621,-12.21231 -0.04397,-4.97731 0.744515,-7.31282 3.889639,-11.52115 2.034256,-2.72193 9.065041,-9.78786 10.647175,-10.7004 1.137946,-0.65635 1.286626,-0.68174 2.272847,-0.38819 5.09746,1.5173 43.97325,24.07394 48.58121,28.18796 l 0.96136,0.8583 -0.74068,0.61614 c -1.74669,1.45299 -3.34078,1.772 -38.40274,7.68524 -16.28271,2.74609 -15.120672,2.59573 -16.73566,2.16559 z"
         style="fill:#ffccaa;fill-opacity:1;stroke:#ffccaa;stroke-width:0.38178992;stroke-linecap:butt;stroke-linejoin:miter;stroke-miterlimit:4;stroke-dasharray:none;stroke-opacity:1" />
      <path
         transform="matrix(0.26458333,0,0,0.26458333,67.232141,155.41071)"
         inkscape:connector-curvature="0"
         id="path1704"
         d="m 93.162281,139.82881 c -3.977635,-1.43196 -8.007036,-6.44497 -9.350872,-11.63348 -0.650904,-2.51311 -0.594692,-8.69439 0.098,-10.77686 1.18903,-3.57461 3.641917,-6.89186 9.098138,-12.30418 3.890414,-3.85912 5.320742,-4.95078 6.486273,-4.9505 2.17113,5.3e-4 25.08462,12.7253 41.83985,23.23531 5.54345,3.47724 8.31712,5.49463 8.30617,6.04141 -0.0208,1.03802 -2.44434,1.96008 -8.03671,3.05762 -6.13454,1.20396 -45.353928,7.82015 -46.295585,7.80992 -0.461645,-0.005 -1.427016,-0.22067 -2.145268,-0.47924 z"
         style="fill:#ffccaa;fill-opacity:1;stroke:#ffccaa;stroke-width:0.38178992;stroke-linecap:butt;stroke-linejoin:miter;stroke-miterlimit:4;stroke-dasharray:none;stroke-opacity:1" />
      <path
         transform="matrix(0.26458333,0,0,0.26458333,67.232141,155.41071)"
         inkscape:connector-curvature="0"
         id="path1706"
         d="m 152.80336,119.11721 c -3.27952,-0.86029 -8.68301,-3.53429 -19.8231,-9.80975 -24.57664,-13.844576 -29.78862,-17.901973 -29.79703,-23.196259 -0.003,-2.066284 0.65464,-4.081086 2.65245,-8.12271 1.41673,-2.866078 1.94789,-3.661012 3.60698,-5.398191 5.15873,-5.401562 11.33534,-7.78858 19.31558,-7.464718 6.60603,0.268093 7.70057,1.449148 11.87595,12.814663 3.02695,8.239458 12.48214,34.658545 13.5883,37.967555 0.92565,2.76901 1.06734,3.72399 0.54711,3.68733 -0.10853,-0.008 -0.99334,-0.22271 -1.96624,-0.47792 z"
         style="fill:#ffccaa;fill-opacity:1;stroke:#ffccaa;stroke-width:0.38178992;stroke-linecap:butt;stroke-linejoin:miter;stroke-miterlimit:4;stroke-dasharray:none;stroke-opacity:1" />
      <path
         transform="matrix(0.26458333,0,0,0.26458333,67.232141,155.41071)"
         inkscape:connector-curvature="0"
         id="path1708"
         d="m 151.54181,118.83506 c -7.15852,-2.40499 -36.35709,-19.042781 -43.40179,-24.731021 -5.9222,-4.781873 -6.43235,-8.174078 -2.43085,-16.163794 2.50592,-5.003516 5.94178,-8.383153 10.92073,-10.742007 6.31965,-2.994038 15.94187,-3.051006 18.88109,-0.111784 1.98366,1.983665 3.09918,4.694389 11.11773,27.016232 6.07203,16.903144 8.5749,24.178224 8.5749,24.924624 0,0.80488 -0.8223,0.76171 -3.66181,-0.19225 z"
         style="fill:#ffccaa;fill-opacity:1;stroke:#ffccaa;stroke-width:0.38178992;stroke-linecap:butt;stroke-linejoin:miter;stroke-miterlimit:4;stroke-dasharray:none;stroke-opacity:1" />
      <path
         transform="matrix(0.26458333,0,0,0.26458333,67.232141,155.41071)"
         inkscape:connector-curvature="0"
         id="path1710"
         d="m 163.05241,116.01037 c -0.12188,-0.31252 -1.0397,-2.89788 -2.0396,-5.74524 -0.9999,-2.84737 -5.38661,-14.739235 -9.74824,-26.42637 -4.36164,-11.687132 -7.93025,-21.542481 -7.93025,-21.900775 0,-0.513612 0.61975,-1.200583 2.92913,-3.246867 3.804,-3.370624 5.96718,-4.964897 8.23521,-6.069379 3.34283,-1.627892 4.36601,-1.829344 9.29125,-1.829344 5.13284,0 6.24505,0.253367 10.98895,2.503355 6.98042,3.310749 8.95405,5.439908 8.9591,9.6651 0.005,3.800442 -1.22421,8.177068 -5.97802,21.292848 -6.31773,17.430642 -10.97421,28.753092 -13.00837,31.630402 -0.59605,0.84311 -1.3964,0.90259 -1.69916,0.12627 z"
         style="fill:#ffccaa;fill-opacity:1;stroke:#ffccaa;stroke-width:0.38178992;stroke-linecap:butt;stroke-linejoin:miter;stroke-miterlimit:4;stroke-dasharray:none;stroke-opacity:1" />
      <path
         transform="matrix(0.26458333,0,0,0.26458333,67.232141,155.41071)"
         inkscape:connector-curvature="0"
         id="path1712"
         d="m 162.64162,115.25275 c -0.76862,-2.36296 -5.25206,-14.64798 -10.34543,-28.347401 -7.93256,-21.335902 -8.96187,-24.197158 -8.96187,-24.912175 0,-1.285177 6.81198,-7.142955 10.64645,-9.155131 3.66171,-1.921515 4.24928,-2.045648 9.68287,-2.045648 5.70966,0 6.6788,0.227559 11.8693,2.786997 5.02636,2.4785 7.34599,4.451198 7.99156,6.796301 0.64321,2.336553 0.20751,6.033044 -1.32274,11.222024 -2.47492,8.392345 -11.86828,33.239733 -15.27717,40.411283 -1.64982,3.47086 -2.4321,4.56958 -3.2535,4.56958 -0.49852,0 -0.67007,-0.22094 -1.02947,-1.32583 z"
         style="fill:#ffccaa;fill-opacity:1;stroke:#ffccaa;stroke-width:0.38178992;stroke-linecap:butt;stroke-linejoin:miter;stroke-miterlimit:4;stroke-dasharray:none;stroke-opacity:1" />
      <path
         transform="matrix(0.26458333,0,0,0.26458333,67.232141,155.41071)"
         inkscape:connector-curvature="0"
         id="path1714"
         d="m 174.98992,119.22244 c -0.0816,-0.21263 -0.0754,-0.75243 0.0139,-1.19956 0.23464,-1.17601 4.66469,-14.91162 8.44786,-26.193038 6.74258,-20.106371 7.76569,-22.569161 10.62745,-25.581853 2.56711,-2.702496 3.66815,-3.207494 6.99327,-3.207494 9.5025,0 18.89238,6.18188 22.29419,14.677496 1.08749,2.715872 1.60551,6.031637 1.499,9.594819 -0.0859,2.872148 -0.10597,2.959867 -0.97156,4.238793 -1.04154,1.538895 -3.35826,3.458313 -7.19734,5.963042 -8.42975,5.499825 -26.87648,16.025795 -34.35188,19.601685 -4.93582,2.36107 -7.0272,2.95995 -7.35485,2.10611 z"
         style="fill:#ffccaa;fill-opacity:1;stroke:#ffccaa;stroke-width:0.38178992;stroke-linecap:butt;stroke-linejoin:miter;stroke-miterlimit:4;stroke-dasharray:none;stroke-opacity:1" />
      <path
         transform="matrix(0.26458333,0,0,0.26458333,67.232141,155.41071)"
         inkscape:connector-curvature="0"
         id="path1716"
         d="m 174.90159,118.75752 c 0,-1.098 1.47802,-5.85888 6.8701,-22.129453 8.6108,-25.983054 9.85435,-28.864866 13.7878,-31.952099 1.72462,-1.353592 3.11927,-1.762608 5.87372,-1.72261 6.32881,0.0919 12.73362,2.942151 17.30014,7.698853 2.81811,2.935483 4.42602,5.629018 5.43171,9.099078 0.78921,2.723155 1.00233,9.544889 0.34251,10.963527 -1.36622,2.937435 -7.94501,7.476947 -24.85724,17.152054 -12.85316,7.353 -21.11729,11.45749 -23.53707,11.69 l -1.21167,0.11643 z"
         style="fill:#ffccaa;fill-opacity:1;stroke:#ffccaa;stroke-width:0.38178992;stroke-linecap:butt;stroke-linejoin:miter;stroke-miterlimit:4;stroke-dasharray:none;stroke-opacity:1" />
      <path
         transform="matrix(0.26458333,0,0,0.26458333,67.232141,155.41071)"
         inkscape:connector-curvature="0"
         id="path1718"
         d="m 231.72267,140.52376 c -24.1618,-4.14845 -47.14598,-8.91603 -50.37846,-10.44994 -1.32683,-0.62962 -1.22603,-1.51519 0.3521,-3.09331 1.50146,-1.50146 4.29255,-3.23495 15.83007,-9.83172 24.04935,-13.75062 31.81334,-17.576681 34.76807,-17.13359 1.51277,0.22685 3.86172,1.66732 6.13571,3.76267 3.18951,2.93893 5.31165,6.43725 6.46299,10.65414 0.46248,1.69386 0.55385,2.71399 0.56549,6.31345 0.0153,4.72455 -0.29187,6.40886 -1.864,10.2213 -1.44839,3.51238 -4.07506,7.5918 -5.89423,9.15421 -0.72483,0.62251 -0.9802,0.68548 -2.69474,0.66448 -1.04172,-0.0128 -2.51907,-0.13053 -3.283,-0.26169 z"
         style="fill:#ffccaa;fill-opacity:1;stroke:#ffccaa;stroke-width:0.38178992;stroke-linecap:butt;stroke-linejoin:miter;stroke-miterlimit:4;stroke-dasharray:none;stroke-opacity:1" />
      <path
         transform="matrix(0.26458333,0,0,0.26458333,67.232141,155.41071)"
         inkscape:connector-curvature="0"
         id="path1720"
         d="m 231.97521,140.64875 c -14.44393,-2.39546 -35.57177,-6.54534 -44.92459,-8.82398 -6.24416,-1.52126 -7.26402,-2.08802 -6.48124,-3.60176 0.89631,-1.73325 4.23786,-3.93524 17.18691,-11.32567 19.94638,-11.38403 28.98796,-16.04631 32.57974,-16.79969 1.72758,-0.362365 3.13379,-0.0347 5.00355,1.16595 4.42522,2.84156 7.56144,6.90827 9.27901,12.03198 0.72098,2.15075 0.81732,2.79127 0.93068,6.18719 0.18408,5.5151 -0.41302,8.5302 -2.60336,13.14592 -1.18277,2.49244 -3.63025,6.12364 -4.90158,7.27221 -1.01842,0.92009 -1.02283,0.92129 -3.22879,0.88695 -1.21495,-0.0189 -2.49309,-0.0815 -2.84033,-0.1391 z"
         style="fill:#ffccaa;stroke:#ffccaa;fill-opacity:1;stroke-opacity:1;stroke-width:1.51181102;stroke-miterlimit:4;stroke-dasharray:none;stroke-linecap:butt;stroke-linejoin:miter" />
      <path
         transform="matrix(0.26458333,0,0,0.26458333,67.232141,155.41071)"
         inkscape:connector-curvature="0"
         id="path1722"
         d="m 216.29374,183.27447 c -2.00536,-0.64159 -3.99454,-2.04479 -7.01755,-4.95032 -6.97761,-6.70644 -24.41884,-27.76815 -29.87209,-36.07299 -1.20546,-1.83581 -1.42459,-2.31929 -1.12674,-2.48597 1.71796,-0.96142 38.60325,4.60628 49.87638,7.52866 8.25557,2.14012 11.73916,7.04991 10.8944,15.35464 -0.58514,5.75244 -2.43723,9.42801 -6.91546,13.72411 -4.14319,3.97468 -10.57222,7.42779 -13.71696,7.36754 -0.3899,-0.007 -1.3448,-0.21702 -2.12198,-0.46567 z"
         style="fill:#ffccaa;fill-opacity:1;stroke:#ffccaa;stroke-width:0.38178992;stroke-linecap:butt;stroke-linejoin:miter;stroke-miterlimit:4;stroke-dasharray:none;stroke-opacity:1" />
      <path
         transform="matrix(0.26458333,0,0,0.26458333,67.232141,155.41071)"
         inkscape:connector-curvature="0"
         id="path1724"
         d="m 215.69368,183.21712 c -1.9385,-0.786 -4.28901,-2.59133 -7.34524,-5.64158 -9.5155,-9.49692 -31.12186,-36.41768 -30.29816,-37.75045 0.24762,-0.40066 2.80362,-0.32133 7.70773,0.23923 14.81144,1.69299 39.06724,5.85503 43.98717,7.54774 5.32276,1.8313 8.47493,5.12492 9.33262,9.75143 0.3742,2.01851 0.11658,6.56858 -0.50955,8.99936 -1.32529,5.14514 -5.18266,9.96152 -11.00317,13.73875 -5.34971,3.4717 -8.77555,4.37077 -11.8714,3.11552 z"
         style="fill:#ffccaa;fill-opacity:1;stroke:#ffccaa;stroke-width:0.38178992;stroke-linecap:butt;stroke-linejoin:miter;stroke-miterlimit:4;stroke-dasharray:none;stroke-opacity:1" />
      <path
         transform="matrix(0.26458333,0,0,0.26458333,67.232141,155.41071)"
         inkscape:connector-curvature="0"
         id="path1726"
         d="m 178.97073,209.13904 c -4.06533,-0.92357 -6.20791,-1.95552 -8.12244,-3.91211 -1.67955,-1.71646 -2.39433,-3.13754 -2.82431,-5.61506 -0.42636,-2.45673 -0.41702,-29.37753 0.0127,-36.44 0.37897,-6.22904 0.98188,-12.29145 1.38472,-13.92373 0.26133,-1.05886 0.3982,-1.23951 0.99094,-1.30782 0.58475,-0.0674 1.20405,0.4242 4.13589,3.283 8.09898,7.8972 26.78646,29.58466 31.45959,36.50993 1.05977,1.57052 1.33384,2.19577 1.42049,3.24064 0.284,3.4246 -2.74592,9.26954 -7.00153,13.50647 -2.44662,2.43588 -4.17706,3.43184 -7.46866,4.29862 -2.6868,0.70751 -11.46343,0.93344 -13.98734,0.36006 z"
         style="fill:#ffccaa;fill-opacity:1;stroke:#ffccaa;stroke-width:0.38178992;stroke-linecap:butt;stroke-linejoin:miter;stroke-miterlimit:4;stroke-dasharray:none;stroke-opacity:1" />
      <path
         transform="matrix(0.26458333,0,0,0.26458333,67.232141,155.41071)"
         inkscape:connector-curvature="0"
         id="path1728"
         d="m 178.9587,209.23761 c -1.99222,-0.39075 -4.98969,-1.49874 -6.17048,-2.28086 -1.77237,-1.17397 -3.5866,-3.31231 -4.19903,-4.94917 -0.92524,-2.47292 -1.08166,-6.29321 -0.92833,-22.67327 0.13643,-14.57618 0.41976,-20.98319 1.20052,-27.14785 0.52804,-4.16926 0.90197,-4.86508 2.24208,-4.17209 3.63768,1.88113 31.73133,33.99717 35.70073,40.8123 1.16908,2.00722 0.83888,4.71974 -1.0271,8.43743 -1.38972,2.7688 -3.21089,5.22794 -5.49718,7.42287 -2.92098,2.80425 -5.45058,4.01245 -9.54983,4.5612 -2.32893,0.31176 -10.16388,0.30474 -11.77138,-0.0106 z"
         style="fill:#ffccaa;fill-opacity:1;stroke:#ffccaa;stroke-width:0.38178992;stroke-linecap:butt;stroke-linejoin:miter;stroke-miterlimit:4;stroke-dasharray:none;stroke-opacity:1" />
      <path
         transform="matrix(0.26458333,0,0,0.26458333,67.232141,155.41071)"
         inkscape:connector-curvature="0"
         id="path1730"
         d="m 138.66237,210.82525 c -1.58554,-0.55078 -2.97684,-1.51125 -5.60915,-3.8722 -4.75632,-4.26601 -9.4649,-10.31145 -10.31869,-13.24838 -0.45254,-1.55668 -0.23096,-2.76669 0.85107,-4.64765 4.74413,-8.24697 23.55884,-31.51761 32.19045,-39.81417 2.7932,-2.68478 3.54142,-3.15229 4.11964,-2.57407 0.87377,0.87377 1.3662,12.24927 1.36485,31.52911 -0.002,22.24927 -0.41048,25.37309 -3.70048,28.26906 -3.84928,3.38827 -14.57159,5.86112 -18.89769,4.3583 z"
         style="fill:#ffccaa;fill-opacity:1;stroke:#ffccaa;stroke-width:0.38178992;stroke-linecap:butt;stroke-linejoin:miter;stroke-miterlimit:4;stroke-dasharray:none;stroke-opacity:1" />
      <path
         transform="matrix(0.26458333,0,0,0.26458333,67.232141,155.41071)"
         inkscape:connector-curvature="0"
         id="path1732"
         d="m 138.60993,210.93168 c -1.71743,-0.56458 -4.27613,-2.5511 -7.65765,-5.94525 -3.63393,-3.6475 -6.14219,-6.86117 -7.57734,-9.70833 -1.20982,-2.40012 -1.25378,-3.28739 -0.26631,-5.37469 3.3183,-7.01423 26.10115,-35.17056 34.08402,-42.12296 1.97334,-1.71861 2.67812,-1.82417 3.04029,-0.45535 0.88016,3.32665 1.46387,26.14617 1.04486,40.84804 -0.35097,12.31426 -0.62597,14.33447 -2.29411,16.8529 -1.41404,2.13481 -5.01722,4.0741 -9.99638,5.38022 -3.0959,0.8121 -8.64985,1.09331 -10.37738,0.52542 z"
         style="fill:#ffccaa;fill-opacity:1;stroke:#ffccaa;stroke-width:0.38178992;stroke-linecap:butt;stroke-linejoin:miter;stroke-miterlimit:4;stroke-dasharray:none;stroke-opacity:1" />
      <path
         transform="translate(51.385378,189.71461)"
         clip-path="url(#clipPath1058)"
         sodipodi:nodetypes="cccscccsccccscccccccscsccsccccccccccccccsscccccccscsccsccccsccssccscsscscsccscscccccccccccccccscsccccscsccsccccsccccccsscccscccccsccccccccccccccccccsccccccssscscssccccccsccscccccscccccscccscscccccsccccccccccccccccccccccccccccccccsccccssccccccccccccccsccccccsccscccccccccccsccsccccssccccscscccccccccccccccscccccccccccsccscccsccccccccccccscccccscccsccccccccccccccccccccccccccccccccccccccccccccccscccsccccsccscccccscccccccccccssccccccscccccccccccccccccccccccccccccccccscccccsccsccccccscccscccccccscccccccccccccccccccccccccccccsccccccscccccccssscsscsssccccsscccsccccsccccsccccccccscccccscccccsccscccccccccccccccccsccccccccccccccccscsccscssccccccccccccccccccccccsscscccccsccccsscccccccccccccccccsccccscccccccccccccscccccccccccccccccccccccccsccccccscccccscccccsscccccscscsccccccccccccccccc"
         inkscape:connector-curvature="0"
         id="path134"
         style="fill:#333333;fill-opacity:1;stroke-width:0.51792622"
         d="m 153.50585,-23.242871 c -1.79117,-6.3e-4 -3.60104,0.72923 -5.65572,2.19006 -1.87,1.32951 -3.0828,1.80647 -4.61076,1.81274 -4.17244,0.0171 -8.02987,3.66418 -8.02987,7.59288 0,1.12603 -0.36778,1.92055 -1.14106,2.46217 -0.62772,0.43967 -1.79306,1.76975 -2.58963,2.95582 -1.79303,2.66975 -1.95581,6.08241 -0.4107,8.61659 0.78492,1.28742 1.03383,2.60947 1.03383,5.49083 0,4.91961 1.17156,6.83593 5.1479,8.42541 1.52804,0.6108 3.00664,1.54307 3.2866,2.0717 0.90747,1.71355 3.18113,3.91961 4.77262,4.62998 2.03137,0.9067 3.36104,0.89885 6.10687,-0.0334 1.67583,-0.56895 2.71434,-0.63574 4.02809,-0.25896 4.84498,1.38953 8.81241,0.10798 10.90174,-3.52231 0.79591,-1.38294 2.05686,-2.48317 4.03719,-3.5223 1.64837,-0.86493 3.40324,-2.28645 4.10396,-3.32403 1.06335,-1.57446 1.18744,-2.22906 0.93976,-4.98504 -0.21736,-2.41855 -0.0458,-3.80593 0.72428,-5.83274 1.75186,-4.61052 0.98775,-8.08992 -2.33268,-10.62255 -1.0214,-0.77905 -1.82476,-1.93925 -2.02012,-2.91637 -0.98743,-4.93714 -4.03227,-7.75473 -8.38089,-7.75473 -1.98276,0 -3.0546,-0.31417 -4.36596,-1.28167 -1.98197,-1.46223 -3.75429,-2.19347 -5.54545,-2.1941 z m -94.320233,0.002 c -1.78684,-0.0352 -3.47644,0.62526 -5.02247,1.98268 -1.32827,1.16625 -2.56152,1.67474 -4.84038,1.99685 -1.68174,0.23771 -3.80596,0.81959 -4.72102,1.29279 -1.7849,0.923 -3.62291,4.21096 -3.64268,6.51657 -0.007,0.83065 -0.70223,1.98666 -1.86838,3.10756 -1.02131,0.98167 -2.21258,2.46416 -2.64729,3.29469 -1.02607,1.96046 -0.6659,5.8943 0.72125,7.87612 0.85411,1.22039 0.99968,2.06466 0.80218,4.65831 -0.37891,4.97679 1.25916,7.56195 5.81656,9.177 0.9767,0.34613 2.45272,1.59641 3.46161,2.93357 0.96718,1.28187 2.56738,2.73897 3.55669,3.23704 2.21992,1.1176 3.42416,1.13375 6.49836,0.09 1.95203,-0.66273 2.68698,-0.69938 3.90163,-0.19625 0.85393,0.35373 2.83145,0.52285 4.6057,0.39452 2.52481,-0.18263 3.39421,-0.49809 4.62492,-1.67719 0.83361,-0.79864 1.78521,-2.10352 2.1152,-2.90019 0.34823,-0.8407 1.28746,-1.71953 2.23862,-2.09396 4.85223,-1.9101 6.84514,-4.85489 6.36887,-9.41169 -0.25594,-2.44874 -0.11728,-3.43312 0.71316,-5.06091 1.2155,-2.38258 1.3471,-6.16467 0.28527,-8.21803 -0.41049,-0.79381 -1.55524,-2.05971 -2.5431,-2.81319 -1.30255,-0.9935 -1.88894,-1.91857 -2.13341,-3.36551 -0.77164,-4.56729 -3.91813,-7.34171 -8.33133,-7.34504 -1.97087,-0.001 -3.04874,-0.31859 -4.35685,-1.28369 -1.93281,-1.42598 -3.81627,-2.15687 -5.60311,-2.19208 z m 187.672393,0.10722 c -2.36514,0 -3.06128,0.25902 -5.22176,1.94223 -1.89955,1.47993 -2.96994,1.94222 -4.49645,1.94222 -4.28128,0 -7.37855,2.43003 -8.11383,6.36584 -0.31068,1.66299 -1.05723,3.09027 -2.38429,4.55917 -2.1065,2.33164 -3.38472,4.91882 -3.38472,6.85038 0,0.67887 0.59306,2.34779 1.31706,3.70944 1.05554,1.98528 1.25129,2.906 0.99033,4.64617 -0.68043,4.5375 2.05422,9.00339 6.05023,9.88106 0.92021,0.20211 2.07294,1.19901 3.20063,2.76868 0.9695,1.34947 2.55354,2.84326 3.51926,3.31898 2.19577,1.08165 3.85823,1.10533 6.71585,0.0971 1.69014,-0.59632 2.61757,-0.66005 3.76811,-0.25897 0.83935,0.2926 2.75436,0.53209 4.25671,0.53209 3.05549,0 4.98556,-1.21441 6.93333,-4.36596 0.66807,-1.08095 2.12992,-2.2527 3.88546,-3.1116 3.53009,-1.72712 5.15972,-4.12086 5.00528,-7.35415 -0.0593,-1.24264 -0.12682,-2.78425 -0.14972,-3.42519 -0.0229,-0.64093 0.48174,-2.49252 1.12083,-4.11508 1.62581,-4.12775 1.17454,-6.12386 -2.11622,-9.36314 -1.46653,-1.44358 -2.54512,-2.97188 -2.54512,-3.60728 0,-0.60643 -0.46612,-2.06617 -1.03585,-3.2431 -1.31403,-2.71441 -4.16426,-4.40238 -7.43508,-4.40238 -1.84376,0 -2.90819,-0.37622 -4.76249,-1.68326 -1.96345,-1.38396 -2.87374,-1.68326 -5.11755,-1.68326 z m -93.68093,2.32258 c 1.26252,-0.0235 2.59211,0.41715 3.9239,1.32213 1.06313,0.72241 1.93312,1.40583 1.93312,1.51837 0,0.11254 -1.04879,3.00785 -2.33067,6.43463 -1.28185,3.42678 -2.33066,6.4589 -2.33066,6.7381 0,1.11103 -1.06359,1.07672 -1.47488,-0.0476 -0.24074,-0.65808 -1.43468,-3.86382 -2.65235,-7.12452 l -2.21332,-5.92884 1.62458,-1.45161 c 1.06267,-0.9495 2.25776,-1.43724 3.52028,-1.46071 z m -94.160393,0.005 c 1.02323,-0.0258 2.08294,0.22088 3.09945,0.74654 2.93812,1.51935 2.94496,1.73177 0.29943,8.93929 -2.073,5.64768 -3.34122,8.43518 -3.34122,7.34403 0,-0.14994 -1.18019,-3.40058 -2.62301,-7.22366 l -2.62302,-6.95154 1.59526,-1.42531 c 1.02245,-0.91356 2.27752,-1.39625 3.59311,-1.42935 z m 187.923253,0.0577 c 1.1164,0.0278 2.22439,0.40828 3.30279,1.14106 2.23827,1.52089 2.20385,2.2036 -0.46734,9.3601 -1.15688,3.09937 -2.30183,5.83323 -2.54411,6.07551 -0.24229,0.24229 -1.08958,-1.36054 -1.88255,-3.56276 -0.79295,-2.20222 -1.89264,-5.14269 -2.44396,-6.53376 -1.37676,-3.47378 -1.27301,-4.31273 0.68079,-5.50398 1.11242,-0.67826 2.23798,-1.00395 3.35438,-0.97617 z m -177.968353,3.10958 c 0.64774,-0.0191 1.4185,0.16788 2.37012,0.53007 2.39052,0.90983 3.90453,2.95259 3.98459,5.37854 0.0632,1.91412 0.0598,1.91675 -6.04719,5.48476 -3.36053,1.9634 -6.44284,3.56984 -6.84938,3.56984 -0.41541,0 -0.42484,-0.51672 0.0587,-2.05349 0.10281,0.0604 -0.49101,1.07807 0,0 0.40402,-0.90467 4.62909,-12.89481 4.53209,-12.54335 -1.01916,2.87207 -6.17676,16.1094 -5.26419,15.28667 0.73816,-2.02784 3.67688,-10.95511 4.12493,-12.21573 0.83795,-2.35765 1.66532,-3.39541 3.09036,-3.43733 z m 188.212573,0.44307 c 0.1774,-0.004 0.35767,-0.002 0.53816,0.007 0.8663,0.0416 1.74328,0.22741 2.3863,0.57154 1.08349,0.57987 2.99756,4.22481 3.01753,5.74574 0.008,0.57219 -2.17002,2.1151 -6.39518,4.53186 -3.52341,2.01537 -6.54322,3.66392 -6.71079,3.66392 -0.24351,0 2.98008,-9.56579 4.58143,-13.59556 0.22861,-0.57528 1.34076,-0.89901 2.58255,-0.92458 z m -112.9757,0.0182 c 1.6249,0 1.84978,0.19258 2.57547,2.20119 0.43741,1.21065 1.62146,4.41532 2.63111,7.12148 1.00964,2.70617 1.83917,4.97857 1.84308,5.04978 0.0364,0.64392 -2.31992,-0.42011 -7.53825,-3.40496 -5.16154,-2.95238 -6.20545,-3.75737 -6.33954,-4.8859 -0.38645,-3.25205 2.79015,-6.08159 6.82813,-6.08159 z m -94.602453,0.008 c 1.99782,0.011 2.45218,0.42749 3.37967,3.09946 0.44495,1.28187 1.52966,4.31174 2.41058,6.73304 0.88095,2.42131 1.6028,4.46065 1.60436,4.53186 0.01,0.49844 -1.7191,-0.11953 -4.14138,-1.48095 -10.60066,-5.95794 -10.67993,-6.04363 -8.97368,-9.6393 0.92913,-1.95799 3.22058,-3.25782 5.72045,-3.24411 z m 114.533513,0.0617 c 1.89283,0.0361 3.11355,0.82945 4.24356,2.6827 1.96362,3.22043 1.51199,4.16197 -3.37867,7.05067 -6.59432,3.89496 -8.56421,4.83284 -8.53465,4.06248 0.0139,-0.36186 1.12095,-3.57186 2.46015,-7.13261 l 2.43486,-6.47408 1.92098,-0.15881 c 0.29954,-0.0249 0.58337,-0.0355 0.85377,-0.0303 z m 75.39266,0.18916 2.50972,6.64908 c 1.38012,3.65674 2.43719,6.97401 2.34989,7.37135 -0.11168,0.50805 -2.1136,-0.3895 -6.7462,-3.0236 -6.57968,-3.74123 -6.5879,-3.74818 -6.60355,-5.67999 -0.0119,-1.41304 0.38543,-2.38214 1.47285,-3.59918 1.31562,-1.47243 1.80897,-1.66871 4.25265,-1.69136 z m -197.420933,9.06371 c 0.8344,0 13.33762,7.28102 13.33762,7.76687 0,0.49309 -0.80587,0.68067 -7.7689,1.80971 -2.70617,0.4388 -5.44989,0.91689 -6.09777,1.06215 -1.7769,0.39844 -3.74283,-1.9636 -3.74283,-4.49746 0,-1.56427 0.4045,-2.44161 1.87344,-4.06754 1.03014,-1.14026 2.10942,-2.07373 2.39844,-2.07373 z m 35.0288,0 c 0.55314,0 1.60938,0.71781 2.34686,1.59424 1.67107,1.98596 1.80053,5.1552 0.31055,7.59895 -0.56447,0.9258 -1.20444,1.6658 -1.42227,1.64381 -3.08534,-0.31137 -14.34445,-2.56565 -14.72752,-2.94874 -0.33936,-0.33935 0.42294,-1.03324 2.24772,-2.0454 1.51858,-0.84232 4.44389,-2.5016 6.50038,-3.68719 2.05649,-1.18559 4.19115,-2.15567 4.74428,-2.15567 z m 152.527253,0 c 0.67683,0 12.09628,6.38695 12.95524,7.24591 0.84179,0.8418 0.11836,1.09655 -5.99055,2.11217 -3.22586,0.53631 -6.50272,1.09041 -7.28232,1.2321 -2.36335,0.42952 -4.55289,-2.73268 -3.83589,-5.5404 0.37874,-1.48308 3.3124,-5.04978 4.15352,-5.04978 z m -58.55702,0.10318 c 0.86073,-0.0171 1.51188,0.4568 2.46622,1.41115 1.76936,1.76935 2.00916,4.27733 0.67775,7.08305 -0.78001,1.64373 -0.99648,1.7581 -3.23704,1.71259 -3.07651,-0.0625 -12.4936,-1.80835 -13.11709,-2.43182 -0.4495,-0.44951 1.70691,-1.86762 9.48453,-6.24041 1.79461,-1.00898 2.86489,-1.51745 3.72563,-1.53456 z m 93.79118,0.2529 c 0.99244,-0.0146 1.57509,0.58658 2.36607,1.69742 1.27809,1.79479 1.33864,4.03703 0.17602,6.47509 -0.72845,1.52756 -1.13538,1.82313 -2.46015,1.78846 -1.81949,-0.0476 -13.10893,-2.2436 -13.48935,-2.62402 -0.13873,-0.13874 2.66639,-1.93999 6.23332,-4.00179 3.94507,-2.28038 5.8981,-3.31639 7.17409,-3.33516 z m -128.55192,0.0455 c 1.2877,0.1133 3.2028,1.16273 6.85241,3.24513 3.94204,2.24925 6.38417,3.93792 6.10182,4.22029 -0.25893,0.2589 -2.8951,0.89658 -5.85804,1.41721 -9.62006,1.6904 -9.12681,1.68065 -10.29681,0.19321 -1.39264,-1.77039 -1.34514,-4.57579 0.1143,-6.70572 1.13822,-1.66112 1.79862,-2.48343 3.08632,-2.37012 z m 114.55274,10.03077 c 1.572,-0.007 10.07895,1.34443 13.01189,2.09396 2.5014,0.63925 2.83071,1.08844 2.8405,3.87838 0.006,1.6932 -0.31034,2.47847 -1.46476,3.62548 -1.5972,1.58693 -4.3424,2.82405 -5.11554,2.30538 -1.30934,-0.87838 -9.97053,-11.72298 -9.49059,-11.88297 0.0395,-0.0131 0.1137,-0.0197 0.2185,-0.0202 z m -195.708333,0.0223 c 1.12016,0.0533 0.0864,1.22937 -4.54399,6.83622 -2.49725,3.02387 -4.82793,5.48861 -5.17927,5.47667 -1.26999,-0.0432 -4.15695,-1.91614 -4.83229,-3.13488 -0.76611,-1.38258 -0.94255,-5.02438 -0.29336,-6.04719 0.38164,-0.60129 7.02197,-2.08566 13.20915,-2.95279 0.57274,-0.0803 1.04302,-0.15487 1.38788,-0.175 0.0934,-0.005 0.1772,-0.007 0.25188,-0.003 z m 8.21094,0.005 c 2.08556,0.0695 9.99288,1.28373 12.91376,2.03529 2.32632,0.59857 3.2359,2.16176 2.75351,4.73316 -0.33456,1.78333 -1.69201,3.38556 -3.77823,4.46003 -2.27168,1.16998 -3.02289,0.67933 -7.89534,-5.15397 -2.63545,-3.15515 -4.6587,-5.86976 -4.49544,-6.03303 0.0196,-0.0197 0.0762,-0.033 0.1659,-0.0394 0.0841,-0.006 0.1968,-0.007 0.33584,-0.002 z m 179.412883,0.0253 c 0.26205,-0.009 0.42172,0.003 0.45724,0.0384 0.44641,0.4464 -0.34127,1.52724 -5.13779,7.04258 -2.49854,2.87297 -4.71267,5.21369 -4.9203,5.20253 -0.94767,-0.0509 -3.5661,-1.4859 -4.32246,-2.36911 -1.12816,-1.31737 -1.59776,-3.51844 -1.20175,-5.62941 0.29451,-1.5699 0.5646,-1.79683 2.73631,-2.29324 3.7441,-0.85583 10.55444,-1.92763 12.38875,-1.99179 z m -92.96877,0.0172 c 0.1181,0.002 0.19154,0.0125 0.21243,0.0334 0.24602,0.24602 -8.25034,10.5372 -9.58163,11.6058 -0.95187,0.76404 -0.92247,0.76578 -3.02866,-0.1568 -2.37997,-1.04249 -3.2775,-2.62097 -3.2775,-5.76698 0,-2.05684 0.21975,-2.83125 0.90637,-3.19658 0.99804,-0.53103 12.99745,-2.54473 14.76899,-2.51882 z m 7.48566,0.006 c 1.77783,-0.0563 13.62991,1.9166 14.7356,2.49657 1.9022,0.99774 1.46278,5.78233 -0.69495,7.57163 -0.42206,0.34998 -1.61516,0.99136 -2.65134,1.4243 l -1.88355,0.78701 -5.00628,-5.97436 c -2.7537,-3.28558 -4.87566,-6.10495 -4.71495,-6.2657 0.0228,-0.0228 0.097,-0.0357 0.21547,-0.0394 z m -5.29256,1.29279 0.14364,7.92165 c 0.11263,6.21836 -0.0107,8.07596 -0.57559,8.64087 -0.39581,0.3958 -1.65421,0.84528 -2.79599,0.99842 -1.85187,0.24839 -2.30481,0.0721 -4.19298,-1.63369 -1.16413,-1.05173 -2.25695,-2.35796 -2.4298,-2.90221 -0.2342,-0.73793 0.97824,-2.51948 4.76857,-7.00718 z m 93.44623,0.41576 c 0.43001,0.0269 0.55738,1.90646 0.55738,7.72641 v 7.99852 l -1.52748,0.79004 c -0.84044,0.4346 -2.08856,0.79004 -2.77273,0.79004 -1.58795,0 -4.361,-1.91255 -5.45946,-3.76508 -0.76099,-1.28355 -0.77007,-1.567 -0.0779,-2.68674 1.2059,-1.95084 8.46677,-10.51112 9.19015,-10.83498 0.0314,-0.0141 0.0614,-0.02 0.09,-0.0182 z m -187.431623,0.0151 c 0.0373,-0.009 0.0669,-0.008 0.088,0.005 0.2265,0.14001 0.41171,3.58408 0.41171,7.65358 0,6.64175 -0.10165,7.49114 -0.99539,8.29997 -0.54762,0.49557 -1.94346,1.02821 -3.10149,1.18354 -1.93135,0.25904 -2.27663,0.11067 -4.18286,-1.79555 -1.14343,-1.14343 -2.07879,-2.5817 -2.07879,-3.19758 0,-1.20181 8.70165,-11.86289 9.85881,-12.14902 z m 190.544243,0.19827 c 0.26553,0 2.28779,2.15587 4.49442,4.79082 2.20665,2.63495 4.34724,5.18993 4.75744,5.67696 0.99023,1.17571 0.43948,3.25669 -1.28571,4.85555 -1.03696,0.96102 -1.90145,1.24315 -3.73373,1.21794 -4.80777,-0.0662 -4.71595,0.10596 -4.71595,-8.75518 0,-4.46712 0.20654,-7.78609 0.48353,-7.78609 z m -93.58078,0.0182 c 0.35607,0.01 2.16234,1.8858 4.01393,4.1687 1.85158,2.28289 3.89092,4.64556 4.53186,5.25108 1.65116,1.55997 1.51547,3.75888 -0.34799,5.62234 -1.25749,1.25747 -1.93977,1.51331 -4.02809,1.51331 -1.43732,0 -3.00791,-0.3453 -3.66594,-0.80622 -1.09923,-0.76989 -1.15117,-1.14375 -1.15117,-8.28682 0,-5.6487 0.15853,-7.4759 0.6474,-7.46239 z m -94.113873,0.14769 c 0.44557,-0.14794 8.4936,9.00813 9.74248,11.08382 0.49703,0.82608 -0.8965,3.48774 -2.36405,4.51567 -1.71751,1.20298 -5.84759,1.06349 -7.15285,-0.24176 -0.96841,-0.96839 -1.03908,-1.60178 -0.90636,-8.11486 0.0874,-4.28762 0.35501,-7.13472 0.68078,-7.24287 z m 92.179743,37.68824 c -1.81781,-0.0104 -3.53444,0.64216 -5.069,1.95739 -1.15695,0.99158 -2.70799,1.61897 -5.0336,2.03731 -1.84875,0.33257 -3.94635,1.03349 -4.66133,1.55682 -1.68593,1.23396 -3.11059,4.06141 -3.1116,6.17465 -5.2e-4,1.19148 -0.35721,1.90455 -1.24222,2.48443 -0.68276,0.44737 -1.84812,1.68854 -2.58963,2.75856 -1.70962,2.46695 -1.84372,6.25069 -0.31055,8.7653 0.75648,1.24075 1.03383,2.60887 1.03383,5.10036 0,5.31489 1.41244,7.51528 5.7336,8.93119 1.23132,0.40347 2.40358,1.39124 3.50713,2.95683 1.03449,1.46766 2.48059,2.72555 3.84803,3.34629 2.67542,1.2145 2.85074,1.22035 5.86713,0.19625 1.93969,-0.65853 2.85991,-0.70976 4.65021,-0.25896 5.19514,1.30815 8.18857,0.35753 10.31705,-3.27447 0.99262,-1.69378 2.0554,-2.62829 4.15151,-3.6538 4.11039,-2.01104 5.17048,-3.7655 5.18027,-8.56602 0.005,-2.55822 0.31424,-4.56862 0.90637,-5.88939 1.78612,-3.98408 0.89497,-7.89525 -2.36506,-10.38179 -1.24306,-0.94813 -1.89346,-2.01414 -2.37619,-3.8976 -1.17343,-4.57851 -3.78798,-6.76339 -8.09563,-6.76339 -1.81399,0 -2.94122,-0.37771 -4.66235,-1.56187 -1.94049,-1.33512 -3.86015,-2.00769 -5.67797,-2.01809 z m -94.087563,0.21344 c -2.48031,0 -3.2281,0.24087 -4.9203,1.5821 -1.36953,1.08548 -3.01332,1.76624 -5.23995,2.17084 -1.78438,0.32422 -3.91399,1.06627 -4.73215,1.64887 -1.548,1.10225 -3.15915,4.37606 -3.15915,6.41945 0,0.67989 -0.78878,1.94193 -1.85624,2.96796 -1.02131,0.98166 -2.21258,2.46416 -2.64729,3.29469 -0.99937,1.90944 -0.68496,5.74939 0.63628,7.76587 0.7135,1.08893 0.97379,2.47002 0.99337,5.25513 0.0311,4.60483 0.93449,6.1082 4.81813,8.01977 1.64457,0.80947 3.2726,2.14364 4.23243,3.46868 1.57858,2.17915 2.78178,3.05842 5.18735,3.78836 1.84768,0.56067 1.63159,0.57468 4.6057,-0.30854 2.07031,-0.61481 3.1375,-0.67536 4.62592,-0.262 4.86999,1.35251 8.12634,0.28779 10.48295,-3.42822 1.07939,-1.70202 2.21814,-2.69478 4.08069,-3.55771 1.72706,-0.80016 3.04682,-1.8979 3.98257,-3.3119 1.25113,-1.89045 1.36986,-2.44892 1.11476,-5.2622 -0.22071,-2.43404 -0.0634,-3.63671 0.69394,-5.3047 1.92903,-4.24858 1.0595,-8.38562 -2.30032,-10.94828 -1.24199,-0.9473 -1.8407,-1.8931 -2.06564,-3.26334 -0.73021,-4.44806 -3.99965,-7.36237 -8.26355,-7.36629 -1.97193,-0.002 -3.0055,-0.3556 -4.9203,-1.68528 -2.0365,-1.41419 -2.89194,-1.68326 -5.3492,-1.68326 z m 187.843343,0 c -2.75784,0 -3.43393,0.20838 -5.21872,1.60638 -1.34528,1.05372 -2.89772,1.71912 -4.51263,1.93312 -4.99807,0.6623 -8.15632,3.49201 -8.15632,7.30862 0,0.90481 -0.7799,2.20215 -2.30336,3.83084 -3.76047,4.02024 -4.24579,6.51855 -2.06159,10.62154 1.07393,2.0173 1.26455,2.90533 0.98224,4.57636 -0.77293,4.57493 1.70654,8.56172 6.0745,9.76776 1.05147,0.29033 2.08743,1.0726 2.62504,1.98269 0.48846,0.82692 1.74263,2.25342 2.78689,3.17028 v 10e-4 c 1.84584,1.62066 1.99361,1.65734 5.3138,1.32313 3.73609,-0.37605 4.82982,-0.39509 9.97918,-0.17398 3.99665,0.17163 5.63168,-0.69329 7.47858,-3.95324 0.74918,-1.32234 1.89307,-2.30662 3.62548,-3.1197 4.53692,-2.12937 6.29062,-5.30055 5.31987,-9.62109 -0.37756,-1.6804 -0.27453,-2.4621 0.53007,-4.03921 2.33686,-4.58065 1.8091,-7.63406 -1.96448,-11.37011 -1.17206,-1.16041 -2.13665,-2.53614 -2.14252,-3.05697 -0.0207,-1.7248 -1.9514,-5.25345 -3.38978,-6.1959 -0.77892,-0.51036 -2.86825,-1.07883 -4.64313,-1.26244 -2.42949,-0.25147 -3.71227,-0.70354 -5.19039,-1.83095 -1.67072,-1.27433 -2.43626,-1.49815 -5.13273,-1.49815 z m -0.0738,2.45408 c 0.13586,0.004 0.26987,0.0137 0.40261,0.0313 2.1167,0.28223 4.53108,1.80306 4.55613,2.86984 0.009,0.38169 -0.97433,3.4682 -2.185,6.85847 -1.21064,3.3903 -2.31764,6.16304 -2.46015,6.1615 -0.37948,-0.004 -4.68218,-12.00702 -4.67044,-13.02908 0.0166,-1.4721 2.31905,-2.9468 4.35685,-2.89209 z m -93.43207,0.0253 c 1.24524,-0.001 2.52113,0.52483 3.83691,1.57806 l 1.50522,1.20478 -2.21333,5.91468 c -2.72415,7.27929 -2.95913,7.7504 -3.33111,6.69156 -0.15012,-0.42729 -1.21415,-3.28473 -2.36507,-6.34965 -1.1509,-3.06489 -2.09085,-5.86069 -2.0889,-6.2141 0.002,-0.3534 0.81231,-1.19466 1.80161,-1.86838 0.93585,-0.6373 1.88615,-0.95634 2.85467,-0.95695 z m -94.181643,0.0142 c 0.8117,-0.0164 1.62486,0.15657 2.35494,0.53411 3.05371,1.57912 3.07211,1.8182 0.6555,8.49116 -1.21338,3.35017 -2.36737,6.27584 -2.56539,6.50129 -0.19804,0.22543 -1.45869,-2.5433 -2.80105,-6.15239 l -2.44093,-6.56209 1.14712,-1.22097 c 0.94942,-1.0106 2.29694,-1.5639 3.64976,-1.5912 z m 10.22701,2.94469 c 2.39078,0 4.53964,1.53105 5.55254,3.95526 1.3369,3.19968 1.14656,3.46032 -5.26626,7.18419 -8.75803,5.08574 -8.45388,5.21944 -5.71236,-2.50869 3.09139,-8.71457 3.03788,-8.63076 5.42608,-8.63076 z m 94.257523,0.50579 c 1.74195,0.0888 3.97959,1.32502 4.62087,2.96593 1.29932,3.32478 1.11401,3.75691 -2.49252,5.82768 -1.85157,1.06316 -4.59013,2.66289 -6.08563,3.55467 -1.49553,0.89179 -2.71911,1.38395 -2.71911,1.09351 0,-0.79281 4.22657,-12.0362 4.80498,-12.78225 0.39046,-0.50363 1.07961,-0.69992 1.87141,-0.65954 z m 73.80348,0.0121 c 2.19425,0 2.37032,0.10509 2.83139,1.68326 0.27047,0.92579 1.32954,3.89739 2.35292,6.60356 1.0234,2.70616 1.86176,5.21163 1.86333,5.5677 0.005,1.15687 -0.75973,0.8163 -8.67324,-3.86826 -4.65872,-2.75784 -4.79043,-2.88739 -4.77868,-4.72708 0.02,-3.29334 2.41335,-5.25918 6.40428,-5.25918 z m -92.71689,0.0172 c 1.20197,-0.0147 1.37311,0.27914 1.77228,1.34944 0.30411,0.8154 1.36522,3.69608 2.35798,6.40225 0.99275,2.70615 1.96579,5.32817 2.16274,5.82667 0.62412,1.5797 -0.80665,1.04259 -7.45024,-2.80004 l -6.40125,-3.70337 0.27717,-2.0707 c 0.4105,-3.0605 2.21519,-4.61602 5.6891,-4.9041 0.67652,-0.0561 1.19156,-0.0953 1.59222,-0.10015 z m -95.516923,0.0566 c 0.22817,0.003 0.46238,0.0131 0.70305,0.0314 1.993,0.15137 2.05785,0.21993 3.27952,3.52028 1.81378,4.89997 3.81162,10.51375 3.81162,10.70852 0,0.62037 -2.09732,-0.35643 -7.69202,-3.58097 l -6.39725,-3.68728 0.2883,-1.7743 c 0.56857,-3.50363 2.58416,-5.25368 6.00673,-5.2177 z m 208.203303,0.0101 c 1.04599,-0.005 1.92885,0.29795 2.73834,0.9347 1.41182,1.11053 2.75167,4.23272 2.31043,5.38259 -0.13947,0.36342 -2.3169,1.84003 -4.83836,3.28154 -6.743,3.85488 -6.91972,3.93551 -6.88781,3.15409 0.0149,-0.3661 1.00696,-3.34588 2.20422,-6.62177 l 2.17691,-5.95615 1.83702,-0.15477 c 0.15634,-0.0132 0.30983,-0.0196 0.45925,-0.0203 z m -86.52403,8.87758 c 0.5229,0.0117 1.43206,0.59447 2.38732,1.54972 2.0965,2.09651 2.38137,4.32116 0.94178,7.34 -0.76606,1.60644 -1.09864,1.82527 -2.71912,1.78846 -2.70014,-0.0612 -13.12127,-1.96259 -13.64918,-2.49049 -0.38038,-0.38039 10.36682,-7.20834 12.83992,-8.15734 0.058,-0.0222 0.12458,-0.032 0.19928,-0.0303 z m -93.973313,0.24876 c 1.08859,-0.0727 1.75046,0.60987 2.83747,1.99178 1.33168,1.69286 1.41728,4.89235 0.18714,6.97482 -0.72857,1.23337 -1.21817,1.49418 -2.71911,1.44857 -2.79289,-0.0849 -13.16298,-2.00683 -13.6947,-2.53804 -0.28065,-0.28035 0.20227,-0.84183 1.19973,-1.39698 0.91788,-0.51086 3.97344,-2.28332 6.7907,-3.93807 2.79431,-1.64126 4.31019,-2.46934 5.39877,-2.54208 z m 187.773553,0.0293 1.5558,1.55579 c 1.25254,1.25254 1.55479,1.99472 1.55479,3.81061 0,1.2404 -0.36279,2.77288 -0.80622,3.40598 -0.45814,0.65408 -1.29674,1.1213 -1.94222,1.08137 -2.27216,-0.14059 -12.78921,-2.17424 -12.7853,-2.47229 0.002,-0.16848 1.57511,-1.17645 3.496,-2.24065 1.92091,-1.06418 4.71456,-2.65696 6.20905,-3.53848 z m -34.7921,0.083 c 0.41131,0 3.65912,1.66549 7.21657,3.70033 4.85723,2.77832 6.27009,3.81023 5.67291,4.14444 -0.43738,0.24476 -3.51818,0.91096 -6.84634,1.47993 -8.3885,1.4341 -8.76148,1.40606 -9.77383,-0.72732 -0.9868,-2.07951 -1.04244,-3.08396 -0.25492,-4.61684 0.88453,-1.72165 3.14584,-3.98054 3.98561,-3.98054 z m -93.68901,0.009 c 1.10942,0.0117 13.14904,6.8515 13.20307,7.50083 0.0238,0.28488 -1.93858,0.9218 -4.35989,1.41519 -2.42131,0.49339 -5.95316,1.04917 -7.84881,1.23513 l -3.44643,0.33787 -0.82646,-1.59728 c -1.4143,-2.73498 -0.98218,-5.11894 1.40104,-7.73552 0.58379,-0.64093 1.42862,-1.16014 1.87748,-1.15622 z m -94.379913,0.20029 c 0.86798,-0.0295 3.12199,0.99306 6.81599,3.09035 5.89888,3.34913 7.19895,4.25004 6.76137,4.68765 -0.12928,0.12927 -3.05321,0.71528 -6.49735,1.3029 -8.54714,1.4583 -9.30328,1.4249 -10.2776,-0.45925 -0.4346,-0.84042 -0.79004,-2.16856 -0.79004,-2.95076 0,-1.77959 2.38098,-5.29052 3.83185,-5.65066 0.0456,-0.0113 0.0979,-0.0183 0.15578,-0.0202 z m 210.002893,10.15217 c 2.3651,0.005 13.56493,2.0967 14.24297,2.65943 0.37937,0.31485 0.6899,1.56112 0.6899,2.76969 0,2.61638 -1.43911,4.71509 -3.95425,5.76598 -0.94003,0.39275 -1.92809,0.71417 -2.19511,0.71417 -0.48545,0 -9.49325,-10.46938 -9.81936,-11.41258 -0.095,-0.27462 0.37118,-0.49823 1.03585,-0.49669 z m -197.090143,0.0415 c 0.18913,0.002 0.34351,0.0128 0.45723,0.0354 0.69815,0.13839 -0.16845,1.46549 -3.82476,5.856 -2.60001,3.12207 -5.01989,5.83998 -5.37753,6.04012 -0.96472,0.5399 -3.68201,-0.77554 -4.96177,-2.40249 -1.27035,-1.615 -1.53067,-5.22405 -0.47443,-6.58232 0.62313,-0.80128 11.34434,-2.97528 14.18126,-2.94671 z m 102.688983,0.0172 c 1.89403,-0.11446 14.11178,1.94687 14.85093,2.5603 1.88675,1.56587 1.12917,5.9841 -1.32617,7.73247 -0.8101,0.57684 -2.13907,1.18172 -2.95279,1.34439 -1.36907,0.27381 -1.84028,-0.13518 -6.30616,-5.48173 -2.65435,-3.17777 -4.67941,-5.92391 -4.50049,-6.10282 0.028,-0.028 0.10841,-0.045 0.23468,-0.0526 z m 85.56607,0.004 c 0.12532,0.006 0.20445,0.0224 0.23064,0.0485 0.17886,0.17884 -1.83167,2.90621 -4.46712,6.06135 -3.31393,3.96746 -5.125,5.73544 -5.8732,5.72956 -3.15401,-0.0223 -5.72586,-3.38351 -5.29357,-6.91816 0.13488,-1.1027 0.44287,-2.20301 0.68484,-2.44497 0.54532,-0.54532 12.83866,-2.57062 14.71841,-2.47634 z m -179.288463,0.005 c 1.78494,0.007 10.09904,1.29531 13.06853,2.05248 1.52575,0.38906 1.96974,0.79215 2.24165,2.03023 0.71111,3.23766 -0.8345,5.98838 -4.04933,7.20647 -0.80192,0.30382 -1.74123,0.55231 -2.08789,0.55231 -0.34668,0 -2.80649,-2.622 -5.46554,-5.82667 -3.59876,-4.33721 -4.61416,-5.87061 -3.97346,-5.99863 0.0574,-0.0115 0.14704,-0.0167 0.26604,-0.0162 z m 85.491213,0 c 0.11803,-4.1e-4 0.20788,0.005 0.26402,0.0162 0.60309,0.12465 -0.49483,1.7664 -3.99066,5.96829 -2.65236,3.18807 -5.06764,5.9026 -5.36742,6.03101 -0.86548,0.37095 -4.03051,-1.14271 -5.01134,-2.39642 -0.60562,-0.77412 -0.89854,-2.09993 -0.90637,-4.10193 l -0.0121,-2.95785 1.94222,-0.49567 c 2.97546,-0.75956 11.31123,-2.05745 13.08168,-2.06361 z m -91.106453,1.48299 c 0.25638,0 0.46532,3.49045 0.46532,7.75676 0,7.47563 -0.0423,7.78497 -1.16533,8.51139 -1.82409,1.17983 -3.6152,1.38614 -5.35224,0.61706 -1.87624,-0.83073 -3.84095,-3.1478 -3.84095,-4.53085 0,-1.01581 9.07977,-12.35436 9.8932,-12.35436 z m 187.471083,0.087 c 0.28632,-0.10218 0.48353,3.11345 0.48353,7.88017 0,7.43148 -0.077,8.09348 -1.00146,8.58827 -0.55098,0.29488 -2.02188,0.53613 -3.2684,0.53613 -1.84108,0 -2.57787,-0.30461 -3.92592,-1.62256 -2.93903,-2.87346 -2.81035,-3.37252 2.48342,-9.61502 2.60964,-3.07736 4.9628,-5.67205 5.22883,-5.76699 z m 3.02663,0.25188 c 1.1075,0.32928 9.88713,11.11792 9.88713,12.21376 0,0.55943 -0.79162,1.81027 -1.76014,2.77879 -1.41893,1.41892 -2.14824,1.75256 -3.75497,1.71968 -1.09669,-0.0225 -2.63574,-0.27531 -3.41912,-0.56143 l -1.42429,-0.51994 v -7.69505 c 0,-4.23233 0.1748,-7.80325 0.38844,-7.9348 0.0192,-0.0118 0.0472,-0.0116 0.083,-0.001 z m -96.76825,0.0435 c 0.43582,0.0132 0.4805,1.54404 0.4805,7.60907 v 8.11789 l -1.79554,0.74957 v 0.001 c -2.14879,0.89729 -2.1751,0.89753 -4.22333,0.006 -1.47264,-0.64093 -4.33965,-3.72273 -4.33965,-4.66437 0,-0.47111 8.30931,-10.62666 9.50981,-11.62299 0.14643,-0.12153 0.26764,-0.1993 0.36821,-0.19625 z m 3.01854,0.0334 c 0.45351,0.0665 2.60527,2.23742 4.99617,5.05787 5.37591,6.34171 5.82473,7.6626 3.41608,10.07124 -1.24488,1.24488 -1.98525,1.54549 -3.78834,1.53962 -1.23257,-0.004 -2.82432,-0.30271 -3.53646,-0.66258 -1.27972,-0.64673 -1.29596,-0.74046 -1.43847,-8.10879 -0.0793,-4.10011 0.048,-7.64699 0.28325,-7.88219 0.0147,-0.0147 0.0376,-0.0196 0.0678,-0.0152 z m -93.894363,0.25492 c 0.51841,-0.17203 5.9542,5.90278 8.95648,10.00953 1.12182,1.5345 1.14035,1.69687 0.36012,3.20568 -0.45203,0.87411 -1.34189,1.95286 -1.97661,2.39744 -1.25072,0.87602 -4.6306,1.02239 -6.47509,0.2802 -0.63242,-0.25448 -1.28244,-0.99662 -1.44452,-1.64988 -0.52622,-2.12111 -0.0414,-14.03686 0.57962,-14.24297 z m 92.318333,38.667431 c -2.19343,-0.0645 -4.23589,0.79568 -5.83375,2.56131 -0.59534,0.65784 -1.62018,1.08994 -2.58862,1.09148 -2.4771,0.005 -5.61879,1.01613 -6.97886,2.24773 -1.43022,1.29509 -2.65234,3.91225 -2.65234,5.67998 0,0.67717 -0.5003,1.67574 -1.11173,2.21839 -0.61141,0.54266 -1.77677,1.89543 -2.58963,3.0064 -1.74205,2.38085 -1.99325,5.85013 -0.60391,8.33841 0.52236,0.93553 0.99393,3.35349 1.18557,6.07653 0.28654,4.07269 0.46829,4.67869 1.8269,6.09676 0.82975,0.86608 2.4103,1.84576 3.51219,2.1759 1.43948,0.43128 2.44478,1.24068 3.56985,2.8759 0.86122,1.25176 2.30028,2.72328 3.19758,3.27043 1.8873,1.1508 5.51332,1.28478 7.84578,0.2893 1.26921,-0.54176 1.97263,-0.53749 3.83791,0.0233 4.71085,1.41626 7.69479,0.36543 10.43743,-3.67303 0.75233,-1.10778 2.27633,-2.47147 3.38675,-3.03068 4.5735,-2.30319 6.17295,-4.88348 5.68707,-9.17801 -0.26385,-2.33221 -0.1192,-3.40019 0.7081,-5.22378 1.92311,-4.23899 1.24884,-7.53856 -2.17589,-10.65187 -1.20843,-1.09856 -1.99224,-2.43157 -2.41362,-4.10497 -0.41762,-1.65853 -1.27959,-3.13382 -2.6048,-4.45903 -1.81654,-1.81645 -2.21618,-1.98066 -4.83735,-1.98066 -2.40734,0 -3.28216,-0.28559 -5.55152,-1.81274 -1.75029,-1.17786 -3.54711,-1.78688 -5.25311,-1.83702 z m -94.329333,0.0212 c -2.19428,-0.022 -4.21377,0.82377 -5.76699,2.54007 -0.59532,0.65784 -1.62019,1.08994 -2.58862,1.09148 -4.98839,0.009 -8.77255,2.81319 -9.39449,6.96065 -0.29118,1.94166 -0.82591,2.94817 -2.39844,4.52073 -3.37521,3.37519 -3.96087,6.89566 -1.75205,10.52745 1.00009,1.64436 1.19969,2.5175 0.96808,4.23345 -0.64585,4.78483 1.31069,8.44209 5.12767,9.58568 1.48164,0.44392 2.54878,1.25287 3.60222,2.72923 0.82325,1.15376 2.24036,2.6214 3.15004,3.26233 v 0.001 c 1.9092,1.34521 6.06276,1.57262 8.10069,0.44307 1.02995,-0.57159 1.63039,-0.56892 3.57793,0.0172 1.2873,0.38741 3.01221,0.70406 3.83286,0.70406 2.35542,0 5.21263,-1.77977 6.62986,-4.13026 0.89949,-1.49184 2.20565,-2.63495 4.27693,-3.74384 4.16065,-2.22746 5.28111,-4.16071 4.88287,-8.42541 -0.24555,-2.62945 -0.10907,-3.64411 0.70608,-5.24299 0.62927,-1.23427 1.01057,-3.0288 1.01057,-4.75339 0,-2.59302 -0.15942,-2.94118 -2.49556,-5.45744 -1.55162,-1.67127 -2.74562,-3.55625 -3.15611,-4.98201 -1.3199,-4.58442 -3.37866,-6.25254 -7.71832,-6.25254 -1.6926,0 -2.95995,-0.32192 -3.78126,-0.96201 -2.25124,-1.75447 -4.61969,-2.64449 -6.81396,-2.66651 z m 94.258523,2.20625 c 1.10133,0.0366 2.27197,0.40984 3.48689,1.12183 1.29551,0.75921 2.35495,1.60711 2.35495,1.88457 0,0.27747 -1.08777,3.4729 -2.41766,7.10024 -1.32991,3.62734 -2.60315,6.80783 -2.82938,7.06787 -0.43435,0.49924 -0.5264,0.29633 -3.39383,-7.46542 -2.49887,-6.76402 -2.50528,-6.81642 -1.05103,-8.18263 1.13276,-1.06417 2.43406,-1.57351 3.85006,-1.52646 z m -94.364733,0.0273 c 1.57408,-0.0631 3.2232,0.46484 4.63806,1.59728 l 1.54164,1.23412 -0.86389,2.51882 c -0.47495,1.38531 -1.59021,4.49988 -2.47836,6.92119 -0.88816,2.42131 -1.80685,4.59647 -2.04135,4.8333 -0.39218,0.39609 -1.61345,-2.44816 -4.6937,-10.92702 -1.11616,-3.07237 -1.13187,-3.29769 -0.29235,-4.22536 1.11676,-1.23399 2.61587,-1.88918 4.18995,-1.95233 z m 85.268653,3.43025 c 0.51659,0.012 0.99045,0.13307 1.38889,0.3844 0.8304,0.52379 5.82435,13.93776 5.36134,14.40078 -0.45169,0.45169 -0.65309,0.35341 -7.22061,-3.49904 -6.12145,-3.59079 -6.3446,-3.78269 -6.3446,-5.46554 0,-2.78298 4.02539,-5.88531 6.81498,-5.8206 z m 19.55171,0.0364 c 2.6504,0 4.91554,1.85797 5.61222,4.60266 0.28345,1.11667 0.37059,2.26254 0.19422,2.54715 -0.17633,0.28458 -2.06868,1.5421 -4.20511,2.79397 -7.93413,4.64908 -8.74495,5.07344 -8.96054,4.69067 -0.20994,-0.37275 2.96845,-9.39113 4.56423,-12.95119 0.66632,-1.48652 0.99311,-1.68326 2.79498,-1.68326 z m -94.148263,0.0192 c 1.15218,-0.018 2.40668,0.15959 3.11969,0.54119 1.14276,0.61159 2.99991,4.25661 3.01753,5.92378 0.009,0.79701 -1.52277,1.93723 -6.43361,4.79082 -3.54462,2.0597 -6.57449,3.74485 -6.73304,3.74485 -0.15852,0 -0.2883,-0.32466 -0.2883,-0.72126 0,-0.96352 4.18157,-12.82847 4.81105,-13.65119 0.30409,-0.39746 1.35449,-0.61023 2.50668,-0.62819 z m -19.49304,0.0395 c 0.48854,0.005 0.90544,0.0931 1.19569,0.27616 0.62914,0.39685 4.17235,9.07989 5.51712,13.51969 0.24413,0.806 0.14316,1.15003 -0.32876,1.11577 -0.83423,-0.0604 -11.76536,-6.40907 -12.7772,-7.42091 -1.12723,-1.12724 -0.3273,-4.13782 1.51028,-5.68404 1.30315,-1.09648 3.41728,-1.82191 4.88287,-1.80667 z m 86.171993,9.16689 3.27042,1.87243 c 1.79886,1.03008 4.84267,2.74145 6.76339,3.80352 1.92074,1.06209 3.4196,2.15377 3.33112,2.42575 -0.0886,0.27198 -3.17576,1.02277 -6.85949,1.66809 -8.71878,1.52735 -8.83676,1.5236 -9.79204,-0.32371 -1.40762,-2.72202 -1.03438,-4.90499 1.24828,-7.30458 z m -59.142723,0.0971 c 0.26812,0 1.23082,0.7271 2.13948,1.61548 1.93407,1.89091 2.20276,4.44729 0.77992,7.43103 -1.06492,2.23316 -1.80775,2.26828 -10.5224,0.50275 -3.27588,-0.66365 -6.02789,-1.21845 -6.11598,-1.23412 -0.94694,-0.165 12.49978,-8.31514 13.71898,-8.31514 z m 94.050143,0.1487 c 0.63149,-0.002 1.39412,0.54022 2.42171,1.71058 1.49674,1.70456 1.66795,2.20059 1.44554,4.17375 -0.1388,1.23159 -0.63634,2.82527 -1.10565,3.54152 -0.63331,0.96655 -1.28342,1.29178 -2.52388,1.26144 -0.91921,-0.0225 -1.94725,-0.1531 -2.28413,-0.29032 -0.33687,-0.13729 -2.99954,-0.6481 -5.9167,-1.13499 -2.91718,-0.4869 -5.3769,-1.1138 -5.46655,-1.39294 -0.16448,-0.51222 11.33761,-7.35634 13.16665,-7.83464 0.0853,-0.0223 0.1728,-0.0341 0.26301,-0.0344 z m -128.987903,0.39958 c 1.25094,0.0828 3.11502,1.12785 6.77047,3.21276 3.61569,2.0622 6.50105,3.97148 6.41237,4.24355 -0.0888,0.27208 -2.94272,1.01461 -6.34156,1.64988 -8.44461,1.57837 -9.1229,1.5595 -10.21083,-0.28223 -1.21141,-2.05073 -1.11593,-4.22577 0.27616,-6.26468 1.20393,-1.76331 1.84246,-2.64207 3.09339,-2.55928 z m 21.18945,9.95389 c 1.01046,-0.0243 3.6533,0.43768 9.51184,1.58716 l 5.69718,1.11779 0.48151,1.9493 c 0.66967,2.71095 -0.57073,5.18915 -3.29166,6.57726 -1.13783,0.58048 -2.36888,1.04665 -2.73631,1.03687 -0.62116,-0.0169 -9.76475,-10.7554 -10.17745,-11.95277 -0.0666,-0.19327 0.0556,-0.30454 0.51489,-0.31561 z m 94.028903,0.0354 c 0.82923,0.0272 4.0192,0.53814 7.71326,1.24525 l 7.67582,1.46981 0.44105,1.7035 c 0.69836,2.69507 -0.34602,5.02344 -2.93357,6.53983 -1.21319,0.71099 -2.53536,1.28754 -2.93761,1.28167 -0.40227,-0.006 -2.71243,-2.35782 -5.13374,-5.22681 -4.62647,-5.48191 -5.42887,-6.59673 -5.03158,-6.99403 0.0167,-0.0167 0.0879,-0.0231 0.20637,-0.0192 z m -7.72742,0.20434 c 0.12636,0.007 0.20803,0.0237 0.23772,0.0526 0.20568,0.20014 -1.78217,2.92304 -4.41755,6.05023 -5.53231,6.56476 -6.40491,6.97043 -9.37123,4.36595 -1.69788,-1.49072 -1.86433,-1.88031 -1.86433,-4.36798 0,-1.55695 0.27838,-2.95987 0.64741,-3.26232 0.81375,-0.66693 12.87249,-2.93794 14.76798,-2.83848 z m -94.251443,0.0101 c 0.12675,0.007 0.20854,0.0252 0.23873,0.0546 0.2123,0.20673 -1.73666,2.92866 -4.33055,6.04921 -3.01667,3.62918 -5.11489,5.71307 -5.82363,5.78217 -3.03312,0.29589 -5.51106,-2.43304 -5.51106,-6.07047 0,-1.35099 0.29133,-2.69533 0.64741,-2.98717 0.82648,-0.67737 12.87788,-2.93633 14.7791,-2.82837 z m 5.69111,1.54164 c 0.0795,-0.0109 0.16326,0.0387 0.25087,0.15173 0.24818,0.32002 8.1174,9.82237 9.09102,10.97761 1.04587,1.24099 -0.0579,3.82179 -2.19107,5.12262 -2.20745,1.34608 -5.35942,1.14703 -7.16296,-0.45218 -0.77706,-0.68899 -0.90414,-1.7716 -0.89826,-7.58579 0.006,-5.09174 0.35404,-8.1376 0.9104,-8.21399 z m 90.883923,0.16893 c 0.21362,-0.0176 0.38844,3.58628 0.38844,8.00864 v 8.041 l -1.3282,0.50478 c -2.90356,1.10394 -4.91582,0.64372 -7.06686,-1.61751 -1.11079,-1.16768 -1.94801,-2.46352 -1.8613,-2.87894 0.18374,-0.88065 9.29209,-12.0106 9.86792,-12.05797 z m -93.913573,0.084 c 0.42707,0.08 0.55737,1.96242 0.55737,7.58074 0,7.45528 -0.0485,7.81593 -1.15117,8.58827 -0.63308,0.44346 -2.17113,0.80622 -3.41811,0.80622 -1.88783,0 -2.56181,-0.29386 -4.02809,-1.76013 -1.0396,-1.03961 -1.76115,-2.27913 -1.76115,-3.02461 0,-0.83412 1.53824,-3.0802 4.53185,-6.61772 2.49253,-2.94538 4.82319,-5.44918 5.17927,-5.56467 0.0312,-0.0101 0.0616,-0.0134 0.09,-0.008 z m 96.863323,0.26604 c 0.80268,0.0725 7.50374,7.45272 9.48958,10.49408 0.78291,1.19786 0.7827,1.42663 -0.002,3.04585 -0.51256,1.0577 -1.52047,2.03118 -2.54715,2.46015 l -0.001,-0.001 c -2.02697,0.84698 -2.95435,0.85285 -5.3573,0.0334 l -1.81274,-0.61808 -0.14465,-7.46946 c -0.0794,-4.10808 0.0625,-7.67563 0.3156,-7.92872 0.0133,-0.0133 0.0338,-0.0185 0.0597,-0.0162 z" />
    </g>
    <path
       style="fill:#ff0000;fill-opacity:1;stroke:#ffccaa;stroke-width:0.53993249;stroke-linecap:butt;stroke-linejoin:miter;stroke-miterlimit:4;stroke-dasharray:none;stroke-opacity:1"
       d="m 151.5163,118.76421 c -3.47289,-1.18907 -8.80307,-3.89412 -18.77001,-9.52573 -26.47664,-14.960066 -30.6627,-18.476994 -29.48646,-24.773115 0.46068,-2.465898 3.06168,-8.140842 4.83571,-10.550686 3.95827,-5.376934 11.6358,-8.894671 19.41278,-8.894671 4.03477,0 5.96572,0.468258 7.64751,1.854531 2.29169,1.889005 2.22912,1.731401 16.31316,41.093691 1.95071,5.45188 3.58489,10.26672 3.63151,10.69965 0.11915,1.10659 -0.57875,1.12535 -3.5842,0.0963 z"
       id="path1784"
       inkscape:connector-curvature="0"
       transform="matrix(0.26458333,0,0,0.26458333,67.232141,155.41071)" />
    <path
       style="fill:#ff0000;fill-opacity:1;stroke:#ff0000;stroke-width:0.53993249;stroke-linecap:butt;stroke-linejoin:miter;stroke-miterlimit:4;stroke-dasharray:none;stroke-opacity:1"
       d="m 150.50979,117.92447 c -3.63403,-1.43421 -11.36428,-5.52864 -22.64596,-11.99475 -11.63962,-6.671257 -18.28152,-11.008666 -21.1385,-13.804213 -4.07544,-3.987824 -4.17319,-6.374196 -0.56898,-13.891214 2.33508,-4.870087 5.19076,-7.82225 9.62881,-9.954141 4.41308,-2.11989 6.89139,-2.681092 11.9001,-2.694718 3.69946,-0.01006 4.48113,0.09227 5.71428,0.748129 2.71192,1.442337 3.29478,2.42697 6.56444,11.089406 3.97766,10.538121 14.68556,40.594751 14.68556,41.221731 0,0.56254 -1.59065,0.2858 -4.13975,-0.72023 z"
       id="path1786"
       inkscape:connector-curvature="0"
       transform="matrix(0.26458333,0,0,0.26458333,67.232141,155.41071)" />
    <path
       style="fill:#ff0000;fill-opacity:1;stroke:#ff0000;stroke-width:0.53993249;stroke-linecap:butt;stroke-linejoin:miter;stroke-miterlimit:4;stroke-dasharray:none;stroke-opacity:1"
       d="m 150.15895,117.92693 c -6.79498,-2.68182 -33.16554,-17.73044 -40.18528,-22.932153 -2.75056,-2.038189 -5.54228,-4.919831 -6.04351,-6.238163 -0.73551,-1.934556 -0.41165,-4.704124 0.93002,-7.953251 3.21821,-7.793511 7.22435,-11.692409 14.61079,-14.219657 2.55798,-0.875205 3.38067,-0.980202 7.85714,-1.002773 4.8447,-0.02443 5.0524,0.0056 6.68694,0.966424 2.66183,1.564706 3.0121,2.313005 9.75801,20.846329 5.75619,15.814214 10.87648,30.423924 10.87648,31.033814 0,0.80357 -1.65314,0.61929 -4.49059,-0.50057 z"
       id="path1788"
       inkscape:connector-curvature="0"
       transform="matrix(0.26458333,0,0,0.26458333,67.232141,155.41071)" />
    <path
       style="fill:#ff0000;fill-opacity:1;stroke:#ff0000;stroke-width:0.53993249;stroke-linecap:butt;stroke-linejoin:miter;stroke-miterlimit:4;stroke-dasharray:none;stroke-opacity:1"
       d="m 151.54434,118.5645 c -6.52989,-2.06935 -37.16765,-19.6117 -43.26426,-24.771934 -4.30466,-3.643515 -5.40489,-5.849949 -4.69816,-9.421789 0.53188,-2.688119 3.87041,-9.459372 5.70067,-11.562174 2.74662,-3.155617 8.45787,-6.256461 13.10598,-7.115712 1.10965,-0.20513 3.89286,-0.31991 6.1849,-0.255066 3.85114,0.108951 4.28025,0.192695 5.65523,1.103651 1.83735,1.217295 2.75444,2.654418 4.61285,7.228532 3.58363,8.820452 15.80799,43.352522 15.80799,44.655312 0,1.0439 -0.21932,1.05373 -3.1052,0.13918 z"
       id="path1790"
       inkscape:connector-curvature="0"
       transform="matrix(0.26458333,0,0,0.26458333,67.232141,155.41071)" />
    <path
       style="fill:#ff0000;fill-opacity:1;stroke:#ff0000;stroke-width:0.53993249;stroke-linecap:butt;stroke-linejoin:miter;stroke-miterlimit:4;stroke-dasharray:none;stroke-opacity:1"
       d="m 151.25668,118.62298 c -5.85567,-2.11887 -29.11031,-15.09541 -39.15326,-21.848271 -5.96213,-4.008924 -8.88245,-7.419653 -8.88245,-10.374067 0,-1.851924 0.93033,-4.709181 2.77527,-8.523492 2.81818,-5.826417 7.50144,-9.718985 14.13735,-11.750476 1.96426,-0.601331 3.38957,-0.749524 7.20889,-0.749524 2.61831,0 5.15496,0.149949 5.63699,0.333219 1.53411,0.583267 3.47245,2.577013 4.50701,4.635837 2.1996,4.377327 16.98376,45.368204 17.23826,47.795184 0.0866,0.82609 -0.0412,0.99726 -0.78948,1.05675 -0.49108,0.0391 -1.69643,-0.21977 -2.67858,-0.57516 z"
       id="path1792"
       inkscape:connector-curvature="0"
       transform="matrix(0.26458333,0,0,0.26458333,67.232141,155.41071)" />
    <path
       style="fill:#ff0000;fill-opacity:1;stroke:#ff0000;stroke-width:0.53993249;stroke-linecap:butt;stroke-linejoin:miter;stroke-miterlimit:4;stroke-dasharray:none;stroke-opacity:1"
       d="m 150.78421,118.596 c -3.69904,-1.33085 -17.93884,-9.00865 -29.34895,-15.82435 -10.50727,-6.276389 -15.98449,-10.505631 -17.53669,-13.540986 -1.38333,-2.705126 -0.72027,-6.070024 2.3783,-12.069439 2.80281,-5.426753 7.07812,-8.969847 13.1941,-10.934397 2.50648,-0.805122 3.47951,-0.919061 7.92816,-0.928361 4.80705,-0.01005 5.15228,0.03702 6.63221,0.904317 2.93173,1.71811 3.89945,3.81795 11.79921,25.602938 6.03266,16.636138 9.28615,26.341038 9.04302,26.974618 -0.27281,0.71092 -1.79125,0.64247 -4.08936,-0.18434 z"
       id="path1794"
       inkscape:connector-curvature="0"
       transform="matrix(0.26458333,0,0,0.26458333,67.232141,155.41071)" />
    <path
       style="fill:#ff0000;fill-opacity:1;stroke:#ff0000;stroke-width:0.53993249;stroke-linecap:butt;stroke-linejoin:miter;stroke-miterlimit:4;stroke-dasharray:none;stroke-opacity:1"
       d="m 151.15803,118.90373 c -1.61114,-0.46482 -11.47347,-5.53709 -19.00849,-9.7762 C 114.19,99.023692 105.7244,93.113963 103.7551,89.305722 c -1.38105,-2.670681 -0.40106,-7.230377 2.77438,-12.908597 2.62016,-4.685287 6.56829,-7.961653 12.04863,-9.998588 2.86551,-1.065051 3.32608,-1.130323 8.21429,-1.164136 5.94598,-0.04113 6.65985,0.09763 8.41062,1.634822 2.18585,1.919203 3.61925,5.23708 10.71519,24.802348 5.46406,15.065749 9.08767,25.763609 9.08813,26.830579 3e-4,0.69626 -0.17851,0.79927 -1.33894,0.77136 -0.73661,-0.0177 -1.86583,-0.18412 -2.50937,-0.36978 z"
       id="path1796"
       inkscape:connector-curvature="0"
       transform="matrix(0.26458333,0,0,0.26458333,67.232141,155.41071)" />
    <path
       style="fill:#ff0000;fill-opacity:1;stroke:#ff0000;stroke-width:0.53993249;stroke-linecap:butt;stroke-linejoin:miter;stroke-miterlimit:4;stroke-dasharray:none;stroke-opacity:1"
       d="m 152.26412,119.28953 c -2.7131,-0.53636 -18.24943,-8.68808 -30.47172,-15.98812 -11.49559,-6.866007 -17.72279,-11.91552 -18.5687,-15.056989 -0.51314,-1.905642 -0.23517,-4.019134 0.9388,-7.138082 2.834,-7.529247 7.74931,-12.458306 15.03158,-15.073627 2.49899,-0.897479 11.13598,-1.343956 13.51784,-0.698787 2.08259,0.564104 3.95885,2.598315 5.55714,6.024955 3.42666,7.346532 16.73762,44.74027 16.73762,47.02005 0,0.65551 -0.80375,1.49634 -1.18992,1.2448 -0.033,-0.0215 -0.73173,-0.17191 -1.55264,-0.3342 z"
       id="path1798"
       inkscape:connector-curvature="0"
       transform="matrix(0.26458333,0,0,0.26458333,67.232141,155.41071)" />
    <path
       style="fill:#ff0000;fill-opacity:1;stroke:#ff0000;stroke-width:0.53993249;stroke-linecap:butt;stroke-linejoin:miter;stroke-miterlimit:4;stroke-dasharray:none;stroke-opacity:1"
       d="m 150.78622,118.95384 c -2.54437,-0.91543 -14.09038,-6.90908 -22.02954,-11.43574 -15.09832,-8.608608 -23.2314,-14.494823 -25.26785,-18.287298 -0.87912,-1.63717 -0.77925,-4.15917 0.29152,-7.36211 2.30647,-6.899262 6.4716,-11.805072 12.47633,-14.694984 3.74076,-1.800321 5.6451,-2.154898 11.53544,-2.147825 4.4118,0.0053 5.03366,0.08514 6.32171,0.811618 2.91301,1.642995 4.83909,5.73409 11.97363,25.432507 4.16979,11.512772 7.64422,21.618722 8.54282,24.848172 1.01198,3.63692 0.15009,4.27271 -3.84406,2.83566 z"
       id="path1800"
       inkscape:connector-curvature="0"
       transform="matrix(0.26458333,0,0,0.26458333,67.232141,155.41071)" />
    <path
       style="fill:#ff0000;fill-opacity:1;stroke:#ff0000;stroke-width:0.53993249;stroke-linecap:butt;stroke-linejoin:miter;stroke-miterlimit:4;stroke-dasharray:none;stroke-opacity:1"
       d="m 149.23643,118.46021 c -1.50399,-0.65666 -5.92363,-2.88375 -9.82142,-4.94908 -19.76029,-10.4704 -32.71557,-19.011407 -35.50219,-23.405455 -1.37709,-2.171443 -1.41769,-4.746068 -0.1355,-8.594126 1.78572,-5.359291 5.1241,-9.876923 9.37534,-12.687121 4.74562,-3.137 7.35,-3.843106 14.30985,-3.879718 5.87111,-0.03088 6.62,0.178427 8.56525,2.393943 1.46124,1.664262 2.72442,4.207808 5.14496,10.359926 4.19445,10.660751 13.06947,35.896971 13.8614,39.415051 0.25089,1.11459 0.23363,1.69896 -0.0607,2.05357 -0.68208,0.82186 -2.84621,0.55517 -5.73701,-0.70699 z"
       id="path1802"
       inkscape:connector-curvature="0"
       transform="matrix(0.26458333,0,0,0.26458333,67.232141,155.41071)" />
    <path
       style="fill:#ff0000;fill-opacity:1;stroke:#ff0000;stroke-width:0.53993249;stroke-linecap:butt;stroke-linejoin:miter;stroke-miterlimit:4;stroke-dasharray:none;stroke-opacity:1"
       d="m 151.88208,119.60368 c -2.80207,-0.62752 -18.0497,-8.67402 -30.08968,-15.87896 -12.45001,-7.450305 -18.15186,-12.213723 -18.96802,-15.84619 -0.48417,-2.154869 0.44371,-6.011602 2.4062,-10.00138 1.36092,-2.766765 2.20272,-3.92669 4.56178,-6.285753 2.36953,-2.369528 3.50672,-3.192931 6.28575,-4.551323 2.84815,-1.392172 3.93757,-1.722893 6.78572,-2.059969 4.87127,-0.576512 9.99105,-0.244609 11.60402,0.752261 1.56134,0.964963 2.9977,3.016972 4.65049,6.643773 3.65959,8.030436 16.24549,43.658191 16.24549,45.987191 0,0.54135 -0.28311,1.06877 -0.69081,1.28697 -0.77758,0.41615 -0.72026,0.41711 -2.79094,-0.0466 z"
       id="path1804"
       inkscape:connector-curvature="0"
       transform="matrix(0.26458333,0,0,0.26458333,67.232141,155.41071)" />
    <path
       style="fill:#ff0000;fill-opacity:1;stroke:#ff0000;stroke-width:0.53993249;stroke-linecap:butt;stroke-linejoin:miter;stroke-miterlimit:4;stroke-dasharray:none;stroke-opacity:1"
       d="m 150.89954,119.44939 c -4.05901,-1.47829 -21.4837,-10.86755 -30.89286,-16.64656 -12.71306,-7.808234 -17.46555,-12.237554 -17.49215,-16.302699 -0.0217,-3.311607 2.69128,-9.867493 5.4689,-13.215646 3.37475,-4.067943 8.79204,-7.436954 13.24956,-8.239892 2.78093,-0.500933 9.81707,-0.489006 11.83878,0.02007 2.94,0.740299 4.85621,3.654995 8.54072,12.991062 4.83858,12.260337 13.74561,38.184755 13.7492,40.017855 10e-4,0.59911 -0.19072,1.28214 -0.42643,1.51786 -0.56394,0.56394 -2.2613,0.5042 -4.03572,-0.14205 z"
       id="path1806"
       inkscape:connector-curvature="0"
       transform="matrix(0.26458333,0,0,0.26458333,67.232141,155.41071)" />
    <path
       style="fill:#ff0000;fill-opacity:1;stroke:#ff0000;stroke-width:0.19089496;stroke-linecap:butt;stroke-linejoin:miter;stroke-miterlimit:4;stroke-dasharray:none;stroke-opacity:1"
       d="m 93.974045,140.07128 c -4.98901,-1.35633 -9.376483,-7.07311 -10.501746,-13.68354 -0.221057,-1.29861 -0.248776,-1.87626 -0.193897,-4.04061 0.08422,-3.32154 0.37964,-4.67301 1.553361,-7.10627 1.337275,-2.77233 4.193893,-6.32203 8.526773,-10.59557 2.981736,-2.9409 5.116678,-4.58465 5.954651,-4.58465 0.557462,0 2.270663,0.75783 5.835673,2.58139 13.49489,6.90287 40.35388,22.86496 43.94486,26.11608 l 0.62611,0.56686 -0.21614,0.45323 c -0.39025,0.81838 -2.00572,1.43743 -5.96904,2.28735 -3.31817,0.71157 -6.87706,1.3335 -21.65514,3.78434 -13.9558,2.31447 -20.62728,3.46377 -23.548978,4.0568 -1.593355,0.32341 -3.506435,0.39569 -4.356487,0.16459 z"
       id="path1808"
       inkscape:connector-curvature="0"
       transform="matrix(0.26458333,0,0,0.26458333,67.232141,155.41071)" />
    <path
       style="fill:#ff0000;fill-opacity:1;stroke:#ff0000;stroke-width:0.19089496;stroke-linecap:butt;stroke-linejoin:miter;stroke-miterlimit:4;stroke-dasharray:none;stroke-opacity:1"
       d="m 110.25337,185.67918 c -4.02893,-1.07562 -10.02166,-4.70394 -13.833902,-8.37578 -2.113367,-2.03554 -2.925915,-3.28197 -3.682514,-5.64891 -0.943786,-2.95252 -1.407699,-6.19258 -1.502815,-10.49595 -0.127997,-5.79104 0.549815,-9.37099 1.940257,-10.24771 4.00967,-2.52824 27.106994,-7.53588 49.302194,-10.68901 5.16166,-0.73328 6.79535,-0.81708 7.35449,-0.37726 1.2194,0.95918 -0.6384,3.87881 -8.87246,13.94356 -11.38955,13.92181 -16.01979,19.37075 -21.35213,25.12755 -2.44167,2.63602 -5.47508,5.6048 -6.54767,6.40815 -0.69902,0.52356 -0.87541,0.59833 -1.38805,0.58838 -0.323,-0.006 -0.96082,-0.11112 -1.4174,-0.23302 z"
       id="path1810"
       inkscape:connector-curvature="0"
       transform="matrix(0.26458333,0,0,0.26458333,67.232141,155.41071)" />
    <path
       style="fill:#ff0000;fill-opacity:1;stroke:#ff0000;stroke-width:0.19089496;stroke-linecap:butt;stroke-linejoin:miter;stroke-miterlimit:4;stroke-dasharray:none;stroke-opacity:1"
       d="m 140.25166,211.22262 c -2.92236,-0.47483 -5.18471,-2.07971 -10.22803,-7.25564 -3.57462,-3.66861 -6.25411,-7.42162 -7.31744,-10.24914 -0.43589,-1.1591 -0.42128,-1.89784 0.0584,-2.95585 3.43652,-7.57909 28.57981,-38.49842 35.65397,-43.84458 1.13789,-0.85994 1.46413,-0.84985 1.68707,0.0522 0.91641,3.7078 1.48405,22.2314 1.18983,38.82773 -0.0843,4.75719 -0.20923,9.41652 -0.27755,10.35407 -0.40029,5.49329 -1.07592,7.84389 -2.77159,9.64271 -1.01405,1.07574 -1.89862,1.68343 -3.70865,2.54783 -2.57874,1.23149 -5.57691,2.12826 -8.62795,2.58067 -1.70509,0.25283 -4.90443,0.42247 -5.6581,0.30001 z"
       id="path1812"
       inkscape:connector-curvature="0"
       transform="matrix(0.26458333,0,0,0.26458333,67.232141,155.41071)" />
  </g>
</svg>
