<?xml version="1.0" encoding="UTF-8" standalone="no"?>
<!-- Created with Inkscape (http://www.inkscape.org/) -->

<svg
   xmlns:dc="http://purl.org/dc/elements/1.1/"
   xmlns:cc="http://creativecommons.org/ns#"
   xmlns:rdf="http://www.w3.org/1999/02/22-rdf-syntax-ns#"
   xmlns:svg="http://www.w3.org/2000/svg"
   xmlns="http://www.w3.org/2000/svg"
   xmlns:sodipodi="http://sodipodi.sourceforge.net/DTD/sodipodi-0.dtd"
   xmlns:inkscape="http://www.inkscape.org/namespaces/inkscape"
   width="115.00001mm"
   height="70mm"
   viewBox="0 0 115.00001 70"
   version="1.1"
   id="svg1079"
   inkscape:version="0.92.4 (5da689c313, 2019-01-14)"
   sodipodi:docname="32.2.svg">
  <defs
     id="defs1073">
    <clipPath
       clipPathUnits="userSpaceOnUse"
       id="clipPath1058">
      <ellipse
         style="fill:#ffcc00;fill-opacity:1;stroke:#ffcc00;stroke-width:5.25652218;stroke-linecap:butt;stroke-linejoin:miter;stroke-miterlimit:4;stroke-dasharray:none;stroke-opacity:1"
         id="ellipse1060"
         cx="59.323036"
         cy="0.8915832"
         rx="27.6078"
         ry="26.313755" />
    </clipPath>
  </defs>
  <sodipodi:namedview
     id="base"
     pagecolor="#ffffff"
     bordercolor="#666666"
     borderopacity="1.0"
     inkscape:pageopacity="0.0"
     inkscape:pageshadow="2"
     inkscape:zoom="0.49497475"
     inkscape:cx="151.91957"
     inkscape:cy="107.45738"
     inkscape:document-units="mm"
     inkscape:current-layer="g2384"
     showgrid="false"
     fit-margin-top="0"
     fit-margin-left="0"
     fit-margin-right="0"
     fit-margin-bottom="0"
     inkscape:window-width="958"
     inkscape:window-height="991"
     inkscape:window-x="952"
     inkscape:window-y="0"
     inkscape:window-maximized="0"
     inkscape:snap-global="true"
     showguides="false"
     inkscape:snap-bbox="true"
     inkscape:snap-bbox-midpoints="true" />
  <metadata
     id="metadata1076">
    <rdf:RDF>
      <cc:Work
         rdf:about="">
        <dc:format>image/svg+xml</dc:format>
        <dc:type
           rdf:resource="http://purl.org/dc/dcmitype/StillImage" />
        <dc:title></dc:title>
      </cc:Work>
    </rdf:RDF>
  </metadata>
  <g
     inkscape:label="Ebene 1"
     inkscape:groupmode="layer"
     id="layer1"
     transform="translate(-73.74319,-156.46748)">
    <g
       id="g1782">
      <g
         transform="matrix(1.0037152,0,0,1.0038501,43.458405,92.506428)"
         style="fill:#040f4f;fill-opacity:1;stroke:none;stroke-width:0.1;stroke-linecap:round;stroke-linejoin:round;stroke-miterlimit:4;stroke-dasharray:none"
         id="g2384">
        <path
           sodipodi:nodetypes="ccsccc"
           inkscape:connector-curvature="0"
           id="path2379"
           d="m 30.172684,63.71574 h 99.675686 c 5.78011,6.133058 8.76542,12.932231 11.99785,19.014489 5.50042,10.349797 4.05232,39.986851 -11.99785,50.717041 H 30.172684 Z"
           style="fill:#00ff00;fill-opacity:1;stroke:none;stroke-width:0.1;stroke-linecap:butt;stroke-linejoin:miter;stroke-miterlimit:4;stroke-dasharray:none;stroke-opacity:1" />
        <path
           style="fill:#ff0000;fill-opacity:1;stroke:#ff0000;stroke-width:1.51812899;stroke-linecap:round;stroke-linejoin:bevel;stroke-miterlimit:4;stroke-dasharray:none;stroke-opacity:1;paint-order:stroke markers fill"
           d="m 78.127522,129.44343 c -1.538605,-0.35133 -3.049859,-1.20473 -4.483264,-2.53166 -2.62484,-2.42988 -3.204891,-3.77044 -3.212743,-7.4254 -0.0079,-3.4484 0.304461,-4.30672 2.654935,-7.30546 1.817651,-2.319 2.285919,-3.28085 2.546975,-5.23152 0.433507,-3.23962 -0.415311,-5.97594 -2.516293,-8.111704 -1.595988,-1.622423 -3.827316,-2.475461 -6.475302,-2.475461 -1.87694,0 -3.207794,0.364303 -5.052654,1.383122 -2.174564,1.200858 -2.00984,1.18122 -2.829291,0.337033 -1.35408,-1.394871 -2.670371,-4.626089 -2.670371,-6.55506 0,-1.088754 0.484274,-2.739445 1.278754,-4.358551 2.073187,-4.224988 6.871702,-6.743956 11.171363,-5.864353 1.577236,0.322648 4.079551,1.638651 5.324545,2.80023 1.949711,1.819105 3.845958,2.497427 6.994242,2.502012 2.896065,0.0047 4.522562,-0.670122 6.464099,-2.679991 1.569229,-1.624454 2.818251,-4.365008 2.818251,-6.183716 0,-1.606497 -1.23825,-4.726393 -2.375287,-5.984798 -0.351816,-0.389351 -0.639667,-0.873418 -0.639667,-1.075699 0,-0.407926 1.570126,-1.781749 2.688157,-2.352045 1.292382,-0.659255 2.903769,-0.90684 5.487367,-0.843167 1.35538,0.03331 2.52052,0.143081 2.66024,0.250552 0.13676,0.105169 0.63417,0.33364 1.10541,0.507797 0.60688,0.224299 1.345972,0.784253 2.533582,1.919484 1.97396,1.886871 2.70231,3.185774 3.19401,5.696144 0.26163,1.335911 0.27784,1.787665 0.10629,2.964108 -0.32016,2.196495 -0.84653,3.219593 -3.8318,7.448356 -1.436222,2.034441 -1.778642,3.049924 -1.787502,5.300734 -0.006,1.526723 0.0663,2.055843 0.40167,2.93901 0.869922,2.29085 3.242922,4.740795 5.512022,5.690613 1.06186,0.44446 1.37474,0.49086 3.30121,0.48948 2.52724,-0.003 3.37585,-0.26999 5.63113,-1.77931 0.78566,-0.525816 1.4899,-0.95603 1.56494,-0.95603 0.2946,0 1.80315,1.919148 2.29991,2.92588 1.11061,2.25073 1.11802,6.71791 0.0159,9.02977 -0.5658,1.18601 -1.84873,2.7741 -2.949,3.65057 -2.44381,1.94675 -5.77733,2.85124 -8.24755,2.23785 -1.62305,-0.40301 -4.11138,-1.69838 -5.67446,-2.95394 -2.732232,-2.19475 -5.356172,-3.083 -7.877615,-2.66668 -1.558994,0.2574 -3.453274,1.15925 -4.646388,2.2121 -1.201523,1.06027 -2.4878,2.98331 -2.739149,4.09507 -0.110261,0.48766 -0.312474,1.11255 -0.449417,1.38866 -0.340667,0.68692 -0.312221,1.76557 0.08773,3.32646 0.437582,1.70782 1.123659,3.24044 1.790503,3.99982 0.293201,0.33388 0.533064,0.73449 0.533064,0.89026 0,0.92299 -1.487697,2.18096 -3.577194,3.02485 -1.370485,0.55348 -4.420805,0.715 -6.130495,0.32458 z m 4.479378,-0.98598 c 1.620071,-0.41428 3.011592,-1.14635 3.402042,-1.78977 0.262024,-0.43177 0.232215,-0.55136 -0.629438,-2.52589 -1.120931,-2.56863 -1.371881,-3.86382 -1.116363,-5.76218 0.348394,-2.58831 1.284134,-4.40118 3.331746,-6.45462 1.670003,-1.67477 3.129616,-2.38885 5.434082,-2.65848 2.268829,-0.26547 4.659039,-0.006 6.004499,0.6535 0.52267,0.25591 1.668522,1.09726 2.546382,1.86964 1.83388,1.61349 2.93294,2.21232 4.53837,2.47277 2.25063,0.36513 5.54492,0.15577 6.78149,-0.43089 1.10632,-0.52491 4.19832,-3.85515 4.19832,-4.5218 0,-0.10977 0.16843,-0.5691 0.37426,-1.02091 0.33429,-0.73366 0.36681,-1.06903 0.30427,-3.13781 -0.0649,-2.14654 -0.10724,-2.38432 -0.57768,-3.24342 -0.27924,-0.50988 -0.66393,-1.06847 -0.85491,-1.24129 -0.54469,-0.49286 -1.62644,-0.3838 -3.44005,0.34677 -2.3286,0.93803 -4.14169,1.1682 -6.08308,0.77218 -3.10092,-0.63247 -5.78505,-2.529074 -7.298532,-5.157038 -0.70228,-1.219414 -1.81355,-4.604944 -1.70624,-5.198178 0.47449,-2.623677 1.50961,-4.878436 3.196632,-6.96313 2.1425,-2.64752 2.50962,-3.837731 2.40448,-7.795258 -0.0633,-2.381962 -0.0689,-2.4095 -0.68454,-3.429521 -1.09031,-1.806176 -2.34766,-3.034506 -3.902852,-3.81281 -1.75781,-0.879683 -3.0527,-1.154965 -4.875984,-1.036518 -1.653825,0.107391 -3.207189,0.63895 -3.981868,1.362481 -0.747282,0.698007 -0.709681,1.402026 0.187509,3.509674 0.632828,1.486622 0.74009,1.931937 0.820017,3.404489 0.111218,2.049099 -0.16683,3.991869 -0.746881,5.217787 -0.982828,2.07724 -3.506116,4.475858 -5.546578,5.272452 -1.422346,0.555306 -5.951205,0.709269 -7.362955,0.250297 -1.228591,-0.399407 -2.6982,-1.294683 -4.691602,-2.858018 -2.336068,-1.832048 -3.11443,-2.105998 -5.989616,-2.108139 -2.230234,-0.0032 -2.344905,0.01697 -3.510369,0.568885 -2.907503,1.376995 -4.781729,3.621062 -5.560789,6.65817 -0.560489,2.185025 0.07853,5.286421 1.398217,6.785405 0.383755,0.435925 0.812042,0.792596 0.951685,0.792596 0.13961,0 1.150392,-0.456924 2.246145,-1.015391 l 1.992214,-1.015383 2.482897,-0.0048 2.482928,-0.0048 1.690749,0.826889 c 1.870228,0.914657 3.512732,2.37073 4.711877,4.177049 0.961108,1.44781 1.134749,2.22745 1.134749,5.09462 0,3.85039 -0.31487,4.74341 -2.660551,7.54544 -2.121734,2.53449 -2.823135,4.56475 -2.599393,7.52421 0.08964,1.1857 0.230976,1.67954 0.825163,2.88305 0.394369,0.79873 1.114332,1.88693 1.599954,2.4182 1.404088,1.53607 4.716035,3.08738 6.663824,3.1213 0.39897,0.008 1.351068,-0.14737 2.11577,-0.34293 z"
           id="path53"
           inkscape:connector-curvature="0" />
      </g>
      <g
         id="g19973"
         transform="translate(11.386905,-1.1711297)" />
    </g>
  </g>
</svg>
