<?xml version="1.0" encoding="UTF-8" standalone="no"?>
<!-- Created with Inkscape (http://www.inkscape.org/) -->

<svg
   xmlns:dc="http://purl.org/dc/elements/1.1/"
   xmlns:cc="http://creativecommons.org/ns#"
   xmlns:rdf="http://www.w3.org/1999/02/22-rdf-syntax-ns#"
   xmlns:svg="http://www.w3.org/2000/svg"
   xmlns="http://www.w3.org/2000/svg"
   xmlns:sodipodi="http://sodipodi.sourceforge.net/DTD/sodipodi-0.dtd"
   xmlns:inkscape="http://www.inkscape.org/namespaces/inkscape"
   width="115.00001mm"
   height="70mm"
   viewBox="0 0 115.00001 70"
   version="1.1"
   id="svg1079"
   inkscape:version="0.92.4 (5da689c313, 2019-01-14)"
   sodipodi:docname="32.5.svg">
  <defs
     id="defs1073">
    <clipPath
       clipPathUnits="userSpaceOnUse"
       id="clipPath1058">
      <ellipse
         style="fill:#ffcc00;fill-opacity:1;stroke:#ffcc00;stroke-width:5.25652218;stroke-linecap:butt;stroke-linejoin:miter;stroke-miterlimit:4;stroke-dasharray:none;stroke-opacity:1"
         id="ellipse1060"
         cx="59.323036"
         cy="0.8915832"
         rx="27.6078"
         ry="26.313755" />
    </clipPath>
  </defs>
  <sodipodi:namedview
     id="base"
     pagecolor="#ffffff"
     bordercolor="#666666"
     borderopacity="1.0"
     inkscape:pageopacity="0.0"
     inkscape:pageshadow="2"
     inkscape:zoom="0.49497475"
     inkscape:cx="151.91957"
     inkscape:cy="107.45738"
     inkscape:document-units="mm"
     inkscape:current-layer="g2384"
     showgrid="false"
     fit-margin-top="0"
     fit-margin-left="0"
     fit-margin-right="0"
     fit-margin-bottom="0"
     inkscape:window-width="958"
     inkscape:window-height="991"
     inkscape:window-x="952"
     inkscape:window-y="0"
     inkscape:window-maximized="0"
     inkscape:snap-global="true"
     showguides="false"
     inkscape:snap-bbox="true"
     inkscape:snap-bbox-midpoints="true" />
  <metadata
     id="metadata1076">
    <rdf:RDF>
      <cc:Work
         rdf:about="">
        <dc:format>image/svg+xml</dc:format>
        <dc:type
           rdf:resource="http://purl.org/dc/dcmitype/StillImage" />
        <dc:title></dc:title>
      </cc:Work>
    </rdf:RDF>
  </metadata>
  <g
     inkscape:label="Ebene 1"
     inkscape:groupmode="layer"
     id="layer1"
     transform="translate(-73.74319,-156.46748)">
    <g
       id="g1782">
      <g
         transform="matrix(1.0037152,0,0,1.0038501,43.458405,92.506428)"
         style="fill:#040f4f;fill-opacity:1;stroke:none;stroke-width:0.1;stroke-linecap:round;stroke-linejoin:round;stroke-miterlimit:4;stroke-dasharray:none"
         id="g2384">
        <path
           sodipodi:nodetypes="ccsccc"
           inkscape:connector-curvature="0"
           id="path2379"
           d="m 30.172684,63.71574 h 99.675686 c 5.78011,6.133058 8.76542,12.932231 11.99785,19.014489 5.50042,10.349797 4.05232,39.986851 -11.99785,50.717041 H 30.172684 Z"
           style="fill:#00ff00;fill-opacity:1;stroke:none;stroke-width:0.1;stroke-linecap:butt;stroke-linejoin:miter;stroke-miterlimit:4;stroke-dasharray:none;stroke-opacity:1" />
        <path
           style="fill:#ff0000;fill-opacity:1;stroke:#ff0000;stroke-width:1.89558482;stroke-linecap:round;stroke-linejoin:bevel;stroke-miterlimit:4;stroke-dasharray:none;stroke-opacity:1;paint-order:stroke markers fill"
           d="m 87.208815,124.62712 c -0.422316,-0.31934 -0.422316,-0.32591 0,-0.54417 0.235098,-0.12161 1.064397,-0.27588 1.842905,-0.34311 2.250542,-0.1943 4.368123,-1.35953 6.687563,-3.67989 1.39616,-1.39674 2.1034,-2.31461 2.65733,-3.44876 l 0.75481,-1.54546 -0.004,-3.5471 c -0.004,-3.34957 -0.0358,-3.61492 -0.57681,-4.76487 -0.74463,-1.58306 -2.37651,-3.72745 -3.56796,-4.68861 -2.200147,-1.77489 -3.64419,-2.291649 -7.255695,-2.596479 -4.469013,-0.37724 -7.644553,-1.72983 -10.325038,-4.39792 -2.639638,-2.62744 -3.616992,-5.18264 -3.622737,-9.471028 -0.0059,-4.300293 0.771,-6.169413 3.879348,-9.335158 1.540693,-1.569067 2.339823,-2.196068 3.477494,-2.728393 2.626504,-1.228927 6.590933,-1.690562 6.590933,-0.76749 0,0.482412 -0.657354,0.731957 -2.545583,0.966369 -4.101391,0.509112 -8.123504,3.883817 -9.675429,8.118114 -0.39698,1.082992 -0.48632,1.816414 -0.497948,4.08751 l -0.01387,2.76769 1.095656,2.103456 c 1.402999,2.69343 3.335264,4.70595 5.513521,5.74249 1.265304,0.60213 1.981155,0.77019 4.330031,1.0165 3.535139,0.37073 6.588555,1.21156 8.140817,2.24177 1.55254,1.030379 3.98491,3.458029 5.0063,4.996589 0.45112,0.67957 0.968697,1.8055 1.150167,2.50209 0.18146,0.69655 0.45142,1.41286 0.59997,1.5918 0.36744,0.44273 0.35688,4.43395 -0.0139,5.11779 -0.15313,0.28268 -0.42339,1.07976 -0.60056,1.77132 -0.434717,1.69693 -1.949037,3.86391 -4.163137,5.95736 -2.48393,2.34862 -3.771879,2.97288 -6.398304,3.10123 -1.564345,0.0765 -2.137965,0.0244 -2.465969,-0.22364 z"
           id="path57"
           inkscape:connector-curvature="0" />
      </g>
      <g
         id="g19973"
         transform="translate(11.386905,-1.1711297)" />
    </g>
  </g>
</svg>
