<?xml version="1.0" encoding="UTF-8" standalone="no"?>
<!-- Created with Inkscape (http://www.inkscape.org/) -->

<svg
   xmlns:dc="http://purl.org/dc/elements/1.1/"
   xmlns:cc="http://creativecommons.org/ns#"
   xmlns:rdf="http://www.w3.org/1999/02/22-rdf-syntax-ns#"
   xmlns:svg="http://www.w3.org/2000/svg"
   xmlns="http://www.w3.org/2000/svg"
   xmlns:sodipodi="http://sodipodi.sourceforge.net/DTD/sodipodi-0.dtd"
   xmlns:inkscape="http://www.inkscape.org/namespaces/inkscape"
   width="115.00001mm"
   height="70mm"
   viewBox="0 0 115.00001 70"
   version="1.1"
   id="svg1079"
   inkscape:version="0.92.4 (5da689c313, 2019-01-14)"
   sodipodi:docname="32.6.svg">
  <defs
     id="defs1073">
    <clipPath
       clipPathUnits="userSpaceOnUse"
       id="clipPath1058">
      <ellipse
         style="fill:#ffcc00;fill-opacity:1;stroke:#ffcc00;stroke-width:5.25652218;stroke-linecap:butt;stroke-linejoin:miter;stroke-miterlimit:4;stroke-dasharray:none;stroke-opacity:1"
         id="ellipse1060"
         cx="59.323036"
         cy="0.8915832"
         rx="27.6078"
         ry="26.313755" />
    </clipPath>
  </defs>
  <sodipodi:namedview
     id="base"
     pagecolor="#ffffff"
     bordercolor="#666666"
     borderopacity="1.0"
     inkscape:pageopacity="0.0"
     inkscape:pageshadow="2"
     inkscape:zoom="0.49497475"
     inkscape:cx="151.91957"
     inkscape:cy="107.45738"
     inkscape:document-units="mm"
     inkscape:current-layer="g2384"
     showgrid="false"
     fit-margin-top="0"
     fit-margin-left="0"
     fit-margin-right="0"
     fit-margin-bottom="0"
     inkscape:window-width="958"
     inkscape:window-height="991"
     inkscape:window-x="952"
     inkscape:window-y="0"
     inkscape:window-maximized="0"
     inkscape:snap-global="true"
     showguides="false"
     inkscape:snap-bbox="true"
     inkscape:snap-bbox-midpoints="true" />
  <metadata
     id="metadata1076">
    <rdf:RDF>
      <cc:Work
         rdf:about="">
        <dc:format>image/svg+xml</dc:format>
        <dc:type
           rdf:resource="http://purl.org/dc/dcmitype/StillImage" />
        <dc:title></dc:title>
      </cc:Work>
    </rdf:RDF>
  </metadata>
  <g
     inkscape:label="Ebene 1"
     inkscape:groupmode="layer"
     id="layer1"
     transform="translate(-73.74319,-156.46748)">
    <g
       id="g1782">
      <g
         transform="matrix(1.0037152,0,0,1.0038501,43.458405,92.506428)"
         style="fill:#040f4f;fill-opacity:1;stroke:none;stroke-width:0.1;stroke-linecap:round;stroke-linejoin:round;stroke-miterlimit:4;stroke-dasharray:none"
         id="g2384">
        <path
           sodipodi:nodetypes="ccsccc"
           inkscape:connector-curvature="0"
           id="path2379"
           d="m 30.172684,63.71574 h 99.675686 c 5.78011,6.133058 8.76542,12.932231 11.99785,19.014489 5.50042,10.349797 4.05232,39.986851 -11.99785,50.717041 H 30.172684 Z"
           style="fill:#00ff00;fill-opacity:1;stroke:none;stroke-width:0.1;stroke-linecap:butt;stroke-linejoin:miter;stroke-miterlimit:4;stroke-dasharray:none;stroke-opacity:1" />
        <path
           style="fill:#ff0000;fill-opacity:1;stroke:#ff0000;stroke-width:1.89558482;stroke-linecap:round;stroke-linejoin:bevel;stroke-miterlimit:4;stroke-dasharray:none;stroke-opacity:1;paint-order:stroke markers fill"
           d="m 78.086709,118.20267 c -0.86149,-0.16598 -2.86392,-2.20582 -3.588289,-3.65517 -1.129966,-2.26095 -0.854437,-3.46778 0.874425,-3.82996 1.897084,-0.39742 3.381142,-1.67729 4.345145,-3.74719 0.645468,-1.38596 0.658444,-2.19195 0.06101,-3.78839 -0.886449,-2.36894 -1.778188,-3.00002 -5.624176,-3.980077 -3.603443,-0.918258 -5.063136,-1.835843 -6.207899,-3.902316 -0.583703,-1.053678 -0.656898,-1.395541 -0.656898,-3.067841 0,-2.221916 0.517876,-3.518562 1.995199,-4.995687 0.982267,-0.982135 2.99791,-2.04732 4.262381,-2.252478 0.884053,-0.1434 1.382298,0.292823 1.382298,1.210368 0,1.287397 1.773869,3.653664 3.217675,4.292252 1.240026,0.548447 3.525473,0.749505 4.754347,0.418238 1.981828,-0.534226 3.630086,-3.038507 3.964943,-6.024189 0.304886,-2.718114 1.415677,-4.264185 3.896384,-5.423135 1.146408,-0.535593 1.602023,-0.620742 3.321673,-0.620861 1.687324,-1.39e-4 2.158648,0.08438 3.072969,0.55128 1.917128,0.978986 3.902554,3.804452 3.902554,5.553839 0,0.988533 -0.24912,1.217479 -1.669886,1.534743 -2.935386,0.655463 -4.752023,2.857255 -4.752023,5.759512 0,1.6702 0.277865,2.21742 1.922063,3.785358 1.449313,1.382053 1.553292,1.42838 3.669326,1.635242 1.99898,0.195492 3.81381,1.117831 5.21465,2.650372 2.66189,2.91208 2.87904,5.62806 0.72198,9.02893 -1.06321,1.67626 -3.77594,2.92844 -5.43973,2.51091 -0.43781,-0.10973 -0.747566,-0.54013 -1.412586,-1.96211 -1.356605,-2.90079 -2.838663,-3.93003 -5.644677,-3.91996 -1.603015,0.006 -2.81832,0.49477 -3.888224,1.56451 -1.006256,1.00614 -1.527995,2.26222 -1.786547,4.30112 -0.369623,2.91485 -2.334989,5.7296 -4.401364,6.3035 -0.778211,0.21613 -4.50154,0.26292 -5.506766,0.0693 z m 4.666789,-1.30449 c 1.270474,-0.43284 2.903756,-1.96797 3.480308,-3.27118 0.232185,-0.52483 0.510606,-1.74459 0.618686,-2.71056 0.234939,-2.09979 0.764503,-3.22344 2.098584,-4.45298 1.231965,-1.13544 2.335703,-1.70645 3.937132,-2.03685 2.720042,-0.56118 5.359087,0.79318 7.231012,3.71099 0.93042,1.45026 1.87061,1.93198 3.11625,1.5966 1.68379,-0.45336 2.69298,-2.16702 2.69562,-4.57733 0.002,-1.78706 -0.21353,-2.44863 -1.14017,-3.50123 -1.2013,-1.36457 -1.99595,-1.798429 -4.52442,-2.470275 -2.748744,-0.730373 -3.987267,-1.351451 -5.057923,-2.536388 -1.146446,-1.268797 -1.653327,-2.518066 -1.819588,-4.484475 -0.122027,-1.443097 -0.07548,-1.793081 0.356846,-2.686086 0.722666,-1.492614 2.499428,-3.335747 3.768375,-3.90917 1.443074,-0.652097 1.780384,-1.396908 1.207714,-2.666716 -0.734489,-1.628566 -2.896066,-2.835844 -5.091737,-2.843807 -3.250994,-0.01188 -5.634952,2.629004 -5.634952,6.242083 0,1.502814 -0.375586,2.23386 -2.222274,4.325646 l -1.612681,1.826693 -1.791717,-0.004 c -2.697917,-0.0079 -4.762608,-0.367255 -5.716706,-0.998554 -0.45417,-0.300508 -1.371878,-1.325663 -2.039375,-2.278128 -1.128202,-1.609849 -1.894884,-2.25432 -2.681831,-2.25432 -0.623995,0 -2.072634,1.592895 -2.886799,3.174262 -0.989221,1.921429 -0.950929,2.472451 0.319664,4.596503 1.171684,1.958724 2.353313,2.741941 4.427413,2.934699 0.863946,0.08022 2.096484,0.344558 2.738961,0.587269 2.109956,0.797121 4.161532,2.799434 4.623982,4.512934 0.351894,1.30386 0.150749,4.49745 -0.342484,5.43657 -0.554029,1.05502 -2.518167,2.97033 -3.625075,3.53494 -1.740847,0.88799 -1.914793,1.96294 -0.571579,3.532 1.540951,1.8 3.886499,2.43857 6.138764,1.67125 z"
           id="path63"
           inkscape:connector-curvature="0" />
      </g>
      <g
         id="g19973"
         transform="translate(11.386905,-1.1711297)" />
    </g>
  </g>
</svg>
