<?xml version="1.0" encoding="UTF-8" standalone="no"?>
<!-- Created with Inkscape (http://www.inkscape.org/) -->

<svg
   xmlns:dc="http://purl.org/dc/elements/1.1/"
   xmlns:cc="http://creativecommons.org/ns#"
   xmlns:rdf="http://www.w3.org/1999/02/22-rdf-syntax-ns#"
   xmlns:svg="http://www.w3.org/2000/svg"
   xmlns="http://www.w3.org/2000/svg"
   xmlns:sodipodi="http://sodipodi.sourceforge.net/DTD/sodipodi-0.dtd"
   xmlns:inkscape="http://www.inkscape.org/namespaces/inkscape"
   width="115.00001mm"
   height="70mm"
   viewBox="0 0 115.00001 70"
   version="1.1"
   id="svg1079"
   inkscape:version="0.92.4 (5da689c313, 2019-01-14)"
   sodipodi:docname="32.8.svg">
  <defs
     id="defs1073">
    <clipPath
       clipPathUnits="userSpaceOnUse"
       id="clipPath1058">
      <ellipse
         style="fill:#ffcc00;fill-opacity:1;stroke:#ffcc00;stroke-width:5.25652218;stroke-linecap:butt;stroke-linejoin:miter;stroke-miterlimit:4;stroke-dasharray:none;stroke-opacity:1"
         id="ellipse1060"
         cx="59.323036"
         cy="0.8915832"
         rx="27.6078"
         ry="26.313755" />
    </clipPath>
  </defs>
  <sodipodi:namedview
     id="base"
     pagecolor="#ffffff"
     bordercolor="#666666"
     borderopacity="1.0"
     inkscape:pageopacity="0.0"
     inkscape:pageshadow="2"
     inkscape:zoom="0.49497475"
     inkscape:cx="151.91957"
     inkscape:cy="107.45738"
     inkscape:document-units="mm"
     inkscape:current-layer="g2384"
     showgrid="false"
     fit-margin-top="0"
     fit-margin-left="0"
     fit-margin-right="0"
     fit-margin-bottom="0"
     inkscape:window-width="958"
     inkscape:window-height="991"
     inkscape:window-x="952"
     inkscape:window-y="0"
     inkscape:window-maximized="0"
     inkscape:snap-global="true"
     showguides="false"
     inkscape:snap-bbox="true"
     inkscape:snap-bbox-midpoints="true" />
  <metadata
     id="metadata1076">
    <rdf:RDF>
      <cc:Work
         rdf:about="">
        <dc:format>image/svg+xml</dc:format>
        <dc:type
           rdf:resource="http://purl.org/dc/dcmitype/StillImage" />
        <dc:title></dc:title>
      </cc:Work>
    </rdf:RDF>
  </metadata>
  <g
     inkscape:label="Ebene 1"
     inkscape:groupmode="layer"
     id="layer1"
     transform="translate(-73.74319,-156.46748)">
    <g
       id="g1782">
      <g
         transform="matrix(1.0037152,0,0,1.0038501,43.458405,92.506428)"
         style="fill:#040f4f;fill-opacity:1;stroke:none;stroke-width:0.1;stroke-linecap:round;stroke-linejoin:round;stroke-miterlimit:4;stroke-dasharray:none"
         id="g2384">
        <path
           sodipodi:nodetypes="ccsccc"
           inkscape:connector-curvature="0"
           id="path2379"
           d="m 30.172684,63.71574 h 99.675686 c 5.78011,6.133058 8.76542,12.932231 11.99785,19.014489 5.50042,10.349797 4.05232,39.986851 -11.99785,50.717041 H 30.172684 Z"
           style="fill:#00ff00;fill-opacity:1;stroke:none;stroke-width:0.1;stroke-linecap:butt;stroke-linejoin:miter;stroke-miterlimit:4;stroke-dasharray:none;stroke-opacity:1" />
        <path
           style="fill:#ff0000;fill-opacity:1;stroke:#ff0000;stroke-width:1.89558482;stroke-linecap:round;stroke-linejoin:bevel;stroke-miterlimit:4;stroke-dasharray:none;stroke-opacity:1;paint-order:stroke markers fill"
           d="m 81.270957,119.47467 c -2.119425,-0.59896 -4.041765,-2.1542 -4.821957,-3.90119 -0.252312,-0.56501 -0.355142,-1.48703 -0.359817,-3.22666 -0.0059,-2.67964 -0.01387,-2.65988 1.968239,-5.51925 0.790968,-1.14089 0.876445,-1.40549 0.968678,-2.99844 0.149362,-2.58079 -0.0313,-3.20219 -1.330516,-4.575738 -1.389191,-1.46869 -2.224156,-1.73695 -4.800404,-1.54227 -1.295612,0.0978 -2.118196,0.28622 -2.714854,0.62155 -1.151974,0.64734 -1.84964,0.39029 -2.70794,-0.99782 -0.852932,-1.37942 -1.064853,-3.92908 -0.476871,-5.73804 0.768187,-2.36342 2.815763,-4.20419 5.477626,-4.92439 1.35506,-0.3666 1.42996,-0.3643 2.613014,0.0802 0.669834,0.25175 1.865646,0.85587 2.657328,1.34252 2.594492,1.5948 3.750032,2.06949 5.080488,2.08694 1.711411,0.0224 3.144083,-0.57842 4.177181,-1.75191 1.503016,-1.70729 1.811428,-4.16834 0.818088,-6.52809 -0.652065,-1.54902 -0.711097,-2.66988 -0.166003,-3.15406 0.511656,-0.45456 3.216685,-1.27424 4.205132,-1.27424 0.429744,0 1.141712,0.0951 1.582115,0.21134 0.440441,0.11626 1.072579,0.26703 1.40482,0.33513 0.75458,0.15449 3.345902,2.55017 3.710474,3.43014 0.182047,0.43937 0.242961,1.54936 0.185416,3.37615 -0.0935,2.97039 -0.253007,3.47127 -1.656361,5.20378 -1.071924,1.32338 -1.404484,2.26909 -1.402107,3.98717 0.0021,1.928 0.796237,3.43355 2.353412,4.46484 2.434132,1.612088 4.428372,1.4801 7.415742,-0.49083 l 0.58119,-0.38347 0.73835,1.15047 c 2.3278,3.627058 1.95962,7.292988 -0.98504,9.808358 -1.54289,1.31792 -1.98617,1.455 -4.70572,1.455 -2.618066,0 -2.73092,-0.04 -5.248889,-1.84603 -3.043074,-2.18299 -4.777503,-2.15225 -7.522963,0.1333 -1.450045,1.20718 -1.707428,1.79249 -1.707428,3.88285 0,1.92379 0.235989,2.82485 1.073846,4.1003 l 0.555553,0.84577 -0.648638,0.53506 c -1.679339,1.3853 -2.735416,1.91026 -4.021856,1.99921 -0.7024,0.0485 -1.732567,-0.0404 -2.289229,-0.19767 z m 2.888047,-1.61573 c 0.721694,-0.28873 0.93625,-0.51528 1.143713,-1.20768 0.216834,-0.72358 0.178086,-1.15176 -0.256194,-2.83626 l -0.511537,-1.98396 0.914915,-1.90656 c 1.030562,-2.1475 1.792985,-2.96322 3.661405,-3.91756 2.587895,-1.3219 4.545734,-1.04898 7.815984,1.08951 2.622125,1.71466 3.09406,1.88591 4.91453,1.78305 1.4031,-0.0792 1.60309,-0.15627 2.62363,-1.01063 0.60761,-0.50868 1.39575,-1.34468 1.75144,-1.85787 0.57267,-0.8263 0.64666,-1.12102 0.64666,-2.57642 0,-1.54765 -0.0382,-1.67626 -0.65769,-2.20894 -0.65218,-0.56095 -0.68176,-0.56453 -3.54312,-0.43446 -1.81419,0.0824 -3.185888,0.042 -3.694709,-0.10815 -1.932919,-0.5716 -4.262005,-3.139578 -4.908504,-5.411918 -0.544559,-1.91396 -0.04259,-3.64958 1.865169,-6.44863 1.473085,-2.16129 1.748852,-2.86854 1.748852,-4.48469 0,-3.04994 -1.921093,-5.03453 -5.093841,-5.26229 -1.775176,-0.12735 -3.015183,0.30974 -3.222646,1.1362 -0.07627,0.30405 0.01981,1.09812 0.213564,1.76463 0.572788,1.96998 0.468591,4.00068 -0.285888,5.57199 -1.497905,3.11953 -4.328228,4.4937 -7.985334,3.87692 -1.292423,-0.21797 -1.889279,-0.46619 -3.077861,-1.28007 -2.078319,-1.42305 -3.247369,-1.89459 -4.685509,-1.88981 -2.079548,0.006 -3.853179,1.11169 -5.045366,3.14275 -0.489173,0.83336 -0.599689,1.29304 -0.600521,2.49746 0,1.26949 0.07646,1.55917 0.552621,2.06933 0.510448,0.54696 0.648579,0.5824 1.771552,0.4549 0.669874,-0.0761 2.088997,-0.19747 3.153572,-0.26967 1.787696,-0.12122 2.027271,-0.0866 3.135585,0.45573 3.763106,1.84088 5.26525,5.963228 3.526582,9.678088 -0.369167,0.78879 -0.970203,1.77817 -1.335706,2.19861 -0.365463,0.42047 -0.773021,0.97142 -0.905684,1.22439 -0.375645,0.71615 -0.557495,2.59878 -0.38755,4.01209 0.146391,1.21682 0.230184,1.35783 1.583937,2.66412 1.882464,1.81639 3.306995,2.22273 5.173949,1.4758 z"
           id="path61"
           inkscape:connector-curvature="0" />
      </g>
      <g
         id="g19973"
         transform="translate(11.386905,-1.1711297)" />
    </g>
  </g>
</svg>
