<?xml version="1.0" encoding="UTF-8" standalone="no"?>
<!-- Created with Inkscape (http://www.inkscape.org/) -->

<svg
   xmlns:dc="http://purl.org/dc/elements/1.1/"
   xmlns:cc="http://creativecommons.org/ns#"
   xmlns:rdf="http://www.w3.org/1999/02/22-rdf-syntax-ns#"
   xmlns:svg="http://www.w3.org/2000/svg"
   xmlns="http://www.w3.org/2000/svg"
   xmlns:sodipodi="http://sodipodi.sourceforge.net/DTD/sodipodi-0.dtd"
   xmlns:inkscape="http://www.inkscape.org/namespaces/inkscape"
   width="115.00001mm"
   height="70mm"
   viewBox="0 0 115.00001 70"
   version="1.1"
   id="svg1079"
   inkscape:version="0.92.4 (5da689c313, 2019-01-14)"
   sodipodi:docname="27.1.svg">
  <defs
     id="defs1073">
    <clipPath
       clipPathUnits="userSpaceOnUse"
       id="clipPath1058">
      <ellipse
         style="fill:#ffcc00;fill-opacity:1;stroke:#ffcc00;stroke-width:5.25652218;stroke-linecap:butt;stroke-linejoin:miter;stroke-miterlimit:4;stroke-dasharray:none;stroke-opacity:1"
         id="ellipse1060"
         cx="59.323036"
         cy="0.8915832"
         rx="27.6078"
         ry="26.313755" />
    </clipPath>
  </defs>
  <sodipodi:namedview
     id="base"
     pagecolor="#ffffff"
     bordercolor="#666666"
     borderopacity="1.0"
     inkscape:pageopacity="0.0"
     inkscape:pageshadow="2"
     inkscape:zoom="0.98994949"
     inkscape:cx="175.50784"
     inkscape:cy="82.416329"
     inkscape:document-units="mm"
     inkscape:current-layer="g2384"
     showgrid="false"
     fit-margin-top="0"
     fit-margin-left="0"
     fit-margin-right="0"
     fit-margin-bottom="0"
     inkscape:window-width="1920"
     inkscape:window-height="1001"
     inkscape:window-x="-9"
     inkscape:window-y="-9"
     inkscape:window-maximized="1"
     inkscape:snap-global="true"
     showguides="false"
     inkscape:snap-bbox="true"
     inkscape:snap-bbox-midpoints="true" />
  <metadata
     id="metadata1076">
    <rdf:RDF>
      <cc:Work
         rdf:about="">
        <dc:format>image/svg+xml</dc:format>
        <dc:type
           rdf:resource="http://purl.org/dc/dcmitype/StillImage" />
        <dc:title></dc:title>
      </cc:Work>
    </rdf:RDF>
  </metadata>
  <g
     inkscape:label="Ebene 1"
     inkscape:groupmode="layer"
     id="layer1"
     transform="translate(-73.74319,-156.46748)">
    <g
       id="g1782">
      <g
         transform="matrix(1.0037152,0,0,1.0038501,43.458405,92.506428)"
         style="fill:#040f4f;fill-opacity:1;stroke:none;stroke-width:0.1;stroke-linecap:round;stroke-linejoin:round;stroke-miterlimit:4;stroke-dasharray:none"
         id="g2384">
        <path
           sodipodi:nodetypes="ccsccc"
           inkscape:connector-curvature="0"
           id="path2379"
           d="m 30.172684,63.71574 h 99.675686 c 5.78011,6.133058 8.76542,12.932231 11.99785,19.014489 5.50042,10.349797 4.05232,39.986851 -11.99785,50.717041 H 30.172684 Z"
           style="fill:#55ddff;fill-opacity:1;stroke:none;stroke-width:0.1;stroke-linecap:butt;stroke-linejoin:miter;stroke-miterlimit:4;stroke-dasharray:none;stroke-opacity:1" />
        <g
           id="g3770"
           transform="translate(1.1344815e-6)">
          <ellipse
             ry="20.220085"
             rx="20.222803"
             style="fill:none;fill-opacity:1;stroke:#ff00ff;stroke-width:3.97590089;stroke-linecap:round;stroke-linejoin:round;stroke-miterlimit:4;stroke-dasharray:none;stroke-opacity:0.94117647;paint-order:stroke fill markers"
             id="path909-2-1"
             cx="87.459854"
             cy="98.581505" />
          <g
             transform="matrix(1.9809366,0,0,1.9806704,550.42607,-256.44231)"
             id="g2852">
            <path
               style="fill:#110cb7;stroke-width:0.21036933"
               d="m -234.6382,186.68371 c -0.57013,-0.57013 -0.62502,-1.3838 -0.26074,-3.86519 0.22276,-1.51739 0.27965,-2.48107 0.15391,-2.60682 -0.12574,-0.12574 -0.65121,-0.1157 -1.4214,0.0272 -3.10624,0.57619 -4.36404,0.55256 -5.01073,-0.0941 -0.44329,-0.4433 -0.38865,-1.41223 0.10484,-1.85884 0.37269,-0.33725 0.66489,-0.36166 2.68222,-0.22395 3.98118,0.27176 3.73931,0.29156 3.7159,-0.30424 -0.0114,-0.28926 -0.14242,-1.34262 -0.29123,-2.3408 -0.3283,-2.20214 -0.17776,-3.21539 0.54839,-3.69119 0.79259,-0.51932 1.58525,-0.17176 1.91787,0.84095 0.21478,0.6539 0.19991,1.22241 -0.0839,3.20701 -0.18974,1.32673 -0.28302,2.47418 -0.2073,2.5499 0.0757,0.0757 0.87082,0.0261 1.76688,-0.1103 2.55369,-0.3887 4.17618,-0.32783 4.67956,0.17555 0.52895,0.52895 0.53444,1.07567 0.0172,1.71224 -0.36554,0.44987 -0.5587,0.49438 -2.05111,0.47264 -0.90615,-0.0132 -2.20201,-0.14035 -2.87967,-0.28255 -0.83585,-0.17539 -1.30098,-0.18968 -1.44624,-0.0444 -0.14527,0.14527 -0.10466,0.98036 0.12629,2.59661 0.35062,2.45379 0.30466,3.16711 -0.24501,3.80247 -0.39583,0.45754 -1.37561,0.47798 -1.81571,0.0379 z m 1.35206,-1.89068 c 0,-0.26756 -0.1001,-0.74976 -0.22245,-1.07155 -0.17808,-0.46841 -0.26135,-0.52358 -0.41752,-0.27666 -0.22367,0.35365 -0.27042,1.95754 -0.0631,2.16488 0.23654,0.23652 0.70306,-0.30538 0.70306,-0.81667 z m -4.73983,-5.3418 c 0.18106,-0.29296 -0.66109,-0.67796 -1.3169,-0.60204 -0.33837,0.0392 -0.59441,0.21374 -0.63612,0.43371 -0.0581,0.30656 0.0891,0.36816 0.87985,0.36816 0.52233,0 1.00524,-0.0899 1.07317,-0.19983 z m 4.65988,-5.40209 c 0.10484,-0.87819 -0.15043,-1.48276 -0.52764,-1.24962 -0.25231,0.15593 -0.32704,2.06013 -0.0901,2.29704 0.24961,0.24961 0.51707,-0.20387 0.61778,-1.04742 z"
               id="path839-6"
               inkscape:connector-curvature="0"
               sodipodi:nodetypes="ccscccsccscccscccccsccccccccccccsccccc" />
            <path
               style="fill:#110cb7;fill-opacity:1;stroke:none;stroke-width:0.1206843;stroke-linecap:round;stroke-linejoin:round;stroke-miterlimit:4;stroke-dasharray:none;stroke-opacity:0.94117647;paint-order:stroke fill markers"
               d="m -239.45279,179.64027 c -0.33711,-0.0176 -0.47998,-0.0649 -0.52064,-0.17254 -0.013,-0.0343 -0.0128,-0.12373 0,-0.18674 0.0379,-0.18119 0.22398,-0.33341 0.49111,-0.40172 0.38068,-0.0974 0.99833,0.022 1.31024,0.25331 0.12654,0.0938 0.16762,0.16109 0.16186,0.265 -0.006,0.10424 -0.23873,0.18487 -0.65903,0.22812 -0.16362,0.0168 -0.58909,0.0247 -0.78398,0.0146 z"
               id="path876-6"
               inkscape:connector-curvature="0" />
            <path
               style="fill:#110cb7;fill-opacity:1;stroke:none;stroke-width:2.70332813;stroke-linecap:round;stroke-linejoin:round;stroke-miterlimit:4;stroke-dasharray:none;stroke-opacity:0.94117647;paint-order:stroke fill markers"
               d="m -239.55141,179.63005 c -0.24062,-0.0228 -0.35052,-0.06 -0.40283,-0.13636 -0.0177,-0.0258 -0.0208,-0.0429 -0.0206,-0.11355 0,-0.13903 0.0378,-0.22114 0.14636,-0.32048 0.13842,-0.1267 0.33949,-0.19667 0.59286,-0.20628 0.43908,-0.0167 0.95833,0.14809 1.15455,0.36632 0.0471,0.0524 0.0754,0.12949 0.066,0.1797 -0.0187,0.0999 -0.25038,0.1791 -0.64878,0.22176 -0.12332,0.0132 -0.77325,0.0197 -0.8875,0.009 z"
               id="path878-20"
               inkscape:connector-curvature="0" />
            <path
               style="fill:#110cb7;fill-opacity:1;stroke:none;stroke-width:0.1485191;stroke-linecap:round;stroke-linejoin:round;stroke-miterlimit:4;stroke-dasharray:none;stroke-opacity:0.94117647;paint-order:stroke fill markers"
               d="m -239.55462,179.80064 c -0.18126,-0.013 -0.35882,-0.0616 -0.43513,-0.11908 -0.0615,-0.0463 -0.08,-0.0989 -0.0794,-0.22622 0,-0.0613 0.007,-0.13876 0.0156,-0.17222 0.049,-0.19685 0.22895,-0.38149 0.46258,-0.47479 0.45777,-0.18281 1.2534,0.009 1.59688,0.38528 0.0757,0.0829 0.10718,0.15421 0.10856,0.24613 0,0.0655 -0.002,0.0792 -0.0285,0.11236 -0.0932,0.11876 -0.43448,0.21609 -0.85795,0.24471 -0.16623,0.0112 -0.64712,0.0136 -0.78273,0.004 z"
               id="path880-3"
               inkscape:connector-curvature="0" />
            <path
               style="fill:#110cb7;fill-opacity:1;stroke:none;stroke-width:0.15063873;stroke-linecap:round;stroke-linejoin:round;stroke-miterlimit:4;stroke-dasharray:none;stroke-opacity:0.94117647;paint-order:stroke fill markers"
               d="m -233.97632,185.79006 c -0.0727,-0.031 -0.11342,-0.076 -0.14894,-0.1643 -0.0724,-0.18006 -0.10089,-0.41003 -0.10101,-0.81594 -1.7e-4,-0.62371 0.0903,-1.14982 0.23924,-1.39134 0.0626,-0.10159 0.17052,-0.19711 0.23294,-0.20627 0.0879,-0.0129 0.19022,0.10097 0.32711,0.36402 0.2288,0.43969 0.39694,1.09602 0.35359,1.37998 -0.043,0.28179 -0.20845,0.54648 -0.45295,0.72476 -0.11821,0.0862 -0.20485,0.12085 -0.31439,0.12574 -0.0689,0.003 -0.0977,-4.7e-4 -0.13559,-0.0167 z"
               id="path882-6"
               inkscape:connector-curvature="0" />
            <path
               style="fill:#110cb7;fill-opacity:1;stroke:none;stroke-width:0.62823993;stroke-linecap:round;stroke-linejoin:round;stroke-miterlimit:4;stroke-dasharray:none;stroke-opacity:0.94117647;paint-order:stroke fill markers"
               d="m -233.96304,175.39768 c -0.20515,-0.11621 -0.3021,-0.80897 -0.23151,-1.65417 0.0726,-0.86839 0.1888,-1.14837 0.47691,-1.14837 0.34786,0 0.53006,0.3792 0.52861,1.10019 -0.003,1.01128 -0.41003,1.90856 -0.77401,1.70235 z"
               id="path884-5"
               inkscape:connector-curvature="0" />
          </g>
        </g>
      </g>
      <g
         id="g19973"
         transform="translate(11.386905,-1.1711297)" />
    </g>
  </g>
</svg>
