<?xml version="1.0" encoding="UTF-8" standalone="no"?>
<svg
   xmlns:dc="http://purl.org/dc/elements/1.1/"
   xmlns:cc="http://creativecommons.org/ns#"
   xmlns:rdf="http://www.w3.org/1999/02/22-rdf-syntax-ns#"
   xmlns:svg="http://www.w3.org/2000/svg"
   xmlns="http://www.w3.org/2000/svg"
   xmlns:sodipodi="http://sodipodi.sourceforge.net/DTD/sodipodi-0.dtd"
   xmlns:inkscape="http://www.inkscape.org/namespaces/inkscape"
   width="115mm"
   height="70mm"
   viewBox="0 0 114.99999 70"
   version="1.1"
   id="svg93"
   sodipodi:docname="1.1.svg"
   inkscape:version="0.92.4 (5da689c313, 2019-01-14)">
  <sodipodi:namedview
     pagecolor="#ffffff"
     bordercolor="#666666"
     borderopacity="1"
     objecttolerance="10"
     gridtolerance="10"
     guidetolerance="10"
     inkscape:pageopacity="0"
     inkscape:pageshadow="2"
     inkscape:window-width="1920"
     inkscape:window-height="1001"
     id="namedview14"
     showgrid="false"
     inkscape:zoom="0.89202381"
     inkscape:cx="217.32283"
     inkscape:cy="132.28346"
     inkscape:window-x="-9"
     inkscape:window-y="-9"
     inkscape:window-maximized="1"
     inkscape:current-layer="svg93" />
  <defs
     id="defs87">
    <clipPath
       id="clipPath79"
       clipPathUnits="userSpaceOnUse">
      <path
         d="M 147.00761,81.801869 V 151.1885 c 5.78443,-8.7915 15.87869,-16.78839 14.95629,-36.32353 -1.62337,-15.59941 -7.95578,-24.786145 -14.95629,-33.063101 z m -99.081533,1.3e-5 99.081533,-1.3e-5 V 151.18852 H 47.926077 Z"
         style="fill:#d5ffe6;stroke:#000000;stroke-width:0.33357015px;stroke-linecap:butt;stroke-linejoin:miter;stroke-opacity:1"
         id="path81" />
    </clipPath>
  </defs>
  <metadata
     id="metadata90">
    <rdf:RDF>
      <cc:Work
         rdf:about="">
        <dc:format>image/svg+xml</dc:format>
        <dc:type
           rdf:resource="http://purl.org/dc/dcmitype/StillImage" />
        <dc:title></dc:title>
      </cc:Work>
    </rdf:RDF>
  </metadata>
  <g
     id="layer1"
     transform="translate(160.2849,-64.713199)">
    <g
       clip-path="url(#clipPath79)"
       id="g106"
       transform="matrix(1.007915,0,0,1.0088396,-208.59031,-17.811766)">
      <path
         style="fill:#008080;stroke-width:0.35277778"
         d="M 46.869057,116.32739 V 80.696831 h 58.208333 l 41.78999,0.01253 c 23.09747,24.111809 22.87266,47.983139 0,71.382229 l -41.68976,3e-5 -58.174928,-0.0334 z"
         id="path116" />
      <path
         style="fill:#d00000;stroke-width:0.35277778"
         d="m 95.728776,145.60795 c -0.119916,-0.19403 -0.645223,-0.35509 -1.167348,-0.35791 -1.829029,-0.01 -6.46956,-2.02665 -9.640252,-4.18961 -0.84679,-0.57766 -2.858223,-2.38275 -4.469848,-4.01131 -2.383112,-2.40815 -3.255871,-3.61032 -4.674305,-6.43852 -0.959243,-1.91263 -1.744079,-3.68845 -1.744079,-3.94626 0,-0.25781 -0.139262,-0.7444 -0.309472,-1.08132 -0.954122,-1.8886 -1.199508,-3.74571 -1.197576,-9.0634 0.0018,-4.90791 0.107934,-5.98853 0.798594,-8.12973 1.146457,-3.55427 3.052484,-7.18925 4.631548,-8.8328 0.752715,-0.783455 1.368573,-1.590848 1.368573,-1.794206 0,-0.378774 3.95557,-4.170694 6.059056,-5.80838 1.645846,-1.281388 5.197239,-3.018088 8.362181,-4.089271 2.456039,-0.831254 3.1923,-0.910503 8.515642,-0.916604 5.49721,-0.0063 7.33331,0.231884 9.2493,1.199841 0.33692,0.17021 0.86952,0.309473 1.18357,0.309473 0.31404,0 1.25833,0.463882 2.09841,1.03085 0.84009,0.566968 2.13311,1.313924 2.87339,1.659902 0.74027,0.345979 2.98504,2.144284 4.98836,3.996233 3.21279,2.970018 3.80467,3.70735 5.01798,6.251152 0.75656,1.58618 1.53841,2.98461 1.73744,3.10762 0.19904,0.12302 0.36189,0.6927 0.36189,1.26596 0,0.57327 0.13926,1.31796 0.30947,1.65488 0.87832,1.73855 1.10164,3.58516 1.10164,9.10926 0,5.09854 -0.10371,6.26091 -0.70555,7.90748 -0.38806,1.06167 -0.70556,2.29327 -0.70556,2.73688 0,1.26098 -2.6202,6.12759 -4.0244,7.47468 -0.69699,0.66866 -1.26727,1.3905 -1.26727,1.6041 0,0.48692 -2.54691,3.00101 -3.04018,3.00101 -0.20054,0 -0.74946,0.41258 -1.21985,0.91686 -0.47038,0.50428 -1.56962,1.30604 -2.44274,1.7817 -0.87313,0.47566 -2.2225,1.25108 -2.99861,1.72316 -0.77612,0.47209 -1.71734,0.86095 -2.09162,0.86414 -0.74219,0.006 -2.83815,0.61514 -3.81262,1.10744 -0.86449,0.43674 -12.873532,0.39717 -13.145764,-0.0433 z"
         id="path114" />
      <path
         style="fill:#9e0000;stroke-width:0.35277778"
         d="m 95.728776,145.60795 c -0.119916,-0.19403 -0.645223,-0.35509 -1.167348,-0.35791 -1.829029,-0.01 -6.46956,-2.02665 -9.640252,-4.18961 -0.84679,-0.57766 -2.858223,-2.38275 -4.469848,-4.01131 -2.383112,-2.40815 -3.255871,-3.61032 -4.674305,-6.43852 -0.959243,-1.91263 -1.744079,-3.68845 -1.744079,-3.94626 0,-0.25781 -0.139262,-0.7444 -0.309472,-1.08132 -0.954122,-1.8886 -1.199508,-3.74571 -1.197576,-9.0634 0.0018,-4.90791 0.107934,-5.98853 0.798594,-8.12973 1.146457,-3.55427 3.052484,-7.18925 4.631548,-8.8328 0.752715,-0.783455 1.368573,-1.590848 1.368573,-1.794206 0,-0.378774 3.95557,-4.170694 6.059056,-5.80838 1.645846,-1.281388 5.197239,-3.018088 8.362181,-4.089271 2.456039,-0.831254 3.1923,-0.910503 8.515642,-0.916604 5.49721,-0.0063 7.33331,0.231884 9.2493,1.199841 0.33692,0.17021 0.89255,0.314747 1.23473,0.321192 0.34218,0.0064 1.25714,0.473856 2.03326,1.038689 0.77611,0.564832 2.09016,1.346316 2.92013,1.73663 0.82996,0.390314 3.10222,2.185092 5.04946,3.988396 2.68595,2.487403 3.79047,3.788328 4.5764,5.390143 0.56977,1.16128 1.03595,2.29278 1.03595,2.51445 0,0.22166 0.23812,0.60065 0.52917,0.8422 0.29104,0.24154 0.52916,0.96598 0.52916,1.60987 0,0.64389 0.15875,1.26882 0.35278,1.38874 0.19403,0.11991 0.35783,0.56584 0.364,0.99096 0.006,0.42511 0.24429,1.08108 0.52916,1.45771 0.40979,0.54179 0.51795,1.97942 0.51795,6.88415 0,5.32074 -0.1,6.47294 -0.70555,8.12968 -0.38806,1.06167 -0.70556,2.29327 -0.70556,2.73688 0,1.26098 -2.6202,6.12759 -4.0244,7.47468 -0.69699,0.66866 -1.26727,1.3905 -1.26727,1.6041 0,0.48692 -2.54691,3.00101 -3.04018,3.00101 -0.20054,0 -0.74946,0.41258 -1.21985,0.91686 -0.47038,0.50428 -1.56962,1.30604 -2.44274,1.7817 -0.87313,0.47566 -2.2225,1.25108 -2.99861,1.72316 -0.77612,0.47209 -1.71734,0.86095 -2.09162,0.86414 -0.74219,0.006 -2.83815,0.61514 -3.81262,1.10744 -0.86449,0.43674 -12.873532,0.39717 -13.145764,-0.0433 z M 119.0905,118.85558 c 2.33181,-1.2033 3.85445,-2.74281 5.02037,-5.07602 1.97728,-3.9569 1.3328,-8.61184 -1.65193,-11.93158 -2.50512,-2.786297 -3.82852,-3.33587 -8.03294,-3.33587 -3.20119,0 -3.67843,0.08856 -5.15509,0.956655 -7.63584,4.488925 -7.35341,15.442705 0.49838,19.329305 1.99676,0.98839 2.43307,1.07152 5.00949,0.95441 2.01529,-0.0916 3.24809,-0.34804 4.31172,-0.8969 z"
         id="path112" />
      <path
         style="fill:#5f0001;stroke-width:0.35277778"
         d="m 95.905165,145.60795 c -0.291041,-0.18809 -1.035734,-0.34441 -1.654873,-0.34738 -0.619139,-0.003 -1.223821,-0.16415 -1.343738,-0.35818 -0.119916,-0.19403 -0.538007,-0.35278 -0.929093,-0.35278 -0.665011,0 -4.44168,-1.84598 -6.832017,-3.33938 -0.582084,-0.36367 -2.533682,-2.10264 -4.336887,-3.86439 -2.907269,-2.84042 -3.469676,-3.60268 -4.966212,-6.73095 -2.987581,-6.24506 -3.313905,-7.64132 -3.307185,-14.15072 0.0055,-5.34893 0.333047,-7.70701 1.217023,-8.7622 0.154419,-0.18432 0.280761,-0.64027 0.280761,-1.01322 0,-0.95016 2.653648,-5.75602 4.188357,-7.585281 2.19259,-2.613407 5.486884,-5.835945 7.121497,-6.966376 1.702717,-1.177529 5.993267,-3.326373 6.641694,-3.326373 0.221358,0 0.678127,-0.139262 1.015044,-0.309472 1.562633,-0.789442 3.388808,-1.08377 7.138964,-1.150601 2.23132,-0.03976 4.37444,0.02222 4.7625,0.13773 0.38805,0.115515 1.45962,0.222173 2.38125,0.237019 0.92163,0.01484 1.67569,0.160661 1.67569,0.324035 0,0.163374 -1.07156,0.719773 -2.38125,1.236443 -6.11351,2.41177 -10.99359,8.032286 -12.604433,14.516846 -3.208429,12.91578 5.941349,25.53699 19.219023,26.51074 4.96914,0.36442 11.60078,-1.87206 15.08268,-5.08653 1.15788,-1.06895 1.49787,-1.2397 1.49787,-0.75228 0,0.3468 -0.17625,0.73947 -0.39166,0.8726 -0.2216,0.13696 -0.31313,0.72594 -0.21081,1.35651 0.22945,1.41394 -2.02477,6.20094 -3.44679,7.3195 -0.53632,0.42187 -1.18708,1.27432 -1.44614,1.89432 -0.25905,0.62001 -1.0371,1.58555 -1.72898,2.14563 -0.69189,0.56009 -1.86809,1.53346 -2.61378,2.16304 -0.74569,0.62959 -1.8931,1.39056 -2.54979,1.69106 -0.6567,0.3005 -1.74019,0.94089 -2.40776,1.4231 -0.66757,0.4822 -1.62007,0.95939 -2.11667,1.06041 -1.72013,0.34992 -3.72793,0.92458 -4.33769,1.24151 -0.82386,0.42821 -11.947693,0.39789 -12.616595,-0.0344 z"
         id="path110" />
      <path
         style="fill:#270101;stroke-width:0.35277778"
         d="m 96.081554,145.25517 c -0.119916,-0.19403 -0.633952,-0.35278 -1.142301,-0.35278 -1.290013,0 -3.009304,-0.58278 -6.089643,-2.0642 -7.262451,-3.49271 -12.349113,-9.60501 -15.163124,-18.22052 -0.713255,-2.18374 -0.805226,-3.15714 -0.794927,-8.41333 0.0075,-3.84134 0.149063,-6.0813 0.400127,-6.33236 0.213664,-0.21366 0.388481,-0.74424 0.388481,-1.17905 0,-0.43481 0.15875,-0.88868 0.352777,-1.0086 0.194028,-0.11991 0.352778,-0.51155 0.352778,-0.87031 0,-1.05514 2.449353,-5.36106 3.927321,-6.904152 0.75039,-0.783455 1.364345,-1.572602 1.364345,-1.753659 0,-0.497073 3.969854,-4.406599 4.474598,-4.406599 0.241858,0 0.982158,-0.47625 1.645116,-1.058334 0.662954,-0.582083 1.269037,-1.058333 1.346845,-1.058333 0.07781,0 -0.597866,1.505467 -1.501506,3.345483 -2.178167,4.435254 -2.857126,7.201164 -3.06136,12.471194 -0.393894,10.16401 2.679538,18.03496 9.681432,24.79381 5.731679,5.53272 12.425337,8.49364 20.383007,9.01636 3.05416,0.20062 3.30852,0.2723 3.00161,0.84576 -0.37552,0.70167 -2.2534,1.73851 -3.14872,1.73851 -0.32146,0 -1.59717,0.39687 -2.83491,0.88194 -2.06219,0.80817 -2.71531,0.88195 -7.80719,0.88195 -3.323945,0 -5.644334,-0.14176 -5.774756,-0.35278 z"
         id="path108" />
    </g>
  </g>
</svg>
