<?xml version="1.0" encoding="UTF-8" standalone="no"?>
<!-- Created with Inkscape (http://www.inkscape.org/) -->

<svg
   xmlns:dc="http://purl.org/dc/elements/1.1/"
   xmlns:cc="http://creativecommons.org/ns#"
   xmlns:rdf="http://www.w3.org/1999/02/22-rdf-syntax-ns#"
   xmlns:svg="http://www.w3.org/2000/svg"
   xmlns="http://www.w3.org/2000/svg"
   xmlns:sodipodi="http://sodipodi.sourceforge.net/DTD/sodipodi-0.dtd"
   xmlns:inkscape="http://www.inkscape.org/namespaces/inkscape"
   width="115mm"
   height="70mm"
   viewBox="0 0 115 70"
   version="1.1"
   id="svg8"
   inkscape:version="0.92.4 (5da689c313, 2019-01-14)"
   sodipodi:docname="1.2.svg">
  <defs
     id="defs2" />
  <sodipodi:namedview
     id="base"
     pagecolor="#ffffff"
     bordercolor="#666666"
     borderopacity="1.0"
     inkscape:pageopacity="0.0"
     inkscape:pageshadow="2"
     inkscape:zoom="0.98994949"
     inkscape:cx="584.55701"
     inkscape:cy="38.135222"
     inkscape:document-units="mm"
     inkscape:current-layer="layer1"
     showgrid="false"
     fit-margin-top="0"
     fit-margin-left="0"
     fit-margin-right="0"
     fit-margin-bottom="0"
     inkscape:window-width="1920"
     inkscape:window-height="1001"
     inkscape:window-x="-9"
     inkscape:window-y="-9"
     inkscape:window-maximized="1" />
  <metadata
     id="metadata5">
    <rdf:RDF>
      <cc:Work
         rdf:about="">
        <dc:format>image/svg+xml</dc:format>
        <dc:type
           rdf:resource="http://purl.org/dc/dcmitype/StillImage" />
        <dc:title></dc:title>
      </cc:Work>
    </rdf:RDF>
  </metadata>
  <g
     inkscape:label="Ebene 1"
     inkscape:groupmode="layer"
     id="layer1"
     transform="translate(-32.318394,-86.508306)">
    <g
       id="g21"
       transform="matrix(0.99918549,0,0,0.99835144,-28.01412,-20.287813)">
      <path
         style="fill:#f9fbfb;stroke-width:0.26458335"
         d="m 60.381695,142.02976 v -35.05729 h 57.546875 57.54687 v 35.05729 35.0573 H 117.92857 60.381695 Z"
         id="path29"
         inkscape:connector-curvature="0" />
      <path
         style="fill:#d75721;stroke-width:0.26458335"
         d="m 60.381695,142.02976 v -35.05729 h 49.990815 49.99082 l 2.15183,2.71198 c 6.75619,8.5149 10.26151,15.9287 12.16574,25.73073 1.1421,5.87898 0.953,12.239 -0.53496,17.99167 -1.67675,6.48259 -3.62932,9.97081 -11.3705,20.31309 l -2.51354,3.35812 -49.9401,0.005 -49.940105,0.005 z"
         id="path27"
         inkscape:connector-curvature="0" />
      <path
         style="fill:#007c7c;stroke-width:0.26458335"
         d="m 60.381695,142.02976 v -35.05729 h 49.990815 49.99082 l 2.15183,2.71198 c 6.75619,8.5149 10.26151,15.9287 12.16574,25.73073 1.1421,5.87898 0.953,12.239 -0.53496,17.99167 -1.67675,6.48259 -3.62932,9.97081 -11.3705,20.31309 l -2.51354,3.35812 -49.9401,0.005 -49.940105,0.005 z m 77.188675,14.0355 c 0.77652,-0.29798 0.17908,-0.91281 -2.37774,-2.44695 -5.786,-3.47171 -16.62581,-9.11226 -18.22696,-9.4845 -0.82311,-0.19135 -6.99889,2.87062 -15.10671,7.48997 -6.821666,3.88656 -7.164855,4.19406 -5.06283,4.53622 1.135467,0.18483 40.28273,0.0939 40.77424,-0.0947 z M 94.397105,151.9934 c 5.915595,-3.2324 14.339405,-8.02058 16.189275,-9.20213 0.76399,-0.48798 1.38907,-1.0634 1.38907,-1.27873 0,-0.21533 -1.10133,-1.03514 -2.4474,-1.8218 -6.23989,-3.64668 -19.763352,-10.75785 -20.458412,-10.75785 -0.188026,0 -0.428337,0.26789 -0.534025,0.59531 -0.244848,0.75855 -0.236622,23.71831 0.0088,24.49148 0.100862,0.31779 0.386705,0.57779 0.635209,0.57779 0.248505,0 2.596383,-1.17183 5.21751,-2.60407 z m 50.008875,1.61188 c 0.28703,-0.63901 0.43093,-23.02815 0.15433,-24.01093 -0.19021,-0.67579 -0.34512,-0.78821 -1.04231,-0.75648 -1.3636,0.0621 -21.21787,11.29966 -21.87706,12.38249 -0.21771,0.35763 -0.11252,0.5774 0.52096,1.0884 1.75134,1.41271 20.61212,11.73498 21.46909,11.74977 0.31186,0.005 0.6606,-0.19858 0.77499,-0.45325 z m -23.51627,-16.59203 c 5.29585,-2.66792 15.47787,-8.43896 15.80549,-8.95834 0.14556,-0.23076 0.16965,-0.51457 0.0536,-0.63069 -0.24869,-0.24871 -39.293543,-0.47518 -40.256497,-0.23349 -0.940861,0.23614 -0.810075,0.84536 0.335796,1.56419 4.141861,2.59827 18.788171,10.23213 19.631331,10.23213 0.28177,0 2.27542,-0.88821 4.43033,-1.9738 z"
         id="path25"
         inkscape:connector-curvature="0" />
      <path
         style="fill:#6f2f16;stroke-width:0.26458335"
         d="m 91.382027,158.0506 c -3.447293,-0.12392 -4.107593,-0.21523 -4.393872,-0.6076 -0.475087,-0.65114 -0.774834,-14.07467 -0.530826,-23.77199 0.159473,-6.33777 0.260857,-7.70221 0.592778,-7.97769 0.315921,-0.26219 6.462935,-0.33231 29.133183,-0.33231 15.80303,0 29.0602,0.0916 29.46038,0.20348 l 0.72761,0.20348 v 15.55481 c 0,13.0118 -0.0614,15.63877 -0.37533,16.06839 -0.36143,0.49458 -0.93694,0.5198 -15.54427,0.68128 -17.61367,0.19472 -33.288951,0.18595 -39.069653,-0.0219 z m 46.188343,-1.98534 c 0.77652,-0.29798 0.17908,-0.91281 -2.37774,-2.44695 -5.786,-3.47171 -16.62581,-9.11226 -18.22696,-9.4845 -0.82311,-0.19135 -6.99889,2.87062 -15.10671,7.48997 -6.821666,3.88656 -7.164855,4.19406 -5.06283,4.53622 1.135467,0.18483 40.28273,0.0939 40.77424,-0.0947 z M 94.397105,151.9934 c 5.915595,-3.2324 14.339405,-8.02058 16.189275,-9.20213 0.76399,-0.48798 1.38907,-1.0634 1.38907,-1.27873 0,-0.21533 -1.10133,-1.03514 -2.4474,-1.8218 -6.23989,-3.64668 -19.763352,-10.75785 -20.458412,-10.75785 -0.188026,0 -0.428337,0.26789 -0.534025,0.59531 -0.244848,0.75855 -0.236622,23.71831 0.0088,24.49148 0.100862,0.31779 0.386705,0.57779 0.635209,0.57779 0.248505,0 2.596383,-1.17183 5.21751,-2.60407 z m 50.008875,1.61188 c 0.28703,-0.63901 0.43093,-23.02815 0.15433,-24.01093 -0.19021,-0.67579 -0.34512,-0.78821 -1.04231,-0.75648 -1.3636,0.0621 -21.21787,11.29966 -21.87706,12.38249 -0.21771,0.35763 -0.11252,0.5774 0.52096,1.0884 1.75134,1.41271 20.61212,11.73498 21.46909,11.74977 0.31186,0.005 0.6606,-0.19858 0.77499,-0.45325 z m -23.51627,-16.59203 c 5.29585,-2.66792 15.47787,-8.43896 15.80549,-8.95834 0.14556,-0.23076 0.16965,-0.51457 0.0536,-0.63069 -0.24869,-0.24871 -39.293543,-0.47518 -40.256497,-0.23349 -0.940861,0.23614 -0.810075,0.84536 0.335796,1.56419 4.141861,2.59827 18.788171,10.23213 19.631331,10.23213 0.28177,0 2.27542,-0.88821 4.43033,-1.9738 z"
         id="path23"
         inkscape:connector-curvature="0" />
    </g>
  </g>
</svg>
