<?xml version="1.0" encoding="UTF-8" standalone="no"?>
<svg
   xmlns:dc="http://purl.org/dc/elements/1.1/"
   xmlns:cc="http://creativecommons.org/ns#"
   xmlns:rdf="http://www.w3.org/1999/02/22-rdf-syntax-ns#"
   xmlns:svg="http://www.w3.org/2000/svg"
   xmlns="http://www.w3.org/2000/svg"
   xmlns:sodipodi="http://sodipodi.sourceforge.net/DTD/sodipodi-0.dtd"
   xmlns:inkscape="http://www.inkscape.org/namespaces/inkscape"
   width="115.09375mm"
   height="70.117325mm"
   viewBox="0 0 115.09375 70.117325"
   version="1.1"
   id="svg8"
   sodipodi:docname="1.3.svg"
   inkscape:version="0.92.4 (5da689c313, 2019-01-14)">
  <sodipodi:namedview
     pagecolor="#ffffff"
     bordercolor="#666666"
     borderopacity="1"
     objecttolerance="10"
     gridtolerance="10"
     guidetolerance="10"
     inkscape:pageopacity="0"
     inkscape:pageshadow="2"
     inkscape:window-width="1920"
     inkscape:window-height="1001"
     id="namedview20"
     showgrid="false"
     inkscape:zoom="0.89053122"
     inkscape:cx="217.5"
     inkscape:cy="132.50518"
     inkscape:window-x="-9"
     inkscape:window-y="-9"
     inkscape:window-maximized="1"
     inkscape:current-layer="svg8" />
  <defs
     id="defs2">
    <clipPath
       clipPathUnits="userSpaceOnUse"
       id="clipPath45">
      <rect
         style="fill:#d42aff;stroke:#000000;stroke-width:0.26458332"
         id="rect47"
         width="114.08452"
         height="66.480537"
         x="37.714962"
         y="77.05558" />
    </clipPath>
    <clipPath
       clipPathUnits="userSpaceOnUse"
       id="clipPath29">
      <g
         id="g34"
         transform="matrix(1.2401761,0,0,1.1866579,16.978017,6.3881716)">
        <path
           d="m 96.169351,60.113044 v 54.896286 c 4.599859,-6.95552 12.626939,-13.2824 11.893429,-28.737904 -1.29091,-12.341721 -6.32653,-19.609942 -11.893429,-26.158382 z m -78.790932,10e-6 78.790932,-10e-6 v 54.896286 l -78.790932,2e-5 z"
           style="fill:#d5ffe6;stroke:#000000;stroke-width:0.26458332px;stroke-linecap:butt;stroke-linejoin:miter;stroke-opacity:1"
           id="path32" />
      </g>
    </clipPath>
  </defs>
  <metadata
     id="metadata5">
    <rdf:RDF>
      <cc:Work
         rdf:about="">
        <dc:format>image/svg+xml</dc:format>
        <dc:type
           rdf:resource="http://purl.org/dc/dcmitype/StillImage" />
        <dc:title></dc:title>
      </cc:Work>
    </rdf:RDF>
  </metadata>
  <g
     transform="matrix(0.99918541,0,0,0.9983267,-0.58823902,-0.12022344)"
     id="g35">
    <path
       id="path53"
       d="M 0.58871859,35.296613 V 0.2393195 H 58.135594 115.68247 V 35.296613 70.353905 H 58.135594 0.58871859 Z"
       style="fill:#fefefe;stroke-width:0.26458335" />
    <path
       id="path51"
       d="M 0.58871859,35.296613 V 0.2393195 H 50.731711 100.87471 l 1.15218,1.2024902 c 2.44381,2.5505033 6.55212,8.8841363 8.76621,13.5145493 1.31554,2.751243 2.79142,6.853697 3.58788,9.973122 1.23446,4.834921 1.60339,12.227581 0.90463,18.127266 -0.66873,5.64624 -3.13792,11.879194 -6.79137,17.143386 -3.29699,4.750586 -6.97273,9.589403 -7.29771,9.60685 -0.1819,0.0098 -0.33073,0.136818 -0.33073,0.282339 0,0.175459 -16.889233,0.264583 -50.13854,0.264583 H 0.58871859 Z"
       style="fill:#e3d3fd;stroke-width:0.26458335" />
    <path
       id="path49"
       d="M 0.58871859,35.297298 V 0.2393195 L 50.528823,0.2477345 c 38.839986,0.006544 50.033387,0.0800551 50.359767,0.33072919 0.9413,0.72293821 4.60989,5.73633061 6.3524,8.68100531 3.61697,6.112324 6.01337,12.089679 7.09728,17.702768 0.29505,1.527969 0.68214,3.373438 0.8602,4.101042 0.49833,2.036358 0.40938,8.783786 -0.1552,11.773959 -1.02343,5.420304 -2.598,10.202183 -4.4432,13.49375 -1.2536,2.236232 -3.55912,5.561211 -6.87975,9.921876 l -3.02219,3.96875 -50.054703,0.06683 -50.05470841,0.06683 z M 67.441638,47.204088 c 3.83591,-1.139142 6.175078,-5.724046 4.993682,-9.787904 -0.608579,-2.093444 -3.083954,-4.647906 -4.958035,-5.116444 -2.740054,-0.685035 -5.172774,-0.09634 -7.11699,1.72225 -1.768666,1.654379 -2.448941,3.482877 -2.295268,6.169414 0.131098,2.291869 0.586687,3.347668 2.149858,4.98216 2.158119,2.256584 4.37143,2.878463 7.226753,2.030524 z"
       style="fill:#ad78fc;stroke-width:0.26458335" />
    <path
       id="path47"
       d="M 0.58871859,35.296613 V 0.2393195 l 49.94010441,1.9377e-4 49.940107,1.9378e-4 1.83128,2.27008375 c 2.78685,3.454614 4.47183,6.1584894 6.9116,11.0909872 2.5469,5.149108 3.78399,8.650423 4.72087,13.361459 1.39357,7.00753 1.43185,12.7204 0.12575,18.76781 -1.57686,7.30106 -3.29233,10.754778 -9.31206,18.747761 -1.50243,1.994927 -3.06554,4.133155 -3.47358,4.751618 l -0.74189,1.124479 H 50.559808 0.58871859 Z M 64.743877,51.027505 c 3.268951,-0.374473 6.22817,-1.168567 8.751898,-2.348537 2.444988,-1.143156 3.046958,-1.787784 3.800769,-4.070104 1.933898,-5.85529 0.798007,-10.554648 -3.596569,-14.879569 -1.845503,-1.816251 -3.635316,-2.682478 -6.303965,-3.050973 -4.626443,-0.638829 -7.653837,0.355033 -10.87233,3.569273 -4.213256,4.20769 -5.210391,9.973173 -2.65784,15.367768 0.972365,2.055008 3.129185,4.592659 4.461635,5.249421 1.011261,0.498448 3.037157,0.549825 6.416402,0.162721 z"
       style="fill:#6301f5;stroke-width:0.26458335" />
    <path
       id="path45"
       d="M 0.58871859,35.296613 V 0.2393195 l 49.94010441,1.9377e-4 49.940107,1.9378e-4 1.83128,2.27008375 c 2.78685,3.454614 4.47183,6.1584894 6.9116,11.0909872 2.5469,5.149108 3.78399,8.650423 4.72087,13.361459 1.39357,7.00753 1.43185,12.7204 0.12575,18.76781 -1.57686,7.30106 -3.29233,10.754778 -9.31206,18.747761 -1.50243,1.994927 -3.06554,4.133155 -3.47358,4.751618 l -0.74189,1.124479 H 50.559808 0.58871859 Z M 67.538105,51.207149 c 1.58587,-0.253 3.355239,-0.76114 4.7625,-1.367734 1.231535,-0.530844 2.596343,-1.066464 3.032905,-1.19026 3.915402,-1.110306 6.513378,-2.684645 9.339054,-5.659348 2.278417,-2.39858 2.428401,-2.938727 1.801299,-6.487134 -0.896538,-5.072988 -2.517966,-8.62302 -5.187228,-11.357153 -1.210101,-1.239509 -1.878578,-1.660943 -3.96875,-2.502053 -6.757889,-2.719453 -8.163099,-3.019557 -15.276626,-3.262549 l -5.090168,-0.173876 -1.783919,0.901035 c -2.166805,1.094427 -6.110843,4.851777 -7.710059,7.34511 -3.781552,5.895809 -4.505438,14.200284 -1.819711,20.875804 0.669218,1.663379 1.373965,2.286889 3.409251,3.016255 1.301264,0.466323 2.005706,0.497602 8.692066,0.385956 4.649165,-0.07763 8.187047,-0.26683 9.799386,-0.524053 z"
       style="fill:#900506;stroke-width:0.26458335" />
    <path
       id="path43"
       d="M 0.58871859,35.296613 V 0.2393195 l 49.94010441,0.004969 49.940107,0.004969 2.08197,2.7832606 c 5.99141,8.0095279 10.06508,17.1441349 11.41265,25.5911769 1.01242,6.346222 0.97029,11.210801 -0.14727,17.00183 -1.32541,6.868123 -3.59462,11.582151 -9.08399,18.870975 -1.49469,1.984645 -3.05146,4.114462 -3.4595,4.732925 l -0.74189,1.124479 H 50.559808 0.58871859 Z M 62.898094,66.820199 c 10.675294,-2.36551 19.073426,-9.719112 23.271104,-20.37673 0.914514,-2.321885 0.633804,-2.742068 -0.968391,-1.449544 -1.680022,1.355305 -5.464408,3.550122 -7.247419,4.203261 -4.157877,1.52308 -5.134806,1.839513 -6.853211,2.219802 -2.945725,0.651901 -10.912568,1.241332 -16.739148,1.238456 -2.949136,-0.0016 -5.480415,-0.07579 -5.625065,-0.165192 -0.144651,-0.0894 -1.717408,-0.272942 -3.495014,-0.407874 -2.527654,-0.191863 -3.838858,-0.446403 -6.016598,-1.167974 -1.531525,-0.507455 -3.737092,-1.205556 -4.901258,-1.551332 -1.164167,-0.345776 -3.043563,-1.061466 -4.176438,-1.590421 -2.501601,-1.16803 -2.71195,-0.963419 -1.49393,1.453161 3.317534,6.582053 9.358146,12.569566 15.429008,15.293377 2.103316,0.943695 5.492213,2.043409 7.836151,2.542871 2.186909,0.466 8.403686,0.329065 10.980209,-0.241861 z m 4.640011,-15.61305 c 1.58587,-0.253 3.355239,-0.76114 4.7625,-1.367734 1.231535,-0.530844 2.596343,-1.066464 3.032905,-1.19026 3.915402,-1.110306 6.513378,-2.684645 9.339054,-5.659348 2.278417,-2.39858 2.428401,-2.938727 1.801299,-6.487134 -0.896538,-5.072988 -2.517966,-8.62302 -5.187228,-11.357153 -1.210101,-1.239509 -1.878578,-1.660943 -3.96875,-2.502053 -6.757889,-2.719453 -8.163099,-3.019557 -15.276626,-3.262549 l -5.090168,-0.173876 -1.783919,0.901035 c -2.166805,1.094427 -6.110843,4.851777 -7.710059,7.34511 -3.781552,5.895809 -4.505438,14.200284 -1.819711,20.875804 0.669218,1.663379 1.373965,2.286889 3.409251,3.016255 1.301264,0.466323 2.005706,0.497602 8.692066,0.385956 4.649165,-0.07763 8.187047,-0.26683 9.799386,-0.524053 z M 87.107469,25.895558 c 0,-1.561652 -2.442671,-7.149023 -4.413729,-10.095974 C 80.985264,13.245221 77.399985,9.5029131 74.804344,7.5646441 68.930808,3.1786394 61.21891,1.0514197 53.886621,1.7947812 44.426539,2.7538625 36.382489,7.6470401 31.088472,15.662844 c -1.83996,2.785934 -4.262699,7.726725 -3.944744,8.044681 0.09755,0.09755 0.978911,-0.200885 1.958576,-0.663192 2.445392,-1.15399 11.867208,-4.153889 14.613498,-4.652927 3.446523,-0.62628 12.487058,-1.219648 13.688475,-0.898432 0.547746,0.146447 2.960431,0.363097 5.361525,0.481445 5.977125,0.294607 8.1163,0.731117 12.964583,2.645491 0.654844,0.258569 1.839611,0.660959 2.632816,0.894201 1.771277,0.520843 6.036831,2.85428 7.366527,4.029798 1.152657,1.019007 1.377741,1.076456 1.377741,0.351649 z"
       style="fill:#220054;stroke-width:0.26458335" />
    <path
       id="path41"
       d="M 0.58871859,35.295927 V 0.23794871 L 50.661114,0.30477994 c 33.160203,0.0442587 50.072576,0.15619553 50.072936,0.33141458 2.6e-4,0.14552083 0.64633,1.03848958 1.43563,1.98437508 4.18465,5.0148254 9.00679,14.4428434 10.74298,21.0041324 2.47,9.33452 2.30977,19.001046 -0.45166,27.247892 -1.5562,4.647481 -2.74838,6.624834 -9.00616,14.937688 -1.56949,2.084914 -2.85362,3.960148 -2.85362,4.167188 0,0.324196 -6.939398,0.376435 -50.006251,0.376435 H 0.58871859 Z M 62.898094,66.820199 c 10.675294,-2.36551 19.073426,-9.719112 23.271104,-20.37673 0.914514,-2.321885 0.633804,-2.742068 -0.968391,-1.449544 -1.680022,1.355305 -5.464408,3.550122 -7.247419,4.203261 -4.157877,1.52308 -5.134806,1.839513 -6.853211,2.219802 -2.945725,0.651901 -10.912568,1.241332 -16.739148,1.238456 -2.949136,-0.0016 -5.480415,-0.07579 -5.625065,-0.165192 -0.144651,-0.0894 -1.717408,-0.272942 -3.495014,-0.407874 -2.527654,-0.191863 -3.838858,-0.446403 -6.016598,-1.167974 -1.531525,-0.507455 -3.737092,-1.205556 -4.901258,-1.551332 -1.164167,-0.345776 -3.043563,-1.061466 -4.176438,-1.590421 -2.501601,-1.16803 -2.71195,-0.963419 -1.49393,1.453161 3.317534,6.582053 9.358146,12.569566 15.429008,15.293377 2.103316,0.943695 5.492213,2.043409 7.836151,2.542871 2.186909,0.466 8.403686,0.329065 10.980209,-0.241861 z M 63.472599,51.96489 c 2.739959,-0.218544 5.32891,-0.470464 5.753222,-0.559827 1.209172,-0.254656 8.967309,-3.17473 10.52549,-3.961673 0.771668,-0.389723 1.925405,-1.066731 2.56386,-1.504463 1.490282,-1.021755 4.542655,-3.753017 5.056881,-4.524896 0.218281,-0.327652 0.657233,-0.994019 0.975445,-1.480815 0.753655,-1.152927 1.248621,-4.139182 1.026707,-6.194399 -0.494535,-4.580094 -5.050366,-9.063213 -11.996933,-11.805456 -1.204264,-0.475399 -2.253086,-0.967133 -2.330717,-1.092743 -0.07763,-0.125609 -0.433393,-0.228381 -0.790583,-0.228381 -0.357188,0 -0.856176,-0.112712 -1.108864,-0.25047 -0.79035,-0.430878 -3.740602,-1.336894 -4.363087,-1.339894 -0.326843,-0.0016 -1.18051,-0.180705 -1.897042,-0.398067 -0.932352,-0.282832 -2.0232,-0.358125 -3.836458,-0.264802 -1.393521,0.07172 -3.577151,0.0037 -4.852511,-0.151093 -2.674924,-0.324722 -9.175012,0.06655 -12.233249,0.736374 -1.018646,0.223108 -2.387864,0.499838 -3.042708,0.614955 -0.654844,0.115118 -2.615221,0.782866 -4.356394,1.483885 -3.91124,1.574719 -4.984049,2.513019 -6.167641,5.394342 -1.386544,3.375386 -1.922566,6.602953 -2.086467,12.563312 -0.09661,3.513426 -0.04913,5.536859 0.141303,6.021309 0.405919,1.032629 2.804946,2.49547 6.668667,4.06632 4.814454,1.957382 4.892889,1.981065 7.917199,2.390685 6.93671,0.939525 11.302724,1.054585 18.43388,0.485797 z m 23.63487,-26.069332 c 0,-1.561652 -2.442671,-7.149023 -4.413729,-10.095974 C 80.985264,13.245221 77.399985,9.5029131 74.804344,7.5646441 68.930808,3.1786394 61.21891,1.0514197 53.886621,1.7947812 44.426539,2.7538625 36.382489,7.6470401 31.088472,15.662844 c -1.83996,2.785934 -4.262699,7.726725 -3.944744,8.044681 0.09755,0.09755 0.978911,-0.200885 1.958576,-0.663192 2.445392,-1.15399 11.867208,-4.153889 14.613498,-4.652927 3.446523,-0.62628 12.487058,-1.219648 13.688475,-0.898432 0.547746,0.146447 2.960431,0.363097 5.361525,0.481445 5.977125,0.294607 8.1163,0.731117 12.964583,2.645491 0.654844,0.258569 1.839611,0.660959 2.632816,0.894201 1.771277,0.520843 6.036831,2.85428 7.366527,4.029798 1.152657,1.019007 1.377741,1.076456 1.377741,0.351649 z"
       style="fill:#6e0000;stroke-width:0.26458335" />
    <path
       id="path39"
       d="M 0.58871859,35.296613 V 0.2393195 H 15.80226 c 8.367448,0 15.213542,0.0627936 15.213542,0.13954138 0,0.0767478 -1.223158,1.43089062 -2.718131,3.00920622 C 22.34681,9.670682 19.100299,15.530843 16.670893,24.375152 c -0.563571,2.05169 -0.601697,2.69222 -0.602835,10.12771 -0.0012,7.883727 0.0039,7.956305 0.747171,10.713266 1.543563,5.725078 4.446322,11.90625 7.525405,16.024694 0.97298,1.301414 3.224604,3.785484 5.003607,5.520155 1.779003,1.734672 3.173508,3.252719 3.098901,3.373438 -0.07461,0.120719 -7.272376,0.21949 -15.995038,0.21949 H 0.58871859 Z M 81.351307,70.178185 c -0.450045,-0.181456 0.119642,-0.875313 2.44887,-2.982616 6.500095,-5.880778 10.99771,-13.707518 13.389279,-23.299998 0.57458,-2.304613 0.62629,-3.052358 0.622123,-8.995834 -0.0051,-7.311231 -0.302141,-9.611504 -1.831105,-14.181229 C 93.614621,13.647512 89.069489,6.464298 84.11683,1.9689784 l -1.904153,-1.72832016 9.260417,0.0654765 c 6.319964,0.0446858 9.260416,0.15475045 9.260416,0.34662858 0,0.15463364 0.49845,0.87649428 1.10767,1.60413488 3.44787,4.1181051 8.15565,12.8236658 10.06926,18.6199218 3.14615,9.529565 3.48067,19.536586 0.94638,28.310418 -1.59448,5.520174 -2.96121,8.002688 -8.45466,15.356989 -2.09052,2.798654 -3.80094,5.250736 -3.80094,5.44907 0,0.298087 -1.639947,0.356986 -9.458856,0.33972 -5.202369,-0.01148 -9.608346,-0.08116 -9.791057,-0.154832 z M 49.205906,52.175514 c 0.327422,-0.06307 0.863203,-0.06307 1.190625,0 0.327422,0.06306 0.05953,0.114662 -0.595312,0.114662 -0.654844,0 -0.922735,-0.0516 -0.595313,-0.114662 z m -1.5875,-0.253087 c 0.181901,-0.0734 0.479557,-0.0734 0.661458,0 0.181901,0.0734 0.03307,0.133453 -0.330729,0.133453 -0.363802,0 -0.51263,-0.06005 -0.330729,-0.133453 z m -4.299479,-0.341808 c -1.65105,-0.222083 -10.586122,-3.22009 -12.63083,-4.238053 -1.826466,-0.90931 -2.631369,-1.499217 -4.883782,-3.579287 -2.386487,-2.203884 -3.406023,-3.68632 -3.919699,-5.699368 -0.712017,-2.790325 -0.745513,-3.410596 -0.276124,-5.113256 1.246862,-4.522867 3.588532,-7.158356 8.61356,-9.694342 1.95118,-0.984703 9.239581,-3.438069 12.507365,-4.210133 3.895624,-0.920401 14.132917,-1.639084 15.67076,-1.100126 0.648597,0.22731 0.475438,0.251642 -0.94688,0.133058 -2.199852,-0.18341 -9.051229,0.332968 -11.488537,0.865874 -1.018646,0.222722 -2.387864,0.499137 -3.042708,0.614254 -0.654844,0.115118 -2.615221,0.782866 -4.356394,1.483885 -3.91124,1.574719 -4.984049,2.513019 -6.167641,5.394342 -1.386544,3.375386 -1.922566,6.602953 -2.086467,12.563312 -0.09661,3.513426 -0.04913,5.536859 0.141303,6.021309 0.405919,1.032629 2.804946,2.49547 6.668667,4.06632 4.837554,1.966773 4.92229,1.992776 7.652615,2.348265 1.775151,0.231126 2.124914,0.326474 1.190625,0.32458 -0.727604,-0.0016 -1.918229,-0.08276 -2.645833,-0.180634 z m 27.648958,-0.616905 c 0.07276,-0.07774 1.754521,-0.737828 3.737248,-1.466866 3.920522,-1.44155 5.815242,-2.327391 7.610038,-3.557921 1.490282,-1.021755 4.542655,-3.753017 5.056881,-4.524896 0.218281,-0.327652 0.657233,-0.994019 0.975445,-1.480815 0.753655,-1.152927 1.248621,-4.139182 1.026707,-6.194399 -0.494535,-4.580094 -5.050366,-9.063213 -11.996933,-11.805456 -3.01208,-1.189057 -3.005325,-1.475916 0.0084,-0.357887 3.58139,1.328609 7.014438,3.476424 9.390444,5.874941 2.773132,2.799403 3.100231,3.602934 3.086306,7.581614 -0.01204,3.435816 -0.173458,4.0663 -1.515557,5.919015 -0.853996,1.178904 -1.01273,1.338829 -3.465626,3.49159 -1.357969,1.1918 -5.671556,3.950854 -6.176894,3.950854 -0.142891,0 -1.078857,0.341818 -2.079921,0.759592 -2.281074,0.951966 -5.952977,2.127317 -5.656578,1.810634 z m 2.288024,-30.532898 c -0.09978,-0.09978 -0.982829,-0.449426 -1.962327,-0.776988 -0.979498,-0.327561 -1.606291,-0.603109 -1.392875,-0.612328 0.358087,-0.01547 2.057956,0.5258 3.316137,1.055918 0.291041,0.122627 0.767291,0.274815 1.058333,0.338196 0.410557,0.08941 0.375962,0.122118 -0.154339,0.145931 -0.375931,0.01688 -0.765149,-0.05095 -0.864929,-0.150729 z m -5.264586,-1.581308 c 0.181901,-0.0734 0.479557,-0.0734 0.661458,0 0.181901,0.0734 0.03307,0.133452 -0.330729,0.133452 -0.363802,0 -0.51263,-0.06005 -0.330729,-0.133452 z m -7.668178,-0.54569 c 0.475549,-0.05889 1.189924,-0.05767 1.5875,0.0027 0.397576,0.06037 0.0085,0.108551 -0.864635,0.107066 -0.873125,-0.0015 -1.198414,-0.05088 -0.722865,-0.109766 z m 5.832631,0.01101 c 0.190995,-0.07643 0.419198,-0.06703 0.507119,0.02089 0.08792,0.08792 -0.06835,0.150453 -0.347266,0.138965 -0.308226,-0.0127 -0.370919,-0.07539 -0.159853,-0.159853 z"
       style="fill:#4e0000;stroke-width:0.26458335" />
    <path
       id="path37"
       d="M 0.58871859,35.296613 V 0.2393195 H 8.9360243 17.28333 L 15.589563,2.6867154 C 11.196762,9.0340624 8.1968798,16.07448 6.7044438,23.539186 4.8719222,32.704894 5.4326187,42.911363 8.2407313,51.50452 c 1.6725945,5.118335 5.2266147,12.00876 8.2283407,15.952849 1.367266,1.796507 1.588971,2.47119 0.899049,2.735937 -0.230183,0.08833 -4.099715,0.160599 -8.5989586,0.160599 H 0.58871859 Z M 96.314715,70.174021 c -0.652283,-0.171752 -0.353161,-0.789776 2.296467,-4.7448 4.624708,-6.903175 7.633868,-14.561395 8.773138,-22.3274 0.49831,-3.396803 0.56736,-12.602261 0.12007,-16.007292 C 106.33709,18.208407 103.6493,11.0659 98.66798,3.6127571 L 96.413338,0.2393195 h 1.907212 1.90721 l 1.68774,2.2787498 c 3.61265,4.8777449 7.75763,12.6159367 9.50196,17.7390717 1.96691,5.776863 2.77513,10.656741 2.77571,16.759263 5.3e-4,6.594348 -0.96367,11.641384 -3.22752,16.892435 -1.57278,3.648107 -2.68782,5.450782 -6.65395,10.757451 -2.04076,2.730532 -3.71048,5.127281 -3.71048,5.32611 0,0.275198 -0.45796,0.354179 -1.918231,0.330814 -1.055026,-0.01688 -2.120749,-0.08402 -2.368274,-0.149193 z M 43.517364,51.386103 c 0.254662,-0.06655 0.671381,-0.06655 0.926042,0 0.254662,0.06655 0.0463,0.121002 -0.463021,0.121002 -0.509323,0 -0.717682,-0.05445 -0.463021,-0.121002 z m -2.447395,-0.495708 c -0.589413,-0.223006 -0.733682,-0.352393 -0.396875,-0.35593 0.291041,-0.0031 0.826823,0.164597 1.190625,0.372565 0.808249,0.462036 0.451627,0.454565 -0.79375,-0.01664 z M 38.953302,50.11328 c -0.363802,-0.207968 -0.542396,-0.378124 -0.396875,-0.378124 0.145521,0 0.56224,0.170156 0.926042,0.378124 0.363802,0.207968 0.542395,0.378124 0.396875,0.378124 -0.145521,0 -0.56224,-0.170156 -0.926042,-0.378124 z m -2.778125,-1.063387 c -0.873125,-0.359675 -1.689018,-0.654505 -1.813097,-0.65518 -0.124076,-7.94e-4 -1.218435,-0.466484 -2.431905,-1.035137 -2.538849,-1.189744 -5.220536,-3.027051 -6.523914,-4.469734 -1.349771,-1.494036 -2.857126,-3.86946 -2.857126,-4.502515 0,-0.307274 -0.185794,-1.105921 -0.412875,-1.774775 -0.374886,-1.104201 -0.374206,-1.403075 0.0074,-3.248258 0.550788,-2.663333 1.223268,-3.995399 2.968907,-5.880899 2.081672,-2.248454 5.934444,-4.355706 10.798042,-5.905929 1.164166,-0.371067 2.937817,-0.978168 3.941445,-1.349115 3.217558,-1.189227 2.52463,-0.706585 -1.010955,0.704155 -4.193691,1.673332 -5.234482,2.562808 -6.443961,5.507105 -1.509715,3.675182 -1.988712,6.805523 -2.017382,13.184008 l -0.0254,5.649923 0.926042,0.785525 c 0.77461,0.657068 3.309337,1.986028 6.35,3.32931 1.323697,0.584771 0.08869,0.297508 -1.455209,-0.338484 z m 46.698958,-3.402135 c 0,-0.05494 0.20836,-0.2633 0.463021,-0.46302 0.419645,-0.329108 0.429003,-0.319749 0.0999,0.0999 -0.345644,0.440729 -0.562917,0.580887 -0.562917,0.363124 z m 1.719792,-1.452253 c 0.436562,-0.48302 1.27,-1.244777 1.852083,-1.692793 1.239576,-0.954072 0.840499,-0.525542 -1.190625,1.278498 -0.844791,0.75034 -1.122251,0.924124 -0.661458,0.414295 z m 2.778125,-2.876989 c 0,-0.147711 0.185094,-0.422182 0.411321,-0.609933 0.626922,-0.520301 0.987624,-1.300467 1.340051,-2.898429 0.17652,-0.800364 0.330261,-1.157552 0.341643,-0.79375 0.03531,1.128438 -0.478665,2.539283 -1.30293,3.576487 -0.434546,0.546807 -0.790085,0.873337 -0.790085,0.725625 z m 2.168247,-6.021903 c 0.0054,-0.436563 0.06469,-0.583126 0.131773,-0.325695 0.06708,0.257432 0.06267,0.61462 -0.0098,0.79375 -0.07248,0.179131 -0.127362,-0.03149 -0.12197,-0.468055 z m -0.276521,-2.377454 c -0.06467,-1.288589 -1.370595,-3.52642 -3.308133,-5.668798 l -1.815931,-2.007916 2.057413,2.116667 c 2.208938,2.272559 3.406572,4.364562 3.216834,5.61911 l -0.110541,0.73089 z m -8.654177,-9.543393 c -0.493189,-0.395127 -0.489945,-0.400012 0.08172,-0.122983 0.327422,0.158669 0.595312,0.343831 0.595312,0.411471 0,0.202465 -0.137215,0.143997 -0.677034,-0.288488 z M 78.640802,22.46432 c -0.218281,-0.141064 -0.277813,-0.25648 -0.132292,-0.25648 0.145521,0 0.443177,0.115416 0.661459,0.25648 0.218281,0.141065 0.277812,0.256481 0.132291,0.256481 -0.145521,0 -0.443177,-0.115416 -0.661458,-0.256481 z m -6.399609,-2.56199 c 0.190994,-0.07643 0.4192,-0.06703 0.507118,0.02089 0.08792,0.08792 -0.06835,0.150452 -0.347265,0.138964 -0.308226,-0.0127 -0.37092,-0.07539 -0.159853,-0.159853 z M 43.715802,19.143346 c 0.654844,-0.206338 1.488281,-0.368931 1.852083,-0.361318 0.416375,0.0087 0.171294,0.149947 -0.661458,0.381181 -1.733873,0.481453 -2.728942,0.464851 -1.190625,-0.01986 z m 2.844271,-0.558421 c 0.181901,-0.0734 0.479557,-0.0734 0.661458,0 0.181901,0.0734 0.03307,0.133452 -0.330729,0.133452 -0.363802,0 -0.51263,-0.06005 -0.330729,-0.133452 z m 2.518576,-0.272709 c 0.257432,-0.06708 0.61462,-0.06267 0.79375,0.0098 0.179131,0.07248 -0.03149,0.127362 -0.468055,0.12197 -0.436563,-0.0054 -0.583126,-0.06469 -0.325695,-0.131774 z m 3.037674,-0.267954 c 0.327422,-0.06306 0.863203,-0.06306 1.190625,0 0.327422,0.06306 0.05953,0.114662 -0.595313,0.114662 -0.654843,0 -0.922734,-0.0516 -0.595312,-0.114662 z m 5.428993,0.0034 c 0.257432,-0.06708 0.614619,-0.06267 0.79375,0.0098 0.179131,0.07248 -0.03149,0.127362 -0.468056,0.12197 -0.436562,-0.0054 -0.583126,-0.06469 -0.325694,-0.131774 z"
       style="fill:#2b0010;stroke-width:0.26458335" />
  </g>
</svg>
