<?xml version="1.0" encoding="UTF-8" standalone="no"?>
<svg
   xmlns:dc="http://purl.org/dc/elements/1.1/"
   xmlns:cc="http://creativecommons.org/ns#"
   xmlns:rdf="http://www.w3.org/1999/02/22-rdf-syntax-ns#"
   xmlns:svg="http://www.w3.org/2000/svg"
   xmlns="http://www.w3.org/2000/svg"
   xmlns:sodipodi="http://sodipodi.sourceforge.net/DTD/sodipodi-0.dtd"
   xmlns:inkscape="http://www.inkscape.org/namespaces/inkscape"
   id="svg8"
   version="1.1"
   viewBox="0 0 115.09375 70.114586"
   height="70.114586mm"
   width="115.09375mm"
   sodipodi:docname="1.5.svg"
   inkscape:version="0.92.4 (5da689c313, 2019-01-14)">
  <sodipodi:namedview
     pagecolor="#ffffff"
     bordercolor="#666666"
     borderopacity="1"
     objecttolerance="10"
     gridtolerance="10"
     guidetolerance="10"
     inkscape:pageopacity="0"
     inkscape:pageshadow="2"
     inkscape:window-width="1920"
     inkscape:window-height="1001"
     id="namedview15"
     showgrid="false"
     fit-margin-top="0"
     fit-margin-left="0"
     fit-margin-right="0"
     fit-margin-bottom="0"
     inkscape:zoom="1.2615122"
     inkscape:cx="348.59001"
     inkscape:cy="166.89594"
     inkscape:window-x="-9"
     inkscape:window-y="-9"
     inkscape:window-maximized="1"
     inkscape:current-layer="svg8" />
  <defs
     id="defs2">
    <clipPath
       id="clipPath836"
       clipPathUnits="userSpaceOnUse">
      <rect
         y="89.213882"
         x="7.2319546"
         height="66.756836"
         width="114.2905"
         id="rect838"
         style="fill:#ff7f2a;stroke:#000000;stroke-width:0.26726338" />
    </clipPath>
    <clipPath
       id="clipPath22"
       clipPathUnits="userSpaceOnUse">
      <g
         transform="matrix(1.2018635,0,0,1.1787794,-10.511717,20.050684)"
         id="g26">
        <path
           id="path24"
           style="fill:#d5ffe6;stroke:#000000;stroke-width:0.26458332px;stroke-linecap:butt;stroke-linejoin:miter;stroke-opacity:1"
           d="m 96.169351,60.113044 v 54.896286 c 4.599859,-6.95552 12.626939,-13.2824 11.893429,-28.737904 -1.29091,-12.341721 -6.32653,-19.609942 -11.893429,-26.158382 z m -78.790932,10e-6 78.790932,-10e-6 v 54.896286 l -78.790932,2e-5 z"
           inkscape:connector-curvature="0" />
      </g>
    </clipPath>
  </defs>
  <metadata
     id="metadata5">
    <rdf:RDF>
      <cc:Work
         rdf:about="">
        <dc:format>image/svg+xml</dc:format>
        <dc:type
           rdf:resource="http://purl.org/dc/dcmitype/StillImage" />
        <dc:title></dc:title>
      </cc:Work>
    </rdf:RDF>
  </metadata>
  <g
     id="g28"
     transform="translate(-4.4446487,0.35390323)">
    <path
       style="fill:#fbfdf9;stroke-width:0.26458335"
       d="M 4.4446487,34.70339 V -0.35390323 H 61.991524 119.5384 V 34.70339 69.760683 H 61.991524 4.4446487 Z"
       id="path34"
       inkscape:connector-curvature="0" />
    <path
       style="fill:#53d100;stroke-width:0.26458335"
       d="M 4.4446487,34.70339 V -0.35390323 H 54.422017 104.39938 l 2.07622,2.57968763 c 6.71055,8.3378446 10.37823,16.0679096 12.2712,25.8630216 1.7186,8.892858 0.46569,18.073456 -3.54844,26.000865 -1.26785,2.503834 -3.17629,5.346761 -7.30163,10.876899 l -3.57187,4.78821 -49.940107,0.0029 -49.9401043,0.003 z"
       id="path32"
       inkscape:connector-curvature="0" />
    <path
       style="fill:#215400;stroke-width:0.26458335"
       d="M 18.996732,53.119721 18.335274,52.935672 V 33.292637 c 0,-15.862652 0.0664,-19.684063 0.345008,-19.856208 0.660646,-0.408192 12.004839,-0.559692 39.871658,-0.532479 28.937924,0.02826 33.194644,0.117957 33.787903,0.711978 0.446019,0.446593 0.669788,37.872571 0.233302,39.020614 l -0.273733,0.719973 -36.320611,-0.02637 C 36.002466,53.315637 19.360534,53.220946 18.996732,53.119721 Z"
       id="path30"
       inkscape:connector-curvature="0" />
  </g>
</svg>
