<?xml version="1.0" encoding="UTF-8" standalone="no"?>
<svg
   xmlns:dc="http://purl.org/dc/elements/1.1/"
   xmlns:cc="http://creativecommons.org/ns#"
   xmlns:rdf="http://www.w3.org/1999/02/22-rdf-syntax-ns#"
   xmlns:svg="http://www.w3.org/2000/svg"
   xmlns="http://www.w3.org/2000/svg"
   xmlns:sodipodi="http://sodipodi.sourceforge.net/DTD/sodipodi-0.dtd"
   xmlns:inkscape="http://www.inkscape.org/namespaces/inkscape"
   id="svg8"
   version="1.1"
   viewBox="0 0 115.09375 70.114586"
   height="70.114586mm"
   width="115.09375mm"
   sodipodi:docname="1.6.svg"
   inkscape:version="0.92.4 (5da689c313, 2019-01-14)">
  <sodipodi:namedview
     pagecolor="#ffffff"
     bordercolor="#666666"
     borderopacity="1"
     objecttolerance="10"
     gridtolerance="10"
     guidetolerance="10"
     inkscape:pageopacity="0"
     inkscape:pageshadow="2"
     inkscape:window-width="1920"
     inkscape:window-height="1001"
     id="namedview14"
     showgrid="false"
     fit-margin-top="0"
     fit-margin-left="0"
     fit-margin-right="0"
     fit-margin-bottom="0"
     inkscape:zoom="1.2615122"
     inkscape:cx="123.38298"
     inkscape:cy="81.24799"
     inkscape:window-x="-9"
     inkscape:window-y="-9"
     inkscape:window-maximized="1"
     inkscape:current-layer="svg8" />
  <defs
     id="defs2">
    <clipPath
       id="clipPath840"
       clipPathUnits="userSpaceOnUse">
      <rect
         y="95.486488"
         x="35.200378"
         height="66.9244"
         width="113.95083"
         id="rect842"
         style="fill:#225500;stroke:#000000;stroke-width:0.26097184" />
    </clipPath>
    <clipPath
       clipPathUnits="userSpaceOnUse"
       id="clipPath24">
      <g
         id="g28"
         inkscape:label="Ebene 1"
         transform="matrix(1.2357785,0,0,1.2588267,22.855379,9.2458236)">
        <path
           sodipodi:nodetypes="ccccccccc"
           inkscape:connector-curvature="0"
           d="m 96.169351,60.113044 v 54.896286 c 4.599859,-6.95552 12.626939,-13.2824 11.893429,-28.737904 -1.29091,-12.341721 -6.32653,-19.609942 -11.893429,-26.158382 z m -78.790932,10e-6 78.790932,-10e-6 v 54.896286 l -78.790932,2e-5 z"
           style="fill:#d5ffe6;stroke:#000000;stroke-width:0.26458332px;stroke-linecap:butt;stroke-linejoin:miter;stroke-opacity:1"
           id="path26" />
      </g>
    </clipPath>
  </defs>
  <metadata
     id="metadata5">
    <rdf:RDF>
      <cc:Work
         rdf:about="">
        <dc:format>image/svg+xml</dc:format>
        <dc:type
           rdf:resource="http://purl.org/dc/dcmitype/StillImage" />
        <dc:title></dc:title>
      </cc:Work>
    </rdf:RDF>
  </metadata>
  <g
     id="g29"
     transform="translate(-3.5548179,-1.7223686)">
    <path
       style="fill:#f9fafb;stroke-width:0.26458335"
       d="M 3.5548179,36.779662 V 1.7223686 H 61.101693 118.64857 V 36.779662 71.836955 H 61.101693 3.5548179 Z"
       id="path39"
       inkscape:connector-curvature="0" />
    <path
       style="fill:#7ee3fd;stroke-width:0.26458335"
       d="M 3.5548179,36.779662 V 1.7223686 H 53.552249 103.54968 l 0.89192,0.8919203 c 1.30634,1.3063425 4.62361,5.7815688 6.32798,8.5368761 6.35918,10.280375 8.87715,21.316018 7.5083,32.906904 -0.69964,5.92427 -2.5317,10.741742 -6.21334,16.338254 -1.63653,2.487708 -7.00217,9.757911 -8.00419,10.845319 l -0.54857,0.595313 H 53.533297 3.5548179 Z"
       id="path37"
       inkscape:connector-curvature="0" />
    <path
       style="fill:#29d2fd;stroke-width:0.26458335"
       d="M 3.5548179,36.779662 V 1.7223686 l 9.3265621,0.023365 9.326563,0.023365 2.506563,2.6886142 c 1.378611,1.478738 7.223804,7.5701772 12.989321,13.5365312 5.765517,5.966355 11.773416,12.246902 13.350888,13.956772 1.577472,1.709869 2.997798,3.108854 3.156283,3.108854 0.654188,0 4.372491,-2.50861 21.084593,-14.22504 C 94.39024,7.4480585 101.09607,2.8332108 102.47573,2.1298868 c 1.02877,-0.5244457 0.73968,-0.7352011 3.21357,2.342836 2.61216,3.2500828 5.89861,8.3300902 7.51413,11.6149002 1.82681,3.714455 3.58458,9.000683 4.54905,13.68058 0.64874,3.147912 0.7351,4.13716 0.7276,8.334375 -0.007,3.891503 -0.11619,5.270583 -0.59734,7.540626 -1.57174,7.415488 -4.13634,12.499578 -10.47703,20.769792 -1.33883,1.74625 -2.766,3.681016 -3.17148,4.299479 l -0.73723,1.12448 H 53.525907 3.5548179 Z"
       id="path35"
       inkscape:connector-curvature="0" />
    <path
       style="fill:#00647e;stroke-width:0.26458335"
       d="m 3.5548179,71.597157 c 0,-0.278114 5.2624871,-4.057517 17.7270831,-12.73121 19.012763,-13.23034 28.262755,-19.735748 30.250945,-21.275128 3.042277,-2.355522 2.955158,-2.293925 6.376903,-4.508673 C 59.64668,31.957905 68.457305,25.84718 77.488916,19.502758 93.211656,8.4580292 102.99667,1.7223686 103.31881,1.7223686 c 0.30912,0 4.15395,5.00728 6.24628,8.1347824 4.00701,5.989486 6.6359,12.382718 8.18739,19.911052 0.64874,3.147912 0.7351,4.13716 0.7276,8.334375 -0.007,3.891503 -0.11619,5.270583 -0.59734,7.540626 -1.57174,7.415488 -4.13634,12.499578 -10.47703,20.769792 -1.33883,1.74625 -2.766,3.681016 -3.17148,4.299479 l -0.73723,1.12448 H 53.525907 c -29.694239,0 -49.9710891,-0.0973 -49.9710891,-0.239798 z"
       id="path33"
       inkscape:connector-curvature="0" />
    <path
       style="fill:#004354;stroke-width:0.26458335"
       d="M 80.492267,61.981225 C 70.80403,52.06843 58.953874,39.791123 56.651785,37.281391 c -0.681249,-0.742696 -1.235258,-1.516602 -1.23113,-1.719792 0.0041,-0.203192 0.67668,-0.774636 1.494562,-1.269881 1.309209,-0.79275 10.907387,-7.47958 32.893768,-22.916334 3.56526,-2.5031882 7.999637,-5.5609437 9.854168,-6.7950126 1.854537,-1.2340688 3.293207,-2.3224345 3.197047,-2.4185904 -0.0962,-0.096156 0.0831,-0.1748291 0.39844,-0.1748291 0.31529,0 0.5435,0.1104156 0.50712,0.2453679 -0.0364,0.1349523 0.84801,1.4212599 1.96533,2.8584612 4.41185,5.67498 7.62892,11.312777 9.47673,16.60763 1.01122,2.897635 2.29453,8.05438 2.53636,10.191941 0.0978,0.864449 0.26441,1.518214 0.37023,1.452809 0.31422,-0.194194 0.52683,3.854876 0.35259,6.714847 -0.089,1.461495 -0.2632,2.594647 -0.38703,2.518116 -0.12384,-0.07653 -0.22623,0.254829 -0.22755,0.73636 -0.004,1.541102 -1.24229,6.403978 -2.35231,9.239313 -1.46207,3.734594 -3.75444,7.488384 -8.19504,13.419461 -2.05576,2.74578 -3.73775,5.188837 -3.73775,5.429012 0,0.394396 -0.65088,0.436685 -6.721297,0.436685 H 90.12473 Z"
       id="path31"
       inkscape:connector-curvature="0" />
  </g>
</svg>
