<?xml version="1.0" encoding="UTF-8" standalone="no"?>
<svg
   xmlns:dc="http://purl.org/dc/elements/1.1/"
   xmlns:cc="http://creativecommons.org/ns#"
   xmlns:rdf="http://www.w3.org/1999/02/22-rdf-syntax-ns#"
   xmlns:svg="http://www.w3.org/2000/svg"
   xmlns="http://www.w3.org/2000/svg"
   xmlns:sodipodi="http://sodipodi.sourceforge.net/DTD/sodipodi-0.dtd"
   xmlns:inkscape="http://www.inkscape.org/namespaces/inkscape"
   id="svg8"
   version="1.1"
   viewBox="0 0 115.09375 70.120522"
   height="70.120522mm"
   width="115.09375mm"
   sodipodi:docname="1.7.svg"
   inkscape:version="0.92.4 (5da689c313, 2019-01-14)">
  <sodipodi:namedview
     pagecolor="#ffffff"
     bordercolor="#666666"
     borderopacity="1"
     objecttolerance="10"
     gridtolerance="10"
     guidetolerance="10"
     inkscape:pageopacity="0"
     inkscape:pageshadow="2"
     inkscape:window-width="1920"
     inkscape:window-height="1001"
     id="namedview26"
     showgrid="false"
     fit-margin-top="0"
     fit-margin-left="0"
     fit-margin-right="0"
     fit-margin-bottom="0"
     inkscape:zoom="0.89202381"
     inkscape:cx="217.33986"
     inkscape:cy="140.35856"
     inkscape:window-x="-9"
     inkscape:window-y="-9"
     inkscape:window-maximized="1"
     inkscape:current-layer="svg8" />
  <defs
     id="defs2">
    <clipPath
       clipPathUnits="userSpaceOnUse"
       id="clipPath858">
      <rect
         style="fill:#004455;stroke:#000000;stroke-width:0.25777087"
         id="rect860"
         width="112.36466"
         height="65.119034"
         x="58.180664"
         y="142.73743" />
    </clipPath>
    <clipPath
       id="clipPath32"
       clipPathUnits="userSpaceOnUse">
      <g
         transform="matrix(1.2556887,0,0,1.2484351,-7.31275,54.669967)"
         id="g36">
        <path
           id="path34"
           style="fill:#d5ffe6;stroke:#000000;stroke-width:0.26458332px;stroke-linecap:butt;stroke-linejoin:miter;stroke-opacity:1"
           d="m 96.169351,60.113044 v 54.896286 c 4.599859,-6.95552 12.626939,-13.2824 11.893429,-28.737904 -1.29091,-12.341721 -6.32653,-19.609942 -11.893429,-26.158382 z m -78.790932,10e-6 78.790932,-10e-6 v 54.896286 l -78.790932,2e-5 z"
           inkscape:connector-curvature="0" />
      </g>
    </clipPath>
  </defs>
  <metadata
     id="metadata5">
    <rdf:RDF>
      <cc:Work
         rdf:about="">
        <dc:format>image/svg+xml</dc:format>
        <dc:type
           rdf:resource="http://purl.org/dc/dcmitype/StillImage" />
        <dc:title></dc:title>
      </cc:Work>
    </rdf:RDF>
  </metadata>
  <g
     id="g39"
     transform="translate(-3.2582097,1.2466995)">
    <path
       style="fill:#fdfdfd;stroke-width:0.26458335"
       d="M 3.2582097,33.813561 V -1.2437323 H 60.805085 118.35196 V 33.813561 68.870854 H 60.805085 3.2582097 Z"
       id="path67"
       inkscape:connector-curvature="0" />
    <path
       style="fill:#f9ecae;stroke-width:0.26458335"
       d="M 3.2582097,33.813561 V -1.2437323 H 19.92696 36.59571 V 33.395045 c 0,19.051329 0.07227,34.827111 0.160599,35.057293 0.145407,0.378929 -1.431287,0.418516 -16.66875,0.418516 H 3.2582097 Z m 54.5047093,6.945312 c 2.64e-4,-15.461589 0.07894,-31.2373705 0.174752,-35.0572925 l 0.174212,-6.9453128 22.513269,0.00841 c 17.281022,0.00646 22.610498,0.083323 22.931628,0.33072923 0.58225,0.44858449 5.45451,7.07215947 6.85436,9.31814817 3.42877,5.5012699 5.75576,11.5500759 7.20364,18.7252299 0.80677,3.998002 0.80172,10.983754 -0.0112,15.538876 -0.86256,4.833218 -2.89405,9.907861 -5.7202,14.288972 -0.90845,1.408295 -5.77869,8.129283 -8.09891,11.176612 l -0.554,0.727604 H 80.496408 57.762366 l 5.29e-4,-28.111981 z"
       id="path65"
       inkscape:connector-curvature="0" />
    <path
       style="fill:#f9e68e;stroke-width:0.26458335"
       d="M 3.2582097,33.813561 V -1.2437323 H 19.766361 c 14.809199,0 16.524678,0.043072 16.668749,0.41851463 0.08833,0.23018303 0.1606,16.00596467 0.1606,35.05729367 V 68.870854 H 19.92696 3.2582097 Z m 55.0391353,2e-6 0.0167,-35.0602625 22.544479,0.067629 c 14.797616,0.04439 22.548796,0.1585471 22.557056,0.33221282 0.007,0.14552083 0.27567,0.6813021 0.59723,1.19062504 l 0.58466,0.92604174 -0.0681,32.5437519 -0.0681,32.543751 -0.57601,0.926042 c -0.3168,0.509323 -0.55493,1.045104 -0.52916,1.190625 0.0309,0.174252 -7.655715,0.287673 -22.514329,0.332216 l -22.561174,0.06763 0.01669,-35.060265 z"
       id="path63"
       inkscape:connector-curvature="0" />
    <path
       style="fill:#a9c7fb;stroke-width:0.26458335"
       d="M 3.2582097,33.813561 V -1.2437323 H 19.766361 c 14.809199,0 16.524678,0.043072 16.668749,0.41851463 0.08833,0.23018303 0.1606,16.00596467 0.1606,35.05729367 V 68.870854 H 19.92696 3.2582097 Z m 55.4646813,34.46198 c -0.2085,-0.778007 -0.2085,-68.14595293 0,-68.92396078 l 0.159535,-0.59531252 h 20.606642 20.606642 l -0.004,34.4619803 c -0.002,18.954089 -0.0754,34.729871 -0.163151,35.057293 l -0.159536,0.595313 H 79.325931 58.88244 l -0.159536,-0.595313 z"
       id="path61"
       inkscape:connector-curvature="0" />
    <path
       style="fill:#f8e070;stroke-width:0.26458335"
       d="M 3.2582097,33.813561 V -1.2437323 H 15.296751 27.335293 l -0.0036,34.4619803 c -0.002,18.954089 -0.0754,34.729871 -0.16315,35.057293 l -0.159538,0.595313 H 15.133601 3.2582097 Z m 55.4646813,34.46198 c -0.2085,-0.778007 -0.2085,-68.14595293 0,-68.92396078 l 0.159535,-0.59531252 h 20.606642 20.606642 l -0.004,34.4619803 c -0.002,18.954089 -0.0754,34.729871 -0.163151,35.057293 l -0.159536,0.595313 H 79.325931 58.88244 l -0.159536,-0.595313 z"
       id="path59"
       inkscape:connector-curvature="0" />
    <path
       style="fill:#8bb5fa;stroke-width:0.26458335"
       d="M 3.2582097,33.813561 V -1.2437323 H 15.296751 27.335293 l -0.0036,34.4619803 c -0.002,18.954089 -0.0754,34.729871 -0.16315,35.057293 l -0.159538,0.595313 H 15.133601 3.2582097 Z M 58.981309,68.452338 c -0.209926,-0.547055 -0.209926,-68.73049942 0,-69.27755567 0.144296,-0.37602663 2.011117,-0.41851463 18.388542,-0.41851463 h 18.227942 l 1.53e-4,9.8557295 c 8.5e-5,5.4206508 0.07925,21.1964328 0.17593,35.0572928 l 0.175776,25.201564 H 77.54578 c -16.53785,0 -18.420157,-0.04243 -18.564471,-0.418516 z"
       id="path57"
       inkscape:connector-curvature="0" />
    <path
       style="fill:#f7da4e;stroke-width:0.26458335"
       d="M 3.2582097,33.813561 V -1.2437323 h 9.3498093 9.34981 l 0.17519,9.5682682 c 0.09635,5.2625471 0.175191,21.0383281 0.175191,35.0572921 v 25.489026 h -9.525 -9.5250003 z M 58.981309,68.452338 c -0.209926,-0.547055 -0.209926,-68.73049942 0,-69.27755567 0.144296,-0.37602663 2.011117,-0.41851463 18.388542,-0.41851463 h 18.227942 l 1.53e-4,9.8557295 c 8.5e-5,5.4206508 0.07925,21.1964328 0.17593,35.0572928 l 0.175776,25.201564 H 77.54578 c -16.53785,0 -18.420157,-0.04243 -18.564471,-0.418516 z"
       id="path55"
       inkscape:connector-curvature="0" />
    <path
       style="fill:#73a5fc;stroke-width:0.26458335"
       d="M 3.2582097,33.813561 V -1.2437323 h 9.3498093 9.34981 l 0.17519,9.5682682 c 0.09635,5.2625471 0.175191,21.0383281 0.175191,35.0572921 v 25.489026 h -9.525 -9.5250003 z m 55.8270833,0 V -1.2437323 H 74.298835 89.512376 V 33.813561 68.870854 H 74.298835 59.085293 Z"
       id="path53"
       inkscape:connector-curvature="0" />
    <path
       style="fill:#4e89fc;stroke-width:0.26458335"
       d="M 3.2582097,33.813561 V -1.2437323 h 6.35 6.3500003 V 33.813561 68.870854 h -3.549827 c -2.5922973,0 -3.5858233,-0.08921 -3.6832781,-0.330729 -0.1067618,-0.264584 -0.1376299,-0.264584 -0.1543405,0 -0.01523,0.241141 -0.737584,0.330729 -2.6667214,0.330729 H 3.2582097 Z m 55.8270833,0 V -1.2437323 H 74.298835 89.512376 V 33.813561 68.870854 H 74.298835 59.085293 Z"
       id="path51"
       inkscape:connector-curvature="0" />
    <path
       style="fill:#f5ce0d;stroke-width:0.26458335"
       d="M 3.2582097,33.813561 V -1.2437323 H 5.867744 8.4772781 L 8.6738953,26.649729 C 8.7820347,41.991131 8.8080959,54.644181 8.7318093,54.767614 8.6555223,54.89105 8.5597597,58.114776 8.519003,61.931449 L 8.4449,68.870854 H 5.8515549 3.2582097 Z m 55.8270833,0 V -1.2437323 H 74.298835 89.512376 V 33.813561 68.870854 H 74.298835 59.085293 Z"
       id="path49"
       inkscape:connector-curvature="0" />
    <path
       style="fill:#3374fc;stroke-width:0.26458335"
       d="M 3.2582097,33.813561 V -1.2437323 H 5.867744 8.4772781 L 8.6738953,26.649729 C 8.7820347,41.991131 8.8080959,54.644181 8.7318093,54.767614 8.6555223,54.89105 8.5597597,58.114776 8.519003,61.931449 L 8.4449,68.870854 H 5.8515549 3.2582097 Z m 55.8270833,0 V -1.2437323 h 8.995833 8.995834 l -5.29e-4,26.1276053 c -2.36e-4,14.370183 -0.07903,30.145965 -0.175112,35.057293 l -0.174578,8.929688 h -8.820724 -8.820724 z"
       id="path47"
       inkscape:connector-curvature="0" />
    <path
       style="fill:#d5a701;stroke-width:0.26458335"
       d="M 59.085293,33.813561 V -1.2437323 h 8.995833 8.995834 l -5.29e-4,26.1276053 c -2.36e-4,14.370183 -0.07903,30.145965 -0.175112,35.057293 l -0.174578,8.929688 h -8.820724 -8.820724 z"
       id="path45"
       inkscape:connector-curvature="0" />
    <path
       style="fill:#b58705;stroke-width:0.26458335"
       d="m 59.127433,33.813561 0.01182,-35.0572933 h 5.396978 5.396982 V 33.813561 68.870854 h -5.408798 -5.408798 l 0.01183,-35.057293 z"
       id="path43"
       inkscape:connector-curvature="0" />
    <path
       style="fill:#a27300;stroke-width:0.26458335"
       d="M 59.788061,64.860037 C 59.56348,59.671397 59.564805,26.44139 59.790214,10.860956 L 59.96534,-1.2437323 h 2.470393 2.470393 V 33.813561 68.870854 h -2.472232 -2.472232 z"
       id="path41"
       inkscape:connector-curvature="0" />
  </g>
</svg>
