<?xml version="1.0" encoding="UTF-8" standalone="no"?>
<svg
   xmlns:dc="http://purl.org/dc/elements/1.1/"
   xmlns:cc="http://creativecommons.org/ns#"
   xmlns:rdf="http://www.w3.org/1999/02/22-rdf-syntax-ns#"
   xmlns:svg="http://www.w3.org/2000/svg"
   xmlns="http://www.w3.org/2000/svg"
   xmlns:sodipodi="http://sodipodi.sourceforge.net/DTD/sodipodi-0.dtd"
   xmlns:inkscape="http://www.inkscape.org/namespaces/inkscape"
   id="svg8"
   version="1.1"
   viewBox="0 0 115.09374 70.114586"
   height="70.114586mm"
   width="115.09374mm"
   sodipodi:docname="1.8.svg"
   inkscape:export-filename="C:\Users\serdi\OneDrive\Desktop\mensa iq test screenshots\ordered tasks\Task 1\1.8.png"
   inkscape:export-xdpi="96"
   inkscape:export-ydpi="96"
   inkscape:version="0.92.4 (5da689c313, 2019-01-14)">
  <sodipodi:namedview
     pagecolor="#ffffff"
     bordercolor="#666666"
     borderopacity="1"
     objecttolerance="10"
     gridtolerance="10"
     guidetolerance="10"
     inkscape:pageopacity="0"
     inkscape:pageshadow="2"
     inkscape:window-width="1920"
     inkscape:window-height="1001"
     id="namedview14"
     showgrid="false"
     fit-margin-top="0"
     fit-margin-left="0"
     fit-margin-right="0"
     fit-margin-bottom="0"
     inkscape:zoom="1.2615122"
     inkscape:cx="255.39992"
     inkscape:cy="59.085712"
     inkscape:window-x="-9"
     inkscape:window-y="-9"
     inkscape:window-maximized="1"
     inkscape:current-layer="svg8" />
  <defs
     id="defs2">
    <clipPath
       id="clipPath31"
       clipPathUnits="userSpaceOnUse">
      <rect
         y="107.00867"
         x="36.542397"
         height="66.783264"
         width="112.90636"
         id="rect33"
         style="fill:#004455;stroke:#000000;stroke-width:0.27397022" />
    </clipPath>
    <clipPath
       id="clipPath21"
       clipPathUnits="userSpaceOnUse">
      <g
         transform="matrix(1.2297811,0,0,1.1818501,16.048063,36.810478)"
         id="g26">
        <path
           id="path24"
           style="fill:#d5ffe6;stroke:#000000;stroke-width:0.26458332px;stroke-linecap:butt;stroke-linejoin:miter;stroke-opacity:1"
           d="m 96.169351,60.113044 v 54.896286 c 4.599859,-6.95552 12.626939,-13.2824 11.893429,-28.737904 -1.29091,-12.341721 -6.32653,-19.609942 -11.893429,-26.158382 z m -78.790932,10e-6 78.790932,-10e-6 v 54.896286 l -78.790932,2e-5 z"
           inkscape:connector-curvature="0" />
      </g>
    </clipPath>
  </defs>
  <metadata
     id="metadata5">
    <rdf:RDF>
      <cc:Work
         rdf:about="">
        <dc:format>image/svg+xml</dc:format>
        <dc:type
           rdf:resource="http://purl.org/dc/dcmitype/StillImage" />
        <dc:title></dc:title>
      </cc:Work>
    </rdf:RDF>
  </metadata>
  <g
     id="g38"
     transform="translate(-4.444654,-3.5020306)">
    <path
       style="fill:#fefbf9;stroke-width:0.26458335"
       d="M 4.444654,38.559324 V 3.5020306 H 61.991529 104.45312 L 119.5384,38.559324 104.42112,73.616617 H 61.991529 4.444654 Z"
       id="path44"
       inkscape:connector-curvature="0"
       sodipodi:nodetypes="ccccccccc" />
    <path
       style="fill:#f8ef07;stroke-width:0.26458335"
       d="M 4.444654,38.559324 V 3.5020306 h 50.004237 50.004229 l 2.16384,2.7119793 c 8.82682,11.0628371 13.33041,23.3995561 12.822,35.1234391 -0.43426,10.014117 -2.94269,16.097483 -11.11647,26.959357 -1.48999,1.980012 -2.97735,3.986972 -3.30523,4.459915 l -0.59614,0.859896 H 54.432889 4.444654 Z"
       id="path42"
       inkscape:connector-curvature="0" />
    <path
       style="fill:#f26200;stroke-width:0.26458335"
       d="m 21.464449,72.492137 c -2.614479,-2.717003 -4.559901,-6.082474 -5.27757,-9.129898 -0.676051,-2.8707 -0.39483,-7.209938 0.672919,-10.383123 C 20.030101,43.557467 28.83029,32.910623 43.602987,20.624063 48.542417,16.515905 57.686687,9.5939658 62.829356,6.070277 L 66.5776,3.5020306 h 18.882894 18.882896 l 2.0638,2.5796876 c 6.59301,8.2410418 10.33191,16.0591648 12.24845,25.6117368 0.99384,4.953574 1.04301,11.115704 0.12446,15.597119 -1.50609,7.347911 -3.89462,12.143931 -10.21207,20.505209 -1.48432,1.964531 -3.03231,4.077891 -3.43998,4.696354 l -0.74121,1.12448 H 63.466666 22.546497 Z"
       id="path40"
       inkscape:connector-curvature="0" />
  </g>
</svg>
