<?xml version="1.0" encoding="UTF-8" standalone="no"?>
<!-- Created with Inkscape (http://www.inkscape.org/) -->

<svg
   xmlns:dc="http://purl.org/dc/elements/1.1/"
   xmlns:cc="http://creativecommons.org/ns#"
   xmlns:rdf="http://www.w3.org/1999/02/22-rdf-syntax-ns#"
   xmlns:svg="http://www.w3.org/2000/svg"
   xmlns="http://www.w3.org/2000/svg"
   xmlns:sodipodi="http://sodipodi.sourceforge.net/DTD/sodipodi-0.dtd"
   xmlns:inkscape="http://www.inkscape.org/namespaces/inkscape"
   width="10.748985mm"
   height="10.225078mm"
   viewBox="0 0 10.748985 10.225077"
   version="1.1"
   id="svg8"
   sodipodi:docname="diamond.svg"
   inkscape:version="0.92.4 (5da689c313, 2019-01-14)">
  <defs
     id="defs2" />
  <sodipodi:namedview
     id="base"
     pagecolor="#ffffff"
     bordercolor="#666666"
     borderopacity="1.0"
     inkscape:pageopacity="0.0"
     inkscape:pageshadow="2"
     inkscape:zoom="2.8284271"
     inkscape:cx="61.290002"
     inkscape:cy="-4.2177537"
     inkscape:document-units="mm"
     inkscape:current-layer="g893"
     showgrid="false"
     inkscape:window-width="1920"
     inkscape:window-height="1001"
     inkscape:window-x="-9"
     inkscape:window-y="-9"
     inkscape:window-maximized="1"
     fit-margin-top="0"
     fit-margin-left="0"
     fit-margin-right="0"
     fit-margin-bottom="0" />
  <metadata
     id="metadata5">
    <rdf:RDF>
      <cc:Work
         rdf:about="">
        <dc:format>image/svg+xml</dc:format>
        <dc:type
           rdf:resource="http://purl.org/dc/dcmitype/StillImage" />
        <dc:title></dc:title>
      </cc:Work>
    </rdf:RDF>
  </metadata>
  <g
     inkscape:label="Ebene 1"
     inkscape:groupmode="layer"
     id="layer1"
     transform="translate(-48.239465,-48.146817)">
    <g
       id="g826"
       transform="matrix(0.07505576,0,0,0.07505576,41.984027,29.149763)">
      <g
         id="g853"
         transform="matrix(1.0245014,0,0,1.0163103,4.2970798,-3.8586125)">
        <g
           id="g884"
           transform="translate(-36.574413,90.353246)">
          <g
             id="g893">
            <g
               id="g902"
               transform="translate(355.22519,62.542799)">
              <path
                 style="fill:#fded49;stroke-width:0.26458332"
                 d="m -226.71396,215.34399 c 8.69231,-13.03631 12.06577,-17.89348 12.50254,-18.00136 0.32899,-0.0813 6.40251,-0.11362 13.4967,-0.0719 7.09418,0.0417 12.89848,0.0483 12.89843,0.0147 -5e-5,-0.0336 -11.67882,-13.29725 -25.95283,-29.47471 -14.27402,-16.17748 -26.0081,-29.55783 -26.07576,-29.73412 -0.10617,-0.27669 20.15011,-37.13907 21.69686,-39.483957 l 0.56602,-0.858088 42.20104,0.0027 42.20104,0.0027 11.04635,19.908955 c 6.0755,10.94992 11.04636,20.1137 11.04636,20.36395 0,0.25025 -11.6086,13.61081 -25.79688,29.69014 -14.18828,16.07932 -25.79687,29.29724 -25.79687,29.37316 0,0.0759 6.0122,0.13803 13.36045,0.13803 h 13.36046 l 11.59872,17.39635 c 6.37929,9.568 11.74174,17.66424 11.91656,17.99167 l 0.31784,0.59531 h -63.2457 -63.24571 z"
                 id="path872"
                 inkscape:connector-curvature="0"
                 transform="matrix(0.97608455,0,0,0.98395144,-4.1943146,3.7966861)" />
              <path
                 transform="matrix(0.97608455,0,0,0.98395144,-4.1943146,3.7966861)"
                 style="fill:#fcfdfd;fill-opacity:0;stroke-width:0.26458332"
                 d="m -243.11429,97.730949 h 67.73333 c 92.149011,21.489191 108.787724,135.466661 0,135.466661 h -67.73333 c 0,-45.15555 0,-90.31111 0,-135.466661 z"
                 id="path870"
                 inkscape:connector-curvature="0"
                 sodipodi:nodetypes="ccccc" />
              <path
                 transform="matrix(0.97608455,0,0,0.98395144,-4.1943146,3.7966861)"
                 style="fill:#5ccaf0;stroke-width:0.26458332"
                 d="m -175.37212,222.41584 0.009,-10.78177 6.14162,-6.94768 6.14162,-6.94768 13.49485,0.0685 13.49485,0.0685 11.57675,17.3302 c 6.36721,9.53162 11.69526,17.3699 11.8401,17.4184 1.45827,0.48836 -3.16618,0.57327 -31.22205,0.57327 h -31.48542 l 0.009,-10.78177 z m -6.37937,-18.26701 c -3.28551,-3.74125 -17.67292,-20.06588 -31.97202,-36.27697 -14.2991,-16.2111 -26.05371,-29.61896 -26.12137,-29.79525 -0.10617,-0.27669 20.15011,-37.13907 21.69686,-39.483957 l 0.56602,-0.858088 42.20104,0.0027 42.20104,0.0027 11.04635,19.908955 c 6.0755,10.94992 11.04636,20.11342 11.04636,20.36334 0,0.24992 -12.013,14.05955 -26.69555,30.68806 -37.45025,42.41376 -37.32512,42.27341 -37.67775,42.26145 -0.17453,-0.006 -3.00547,-3.07178 -6.29098,-6.81302 z"
                 id="path874"
                 inkscape:connector-curvature="0" />
              <path
                 transform="matrix(0.97608455,0,0,0.98395144,-4.1943146,3.7966861)"
                 style="fill:#69a6fd;stroke-width:0.26458332"
                 d="m -175.37212,222.41584 0.009,-10.78177 6.14162,-6.94768 6.14162,-6.94768 13.49485,0.0685 13.49485,0.0685 11.57675,17.3302 c 6.36721,9.53162 11.69526,17.3699 11.8401,17.4184 1.45827,0.48836 -3.16618,0.57327 -31.22205,0.57327 h -31.48542 l 0.009,-10.78177 z m -1.37306,-12.73241 c -1.03872,-1.03234 -7.06421,-7.81107 -10.27903,-11.56398 -0.50845,-0.59355 -12.51394,-14.20563 -26.67887,-30.24906 -14.16492,-16.04342 -25.70673,-29.21754 -25.64845,-29.27581 0.21095,-0.21096 43.42048,-0.13623 43.63216,0.0755 0.16093,0.16093 18.70447,66.34931 19.70088,70.31934 0.0907,0.36116 0.27117,0.59092 0.40117,0.51058 0.13685,-0.0846 0.23636,-15.04366 0.23636,-35.53171 0,-27.16938 0.0737,-35.45936 0.3175,-35.70314 0.23499,-0.23498 2.75208,-0.3175 9.6856,-0.3175 7.39172,0 9.33897,-0.0698 9.23004,-0.33073 -0.0759,-0.1819 -3.97519,-8.24838 -8.66504,-17.92552 -4.68984,-9.67713 -8.92703,-18.48775 -9.41596,-19.57916 -0.48894,-1.091407 -1.01657,-1.95166 -1.17252,-1.911675 -0.15594,0.03999 -0.20813,-0.04931 -0.11596,-0.198437 0.17433,-0.282079 41.9405,-0.409852 41.9405,-0.128307 0,0.289513 -1.27402,2.603019 -11.51154,20.903769 -5.74896,10.27693 -10.38524,18.79438 -10.30285,18.92769 0.0888,0.14364 9.14293,0.24237 22.22689,0.24237 14.25688,0 22.07709,0.0919 22.07709,0.25957 0,0.14275 -12.013,13.86471 -26.69555,30.49322 -36.42557,41.25327 -37.3352,42.27663 -37.54546,42.2398 -0.10177,-0.0178 -0.7394,-0.58337 -1.41696,-1.25677 z m -18.4312,-71.80987 c -0.20934,-0.25225 2.19879,-5.25966 9.43912,-19.62748 5.34608,-10.60887 9.86329,-19.336557 10.03823,-19.394871 0.4615,-0.153834 0.46207,38.581991 5.7e-4,39.043491 -0.47389,0.47389 -19.08384,0.45369 -19.47792,-0.0211 z m -44.2277,-0.12438 c 0.0175,-0.57384 21.68684,-39.092189 21.99218,-39.092189 0.40453,0 21.44924,38.721699 21.234,39.069969 -0.16936,0.27404 -43.23452,0.29617 -43.22618,0.0222 z"
                 id="path876"
                 inkscape:connector-curvature="0" />
              <path
                 transform="matrix(0.97608455,0,0,0.98395144,-4.1943146,3.7966861)"
                 style="fill:#03e1ee;stroke-width:0.26458332"
                 d="m -175.37212,222.41584 0.009,-10.78177 6.14162,-6.94768 6.14162,-6.94768 13.49485,0.0685 13.49485,0.0685 11.57675,17.3302 c 6.36721,9.53162 11.69526,17.3699 11.8401,17.4184 1.45827,0.48836 -3.16618,0.57327 -31.22205,0.57327 h -31.48542 l 0.009,-10.78177 z m -19.80426,-84.54228 c -0.20934,-0.25225 2.19879,-5.25966 9.43912,-19.62748 5.34608,-10.60887 9.86329,-19.336557 10.03823,-19.394871 0.4615,-0.153834 0.46207,38.581991 5.7e-4,39.043491 -0.47389,0.47389 -19.08384,0.45369 -19.47792,-0.0211 z m -44.2277,-0.12438 c 0.0175,-0.57384 21.68684,-39.092189 21.99218,-39.092189 0.40453,0 21.44924,38.721699 21.234,39.069969 -0.16936,0.27404 -43.23452,0.29617 -43.22618,0.0222 z"
                 id="path880"
                 inkscape:connector-curvature="0" />
              <path
                 transform="matrix(0.97608455,0,0,0.98395144,-4.1943146,3.7966861)"
                 style="fill:#7b80e6;stroke-width:0.26458332"
                 d="m -175.37212,222.41584 0.009,-10.78177 6.14162,-6.94768 6.14162,-6.94768 13.49485,0.0685 13.49485,0.0685 11.57675,17.3302 c 6.36721,9.53162 11.69526,17.3699 11.8401,17.4184 1.45827,0.48836 -3.16618,0.57327 -31.22205,0.57327 h -31.48542 l 0.009,-10.78177 z m 0.13714,-12.17083 c 0.21228,-0.40019 4.18954,-15.07464 8.83837,-32.6099 10.86162,-40.96971 10.31204,-38.91484 10.4809,-39.18807 0.18303,-0.29614 44.56391,-0.31535 44.56391,-0.0193 0,0.11856 -11.3407,13.07095 -25.20156,28.78308 -13.86086,15.71213 -25.55875,28.99774 -25.99531,29.52358 -2.33761,2.81568 -12.63593,14.23819 -12.83689,14.23819 -0.12945,0 -0.0617,-0.32742 0.15058,-0.7276 z m -6.02514,-5.55625 c -6.44243,-7.304 -6.36134,-7.2099 -6.21323,-7.2099 0.0733,0 2.20736,2.35149 4.74238,5.22552 6.44244,7.30399 6.36135,7.2099 6.21324,7.2099 -0.0733,0 -2.20736,-2.35149 -4.74239,-5.22552 z m -13.91626,-66.8152 c -0.20934,-0.25225 2.19879,-5.25966 9.43912,-19.62748 5.34608,-10.60887 9.86329,-19.336557 10.03823,-19.394871 0.4615,-0.153834 0.46207,38.581991 5.7e-4,39.043491 -0.47389,0.47389 -19.08384,0.45369 -19.47792,-0.0211 z m -44.2277,-0.12438 c 0.0175,-0.57384 21.68684,-39.092189 21.99218,-39.092189 0.40453,0 21.44924,38.721699 21.234,39.069969 -0.16936,0.27404 -43.23452,0.29617 -43.22618,0.0222 z"
                 id="path878"
                 inkscape:connector-curvature="0" />
              <path
                 inkscape:connector-curvature="0"
                 id="path882"
                 d="m -176.13835,222.83918 0.009,-10.97857 6.37764,-7.0745 6.37764,-7.0745 14.01346,0.0697 14.01346,0.0697 12.02164,17.64654 c 6.6119,9.7056 12.53551,18.07326 12.68592,18.12265 1.51431,0.49727 -3.66483,0.38002 -32.79876,0.294 l -32.70936,-0.0413 0.009,-11.03378 z"
                 style="fill:#fdca00;stroke-width:0.27206895"
                 sodipodi:nodetypes="ccccccscsccc" />
            </g>
          </g>
        </g>
      </g>
    </g>
  </g>
</svg>
