<?xml version="1.0" encoding="UTF-8" standalone="no"?>
<!-- Created with Inkscape (http://www.inkscape.org/) -->

<svg
   xmlns:dc="http://purl.org/dc/elements/1.1/"
   xmlns:cc="http://creativecommons.org/ns#"
   xmlns:rdf="http://www.w3.org/1999/02/22-rdf-syntax-ns#"
   xmlns:svg="http://www.w3.org/2000/svg"
   xmlns="http://www.w3.org/2000/svg"
   xmlns:sodipodi="http://sodipodi.sourceforge.net/DTD/sodipodi-0.dtd"
   xmlns:inkscape="http://www.inkscape.org/namespaces/inkscape"
   width="46.006725mm"
   height="12.72292mm"
   viewBox="0 0 46.006723 12.722921"
   version="1.1"
   id="svg8"
   sodipodi:docname="logo.svg"
   inkscape:version="0.92.4 (5da689c313, 2019-01-14)">
  <defs
     id="defs2" />
  <sodipodi:namedview
     id="base"
     pagecolor="#ffffff"
     bordercolor="#666666"
     borderopacity="1.0"
     inkscape:pageopacity="0.0"
     inkscape:pageshadow="2"
     inkscape:zoom="3.959798"
     inkscape:cx="70.134826"
     inkscape:cy="11.872216"
     inkscape:document-units="mm"
     inkscape:current-layer="g5324"
     showgrid="false"
     inkscape:window-width="1920"
     inkscape:window-height="1001"
     inkscape:window-x="-9"
     inkscape:window-y="-9"
     inkscape:window-maximized="1"
     fit-margin-top="0"
     fit-margin-left="0"
     fit-margin-right="0"
     fit-margin-bottom="0" />
  <metadata
     id="metadata5">
    <rdf:RDF>
      <cc:Work
         rdf:about="">
        <dc:format>image/svg+xml</dc:format>
        <dc:type
           rdf:resource="http://purl.org/dc/dcmitype/StillImage" />
        <dc:title></dc:title>
      </cc:Work>
    </rdf:RDF>
  </metadata>
  <g
     inkscape:label="Ebene 1"
     inkscape:groupmode="layer"
     id="layer1"
     transform="translate(-73.336606,-59.01219)">
    <g
       id="g894"
       transform="matrix(0.59932057,0,0,0.59932057,25.455299,25.745826)">
      <g
         inkscape:label="Ebene 1"
         id="layer1-3"
         transform="translate(432.25606,26.897719)">
        <g
           transform="matrix(0.26458333,0,0,0.26458333,-272.61724,38.735843)"
           id="g4529">
          <g
             transform="translate(-672.67283,-212.30538)"
             id="g4700">
            <g
               id="g856"
               transform="matrix(0.15903462,0,0,0.19174599,311.46691,146.23181)">
              <g
                 id="g886"
                 transform="matrix(1.1496175,0,0,1.0360255,-82.726738,-55.593129)">
                <g
                   id="g949">
                  <g
                     id="g972">
                    <g
                       id="g993"
                       transform="matrix(0.99308875,0,0,0.99308875,3.8213808,1.4312976)">
                      <g
                         id="g1014">
                        <g
                           id="g1035">
                          <g
                             id="g1057">
                            <g
                               id="g1077">
                              <g
                                 id="g1097">
                                <g
                                   id="g1117">
                                <g
                                   id="g1137">
                                <g
                                   id="g1157">
                                <g
                                   id="g1177">
                                <g
                                   id="g1197"
                                   transform="matrix(0.83431271,0,0,0.83431271,94.494316,34.313293)">
                                <g
                                   id="g1217">
                                <g
                                   id="g1237">
                                <g
                                   id="g1257">
                                <g
                                   id="g1277">
                                <g
                                   id="g1297">
                                <g
                                   id="g1317"
                                   transform="matrix(0.93280964,0,0,0.93280964,38.319822,12.82022)">
                                <g
                                   id="g1337">
                                <g
                                   id="g1357"
                                   transform="matrix(1,0,0,1.1278576,0,-24.395801)">
                                <g
                                   id="g5097">
                                <g
                                   id="g5119">
                                <g
                                   id="g5141">
                                <g
                                   id="g5163">
                                <g
                                   id="g5185">
                                <g
                                   id="g5207">
                                <g
                                   id="g5232">
                                <g
                                   id="g5255">
                                <g
                                   id="g5278">
                                <g
                                   id="g5301">
                                <g
                                   id="g5324">
                                <g
                                   id="g5347">
                                <g
                                   id="g868"
                                   transform="matrix(2.3520257,0,0,1.8189081,-951.5991,-185.88539)">
                                <path
                                   style="fill:#d72631;fill-opacity:1;stroke:#d72631;stroke-width:1.98266637;stroke-linecap:round;stroke-linejoin:miter;stroke-miterlimit:4;stroke-dasharray:none;stroke-opacity:1;paint-order:markers fill stroke"
                                   d="m 640.17525,320.40658 c -0.94976,-0.57916 -1.66612,-1.99711 -2.44081,-4.8314 -0.79237,-2.89884 -1.69315,-4.5179 -3.5376,-6.35851 -2.87354,-2.86751 -7.09101,-4.43849 -12.73538,-4.74384 -5.05286,-0.27337 -5.65663,-0.82943 -5.65663,-5.20964 0,-4.19897 0.65651,-4.90241 4.86068,-5.20836 2.79091,-0.20318 4.57458,-0.72225 5.98048,-1.74069 2.53997,-1.83994 3.80685,-4.92933 3.81904,-9.31295 0.0133,-4.90773 -0.96963,-6.36776 -5.86249,-8.7051 -6.11112,-2.91932 -6.78159,-3.28477 -7.62798,-4.15803 -0.70199,-0.72425 -0.88412,-1.14862 -0.97674,-2.27571 -0.11782,-1.43593 0.57872,-4.05894 1.41867,-5.34088 0.97324,-1.48531 4.46928,-2.4454 9.0111,-2.47462 4.81933,-0.0311 8.78218,-1.32663 10.61806,-3.47144 1.10522,-1.29122 1.97187,-3.84734 1.97187,-5.81593 0,-2.82588 1.42758,-5.55843 3.31618,-6.34752 2.29973,-0.96093 5.55875,-0.0186 7.30382,2.11041 1.20569,1.47139 1.63454,2.56638 1.92668,4.91948 0.29398,2.36796 0.74936,3.30486 2.35616,4.84748 2.24583,2.15611 6.51574,3.74619 10.08874,3.7569 0.83411,0.001 1.92331,0.1745 2.42044,0.38221 1.83264,0.76572 2.5546,3.32955 1.86664,6.62896 -0.96336,4.62033 -3.62869,7.15443 -8.05088,7.65459 -2.36796,0.26783 -4.02178,1.01241 -5.80022,2.6114 -1.60146,1.43985 -2.30154,2.84776 -2.30154,4.62863 0,3.22142 2.4031,6.04953 7.59492,8.93814 4.46817,2.48599 6.10386,4.21021 6.52571,6.87888 0.27268,1.72477 -0.078,4.49426 -0.73115,5.77453 -1.70174,3.33573 -4.39626,4.53771 -12.74423,5.68522 -4.99033,0.68595 -6.63992,1.9563 -7.59439,5.84847 -0.58278,2.37641 -1.71425,4.5179 -2.76582,5.23471 -1.04972,0.71559 -1.22306,0.72287 -2.25333,0.0945 z"
                                   id="path4669"
                                   inkscape:connector-curvature="0" />
                                <path
                                   style="fill:#077b8a;fill-opacity:1;stroke:#077b8a;stroke-width:1.98266637;stroke-linecap:round;stroke-linejoin:miter;stroke-miterlimit:4;stroke-dasharray:none;stroke-opacity:1;paint-order:markers fill stroke"
                                   d="m 673.11524,301.84671 c -1.55678,-0.62727 -1.98862,-1.98001 -2.21419,-6.93587 -0.0825,-1.81677 -0.32867,-3.90371 -0.5466,-4.6376 -0.52727,-1.77548 -2.13718,-3.19947 -4.66811,-4.12898 -4.64839,-1.70718 -7.25934,-3.35278 -7.25934,-4.5753 0,-1.06107 1.92844,-2.15357 5.1532,-2.91947 5.8357,-1.38597 7.18132,-2.63398 8.88447,-8.24011 1.91525,-6.30422 5.37425,-10.09629 9.20943,-10.09629 0.7557,0 1.70628,0.1245 2.11239,0.27693 2.90799,1.09073 5.01007,4.24277 5.99972,8.99638 0.78532,3.77212 2.72977,6.31403 5.44733,7.12104 1.66172,0.49348 2.36715,0.49226 4.04827,-0.008 1.79374,-0.53267 3.90561,-2.47614 5.03785,-4.63609 1.40168,-2.67397 2.67933,-4.20735 4.19144,-5.03032 1.17339,-0.63868 1.59125,-0.73117 2.83627,-0.62791 1.26622,0.10487 1.57467,0.24617 2.32257,1.06214 1.74846,1.90791 2.09901,5.32131 0.89861,8.74962 -1.68933,4.82456 -7.70805,10.32588 -17.19147,15.71354 -3.19785,1.81677 -12.0264,6.18527 -15.60627,7.72223 -4.23276,1.81727 -7.52063,2.6503 -8.65557,2.19302 z"
                                   id="path4671"
                                   inkscape:connector-curvature="0" />
                                <path
                                   style="fill:#a2d5c6;fill-opacity:1;stroke:#a2d5c6;stroke-width:1.98266637;stroke-linecap:round;stroke-linejoin:miter;stroke-miterlimit:4;stroke-dasharray:none;stroke-opacity:1;paint-order:markers fill stroke"
                                   d="m 696.59567,267.35358 c -0.3833,-0.45554 -1.17671,-1.78339 -1.76314,-2.95079 -2.14682,-4.27355 -3.73372,-6.1979 -6.07364,-7.36522 -1.23323,-0.61524 -2.55065,-0.95035 -7.25035,-1.84428 -2.83496,-0.53923 -4.23968,-1.33816 -4.94192,-2.81078 -1.05374,-2.20967 -1.45998,-8.39207 -0.66195,-10.07379 0.7004,-1.47599 1.47137,-1.70799 5.42418,-1.63217 3.15783,0.0606 3.582,0.01 4.88172,-0.5613 0.78288,-0.34517 2.40995,-1.36311 3.61573,-2.26207 2.82287,-2.10453 3.98085,-2.54814 6.30855,-2.4166 2.57171,0.14531 4.71045,1.26257 7.53502,3.93625 3.66424,3.46854 8.86669,10.90639 9.84583,14.07644 1.04067,3.36929 0.12434,4.59422 -5.43777,7.26855 -5.31494,2.55553 -7.17444,3.8934 -9.58352,6.89524 -0.6237,0.77712 -1.07881,0.71492 -1.89874,-0.25946 z"
                                   id="path4673"
                                   inkscape:connector-curvature="0" />
                                <path
                                   style="fill:#5c3c92;fill-opacity:1;stroke:#5c3c92;stroke-width:1.98266637;stroke-linecap:round;stroke-linejoin:miter;stroke-miterlimit:4;stroke-dasharray:none;stroke-opacity:1;paint-order:markers fill stroke"
                                   d="m 623.61164,254.51739 c -2.72177,-1.58671 -3.33499,-3.23577 -3.30668,-8.89254 0.0419,-8.38226 0.98358,-11.03321 4.56617,-12.85536 11.6058,-5.90294 41.47057,-8.25166 53.46084,-4.20444 3.71463,1.25387 7.37322,3.61461 7.37322,4.75768 0,0.93793 -1.017,0.95789 -5.71277,0.11234 -3.87969,-0.6987 -6.15923,0.29298 -7.63535,3.32162 -1.01442,2.08135 -1.47359,3.93786 -1.99876,8.08136 -0.65637,5.17857 -1.15252,6.39478 -2.99157,7.33299 -1.75535,0.8955 -6.40686,1.36657 -7.69565,0.77936 -1.02633,-0.46761 -1.30813,-1.26504 -1.51922,-4.29896 -0.247,-3.55089 -0.89997,-5.45134 -2.38186,-6.93322 -2.17983,-2.17984 -5.06373,-3.02568 -10.32638,-3.02872 -8.8402,-0.005 -12.33977,2.4455 -12.96349,9.07768 -0.38559,4.09994 -1.56174,5.9093 -4.55423,7.00611 -2.01039,0.73683 -2.67956,0.69716 -4.31427,-0.25575 z"
                                   id="path4675"
                                   inkscape:connector-curvature="0" />
                                <path
                                   style="fill:#d72631;fill-opacity:1;stroke:#d72631;stroke-width:1.98266637;stroke-linecap:round;stroke-linejoin:miter;stroke-miterlimit:4;stroke-dasharray:none;stroke-opacity:1;paint-order:markers fill stroke"
                                   d="m 601.51002,251.22434 c -3.52155,-0.3334 -4.94361,-1.21118 -4.41569,-2.7256 0.60563,-1.73734 6.88417,-6.60182 10.85745,-8.41216 2.29056,-1.04365 4.98023,-1.329 6.03194,-0.63991 1.5641,1.02483 1.80275,3.76292 0.63318,7.26382 -0.96975,2.90268 -2.41642,3.87755 -6.54963,4.41346 -1.88302,0.24407 -4.59957,0.28575 -6.55725,0.10036 z"
                                   id="path4677"
                                   inkscape:connector-curvature="0" />
                                <path
                                   style="fill:#077b8a;fill-opacity:1;stroke:#077b8a;stroke-width:1.98266637;stroke-linecap:round;stroke-linejoin:miter;stroke-miterlimit:4;stroke-dasharray:none;stroke-opacity:1;paint-order:markers fill stroke"
                                   d="m 585.03436,265.90411 c -0.86029,-0.34417 -0.83777,-1.34402 0.0977,-4.34483 0.95778,-3.07196 1.32564,-3.60679 2.48085,-3.60679 1.28364,0 2.35962,1.92233 2.349,4.19661 -0.005,1.18228 -0.81422,2.95825 -1.5965,3.50617 -0.58527,0.40994 -2.55982,0.55743 -3.33119,0.24884 z"
                                   id="path4679"
                                   inkscape:connector-curvature="0" />
                                <path
                                   style="fill:#a2d5c6;fill-opacity:1;stroke:#a2d5c6;stroke-width:1.98266637;stroke-linecap:round;stroke-linejoin:miter;stroke-miterlimit:4;stroke-dasharray:none;stroke-opacity:1;paint-order:markers fill stroke"
                                   d="m 599.38155,304.02953 c -2.23122,-0.82924 -3.22968,-2.18181 -4.9706,-6.73352 -1.90286,-4.97515 -3.07252,-5.67682 -8.65532,-5.19232 -2.99428,0.25973 -5.07127,0.82365 -6.20889,1.6854 -1.07724,0.816 -1.34427,1.32806 -1.94395,3.72785 -0.26782,1.07168 -0.73988,2.35778 -1.04904,2.858 -1.15495,1.86879 -3.3491,2.47499 -4.56332,1.26077 -0.59145,-0.59146 -0.64369,-0.84205 -0.64236,-3.0819 10e-4,-2.75918 0.76769,-8.44042 1.69045,-12.53626 1.63394,-7.25268 4.28646,-11.61151 7.72191,-12.6893 0.66492,-0.20875 2.21222,-0.45346 3.43844,-0.54413 4.2738,-0.31603 6.97126,-1.36326 9.38039,-3.64173 1.75781,-1.66246 2.50319,-2.91364 3.16469,-5.3124 0.74696,-2.70846 1.17019,-3.38003 2.55177,-4.04881 2.38049,-1.15238 8.11102,-1.03918 9.57072,0.18908 1.14845,0.96635 1.51265,2.06951 2.2346,6.76894 0.78122,5.08498 1.17938,6.53266 2.17456,7.90651 0.85016,1.17358 1.3706,1.43822 4.27455,2.17356 3.39899,0.86069 6.22822,2.65093 7.21981,4.5684 0.65104,1.259 0.52596,3.1521 -0.28978,4.38474 -1.42291,2.15021 -3.66569,2.8668 -7.00256,2.23743 -2.02536,-0.38202 -2.23804,-0.37896 -3.10388,0.0446 -1.38546,0.67785 -2.01268,2.10775 -3.43682,7.83512 -1.9431,7.8143 -2.36647,8.28368 -7.59089,8.41594 -2.05174,0.0521 -3.31953,-0.0365 -3.96448,-0.27604 z"
                                   id="path4681"
                                   inkscape:connector-curvature="0" />
                                <path
                                   style="fill:#077b8a;fill-opacity:1;stroke:#077b8a;stroke-width:1.98266637;stroke-linecap:round;stroke-linejoin:miter;stroke-miterlimit:4;stroke-dasharray:none;stroke-opacity:1;paint-order:markers fill stroke"
                                   d="m 591.00485,342.18046 c -4.05452,-1.58673 -10.19326,-7.63805 -14.66767,-14.45878 -3.02559,-4.61218 -5.25619,-10.06158 -5.25109,-12.82862 0.005,-2.24932 2.16708,-3.97013 7.9682,-6.33936 3.75833,-1.53491 4.56787,-2.81452 3.74179,-5.91474 -0.90417,-3.39314 -0.59499,-4.15102 1.79312,-4.39571 0.94782,-0.0971 2.06749,-0.24537 2.48818,-0.32953 0.66084,-0.13231 0.83807,-0.0329 1.303,0.72939 0.5927,0.97181 1.12236,2.67054 1.58365,5.07899 0.54264,2.83328 1.0312,3.98354 2.10355,4.95234 1.32123,1.19367 2.85513,1.63171 7.99983,2.28466 9.07434,1.15164 9.97857,1.70923 9.95667,6.13983 -0.008,1.63015 -0.14231,2.3681 -0.60181,3.30753 -0.83081,1.69865 -2.6678,3.44352 -5.42052,5.14879 -3.04611,1.88703 -4.07579,2.72624 -5.1073,4.1626 -1.06518,1.48326 -1.77296,3.4922 -2.12694,6.0372 -0.626,4.50082 -1.92408,6.92956 -3.69045,6.9049 -0.48308,-0.008 -1.41559,-0.22255 -2.07221,-0.47949 z"
                                   id="path4683"
                                   inkscape:connector-curvature="0" />
                                <path
                                   style="fill:#5c3c92;fill-opacity:1;stroke:#5c3c92;stroke-width:1.98266637;stroke-linecap:round;stroke-linejoin:miter;stroke-miterlimit:4;stroke-dasharray:none;stroke-opacity:1;paint-order:markers fill stroke"
                                   d="m 615.41141,344.08773 c -1.78976,-0.4789 -4.10548,-1.64296 -7.57992,-3.81022 -5.13555,-3.20347 -7.35603,-5.58868 -6.64844,-7.14167 0.43383,-0.9522 1.2582,-1.41154 4.80513,-2.67745 6.60713,-2.35812 8.35429,-4.25651 9.48607,-10.30716 1.0564,-5.64765 1.61777,-6.84623 3.68717,-7.87273 1.36787,-0.67852 5.01833,-1.05286 6.87334,-0.70485 1.68182,0.31549 3.18464,2.12992 5.47758,6.6134 2.94272,5.75402 5.45291,8.56671 8.26614,9.26235 5.8763,1.45303 6.49888,2.33176 3.63239,5.1268 -4.66391,4.54775 -15.9554,10.16679 -23.23574,11.56294 -2.34218,0.44918 -2.91604,0.44298 -4.76372,-0.0517 z"
                                   id="path4685"
                                   inkscape:connector-curvature="0" />
                                <path
                                   style="fill:#d72631;fill-opacity:1;stroke:#d72631;stroke-width:1.98266637;stroke-linecap:round;stroke-linejoin:miter;stroke-miterlimit:4;stroke-dasharray:none;stroke-opacity:1;paint-order:markers fill stroke"
                                   d="m 651.90748,320.02958 c -0.54185,-0.65286 -1.08691,-2.25639 -1.08691,-3.19756 0,-1.76551 1.32936,-3.27404 2.88519,-3.27404 1.27432,0 3.14749,1.58982 3.14749,2.67134 0,0.90108 -0.77352,2.02717 -2.12794,3.09777 -1.36493,1.0789 -2.30993,1.31448 -2.81783,0.70249 z"
                                   id="path4687"
                                   inkscape:connector-curvature="0" />
                                <g
                                   id="g871">
                                <path
                                   sodipodi:nodetypes="sscscscsccsccscccsscscccccssscssccssccscsssssscssccssssccccsccssssscscscscsccscscsssccscsccsccsssscsscsssscssccsccsccsc"
                                   inkscape:connector-curvature="0"
                                   id="path4533"
                                   d="m 594.42986,459.76771 c -4.45072,-26.44255 24.91912,-51.33971 -6.04636,-77.33095 -13.09201,-10.88446 -23.63533,-24.07685 -29.97777,-37.50983 -4.99276,-10.57448 -5.5139,-14.10826 -5.48293,-37.17986 0.0335,-24.94936 0.2021,-25.84933 7.8791,-42.06882 18.87031,-39.86785 56.34331,-61.47151 101.07294,-58.26984 28.6313,2.04941 52.92211,14.06849 68.65295,33.96954 11.77496,14.89637 17.53152,26.94328 23.7919,49.78957 2.93043,10.69417 9.27164,28.43592 14.09159,39.42612 4.81991,10.99021 8.20524,21.43695 7.52295,23.215 -0.68231,1.77805 -5.25615,5.04831 -10.16407,7.26724 l -8.92352,4.0344 -1.06227,21.74568 c -1.02115,20.90345 -1.31945,22.00243 -7.70189,28.37551 -6.08088,6.07198 -8.18143,6.74977 -24.96087,8.05451 -22.70305,1.7653 -26.93166,5.01741 -28.40973,21.84927 -0.59815,6.81143 -2.33741,12.39056 -4.36034,13.98695 -4.03789,3.18648 -90.98057,3.77155 -95.92168,0.64551 z m 31.97026,-117.29029 c 8.37549,-2.84081 18.90698,-9.75858 18.90698,-12.41933 0,-1.00767 -2.1474,-2.13765 -4.77198,-2.51105 -3.11037,-0.44248 -6.09722,-3.49956 -8.57782,-8.77946 -3.2118,-6.83624 -4.70528,-7.99683 -9.56881,-7.43596 -4.74764,0.54749 -5.95017,1.93594 -6.82528,7.88052 -1.02378,6.95428 -3.19072,9.22444 -11.15396,11.68515 -5.52812,1.70827 -4.53724,4.63379 3.18685,9.40894 8.33381,5.1521 9.58836,5.29694 18.80402,2.17119 z m -29.56145,-6.42275 c 0.48645,-4.9302 2.3825,-7.69497 7.03944,-10.26456 4.35567,-2.40336 6.37369,-5.1438 6.37369,-8.6554 0,-4.5153 -1.1582,-5.26734 -9.54964,-6.20079 -8.63695,-0.96075 -9.65419,-1.67144 -10.6437,-7.43597 -0.60169,-3.50553 -1.80168,-6.13468 -2.66659,-5.84255 -0.8649,0.29212 -2.59302,0.53114 -3.8403,0.53114 -1.31046,0 -1.69114,1.81667 -0.90179,4.30369 1.09341,3.44507 0.0621,4.75815 -5.16824,6.58154 -3.59379,1.2528 -6.53417,3.7129 -6.53417,5.4669 0,9.35711 14.94157,28.26371 22.33632,28.26371 1.68972,0 3.16563,-2.8014 3.55498,-6.74771 z m 48.49331,-21.02913 c 0.94163,-4.02956 2.80646,-5.30764 8.54833,-5.85862 9.12285,-0.87543 12.6724,-3.69391 12.6724,-10.0623 0,-3.23088 -1.95009,-5.89257 -5.64656,-7.707 -7.95746,-3.9059 -10.74995,-8.9975 -7.24861,-13.21635 1.53595,-1.85071 4.39649,-3.36493 6.35671,-3.36493 4.99493,0 8.66301,-4.22804 8.66301,-9.98545 0,-3.52195 -1.22554,-4.8865 -4.38877,-4.8865 -6.64709,0 -12.60771,-3.93011 -12.60771,-8.31284 0,-5.1449 -4.94401,-9.09891 -9.29125,-7.43073 -1.90086,0.72945 -3.45612,3.4229 -3.45612,5.98544 0,6.73671 -4.00817,9.75813 -12.94499,9.75813 -5.19467,0 -8.28185,1.13564 -9.13563,3.36061 -2.24109,5.84018 -1.47322,7.12848 6.14639,10.31213 6.03294,2.52075 7.43597,4.24982 7.43597,9.16415 0,7.32711 -3.42724,11.15613 -9.98545,11.15613 -3.7959,0 -4.88649,1.18546 -4.88649,5.31141 0,4.22195 1.06895,5.31141 5.21145,5.31141 8.96406,0 15.51103,4.28923 16.86272,11.04749 1.47287,7.36446 5.91616,7.02827 7.6946,-0.58218 z m 10.87307,-0.41717 c -2.83546,-2.83544 -6.72031,0.041 -5.24567,3.88379 0.9558,2.49072 1.86891,2.63251 4.24637,0.65938 1.92462,-1.59727 2.28891,-3.25354 0.9993,-4.54317 z m -45.81628,-15.89069 c 2.34134,-10.68529 3.01057,-11.65982 7.24669,-10.55205 5.64093,1.47514 9.97001,-3.7676 6.53184,-7.91032 -1.39642,-1.68263 -4.62067,-3.35572 -7.16496,-3.718 -3.64893,-0.51956 -4.85033,-2.45357 -5.68827,-9.15694 -0.97252,-7.78031 -1.59827,-8.49825 -7.40685,-8.49825 -4.68174,0 -6.53844,1.11366 -7.08407,4.24912 -0.9907,5.69272 -6.32827,9.56054 -13.19344,9.56054 -6.52397,0 -9.99486,5.92274 -11.98657,20.45392 -1.03599,7.55827 -0.653,9.28995 2.05454,9.28995 1.83356,0 3.63269,-2.14644 4.00677,-4.78025 0.52181,-3.67429 2.29081,-4.93536 7.64569,-5.45065 6.11611,-0.58849 7.24406,0.12483 9.23725,5.84254 1.82546,5.23656 3.47082,6.51294 8.39578,6.51294 4.95551,0 6.3699,-1.11585 7.4056,-5.84255 z m 79.84726,-2.89515 c 17.37744,-8.51472 25.18163,-15.80648 25.18163,-23.52824 0,-7.9307 -7.52481,-8.31259 -11.05661,-0.56114 -3.57618,7.84889 -12.93604,6.55077 -14.42805,-2.00102 -2.27923,-13.06378 -14.09518,-12.69454 -17.52659,0.54774 -1.35809,5.24106 -3.20401,7.08714 -8.05685,8.05773 -8.06049,1.61207 -8.02891,4.59361 0.0785,7.41992 5.39756,1.88159 6.3737,3.32888 6.3737,9.45 0,9.05527 2.07472,9.12095 19.4342,0.61501 z m 17.89576,-35.01548 c 8.01825,-3.35024 7.9524,-5.79537 -0.46283,-17.18441 -6.32388,-8.55854 -12.55427,-10.68465 -17.69018,-6.03673 -2.13881,1.93561 -5.17746,3.34259 -6.75259,3.12662 -7.10116,-0.9736 -8.43316,0.22759 -7.77868,7.01563 0.58843,6.10296 1.52928,7.02819 8.1017,7.9671 5.73969,0.81997 8.16298,2.5881 10.62281,7.75098 2.51847,5.2858 3.56659,6.02389 4.99728,3.51893 0.99569,-1.74338 5.02882,-4.51453 8.96249,-6.15812 z m -118.06334,1.26191 c 0,-2.33702 -0.95606,-4.24912 -2.12456,-4.24912 -1.16852,0 -2.12458,0.39984 -2.12458,0.88852 0,0.48867 -0.58031,2.40078 -1.2896,4.24912 -0.8462,2.20528 -0.11579,3.36061 2.12456,3.36061 1.99779,0 3.41418,-1.76279 3.41418,-4.24913 z m 39.13063,-7.66327 c 1.84837,-0.70925 3.36065,-3.3862 3.36065,-5.94878 0,-6.6979 3.99768,-9.75814 12.74737,-9.75814 8.88645,0 12.74735,3.06712 12.74735,10.12657 0,4.23126 0.92545,4.92112 5.84255,4.35535 4.96614,-0.57143 5.94827,-1.78642 6.54727,-8.09971 0.9216,-9.71304 3.8616,-13.02386 10.16119,-11.44276 9.17924,2.30385 5.37971,-3.18935 -3.96107,-5.72675 -10.67933,-2.90103 -35.10837,-1.41269 -47.27152,2.88001 -7.94356,2.80347 -8.54191,3.5964 -9.16721,12.14754 -0.42977,5.87708 0.32993,9.7817 2.12455,10.91973 3.39309,2.15167 2.80837,2.1051 6.86887,0.54694 z m -14.92548,-6.32015 c 3.84737,-10.02612 -1.42325,-12.28288 -11.66096,-4.99297 -8.36065,5.95331 -7.75714,8.35358 2.10043,8.35358 5.58216,0 8.69019,-1.0925 9.56053,-3.36061 z"
                                   style="fill:#ffffff;fill-opacity:1;stroke-width:2.12456346" />
                                </g>
                                </g>
                                <text
                                   transform="scale(1.1370891,0.87943856)"
                                   id="text894"
                                   y="293.60602"
                                   x="879.2724"
                                   style="font-style:normal;font-variant:normal;font-weight:normal;font-stretch:normal;font-size:95.57312012px;line-height:1.25;font-family:sans-serif;-inkscape-font-specification:'sans-serif, Normal';font-variant-ligatures:normal;font-variant-caps:normal;font-variant-numeric:normal;font-feature-settings:normal;text-align:start;letter-spacing:0px;word-spacing:0px;writing-mode:lr-tb;text-anchor:start;fill:#ffffff;fill-opacity:1;stroke:none;stroke-width:7.16793633"
                                   xml:space="preserve"><tspan
                                   style="font-style:normal;font-variant:normal;font-weight:normal;font-stretch:normal;font-size:95.57395172px;font-family:Arial;-inkscape-font-specification:'Arial, Normal';font-variant-ligatures:normal;font-variant-caps:normal;font-variant-numeric:normal;font-feature-settings:normal;text-align:start;writing-mode:lr-tb;text-anchor:start;fill:#ffffff;stroke-width:7.16793633"
                                   y="293.60602"
                                   x="879.2724"
                                   id="tspan926"
                                   sodipodi:role="line"><tspan
   id="tspan5067"
   style="font-style:normal;font-variant:normal;font-weight:bold;font-stretch:normal;font-size:95.57395172px;font-family:Arial;-inkscape-font-specification:'Arial, Bold';font-variant-ligatures:normal;font-variant-caps:normal;font-variant-numeric:normal;font-feature-settings:normal;text-align:start;writing-mode:lr-tb;text-anchor:start;fill:#ffffff;stroke-width:7.16793633"> Universal IQ Test</tspan> </tspan></text>
                                <text
                                   xml:space="preserve"
                                   style="font-style:normal;font-variant:normal;font-weight:normal;font-stretch:normal;font-size:95.35566711px;line-height:1.25;font-family:sans-serif;-inkscape-font-specification:'sans-serif, Normal';font-variant-ligatures:normal;font-variant-caps:normal;font-variant-numeric:normal;font-feature-settings:normal;text-align:start;letter-spacing:0px;word-spacing:0px;writing-mode:lr-tb;text-anchor:start;fill:#f9f9f9;fill-opacity:1;stroke:none;stroke-width:7.15167522"
                                   x="960.76837"
                                   y="417.9816"
                                   id="text5071"
                                   transform="scale(1.0706455,0.93401597)"><tspan
                                   sodipodi:role="line"
                                   id="tspan5069"
                                   x="960.76837"
                                   y="417.9816"
                                   style="fill:#f9f9f9;stroke-width:7.15167522">- #1 IQ Test</tspan><tspan
                                   sodipodi:role="line"
                                   x="960.76837"
                                   y="537.17621"
                                   style="fill:#f9f9f9;stroke-width:7.15167522"
                                   id="tspan5073">- Statistics for every result</tspan><tspan
                                   sodipodi:role="line"
                                   x="960.76837"
                                   y="656.37079"
                                   style="fill:#f9f9f9;stroke-width:7.15167522"
                                   id="tspan5075">- universally used</tspan></text>
                                <path
                                   style="fill:#ffffff;fill-opacity:1;stroke:#ffffff;stroke-width:10.66676807px;stroke-linecap:butt;stroke-linejoin:miter;stroke-opacity:1"
                                   d="m 1032.5904,285.02396 h 948.8778"
                                   id="path5209"
                                   inkscape:connector-curvature="0" />
                                </g>
                                </g>
                                </g>
                                </g>
                                </g>
                                </g>
                                </g>
                                </g>
                                </g>
                                </g>
                                </g>
                                </g>
                                </g>
                                </g>
                                </g>
                                </g>
                                </g>
                                </g>
                                </g>
                                </g>
                                </g>
                                </g>
                                </g>
                                </g>
                                </g>
                              </g>
                            </g>
                          </g>
                        </g>
                      </g>
                    </g>
                  </g>
                </g>
              </g>
            </g>
          </g>
        </g>
      </g>
    </g>
  </g>
</svg>
