<?xml version="1.0" encoding="UTF-8" standalone="no"?>
<!-- Created with Inkscape (http://www.inkscape.org/) -->

<svg
   xmlns:dc="http://purl.org/dc/elements/1.1/"
   xmlns:cc="http://creativecommons.org/ns#"
   xmlns:rdf="http://www.w3.org/1999/02/22-rdf-syntax-ns#"
   xmlns:svg="http://www.w3.org/2000/svg"
   xmlns="http://www.w3.org/2000/svg"
   xmlns:sodipodi="http://sodipodi.sourceforge.net/DTD/sodipodi-0.dtd"
   xmlns:inkscape="http://www.inkscape.org/namespaces/inkscape"
   version="1.1"
   id="svg815"
   width="84.007896"
   height="95.921005"
   viewBox="0 0 84.007895 95.921007"
   sodipodi:docname="logo_icon.svg"
   inkscape:version="0.92.4 (5da689c313, 2019-01-14)">
  <metadata
     id="metadata821">
    <rdf:RDF>
      <cc:Work
         rdf:about="">
        <dc:format>image/svg+xml</dc:format>
        <dc:type
           rdf:resource="http://purl.org/dc/dcmitype/StillImage" />
        <dc:title></dc:title>
      </cc:Work>
    </rdf:RDF>
  </metadata>
  <defs
     id="defs819" />
  <sodipodi:namedview
     pagecolor="#ffffff"
     bordercolor="#666666"
     borderopacity="1"
     objecttolerance="10"
     gridtolerance="10"
     guidetolerance="10"
     inkscape:pageopacity="0"
     inkscape:pageshadow="2"
     inkscape:window-width="1920"
     inkscape:window-height="1001"
     id="namedview817"
     showgrid="false"
     inkscape:zoom="1.7898746"
     inkscape:cx="16.801267"
     inkscape:cy="-51.763573"
     inkscape:window-x="-9"
     inkscape:window-y="-9"
     inkscape:window-maximized="1"
     inkscape:current-layer="g4700"
     fit-margin-top="0"
     fit-margin-left="0"
     fit-margin-right="0"
     fit-margin-bottom="0" />
  <g
     id="g4529"
     transform="translate(271.5577,5.2087053)">
    <g
       id="g4700"
       transform="translate(-672.67283,-212.30538)">
      <g
         id="g4713">
        <path
           style="fill:#d72631;fill-opacity:1;stroke:#d72631;stroke-width:0.74656898;stroke-linecap:round;stroke-linejoin:miter;stroke-miterlimit:4;stroke-dasharray:none;stroke-opacity:1;paint-order:markers fill stroke"
           d="m 822.70877,295.59018 c -0.35763,-0.21808 -0.62737,-0.75201 -0.91908,-1.81925 -0.29836,-1.09155 -0.63755,-1.70121 -1.33208,-2.39429 -1.08202,-1.07975 -2.6701,-1.6713 -4.79548,-1.78628 -1.90264,-0.10294 -2.12999,-0.31232 -2.12999,-1.96168 0,-1.58111 0.24721,-1.84599 1.83028,-1.9612 1.05091,-0.0765 1.72255,-0.27196 2.25194,-0.65545 0.95642,-0.69283 1.43346,-1.85613 1.43805,-3.50677 0.005,-1.848 -0.36511,-2.39777 -2.20751,-3.27789 -2.30113,-1.09926 -2.55359,-1.23687 -2.8723,-1.5657 -0.26433,-0.27271 -0.33291,-0.43251 -0.36779,-0.85691 -0.0444,-0.5407 0.21792,-1.52839 0.5342,-2.0111 0.36647,-0.55929 1.6829,-0.92081 3.39311,-0.93181 1.81471,-0.0117 3.30691,-0.49954 3.99821,-1.30717 0.41617,-0.4862 0.7425,-1.4487 0.7425,-2.18997 0,-1.06408 0.53755,-2.09302 1.2487,-2.39015 0.86596,-0.36183 2.09314,-0.007 2.75024,0.79467 0.454,0.55405 0.61548,0.96637 0.72549,1.85242 0.1107,0.89165 0.28217,1.24444 0.88721,1.82531 0.84566,0.81188 2.45349,1.41062 3.79889,1.41466 0.31408,9.4e-4 0.72422,0.0657 0.91141,0.14392 0.69008,0.28833 0.96193,1.25373 0.70288,2.49612 -0.36275,1.73977 -1.36637,2.69398 -3.03154,2.88232 -0.89165,0.10085 -1.51439,0.38122 -2.18406,0.98331 -0.60303,0.54218 -0.86664,1.07232 -0.86664,1.74291 0,1.21301 0.90488,2.27793 2.85985,3.36563 1.68248,0.9361 2.2984,1.58535 2.45725,2.59023 0.10267,0.64946 -0.0294,1.69231 -0.27532,2.17439 -0.64079,1.25606 -1.6554,1.70867 -4.79881,2.14076 -1.8791,0.25829 -2.50025,0.73664 -2.85966,2.20223 -0.21944,0.89483 -0.64549,1.7012 -1.04146,1.97112 -0.39527,0.26945 -0.46054,0.27219 -0.84849,0.0356 z"
           id="path4669"
           inkscape:connector-curvature="0"
           transform="translate(-388.73845,-45.826891)" />
        <path
           style="fill:#077b8a;fill-opacity:1;stroke:#077b8a;stroke-width:0.74656898;stroke-linecap:round;stroke-linejoin:miter;stroke-miterlimit:4;stroke-dasharray:none;stroke-opacity:1;paint-order:markers fill stroke"
           d="m 835.11226,288.6015 c -0.5862,-0.2362 -0.74881,-0.74557 -0.83375,-2.61169 -0.0311,-0.6841 -0.12376,-1.46993 -0.20582,-1.74628 -0.19854,-0.66855 -0.80475,-1.20475 -1.75777,-1.55476 -1.75034,-0.64283 -2.73349,-1.26248 -2.73349,-1.72282 0,-0.39954 0.72615,-0.81092 1.94043,-1.09931 2.19742,-0.52189 2.70411,-0.99183 3.34543,-3.1028 0.72118,-2.37384 2.02366,-3.80174 3.46779,-3.80174 0.28456,0 0.6425,0.0469 0.79542,0.10428 1.09499,0.41071 1.88653,1.5976 2.25918,3.38756 0.29571,1.42039 1.02789,2.37754 2.05118,2.68142 0.62572,0.18582 0.89135,0.18536 1.52437,-0.003 0.67543,-0.20058 1.47065,-0.93239 1.89699,-1.74571 0.5278,-1.00688 1.0089,-1.58427 1.57828,-1.89416 0.44184,-0.24049 0.59918,-0.27532 1.06799,-0.23644 0.47679,0.0395 0.59294,0.0927 0.87456,0.39995 0.65838,0.71842 0.79038,2.00373 0.33837,3.29465 -0.63611,1.81668 -2.90245,3.88819 -6.47341,5.9169 -1.20415,0.6841 -4.52852,2.32905 -5.87651,2.90779 -1.59384,0.68429 -2.83188,0.99797 -3.25924,0.82578 z"
           id="path4671"
           inkscape:connector-curvature="0"
           transform="translate(-388.73845,-45.826891)" />
        <path
           style="fill:#a2d5c6;fill-opacity:1;stroke:#a2d5c6;stroke-width:0.74656898;stroke-linecap:round;stroke-linejoin:miter;stroke-miterlimit:4;stroke-dasharray:none;stroke-opacity:1;paint-order:markers fill stroke"
           d="m 843.95377,275.61318 c -0.14433,-0.17153 -0.44309,-0.67153 -0.66391,-1.11111 -0.80838,-1.6092 -1.40592,-2.33381 -2.28701,-2.77336 -0.46438,-0.23167 -0.96045,-0.35785 -2.73011,-0.69446 -1.0675,-0.20304 -1.59644,-0.50388 -1.86087,-1.05839 -0.39678,-0.83205 -0.54975,-3.16002 -0.24926,-3.79327 0.26374,-0.55578 0.55405,-0.64314 2.04247,-0.61459 1.18907,0.0228 1.34879,0.004 1.8382,-0.21135 0.29479,-0.12998 0.90746,-0.51328 1.3615,-0.85178 1.06294,-0.79246 1.49898,-0.9595 2.37547,-0.90997 0.96837,0.0547 1.77371,0.47542 2.83729,1.48219 1.37977,1.30607 3.33874,4.10678 3.70743,5.30045 0.39186,1.2687 0.0468,1.72995 -2.04758,2.73696 -2.00133,0.96228 -2.70152,1.46605 -3.60866,2.59639 -0.23485,0.29262 -0.40622,0.2692 -0.71496,-0.0977 z"
           id="path4673"
           inkscape:connector-curvature="0"
           transform="translate(-388.73845,-45.826891)" />
        <path
           style="fill:#5c3c92;fill-opacity:1;stroke:#5c3c92;stroke-width:0.74656898;stroke-linecap:round;stroke-linejoin:miter;stroke-miterlimit:4;stroke-dasharray:none;stroke-opacity:1;paint-order:markers fill stroke"
           d="m 816.47178,270.77974 c -1.02488,-0.59747 -1.25578,-1.21842 -1.24512,-3.34847 0.0158,-3.15632 0.37036,-4.15453 1.71938,-4.84066 4.37014,-2.22274 15.61566,-3.10714 20.13057,-1.58317 1.39874,0.47214 2.77637,1.36107 2.77637,1.79149 0,0.35318 -0.38295,0.3607 -2.15113,0.0423 -1.46089,-0.26309 -2.31925,0.11032 -2.87508,1.25075 -0.38198,0.78373 -0.55488,1.48279 -0.75263,3.04302 -0.24715,1.94998 -0.43398,2.40794 -1.12647,2.76122 -0.66097,0.3372 -2.41249,0.51458 -2.89778,0.29347 -0.38646,-0.17608 -0.49257,-0.47635 -0.57206,-1.61877 -0.093,-1.33708 -0.33888,-2.05269 -0.89688,-2.61069 -0.82081,-0.82081 -1.90674,-1.13931 -3.88838,-1.14045 -3.32876,-0.002 -4.64651,0.92084 -4.88137,3.41818 -0.1452,1.54382 -0.58807,2.22513 -1.71489,2.63813 -0.75701,0.27746 -1.00898,0.26252 -1.62453,-0.0963 z"
           id="path4675"
           inkscape:connector-curvature="0"
           transform="translate(-388.73845,-45.826891)" />
        <path
           style="fill:#d72631;fill-opacity:1;stroke:#d72631;stroke-width:0.74656898;stroke-linecap:round;stroke-linejoin:miter;stroke-miterlimit:4;stroke-dasharray:none;stroke-opacity:1;paint-order:markers fill stroke"
           d="m 808.14946,269.53975 c -1.32603,-0.12554 -1.86151,-0.45607 -1.66272,-1.02632 0.22805,-0.65419 2.59222,-2.4859 4.08835,-3.16758 0.86251,-0.39299 1.8753,-0.50043 2.27132,-0.24096 0.58895,0.3859 0.67882,1.41692 0.23842,2.73518 -0.36516,1.093 -0.9099,1.46008 -2.46625,1.66188 -0.70905,0.0919 -1.73196,0.1076 -2.46912,0.0378 z"
           id="path4677"
           inkscape:connector-curvature="0"
           transform="translate(-388.73845,-45.826891)" />
        <path
           style="fill:#077b8a;fill-opacity:1;stroke:#077b8a;stroke-width:0.74656898;stroke-linecap:round;stroke-linejoin:miter;stroke-miterlimit:4;stroke-dasharray:none;stroke-opacity:1;paint-order:markers fill stroke"
           d="m 801.94558,275.06739 c -0.32394,-0.1296 -0.31546,-0.50609 0.0368,-1.63604 0.36065,-1.15674 0.49917,-1.35813 0.93416,-1.35813 0.48335,0 0.88851,0.72385 0.88451,1.58023 -0.002,0.44518 -0.30659,1.11392 -0.60116,1.32024 -0.22038,0.15436 -0.96389,0.2099 -1.25435,0.0937 z"
           id="path4679"
           inkscape:connector-curvature="0"
           transform="translate(-388.73845,-45.826891)" />
        <path
           style="fill:#a2d5c6;fill-opacity:1;stroke:#a2d5c6;stroke-width:0.74656898;stroke-linecap:round;stroke-linejoin:miter;stroke-miterlimit:4;stroke-dasharray:none;stroke-opacity:1;paint-order:markers fill stroke"
           d="m 807.34799,289.42344 c -0.84016,-0.31225 -1.21613,-0.82156 -1.87167,-2.5355 -0.71652,-1.87338 -1.15695,-2.13759 -3.25914,-1.95515 -1.12749,0.0978 -1.90958,0.31014 -2.33795,0.63463 -0.40563,0.30726 -0.50618,0.50008 -0.73199,1.40371 -0.10085,0.40354 -0.2786,0.88782 -0.39501,1.07618 -0.4349,0.70369 -1.2611,0.93195 -1.71831,0.47474 -0.22271,-0.22271 -0.24238,-0.31707 -0.24188,-1.16048 6e-4,-1.03897 0.28907,-3.17823 0.63653,-4.72051 0.61526,-2.73098 1.61406,-4.37229 2.90767,-4.77813 0.25038,-0.0786 0.83301,-0.17075 1.29474,-0.20489 1.60929,-0.119 2.62501,-0.51333 3.53217,-1.37128 0.6619,-0.626 0.94257,-1.09713 1.19166,-2.00038 0.28126,-1.01986 0.44063,-1.27274 0.96086,-1.52457 0.89637,-0.43393 3.05419,-0.3913 3.60384,0.0712 0.43244,0.36388 0.56958,0.77927 0.84143,2.54883 0.29416,1.91474 0.44409,2.45986 0.81883,2.97718 0.32012,0.44191 0.51609,0.54156 1.60957,0.81845 1.27988,0.32409 2.34522,0.9982 2.7186,1.72022 0.24515,0.47408 0.19805,1.18692 -0.10911,1.65107 -0.5358,0.80965 -1.38031,1.07948 -2.6368,0.84249 -0.76265,-0.14384 -0.84273,-0.14269 -1.16876,0.0168 -0.52169,0.25524 -0.75787,0.79367 -1.29413,2.95029 -0.73167,2.94246 -0.89109,3.11921 -2.85833,3.16901 -0.77258,0.0196 -1.24997,-0.0137 -1.49282,-0.10394 z"
           id="path4681"
           inkscape:connector-curvature="0"
           transform="translate(-388.73845,-45.826891)" />
        <path
           style="fill:#077b8a;fill-opacity:1;stroke:#077b8a;stroke-width:0.74656898;stroke-linecap:round;stroke-linejoin:miter;stroke-miterlimit:4;stroke-dasharray:none;stroke-opacity:1;paint-order:markers fill stroke"
           d="m 804.19376,303.78909 c -1.52672,-0.59748 -3.83825,-2.87609 -5.52308,-5.44442 -1.13928,-1.73671 -1.97921,-3.78867 -1.97729,-4.83059 0.002,-0.84698 0.81601,-1.49495 3.00041,-2.38707 1.41519,-0.57797 1.72002,-1.05981 1.40896,-2.22719 -0.34046,-1.27768 -0.22404,-1.56306 0.6752,-1.65519 0.3569,-0.0366 0.77851,-0.0924 0.93692,-0.12409 0.24884,-0.0498 0.31557,-0.0124 0.49064,0.27465 0.22318,0.36593 0.42262,1.00559 0.59632,1.91249 0.20433,1.06686 0.3883,1.49999 0.79209,1.86479 0.49751,0.44947 1.07509,0.61442 3.01232,0.86028 3.41692,0.43365 3.75741,0.64361 3.74916,2.31194 -0.003,0.61383 -0.0536,0.89171 -0.22661,1.24545 -0.31284,0.63962 -1.00455,1.29665 -2.04108,1.93876 -1.14701,0.71056 -1.53473,1.02656 -1.92315,1.56742 -0.40109,0.55852 -0.6676,1.31498 -0.80089,2.2733 -0.23572,1.69477 -0.72451,2.60931 -1.38963,2.60002 -0.18191,-0.003 -0.53304,-0.0838 -0.78029,-0.18055 z"
           id="path4683"
           inkscape:connector-curvature="0"
           transform="translate(-388.73845,-45.826891)" />
        <path
           style="fill:#5c3c92;fill-opacity:1;stroke:#5c3c92;stroke-width:0.74656898;stroke-linecap:round;stroke-linejoin:miter;stroke-miterlimit:4;stroke-dasharray:none;stroke-opacity:1;paint-order:markers fill stroke"
           d="m 813.384,304.50727 c -0.67393,-0.18033 -1.54591,-0.61865 -2.8542,-1.43473 -1.93378,-1.20626 -2.7699,-2.10441 -2.50346,-2.68918 0.16336,-0.35855 0.47377,-0.53151 1.80936,-1.00819 2.4879,-0.88795 3.14579,-1.60278 3.57196,-3.88114 0.39779,-2.12661 0.60917,-2.57793 1.3884,-2.96446 0.51507,-0.25549 1.88964,-0.39645 2.58814,-0.26541 0.63329,0.1188 1.19917,0.80202 2.06257,2.49026 1.10808,2.16667 2.05328,3.22578 3.1126,3.48772 2.21271,0.54714 2.44714,0.87802 1.36777,1.93049 -1.75619,1.71244 -6.00797,3.82828 -8.74937,4.354 -0.88194,0.16914 -1.09803,0.1668 -1.79377,-0.0194 z"
           id="path4685"
           inkscape:connector-curvature="0"
           transform="translate(-388.73845,-45.826891)" />
        <path
           style="fill:#d72631;fill-opacity:1;stroke:#d72631;stroke-width:0.74656898;stroke-linecap:round;stroke-linejoin:miter;stroke-miterlimit:4;stroke-dasharray:none;stroke-opacity:1;paint-order:markers fill stroke"
           d="m 827.12652,295.44822 c -0.20403,-0.24583 -0.40927,-0.84964 -0.40927,-1.20403 0,-0.6648 0.50057,-1.23283 1.08641,-1.23283 0.47984,0 1.18518,0.59864 1.18518,1.00588 0,0.3393 -0.29127,0.76333 -0.80127,1.16646 -0.51396,0.40626 -0.8698,0.49497 -1.06105,0.26452 z"
           id="path4687"
           inkscape:connector-curvature="0"
           transform="translate(-388.73845,-45.826891)" />
        <path
           style="fill:#000000;stroke-width:0.80000001"
           d="m 416.74499,302.23943 c -1.67591,-9.95689 9.38324,-19.33186 -2.27674,-29.11881 -4.92977,-4.09852 -8.89984,-9.06609 -11.28807,-14.12425 -1.88002,-3.9818 -2.07625,-5.31244 -2.06459,-14 0.0126,-9.39463 0.0761,-9.73351 2.96686,-15.84093 7.10558,-15.01216 21.21596,-23.14697 38.05881,-21.94139 10.78106,0.7717 19.92771,5.29746 25.85113,12.79116 4.43383,5.6092 6.60146,10.14544 8.95879,18.74816 1.10345,4.02687 3.49122,10.70749 5.30616,14.84583 1.81493,4.13834 3.08967,8.07204 2.83275,8.74156 -0.25692,0.66952 -1.97919,1.90093 -3.82726,2.73647 l -3.36013,1.51914 -0.4,8.18829 c -0.38451,7.87115 -0.49683,8.28497 -2.90013,10.68474 -2.28974,2.28639 -3.0807,2.54161 -9.39896,3.03291 -8.54879,0.66472 -10.14106,1.8893 -10.69763,8.2273 -0.22523,2.56483 -0.88015,4.66564 -1.64188,5.26676 -1.52046,1.19986 -34.25855,1.42016 -36.11911,0.24306 z m 12.03834,-44.16542 c 3.15377,-1.0697 7.11938,-3.67457 7.11938,-4.67647 0,-0.37944 -0.8086,-0.80493 -1.79688,-0.94553 -1.1712,-0.16662 -2.29589,-1.31775 -3.22996,-3.30589 -1.2094,-2.57417 -1.77176,-3.01119 -3.60312,-2.8 -1.78771,0.20616 -2.24052,0.72898 -2.57004,2.9674 -0.3855,2.61862 -1.20146,3.47344 -4.2,4.40002 -2.0816,0.64324 -1.70849,1.74484 1.2,3.54291 3.13808,1.94002 3.61048,1.99456 7.08062,0.81756 z m -11.13131,-2.41847 c 0.18317,-1.85646 0.89713,-2.89753 2.65069,-3.8651 1.64012,-0.90498 2.4,-1.93689 2.4,-3.25917 0,-1.70023 -0.43612,-1.98341 -3.5959,-2.3349 -3.25222,-0.36177 -3.63526,-0.62938 -4.00786,-2.8 -0.22657,-1.32 -0.67842,-2.31 -1.0041,-2.2 -0.32568,0.11 -0.9764,0.2 -1.44606,0.2 -0.49345,0 -0.63679,0.68406 -0.33956,1.62055 0.41172,1.29723 0.0234,1.79167 -1.94609,2.47826 -1.35324,0.47174 -2.46043,1.39809 -2.46043,2.05855 0,3.5234 5.62621,10.64264 8.41069,10.64264 0.63626,0 1.19201,-1.05486 1.33862,-2.54083 z m 18.26006,-7.91848 c 0.35457,-1.51732 1.05677,-1.99858 3.21885,-2.20605 3.4352,-0.32964 4.77177,-1.39093 4.77177,-3.78894 0,-1.21658 -0.7343,-2.21883 -2.1262,-2.90205 -2.99636,-1.47076 -4.04787,-3.38799 -2.72945,-4.97659 0.57836,-0.69688 1.65549,-1.26706 2.39361,-1.26706 1.88083,0 3.26204,-1.59206 3.26204,-3.76 0,-1.32618 -0.46148,-1.84 -1.65259,-1.84 -2.50294,0 -4.7474,-1.47988 -4.7474,-3.13019 0,-1.9373 -1.86166,-3.42617 -3.4986,-2.79802 -0.71577,0.27467 -1.3014,1.28888 -1.3014,2.2538 0,2.5367 -1.50927,3.67441 -4.87441,3.67441 -1.95604,0 -3.11851,0.42762 -3.44,1.26543 -0.84388,2.19911 -0.55474,2.68421 2.31441,3.88301 2.27169,0.94918 2.8,1.60026 2.8,3.45074 0,2.75901 -1.29052,4.20082 -3.76,4.20082 -1.42934,0 -1.84,0.44638 -1.84,2 0,1.58977 0.40251,2 1.96236,2 3.3754,0 5.84065,1.6151 6.34962,4.15991 0.55461,2.77307 2.22772,2.64648 2.89739,-0.21922 z m 4.09423,-0.15708 c -1.06768,-1.06768 -2.53052,0.0154 -1.97524,1.46243 0.3599,0.93788 0.70373,0.99127 1.59896,0.24829 0.72471,-0.60145 0.86188,-1.22512 0.37628,-1.71072 z m -17.25203,-5.98361 c 0.88163,-4.02352 1.13363,-4.39048 2.72873,-3.97335 2.12408,0.55546 3.75419,-1.41868 2.45955,-2.97862 -0.52582,-0.63359 -1.7399,-1.26359 -2.69795,-1.4 -1.374,-0.19564 -1.82638,-0.92389 -2.1419,-3.44803 -0.36621,-2.92966 -0.60183,-3.2 -2.78904,-3.2 -1.7629,0 -2.46203,0.41935 -2.66749,1.6 -0.37305,2.14358 -2.3829,3.6 -4.96796,3.6 -2.45659,0 -3.76355,2.2302 -4.51352,7.70188 -0.3901,2.84606 -0.24589,3.49812 0.77363,3.49812 0.69042,0 1.36788,-0.80824 1.50874,-1.8 0.19649,-1.38354 0.8626,-1.8584 2.87897,-2.05243 2.30301,-0.2216 2.72774,0.047 3.47827,2.2 0.68737,1.97181 1.30693,2.45243 3.16141,2.45243 1.86599,0 2.39857,-0.42017 2.78856,-2.2 z m 30.06633,-1.09016 c 6.54344,-3.2062 9.48209,-5.9519 9.48209,-8.85951 0,-2.98629 -2.83345,-3.13009 -4.16334,-0.2113 -1.34661,2.95548 -4.87104,2.46668 -5.43286,-0.75348 -0.85824,-4.91914 -5.30751,-4.7801 -6.5996,0.20625 -0.51139,1.97351 -1.20646,2.66865 -3.03379,3.03412 -3.03516,0.60703 -3.02327,1.72972 0.0296,2.79396 2.03244,0.70851 2.4,1.25348 2.4,3.55838 0,3.40974 0.78123,3.43447 7.31791,0.23158 z m 6.73861,-13.18501 c 3.01926,-1.26153 2.99446,-2.18223 -0.17428,-6.47075 -2.38124,-3.22271 -4.72728,-4.02329 -6.6612,-2.27312 -0.80536,0.72885 -1.94956,1.25864 -2.54267,1.17732 -2.67393,-0.36661 -3.17549,0.0857 -2.92905,2.64172 0.22157,2.29806 0.57585,2.64645 3.05068,3 2.16127,0.30875 3.07375,0.97454 4,2.91861 0.94832,1.99036 1.34299,2.26828 1.88171,1.32505 0.37493,-0.65647 1.8936,-1.69994 3.37481,-2.31883 z m -44.45651,0.47517 c 0,-0.88 -0.36,-1.6 -0.8,-1.6 -0.44,0 -0.8,0.15056 -0.8,0.33457 0,0.18401 -0.21852,0.90401 -0.4856,1.6 -0.31864,0.83039 -0.0436,1.26543 0.8,1.26543 0.75226,0 1.2856,-0.66377 1.2856,-1.6 z m 14.73456,-2.88559 c 0.696,-0.26707 1.26544,-1.27507 1.26544,-2.24 0,-2.52208 1.50532,-3.67441 4.8,-3.67441 3.34618,0 4.79999,1.15492 4.79999,3.81314 0,1.59327 0.34848,1.85304 2.2,1.64 1.86999,-0.21517 2.23981,-0.67267 2.46536,-3.04993 0.34703,-3.65743 1.45408,-4.90411 3.82618,-4.30875 3.45642,0.86751 2.02572,-1.20094 -1.49154,-2.15639 -4.02128,-1.09238 -13.21998,-0.53195 -17.79999,1.08446 -2.99113,1.05564 -3.21644,1.35421 -3.4519,4.57413 -0.16182,2.213 0.12424,3.68328 0.8,4.1118 1.27766,0.81021 1.05749,0.79267 2.58646,0.20595 z m -5.62016,-2.37984 c 1.44872,-3.77531 -0.53592,-4.62509 -4.39091,-1.88009 -3.14819,2.24171 -2.92094,3.14552 0.79091,3.14552 2.10195,0 3.27228,-0.41138 3.6,-1.26543 z"
           id="path4533"
           inkscape:connector-curvature="0"
           sodipodi:nodetypes="csscscscsccsccsccccscsccccccsscssccsscccssssssscssccsssscccccccccssscscscscsccscscsssccsscccsccsscscssccssscssccscccscc" />
      </g>
    </g>
  </g>
</svg>
