<?xml version="1.0" encoding="UTF-8" standalone="no"?>
<!-- Created with Inkscape (http://www.inkscape.org/) -->

<svg
   xmlns:dc="http://purl.org/dc/elements/1.1/"
   xmlns:cc="http://creativecommons.org/ns#"
   xmlns:rdf="http://www.w3.org/1999/02/22-rdf-syntax-ns#"
   xmlns:svg="http://www.w3.org/2000/svg"
   xmlns="http://www.w3.org/2000/svg"
   xmlns:sodipodi="http://sodipodi.sourceforge.net/DTD/sodipodi-0.dtd"
   xmlns:inkscape="http://www.inkscape.org/namespaces/inkscape"
   width="22.901691mm"
   height="16.066345mm"
   viewBox="0 0 22.901691 16.066344"
   version="1.1"
   id="svg8"
   sodipodi:docname="logo1.svg"
   inkscape:version="0.92.4 (5da689c313, 2019-01-14)">
  <defs
     id="defs2" />
  <sodipodi:namedview
     id="base"
     pagecolor="#ffffff"
     bordercolor="#666666"
     borderopacity="1.0"
     inkscape:pageopacity="0.0"
     inkscape:pageshadow="2"
     inkscape:zoom="3.959798"
     inkscape:cx="18.847988"
     inkscape:cy="48.652056"
     inkscape:document-units="mm"
     inkscape:current-layer="layer1"
     showgrid="false"
     inkscape:window-width="1920"
     inkscape:window-height="1001"
     inkscape:window-x="-9"
     inkscape:window-y="-9"
     inkscape:window-maximized="1"
     fit-margin-top="0"
     fit-margin-left="0"
     fit-margin-right="0"
     fit-margin-bottom="0" />
  <metadata
     id="metadata5">
    <rdf:RDF>
      <cc:Work
         rdf:about="">
        <dc:format>image/svg+xml</dc:format>
        <dc:type
           rdf:resource="http://purl.org/dc/dcmitype/StillImage" />
        <dc:title></dc:title>
      </cc:Work>
    </rdf:RDF>
  </metadata>
  <g
     inkscape:label="Ebene 1"
     inkscape:groupmode="layer"
     id="layer1"
     transform="translate(-63.530346,-64.25543)">
    <g
       id="g894"
       transform="matrix(2.1764204,0,0,2.1764204,-74.738392,-75.59139)">
      <g
         inkscape:label="Ebene 1"
         id="layer1-3"
         transform="translate(432.25606,26.897719)">
        <g
           transform="matrix(0.26458333,0,0,0.26458333,-272.61724,38.735843)"
           id="g4529">
          <g
             transform="translate(-672.67283,-212.30538)"
             id="g4700">
            <g
               id="g856"
               transform="matrix(0.15903462,0,0,0.19174599,260.2184,167.38672)">
              <path
                 transform="translate(-388.73845,-45.826891)"
                 inkscape:connector-curvature="0"
                 id="path4669"
                 d="m 822.70877,295.59018 c -0.35763,-0.21808 -0.62737,-0.75201 -0.91908,-1.81925 -0.29836,-1.09155 -0.63755,-1.70121 -1.33208,-2.39429 -1.08202,-1.07975 -2.6701,-1.6713 -4.79548,-1.78628 -1.90264,-0.10294 -2.12999,-0.31232 -2.12999,-1.96168 0,-1.58111 0.24721,-1.84599 1.83028,-1.9612 1.05091,-0.0765 1.72255,-0.27196 2.25194,-0.65545 0.95642,-0.69283 1.43346,-1.85613 1.43805,-3.50677 0.005,-1.848 -0.36511,-2.39777 -2.20751,-3.27789 -2.30113,-1.09926 -2.55359,-1.23687 -2.8723,-1.5657 -0.26433,-0.27271 -0.33291,-0.43251 -0.36779,-0.85691 -0.0444,-0.5407 0.21792,-1.52839 0.5342,-2.0111 0.36647,-0.55929 1.6829,-0.92081 3.39311,-0.93181 1.81471,-0.0117 3.30691,-0.49954 3.99821,-1.30717 0.41617,-0.4862 0.7425,-1.4487 0.7425,-2.18997 0,-1.06408 0.53755,-2.09302 1.2487,-2.39015 0.86596,-0.36183 2.09314,-0.007 2.75024,0.79467 0.454,0.55405 0.61548,0.96637 0.72549,1.85242 0.1107,0.89165 0.28217,1.24444 0.88721,1.82531 0.84566,0.81188 2.45349,1.41062 3.79889,1.41466 0.31408,9.4e-4 0.72422,0.0657 0.91141,0.14392 0.69008,0.28833 0.96193,1.25373 0.70288,2.49612 -0.36275,1.73977 -1.36637,2.69398 -3.03154,2.88232 -0.89165,0.10085 -1.51439,0.38122 -2.18406,0.98331 -0.60303,0.54218 -0.86664,1.07232 -0.86664,1.74291 0,1.21301 0.90488,2.27793 2.85985,3.36563 1.68248,0.9361 2.2984,1.58535 2.45725,2.59023 0.10267,0.64946 -0.0294,1.69231 -0.27532,2.17439 -0.64079,1.25606 -1.6554,1.70867 -4.79881,2.14076 -1.8791,0.25829 -2.50025,0.73664 -2.85966,2.20223 -0.21944,0.89483 -0.64549,1.7012 -1.04146,1.97112 -0.39527,0.26945 -0.46054,0.27219 -0.84849,0.0356 z"
                 style="fill:#d72631;fill-opacity:1;stroke:#d72631;stroke-width:0.74656898;stroke-linecap:round;stroke-linejoin:miter;stroke-miterlimit:4;stroke-dasharray:none;stroke-opacity:1;paint-order:markers fill stroke" />
              <path
                 transform="translate(-388.73845,-45.826891)"
                 inkscape:connector-curvature="0"
                 id="path4671"
                 d="m 835.11226,288.6015 c -0.5862,-0.2362 -0.74881,-0.74557 -0.83375,-2.61169 -0.0311,-0.6841 -0.12376,-1.46993 -0.20582,-1.74628 -0.19854,-0.66855 -0.80475,-1.20475 -1.75777,-1.55476 -1.75034,-0.64283 -2.73349,-1.26248 -2.73349,-1.72282 0,-0.39954 0.72615,-0.81092 1.94043,-1.09931 2.19742,-0.52189 2.70411,-0.99183 3.34543,-3.1028 0.72118,-2.37384 2.02366,-3.80174 3.46779,-3.80174 0.28456,0 0.6425,0.0469 0.79542,0.10428 1.09499,0.41071 1.88653,1.5976 2.25918,3.38756 0.29571,1.42039 1.02789,2.37754 2.05118,2.68142 0.62572,0.18582 0.89135,0.18536 1.52437,-0.003 0.67543,-0.20058 1.47065,-0.93239 1.89699,-1.74571 0.5278,-1.00688 1.0089,-1.58427 1.57828,-1.89416 0.44184,-0.24049 0.59918,-0.27532 1.06799,-0.23644 0.47679,0.0395 0.59294,0.0927 0.87456,0.39995 0.65838,0.71842 0.79038,2.00373 0.33837,3.29465 -0.63611,1.81668 -2.90245,3.88819 -6.47341,5.9169 -1.20415,0.6841 -4.52852,2.32905 -5.87651,2.90779 -1.59384,0.68429 -2.83188,0.99797 -3.25924,0.82578 z"
                 style="fill:#077b8a;fill-opacity:1;stroke:#077b8a;stroke-width:0.74656898;stroke-linecap:round;stroke-linejoin:miter;stroke-miterlimit:4;stroke-dasharray:none;stroke-opacity:1;paint-order:markers fill stroke" />
              <path
                 transform="translate(-388.73845,-45.826891)"
                 inkscape:connector-curvature="0"
                 id="path4673"
                 d="m 843.95377,275.61318 c -0.14433,-0.17153 -0.44309,-0.67153 -0.66391,-1.11111 -0.80838,-1.6092 -1.40592,-2.33381 -2.28701,-2.77336 -0.46438,-0.23167 -0.96045,-0.35785 -2.73011,-0.69446 -1.0675,-0.20304 -1.59644,-0.50388 -1.86087,-1.05839 -0.39678,-0.83205 -0.54975,-3.16002 -0.24926,-3.79327 0.26374,-0.55578 0.55405,-0.64314 2.04247,-0.61459 1.18907,0.0228 1.34879,0.004 1.8382,-0.21135 0.29479,-0.12998 0.90746,-0.51328 1.3615,-0.85178 1.06294,-0.79246 1.49898,-0.9595 2.37547,-0.90997 0.96837,0.0547 1.77371,0.47542 2.83729,1.48219 1.37977,1.30607 3.33874,4.10678 3.70743,5.30045 0.39186,1.2687 0.0468,1.72995 -2.04758,2.73696 -2.00133,0.96228 -2.70152,1.46605 -3.60866,2.59639 -0.23485,0.29262 -0.40622,0.2692 -0.71496,-0.0977 z"
                 style="fill:#a2d5c6;fill-opacity:1;stroke:#a2d5c6;stroke-width:0.74656898;stroke-linecap:round;stroke-linejoin:miter;stroke-miterlimit:4;stroke-dasharray:none;stroke-opacity:1;paint-order:markers fill stroke" />
              <path
                 transform="translate(-388.73845,-45.826891)"
                 inkscape:connector-curvature="0"
                 id="path4675"
                 d="m 816.47178,270.77974 c -1.02488,-0.59747 -1.25578,-1.21842 -1.24512,-3.34847 0.0158,-3.15632 0.37036,-4.15453 1.71938,-4.84066 4.37014,-2.22274 15.61566,-3.10714 20.13057,-1.58317 1.39874,0.47214 2.77637,1.36107 2.77637,1.79149 0,0.35318 -0.38295,0.3607 -2.15113,0.0423 -1.46089,-0.26309 -2.31925,0.11032 -2.87508,1.25075 -0.38198,0.78373 -0.55488,1.48279 -0.75263,3.04302 -0.24715,1.94998 -0.43398,2.40794 -1.12647,2.76122 -0.66097,0.3372 -2.41249,0.51458 -2.89778,0.29347 -0.38646,-0.17608 -0.49257,-0.47635 -0.57206,-1.61877 -0.093,-1.33708 -0.33888,-2.05269 -0.89688,-2.61069 -0.82081,-0.82081 -1.90674,-1.13931 -3.88838,-1.14045 -3.32876,-0.002 -4.64651,0.92084 -4.88137,3.41818 -0.1452,1.54382 -0.58807,2.22513 -1.71489,2.63813 -0.75701,0.27746 -1.00898,0.26252 -1.62453,-0.0963 z"
                 style="fill:#5c3c92;fill-opacity:1;stroke:#5c3c92;stroke-width:0.74656898;stroke-linecap:round;stroke-linejoin:miter;stroke-miterlimit:4;stroke-dasharray:none;stroke-opacity:1;paint-order:markers fill stroke" />
              <path
                 transform="translate(-388.73845,-45.826891)"
                 inkscape:connector-curvature="0"
                 id="path4677"
                 d="m 808.14946,269.53975 c -1.32603,-0.12554 -1.86151,-0.45607 -1.66272,-1.02632 0.22805,-0.65419 2.59222,-2.4859 4.08835,-3.16758 0.86251,-0.39299 1.8753,-0.50043 2.27132,-0.24096 0.58895,0.3859 0.67882,1.41692 0.23842,2.73518 -0.36516,1.093 -0.9099,1.46008 -2.46625,1.66188 -0.70905,0.0919 -1.73196,0.1076 -2.46912,0.0378 z"
                 style="fill:#d72631;fill-opacity:1;stroke:#d72631;stroke-width:0.74656898;stroke-linecap:round;stroke-linejoin:miter;stroke-miterlimit:4;stroke-dasharray:none;stroke-opacity:1;paint-order:markers fill stroke" />
              <path
                 transform="translate(-388.73845,-45.826891)"
                 inkscape:connector-curvature="0"
                 id="path4679"
                 d="m 801.94558,275.06739 c -0.32394,-0.1296 -0.31546,-0.50609 0.0368,-1.63604 0.36065,-1.15674 0.49917,-1.35813 0.93416,-1.35813 0.48335,0 0.88851,0.72385 0.88451,1.58023 -0.002,0.44518 -0.30659,1.11392 -0.60116,1.32024 -0.22038,0.15436 -0.96389,0.2099 -1.25435,0.0937 z"
                 style="fill:#077b8a;fill-opacity:1;stroke:#077b8a;stroke-width:0.74656898;stroke-linecap:round;stroke-linejoin:miter;stroke-miterlimit:4;stroke-dasharray:none;stroke-opacity:1;paint-order:markers fill stroke" />
              <path
                 transform="translate(-388.73845,-45.826891)"
                 inkscape:connector-curvature="0"
                 id="path4681"
                 d="m 807.34799,289.42344 c -0.84016,-0.31225 -1.21613,-0.82156 -1.87167,-2.5355 -0.71652,-1.87338 -1.15695,-2.13759 -3.25914,-1.95515 -1.12749,0.0978 -1.90958,0.31014 -2.33795,0.63463 -0.40563,0.30726 -0.50618,0.50008 -0.73199,1.40371 -0.10085,0.40354 -0.2786,0.88782 -0.39501,1.07618 -0.4349,0.70369 -1.2611,0.93195 -1.71831,0.47474 -0.22271,-0.22271 -0.24238,-0.31707 -0.24188,-1.16048 6e-4,-1.03897 0.28907,-3.17823 0.63653,-4.72051 0.61526,-2.73098 1.61406,-4.37229 2.90767,-4.77813 0.25038,-0.0786 0.83301,-0.17075 1.29474,-0.20489 1.60929,-0.119 2.62501,-0.51333 3.53217,-1.37128 0.6619,-0.626 0.94257,-1.09713 1.19166,-2.00038 0.28126,-1.01986 0.44063,-1.27274 0.96086,-1.52457 0.89637,-0.43393 3.05419,-0.3913 3.60384,0.0712 0.43244,0.36388 0.56958,0.77927 0.84143,2.54883 0.29416,1.91474 0.44409,2.45986 0.81883,2.97718 0.32012,0.44191 0.51609,0.54156 1.60957,0.81845 1.27988,0.32409 2.34522,0.9982 2.7186,1.72022 0.24515,0.47408 0.19805,1.18692 -0.10911,1.65107 -0.5358,0.80965 -1.38031,1.07948 -2.6368,0.84249 -0.76265,-0.14384 -0.84273,-0.14269 -1.16876,0.0168 -0.52169,0.25524 -0.75787,0.79367 -1.29413,2.95029 -0.73167,2.94246 -0.89109,3.11921 -2.85833,3.16901 -0.77258,0.0196 -1.24997,-0.0137 -1.49282,-0.10394 z"
                 style="fill:#a2d5c6;fill-opacity:1;stroke:#a2d5c6;stroke-width:0.74656898;stroke-linecap:round;stroke-linejoin:miter;stroke-miterlimit:4;stroke-dasharray:none;stroke-opacity:1;paint-order:markers fill stroke" />
              <path
                 transform="translate(-388.73845,-45.826891)"
                 inkscape:connector-curvature="0"
                 id="path4683"
                 d="m 804.19376,303.78909 c -1.52672,-0.59748 -3.83825,-2.87609 -5.52308,-5.44442 -1.13928,-1.73671 -1.97921,-3.78867 -1.97729,-4.83059 0.002,-0.84698 0.81601,-1.49495 3.00041,-2.38707 1.41519,-0.57797 1.72002,-1.05981 1.40896,-2.22719 -0.34046,-1.27768 -0.22404,-1.56306 0.6752,-1.65519 0.3569,-0.0366 0.77851,-0.0924 0.93692,-0.12409 0.24884,-0.0498 0.31557,-0.0124 0.49064,0.27465 0.22318,0.36593 0.42262,1.00559 0.59632,1.91249 0.20433,1.06686 0.3883,1.49999 0.79209,1.86479 0.49751,0.44947 1.07509,0.61442 3.01232,0.86028 3.41692,0.43365 3.75741,0.64361 3.74916,2.31194 -0.003,0.61383 -0.0536,0.89171 -0.22661,1.24545 -0.31284,0.63962 -1.00455,1.29665 -2.04108,1.93876 -1.14701,0.71056 -1.53473,1.02656 -1.92315,1.56742 -0.40109,0.55852 -0.6676,1.31498 -0.80089,2.2733 -0.23572,1.69477 -0.72451,2.60931 -1.38963,2.60002 -0.18191,-0.003 -0.53304,-0.0838 -0.78029,-0.18055 z"
                 style="fill:#077b8a;fill-opacity:1;stroke:#077b8a;stroke-width:0.74656898;stroke-linecap:round;stroke-linejoin:miter;stroke-miterlimit:4;stroke-dasharray:none;stroke-opacity:1;paint-order:markers fill stroke" />
              <path
                 transform="translate(-388.73845,-45.826891)"
                 inkscape:connector-curvature="0"
                 id="path4685"
                 d="m 813.384,304.50727 c -0.67393,-0.18033 -1.54591,-0.61865 -2.8542,-1.43473 -1.93378,-1.20626 -2.7699,-2.10441 -2.50346,-2.68918 0.16336,-0.35855 0.47377,-0.53151 1.80936,-1.00819 2.4879,-0.88795 3.14579,-1.60278 3.57196,-3.88114 0.39779,-2.12661 0.60917,-2.57793 1.3884,-2.96446 0.51507,-0.25549 1.88964,-0.39645 2.58814,-0.26541 0.63329,0.1188 1.19917,0.80202 2.06257,2.49026 1.10808,2.16667 2.05328,3.22578 3.1126,3.48772 2.21271,0.54714 2.44714,0.87802 1.36777,1.93049 -1.75619,1.71244 -6.00797,3.82828 -8.74937,4.354 -0.88194,0.16914 -1.09803,0.1668 -1.79377,-0.0194 z"
                 style="fill:#5c3c92;fill-opacity:1;stroke:#5c3c92;stroke-width:0.74656898;stroke-linecap:round;stroke-linejoin:miter;stroke-miterlimit:4;stroke-dasharray:none;stroke-opacity:1;paint-order:markers fill stroke" />
              <path
                 transform="translate(-388.73845,-45.826891)"
                 inkscape:connector-curvature="0"
                 id="path4687"
                 d="m 827.12652,295.44822 c -0.20403,-0.24583 -0.40927,-0.84964 -0.40927,-1.20403 0,-0.6648 0.50057,-1.23283 1.08641,-1.23283 0.47984,0 1.18518,0.59864 1.18518,1.00588 0,0.3393 -0.29127,0.76333 -0.80127,1.16646 -0.51396,0.40626 -0.8698,0.49497 -1.06105,0.26452 z"
                 style="fill:#d72631;fill-opacity:1;stroke:#d72631;stroke-width:0.74656898;stroke-linecap:round;stroke-linejoin:miter;stroke-miterlimit:4;stroke-dasharray:none;stroke-opacity:1;paint-order:markers fill stroke" />
              <path
                 sodipodi:nodetypes="scccssscssssscsssscscscsssssssccccccccssssssssssccccccccscccsccccccccssscssscccssccsscsccscccsccccscccsccccccscccccssccscscsccscccscccscscsccsscsssssscssssscccscccccsscccccsccscscsscccssssssccsccscccsccscsccsscsscssccsscscscsccsccscccsscscccccssscssccssccsssssssscssccsssscccccccscssscscscscsccscscsssccsccccsccsssscsscsssscssccsccssc"
                 inkscape:connector-curvature="0"
                 id="path4533"
                 d="m 495.10896,351.91343 c -0.31205,-0.27212 -0.47805,-1.953 -0.038,-2.22494 0.87784,-0.54254 0.34951,-8.50773 -0.49093,-9.34818 -0.28751,-0.28751 -1.72173,0.21829 -3.18718,1.12399 -5.72526,3.5384 -7.99952,0.40813 -7.27112,-10.00788 0.49279,-7.04675 1.25613,-7.66005 9.53393,-7.66005 5.48239,0 6.24709,0.17627 6.24709,1.44 0,0.792 -0.38071,1.82071 -0.84602,2.28602 -0.96771,0.96772 -1.62829,20.37012 -0.59532,23.27398 0.59721,1.67886 0.20011,1.48088 -1.66535,1.8 -0.5483,0.0938 -1.68705,-0.68294 -1.68705,-0.68294 z m -2.99196,-14.1459 c 2.83578,-1.92696 2.9857,-2.24834 2.9857,-6.4 v -4.37116 h -3.5144 c -4.04968,0 -4.4856,0.62195 -4.4856,6.4 0,3.97523 0.56827,6.4 1.49988,6.4 0.2908,0 1.87228,-0.91298 3.51442,-2.02884 z m -179.41429,4.44732 c -0.95823,-0.6045 -1.25135,-3.1406 -1.45486,-12.58775 -0.14018,-6.50691 -0.59018,-12.17273 -1,-12.59073 -1.70068,-1.73461 -0.70889,-2.84 2.54812,-2.84 3.20683,0 3.27729,0.0578 2.68476,2.2 -1.01202,3.65891 -1.33456,19.68412 -0.44335,22.02816 0.74072,1.94826 1.22308,2.17184 4.68553,2.17184 2.12289,0 4.2918,-0.432 4.8198,-0.96 1.4859,-1.4859 1.30561,-19.87726 -0.21456,-21.8871 -1.97105,-2.60596 -1.48032,-3.5529 1.84123,-3.5529 3.90702,0 4.33773,0.48419 2.90142,3.2617 -0.85298,1.6495 -1.16809,5.13982 -1.16809,12.93857 0,7.23979 -0.30922,10.98895 -0.96,11.63973 -1.15023,1.15023 -12.47463,1.29217 -14.24,0.17848 z m 22.79621,-0.0246 c -0.27402,-0.44338 0.0647,-1.36909 0.75278,-2.05714 1.65725,-1.65725 1.69388,-11.28442 0.0512,-13.45458 -2.23636,-2.95447 0.84792,-4.05166 3.47195,-1.2351 l 1.53446,1.64706 2.69671,-1.64406 c 5.56259,-3.39124 7.0967,-1.69427 7.0967,7.85017 0,3.52296 0.36,6.62787 0.8,6.89981 0.44,0.27194 0.8,1.01318 0.8,1.64722 0,0.81158 -0.94714,1.15278 -3.2,1.15278 -2.25287,0 -3.2,-0.3412 -3.2,-1.15278 0,-0.63404 0.36,-1.37528 0.8,-1.64722 0.44,-0.27194 0.8,-3.17318 0.8,-6.44722 0,-5.71783 -0.0743,-5.95278 -1.88319,-5.95278 -1.03575,0 -2.83575,0.88281 -4,1.9618 -1.72819,1.60164 -2.11681,2.67379 -2.11681,5.84 0,2.13301 0.40063,4.27883 0.89029,4.7685 0.48966,0.48965 0.64842,1.28165 0.35279,1.76 -0.67675,1.09499 -4.97949,1.14342 -5.64688,0.0636 z m 22.38213,-0.0289 c -0.28385,-0.45928 -0.096,-1.3412 0.41739,-1.95982 1.02479,-1.2348 0.78958,-11.81509 -0.31564,-14.1984 -0.82763,-1.78472 1.44252,-2.79885 3.1301,-1.39828 0.88865,0.73752 1.18981,2.77499 1.18981,8.04974 0,5.71444 0.25046,7.20246 1.31232,7.7967 0.72177,0.40393 1.06053,1.14182 0.75278,1.63976 -0.70319,1.13778 -5.79293,1.19294 -6.48676,0.0703 z m 16.65175,-0.16498 c -0.4212,-0.55 -1.40279,-3.52 -2.18131,-6.6 -0.77851,-3.08 -2.13477,-6.6252 -3.01391,-7.87822 -1.89584,-2.70211 -1.09461,-3.96855 2.26767,-3.58432 2.05277,0.23458 2.27167,0.53222 2.05537,2.79465 -0.28843,3.01691 2.07561,11.66521 3.02786,11.07669 1.10401,-0.68232 3.25124,-8.63803 3.02523,-11.2088 -0.18348,-2.087 0.0765,-2.43307 1.99355,-2.65358 2.67078,-0.3072 3.74473,1.677 1.99362,3.68338 -1.32007,1.51248 -2.57704,5.26975 -3.4024,10.1702 -0.62894,3.7343 -1.64246,5.2 -3.59577,5.2 -0.77225,0 -1.74871,-0.45 -2.16991,-1 z m 14.70324,0.46666 c -0.29333,-0.29332 -0.53333,-4.24066 -0.53333,-8.77184 0,-9.50205 0.28144,-9.89482 7.09026,-9.89482 4.42623,0 6.50974,1.38192 6.50974,4.31769 0,2.00125 -1.89326,3.96845 -7.03388,7.30858 -2.0768,1.34941 -3.33885,2.73359 -3.19344,3.50245 0.30087,1.59092 4.7008,2.11639 7.07624,0.8451 2.25534,-1.20703 3.89495,0.16593 2.37921,1.99228 -0.73661,0.88756 -2.53097,1.2339 -6.39276,1.2339 -2.95279,0 -5.60871,-0.24 -5.90204,-0.53334 z m 7.17224,-10.73191 c 1.54423,-0.95438 2.69443,-2.3204 2.69443,-3.2 0,-1.28466 -0.58414,-1.53475 -3.58476,-1.53475 -3.1557,0 -3.64479,0.23917 -4.08628,1.99821 -0.59034,2.35212 0.039,4.40179 1.3515,4.40179 0.51187,0 2.14318,-0.74936 3.62511,-1.66525 z m 9.89443,10.45411 c 0,-0.49673 0.54,-1.44315 1.2,-2.10315 1.71112,-1.71112 1.65432,-11.2577 -0.0784,-13.17231 -2.3918,-2.6429 0.9622,-4.3715 3.69078,-1.90216 1.19578,1.08215 1.65751,1.0779 4.3329,-0.0399 3.46266,-1.4468 5.25468,-0.60122 5.25468,2.47945 0,2.35656 -1.12992,3.07961 -2.40731,1.54045 -1.35897,-1.63747 -3.47226,-1.49224 -5.14254,0.3534 -1.08791,1.20212 -1.32767,2.5768 -1.08133,6.2 0.17408,2.56048 0.47731,5.1954 0.67385,5.8554 0.2712,0.91075 -0.46222,1.2593 -3.04267,1.446 -2.13746,0.15465 -3.4,-0.0894 -3.4,-0.65714 z m 18.93333,0.2778 c -0.82972,-0.82971 -0.62763,-3.31396 0.31707,-3.89781 0.46773,-0.28907 1.5159,0.0766 2.32926,0.81274 1.85021,1.67443 5.90831,1.33734 6.2603,-0.52 0.16774,-0.88518 -1.38449,-2.45084 -4.58381,-4.62345 -5.74015,-3.89807 -6.97047,-6.63913 -4.04373,-9.00907 3.89572,-3.15456 14.64785,-0.56934 11.34962,2.72888 -0.79343,0.79343 -1.32859,0.79802 -2.57116,0.022 -0.86304,-0.53897 -2.65406,-0.97995 -3.98003,-0.97995 -3.53041,0 -3.21704,2.58723 0.58915,4.86417 1.65,0.98706 3.81,2.51917 4.8,3.40469 1.95258,1.74652 2.38433,5.2268 0.84,6.77114 -1.00546,1.00546 -10.37434,1.359 -11.30667,0.42666 z m 16,0 c -0.29334,-0.29332 -0.53334,-1.67057 -0.53334,-3.06054 0,-2.76009 1.42476,-4.3879 7.02559,-8.02691 1.88407,-1.22413 3.29097,-2.62023 3.12644,-3.10245 -0.16454,-0.48222 -2.13353,-0.88424 -4.37554,-0.89338 -4.61674,-0.0188 -5.65365,-0.6035 -4.19253,-2.36404 1.18064,-1.42258 8.06106,-1.67968 10.46864,-0.3912 1.33773,0.71594 1.5474,1.72162 1.5474,7.422 0,4.49579 0.37284,7.12615 1.17176,8.26676 0.64447,0.92011 0.94447,1.90021 0.66667,2.17801 -0.6759,0.6759 -14.22663,0.65022 -14.90509,-0.0282 z m 9.46666,-5.4 c 0,-1.72332 -0.36972,-3.25656 -0.8216,-3.4072 -0.45187,-0.15062 -2.04435,0.74695 -3.53883,1.9946 -3.59965,3.00512 -2.99276,5.15416 1.354,4.79461 2.92119,-0.24162 3.00643,-0.33752 3.00643,-3.38201 z m 10.45603,5.22399 c -0.24113,-0.39015 0.0976,-1.15423 0.75278,-1.69796 1.71019,-1.41933 1.72647,-21.27247 0.0194,-23.70959 -1.36417,-1.94763 -0.89678,-2.6831 1.70509,-2.6831 h 1.86666 v 12.30205 c 0,9.95918 0.22854,12.4917 1.2,13.29795 2.23209,1.85247 1.40977,3.2 -1.95278,3.2 -1.73403,0 -3.35007,-0.31921 -3.59119,-0.70935 z m 12.10555,0.20426 c -0.2778,-0.2778 0.0222,-1.2579 0.66667,-2.17801 1.35002,-1.92742 1.64367,-12.1308 0.37175,-12.9169 -1.39833,-0.86422 -0.91197,-3.6 0.64,-3.6 2.71964,0 3.36,1.69865 3.36,8.91278 0,3.84604 0.36,7.21528 0.8,7.48722 0.44,0.27194 0.8,1.01318 0.8,1.64722 0,0.80323 -0.92989,1.15278 -3.06666,1.15278 -1.68667,0 -3.29396,-0.22729 -3.57176,-0.50509 z m 35.17176,-0.0282 c -0.29334,-0.29333 -0.53334,-3.50762 -0.53334,-7.14286 0,-4.80847 -0.32699,-6.93651 -1.2,-7.80952 -0.66,-0.66 -1.2,-1.61143 -1.2,-2.11429 0,-0.50286 0.54,-1.45429 1.2,-2.11429 0.66,-0.66 1.2,-2.28428 1.2,-3.60952 0,-3.12691 1.89913,-2.63641 2.26693,0.58551 0.14682,1.28606 0.83261,2.9683 1.52399,3.7383 1.14413,1.27422 1.13811,1.53143 -0.067,2.86299 -0.97162,1.07363 -1.32399,2.98236 -1.32399,7.17186 0,4.91637 0.22522,5.82939 1.62241,6.57714 0.89232,0.47756 1.41108,1.21023 1.15278,1.62815 -0.53606,0.86736 -3.83979,1.02859 -4.64185,0.22652 z m 9.6,0 c -0.29334,-0.29333 -0.53334,-4.24067 -0.53334,-8.77185 0,-9.59019 0.2329,-9.89482 7.56456,-9.89482 3.95516,0 4.57156,0.22346 5.35412,1.94101 1.52767,3.35286 0.27099,5.64834 -4.71013,8.6036 -5.42395,3.218 -6.25451,5.69617 -2.04552,6.10332 1.40968,0.13636 3.33832,-0.16699 4.28589,-0.67411 2.25535,-1.20703 3.89495,0.16593 2.37922,1.99228 -0.73661,0.88756 -2.53097,1.2339 -6.39276,1.2339 -2.95279,0 -5.60871,-0.24 -5.90204,-0.53334 z m 7.21169,-10.86671 c 1.45422,-0.99 2.6465,-2.43 2.64951,-3.2 0.004,-1.12674 -0.69722,-1.4 -3.59454,-1.4 h -3.6 v 3.2 c 0,3.71139 0.79163,3.95523 4.54503,1.4 z m 8.62941,9.71947 c -0.79949,-2.519 0.8391,-3.7172 2.73591,-2.00061 1.89203,1.71227 5.97007,1.44024 6.32277,-0.42176 0.30403,-1.605 -0.96993,-2.8658 -5.73667,-5.6774 -3.2725,-1.93024 -3.69645,-2.50048 -3.69645,-4.97186 0,-3.43138 1.59683,-4.44784 6.98741,-4.44784 4.1087,0 5.81259,0.98494 5.81259,3.36 0,1.59498 -1.60688,1.91312 -2.93827,0.58173 -1.26536,-1.26536 -6.26173,-0.59807 -6.26173,0.83628 0,0.64791 2.06475,2.54433 4.58835,4.21428 4.86534,3.21957 6.1924,5.65405 4.65153,8.5332 -0.77649,1.45088 -1.63309,1.67451 -6.41412,1.67451 -4.90347,0 -5.57733,-0.18714 -6.05132,-1.68053 z m 19.65371,0.13312 c -0.45548,-0.85107 -0.82815,-4.09596 -0.82815,-7.21085 0,-3.1149 -0.43272,-6.35635 -0.96161,-7.20323 -0.73496,-1.17686 -0.7428,-1.97565 -0.0333,-3.38914 0.51059,-1.01715 1.03331,-2.74937 1.16161,-3.84937 0.35383,-3.0335 2.58189,-2.53511 2.88739,0.64587 0.13976,1.45523 0.76976,2.84375 1.4,3.08559 1.50979,0.57936 1.47246,3.17204 -0.0541,3.75784 -0.92017,0.3531 -1.2,1.87013 -1.2,6.5054 0,5.74968 0.10003,6.08293 2.04813,6.8236 2.56639,0.97574 1.81834,2.3817 -1.2672,2.3817 -1.47954,0 -2.6257,-0.56254 -3.15279,-1.54741 z M 475.6291,320.0561 c -0.28952,-0.28952 -0.5264,-1.00639 -0.5264,-1.59307 0,-1.19176 2.06229,-1.4603 2.74398,-0.35731 0.54444,0.88092 -1.49412,2.67384 -2.21758,1.95038 z m -116.52639,-1.51839 c 0,-0.74499 0.54429,-1.1531 1.33371,-1 2.00701,0.38924 2.28259,2.25866 0.33295,2.25866 -0.98267,0 -1.66666,-0.51655 -1.66666,-1.25866 z m 57.64228,-16.29828 c -1.67591,-9.95689 9.38324,-19.33186 -2.27674,-29.11881 -4.92977,-4.09852 -8.89984,-9.06609 -11.28807,-14.12425 -1.88002,-3.9818 -2.07625,-5.31244 -2.06459,-14 0.0126,-9.39463 0.0761,-9.73351 2.96686,-15.84093 7.10558,-15.01216 21.21596,-23.14697 38.05881,-21.94139 10.78106,0.7717 19.92771,5.29746 25.85113,12.79116 4.43383,5.6092 6.60146,10.14544 8.95879,18.74816 1.10345,4.02687 3.49122,10.70749 5.30616,14.84583 1.81493,4.13834 3.08967,8.07204 2.83275,8.74156 -0.25692,0.66952 -1.97919,1.90093 -3.82726,2.73647 l -3.36013,1.51914 -0.4,8.18829 c -0.38451,7.87115 -0.49683,8.28497 -2.90013,10.68474 -2.28974,2.28639 -3.0807,2.54161 -9.39896,3.03291 -8.54879,0.66472 -10.14106,1.8893 -10.69763,8.2273 -0.22523,2.56483 -0.88015,4.66564 -1.64188,5.26676 -1.52046,1.19986 -34.25855,1.42016 -36.11911,0.24306 z m 12.03834,-44.16542 c 3.15377,-1.0697 7.11938,-3.67457 7.11938,-4.67647 0,-0.37944 -0.8086,-0.80493 -1.79688,-0.94553 -1.1712,-0.16662 -2.29589,-1.31775 -3.22996,-3.30589 -1.2094,-2.57417 -1.77176,-3.01119 -3.60312,-2.8 -1.78771,0.20616 -2.24052,0.72898 -2.57004,2.9674 -0.3855,2.61862 -1.20146,3.47344 -4.2,4.40002 -2.0816,0.64324 -1.70849,1.74484 1.2,3.54291 3.13808,1.94002 3.61048,1.99456 7.08062,0.81756 z m -11.13131,-2.41847 c 0.18317,-1.85646 0.89713,-2.89753 2.65069,-3.8651 1.64012,-0.90498 2.4,-1.93689 2.4,-3.25917 0,-1.70023 -0.43612,-1.98341 -3.5959,-2.3349 -3.25222,-0.36177 -3.63526,-0.62938 -4.00786,-2.8 -0.22657,-1.32 -0.67842,-2.31 -1.0041,-2.2 -0.32568,0.11 -0.9764,0.2 -1.44606,0.2 -0.49345,0 -0.63679,0.68406 -0.33956,1.62055 0.41172,1.29723 0.0234,1.79167 -1.94609,2.47826 -1.35324,0.47174 -2.46043,1.39809 -2.46043,2.05855 0,3.5234 5.62621,10.64264 8.41069,10.64264 0.63626,0 1.19201,-1.05486 1.33862,-2.54083 z m 18.26006,-7.91848 c 0.35457,-1.51732 1.05677,-1.99858 3.21885,-2.20605 3.4352,-0.32964 4.77177,-1.39093 4.77177,-3.78894 0,-1.21658 -0.7343,-2.21883 -2.1262,-2.90205 -2.99636,-1.47076 -4.04787,-3.38799 -2.72945,-4.97659 0.57836,-0.69688 1.65549,-1.26706 2.39361,-1.26706 1.88083,0 3.26204,-1.59206 3.26204,-3.76 0,-1.32618 -0.46148,-1.84 -1.65259,-1.84 -2.50294,0 -4.7474,-1.47988 -4.7474,-3.13019 0,-1.9373 -1.86166,-3.42617 -3.4986,-2.79802 -0.71577,0.27467 -1.3014,1.28888 -1.3014,2.2538 0,2.5367 -1.50927,3.67441 -4.87441,3.67441 -1.95604,0 -3.11851,0.42762 -3.44,1.26543 -0.84388,2.19911 -0.55474,2.68421 2.31441,3.88301 2.27169,0.94918 2.8,1.60026 2.8,3.45074 0,2.75901 -1.29052,4.20082 -3.76,4.20082 -1.42934,0 -1.84,0.44638 -1.84,2 0,1.58977 0.40251,2 1.96236,2 3.3754,0 5.84065,1.6151 6.34962,4.15991 0.55461,2.77307 2.22772,2.64648 2.89739,-0.21922 z m 4.09423,-0.15708 c -1.06768,-1.06768 -2.53052,0.0154 -1.97524,1.46243 0.3599,0.93788 0.70373,0.99127 1.59896,0.24829 0.72471,-0.60145 0.86188,-1.22512 0.37628,-1.71072 z m -17.25203,-5.98361 c 0.88163,-4.02352 1.13363,-4.39048 2.72873,-3.97335 2.12408,0.55546 3.75419,-1.41868 2.45955,-2.97862 -0.52582,-0.63359 -1.7399,-1.26359 -2.69795,-1.4 -1.374,-0.19564 -1.82638,-0.92389 -2.1419,-3.44803 -0.36621,-2.92966 -0.60183,-3.2 -2.78904,-3.2 -1.7629,0 -2.46203,0.41935 -2.66749,1.6 -0.37305,2.14358 -2.3829,3.6 -4.96796,3.6 -2.45659,0 -3.76355,2.2302 -4.51352,7.70188 -0.3901,2.84606 -0.24589,3.49812 0.77363,3.49812 0.69042,0 1.36788,-0.80824 1.50874,-1.8 0.19649,-1.38354 0.8626,-1.8584 2.87897,-2.05243 2.30301,-0.2216 2.72774,0.047 3.47827,2.2 0.68737,1.97181 1.30693,2.45243 3.16141,2.45243 1.86599,0 2.39857,-0.42017 2.78856,-2.2 z m 30.06633,-1.09016 c 6.54344,-3.2062 9.48209,-5.9519 9.48209,-8.85951 0,-2.98629 -2.83345,-3.13009 -4.16334,-0.2113 -1.34661,2.95548 -4.87104,2.46668 -5.43286,-0.75348 -0.85824,-4.91914 -5.30751,-4.7801 -6.5996,0.20625 -0.51139,1.97351 -1.20646,2.66865 -3.03379,3.03412 -3.03516,0.60703 -3.02327,1.72972 0.0296,2.79396 2.03244,0.70851 2.4,1.25348 2.4,3.55838 0,3.40974 0.78123,3.43447 7.31791,0.23158 z m 6.73861,-13.18501 c 3.01926,-1.26153 2.99446,-2.18223 -0.17428,-6.47075 -2.38124,-3.22271 -4.72728,-4.02329 -6.6612,-2.27312 -0.80536,0.72885 -1.94956,1.25864 -2.54267,1.17732 -2.67393,-0.36661 -3.17549,0.0857 -2.92905,2.64172 0.22157,2.29806 0.57585,2.64645 3.05068,3 2.16127,0.30875 3.07375,0.97454 4,2.91861 0.94832,1.99036 1.34299,2.26828 1.88171,1.32505 0.37493,-0.65647 1.8936,-1.69994 3.37481,-2.31883 z m -44.45651,0.47517 c 0,-0.88 -0.36,-1.6 -0.8,-1.6 -0.44,0 -0.8,0.15056 -0.8,0.33457 0,0.18401 -0.21852,0.90401 -0.4856,1.6 -0.31864,0.83039 -0.0436,1.26543 0.8,1.26543 0.75226,0 1.2856,-0.66377 1.2856,-1.6 z m 14.73456,-2.88559 c 0.696,-0.26707 1.26544,-1.27507 1.26544,-2.24 0,-2.52208 1.50532,-3.67441 4.8,-3.67441 3.34618,0 4.79999,1.15492 4.79999,3.81314 0,1.59327 0.34848,1.85304 2.2,1.64 1.86999,-0.21517 2.23981,-0.67267 2.46536,-3.04993 0.34703,-3.65743 1.45408,-4.90411 3.82618,-4.30875 3.45642,0.86751 2.02572,-1.20094 -1.49154,-2.15639 -4.02128,-1.09238 -13.21998,-0.53195 -17.79999,1.08446 -2.99113,1.05564 -3.21644,1.35421 -3.4519,4.57413 -0.16182,2.213 0.12424,3.68328 0.8,4.1118 1.27766,0.81021 1.05749,0.79267 2.58646,0.20595 z m -5.62016,-2.37984 c 1.44872,-3.77531 -0.53592,-4.62509 -4.39091,-1.88009 -3.14819,2.24171 -2.92094,3.14552 0.79091,3.14552 2.10195,0 3.27228,-0.41138 3.6,-1.26543 z"
                 style="fill:#d7dcf4;fill-opacity:1;stroke-width:0.80000001" />
            </g>
          </g>
        </g>
      </g>
    </g>
  </g>
</svg>
